G04*
G04 #@! TF.GenerationSoftware,Altium Limited,Altium Designer,22.2.1 (43)*
G04*
G04 Layer_Physical_Order=2*
G04 Layer_Color=16711680*
%FSLAX44Y44*%
%MOMM*%
G71*
G04*
G04 #@! TF.SameCoordinates,B7F19F8C-4A71-44AC-9732-6E8CD1541173*
G04*
G04*
G04 #@! TF.FilePolarity,Positive*
G04*
G01*
G75*
%ADD10C,0.1524*%
%ADD11C,0.2540*%
%ADD49C,0.5000*%
%ADD50C,0.5500*%
%ADD51C,0.6200*%
G36*
X-428885Y-431000D02*
X-551115D01*
Y-228885D01*
X-428885D01*
Y-431000D01*
D02*
G37*
G36*
X-288885D02*
X-411115D01*
Y-228885D01*
X-288885D01*
Y-431000D01*
D02*
G37*
G36*
X-428885Y-211000D02*
X-551115D01*
Y-8885D01*
X-428885D01*
Y-211000D01*
D02*
G37*
G36*
X-288885D02*
X-411115D01*
Y-8885D01*
X-288885D01*
Y-211000D01*
D02*
G37*
G36*
X-148885Y-431000D02*
X-271115D01*
Y-228885D01*
X-148885D01*
Y-431000D01*
D02*
G37*
G36*
X-8885D02*
X-131115D01*
Y-228885D01*
X-8885D01*
Y-431000D01*
D02*
G37*
G36*
X-148885Y-211000D02*
X-271115D01*
Y-8885D01*
X-148885D01*
Y-211000D01*
D02*
G37*
G36*
X-8885D02*
X-131115D01*
Y-8885D01*
X-8885D01*
Y-211000D01*
D02*
G37*
G36*
X-428885Y9000D02*
X-551115D01*
Y211115D01*
X-428885D01*
Y9000D01*
D02*
G37*
G36*
X-288885D02*
X-411115D01*
Y211115D01*
X-288885D01*
Y9000D01*
D02*
G37*
G36*
X-428885Y229000D02*
X-551115D01*
Y431115D01*
X-428885D01*
Y229000D01*
D02*
G37*
G36*
X-288885D02*
X-411115D01*
Y431115D01*
X-288885D01*
Y229000D01*
D02*
G37*
G36*
X-148885Y9000D02*
X-271115D01*
Y211115D01*
X-148885D01*
Y9000D01*
D02*
G37*
G36*
X-8885D02*
X-131115D01*
Y211115D01*
X-8885D01*
Y9000D01*
D02*
G37*
G36*
X-148885Y229000D02*
X-271115D01*
Y431115D01*
X-148885D01*
Y229000D01*
D02*
G37*
G36*
X-8885D02*
X-131115D01*
Y431115D01*
X-8885D01*
Y229000D01*
D02*
G37*
G36*
X131115Y-431000D02*
X8885D01*
Y-228885D01*
X131115D01*
Y-431000D01*
D02*
G37*
G36*
X271115D02*
X148885D01*
Y-228885D01*
X271115D01*
Y-431000D01*
D02*
G37*
G36*
X131115Y-211000D02*
X8885D01*
Y-8885D01*
X131115D01*
Y-211000D01*
D02*
G37*
G36*
X271115D02*
X148885D01*
Y-8885D01*
X271115D01*
Y-211000D01*
D02*
G37*
G36*
X411115Y-431000D02*
X288885D01*
Y-228885D01*
X411115D01*
Y-431000D01*
D02*
G37*
G36*
X551115D02*
X428885D01*
Y-228885D01*
X551115D01*
Y-431000D01*
D02*
G37*
G36*
X411115Y-211000D02*
X288885D01*
Y-8885D01*
X411115D01*
Y-211000D01*
D02*
G37*
G36*
X551115D02*
X428885D01*
Y-8885D01*
X551115D01*
Y-211000D01*
D02*
G37*
G36*
X131115Y9000D02*
X8885D01*
Y211115D01*
X131115D01*
Y9000D01*
D02*
G37*
G36*
X271115D02*
X148885D01*
Y211115D01*
X271115D01*
Y9000D01*
D02*
G37*
G36*
X131115Y229000D02*
X8885D01*
Y431115D01*
X131115D01*
Y229000D01*
D02*
G37*
G36*
X271115D02*
X148885D01*
Y431115D01*
X271115D01*
Y229000D01*
D02*
G37*
G36*
X411115Y9000D02*
X288885D01*
Y211115D01*
X411115D01*
Y9000D01*
D02*
G37*
G36*
X551115D02*
X428885D01*
Y211115D01*
X551115D01*
Y9000D01*
D02*
G37*
G36*
X411115Y229000D02*
X288885D01*
Y431115D01*
X411115D01*
Y229000D01*
D02*
G37*
G36*
X551115D02*
X428885D01*
Y431115D01*
X551115D01*
Y229000D01*
D02*
G37*
%LPC*%
G36*
X-487672Y-236360D02*
X-492328D01*
X-496895Y-237269D01*
X-501198Y-239051D01*
X-505070Y-241638D01*
X-508362Y-244930D01*
X-510950Y-248802D01*
X-512732Y-253104D01*
X-513640Y-257672D01*
Y-262328D01*
X-512732Y-266896D01*
X-510950Y-271198D01*
X-508362Y-275070D01*
X-505070Y-278362D01*
X-501198Y-280949D01*
X-496895Y-282731D01*
X-492328Y-283640D01*
X-487672D01*
X-483105Y-282731D01*
X-478802Y-280949D01*
X-474930Y-278362D01*
X-471638Y-275070D01*
X-469050Y-271198D01*
X-467268Y-266896D01*
X-466360Y-262328D01*
Y-257672D01*
X-467268Y-253104D01*
X-469050Y-248802D01*
X-471638Y-244930D01*
X-474930Y-241638D01*
X-478802Y-239051D01*
X-483105Y-237269D01*
X-487672Y-236360D01*
D02*
G37*
G36*
X-488997Y-312460D02*
X-491003D01*
X-492855Y-313227D01*
X-494273Y-314645D01*
X-495040Y-316497D01*
Y-318503D01*
X-494273Y-320355D01*
X-492855Y-321773D01*
X-491003Y-322540D01*
X-488997D01*
X-487145Y-321773D01*
X-485727Y-320355D01*
X-484960Y-318503D01*
Y-316497D01*
X-485727Y-314645D01*
X-487145Y-313227D01*
X-488997Y-312460D01*
D02*
G37*
G36*
X-443073Y-322960D02*
X-444927D01*
X-446717Y-323440D01*
X-448323Y-324367D01*
X-449633Y-325677D01*
X-450560Y-327283D01*
X-451040Y-329073D01*
Y-330927D01*
X-450560Y-332717D01*
X-449633Y-334323D01*
X-448323Y-335633D01*
X-446717Y-336560D01*
X-444927Y-337040D01*
X-443073D01*
X-441283Y-336560D01*
X-439677Y-335633D01*
X-438367Y-334323D01*
X-437440Y-332717D01*
X-436960Y-330927D01*
Y-329073D01*
X-437440Y-327283D01*
X-438367Y-325677D01*
X-439677Y-324367D01*
X-441283Y-323440D01*
X-443073Y-322960D01*
D02*
G37*
G36*
X-515948Y-322710D02*
X-518052D01*
X-519996Y-323515D01*
X-521485Y-325003D01*
X-522290Y-326948D01*
Y-329052D01*
X-521485Y-330997D01*
X-519996Y-332485D01*
X-518052Y-333290D01*
X-515948D01*
X-514003Y-332485D01*
X-512886Y-331367D01*
X-481395D01*
X-475023Y-337738D01*
X-475322Y-339236D01*
X-475997Y-339515D01*
X-477485Y-341003D01*
X-478290Y-342948D01*
Y-344529D01*
X-487381Y-353619D01*
X-488110Y-354712D01*
X-488367Y-356000D01*
Y-395886D01*
X-489485Y-397003D01*
X-490290Y-398948D01*
Y-401052D01*
X-489485Y-402996D01*
X-487996Y-404485D01*
X-486052Y-405290D01*
X-483948D01*
X-482004Y-404485D01*
X-480759Y-403240D01*
X-480000Y-403095D01*
X-479241Y-403240D01*
X-477996Y-404485D01*
X-476052Y-405290D01*
X-473948D01*
X-472004Y-404485D01*
X-470515Y-402996D01*
X-469710Y-401052D01*
Y-398948D01*
X-470515Y-397003D01*
X-471633Y-395886D01*
Y-358395D01*
X-468529Y-355290D01*
X-466948D01*
X-465004Y-354485D01*
X-463515Y-352996D01*
X-462948Y-351626D01*
X-462552Y-351790D01*
X-460448D01*
X-458503Y-350985D01*
X-457015Y-349496D01*
X-456210Y-347552D01*
Y-345448D01*
X-457015Y-343503D01*
X-458503Y-342015D01*
X-460448Y-341210D01*
X-462029D01*
X-477619Y-325619D01*
X-478712Y-324890D01*
X-480000Y-324633D01*
X-512886D01*
X-514003Y-323515D01*
X-515948Y-322710D01*
D02*
G37*
G36*
X-443073Y-352960D02*
X-444927D01*
X-446717Y-353440D01*
X-448323Y-354367D01*
X-449633Y-355677D01*
X-450560Y-357283D01*
X-451040Y-359073D01*
Y-360927D01*
X-450560Y-362717D01*
X-449633Y-364323D01*
X-448323Y-365633D01*
X-446717Y-366560D01*
X-444927Y-367040D01*
X-443073D01*
X-441283Y-366560D01*
X-439677Y-365633D01*
X-438367Y-364323D01*
X-437440Y-362717D01*
X-436960Y-360927D01*
Y-359073D01*
X-437440Y-357283D01*
X-438367Y-355677D01*
X-439677Y-354367D01*
X-441283Y-353440D01*
X-443073Y-352960D01*
D02*
G37*
G36*
X-347672Y-236360D02*
X-352328D01*
X-356895Y-237269D01*
X-361198Y-239051D01*
X-365070Y-241638D01*
X-368362Y-244930D01*
X-370950Y-248802D01*
X-372732Y-253104D01*
X-373640Y-257672D01*
Y-262328D01*
X-372732Y-266896D01*
X-370950Y-271198D01*
X-368362Y-275070D01*
X-365070Y-278362D01*
X-361198Y-280949D01*
X-356895Y-282731D01*
X-352328Y-283640D01*
X-347672D01*
X-343105Y-282731D01*
X-338802Y-280949D01*
X-334930Y-278362D01*
X-331638Y-275070D01*
X-329050Y-271198D01*
X-327268Y-266896D01*
X-326360Y-262328D01*
Y-257672D01*
X-327268Y-253104D01*
X-329050Y-248802D01*
X-331638Y-244930D01*
X-334930Y-241638D01*
X-338802Y-239051D01*
X-343105Y-237269D01*
X-347672Y-236360D01*
D02*
G37*
G36*
X-348997Y-312460D02*
X-351003D01*
X-352855Y-313227D01*
X-354273Y-314645D01*
X-355040Y-316497D01*
Y-318503D01*
X-354273Y-320355D01*
X-352855Y-321773D01*
X-351003Y-322540D01*
X-348997D01*
X-347145Y-321773D01*
X-345727Y-320355D01*
X-344960Y-318503D01*
Y-316497D01*
X-345727Y-314645D01*
X-347145Y-313227D01*
X-348997Y-312460D01*
D02*
G37*
G36*
X-303073Y-322960D02*
X-304927D01*
X-306717Y-323440D01*
X-308323Y-324367D01*
X-309633Y-325677D01*
X-310560Y-327283D01*
X-311040Y-329073D01*
Y-330927D01*
X-310560Y-332717D01*
X-309633Y-334323D01*
X-308323Y-335633D01*
X-306717Y-336560D01*
X-304927Y-337040D01*
X-303073D01*
X-301283Y-336560D01*
X-299677Y-335633D01*
X-298367Y-334323D01*
X-297440Y-332717D01*
X-296960Y-330927D01*
Y-329073D01*
X-297440Y-327283D01*
X-298367Y-325677D01*
X-299677Y-324367D01*
X-301283Y-323440D01*
X-303073Y-322960D01*
D02*
G37*
G36*
X-375948Y-322710D02*
X-378052D01*
X-379996Y-323515D01*
X-381485Y-325003D01*
X-382290Y-326948D01*
Y-329052D01*
X-381485Y-330997D01*
X-379996Y-332485D01*
X-378052Y-333290D01*
X-375948D01*
X-374003Y-332485D01*
X-372886Y-331367D01*
X-341395D01*
X-335023Y-337738D01*
X-335322Y-339236D01*
X-335997Y-339515D01*
X-337485Y-341003D01*
X-338290Y-342948D01*
Y-344529D01*
X-347381Y-353619D01*
X-348110Y-354712D01*
X-348367Y-356000D01*
Y-395886D01*
X-349485Y-397003D01*
X-350290Y-398948D01*
Y-401052D01*
X-349485Y-402996D01*
X-347996Y-404485D01*
X-346052Y-405290D01*
X-343948D01*
X-342004Y-404485D01*
X-340759Y-403240D01*
X-340000Y-403095D01*
X-339241Y-403240D01*
X-337996Y-404485D01*
X-336052Y-405290D01*
X-333948D01*
X-332004Y-404485D01*
X-330515Y-402996D01*
X-329710Y-401052D01*
Y-398948D01*
X-330515Y-397003D01*
X-331633Y-395886D01*
Y-358395D01*
X-328529Y-355290D01*
X-326948D01*
X-325004Y-354485D01*
X-323515Y-352996D01*
X-322948Y-351626D01*
X-322552Y-351790D01*
X-320448D01*
X-318503Y-350985D01*
X-317015Y-349496D01*
X-316210Y-347552D01*
Y-345448D01*
X-317015Y-343503D01*
X-318503Y-342015D01*
X-320448Y-341210D01*
X-322029D01*
X-337619Y-325619D01*
X-338712Y-324890D01*
X-340000Y-324633D01*
X-372886D01*
X-374003Y-323515D01*
X-375948Y-322710D01*
D02*
G37*
G36*
X-303073Y-352960D02*
X-304927D01*
X-306717Y-353440D01*
X-308323Y-354367D01*
X-309633Y-355677D01*
X-310560Y-357283D01*
X-311040Y-359073D01*
Y-360927D01*
X-310560Y-362717D01*
X-309633Y-364323D01*
X-308323Y-365633D01*
X-306717Y-366560D01*
X-304927Y-367040D01*
X-303073D01*
X-301283Y-366560D01*
X-299677Y-365633D01*
X-298367Y-364323D01*
X-297440Y-362717D01*
X-296960Y-360927D01*
Y-359073D01*
X-297440Y-357283D01*
X-298367Y-355677D01*
X-299677Y-354367D01*
X-301283Y-353440D01*
X-303073Y-352960D01*
D02*
G37*
G36*
X-487672Y-16360D02*
X-492328D01*
X-496895Y-17269D01*
X-501198Y-19051D01*
X-505070Y-21638D01*
X-508362Y-24930D01*
X-510950Y-28802D01*
X-512732Y-33105D01*
X-513640Y-37672D01*
Y-42328D01*
X-512732Y-46895D01*
X-510950Y-51198D01*
X-508362Y-55070D01*
X-505070Y-58362D01*
X-501198Y-60950D01*
X-496895Y-62731D01*
X-492328Y-63640D01*
X-487672D01*
X-483105Y-62731D01*
X-478802Y-60950D01*
X-474930Y-58362D01*
X-471638Y-55070D01*
X-469050Y-51198D01*
X-467268Y-46895D01*
X-466360Y-42328D01*
Y-37672D01*
X-467268Y-33105D01*
X-469050Y-28802D01*
X-471638Y-24930D01*
X-474930Y-21638D01*
X-478802Y-19051D01*
X-483105Y-17269D01*
X-487672Y-16360D01*
D02*
G37*
G36*
X-443073Y-102960D02*
X-444927D01*
X-446717Y-103440D01*
X-448323Y-104367D01*
X-449633Y-105677D01*
X-450560Y-107283D01*
X-451040Y-109073D01*
Y-110927D01*
X-450560Y-112717D01*
X-449633Y-114323D01*
X-448323Y-115633D01*
X-446717Y-116560D01*
X-444927Y-117040D01*
X-443073D01*
X-441283Y-116560D01*
X-439677Y-115633D01*
X-438367Y-114323D01*
X-437440Y-112717D01*
X-436960Y-110927D01*
Y-109073D01*
X-437440Y-107283D01*
X-438367Y-105677D01*
X-439677Y-104367D01*
X-441283Y-103440D01*
X-443073Y-102960D01*
D02*
G37*
G36*
X-485000Y-77633D02*
X-509000D01*
X-510288Y-77890D01*
X-511381Y-78619D01*
X-519381Y-86619D01*
X-520110Y-87712D01*
X-520367Y-89000D01*
Y-103885D01*
X-521485Y-105003D01*
X-522290Y-106948D01*
Y-109052D01*
X-521485Y-110997D01*
X-519996Y-112485D01*
X-518052Y-113290D01*
X-515948D01*
X-514003Y-112485D01*
X-512515Y-110997D01*
X-511710Y-109052D01*
Y-106948D01*
X-512515Y-105003D01*
X-513633Y-103885D01*
Y-90394D01*
X-508470Y-85231D01*
X-507979Y-85292D01*
X-507175Y-86671D01*
X-507290Y-86948D01*
Y-89052D01*
X-506485Y-90997D01*
X-504996Y-92485D01*
X-503052Y-93290D01*
X-501471D01*
X-478367Y-116395D01*
Y-175886D01*
X-479241Y-176760D01*
X-480000Y-176905D01*
X-480759Y-176760D01*
X-481633Y-175886D01*
Y-139000D01*
X-481890Y-137712D01*
X-482619Y-136619D01*
X-496710Y-122529D01*
Y-120948D01*
X-497515Y-119003D01*
X-499003Y-117515D01*
X-500948Y-116710D01*
X-503052D01*
X-504996Y-117515D01*
X-506485Y-119003D01*
X-507290Y-120948D01*
Y-123052D01*
X-506485Y-124997D01*
X-504996Y-126485D01*
X-503052Y-127290D01*
X-501471D01*
X-488367Y-140394D01*
Y-175886D01*
X-489485Y-177003D01*
X-490290Y-178948D01*
Y-181052D01*
X-489485Y-182997D01*
X-487996Y-184485D01*
X-486052Y-185290D01*
X-483948D01*
X-482004Y-184485D01*
X-480759Y-183240D01*
X-480000Y-183095D01*
X-479241Y-183240D01*
X-477996Y-184485D01*
X-476052Y-185290D01*
X-473948D01*
X-472004Y-184485D01*
X-470515Y-182997D01*
X-469710Y-181052D01*
Y-178948D01*
X-470515Y-177003D01*
X-471633Y-175886D01*
Y-115000D01*
X-471890Y-113712D01*
X-472619Y-112619D01*
X-496710Y-88529D01*
Y-86948D01*
X-497253Y-85637D01*
X-496493Y-84367D01*
X-486395D01*
X-483290Y-87471D01*
Y-89052D01*
X-482485Y-90997D01*
X-480997Y-92485D01*
X-479052Y-93290D01*
X-477471D01*
X-464867Y-105895D01*
Y-122386D01*
X-465985Y-123503D01*
X-466790Y-125448D01*
Y-127552D01*
X-465985Y-129496D01*
X-464496Y-130985D01*
X-462552Y-131790D01*
X-460448D01*
X-458503Y-130985D01*
X-457015Y-129496D01*
X-456210Y-127552D01*
Y-125448D01*
X-457015Y-123503D01*
X-458133Y-122386D01*
Y-104500D01*
X-458390Y-103212D01*
X-459119Y-102119D01*
X-472710Y-88529D01*
Y-86948D01*
X-473515Y-85003D01*
X-475004Y-83515D01*
X-476948Y-82710D01*
X-478529D01*
X-482619Y-78619D01*
X-483712Y-77890D01*
X-485000Y-77633D01*
D02*
G37*
G36*
X-443073Y-132960D02*
X-444927D01*
X-446717Y-133440D01*
X-448323Y-134367D01*
X-449633Y-135677D01*
X-450560Y-137283D01*
X-451040Y-139073D01*
Y-140927D01*
X-450560Y-142717D01*
X-449633Y-144323D01*
X-448323Y-145633D01*
X-446717Y-146560D01*
X-444927Y-147040D01*
X-443073D01*
X-441283Y-146560D01*
X-439677Y-145633D01*
X-438367Y-144323D01*
X-437440Y-142717D01*
X-436960Y-140927D01*
Y-139073D01*
X-437440Y-137283D01*
X-438367Y-135677D01*
X-439677Y-134367D01*
X-441283Y-133440D01*
X-443073Y-132960D01*
D02*
G37*
G36*
X-347672Y-16360D02*
X-352328D01*
X-356895Y-17269D01*
X-361198Y-19051D01*
X-365070Y-21638D01*
X-368362Y-24930D01*
X-370950Y-28802D01*
X-372732Y-33105D01*
X-373640Y-37672D01*
Y-42328D01*
X-372732Y-46895D01*
X-370950Y-51198D01*
X-368362Y-55070D01*
X-365070Y-58362D01*
X-361198Y-60950D01*
X-356895Y-62731D01*
X-352328Y-63640D01*
X-347672D01*
X-343105Y-62731D01*
X-338802Y-60950D01*
X-334930Y-58362D01*
X-331638Y-55070D01*
X-329050Y-51198D01*
X-327268Y-46895D01*
X-326360Y-42328D01*
Y-37672D01*
X-327268Y-33105D01*
X-329050Y-28802D01*
X-331638Y-24930D01*
X-334930Y-21638D01*
X-338802Y-19051D01*
X-343105Y-17269D01*
X-347672Y-16360D01*
D02*
G37*
G36*
X-303073Y-102960D02*
X-304927D01*
X-306717Y-103440D01*
X-308323Y-104367D01*
X-309633Y-105677D01*
X-310560Y-107283D01*
X-311040Y-109073D01*
Y-110927D01*
X-310560Y-112717D01*
X-309633Y-114323D01*
X-308323Y-115633D01*
X-306717Y-116560D01*
X-304927Y-117040D01*
X-303073D01*
X-301283Y-116560D01*
X-299677Y-115633D01*
X-298367Y-114323D01*
X-297440Y-112717D01*
X-296960Y-110927D01*
Y-109073D01*
X-297440Y-107283D01*
X-298367Y-105677D01*
X-299677Y-104367D01*
X-301283Y-103440D01*
X-303073Y-102960D01*
D02*
G37*
G36*
X-345000Y-77633D02*
X-369000D01*
X-370288Y-77890D01*
X-371381Y-78619D01*
X-379381Y-86619D01*
X-380110Y-87712D01*
X-380367Y-89000D01*
Y-103885D01*
X-381485Y-105003D01*
X-382290Y-106948D01*
Y-109052D01*
X-381485Y-110997D01*
X-379996Y-112485D01*
X-378052Y-113290D01*
X-375948D01*
X-374003Y-112485D01*
X-372515Y-110997D01*
X-371710Y-109052D01*
Y-106948D01*
X-372515Y-105003D01*
X-373633Y-103885D01*
Y-90394D01*
X-368470Y-85231D01*
X-367979Y-85292D01*
X-367175Y-86671D01*
X-367290Y-86948D01*
Y-89052D01*
X-366485Y-90997D01*
X-364996Y-92485D01*
X-363052Y-93290D01*
X-361471D01*
X-338367Y-116395D01*
Y-175886D01*
X-339241Y-176760D01*
X-340000Y-176905D01*
X-340759Y-176760D01*
X-341633Y-175886D01*
Y-139000D01*
X-341890Y-137712D01*
X-342619Y-136619D01*
X-356710Y-122529D01*
Y-120948D01*
X-357515Y-119003D01*
X-359003Y-117515D01*
X-360948Y-116710D01*
X-363052D01*
X-364996Y-117515D01*
X-366485Y-119003D01*
X-367290Y-120948D01*
Y-123052D01*
X-366485Y-124997D01*
X-364996Y-126485D01*
X-363052Y-127290D01*
X-361471D01*
X-348367Y-140394D01*
Y-175886D01*
X-349485Y-177003D01*
X-350290Y-178948D01*
Y-181052D01*
X-349485Y-182997D01*
X-347996Y-184485D01*
X-346052Y-185290D01*
X-343948D01*
X-342004Y-184485D01*
X-340759Y-183240D01*
X-340000Y-183095D01*
X-339241Y-183240D01*
X-337996Y-184485D01*
X-336052Y-185290D01*
X-333948D01*
X-332004Y-184485D01*
X-330515Y-182997D01*
X-329710Y-181052D01*
Y-178948D01*
X-330515Y-177003D01*
X-331633Y-175886D01*
Y-115000D01*
X-331890Y-113712D01*
X-332619Y-112619D01*
X-356710Y-88529D01*
Y-86948D01*
X-357253Y-85637D01*
X-356493Y-84367D01*
X-346395D01*
X-343290Y-87471D01*
Y-89052D01*
X-342485Y-90997D01*
X-340997Y-92485D01*
X-339052Y-93290D01*
X-337471D01*
X-324867Y-105895D01*
Y-122386D01*
X-325985Y-123503D01*
X-326790Y-125448D01*
Y-127552D01*
X-325985Y-129496D01*
X-324496Y-130985D01*
X-322552Y-131790D01*
X-320448D01*
X-318503Y-130985D01*
X-317015Y-129496D01*
X-316210Y-127552D01*
Y-125448D01*
X-317015Y-123503D01*
X-318133Y-122386D01*
Y-104500D01*
X-318390Y-103212D01*
X-319119Y-102119D01*
X-332710Y-88529D01*
Y-86948D01*
X-333515Y-85003D01*
X-335004Y-83515D01*
X-336948Y-82710D01*
X-338529D01*
X-342619Y-78619D01*
X-343712Y-77890D01*
X-345000Y-77633D01*
D02*
G37*
G36*
X-303073Y-132960D02*
X-304927D01*
X-306717Y-133440D01*
X-308323Y-134367D01*
X-309633Y-135677D01*
X-310560Y-137283D01*
X-311040Y-139073D01*
Y-140927D01*
X-310560Y-142717D01*
X-309633Y-144323D01*
X-308323Y-145633D01*
X-306717Y-146560D01*
X-304927Y-147040D01*
X-303073D01*
X-301283Y-146560D01*
X-299677Y-145633D01*
X-298367Y-144323D01*
X-297440Y-142717D01*
X-296960Y-140927D01*
Y-139073D01*
X-297440Y-137283D01*
X-298367Y-135677D01*
X-299677Y-134367D01*
X-301283Y-133440D01*
X-303073Y-132960D01*
D02*
G37*
G36*
X-207672Y-236360D02*
X-212328D01*
X-216896Y-237269D01*
X-221198Y-239051D01*
X-225070Y-241638D01*
X-228362Y-244930D01*
X-230949Y-248802D01*
X-232731Y-253104D01*
X-233640Y-257672D01*
Y-262328D01*
X-232731Y-266896D01*
X-230949Y-271198D01*
X-228362Y-275070D01*
X-225070Y-278362D01*
X-221198Y-280949D01*
X-216896Y-282731D01*
X-212328Y-283640D01*
X-207672D01*
X-203104Y-282731D01*
X-198802Y-280949D01*
X-194930Y-278362D01*
X-191638Y-275070D01*
X-189051Y-271198D01*
X-187269Y-266896D01*
X-186360Y-262328D01*
Y-257672D01*
X-187269Y-253104D01*
X-189051Y-248802D01*
X-191638Y-244930D01*
X-194930Y-241638D01*
X-198802Y-239051D01*
X-203104Y-237269D01*
X-207672Y-236360D01*
D02*
G37*
G36*
X-208997Y-312460D02*
X-211003D01*
X-212855Y-313227D01*
X-214273Y-314645D01*
X-215040Y-316497D01*
Y-318503D01*
X-214273Y-320355D01*
X-212855Y-321773D01*
X-211003Y-322540D01*
X-208997D01*
X-207145Y-321773D01*
X-205727Y-320355D01*
X-204960Y-318503D01*
Y-316497D01*
X-205727Y-314645D01*
X-207145Y-313227D01*
X-208997Y-312460D01*
D02*
G37*
G36*
X-163073Y-322960D02*
X-164927D01*
X-166717Y-323440D01*
X-168323Y-324367D01*
X-169633Y-325677D01*
X-170560Y-327283D01*
X-171040Y-329073D01*
Y-330927D01*
X-170560Y-332717D01*
X-169633Y-334323D01*
X-168323Y-335633D01*
X-166717Y-336560D01*
X-164927Y-337040D01*
X-163073D01*
X-161283Y-336560D01*
X-159677Y-335633D01*
X-158367Y-334323D01*
X-157440Y-332717D01*
X-156960Y-330927D01*
Y-329073D01*
X-157440Y-327283D01*
X-158367Y-325677D01*
X-159677Y-324367D01*
X-161283Y-323440D01*
X-163073Y-322960D01*
D02*
G37*
G36*
X-235948Y-322710D02*
X-238052D01*
X-239996Y-323515D01*
X-241485Y-325003D01*
X-242290Y-326948D01*
Y-329052D01*
X-241485Y-330997D01*
X-239996Y-332485D01*
X-238052Y-333290D01*
X-235948D01*
X-234004Y-332485D01*
X-232885Y-331367D01*
X-201395D01*
X-195023Y-337738D01*
X-195322Y-339236D01*
X-195996Y-339515D01*
X-197485Y-341003D01*
X-198290Y-342948D01*
Y-344529D01*
X-207381Y-353619D01*
X-208110Y-354712D01*
X-208367Y-356000D01*
Y-395886D01*
X-209485Y-397003D01*
X-210290Y-398948D01*
Y-401052D01*
X-209485Y-402996D01*
X-207997Y-404485D01*
X-206052Y-405290D01*
X-203948D01*
X-202003Y-404485D01*
X-200759Y-403240D01*
X-200000Y-403095D01*
X-199241Y-403240D01*
X-197997Y-404485D01*
X-196052Y-405290D01*
X-193948D01*
X-192003Y-404485D01*
X-190515Y-402996D01*
X-189710Y-401052D01*
Y-398948D01*
X-190515Y-397003D01*
X-191633Y-395886D01*
Y-358395D01*
X-188529Y-355290D01*
X-186948D01*
X-185004Y-354485D01*
X-183515Y-352996D01*
X-182948Y-351626D01*
X-182552Y-351790D01*
X-180448D01*
X-178503Y-350985D01*
X-177015Y-349496D01*
X-176210Y-347552D01*
Y-345448D01*
X-177015Y-343503D01*
X-178503Y-342015D01*
X-180448Y-341210D01*
X-182029D01*
X-197619Y-325619D01*
X-198712Y-324890D01*
X-200000Y-324633D01*
X-232885D01*
X-234004Y-323515D01*
X-235948Y-322710D01*
D02*
G37*
G36*
X-163073Y-352960D02*
X-164927D01*
X-166717Y-353440D01*
X-168323Y-354367D01*
X-169633Y-355677D01*
X-170560Y-357283D01*
X-171040Y-359073D01*
Y-360927D01*
X-170560Y-362717D01*
X-169633Y-364323D01*
X-168323Y-365633D01*
X-166717Y-366560D01*
X-164927Y-367040D01*
X-163073D01*
X-161283Y-366560D01*
X-159677Y-365633D01*
X-158367Y-364323D01*
X-157440Y-362717D01*
X-156960Y-360927D01*
Y-359073D01*
X-157440Y-357283D01*
X-158367Y-355677D01*
X-159677Y-354367D01*
X-161283Y-353440D01*
X-163073Y-352960D01*
D02*
G37*
G36*
X-67672Y-236360D02*
X-72328D01*
X-76895Y-237269D01*
X-81198Y-239051D01*
X-85070Y-241638D01*
X-88362Y-244930D01*
X-90949Y-248802D01*
X-92732Y-253104D01*
X-93640Y-257672D01*
Y-262328D01*
X-92732Y-266896D01*
X-90949Y-271198D01*
X-88362Y-275070D01*
X-85070Y-278362D01*
X-81198Y-280949D01*
X-76895Y-282731D01*
X-72328Y-283640D01*
X-67672D01*
X-63105Y-282731D01*
X-58802Y-280949D01*
X-54930Y-278362D01*
X-51638Y-275070D01*
X-49050Y-271198D01*
X-47269Y-266896D01*
X-46360Y-262328D01*
Y-257672D01*
X-47269Y-253104D01*
X-49050Y-248802D01*
X-51638Y-244930D01*
X-54930Y-241638D01*
X-58802Y-239051D01*
X-63105Y-237269D01*
X-67672Y-236360D01*
D02*
G37*
G36*
X-68998Y-312460D02*
X-71003D01*
X-72855Y-313227D01*
X-74273Y-314645D01*
X-75040Y-316497D01*
Y-318503D01*
X-74273Y-320355D01*
X-72855Y-321773D01*
X-71003Y-322540D01*
X-68998D01*
X-67145Y-321773D01*
X-65727Y-320355D01*
X-64960Y-318503D01*
Y-316497D01*
X-65727Y-314645D01*
X-67145Y-313227D01*
X-68998Y-312460D01*
D02*
G37*
G36*
X-23073Y-322960D02*
X-24927D01*
X-26717Y-323440D01*
X-28323Y-324367D01*
X-29633Y-325677D01*
X-30560Y-327283D01*
X-31040Y-329073D01*
Y-330927D01*
X-30560Y-332717D01*
X-29633Y-334323D01*
X-28323Y-335633D01*
X-26717Y-336560D01*
X-24927Y-337040D01*
X-23073D01*
X-21283Y-336560D01*
X-19677Y-335633D01*
X-18367Y-334323D01*
X-17440Y-332717D01*
X-16960Y-330927D01*
Y-329073D01*
X-17440Y-327283D01*
X-18367Y-325677D01*
X-19677Y-324367D01*
X-21283Y-323440D01*
X-23073Y-322960D01*
D02*
G37*
G36*
X-95948Y-322710D02*
X-98052D01*
X-99997Y-323515D01*
X-101485Y-325003D01*
X-102290Y-326948D01*
Y-329052D01*
X-101485Y-330997D01*
X-99997Y-332485D01*
X-98052Y-333290D01*
X-95948D01*
X-94003Y-332485D01*
X-92886Y-331367D01*
X-61395D01*
X-55023Y-337738D01*
X-55321Y-339236D01*
X-55996Y-339515D01*
X-57485Y-341003D01*
X-58290Y-342948D01*
Y-344529D01*
X-67381Y-353619D01*
X-68110Y-354712D01*
X-68367Y-356000D01*
Y-395886D01*
X-69485Y-397003D01*
X-70290Y-398948D01*
Y-401052D01*
X-69485Y-402996D01*
X-67997Y-404485D01*
X-66052Y-405290D01*
X-63948D01*
X-62003Y-404485D01*
X-60759Y-403240D01*
X-60000Y-403095D01*
X-59241Y-403240D01*
X-57997Y-404485D01*
X-56052Y-405290D01*
X-53948D01*
X-52003Y-404485D01*
X-50515Y-402996D01*
X-49710Y-401052D01*
Y-398948D01*
X-50515Y-397003D01*
X-51633Y-395886D01*
Y-358395D01*
X-48529Y-355290D01*
X-46948D01*
X-45003Y-354485D01*
X-43515Y-352996D01*
X-42948Y-351626D01*
X-42552Y-351790D01*
X-40448D01*
X-38503Y-350985D01*
X-37015Y-349496D01*
X-36210Y-347552D01*
Y-345448D01*
X-37015Y-343503D01*
X-38503Y-342015D01*
X-40448Y-341210D01*
X-42029D01*
X-57619Y-325619D01*
X-58712Y-324890D01*
X-60000Y-324633D01*
X-92886D01*
X-94003Y-323515D01*
X-95948Y-322710D01*
D02*
G37*
G36*
X-23073Y-352960D02*
X-24927D01*
X-26717Y-353440D01*
X-28323Y-354367D01*
X-29633Y-355677D01*
X-30560Y-357283D01*
X-31040Y-359073D01*
Y-360927D01*
X-30560Y-362717D01*
X-29633Y-364323D01*
X-28323Y-365633D01*
X-26717Y-366560D01*
X-24927Y-367040D01*
X-23073D01*
X-21283Y-366560D01*
X-19677Y-365633D01*
X-18367Y-364323D01*
X-17440Y-362717D01*
X-16960Y-360927D01*
Y-359073D01*
X-17440Y-357283D01*
X-18367Y-355677D01*
X-19677Y-354367D01*
X-21283Y-353440D01*
X-23073Y-352960D01*
D02*
G37*
G36*
X-207672Y-16360D02*
X-212328D01*
X-216896Y-17269D01*
X-221198Y-19051D01*
X-225070Y-21638D01*
X-228362Y-24930D01*
X-230949Y-28802D01*
X-232731Y-33105D01*
X-233640Y-37672D01*
Y-42328D01*
X-232731Y-46895D01*
X-230949Y-51198D01*
X-228362Y-55070D01*
X-225070Y-58362D01*
X-221198Y-60950D01*
X-216896Y-62731D01*
X-212328Y-63640D01*
X-207672D01*
X-203104Y-62731D01*
X-198802Y-60950D01*
X-194930Y-58362D01*
X-191638Y-55070D01*
X-189051Y-51198D01*
X-187269Y-46895D01*
X-186360Y-42328D01*
Y-37672D01*
X-187269Y-33105D01*
X-189051Y-28802D01*
X-191638Y-24930D01*
X-194930Y-21638D01*
X-198802Y-19051D01*
X-203104Y-17269D01*
X-207672Y-16360D01*
D02*
G37*
G36*
X-163073Y-102960D02*
X-164927D01*
X-166717Y-103440D01*
X-168323Y-104367D01*
X-169633Y-105677D01*
X-170560Y-107283D01*
X-171040Y-109073D01*
Y-110927D01*
X-170560Y-112717D01*
X-169633Y-114323D01*
X-168323Y-115633D01*
X-166717Y-116560D01*
X-164927Y-117040D01*
X-163073D01*
X-161283Y-116560D01*
X-159677Y-115633D01*
X-158367Y-114323D01*
X-157440Y-112717D01*
X-156960Y-110927D01*
Y-109073D01*
X-157440Y-107283D01*
X-158367Y-105677D01*
X-159677Y-104367D01*
X-161283Y-103440D01*
X-163073Y-102960D01*
D02*
G37*
G36*
X-205000Y-77633D02*
X-229000D01*
X-230288Y-77890D01*
X-231381Y-78619D01*
X-239381Y-86619D01*
X-240110Y-87712D01*
X-240367Y-89000D01*
Y-103885D01*
X-241485Y-105003D01*
X-242290Y-106948D01*
Y-109052D01*
X-241485Y-110997D01*
X-239996Y-112485D01*
X-238052Y-113290D01*
X-235948D01*
X-234004Y-112485D01*
X-232515Y-110997D01*
X-231710Y-109052D01*
Y-106948D01*
X-232515Y-105003D01*
X-233633Y-103885D01*
Y-90394D01*
X-228470Y-85231D01*
X-227979Y-85292D01*
X-227175Y-86671D01*
X-227290Y-86948D01*
Y-89052D01*
X-226485Y-90997D01*
X-224996Y-92485D01*
X-223052Y-93290D01*
X-221471D01*
X-198367Y-116395D01*
Y-175886D01*
X-199241Y-176760D01*
X-200000Y-176905D01*
X-200759Y-176760D01*
X-201633Y-175886D01*
Y-139000D01*
X-201890Y-137712D01*
X-202619Y-136619D01*
X-216710Y-122529D01*
Y-120948D01*
X-217515Y-119003D01*
X-219003Y-117515D01*
X-220948Y-116710D01*
X-223052D01*
X-224996Y-117515D01*
X-226485Y-119003D01*
X-227290Y-120948D01*
Y-123052D01*
X-226485Y-124997D01*
X-224996Y-126485D01*
X-223052Y-127290D01*
X-221471D01*
X-208367Y-140394D01*
Y-175886D01*
X-209485Y-177003D01*
X-210290Y-178948D01*
Y-181052D01*
X-209485Y-182997D01*
X-207997Y-184485D01*
X-206052Y-185290D01*
X-203948D01*
X-202003Y-184485D01*
X-200759Y-183240D01*
X-200000Y-183095D01*
X-199241Y-183240D01*
X-197997Y-184485D01*
X-196052Y-185290D01*
X-193948D01*
X-192003Y-184485D01*
X-190515Y-182997D01*
X-189710Y-181052D01*
Y-178948D01*
X-190515Y-177003D01*
X-191633Y-175886D01*
Y-115000D01*
X-191890Y-113712D01*
X-192619Y-112619D01*
X-216710Y-88529D01*
Y-86948D01*
X-217253Y-85637D01*
X-216493Y-84367D01*
X-206395D01*
X-203290Y-87471D01*
Y-89052D01*
X-202485Y-90997D01*
X-200997Y-92485D01*
X-199052Y-93290D01*
X-197471D01*
X-184867Y-105895D01*
Y-122386D01*
X-185985Y-123503D01*
X-186790Y-125448D01*
Y-127552D01*
X-185985Y-129496D01*
X-184496Y-130985D01*
X-182552Y-131790D01*
X-180448D01*
X-178503Y-130985D01*
X-177015Y-129496D01*
X-176210Y-127552D01*
Y-125448D01*
X-177015Y-123503D01*
X-178133Y-122386D01*
Y-104500D01*
X-178390Y-103212D01*
X-179119Y-102119D01*
X-192710Y-88529D01*
Y-86948D01*
X-193515Y-85003D01*
X-195004Y-83515D01*
X-196948Y-82710D01*
X-198529D01*
X-202619Y-78619D01*
X-203712Y-77890D01*
X-205000Y-77633D01*
D02*
G37*
G36*
X-163073Y-132960D02*
X-164927D01*
X-166717Y-133440D01*
X-168323Y-134367D01*
X-169633Y-135677D01*
X-170560Y-137283D01*
X-171040Y-139073D01*
Y-140927D01*
X-170560Y-142717D01*
X-169633Y-144323D01*
X-168323Y-145633D01*
X-166717Y-146560D01*
X-164927Y-147040D01*
X-163073D01*
X-161283Y-146560D01*
X-159677Y-145633D01*
X-158367Y-144323D01*
X-157440Y-142717D01*
X-156960Y-140927D01*
Y-139073D01*
X-157440Y-137283D01*
X-158367Y-135677D01*
X-159677Y-134367D01*
X-161283Y-133440D01*
X-163073Y-132960D01*
D02*
G37*
G36*
X-67672Y-16360D02*
X-72328D01*
X-76895Y-17269D01*
X-81198Y-19051D01*
X-85070Y-21638D01*
X-88362Y-24930D01*
X-90949Y-28802D01*
X-92732Y-33105D01*
X-93640Y-37672D01*
Y-42328D01*
X-92732Y-46895D01*
X-90949Y-51198D01*
X-88362Y-55070D01*
X-85070Y-58362D01*
X-81198Y-60950D01*
X-76895Y-62731D01*
X-72328Y-63640D01*
X-67672D01*
X-63105Y-62731D01*
X-58802Y-60950D01*
X-54930Y-58362D01*
X-51638Y-55070D01*
X-49050Y-51198D01*
X-47269Y-46895D01*
X-46360Y-42328D01*
Y-37672D01*
X-47269Y-33105D01*
X-49050Y-28802D01*
X-51638Y-24930D01*
X-54930Y-21638D01*
X-58802Y-19051D01*
X-63105Y-17269D01*
X-67672Y-16360D01*
D02*
G37*
G36*
X-23073Y-102960D02*
X-24927D01*
X-26717Y-103440D01*
X-28323Y-104367D01*
X-29633Y-105677D01*
X-30560Y-107283D01*
X-31040Y-109073D01*
Y-110927D01*
X-30560Y-112717D01*
X-29633Y-114323D01*
X-28323Y-115633D01*
X-26717Y-116560D01*
X-24927Y-117040D01*
X-23073D01*
X-21283Y-116560D01*
X-19677Y-115633D01*
X-18367Y-114323D01*
X-17440Y-112717D01*
X-16960Y-110927D01*
Y-109073D01*
X-17440Y-107283D01*
X-18367Y-105677D01*
X-19677Y-104367D01*
X-21283Y-103440D01*
X-23073Y-102960D01*
D02*
G37*
G36*
X-65000Y-77633D02*
X-89000D01*
X-90288Y-77890D01*
X-91381Y-78619D01*
X-99381Y-86619D01*
X-100110Y-87712D01*
X-100367Y-89000D01*
Y-103885D01*
X-101485Y-105003D01*
X-102290Y-106948D01*
Y-109052D01*
X-101485Y-110997D01*
X-99997Y-112485D01*
X-98052Y-113290D01*
X-95948D01*
X-94003Y-112485D01*
X-92515Y-110997D01*
X-91710Y-109052D01*
Y-106948D01*
X-92515Y-105003D01*
X-93633Y-103885D01*
Y-90394D01*
X-88470Y-85231D01*
X-87979Y-85292D01*
X-87175Y-86671D01*
X-87290Y-86948D01*
Y-89052D01*
X-86485Y-90997D01*
X-84997Y-92485D01*
X-83052Y-93290D01*
X-81471D01*
X-58367Y-116395D01*
Y-175886D01*
X-59241Y-176760D01*
X-60000Y-176905D01*
X-60759Y-176760D01*
X-61633Y-175886D01*
Y-139000D01*
X-61890Y-137712D01*
X-62619Y-136619D01*
X-76710Y-122529D01*
Y-120948D01*
X-77515Y-119003D01*
X-79003Y-117515D01*
X-80948Y-116710D01*
X-83052D01*
X-84997Y-117515D01*
X-86485Y-119003D01*
X-87290Y-120948D01*
Y-123052D01*
X-86485Y-124997D01*
X-84997Y-126485D01*
X-83052Y-127290D01*
X-81471D01*
X-68367Y-140394D01*
Y-175886D01*
X-69485Y-177003D01*
X-70290Y-178948D01*
Y-181052D01*
X-69485Y-182997D01*
X-67997Y-184485D01*
X-66052Y-185290D01*
X-63948D01*
X-62003Y-184485D01*
X-60759Y-183240D01*
X-60000Y-183095D01*
X-59241Y-183240D01*
X-57997Y-184485D01*
X-56052Y-185290D01*
X-53948D01*
X-52003Y-184485D01*
X-50515Y-182997D01*
X-49710Y-181052D01*
Y-178948D01*
X-50515Y-177003D01*
X-51633Y-175886D01*
Y-115000D01*
X-51890Y-113712D01*
X-52619Y-112619D01*
X-76710Y-88529D01*
Y-86948D01*
X-77253Y-85637D01*
X-76493Y-84367D01*
X-66395D01*
X-63290Y-87471D01*
Y-89052D01*
X-62485Y-90997D01*
X-60997Y-92485D01*
X-59052Y-93290D01*
X-57471D01*
X-44867Y-105895D01*
Y-122386D01*
X-45985Y-123503D01*
X-46790Y-125448D01*
Y-127552D01*
X-45985Y-129496D01*
X-44496Y-130985D01*
X-42552Y-131790D01*
X-40448D01*
X-38503Y-130985D01*
X-37015Y-129496D01*
X-36210Y-127552D01*
Y-125448D01*
X-37015Y-123503D01*
X-38133Y-122386D01*
Y-104500D01*
X-38390Y-103212D01*
X-39119Y-102119D01*
X-52710Y-88529D01*
Y-86948D01*
X-53515Y-85003D01*
X-55003Y-83515D01*
X-56948Y-82710D01*
X-58529D01*
X-62619Y-78619D01*
X-63712Y-77890D01*
X-65000Y-77633D01*
D02*
G37*
G36*
X-23073Y-132960D02*
X-24927D01*
X-26717Y-133440D01*
X-28323Y-134367D01*
X-29633Y-135677D01*
X-30560Y-137283D01*
X-31040Y-139073D01*
Y-140927D01*
X-30560Y-142717D01*
X-29633Y-144323D01*
X-28323Y-145633D01*
X-26717Y-146560D01*
X-24927Y-147040D01*
X-23073D01*
X-21283Y-146560D01*
X-19677Y-145633D01*
X-18367Y-144323D01*
X-17440Y-142717D01*
X-16960Y-140927D01*
Y-139073D01*
X-17440Y-137283D01*
X-18367Y-135677D01*
X-19677Y-134367D01*
X-21283Y-133440D01*
X-23073Y-132960D01*
D02*
G37*
G36*
X-487672Y203640D02*
X-492328D01*
X-496895Y202731D01*
X-501198Y200949D01*
X-505070Y198362D01*
X-508362Y195070D01*
X-510950Y191198D01*
X-512732Y186896D01*
X-513640Y182328D01*
Y177672D01*
X-512732Y173104D01*
X-510950Y168802D01*
X-508362Y164930D01*
X-505070Y161638D01*
X-501198Y159051D01*
X-496895Y157268D01*
X-492328Y156360D01*
X-487672D01*
X-483105Y157268D01*
X-478802Y159051D01*
X-474930Y161638D01*
X-471638Y164930D01*
X-469050Y168802D01*
X-467268Y173104D01*
X-466360Y177672D01*
Y182328D01*
X-467268Y186896D01*
X-469050Y191198D01*
X-471638Y195070D01*
X-474930Y198362D01*
X-478802Y200949D01*
X-483105Y202731D01*
X-487672Y203640D01*
D02*
G37*
G36*
X-488997Y127540D02*
X-491003D01*
X-492855Y126773D01*
X-494273Y125355D01*
X-495040Y123503D01*
Y121497D01*
X-494273Y119645D01*
X-492855Y118227D01*
X-491003Y117460D01*
X-488997D01*
X-487145Y118227D01*
X-485727Y119645D01*
X-484960Y121497D01*
Y123503D01*
X-485727Y125355D01*
X-487145Y126773D01*
X-488997Y127540D01*
D02*
G37*
G36*
X-443073Y117040D02*
X-444927D01*
X-446717Y116560D01*
X-448323Y115633D01*
X-449633Y114323D01*
X-450560Y112717D01*
X-451040Y110927D01*
Y109073D01*
X-450560Y107283D01*
X-449633Y105677D01*
X-448323Y104367D01*
X-446717Y103440D01*
X-444927Y102960D01*
X-443073D01*
X-441283Y103440D01*
X-439677Y104367D01*
X-438367Y105677D01*
X-437440Y107283D01*
X-436960Y109073D01*
Y110927D01*
X-437440Y112717D01*
X-438367Y114323D01*
X-439677Y115633D01*
X-441283Y116560D01*
X-443073Y117040D01*
D02*
G37*
G36*
X-515948Y117290D02*
X-518052D01*
X-519996Y116485D01*
X-521485Y114997D01*
X-522290Y113052D01*
Y110948D01*
X-521485Y109003D01*
X-519996Y107515D01*
X-518052Y106710D01*
X-515948D01*
X-514003Y107515D01*
X-512886Y108633D01*
X-481395D01*
X-475023Y102262D01*
X-475322Y100764D01*
X-475997Y100485D01*
X-477485Y98997D01*
X-478290Y97052D01*
Y95471D01*
X-487381Y86381D01*
X-488110Y85288D01*
X-488367Y84000D01*
Y44114D01*
X-489485Y42997D01*
X-490290Y41052D01*
Y38948D01*
X-489485Y37004D01*
X-487996Y35515D01*
X-486052Y34710D01*
X-483948D01*
X-482004Y35515D01*
X-480759Y36760D01*
X-480000Y36905D01*
X-479241Y36760D01*
X-477996Y35515D01*
X-476052Y34710D01*
X-473948D01*
X-472004Y35515D01*
X-470515Y37004D01*
X-469710Y38948D01*
Y41052D01*
X-470515Y42997D01*
X-471633Y44114D01*
Y81606D01*
X-468529Y84710D01*
X-466948D01*
X-465004Y85515D01*
X-463515Y87003D01*
X-462948Y88374D01*
X-462552Y88210D01*
X-460448D01*
X-458503Y89015D01*
X-457015Y90504D01*
X-456210Y92448D01*
Y94552D01*
X-457015Y96497D01*
X-458503Y97985D01*
X-460448Y98790D01*
X-462029D01*
X-477619Y114381D01*
X-478712Y115110D01*
X-480000Y115367D01*
X-512886D01*
X-514003Y116485D01*
X-515948Y117290D01*
D02*
G37*
G36*
X-443073Y87040D02*
X-444927D01*
X-446717Y86560D01*
X-448323Y85633D01*
X-449633Y84323D01*
X-450560Y82717D01*
X-451040Y80927D01*
Y79073D01*
X-450560Y77283D01*
X-449633Y75677D01*
X-448323Y74367D01*
X-446717Y73440D01*
X-444927Y72960D01*
X-443073D01*
X-441283Y73440D01*
X-439677Y74367D01*
X-438367Y75677D01*
X-437440Y77283D01*
X-436960Y79073D01*
Y80927D01*
X-437440Y82717D01*
X-438367Y84323D01*
X-439677Y85633D01*
X-441283Y86560D01*
X-443073Y87040D01*
D02*
G37*
G36*
X-347672Y203640D02*
X-352328D01*
X-356895Y202731D01*
X-361198Y200949D01*
X-365070Y198362D01*
X-368362Y195070D01*
X-370950Y191198D01*
X-372732Y186896D01*
X-373640Y182328D01*
Y177672D01*
X-372732Y173104D01*
X-370950Y168802D01*
X-368362Y164930D01*
X-365070Y161638D01*
X-361198Y159051D01*
X-356895Y157268D01*
X-352328Y156360D01*
X-347672D01*
X-343105Y157268D01*
X-338802Y159051D01*
X-334930Y161638D01*
X-331638Y164930D01*
X-329050Y168802D01*
X-327268Y173104D01*
X-326360Y177672D01*
Y182328D01*
X-327268Y186896D01*
X-329050Y191198D01*
X-331638Y195070D01*
X-334930Y198362D01*
X-338802Y200949D01*
X-343105Y202731D01*
X-347672Y203640D01*
D02*
G37*
G36*
X-348997Y127540D02*
X-351003D01*
X-352855Y126773D01*
X-354273Y125355D01*
X-355040Y123503D01*
Y121497D01*
X-354273Y119645D01*
X-352855Y118227D01*
X-351003Y117460D01*
X-348997D01*
X-347145Y118227D01*
X-345727Y119645D01*
X-344960Y121497D01*
Y123503D01*
X-345727Y125355D01*
X-347145Y126773D01*
X-348997Y127540D01*
D02*
G37*
G36*
X-303073Y117040D02*
X-304927D01*
X-306717Y116560D01*
X-308323Y115633D01*
X-309633Y114323D01*
X-310560Y112717D01*
X-311040Y110927D01*
Y109073D01*
X-310560Y107283D01*
X-309633Y105677D01*
X-308323Y104367D01*
X-306717Y103440D01*
X-304927Y102960D01*
X-303073D01*
X-301283Y103440D01*
X-299677Y104367D01*
X-298367Y105677D01*
X-297440Y107283D01*
X-296960Y109073D01*
Y110927D01*
X-297440Y112717D01*
X-298367Y114323D01*
X-299677Y115633D01*
X-301283Y116560D01*
X-303073Y117040D01*
D02*
G37*
G36*
X-375948Y117290D02*
X-378052D01*
X-379996Y116485D01*
X-381485Y114997D01*
X-382290Y113052D01*
Y110948D01*
X-381485Y109003D01*
X-379996Y107515D01*
X-378052Y106710D01*
X-375948D01*
X-374003Y107515D01*
X-372886Y108633D01*
X-341395D01*
X-335023Y102262D01*
X-335322Y100764D01*
X-335997Y100485D01*
X-337485Y98997D01*
X-338290Y97052D01*
Y95471D01*
X-347381Y86381D01*
X-348110Y85288D01*
X-348367Y84000D01*
Y44114D01*
X-349485Y42997D01*
X-350290Y41052D01*
Y38948D01*
X-349485Y37004D01*
X-347996Y35515D01*
X-346052Y34710D01*
X-343948D01*
X-342004Y35515D01*
X-340759Y36760D01*
X-340000Y36905D01*
X-339241Y36760D01*
X-337996Y35515D01*
X-336052Y34710D01*
X-333948D01*
X-332004Y35515D01*
X-330515Y37004D01*
X-329710Y38948D01*
Y41052D01*
X-330515Y42997D01*
X-331633Y44114D01*
Y81606D01*
X-328529Y84710D01*
X-326948D01*
X-325004Y85515D01*
X-323515Y87003D01*
X-322948Y88374D01*
X-322552Y88210D01*
X-320448D01*
X-318503Y89015D01*
X-317015Y90504D01*
X-316210Y92448D01*
Y94552D01*
X-317015Y96497D01*
X-318503Y97985D01*
X-320448Y98790D01*
X-322029D01*
X-337619Y114381D01*
X-338712Y115110D01*
X-340000Y115367D01*
X-372886D01*
X-374003Y116485D01*
X-375948Y117290D01*
D02*
G37*
G36*
X-303073Y87040D02*
X-304927D01*
X-306717Y86560D01*
X-308323Y85633D01*
X-309633Y84323D01*
X-310560Y82717D01*
X-311040Y80927D01*
Y79073D01*
X-310560Y77283D01*
X-309633Y75677D01*
X-308323Y74367D01*
X-306717Y73440D01*
X-304927Y72960D01*
X-303073D01*
X-301283Y73440D01*
X-299677Y74367D01*
X-298367Y75677D01*
X-297440Y77283D01*
X-296960Y79073D01*
Y80927D01*
X-297440Y82717D01*
X-298367Y84323D01*
X-299677Y85633D01*
X-301283Y86560D01*
X-303073Y87040D01*
D02*
G37*
G36*
X-487672Y423640D02*
X-492328D01*
X-496895Y422732D01*
X-501198Y420950D01*
X-505070Y418362D01*
X-508362Y415070D01*
X-510950Y411198D01*
X-512732Y406895D01*
X-513640Y402328D01*
Y397672D01*
X-512732Y393105D01*
X-510950Y388802D01*
X-508362Y384930D01*
X-505070Y381638D01*
X-501198Y379050D01*
X-496895Y377268D01*
X-492328Y376360D01*
X-487672D01*
X-483105Y377268D01*
X-478802Y379050D01*
X-474930Y381638D01*
X-471638Y384930D01*
X-469050Y388802D01*
X-467268Y393105D01*
X-466360Y397672D01*
Y402328D01*
X-467268Y406895D01*
X-469050Y411198D01*
X-471638Y415070D01*
X-474930Y418362D01*
X-478802Y420950D01*
X-483105Y422732D01*
X-487672Y423640D01*
D02*
G37*
G36*
X-443073Y337040D02*
X-444927D01*
X-446717Y336560D01*
X-448323Y335633D01*
X-449633Y334323D01*
X-450560Y332717D01*
X-451040Y330927D01*
Y329073D01*
X-450560Y327283D01*
X-449633Y325677D01*
X-448323Y324367D01*
X-446717Y323440D01*
X-444927Y322960D01*
X-443073D01*
X-441283Y323440D01*
X-439677Y324367D01*
X-438367Y325677D01*
X-437440Y327283D01*
X-436960Y329073D01*
Y330927D01*
X-437440Y332717D01*
X-438367Y334323D01*
X-439677Y335633D01*
X-441283Y336560D01*
X-443073Y337040D01*
D02*
G37*
G36*
X-485000Y362367D02*
X-509000D01*
X-510288Y362110D01*
X-511381Y361381D01*
X-519381Y353381D01*
X-520110Y352288D01*
X-520367Y351000D01*
Y336115D01*
X-521485Y334996D01*
X-522290Y333052D01*
Y330948D01*
X-521485Y329003D01*
X-519996Y327515D01*
X-518052Y326710D01*
X-515948D01*
X-514003Y327515D01*
X-512515Y329003D01*
X-511710Y330948D01*
Y333052D01*
X-512515Y334996D01*
X-513633Y336115D01*
Y349605D01*
X-508470Y354769D01*
X-507979Y354708D01*
X-507175Y353329D01*
X-507290Y353052D01*
Y350948D01*
X-506485Y349003D01*
X-504996Y347515D01*
X-503052Y346710D01*
X-501471D01*
X-478367Y323605D01*
Y264114D01*
X-479241Y263240D01*
X-480000Y263095D01*
X-480759Y263240D01*
X-481633Y264114D01*
Y301000D01*
X-481890Y302288D01*
X-482619Y303381D01*
X-496710Y317471D01*
Y319052D01*
X-497515Y320997D01*
X-499003Y322485D01*
X-500948Y323290D01*
X-503052D01*
X-504996Y322485D01*
X-506485Y320997D01*
X-507290Y319052D01*
Y316948D01*
X-506485Y315004D01*
X-504996Y313515D01*
X-503052Y312710D01*
X-501471D01*
X-488367Y299606D01*
Y264114D01*
X-489485Y262997D01*
X-490290Y261052D01*
Y258948D01*
X-489485Y257003D01*
X-487996Y255515D01*
X-486052Y254710D01*
X-483948D01*
X-482004Y255515D01*
X-480759Y256760D01*
X-480000Y256905D01*
X-479241Y256760D01*
X-477996Y255515D01*
X-476052Y254710D01*
X-473948D01*
X-472004Y255515D01*
X-470515Y257003D01*
X-469710Y258948D01*
Y261052D01*
X-470515Y262997D01*
X-471633Y264114D01*
Y325000D01*
X-471890Y326288D01*
X-472619Y327381D01*
X-496710Y351471D01*
Y353052D01*
X-497253Y354363D01*
X-496493Y355633D01*
X-486395D01*
X-483290Y352529D01*
Y350948D01*
X-482485Y349003D01*
X-480997Y347515D01*
X-479052Y346710D01*
X-477471D01*
X-464867Y334105D01*
Y317614D01*
X-465985Y316497D01*
X-466790Y314552D01*
Y312448D01*
X-465985Y310504D01*
X-464496Y309015D01*
X-462552Y308210D01*
X-460448D01*
X-458503Y309015D01*
X-457015Y310504D01*
X-456210Y312448D01*
Y314552D01*
X-457015Y316497D01*
X-458133Y317614D01*
Y335500D01*
X-458390Y336788D01*
X-459119Y337881D01*
X-472710Y351471D01*
Y353052D01*
X-473515Y354996D01*
X-475004Y356485D01*
X-476948Y357290D01*
X-478529D01*
X-482619Y361381D01*
X-483712Y362110D01*
X-485000Y362367D01*
D02*
G37*
G36*
X-443073Y307040D02*
X-444927D01*
X-446717Y306560D01*
X-448323Y305633D01*
X-449633Y304323D01*
X-450560Y302717D01*
X-451040Y300927D01*
Y299073D01*
X-450560Y297283D01*
X-449633Y295677D01*
X-448323Y294367D01*
X-446717Y293440D01*
X-444927Y292960D01*
X-443073D01*
X-441283Y293440D01*
X-439677Y294367D01*
X-438367Y295677D01*
X-437440Y297283D01*
X-436960Y299073D01*
Y300927D01*
X-437440Y302717D01*
X-438367Y304323D01*
X-439677Y305633D01*
X-441283Y306560D01*
X-443073Y307040D01*
D02*
G37*
G36*
X-347672Y423640D02*
X-352328D01*
X-356895Y422732D01*
X-361198Y420950D01*
X-365070Y418362D01*
X-368362Y415070D01*
X-370950Y411198D01*
X-372732Y406895D01*
X-373640Y402328D01*
Y397672D01*
X-372732Y393105D01*
X-370950Y388802D01*
X-368362Y384930D01*
X-365070Y381638D01*
X-361198Y379050D01*
X-356895Y377268D01*
X-352328Y376360D01*
X-347672D01*
X-343105Y377268D01*
X-338802Y379050D01*
X-334930Y381638D01*
X-331638Y384930D01*
X-329050Y388802D01*
X-327268Y393105D01*
X-326360Y397672D01*
Y402328D01*
X-327268Y406895D01*
X-329050Y411198D01*
X-331638Y415070D01*
X-334930Y418362D01*
X-338802Y420950D01*
X-343105Y422732D01*
X-347672Y423640D01*
D02*
G37*
G36*
X-303073Y337040D02*
X-304927D01*
X-306717Y336560D01*
X-308323Y335633D01*
X-309633Y334323D01*
X-310560Y332717D01*
X-311040Y330927D01*
Y329073D01*
X-310560Y327283D01*
X-309633Y325677D01*
X-308323Y324367D01*
X-306717Y323440D01*
X-304927Y322960D01*
X-303073D01*
X-301283Y323440D01*
X-299677Y324367D01*
X-298367Y325677D01*
X-297440Y327283D01*
X-296960Y329073D01*
Y330927D01*
X-297440Y332717D01*
X-298367Y334323D01*
X-299677Y335633D01*
X-301283Y336560D01*
X-303073Y337040D01*
D02*
G37*
G36*
X-345000Y362367D02*
X-369000D01*
X-370288Y362110D01*
X-371381Y361381D01*
X-379381Y353381D01*
X-380110Y352288D01*
X-380367Y351000D01*
Y336115D01*
X-381485Y334996D01*
X-382290Y333052D01*
Y330948D01*
X-381485Y329003D01*
X-379996Y327515D01*
X-378052Y326710D01*
X-375948D01*
X-374003Y327515D01*
X-372515Y329003D01*
X-371710Y330948D01*
Y333052D01*
X-372515Y334996D01*
X-373633Y336115D01*
Y349605D01*
X-368470Y354769D01*
X-367979Y354708D01*
X-367175Y353329D01*
X-367290Y353052D01*
Y350948D01*
X-366485Y349003D01*
X-364996Y347515D01*
X-363052Y346710D01*
X-361471D01*
X-338367Y323605D01*
Y264114D01*
X-339241Y263240D01*
X-340000Y263095D01*
X-340759Y263240D01*
X-341633Y264114D01*
Y301000D01*
X-341890Y302288D01*
X-342619Y303381D01*
X-356710Y317471D01*
Y319052D01*
X-357515Y320997D01*
X-359003Y322485D01*
X-360948Y323290D01*
X-363052D01*
X-364996Y322485D01*
X-366485Y320997D01*
X-367290Y319052D01*
Y316948D01*
X-366485Y315004D01*
X-364996Y313515D01*
X-363052Y312710D01*
X-361471D01*
X-348367Y299606D01*
Y264114D01*
X-349485Y262997D01*
X-350290Y261052D01*
Y258948D01*
X-349485Y257003D01*
X-347996Y255515D01*
X-346052Y254710D01*
X-343948D01*
X-342004Y255515D01*
X-340759Y256760D01*
X-340000Y256905D01*
X-339241Y256760D01*
X-337996Y255515D01*
X-336052Y254710D01*
X-333948D01*
X-332004Y255515D01*
X-330515Y257003D01*
X-329710Y258948D01*
Y261052D01*
X-330515Y262997D01*
X-331633Y264114D01*
Y325000D01*
X-331890Y326288D01*
X-332619Y327381D01*
X-356710Y351471D01*
Y353052D01*
X-357253Y354363D01*
X-356493Y355633D01*
X-346395D01*
X-343290Y352529D01*
Y350948D01*
X-342485Y349003D01*
X-340997Y347515D01*
X-339052Y346710D01*
X-337471D01*
X-324867Y334105D01*
Y317614D01*
X-325985Y316497D01*
X-326790Y314552D01*
Y312448D01*
X-325985Y310504D01*
X-324496Y309015D01*
X-322552Y308210D01*
X-320448D01*
X-318503Y309015D01*
X-317015Y310504D01*
X-316210Y312448D01*
Y314552D01*
X-317015Y316497D01*
X-318133Y317614D01*
Y335500D01*
X-318390Y336788D01*
X-319119Y337881D01*
X-332710Y351471D01*
Y353052D01*
X-333515Y354996D01*
X-335004Y356485D01*
X-336948Y357290D01*
X-338529D01*
X-342619Y361381D01*
X-343712Y362110D01*
X-345000Y362367D01*
D02*
G37*
G36*
X-303073Y307040D02*
X-304927D01*
X-306717Y306560D01*
X-308323Y305633D01*
X-309633Y304323D01*
X-310560Y302717D01*
X-311040Y300927D01*
Y299073D01*
X-310560Y297283D01*
X-309633Y295677D01*
X-308323Y294367D01*
X-306717Y293440D01*
X-304927Y292960D01*
X-303073D01*
X-301283Y293440D01*
X-299677Y294367D01*
X-298367Y295677D01*
X-297440Y297283D01*
X-296960Y299073D01*
Y300927D01*
X-297440Y302717D01*
X-298367Y304323D01*
X-299677Y305633D01*
X-301283Y306560D01*
X-303073Y307040D01*
D02*
G37*
G36*
X-207672Y203640D02*
X-212328D01*
X-216896Y202731D01*
X-221198Y200949D01*
X-225070Y198362D01*
X-228362Y195070D01*
X-230949Y191198D01*
X-232731Y186896D01*
X-233640Y182328D01*
Y177672D01*
X-232731Y173104D01*
X-230949Y168802D01*
X-228362Y164930D01*
X-225070Y161638D01*
X-221198Y159051D01*
X-216896Y157268D01*
X-212328Y156360D01*
X-207672D01*
X-203104Y157268D01*
X-198802Y159051D01*
X-194930Y161638D01*
X-191638Y164930D01*
X-189051Y168802D01*
X-187269Y173104D01*
X-186360Y177672D01*
Y182328D01*
X-187269Y186896D01*
X-189051Y191198D01*
X-191638Y195070D01*
X-194930Y198362D01*
X-198802Y200949D01*
X-203104Y202731D01*
X-207672Y203640D01*
D02*
G37*
G36*
X-208997Y127540D02*
X-211003D01*
X-212855Y126773D01*
X-214273Y125355D01*
X-215040Y123503D01*
Y121497D01*
X-214273Y119645D01*
X-212855Y118227D01*
X-211003Y117460D01*
X-208997D01*
X-207145Y118227D01*
X-205727Y119645D01*
X-204960Y121497D01*
Y123503D01*
X-205727Y125355D01*
X-207145Y126773D01*
X-208997Y127540D01*
D02*
G37*
G36*
X-163073Y117040D02*
X-164927D01*
X-166717Y116560D01*
X-168323Y115633D01*
X-169633Y114323D01*
X-170560Y112717D01*
X-171040Y110927D01*
Y109073D01*
X-170560Y107283D01*
X-169633Y105677D01*
X-168323Y104367D01*
X-166717Y103440D01*
X-164927Y102960D01*
X-163073D01*
X-161283Y103440D01*
X-159677Y104367D01*
X-158367Y105677D01*
X-157440Y107283D01*
X-156960Y109073D01*
Y110927D01*
X-157440Y112717D01*
X-158367Y114323D01*
X-159677Y115633D01*
X-161283Y116560D01*
X-163073Y117040D01*
D02*
G37*
G36*
X-235948Y117290D02*
X-238052D01*
X-239996Y116485D01*
X-241485Y114997D01*
X-242290Y113052D01*
Y110948D01*
X-241485Y109003D01*
X-239996Y107515D01*
X-238052Y106710D01*
X-235948D01*
X-234004Y107515D01*
X-232885Y108633D01*
X-201395D01*
X-195023Y102262D01*
X-195322Y100764D01*
X-195996Y100485D01*
X-197485Y98997D01*
X-198290Y97052D01*
Y95471D01*
X-207381Y86381D01*
X-208110Y85288D01*
X-208367Y84000D01*
Y44114D01*
X-209485Y42997D01*
X-210290Y41052D01*
Y38948D01*
X-209485Y37004D01*
X-207997Y35515D01*
X-206052Y34710D01*
X-203948D01*
X-202003Y35515D01*
X-200759Y36760D01*
X-200000Y36905D01*
X-199241Y36760D01*
X-197997Y35515D01*
X-196052Y34710D01*
X-193948D01*
X-192003Y35515D01*
X-190515Y37004D01*
X-189710Y38948D01*
Y41052D01*
X-190515Y42997D01*
X-191633Y44114D01*
Y81606D01*
X-188529Y84710D01*
X-186948D01*
X-185004Y85515D01*
X-183515Y87003D01*
X-182948Y88374D01*
X-182552Y88210D01*
X-180448D01*
X-178503Y89015D01*
X-177015Y90504D01*
X-176210Y92448D01*
Y94552D01*
X-177015Y96497D01*
X-178503Y97985D01*
X-180448Y98790D01*
X-182029D01*
X-197619Y114381D01*
X-198712Y115110D01*
X-200000Y115367D01*
X-232885D01*
X-234004Y116485D01*
X-235948Y117290D01*
D02*
G37*
G36*
X-163073Y87040D02*
X-164927D01*
X-166717Y86560D01*
X-168323Y85633D01*
X-169633Y84323D01*
X-170560Y82717D01*
X-171040Y80927D01*
Y79073D01*
X-170560Y77283D01*
X-169633Y75677D01*
X-168323Y74367D01*
X-166717Y73440D01*
X-164927Y72960D01*
X-163073D01*
X-161283Y73440D01*
X-159677Y74367D01*
X-158367Y75677D01*
X-157440Y77283D01*
X-156960Y79073D01*
Y80927D01*
X-157440Y82717D01*
X-158367Y84323D01*
X-159677Y85633D01*
X-161283Y86560D01*
X-163073Y87040D01*
D02*
G37*
G36*
X-67672Y203640D02*
X-72328D01*
X-76895Y202731D01*
X-81198Y200949D01*
X-85070Y198362D01*
X-88362Y195070D01*
X-90949Y191198D01*
X-92732Y186896D01*
X-93640Y182328D01*
Y177672D01*
X-92732Y173104D01*
X-90949Y168802D01*
X-88362Y164930D01*
X-85070Y161638D01*
X-81198Y159051D01*
X-76895Y157268D01*
X-72328Y156360D01*
X-67672D01*
X-63105Y157268D01*
X-58802Y159051D01*
X-54930Y161638D01*
X-51638Y164930D01*
X-49050Y168802D01*
X-47269Y173104D01*
X-46360Y177672D01*
Y182328D01*
X-47269Y186896D01*
X-49050Y191198D01*
X-51638Y195070D01*
X-54930Y198362D01*
X-58802Y200949D01*
X-63105Y202731D01*
X-67672Y203640D01*
D02*
G37*
G36*
X-68998Y127540D02*
X-71002D01*
X-72855Y126773D01*
X-74273Y125355D01*
X-75040Y123503D01*
Y121497D01*
X-74273Y119645D01*
X-72855Y118227D01*
X-71002Y117460D01*
X-68998D01*
X-67145Y118227D01*
X-65727Y119645D01*
X-64960Y121497D01*
Y123503D01*
X-65727Y125355D01*
X-67145Y126773D01*
X-68998Y127540D01*
D02*
G37*
G36*
X-23073Y117040D02*
X-24927D01*
X-26717Y116560D01*
X-28323Y115633D01*
X-29633Y114323D01*
X-30560Y112717D01*
X-31040Y110927D01*
Y109073D01*
X-30560Y107283D01*
X-29633Y105677D01*
X-28323Y104367D01*
X-26717Y103440D01*
X-24927Y102960D01*
X-23073D01*
X-21283Y103440D01*
X-19677Y104367D01*
X-18367Y105677D01*
X-17440Y107283D01*
X-16960Y109073D01*
Y110927D01*
X-17440Y112717D01*
X-18367Y114323D01*
X-19677Y115633D01*
X-21283Y116560D01*
X-23073Y117040D01*
D02*
G37*
G36*
X-95948Y117290D02*
X-98052D01*
X-99997Y116485D01*
X-101485Y114997D01*
X-102290Y113052D01*
Y110948D01*
X-101485Y109003D01*
X-99997Y107515D01*
X-98052Y106710D01*
X-95948D01*
X-94003Y107515D01*
X-92886Y108633D01*
X-61395D01*
X-55023Y102262D01*
X-55321Y100764D01*
X-55996Y100485D01*
X-57485Y98997D01*
X-58290Y97052D01*
Y95471D01*
X-67381Y86381D01*
X-68110Y85288D01*
X-68367Y84000D01*
Y44114D01*
X-69485Y42997D01*
X-70290Y41052D01*
Y38948D01*
X-69485Y37004D01*
X-67997Y35515D01*
X-66052Y34710D01*
X-63948D01*
X-62003Y35515D01*
X-60759Y36760D01*
X-60000Y36905D01*
X-59241Y36760D01*
X-57997Y35515D01*
X-56052Y34710D01*
X-53948D01*
X-52003Y35515D01*
X-50515Y37004D01*
X-49710Y38948D01*
Y41052D01*
X-50515Y42997D01*
X-51633Y44114D01*
Y81606D01*
X-48529Y84710D01*
X-46948D01*
X-45003Y85515D01*
X-43515Y87003D01*
X-42948Y88374D01*
X-42552Y88210D01*
X-40448D01*
X-38503Y89015D01*
X-37015Y90504D01*
X-36210Y92448D01*
Y94552D01*
X-37015Y96497D01*
X-38503Y97985D01*
X-40448Y98790D01*
X-42029D01*
X-57619Y114381D01*
X-58712Y115110D01*
X-60000Y115367D01*
X-92886D01*
X-94003Y116485D01*
X-95948Y117290D01*
D02*
G37*
G36*
X-23073Y87040D02*
X-24927D01*
X-26717Y86560D01*
X-28323Y85633D01*
X-29633Y84323D01*
X-30560Y82717D01*
X-31040Y80927D01*
Y79073D01*
X-30560Y77283D01*
X-29633Y75677D01*
X-28323Y74367D01*
X-26717Y73440D01*
X-24927Y72960D01*
X-23073D01*
X-21283Y73440D01*
X-19677Y74367D01*
X-18367Y75677D01*
X-17440Y77283D01*
X-16960Y79073D01*
Y80927D01*
X-17440Y82717D01*
X-18367Y84323D01*
X-19677Y85633D01*
X-21283Y86560D01*
X-23073Y87040D01*
D02*
G37*
G36*
X-207672Y423640D02*
X-212328D01*
X-216896Y422732D01*
X-221198Y420950D01*
X-225070Y418362D01*
X-228362Y415070D01*
X-230949Y411198D01*
X-232731Y406895D01*
X-233640Y402328D01*
Y397672D01*
X-232731Y393105D01*
X-230949Y388802D01*
X-228362Y384930D01*
X-225070Y381638D01*
X-221198Y379050D01*
X-216896Y377268D01*
X-212328Y376360D01*
X-207672D01*
X-203104Y377268D01*
X-198802Y379050D01*
X-194930Y381638D01*
X-191638Y384930D01*
X-189051Y388802D01*
X-187269Y393105D01*
X-186360Y397672D01*
Y402328D01*
X-187269Y406895D01*
X-189051Y411198D01*
X-191638Y415070D01*
X-194930Y418362D01*
X-198802Y420950D01*
X-203104Y422732D01*
X-207672Y423640D01*
D02*
G37*
G36*
X-163073Y337040D02*
X-164927D01*
X-166717Y336560D01*
X-168323Y335633D01*
X-169633Y334323D01*
X-170560Y332717D01*
X-171040Y330927D01*
Y329073D01*
X-170560Y327283D01*
X-169633Y325677D01*
X-168323Y324367D01*
X-166717Y323440D01*
X-164927Y322960D01*
X-163073D01*
X-161283Y323440D01*
X-159677Y324367D01*
X-158367Y325677D01*
X-157440Y327283D01*
X-156960Y329073D01*
Y330927D01*
X-157440Y332717D01*
X-158367Y334323D01*
X-159677Y335633D01*
X-161283Y336560D01*
X-163073Y337040D01*
D02*
G37*
G36*
X-205000Y362367D02*
X-229000D01*
X-230288Y362110D01*
X-231381Y361381D01*
X-239381Y353381D01*
X-240110Y352288D01*
X-240367Y351000D01*
Y336115D01*
X-241485Y334996D01*
X-242290Y333052D01*
Y330948D01*
X-241485Y329003D01*
X-239996Y327515D01*
X-238052Y326710D01*
X-235948D01*
X-234004Y327515D01*
X-232515Y329003D01*
X-231710Y330948D01*
Y333052D01*
X-232515Y334996D01*
X-233633Y336115D01*
Y349605D01*
X-228470Y354769D01*
X-227979Y354708D01*
X-227175Y353329D01*
X-227290Y353052D01*
Y350948D01*
X-226485Y349003D01*
X-224996Y347515D01*
X-223052Y346710D01*
X-221471D01*
X-198367Y323605D01*
Y264114D01*
X-199241Y263240D01*
X-200000Y263095D01*
X-200759Y263240D01*
X-201633Y264114D01*
Y301000D01*
X-201890Y302288D01*
X-202619Y303381D01*
X-216710Y317471D01*
Y319052D01*
X-217515Y320997D01*
X-219003Y322485D01*
X-220948Y323290D01*
X-223052D01*
X-224996Y322485D01*
X-226485Y320997D01*
X-227290Y319052D01*
Y316948D01*
X-226485Y315004D01*
X-224996Y313515D01*
X-223052Y312710D01*
X-221471D01*
X-208367Y299606D01*
Y264114D01*
X-209485Y262997D01*
X-210290Y261052D01*
Y258948D01*
X-209485Y257003D01*
X-207997Y255515D01*
X-206052Y254710D01*
X-203948D01*
X-202003Y255515D01*
X-200759Y256760D01*
X-200000Y256905D01*
X-199241Y256760D01*
X-197997Y255515D01*
X-196052Y254710D01*
X-193948D01*
X-192003Y255515D01*
X-190515Y257003D01*
X-189710Y258948D01*
Y261052D01*
X-190515Y262997D01*
X-191633Y264114D01*
Y325000D01*
X-191890Y326288D01*
X-192619Y327381D01*
X-216710Y351471D01*
Y353052D01*
X-217253Y354363D01*
X-216493Y355633D01*
X-206395D01*
X-203290Y352529D01*
Y350948D01*
X-202485Y349003D01*
X-200997Y347515D01*
X-199052Y346710D01*
X-197471D01*
X-184867Y334105D01*
Y317614D01*
X-185985Y316497D01*
X-186790Y314552D01*
Y312448D01*
X-185985Y310504D01*
X-184496Y309015D01*
X-182552Y308210D01*
X-180448D01*
X-178503Y309015D01*
X-177015Y310504D01*
X-176210Y312448D01*
Y314552D01*
X-177015Y316497D01*
X-178133Y317614D01*
Y335500D01*
X-178390Y336788D01*
X-179119Y337881D01*
X-192710Y351471D01*
Y353052D01*
X-193515Y354996D01*
X-195004Y356485D01*
X-196948Y357290D01*
X-198529D01*
X-202619Y361381D01*
X-203712Y362110D01*
X-205000Y362367D01*
D02*
G37*
G36*
X-163073Y307040D02*
X-164927D01*
X-166717Y306560D01*
X-168323Y305633D01*
X-169633Y304323D01*
X-170560Y302717D01*
X-171040Y300927D01*
Y299073D01*
X-170560Y297283D01*
X-169633Y295677D01*
X-168323Y294367D01*
X-166717Y293440D01*
X-164927Y292960D01*
X-163073D01*
X-161283Y293440D01*
X-159677Y294367D01*
X-158367Y295677D01*
X-157440Y297283D01*
X-156960Y299073D01*
Y300927D01*
X-157440Y302717D01*
X-158367Y304323D01*
X-159677Y305633D01*
X-161283Y306560D01*
X-163073Y307040D01*
D02*
G37*
G36*
X-67672Y423640D02*
X-72328D01*
X-76895Y422732D01*
X-81198Y420950D01*
X-85070Y418362D01*
X-88362Y415070D01*
X-90949Y411198D01*
X-92732Y406895D01*
X-93640Y402328D01*
Y397672D01*
X-92732Y393105D01*
X-90949Y388802D01*
X-88362Y384930D01*
X-85070Y381638D01*
X-81198Y379050D01*
X-76895Y377268D01*
X-72328Y376360D01*
X-67672D01*
X-63105Y377268D01*
X-58802Y379050D01*
X-54930Y381638D01*
X-51638Y384930D01*
X-49050Y388802D01*
X-47269Y393105D01*
X-46360Y397672D01*
Y402328D01*
X-47269Y406895D01*
X-49050Y411198D01*
X-51638Y415070D01*
X-54930Y418362D01*
X-58802Y420950D01*
X-63105Y422732D01*
X-67672Y423640D01*
D02*
G37*
G36*
X-23073Y337040D02*
X-24927D01*
X-26717Y336560D01*
X-28323Y335633D01*
X-29633Y334323D01*
X-30560Y332717D01*
X-31040Y330927D01*
Y329073D01*
X-30560Y327283D01*
X-29633Y325677D01*
X-28323Y324367D01*
X-26717Y323440D01*
X-24927Y322960D01*
X-23073D01*
X-21283Y323440D01*
X-19677Y324367D01*
X-18367Y325677D01*
X-17440Y327283D01*
X-16960Y329073D01*
Y330927D01*
X-17440Y332717D01*
X-18367Y334323D01*
X-19677Y335633D01*
X-21283Y336560D01*
X-23073Y337040D01*
D02*
G37*
G36*
X-65000Y362367D02*
X-89000D01*
X-90288Y362110D01*
X-91381Y361381D01*
X-99381Y353381D01*
X-100110Y352288D01*
X-100367Y351000D01*
Y336115D01*
X-101485Y334996D01*
X-102290Y333052D01*
Y330948D01*
X-101485Y329003D01*
X-99997Y327515D01*
X-98052Y326710D01*
X-95948D01*
X-94003Y327515D01*
X-92515Y329003D01*
X-91710Y330948D01*
Y333052D01*
X-92515Y334996D01*
X-93633Y336115D01*
Y349605D01*
X-88470Y354769D01*
X-87979Y354708D01*
X-87175Y353329D01*
X-87290Y353052D01*
Y350948D01*
X-86485Y349003D01*
X-84997Y347515D01*
X-83052Y346710D01*
X-81471D01*
X-58367Y323605D01*
Y264114D01*
X-59241Y263240D01*
X-60000Y263095D01*
X-60759Y263240D01*
X-61633Y264114D01*
Y301000D01*
X-61890Y302288D01*
X-62619Y303381D01*
X-76710Y317471D01*
Y319052D01*
X-77515Y320997D01*
X-79003Y322485D01*
X-80948Y323290D01*
X-83052D01*
X-84997Y322485D01*
X-86485Y320997D01*
X-87290Y319052D01*
Y316948D01*
X-86485Y315004D01*
X-84997Y313515D01*
X-83052Y312710D01*
X-81471D01*
X-68367Y299606D01*
Y264114D01*
X-69485Y262997D01*
X-70290Y261052D01*
Y258948D01*
X-69485Y257003D01*
X-67997Y255515D01*
X-66052Y254710D01*
X-63948D01*
X-62003Y255515D01*
X-60759Y256760D01*
X-60000Y256905D01*
X-59241Y256760D01*
X-57997Y255515D01*
X-56052Y254710D01*
X-53948D01*
X-52003Y255515D01*
X-50515Y257003D01*
X-49710Y258948D01*
Y261052D01*
X-50515Y262997D01*
X-51633Y264114D01*
Y325000D01*
X-51890Y326288D01*
X-52619Y327381D01*
X-76710Y351471D01*
Y353052D01*
X-77253Y354363D01*
X-76493Y355633D01*
X-66395D01*
X-63290Y352529D01*
Y350948D01*
X-62485Y349003D01*
X-60997Y347515D01*
X-59052Y346710D01*
X-57471D01*
X-44867Y334105D01*
Y317614D01*
X-45985Y316497D01*
X-46790Y314552D01*
Y312448D01*
X-45985Y310504D01*
X-44496Y309015D01*
X-42552Y308210D01*
X-40448D01*
X-38503Y309015D01*
X-37015Y310504D01*
X-36210Y312448D01*
Y314552D01*
X-37015Y316497D01*
X-38133Y317614D01*
Y335500D01*
X-38390Y336788D01*
X-39119Y337881D01*
X-52710Y351471D01*
Y353052D01*
X-53515Y354996D01*
X-55003Y356485D01*
X-56948Y357290D01*
X-58529D01*
X-62619Y361381D01*
X-63712Y362110D01*
X-65000Y362367D01*
D02*
G37*
G36*
X-23073Y307040D02*
X-24927D01*
X-26717Y306560D01*
X-28323Y305633D01*
X-29633Y304323D01*
X-30560Y302717D01*
X-31040Y300927D01*
Y299073D01*
X-30560Y297283D01*
X-29633Y295677D01*
X-28323Y294367D01*
X-26717Y293440D01*
X-24927Y292960D01*
X-23073D01*
X-21283Y293440D01*
X-19677Y294367D01*
X-18367Y295677D01*
X-17440Y297283D01*
X-16960Y299073D01*
Y300927D01*
X-17440Y302717D01*
X-18367Y304323D01*
X-19677Y305633D01*
X-21283Y306560D01*
X-23073Y307040D01*
D02*
G37*
G36*
X72328Y-236360D02*
X67672D01*
X63105Y-237269D01*
X58802Y-239051D01*
X54930Y-241638D01*
X51638Y-244930D01*
X49050Y-248802D01*
X47269Y-253104D01*
X46360Y-257672D01*
Y-262328D01*
X47269Y-266896D01*
X49050Y-271198D01*
X51638Y-275070D01*
X54930Y-278362D01*
X58802Y-280949D01*
X63105Y-282731D01*
X67672Y-283640D01*
X72328D01*
X76895Y-282731D01*
X81198Y-280949D01*
X85070Y-278362D01*
X88362Y-275070D01*
X90949Y-271198D01*
X92732Y-266896D01*
X93640Y-262328D01*
Y-257672D01*
X92732Y-253104D01*
X90949Y-248802D01*
X88362Y-244930D01*
X85070Y-241638D01*
X81198Y-239051D01*
X76895Y-237269D01*
X72328Y-236360D01*
D02*
G37*
G36*
X71002Y-312460D02*
X68998D01*
X67145Y-313227D01*
X65727Y-314645D01*
X64960Y-316497D01*
Y-318503D01*
X65727Y-320355D01*
X67145Y-321773D01*
X68998Y-322540D01*
X71002D01*
X72855Y-321773D01*
X74273Y-320355D01*
X75040Y-318503D01*
Y-316497D01*
X74273Y-314645D01*
X72855Y-313227D01*
X71002Y-312460D01*
D02*
G37*
G36*
X116927Y-322960D02*
X115073D01*
X113283Y-323440D01*
X111677Y-324367D01*
X110367Y-325677D01*
X109440Y-327283D01*
X108960Y-329073D01*
Y-330927D01*
X109440Y-332717D01*
X110367Y-334323D01*
X111677Y-335633D01*
X113283Y-336560D01*
X115073Y-337040D01*
X116927D01*
X118717Y-336560D01*
X120323Y-335633D01*
X121633Y-334323D01*
X122560Y-332717D01*
X123040Y-330927D01*
Y-329073D01*
X122560Y-327283D01*
X121633Y-325677D01*
X120323Y-324367D01*
X118717Y-323440D01*
X116927Y-322960D01*
D02*
G37*
G36*
X44052Y-322710D02*
X41948D01*
X40003Y-323515D01*
X38515Y-325003D01*
X37710Y-326948D01*
Y-329052D01*
X38515Y-330997D01*
X40003Y-332485D01*
X41948Y-333290D01*
X44052D01*
X45997Y-332485D01*
X47115Y-331367D01*
X78605D01*
X84977Y-337738D01*
X84678Y-339236D01*
X84003Y-339515D01*
X82515Y-341003D01*
X81710Y-342948D01*
Y-344529D01*
X72619Y-353619D01*
X71890Y-354712D01*
X71633Y-356000D01*
Y-395886D01*
X70515Y-397003D01*
X69710Y-398948D01*
Y-401052D01*
X70515Y-402996D01*
X72003Y-404485D01*
X73948Y-405290D01*
X76052D01*
X77997Y-404485D01*
X79241Y-403240D01*
X80000Y-403095D01*
X80759Y-403240D01*
X82003Y-404485D01*
X83948Y-405290D01*
X86052D01*
X87997Y-404485D01*
X89485Y-402996D01*
X90290Y-401052D01*
Y-398948D01*
X89485Y-397003D01*
X88367Y-395886D01*
Y-358395D01*
X91471Y-355290D01*
X93052D01*
X94997Y-354485D01*
X96485Y-352996D01*
X97052Y-351626D01*
X97448Y-351790D01*
X99552D01*
X101497Y-350985D01*
X102985Y-349496D01*
X103790Y-347552D01*
Y-345448D01*
X102985Y-343503D01*
X101497Y-342015D01*
X99552Y-341210D01*
X97971D01*
X82381Y-325619D01*
X81288Y-324890D01*
X80000Y-324633D01*
X47115D01*
X45997Y-323515D01*
X44052Y-322710D01*
D02*
G37*
G36*
X116927Y-352960D02*
X115073D01*
X113283Y-353440D01*
X111677Y-354367D01*
X110367Y-355677D01*
X109440Y-357283D01*
X108960Y-359073D01*
Y-360927D01*
X109440Y-362717D01*
X110367Y-364323D01*
X111677Y-365633D01*
X113283Y-366560D01*
X115073Y-367040D01*
X116927D01*
X118717Y-366560D01*
X120323Y-365633D01*
X121633Y-364323D01*
X122560Y-362717D01*
X123040Y-360927D01*
Y-359073D01*
X122560Y-357283D01*
X121633Y-355677D01*
X120323Y-354367D01*
X118717Y-353440D01*
X116927Y-352960D01*
D02*
G37*
G36*
X212328Y-236360D02*
X207672D01*
X203104Y-237269D01*
X198802Y-239051D01*
X194930Y-241638D01*
X191638Y-244930D01*
X189051Y-248802D01*
X187269Y-253104D01*
X186360Y-257672D01*
Y-262328D01*
X187269Y-266896D01*
X189051Y-271198D01*
X191638Y-275070D01*
X194930Y-278362D01*
X198802Y-280949D01*
X203104Y-282731D01*
X207672Y-283640D01*
X212328D01*
X216896Y-282731D01*
X221198Y-280949D01*
X225070Y-278362D01*
X228362Y-275070D01*
X230949Y-271198D01*
X232731Y-266896D01*
X233640Y-262328D01*
Y-257672D01*
X232731Y-253104D01*
X230949Y-248802D01*
X228362Y-244930D01*
X225070Y-241638D01*
X221198Y-239051D01*
X216896Y-237269D01*
X212328Y-236360D01*
D02*
G37*
G36*
X211003Y-312460D02*
X208997D01*
X207145Y-313227D01*
X205727Y-314645D01*
X204960Y-316497D01*
Y-318503D01*
X205727Y-320355D01*
X207145Y-321773D01*
X208997Y-322540D01*
X211003D01*
X212855Y-321773D01*
X214273Y-320355D01*
X215040Y-318503D01*
Y-316497D01*
X214273Y-314645D01*
X212855Y-313227D01*
X211003Y-312460D01*
D02*
G37*
G36*
X256927Y-322960D02*
X255073D01*
X253283Y-323440D01*
X251677Y-324367D01*
X250367Y-325677D01*
X249440Y-327283D01*
X248960Y-329073D01*
Y-330927D01*
X249440Y-332717D01*
X250367Y-334323D01*
X251677Y-335633D01*
X253283Y-336560D01*
X255073Y-337040D01*
X256927D01*
X258717Y-336560D01*
X260323Y-335633D01*
X261633Y-334323D01*
X262560Y-332717D01*
X263040Y-330927D01*
Y-329073D01*
X262560Y-327283D01*
X261633Y-325677D01*
X260323Y-324367D01*
X258717Y-323440D01*
X256927Y-322960D01*
D02*
G37*
G36*
X184052Y-322710D02*
X181948D01*
X180004Y-323515D01*
X178515Y-325003D01*
X177710Y-326948D01*
Y-329052D01*
X178515Y-330997D01*
X180004Y-332485D01*
X181948Y-333290D01*
X184052D01*
X185997Y-332485D01*
X187115Y-331367D01*
X218605D01*
X224977Y-337738D01*
X224678Y-339236D01*
X224004Y-339515D01*
X222515Y-341003D01*
X221710Y-342948D01*
Y-344529D01*
X212619Y-353619D01*
X211890Y-354712D01*
X211633Y-356000D01*
Y-395886D01*
X210515Y-397003D01*
X209710Y-398948D01*
Y-401052D01*
X210515Y-402996D01*
X212003Y-404485D01*
X213948Y-405290D01*
X216052D01*
X217997Y-404485D01*
X219242Y-403240D01*
X220000Y-403095D01*
X220759Y-403240D01*
X222003Y-404485D01*
X223948Y-405290D01*
X226052D01*
X227997Y-404485D01*
X229485Y-402996D01*
X230290Y-401052D01*
Y-398948D01*
X229485Y-397003D01*
X228367Y-395886D01*
Y-358395D01*
X231471Y-355290D01*
X233052D01*
X234997Y-354485D01*
X236485Y-352996D01*
X237052Y-351626D01*
X237448Y-351790D01*
X239552D01*
X241497Y-350985D01*
X242985Y-349496D01*
X243790Y-347552D01*
Y-345448D01*
X242985Y-343503D01*
X241497Y-342015D01*
X239552Y-341210D01*
X237971D01*
X222381Y-325619D01*
X221288Y-324890D01*
X220000Y-324633D01*
X187115D01*
X185997Y-323515D01*
X184052Y-322710D01*
D02*
G37*
G36*
X256927Y-352960D02*
X255073D01*
X253283Y-353440D01*
X251677Y-354367D01*
X250367Y-355677D01*
X249440Y-357283D01*
X248960Y-359073D01*
Y-360927D01*
X249440Y-362717D01*
X250367Y-364323D01*
X251677Y-365633D01*
X253283Y-366560D01*
X255073Y-367040D01*
X256927D01*
X258717Y-366560D01*
X260323Y-365633D01*
X261633Y-364323D01*
X262560Y-362717D01*
X263040Y-360927D01*
Y-359073D01*
X262560Y-357283D01*
X261633Y-355677D01*
X260323Y-354367D01*
X258717Y-353440D01*
X256927Y-352960D01*
D02*
G37*
G36*
X72328Y-16360D02*
X67672D01*
X63105Y-17269D01*
X58802Y-19051D01*
X54930Y-21638D01*
X51638Y-24930D01*
X49050Y-28802D01*
X47269Y-33105D01*
X46360Y-37672D01*
Y-42328D01*
X47269Y-46895D01*
X49050Y-51198D01*
X51638Y-55070D01*
X54930Y-58362D01*
X58802Y-60950D01*
X63105Y-62731D01*
X67672Y-63640D01*
X72328D01*
X76895Y-62731D01*
X81198Y-60950D01*
X85070Y-58362D01*
X88362Y-55070D01*
X90949Y-51198D01*
X92732Y-46895D01*
X93640Y-42328D01*
Y-37672D01*
X92732Y-33105D01*
X90949Y-28802D01*
X88362Y-24930D01*
X85070Y-21638D01*
X81198Y-19051D01*
X76895Y-17269D01*
X72328Y-16360D01*
D02*
G37*
G36*
X116927Y-102960D02*
X115073D01*
X113283Y-103440D01*
X111677Y-104367D01*
X110367Y-105677D01*
X109440Y-107283D01*
X108960Y-109073D01*
Y-110927D01*
X109440Y-112717D01*
X110367Y-114323D01*
X111677Y-115633D01*
X113283Y-116560D01*
X115073Y-117040D01*
X116927D01*
X118717Y-116560D01*
X120323Y-115633D01*
X121633Y-114323D01*
X122560Y-112717D01*
X123040Y-110927D01*
Y-109073D01*
X122560Y-107283D01*
X121633Y-105677D01*
X120323Y-104367D01*
X118717Y-103440D01*
X116927Y-102960D01*
D02*
G37*
G36*
X75000Y-77633D02*
X51000D01*
X49712Y-77890D01*
X48619Y-78619D01*
X40619Y-86619D01*
X39890Y-87712D01*
X39633Y-89000D01*
Y-103885D01*
X38515Y-105003D01*
X37710Y-106948D01*
Y-109052D01*
X38515Y-110997D01*
X40003Y-112485D01*
X41948Y-113290D01*
X44052D01*
X45997Y-112485D01*
X47485Y-110997D01*
X48290Y-109052D01*
Y-106948D01*
X47485Y-105003D01*
X46367Y-103885D01*
Y-90394D01*
X51530Y-85231D01*
X52021Y-85292D01*
X52825Y-86671D01*
X52710Y-86948D01*
Y-89052D01*
X53515Y-90997D01*
X55003Y-92485D01*
X56948Y-93290D01*
X58529D01*
X81633Y-116395D01*
Y-175886D01*
X80759Y-176760D01*
X80000Y-176905D01*
X79241Y-176760D01*
X78367Y-175886D01*
Y-139000D01*
X78110Y-137712D01*
X77381Y-136619D01*
X63290Y-122529D01*
Y-120948D01*
X62485Y-119003D01*
X60997Y-117515D01*
X59052Y-116710D01*
X56948D01*
X55003Y-117515D01*
X53515Y-119003D01*
X52710Y-120948D01*
Y-123052D01*
X53515Y-124997D01*
X55003Y-126485D01*
X56948Y-127290D01*
X58529D01*
X71633Y-140394D01*
Y-175886D01*
X70515Y-177003D01*
X69710Y-178948D01*
Y-181052D01*
X70515Y-182997D01*
X72003Y-184485D01*
X73948Y-185290D01*
X76052D01*
X77997Y-184485D01*
X79241Y-183240D01*
X80000Y-183095D01*
X80759Y-183240D01*
X82003Y-184485D01*
X83948Y-185290D01*
X86052D01*
X87997Y-184485D01*
X89485Y-182997D01*
X90290Y-181052D01*
Y-178948D01*
X89485Y-177003D01*
X88367Y-175886D01*
Y-115000D01*
X88111Y-113712D01*
X87381Y-112619D01*
X63290Y-88529D01*
Y-86948D01*
X62747Y-85637D01*
X63507Y-84367D01*
X73605D01*
X76710Y-87471D01*
Y-89052D01*
X77515Y-90997D01*
X79003Y-92485D01*
X80948Y-93290D01*
X82529D01*
X95133Y-105895D01*
Y-122386D01*
X94015Y-123503D01*
X93210Y-125448D01*
Y-127552D01*
X94015Y-129496D01*
X95504Y-130985D01*
X97448Y-131790D01*
X99552D01*
X101497Y-130985D01*
X102985Y-129496D01*
X103790Y-127552D01*
Y-125448D01*
X102985Y-123503D01*
X101867Y-122386D01*
Y-104500D01*
X101610Y-103212D01*
X100881Y-102119D01*
X87290Y-88529D01*
Y-86948D01*
X86485Y-85003D01*
X84997Y-83515D01*
X83052Y-82710D01*
X81471D01*
X77381Y-78619D01*
X76288Y-77890D01*
X75000Y-77633D01*
D02*
G37*
G36*
X116927Y-132960D02*
X115073D01*
X113283Y-133440D01*
X111677Y-134367D01*
X110367Y-135677D01*
X109440Y-137283D01*
X108960Y-139073D01*
Y-140927D01*
X109440Y-142717D01*
X110367Y-144323D01*
X111677Y-145633D01*
X113283Y-146560D01*
X115073Y-147040D01*
X116927D01*
X118717Y-146560D01*
X120323Y-145633D01*
X121633Y-144323D01*
X122560Y-142717D01*
X123040Y-140927D01*
Y-139073D01*
X122560Y-137283D01*
X121633Y-135677D01*
X120323Y-134367D01*
X118717Y-133440D01*
X116927Y-132960D01*
D02*
G37*
G36*
X212328Y-16360D02*
X207672D01*
X203104Y-17269D01*
X198802Y-19051D01*
X194930Y-21638D01*
X191638Y-24930D01*
X189051Y-28802D01*
X187269Y-33105D01*
X186360Y-37672D01*
Y-42328D01*
X187269Y-46895D01*
X189051Y-51198D01*
X191638Y-55070D01*
X194930Y-58362D01*
X198802Y-60950D01*
X203104Y-62731D01*
X207672Y-63640D01*
X212328D01*
X216896Y-62731D01*
X221198Y-60950D01*
X225070Y-58362D01*
X228362Y-55070D01*
X230949Y-51198D01*
X232731Y-46895D01*
X233640Y-42328D01*
Y-37672D01*
X232731Y-33105D01*
X230949Y-28802D01*
X228362Y-24930D01*
X225070Y-21638D01*
X221198Y-19051D01*
X216896Y-17269D01*
X212328Y-16360D01*
D02*
G37*
G36*
X256927Y-102960D02*
X255073D01*
X253283Y-103440D01*
X251677Y-104367D01*
X250367Y-105677D01*
X249440Y-107283D01*
X248960Y-109073D01*
Y-110927D01*
X249440Y-112717D01*
X250367Y-114323D01*
X251677Y-115633D01*
X253283Y-116560D01*
X255073Y-117040D01*
X256927D01*
X258717Y-116560D01*
X260323Y-115633D01*
X261633Y-114323D01*
X262560Y-112717D01*
X263040Y-110927D01*
Y-109073D01*
X262560Y-107283D01*
X261633Y-105677D01*
X260323Y-104367D01*
X258717Y-103440D01*
X256927Y-102960D01*
D02*
G37*
G36*
X215000Y-77633D02*
X191000D01*
X189712Y-77890D01*
X188619Y-78619D01*
X180619Y-86619D01*
X179890Y-87712D01*
X179633Y-89000D01*
Y-103885D01*
X178515Y-105003D01*
X177710Y-106948D01*
Y-109052D01*
X178515Y-110997D01*
X180004Y-112485D01*
X181948Y-113290D01*
X184052D01*
X185997Y-112485D01*
X187485Y-110997D01*
X188290Y-109052D01*
Y-106948D01*
X187485Y-105003D01*
X186367Y-103885D01*
Y-90394D01*
X191530Y-85231D01*
X192021Y-85292D01*
X192825Y-86671D01*
X192710Y-86948D01*
Y-89052D01*
X193515Y-90997D01*
X195004Y-92485D01*
X196948Y-93290D01*
X198529D01*
X221633Y-116395D01*
Y-175886D01*
X220759Y-176760D01*
X220000Y-176905D01*
X219242Y-176760D01*
X218367Y-175886D01*
Y-139000D01*
X218110Y-137712D01*
X217381Y-136619D01*
X203290Y-122529D01*
Y-120948D01*
X202485Y-119003D01*
X200997Y-117515D01*
X199052Y-116710D01*
X196948D01*
X195004Y-117515D01*
X193515Y-119003D01*
X192710Y-120948D01*
Y-123052D01*
X193515Y-124997D01*
X195004Y-126485D01*
X196948Y-127290D01*
X198529D01*
X211633Y-140394D01*
Y-175886D01*
X210515Y-177003D01*
X209710Y-178948D01*
Y-181052D01*
X210515Y-182997D01*
X212003Y-184485D01*
X213948Y-185290D01*
X216052D01*
X217997Y-184485D01*
X219242Y-183240D01*
X220000Y-183095D01*
X220759Y-183240D01*
X222003Y-184485D01*
X223948Y-185290D01*
X226052D01*
X227997Y-184485D01*
X229485Y-182997D01*
X230290Y-181052D01*
Y-178948D01*
X229485Y-177003D01*
X228367Y-175886D01*
Y-115000D01*
X228111Y-113712D01*
X227381Y-112619D01*
X203290Y-88529D01*
Y-86948D01*
X202747Y-85637D01*
X203507Y-84367D01*
X213605D01*
X216710Y-87471D01*
Y-89052D01*
X217515Y-90997D01*
X219003Y-92485D01*
X220948Y-93290D01*
X222529D01*
X235133Y-105895D01*
Y-122386D01*
X234015Y-123503D01*
X233210Y-125448D01*
Y-127552D01*
X234015Y-129496D01*
X235504Y-130985D01*
X237448Y-131790D01*
X239552D01*
X241497Y-130985D01*
X242985Y-129496D01*
X243790Y-127552D01*
Y-125448D01*
X242985Y-123503D01*
X241867Y-122386D01*
Y-104500D01*
X241610Y-103212D01*
X240881Y-102119D01*
X227290Y-88529D01*
Y-86948D01*
X226485Y-85003D01*
X224996Y-83515D01*
X223052Y-82710D01*
X221471D01*
X217381Y-78619D01*
X216288Y-77890D01*
X215000Y-77633D01*
D02*
G37*
G36*
X256927Y-132960D02*
X255073D01*
X253283Y-133440D01*
X251677Y-134367D01*
X250367Y-135677D01*
X249440Y-137283D01*
X248960Y-139073D01*
Y-140927D01*
X249440Y-142717D01*
X250367Y-144323D01*
X251677Y-145633D01*
X253283Y-146560D01*
X255073Y-147040D01*
X256927D01*
X258717Y-146560D01*
X260323Y-145633D01*
X261633Y-144323D01*
X262560Y-142717D01*
X263040Y-140927D01*
Y-139073D01*
X262560Y-137283D01*
X261633Y-135677D01*
X260323Y-134367D01*
X258717Y-133440D01*
X256927Y-132960D01*
D02*
G37*
G36*
X352328Y-236360D02*
X347672D01*
X343105Y-237269D01*
X338802Y-239051D01*
X334930Y-241638D01*
X331638Y-244930D01*
X329050Y-248802D01*
X327268Y-253104D01*
X326360Y-257672D01*
Y-262328D01*
X327268Y-266896D01*
X329050Y-271198D01*
X331638Y-275070D01*
X334930Y-278362D01*
X338802Y-280949D01*
X343105Y-282731D01*
X347672Y-283640D01*
X352328D01*
X356895Y-282731D01*
X361198Y-280949D01*
X365070Y-278362D01*
X368362Y-275070D01*
X370950Y-271198D01*
X372732Y-266896D01*
X373640Y-262328D01*
Y-257672D01*
X372732Y-253104D01*
X370950Y-248802D01*
X368362Y-244930D01*
X365070Y-241638D01*
X361198Y-239051D01*
X356895Y-237269D01*
X352328Y-236360D01*
D02*
G37*
G36*
X351003Y-312460D02*
X348997D01*
X347145Y-313227D01*
X345727Y-314645D01*
X344960Y-316497D01*
Y-318503D01*
X345727Y-320355D01*
X347145Y-321773D01*
X348997Y-322540D01*
X351003D01*
X352855Y-321773D01*
X354273Y-320355D01*
X355040Y-318503D01*
Y-316497D01*
X354273Y-314645D01*
X352855Y-313227D01*
X351003Y-312460D01*
D02*
G37*
G36*
X396927Y-322960D02*
X395073D01*
X393283Y-323440D01*
X391677Y-324367D01*
X390367Y-325677D01*
X389440Y-327283D01*
X388960Y-329073D01*
Y-330927D01*
X389440Y-332717D01*
X390367Y-334323D01*
X391677Y-335633D01*
X393283Y-336560D01*
X395073Y-337040D01*
X396927D01*
X398717Y-336560D01*
X400323Y-335633D01*
X401633Y-334323D01*
X402560Y-332717D01*
X403040Y-330927D01*
Y-329073D01*
X402560Y-327283D01*
X401633Y-325677D01*
X400323Y-324367D01*
X398717Y-323440D01*
X396927Y-322960D01*
D02*
G37*
G36*
X324052Y-322710D02*
X321948D01*
X320004Y-323515D01*
X318515Y-325003D01*
X317710Y-326948D01*
Y-329052D01*
X318515Y-330997D01*
X320004Y-332485D01*
X321948Y-333290D01*
X324052D01*
X325997Y-332485D01*
X327114Y-331367D01*
X358605D01*
X364977Y-337738D01*
X364678Y-339236D01*
X364003Y-339515D01*
X362515Y-341003D01*
X361710Y-342948D01*
Y-344529D01*
X352619Y-353619D01*
X351890Y-354712D01*
X351633Y-356000D01*
Y-395886D01*
X350515Y-397003D01*
X349710Y-398948D01*
Y-401052D01*
X350515Y-402996D01*
X352004Y-404485D01*
X353948Y-405290D01*
X356052D01*
X357997Y-404485D01*
X359241Y-403240D01*
X360000Y-403095D01*
X360759Y-403240D01*
X362004Y-404485D01*
X363948Y-405290D01*
X366052D01*
X367997Y-404485D01*
X369485Y-402996D01*
X370290Y-401052D01*
Y-398948D01*
X369485Y-397003D01*
X368367Y-395886D01*
Y-358395D01*
X371471Y-355290D01*
X373052D01*
X374997Y-354485D01*
X376485Y-352996D01*
X377052Y-351626D01*
X377448Y-351790D01*
X379552D01*
X381497Y-350985D01*
X382985Y-349496D01*
X383790Y-347552D01*
Y-345448D01*
X382985Y-343503D01*
X381497Y-342015D01*
X379552Y-341210D01*
X377971D01*
X362381Y-325619D01*
X361288Y-324890D01*
X360000Y-324633D01*
X327114D01*
X325997Y-323515D01*
X324052Y-322710D01*
D02*
G37*
G36*
X396927Y-352960D02*
X395073D01*
X393283Y-353440D01*
X391677Y-354367D01*
X390367Y-355677D01*
X389440Y-357283D01*
X388960Y-359073D01*
Y-360927D01*
X389440Y-362717D01*
X390367Y-364323D01*
X391677Y-365633D01*
X393283Y-366560D01*
X395073Y-367040D01*
X396927D01*
X398717Y-366560D01*
X400323Y-365633D01*
X401633Y-364323D01*
X402560Y-362717D01*
X403040Y-360927D01*
Y-359073D01*
X402560Y-357283D01*
X401633Y-355677D01*
X400323Y-354367D01*
X398717Y-353440D01*
X396927Y-352960D01*
D02*
G37*
G36*
X492328Y-236360D02*
X487672D01*
X483105Y-237269D01*
X478802Y-239051D01*
X474930Y-241638D01*
X471638Y-244930D01*
X469050Y-248802D01*
X467268Y-253104D01*
X466360Y-257672D01*
Y-262328D01*
X467268Y-266896D01*
X469050Y-271198D01*
X471638Y-275070D01*
X474930Y-278362D01*
X478802Y-280949D01*
X483105Y-282731D01*
X487672Y-283640D01*
X492328D01*
X496895Y-282731D01*
X501198Y-280949D01*
X505070Y-278362D01*
X508362Y-275070D01*
X510950Y-271198D01*
X512732Y-266896D01*
X513640Y-262328D01*
Y-257672D01*
X512732Y-253104D01*
X510950Y-248802D01*
X508362Y-244930D01*
X505070Y-241638D01*
X501198Y-239051D01*
X496895Y-237269D01*
X492328Y-236360D01*
D02*
G37*
G36*
X491003Y-312460D02*
X488997D01*
X487145Y-313227D01*
X485727Y-314645D01*
X484960Y-316497D01*
Y-318503D01*
X485727Y-320355D01*
X487145Y-321773D01*
X488997Y-322540D01*
X491003D01*
X492855Y-321773D01*
X494273Y-320355D01*
X495040Y-318503D01*
Y-316497D01*
X494273Y-314645D01*
X492855Y-313227D01*
X491003Y-312460D01*
D02*
G37*
G36*
X536927Y-322960D02*
X535073D01*
X533283Y-323440D01*
X531677Y-324367D01*
X530367Y-325677D01*
X529440Y-327283D01*
X528960Y-329073D01*
Y-330927D01*
X529440Y-332717D01*
X530367Y-334323D01*
X531677Y-335633D01*
X533283Y-336560D01*
X535073Y-337040D01*
X536927D01*
X538717Y-336560D01*
X540323Y-335633D01*
X541633Y-334323D01*
X542560Y-332717D01*
X543040Y-330927D01*
Y-329073D01*
X542560Y-327283D01*
X541633Y-325677D01*
X540323Y-324367D01*
X538717Y-323440D01*
X536927Y-322960D01*
D02*
G37*
G36*
X464052Y-322710D02*
X461948D01*
X460004Y-323515D01*
X458515Y-325003D01*
X457710Y-326948D01*
Y-329052D01*
X458515Y-330997D01*
X460004Y-332485D01*
X461948Y-333290D01*
X464052D01*
X465997Y-332485D01*
X467114Y-331367D01*
X498605D01*
X504977Y-337738D01*
X504678Y-339236D01*
X504003Y-339515D01*
X502515Y-341003D01*
X501710Y-342948D01*
Y-344529D01*
X492619Y-353619D01*
X491890Y-354712D01*
X491633Y-356000D01*
Y-395886D01*
X490515Y-397003D01*
X489710Y-398948D01*
Y-401052D01*
X490515Y-402996D01*
X492004Y-404485D01*
X493948Y-405290D01*
X496052D01*
X497997Y-404485D01*
X499241Y-403240D01*
X500000Y-403095D01*
X500759Y-403240D01*
X502004Y-404485D01*
X503948Y-405290D01*
X506052D01*
X507997Y-404485D01*
X509485Y-402996D01*
X510290Y-401052D01*
Y-398948D01*
X509485Y-397003D01*
X508367Y-395886D01*
Y-358395D01*
X511471Y-355290D01*
X513052D01*
X514997Y-354485D01*
X516485Y-352996D01*
X517052Y-351626D01*
X517448Y-351790D01*
X519552D01*
X521497Y-350985D01*
X522985Y-349496D01*
X523790Y-347552D01*
Y-345448D01*
X522985Y-343503D01*
X521497Y-342015D01*
X519552Y-341210D01*
X517971D01*
X502381Y-325619D01*
X501288Y-324890D01*
X500000Y-324633D01*
X467114D01*
X465997Y-323515D01*
X464052Y-322710D01*
D02*
G37*
G36*
X536927Y-352960D02*
X535073D01*
X533283Y-353440D01*
X531677Y-354367D01*
X530367Y-355677D01*
X529440Y-357283D01*
X528960Y-359073D01*
Y-360927D01*
X529440Y-362717D01*
X530367Y-364323D01*
X531677Y-365633D01*
X533283Y-366560D01*
X535073Y-367040D01*
X536927D01*
X538717Y-366560D01*
X540323Y-365633D01*
X541633Y-364323D01*
X542560Y-362717D01*
X543040Y-360927D01*
Y-359073D01*
X542560Y-357283D01*
X541633Y-355677D01*
X540323Y-354367D01*
X538717Y-353440D01*
X536927Y-352960D01*
D02*
G37*
G36*
X352328Y-16360D02*
X347672D01*
X343105Y-17269D01*
X338802Y-19051D01*
X334930Y-21638D01*
X331638Y-24930D01*
X329050Y-28802D01*
X327268Y-33105D01*
X326360Y-37672D01*
Y-42328D01*
X327268Y-46895D01*
X329050Y-51198D01*
X331638Y-55070D01*
X334930Y-58362D01*
X338802Y-60950D01*
X343105Y-62731D01*
X347672Y-63640D01*
X352328D01*
X356895Y-62731D01*
X361198Y-60950D01*
X365070Y-58362D01*
X368362Y-55070D01*
X370950Y-51198D01*
X372732Y-46895D01*
X373640Y-42328D01*
Y-37672D01*
X372732Y-33105D01*
X370950Y-28802D01*
X368362Y-24930D01*
X365070Y-21638D01*
X361198Y-19051D01*
X356895Y-17269D01*
X352328Y-16360D01*
D02*
G37*
G36*
X396927Y-102960D02*
X395073D01*
X393283Y-103440D01*
X391677Y-104367D01*
X390367Y-105677D01*
X389440Y-107283D01*
X388960Y-109073D01*
Y-110927D01*
X389440Y-112717D01*
X390367Y-114323D01*
X391677Y-115633D01*
X393283Y-116560D01*
X395073Y-117040D01*
X396927D01*
X398717Y-116560D01*
X400323Y-115633D01*
X401633Y-114323D01*
X402560Y-112717D01*
X403040Y-110927D01*
Y-109073D01*
X402560Y-107283D01*
X401633Y-105677D01*
X400323Y-104367D01*
X398717Y-103440D01*
X396927Y-102960D01*
D02*
G37*
G36*
X355000Y-77633D02*
X331000D01*
X329712Y-77890D01*
X328619Y-78619D01*
X320619Y-86619D01*
X319890Y-87712D01*
X319633Y-89000D01*
Y-103885D01*
X318515Y-105003D01*
X317710Y-106948D01*
Y-109052D01*
X318515Y-110997D01*
X320004Y-112485D01*
X321948Y-113290D01*
X324052D01*
X325997Y-112485D01*
X327485Y-110997D01*
X328290Y-109052D01*
Y-106948D01*
X327485Y-105003D01*
X326367Y-103885D01*
Y-90394D01*
X331530Y-85231D01*
X332021Y-85292D01*
X332825Y-86671D01*
X332710Y-86948D01*
Y-89052D01*
X333515Y-90997D01*
X335004Y-92485D01*
X336948Y-93290D01*
X338529D01*
X361633Y-116395D01*
Y-175886D01*
X360759Y-176760D01*
X360000Y-176905D01*
X359241Y-176760D01*
X358367Y-175886D01*
Y-139000D01*
X358110Y-137712D01*
X357381Y-136619D01*
X343290Y-122529D01*
Y-120948D01*
X342485Y-119003D01*
X340997Y-117515D01*
X339052Y-116710D01*
X336948D01*
X335004Y-117515D01*
X333515Y-119003D01*
X332710Y-120948D01*
Y-123052D01*
X333515Y-124997D01*
X335004Y-126485D01*
X336948Y-127290D01*
X338529D01*
X351633Y-140394D01*
Y-175886D01*
X350515Y-177003D01*
X349710Y-178948D01*
Y-181052D01*
X350515Y-182997D01*
X352004Y-184485D01*
X353948Y-185290D01*
X356052D01*
X357997Y-184485D01*
X359241Y-183240D01*
X360000Y-183095D01*
X360759Y-183240D01*
X362004Y-184485D01*
X363948Y-185290D01*
X366052D01*
X367997Y-184485D01*
X369485Y-182997D01*
X370290Y-181052D01*
Y-178948D01*
X369485Y-177003D01*
X368367Y-175886D01*
Y-115000D01*
X368111Y-113712D01*
X367381Y-112619D01*
X343290Y-88529D01*
Y-86948D01*
X342747Y-85637D01*
X343507Y-84367D01*
X353605D01*
X356710Y-87471D01*
Y-89052D01*
X357515Y-90997D01*
X359003Y-92485D01*
X360948Y-93290D01*
X362529D01*
X375133Y-105895D01*
Y-122386D01*
X374015Y-123503D01*
X373210Y-125448D01*
Y-127552D01*
X374015Y-129496D01*
X375504Y-130985D01*
X377448Y-131790D01*
X379552D01*
X381497Y-130985D01*
X382985Y-129496D01*
X383790Y-127552D01*
Y-125448D01*
X382985Y-123503D01*
X381867Y-122386D01*
Y-104500D01*
X381610Y-103212D01*
X380881Y-102119D01*
X367290Y-88529D01*
Y-86948D01*
X366485Y-85003D01*
X364996Y-83515D01*
X363052Y-82710D01*
X361471D01*
X357381Y-78619D01*
X356288Y-77890D01*
X355000Y-77633D01*
D02*
G37*
G36*
X396927Y-132960D02*
X395073D01*
X393283Y-133440D01*
X391677Y-134367D01*
X390367Y-135677D01*
X389440Y-137283D01*
X388960Y-139073D01*
Y-140927D01*
X389440Y-142717D01*
X390367Y-144323D01*
X391677Y-145633D01*
X393283Y-146560D01*
X395073Y-147040D01*
X396927D01*
X398717Y-146560D01*
X400323Y-145633D01*
X401633Y-144323D01*
X402560Y-142717D01*
X403040Y-140927D01*
Y-139073D01*
X402560Y-137283D01*
X401633Y-135677D01*
X400323Y-134367D01*
X398717Y-133440D01*
X396927Y-132960D01*
D02*
G37*
G36*
X492328Y-16360D02*
X487672D01*
X483105Y-17269D01*
X478802Y-19051D01*
X474930Y-21638D01*
X471638Y-24930D01*
X469050Y-28802D01*
X467268Y-33105D01*
X466360Y-37672D01*
Y-42328D01*
X467268Y-46895D01*
X469050Y-51198D01*
X471638Y-55070D01*
X474930Y-58362D01*
X478802Y-60950D01*
X483105Y-62731D01*
X487672Y-63640D01*
X492328D01*
X496895Y-62731D01*
X501198Y-60950D01*
X505070Y-58362D01*
X508362Y-55070D01*
X510950Y-51198D01*
X512732Y-46895D01*
X513640Y-42328D01*
Y-37672D01*
X512732Y-33105D01*
X510950Y-28802D01*
X508362Y-24930D01*
X505070Y-21638D01*
X501198Y-19051D01*
X496895Y-17269D01*
X492328Y-16360D01*
D02*
G37*
G36*
X536927Y-102960D02*
X535073D01*
X533283Y-103440D01*
X531677Y-104367D01*
X530367Y-105677D01*
X529440Y-107283D01*
X528960Y-109073D01*
Y-110927D01*
X529440Y-112717D01*
X530367Y-114323D01*
X531677Y-115633D01*
X533283Y-116560D01*
X535073Y-117040D01*
X536927D01*
X538717Y-116560D01*
X540323Y-115633D01*
X541633Y-114323D01*
X542560Y-112717D01*
X543040Y-110927D01*
Y-109073D01*
X542560Y-107283D01*
X541633Y-105677D01*
X540323Y-104367D01*
X538717Y-103440D01*
X536927Y-102960D01*
D02*
G37*
G36*
X495000Y-77633D02*
X471000D01*
X469712Y-77890D01*
X468619Y-78619D01*
X460619Y-86619D01*
X459890Y-87712D01*
X459633Y-89000D01*
Y-103885D01*
X458515Y-105003D01*
X457710Y-106948D01*
Y-109052D01*
X458515Y-110997D01*
X460004Y-112485D01*
X461948Y-113290D01*
X464052D01*
X465997Y-112485D01*
X467485Y-110997D01*
X468290Y-109052D01*
Y-106948D01*
X467485Y-105003D01*
X466367Y-103885D01*
Y-90394D01*
X471530Y-85231D01*
X472021Y-85292D01*
X472825Y-86671D01*
X472710Y-86948D01*
Y-89052D01*
X473515Y-90997D01*
X475004Y-92485D01*
X476948Y-93290D01*
X478529D01*
X501633Y-116395D01*
Y-175886D01*
X500759Y-176760D01*
X500000Y-176905D01*
X499241Y-176760D01*
X498367Y-175886D01*
Y-139000D01*
X498110Y-137712D01*
X497381Y-136619D01*
X483290Y-122529D01*
Y-120948D01*
X482485Y-119003D01*
X480997Y-117515D01*
X479052Y-116710D01*
X476948D01*
X475004Y-117515D01*
X473515Y-119003D01*
X472710Y-120948D01*
Y-123052D01*
X473515Y-124997D01*
X475004Y-126485D01*
X476948Y-127290D01*
X478529D01*
X491633Y-140394D01*
Y-175886D01*
X490515Y-177003D01*
X489710Y-178948D01*
Y-181052D01*
X490515Y-182997D01*
X492004Y-184485D01*
X493948Y-185290D01*
X496052D01*
X497997Y-184485D01*
X499241Y-183240D01*
X500000Y-183095D01*
X500759Y-183240D01*
X502004Y-184485D01*
X503948Y-185290D01*
X506052D01*
X507997Y-184485D01*
X509485Y-182997D01*
X510290Y-181052D01*
Y-178948D01*
X509485Y-177003D01*
X508367Y-175886D01*
Y-115000D01*
X508111Y-113712D01*
X507381Y-112619D01*
X483290Y-88529D01*
Y-86948D01*
X482747Y-85637D01*
X483507Y-84367D01*
X493605D01*
X496710Y-87471D01*
Y-89052D01*
X497515Y-90997D01*
X499003Y-92485D01*
X500948Y-93290D01*
X502529D01*
X515133Y-105895D01*
Y-122386D01*
X514015Y-123503D01*
X513210Y-125448D01*
Y-127552D01*
X514015Y-129496D01*
X515504Y-130985D01*
X517448Y-131790D01*
X519552D01*
X521497Y-130985D01*
X522985Y-129496D01*
X523790Y-127552D01*
Y-125448D01*
X522985Y-123503D01*
X521867Y-122386D01*
Y-104500D01*
X521610Y-103212D01*
X520881Y-102119D01*
X507290Y-88529D01*
Y-86948D01*
X506485Y-85003D01*
X504996Y-83515D01*
X503052Y-82710D01*
X501471D01*
X497381Y-78619D01*
X496288Y-77890D01*
X495000Y-77633D01*
D02*
G37*
G36*
X536927Y-132960D02*
X535073D01*
X533283Y-133440D01*
X531677Y-134367D01*
X530367Y-135677D01*
X529440Y-137283D01*
X528960Y-139073D01*
Y-140927D01*
X529440Y-142717D01*
X530367Y-144323D01*
X531677Y-145633D01*
X533283Y-146560D01*
X535073Y-147040D01*
X536927D01*
X538717Y-146560D01*
X540323Y-145633D01*
X541633Y-144323D01*
X542560Y-142717D01*
X543040Y-140927D01*
Y-139073D01*
X542560Y-137283D01*
X541633Y-135677D01*
X540323Y-134367D01*
X538717Y-133440D01*
X536927Y-132960D01*
D02*
G37*
G36*
X72328Y203640D02*
X67672D01*
X63105Y202731D01*
X58802Y200949D01*
X54930Y198362D01*
X51638Y195070D01*
X49050Y191198D01*
X47269Y186896D01*
X46360Y182328D01*
Y177672D01*
X47269Y173104D01*
X49050Y168802D01*
X51638Y164930D01*
X54930Y161638D01*
X58802Y159051D01*
X63105Y157268D01*
X67672Y156360D01*
X72328D01*
X76895Y157268D01*
X81198Y159051D01*
X85070Y161638D01*
X88362Y164930D01*
X90949Y168802D01*
X92732Y173104D01*
X93640Y177672D01*
Y182328D01*
X92732Y186896D01*
X90949Y191198D01*
X88362Y195070D01*
X85070Y198362D01*
X81198Y200949D01*
X76895Y202731D01*
X72328Y203640D01*
D02*
G37*
G36*
X71002Y127540D02*
X68998D01*
X67145Y126773D01*
X65727Y125355D01*
X64960Y123503D01*
Y121497D01*
X65727Y119645D01*
X67145Y118227D01*
X68998Y117460D01*
X71002D01*
X72855Y118227D01*
X74273Y119645D01*
X75040Y121497D01*
Y123503D01*
X74273Y125355D01*
X72855Y126773D01*
X71002Y127540D01*
D02*
G37*
G36*
X116927Y117040D02*
X115073D01*
X113283Y116560D01*
X111677Y115633D01*
X110367Y114323D01*
X109440Y112717D01*
X108960Y110927D01*
Y109073D01*
X109440Y107283D01*
X110367Y105677D01*
X111677Y104367D01*
X113283Y103440D01*
X115073Y102960D01*
X116927D01*
X118717Y103440D01*
X120323Y104367D01*
X121633Y105677D01*
X122560Y107283D01*
X123040Y109073D01*
Y110927D01*
X122560Y112717D01*
X121633Y114323D01*
X120323Y115633D01*
X118717Y116560D01*
X116927Y117040D01*
D02*
G37*
G36*
X44052Y117290D02*
X41948D01*
X40003Y116485D01*
X38515Y114997D01*
X37710Y113052D01*
Y110948D01*
X38515Y109003D01*
X40003Y107515D01*
X41948Y106710D01*
X44052D01*
X45996Y107515D01*
X47115Y108633D01*
X78605D01*
X84977Y102262D01*
X84678Y100764D01*
X84003Y100485D01*
X82515Y98997D01*
X81710Y97052D01*
Y95471D01*
X72619Y86381D01*
X71890Y85288D01*
X71633Y84000D01*
Y44114D01*
X70515Y42997D01*
X69710Y41052D01*
Y38948D01*
X70515Y37004D01*
X72003Y35515D01*
X73948Y34710D01*
X76052D01*
X77997Y35515D01*
X79241Y36760D01*
X80000Y36905D01*
X80759Y36760D01*
X82003Y35515D01*
X83948Y34710D01*
X86052D01*
X87997Y35515D01*
X89485Y37004D01*
X90290Y38948D01*
Y41052D01*
X89485Y42997D01*
X88367Y44114D01*
Y81606D01*
X91471Y84710D01*
X93052D01*
X94997Y85515D01*
X96485Y87003D01*
X97052Y88374D01*
X97448Y88210D01*
X99552D01*
X101496Y89015D01*
X102985Y90504D01*
X103790Y92448D01*
Y94552D01*
X102985Y96497D01*
X101496Y97985D01*
X99552Y98790D01*
X97971D01*
X82381Y114381D01*
X81288Y115110D01*
X80000Y115367D01*
X47115D01*
X45996Y116485D01*
X44052Y117290D01*
D02*
G37*
G36*
X116927Y87040D02*
X115073D01*
X113283Y86560D01*
X111677Y85633D01*
X110367Y84323D01*
X109440Y82717D01*
X108960Y80927D01*
Y79073D01*
X109440Y77283D01*
X110367Y75677D01*
X111677Y74367D01*
X113283Y73440D01*
X115073Y72960D01*
X116927D01*
X118717Y73440D01*
X120323Y74367D01*
X121633Y75677D01*
X122560Y77283D01*
X123040Y79073D01*
Y80927D01*
X122560Y82717D01*
X121633Y84323D01*
X120323Y85633D01*
X118717Y86560D01*
X116927Y87040D01*
D02*
G37*
G36*
X212328Y203640D02*
X207672D01*
X203104Y202731D01*
X198802Y200949D01*
X194930Y198362D01*
X191638Y195070D01*
X189051Y191198D01*
X187269Y186896D01*
X186360Y182328D01*
Y177672D01*
X187269Y173104D01*
X189051Y168802D01*
X191638Y164930D01*
X194930Y161638D01*
X198802Y159051D01*
X203104Y157268D01*
X207672Y156360D01*
X212328D01*
X216896Y157268D01*
X221198Y159051D01*
X225070Y161638D01*
X228362Y164930D01*
X230949Y168802D01*
X232731Y173104D01*
X233640Y177672D01*
Y182328D01*
X232731Y186896D01*
X230949Y191198D01*
X228362Y195070D01*
X225070Y198362D01*
X221198Y200949D01*
X216896Y202731D01*
X212328Y203640D01*
D02*
G37*
G36*
X211003Y127540D02*
X208997D01*
X207145Y126773D01*
X205727Y125355D01*
X204960Y123503D01*
Y121497D01*
X205727Y119645D01*
X207145Y118227D01*
X208997Y117460D01*
X211003D01*
X212855Y118227D01*
X214273Y119645D01*
X215040Y121497D01*
Y123503D01*
X214273Y125355D01*
X212855Y126773D01*
X211003Y127540D01*
D02*
G37*
G36*
X256927Y117040D02*
X255073D01*
X253283Y116560D01*
X251677Y115633D01*
X250367Y114323D01*
X249440Y112717D01*
X248960Y110927D01*
Y109073D01*
X249440Y107283D01*
X250367Y105677D01*
X251677Y104367D01*
X253283Y103440D01*
X255073Y102960D01*
X256927D01*
X258717Y103440D01*
X260323Y104367D01*
X261633Y105677D01*
X262560Y107283D01*
X263040Y109073D01*
Y110927D01*
X262560Y112717D01*
X261633Y114323D01*
X260323Y115633D01*
X258717Y116560D01*
X256927Y117040D01*
D02*
G37*
G36*
X184052Y117290D02*
X181948D01*
X180003Y116485D01*
X178515Y114997D01*
X177710Y113052D01*
Y110948D01*
X178515Y109003D01*
X180003Y107515D01*
X181948Y106710D01*
X184052D01*
X185996Y107515D01*
X187115Y108633D01*
X218605D01*
X224977Y102262D01*
X224678Y100764D01*
X224004Y100485D01*
X222515Y98997D01*
X221710Y97052D01*
Y95471D01*
X212619Y86381D01*
X211890Y85288D01*
X211633Y84000D01*
Y44114D01*
X210515Y42997D01*
X209710Y41052D01*
Y38948D01*
X210515Y37004D01*
X212003Y35515D01*
X213948Y34710D01*
X216052D01*
X217997Y35515D01*
X219241Y36760D01*
X220000Y36905D01*
X220759Y36760D01*
X222003Y35515D01*
X223948Y34710D01*
X226052D01*
X227997Y35515D01*
X229485Y37004D01*
X230290Y38948D01*
Y41052D01*
X229485Y42997D01*
X228367Y44114D01*
Y81606D01*
X231471Y84710D01*
X233052D01*
X234996Y85515D01*
X236485Y87003D01*
X237052Y88374D01*
X237448Y88210D01*
X239552D01*
X241497Y89015D01*
X242985Y90504D01*
X243790Y92448D01*
Y94552D01*
X242985Y96497D01*
X241497Y97985D01*
X239552Y98790D01*
X237971D01*
X222381Y114381D01*
X221288Y115110D01*
X220000Y115367D01*
X187115D01*
X185996Y116485D01*
X184052Y117290D01*
D02*
G37*
G36*
X256927Y87040D02*
X255073D01*
X253283Y86560D01*
X251677Y85633D01*
X250367Y84323D01*
X249440Y82717D01*
X248960Y80927D01*
Y79073D01*
X249440Y77283D01*
X250367Y75677D01*
X251677Y74367D01*
X253283Y73440D01*
X255073Y72960D01*
X256927D01*
X258717Y73440D01*
X260323Y74367D01*
X261633Y75677D01*
X262560Y77283D01*
X263040Y79073D01*
Y80927D01*
X262560Y82717D01*
X261633Y84323D01*
X260323Y85633D01*
X258717Y86560D01*
X256927Y87040D01*
D02*
G37*
G36*
X72328Y423640D02*
X67672D01*
X63105Y422732D01*
X58802Y420950D01*
X54930Y418362D01*
X51638Y415070D01*
X49050Y411198D01*
X47269Y406895D01*
X46360Y402328D01*
Y397672D01*
X47269Y393105D01*
X49050Y388802D01*
X51638Y384930D01*
X54930Y381638D01*
X58802Y379050D01*
X63105Y377268D01*
X67672Y376360D01*
X72328D01*
X76895Y377268D01*
X81198Y379050D01*
X85070Y381638D01*
X88362Y384930D01*
X90949Y388802D01*
X92732Y393105D01*
X93640Y397672D01*
Y402328D01*
X92732Y406895D01*
X90949Y411198D01*
X88362Y415070D01*
X85070Y418362D01*
X81198Y420950D01*
X76895Y422732D01*
X72328Y423640D01*
D02*
G37*
G36*
X116927Y337040D02*
X115073D01*
X113283Y336560D01*
X111677Y335633D01*
X110367Y334323D01*
X109440Y332717D01*
X108960Y330927D01*
Y329073D01*
X109440Y327283D01*
X110367Y325677D01*
X111677Y324367D01*
X113283Y323440D01*
X115073Y322960D01*
X116927D01*
X118717Y323440D01*
X120323Y324367D01*
X121633Y325677D01*
X122560Y327283D01*
X123040Y329073D01*
Y330927D01*
X122560Y332717D01*
X121633Y334323D01*
X120323Y335633D01*
X118717Y336560D01*
X116927Y337040D01*
D02*
G37*
G36*
X75000Y362367D02*
X51000D01*
X49712Y362110D01*
X48619Y361381D01*
X40619Y353381D01*
X39890Y352288D01*
X39633Y351000D01*
Y336115D01*
X38515Y334996D01*
X37710Y333052D01*
Y330948D01*
X38515Y329003D01*
X40003Y327515D01*
X41948Y326710D01*
X44052D01*
X45996Y327515D01*
X47485Y329003D01*
X48290Y330948D01*
Y333052D01*
X47485Y334996D01*
X46367Y336115D01*
Y349605D01*
X51530Y354769D01*
X52021Y354708D01*
X52825Y353329D01*
X52710Y353052D01*
Y350948D01*
X53515Y349003D01*
X55003Y347515D01*
X56948Y346710D01*
X58529D01*
X81633Y323605D01*
Y264114D01*
X80759Y263240D01*
X80000Y263095D01*
X79241Y263240D01*
X78367Y264114D01*
Y301000D01*
X78110Y302288D01*
X77381Y303381D01*
X63290Y317471D01*
Y319052D01*
X62485Y320997D01*
X60997Y322485D01*
X59052Y323290D01*
X56948D01*
X55003Y322485D01*
X53515Y320997D01*
X52710Y319052D01*
Y316948D01*
X53515Y315004D01*
X55003Y313515D01*
X56948Y312710D01*
X58529D01*
X71633Y299606D01*
Y264114D01*
X70515Y262997D01*
X69710Y261052D01*
Y258948D01*
X70515Y257003D01*
X72003Y255515D01*
X73948Y254710D01*
X76052D01*
X77997Y255515D01*
X79241Y256760D01*
X80000Y256905D01*
X80759Y256760D01*
X82003Y255515D01*
X83948Y254710D01*
X86052D01*
X87997Y255515D01*
X89485Y257003D01*
X90290Y258948D01*
Y261052D01*
X89485Y262997D01*
X88367Y264114D01*
Y325000D01*
X88110Y326288D01*
X87381Y327381D01*
X63290Y351471D01*
Y353052D01*
X62747Y354363D01*
X63507Y355633D01*
X73605D01*
X76710Y352529D01*
Y350948D01*
X77515Y349003D01*
X79003Y347515D01*
X80948Y346710D01*
X82529D01*
X95133Y334105D01*
Y317614D01*
X94015Y316497D01*
X93210Y314552D01*
Y312448D01*
X94015Y310504D01*
X95504Y309015D01*
X97448Y308210D01*
X99552D01*
X101496Y309015D01*
X102985Y310504D01*
X103790Y312448D01*
Y314552D01*
X102985Y316497D01*
X101867Y317614D01*
Y335500D01*
X101610Y336788D01*
X100881Y337881D01*
X87290Y351471D01*
Y353052D01*
X86485Y354996D01*
X84997Y356485D01*
X83052Y357290D01*
X81471D01*
X77381Y361381D01*
X76288Y362110D01*
X75000Y362367D01*
D02*
G37*
G36*
X116927Y307040D02*
X115073D01*
X113283Y306560D01*
X111677Y305633D01*
X110367Y304323D01*
X109440Y302717D01*
X108960Y300927D01*
Y299073D01*
X109440Y297283D01*
X110367Y295677D01*
X111677Y294367D01*
X113283Y293440D01*
X115073Y292960D01*
X116927D01*
X118717Y293440D01*
X120323Y294367D01*
X121633Y295677D01*
X122560Y297283D01*
X123040Y299073D01*
Y300927D01*
X122560Y302717D01*
X121633Y304323D01*
X120323Y305633D01*
X118717Y306560D01*
X116927Y307040D01*
D02*
G37*
G36*
X212328Y423640D02*
X207672D01*
X203104Y422732D01*
X198802Y420950D01*
X194930Y418362D01*
X191638Y415070D01*
X189051Y411198D01*
X187269Y406895D01*
X186360Y402328D01*
Y397672D01*
X187269Y393105D01*
X189051Y388802D01*
X191638Y384930D01*
X194930Y381638D01*
X198802Y379050D01*
X203104Y377268D01*
X207672Y376360D01*
X212328D01*
X216896Y377268D01*
X221198Y379050D01*
X225070Y381638D01*
X228362Y384930D01*
X230949Y388802D01*
X232731Y393105D01*
X233640Y397672D01*
Y402328D01*
X232731Y406895D01*
X230949Y411198D01*
X228362Y415070D01*
X225070Y418362D01*
X221198Y420950D01*
X216896Y422732D01*
X212328Y423640D01*
D02*
G37*
G36*
X256927Y337040D02*
X255073D01*
X253283Y336560D01*
X251677Y335633D01*
X250367Y334323D01*
X249440Y332717D01*
X248960Y330927D01*
Y329073D01*
X249440Y327283D01*
X250367Y325677D01*
X251677Y324367D01*
X253283Y323440D01*
X255073Y322960D01*
X256927D01*
X258717Y323440D01*
X260323Y324367D01*
X261633Y325677D01*
X262560Y327283D01*
X263040Y329073D01*
Y330927D01*
X262560Y332717D01*
X261633Y334323D01*
X260323Y335633D01*
X258717Y336560D01*
X256927Y337040D01*
D02*
G37*
G36*
X215000Y362367D02*
X191000D01*
X189712Y362110D01*
X188619Y361381D01*
X180619Y353381D01*
X179890Y352288D01*
X179633Y351000D01*
Y336115D01*
X178515Y334996D01*
X177710Y333052D01*
Y330948D01*
X178515Y329003D01*
X180003Y327515D01*
X181948Y326710D01*
X184052D01*
X185996Y327515D01*
X187485Y329003D01*
X188290Y330948D01*
Y333052D01*
X187485Y334996D01*
X186367Y336115D01*
Y349605D01*
X191530Y354769D01*
X192021Y354708D01*
X192825Y353329D01*
X192710Y353052D01*
Y350948D01*
X193515Y349003D01*
X195004Y347515D01*
X196948Y346710D01*
X198529D01*
X221633Y323605D01*
Y264114D01*
X220759Y263240D01*
X220000Y263095D01*
X219241Y263240D01*
X218367Y264114D01*
Y301000D01*
X218110Y302288D01*
X217381Y303381D01*
X203290Y317471D01*
Y319052D01*
X202485Y320997D01*
X200996Y322485D01*
X199052Y323290D01*
X196948D01*
X195004Y322485D01*
X193515Y320997D01*
X192710Y319052D01*
Y316948D01*
X193515Y315004D01*
X195004Y313515D01*
X196948Y312710D01*
X198529D01*
X211633Y299606D01*
Y264114D01*
X210515Y262997D01*
X209710Y261052D01*
Y258948D01*
X210515Y257003D01*
X212003Y255515D01*
X213948Y254710D01*
X216052D01*
X217997Y255515D01*
X219241Y256760D01*
X220000Y256905D01*
X220759Y256760D01*
X222003Y255515D01*
X223948Y254710D01*
X226052D01*
X227997Y255515D01*
X229485Y257003D01*
X230290Y258948D01*
Y261052D01*
X229485Y262997D01*
X228367Y264114D01*
Y325000D01*
X228110Y326288D01*
X227381Y327381D01*
X203290Y351471D01*
Y353052D01*
X202747Y354363D01*
X203507Y355633D01*
X213605D01*
X216710Y352529D01*
Y350948D01*
X217515Y349003D01*
X219003Y347515D01*
X220948Y346710D01*
X222529D01*
X235133Y334105D01*
Y317614D01*
X234015Y316497D01*
X233210Y314552D01*
Y312448D01*
X234015Y310504D01*
X235504Y309015D01*
X237448Y308210D01*
X239552D01*
X241497Y309015D01*
X242985Y310504D01*
X243790Y312448D01*
Y314552D01*
X242985Y316497D01*
X241867Y317614D01*
Y335500D01*
X241610Y336788D01*
X240881Y337881D01*
X227290Y351471D01*
Y353052D01*
X226485Y354996D01*
X224996Y356485D01*
X223052Y357290D01*
X221471D01*
X217381Y361381D01*
X216288Y362110D01*
X215000Y362367D01*
D02*
G37*
G36*
X256927Y307040D02*
X255073D01*
X253283Y306560D01*
X251677Y305633D01*
X250367Y304323D01*
X249440Y302717D01*
X248960Y300927D01*
Y299073D01*
X249440Y297283D01*
X250367Y295677D01*
X251677Y294367D01*
X253283Y293440D01*
X255073Y292960D01*
X256927D01*
X258717Y293440D01*
X260323Y294367D01*
X261633Y295677D01*
X262560Y297283D01*
X263040Y299073D01*
Y300927D01*
X262560Y302717D01*
X261633Y304323D01*
X260323Y305633D01*
X258717Y306560D01*
X256927Y307040D01*
D02*
G37*
G36*
X352328Y203640D02*
X347672D01*
X343105Y202731D01*
X338802Y200949D01*
X334930Y198362D01*
X331638Y195070D01*
X329050Y191198D01*
X327268Y186896D01*
X326360Y182328D01*
Y177672D01*
X327268Y173104D01*
X329050Y168802D01*
X331638Y164930D01*
X334930Y161638D01*
X338802Y159051D01*
X343105Y157268D01*
X347672Y156360D01*
X352328D01*
X356895Y157268D01*
X361198Y159051D01*
X365070Y161638D01*
X368362Y164930D01*
X370949Y168802D01*
X372732Y173104D01*
X373640Y177672D01*
Y182328D01*
X372732Y186896D01*
X370949Y191198D01*
X368362Y195070D01*
X365070Y198362D01*
X361198Y200949D01*
X356895Y202731D01*
X352328Y203640D01*
D02*
G37*
G36*
X351003Y127540D02*
X348997D01*
X347145Y126773D01*
X345727Y125355D01*
X344960Y123503D01*
Y121497D01*
X345727Y119645D01*
X347145Y118227D01*
X348997Y117460D01*
X351003D01*
X352855Y118227D01*
X354273Y119645D01*
X355040Y121497D01*
Y123503D01*
X354273Y125355D01*
X352855Y126773D01*
X351003Y127540D01*
D02*
G37*
G36*
X396927Y117040D02*
X395073D01*
X393283Y116560D01*
X391677Y115633D01*
X390367Y114323D01*
X389440Y112717D01*
X388960Y110927D01*
Y109073D01*
X389440Y107283D01*
X390367Y105677D01*
X391677Y104367D01*
X393283Y103440D01*
X395073Y102960D01*
X396927D01*
X398717Y103440D01*
X400323Y104367D01*
X401633Y105677D01*
X402560Y107283D01*
X403040Y109073D01*
Y110927D01*
X402560Y112717D01*
X401633Y114323D01*
X400323Y115633D01*
X398717Y116560D01*
X396927Y117040D01*
D02*
G37*
G36*
X324052Y117290D02*
X321948D01*
X320003Y116485D01*
X318515Y114997D01*
X317710Y113052D01*
Y110948D01*
X318515Y109003D01*
X320003Y107515D01*
X321948Y106710D01*
X324052D01*
X325997Y107515D01*
X327114Y108633D01*
X358605D01*
X364977Y102262D01*
X364678Y100764D01*
X364003Y100485D01*
X362515Y98997D01*
X361710Y97052D01*
Y95471D01*
X352619Y86381D01*
X351890Y85288D01*
X351633Y84000D01*
Y44114D01*
X350515Y42997D01*
X349710Y41052D01*
Y38948D01*
X350515Y37004D01*
X352004Y35515D01*
X353948Y34710D01*
X356052D01*
X357996Y35515D01*
X359241Y36760D01*
X360000Y36905D01*
X360759Y36760D01*
X362004Y35515D01*
X363948Y34710D01*
X366052D01*
X367996Y35515D01*
X369485Y37004D01*
X370290Y38948D01*
Y41052D01*
X369485Y42997D01*
X368367Y44114D01*
Y81606D01*
X371471Y84710D01*
X373052D01*
X374996Y85515D01*
X376485Y87003D01*
X377052Y88374D01*
X377448Y88210D01*
X379552D01*
X381497Y89015D01*
X382985Y90504D01*
X383790Y92448D01*
Y94552D01*
X382985Y96497D01*
X381497Y97985D01*
X379552Y98790D01*
X377971D01*
X362381Y114381D01*
X361288Y115110D01*
X360000Y115367D01*
X327114D01*
X325997Y116485D01*
X324052Y117290D01*
D02*
G37*
G36*
X396927Y87040D02*
X395073D01*
X393283Y86560D01*
X391677Y85633D01*
X390367Y84323D01*
X389440Y82717D01*
X388960Y80927D01*
Y79073D01*
X389440Y77283D01*
X390367Y75677D01*
X391677Y74367D01*
X393283Y73440D01*
X395073Y72960D01*
X396927D01*
X398717Y73440D01*
X400323Y74367D01*
X401633Y75677D01*
X402560Y77283D01*
X403040Y79073D01*
Y80927D01*
X402560Y82717D01*
X401633Y84323D01*
X400323Y85633D01*
X398717Y86560D01*
X396927Y87040D01*
D02*
G37*
G36*
X492328Y203640D02*
X487672D01*
X483105Y202731D01*
X478802Y200949D01*
X474930Y198362D01*
X471638Y195070D01*
X469050Y191198D01*
X467268Y186896D01*
X466360Y182328D01*
Y177672D01*
X467268Y173104D01*
X469050Y168802D01*
X471638Y164930D01*
X474930Y161638D01*
X478802Y159051D01*
X483105Y157268D01*
X487672Y156360D01*
X492328D01*
X496895Y157268D01*
X501198Y159051D01*
X505070Y161638D01*
X508362Y164930D01*
X510949Y168802D01*
X512732Y173104D01*
X513640Y177672D01*
Y182328D01*
X512732Y186896D01*
X510949Y191198D01*
X508362Y195070D01*
X505070Y198362D01*
X501198Y200949D01*
X496895Y202731D01*
X492328Y203640D01*
D02*
G37*
G36*
X491003Y127540D02*
X488997D01*
X487145Y126773D01*
X485727Y125355D01*
X484960Y123503D01*
Y121497D01*
X485727Y119645D01*
X487145Y118227D01*
X488997Y117460D01*
X491003D01*
X492855Y118227D01*
X494273Y119645D01*
X495040Y121497D01*
Y123503D01*
X494273Y125355D01*
X492855Y126773D01*
X491003Y127540D01*
D02*
G37*
G36*
X536927Y117040D02*
X535073D01*
X533283Y116560D01*
X531677Y115633D01*
X530367Y114323D01*
X529440Y112717D01*
X528960Y110927D01*
Y109073D01*
X529440Y107283D01*
X530367Y105677D01*
X531677Y104367D01*
X533283Y103440D01*
X535073Y102960D01*
X536927D01*
X538717Y103440D01*
X540323Y104367D01*
X541633Y105677D01*
X542560Y107283D01*
X543040Y109073D01*
Y110927D01*
X542560Y112717D01*
X541633Y114323D01*
X540323Y115633D01*
X538717Y116560D01*
X536927Y117040D01*
D02*
G37*
G36*
X464052Y117290D02*
X461948D01*
X460003Y116485D01*
X458515Y114997D01*
X457710Y113052D01*
Y110948D01*
X458515Y109003D01*
X460003Y107515D01*
X461948Y106710D01*
X464052D01*
X465997Y107515D01*
X467114Y108633D01*
X498605D01*
X504977Y102262D01*
X504678Y100764D01*
X504003Y100485D01*
X502515Y98997D01*
X501710Y97052D01*
Y95471D01*
X492619Y86381D01*
X491890Y85288D01*
X491633Y84000D01*
Y44114D01*
X490515Y42997D01*
X489710Y41052D01*
Y38948D01*
X490515Y37004D01*
X492004Y35515D01*
X493948Y34710D01*
X496052D01*
X497996Y35515D01*
X499241Y36760D01*
X500000Y36905D01*
X500759Y36760D01*
X502004Y35515D01*
X503948Y34710D01*
X506052D01*
X507996Y35515D01*
X509485Y37004D01*
X510290Y38948D01*
Y41052D01*
X509485Y42997D01*
X508367Y44114D01*
Y81606D01*
X511471Y84710D01*
X513052D01*
X514996Y85515D01*
X516485Y87003D01*
X517052Y88374D01*
X517448Y88210D01*
X519552D01*
X521497Y89015D01*
X522985Y90504D01*
X523790Y92448D01*
Y94552D01*
X522985Y96497D01*
X521497Y97985D01*
X519552Y98790D01*
X517971D01*
X502381Y114381D01*
X501288Y115110D01*
X500000Y115367D01*
X467114D01*
X465997Y116485D01*
X464052Y117290D01*
D02*
G37*
G36*
X536927Y87040D02*
X535073D01*
X533283Y86560D01*
X531677Y85633D01*
X530367Y84323D01*
X529440Y82717D01*
X528960Y80927D01*
Y79073D01*
X529440Y77283D01*
X530367Y75677D01*
X531677Y74367D01*
X533283Y73440D01*
X535073Y72960D01*
X536927D01*
X538717Y73440D01*
X540323Y74367D01*
X541633Y75677D01*
X542560Y77283D01*
X543040Y79073D01*
Y80927D01*
X542560Y82717D01*
X541633Y84323D01*
X540323Y85633D01*
X538717Y86560D01*
X536927Y87040D01*
D02*
G37*
G36*
X352328Y423640D02*
X347672D01*
X343105Y422732D01*
X338802Y420950D01*
X334930Y418362D01*
X331638Y415070D01*
X329050Y411198D01*
X327268Y406895D01*
X326360Y402328D01*
Y397672D01*
X327268Y393105D01*
X329050Y388802D01*
X331638Y384930D01*
X334930Y381638D01*
X338802Y379050D01*
X343105Y377268D01*
X347672Y376360D01*
X352328D01*
X356895Y377268D01*
X361198Y379050D01*
X365070Y381638D01*
X368362Y384930D01*
X370949Y388802D01*
X372732Y393105D01*
X373640Y397672D01*
Y402328D01*
X372732Y406895D01*
X370949Y411198D01*
X368362Y415070D01*
X365070Y418362D01*
X361198Y420950D01*
X356895Y422732D01*
X352328Y423640D01*
D02*
G37*
G36*
X396927Y337040D02*
X395073D01*
X393283Y336560D01*
X391677Y335633D01*
X390367Y334323D01*
X389440Y332717D01*
X388960Y330927D01*
Y329073D01*
X389440Y327283D01*
X390367Y325677D01*
X391677Y324367D01*
X393283Y323440D01*
X395073Y322960D01*
X396927D01*
X398717Y323440D01*
X400323Y324367D01*
X401633Y325677D01*
X402560Y327283D01*
X403040Y329073D01*
Y330927D01*
X402560Y332717D01*
X401633Y334323D01*
X400323Y335633D01*
X398717Y336560D01*
X396927Y337040D01*
D02*
G37*
G36*
X355000Y362367D02*
X331000D01*
X329712Y362110D01*
X328619Y361381D01*
X320619Y353381D01*
X319890Y352288D01*
X319633Y351000D01*
Y336115D01*
X318515Y334996D01*
X317710Y333052D01*
Y330948D01*
X318515Y329003D01*
X320003Y327515D01*
X321948Y326710D01*
X324052D01*
X325997Y327515D01*
X327485Y329003D01*
X328290Y330948D01*
Y333052D01*
X327485Y334996D01*
X326367Y336115D01*
Y349605D01*
X331530Y354769D01*
X332021Y354708D01*
X332825Y353329D01*
X332710Y353052D01*
Y350948D01*
X333515Y349003D01*
X335004Y347515D01*
X336948Y346710D01*
X338529D01*
X361633Y323605D01*
Y264114D01*
X360759Y263240D01*
X360000Y263095D01*
X359241Y263240D01*
X358367Y264114D01*
Y301000D01*
X358110Y302288D01*
X357381Y303381D01*
X343290Y317471D01*
Y319052D01*
X342485Y320997D01*
X340997Y322485D01*
X339052Y323290D01*
X336948D01*
X335004Y322485D01*
X333515Y320997D01*
X332710Y319052D01*
Y316948D01*
X333515Y315004D01*
X335004Y313515D01*
X336948Y312710D01*
X338529D01*
X351633Y299606D01*
Y264114D01*
X350515Y262997D01*
X349710Y261052D01*
Y258948D01*
X350515Y257003D01*
X352004Y255515D01*
X353948Y254710D01*
X356052D01*
X357996Y255515D01*
X359241Y256760D01*
X360000Y256905D01*
X360759Y256760D01*
X362004Y255515D01*
X363948Y254710D01*
X366052D01*
X367996Y255515D01*
X369485Y257003D01*
X370290Y258948D01*
Y261052D01*
X369485Y262997D01*
X368367Y264114D01*
Y325000D01*
X368110Y326288D01*
X367381Y327381D01*
X343290Y351471D01*
Y353052D01*
X342747Y354363D01*
X343507Y355633D01*
X353605D01*
X356710Y352529D01*
Y350948D01*
X357515Y349003D01*
X359003Y347515D01*
X360948Y346710D01*
X362529D01*
X375133Y334105D01*
Y317614D01*
X374015Y316497D01*
X373210Y314552D01*
Y312448D01*
X374015Y310504D01*
X375504Y309015D01*
X377448Y308210D01*
X379552D01*
X381497Y309015D01*
X382985Y310504D01*
X383790Y312448D01*
Y314552D01*
X382985Y316497D01*
X381867Y317614D01*
Y335500D01*
X381610Y336788D01*
X380881Y337881D01*
X367290Y351471D01*
Y353052D01*
X366485Y354996D01*
X364996Y356485D01*
X363052Y357290D01*
X361471D01*
X357381Y361381D01*
X356288Y362110D01*
X355000Y362367D01*
D02*
G37*
G36*
X396927Y307040D02*
X395073D01*
X393283Y306560D01*
X391677Y305633D01*
X390367Y304323D01*
X389440Y302717D01*
X388960Y300927D01*
Y299073D01*
X389440Y297283D01*
X390367Y295677D01*
X391677Y294367D01*
X393283Y293440D01*
X395073Y292960D01*
X396927D01*
X398717Y293440D01*
X400323Y294367D01*
X401633Y295677D01*
X402560Y297283D01*
X403040Y299073D01*
Y300927D01*
X402560Y302717D01*
X401633Y304323D01*
X400323Y305633D01*
X398717Y306560D01*
X396927Y307040D01*
D02*
G37*
G36*
X492328Y423640D02*
X487672D01*
X483105Y422732D01*
X478802Y420950D01*
X474930Y418362D01*
X471638Y415070D01*
X469050Y411198D01*
X467268Y406895D01*
X466360Y402328D01*
Y397672D01*
X467268Y393105D01*
X469050Y388802D01*
X471638Y384930D01*
X474930Y381638D01*
X478802Y379050D01*
X483105Y377268D01*
X487672Y376360D01*
X492328D01*
X496895Y377268D01*
X501198Y379050D01*
X505070Y381638D01*
X508362Y384930D01*
X510949Y388802D01*
X512732Y393105D01*
X513640Y397672D01*
Y402328D01*
X512732Y406895D01*
X510949Y411198D01*
X508362Y415070D01*
X505070Y418362D01*
X501198Y420950D01*
X496895Y422732D01*
X492328Y423640D01*
D02*
G37*
G36*
X536927Y337040D02*
X535073D01*
X533283Y336560D01*
X531677Y335633D01*
X530367Y334323D01*
X529440Y332717D01*
X528960Y330927D01*
Y329073D01*
X529440Y327283D01*
X530367Y325677D01*
X531677Y324367D01*
X533283Y323440D01*
X535073Y322960D01*
X536927D01*
X538717Y323440D01*
X540323Y324367D01*
X541633Y325677D01*
X542560Y327283D01*
X543040Y329073D01*
Y330927D01*
X542560Y332717D01*
X541633Y334323D01*
X540323Y335633D01*
X538717Y336560D01*
X536927Y337040D01*
D02*
G37*
G36*
X495000Y362367D02*
X471000D01*
X469712Y362110D01*
X468619Y361381D01*
X460619Y353381D01*
X459890Y352288D01*
X459633Y351000D01*
Y336115D01*
X458515Y334996D01*
X457710Y333052D01*
Y330948D01*
X458515Y329003D01*
X460003Y327515D01*
X461948Y326710D01*
X464052D01*
X465997Y327515D01*
X467485Y329003D01*
X468290Y330948D01*
Y333052D01*
X467485Y334996D01*
X466367Y336115D01*
Y349605D01*
X471530Y354769D01*
X472021Y354708D01*
X472825Y353329D01*
X472710Y353052D01*
Y350948D01*
X473515Y349003D01*
X475004Y347515D01*
X476948Y346710D01*
X478529D01*
X501633Y323605D01*
Y264114D01*
X500759Y263240D01*
X500000Y263095D01*
X499241Y263240D01*
X498367Y264114D01*
Y301000D01*
X498110Y302288D01*
X497381Y303381D01*
X483290Y317471D01*
Y319052D01*
X482485Y320997D01*
X480997Y322485D01*
X479052Y323290D01*
X476948D01*
X475004Y322485D01*
X473515Y320997D01*
X472710Y319052D01*
Y316948D01*
X473515Y315004D01*
X475004Y313515D01*
X476948Y312710D01*
X478529D01*
X491633Y299606D01*
Y264114D01*
X490515Y262997D01*
X489710Y261052D01*
Y258948D01*
X490515Y257003D01*
X492004Y255515D01*
X493948Y254710D01*
X496052D01*
X497996Y255515D01*
X499241Y256760D01*
X500000Y256905D01*
X500759Y256760D01*
X502004Y255515D01*
X503948Y254710D01*
X506052D01*
X507996Y255515D01*
X509485Y257003D01*
X510290Y258948D01*
Y261052D01*
X509485Y262997D01*
X508367Y264114D01*
Y325000D01*
X508110Y326288D01*
X507381Y327381D01*
X483290Y351471D01*
Y353052D01*
X482747Y354363D01*
X483507Y355633D01*
X493605D01*
X496710Y352529D01*
Y350948D01*
X497515Y349003D01*
X499003Y347515D01*
X500948Y346710D01*
X502529D01*
X515133Y334105D01*
Y317614D01*
X514015Y316497D01*
X513210Y314552D01*
Y312448D01*
X514015Y310504D01*
X515504Y309015D01*
X517448Y308210D01*
X519552D01*
X521497Y309015D01*
X522985Y310504D01*
X523790Y312448D01*
Y314552D01*
X522985Y316497D01*
X521867Y317614D01*
Y335500D01*
X521610Y336788D01*
X520881Y337881D01*
X507290Y351471D01*
Y353052D01*
X506485Y354996D01*
X504996Y356485D01*
X503052Y357290D01*
X501471D01*
X497381Y361381D01*
X496288Y362110D01*
X495000Y362367D01*
D02*
G37*
G36*
X536927Y307040D02*
X535073D01*
X533283Y306560D01*
X531677Y305633D01*
X530367Y304323D01*
X529440Y302717D01*
X528960Y300927D01*
Y299073D01*
X529440Y297283D01*
X530367Y295677D01*
X531677Y294367D01*
X533283Y293440D01*
X535073Y292960D01*
X536927D01*
X538717Y293440D01*
X540323Y294367D01*
X541633Y295677D01*
X542560Y297283D01*
X543040Y299073D01*
Y300927D01*
X542560Y302717D01*
X541633Y304323D01*
X540323Y305633D01*
X538717Y306560D01*
X536927Y307040D01*
D02*
G37*
%LPD*%
D10*
X500000Y-328000D02*
X518500Y-346500D01*
X463000Y-328000D02*
X500000D01*
X505000Y-357000D02*
X512000Y-350000D01*
X505000Y-400000D02*
Y-357000D01*
X495000Y-356000D02*
X507000Y-344000D01*
X495000Y-400000D02*
Y-356000D01*
X360000Y-328000D02*
X378500Y-346500D01*
X323000Y-328000D02*
X360000D01*
X365000Y-357000D02*
X372000Y-350000D01*
X365000Y-400000D02*
Y-357000D01*
X355000Y-356000D02*
X367000Y-344000D01*
X355000Y-400000D02*
Y-356000D01*
X220000Y-328000D02*
X238500Y-346500D01*
X183000Y-328000D02*
X220000D01*
X225000Y-357000D02*
X232000Y-350000D01*
X225000Y-400000D02*
Y-357000D01*
X215000Y-356000D02*
X227000Y-344000D01*
X215000Y-400000D02*
Y-356000D01*
X80000Y-328000D02*
X98500Y-346500D01*
X43000Y-328000D02*
X80000D01*
X85000Y-357000D02*
X92000Y-350000D01*
X85000Y-400000D02*
Y-357000D01*
X75000Y-356000D02*
X87000Y-344000D01*
X75000Y-400000D02*
Y-356000D01*
X-60000Y-328000D02*
X-41500Y-346500D01*
X-97000Y-328000D02*
X-60000D01*
X-55000Y-357000D02*
X-48000Y-350000D01*
X-55000Y-400000D02*
Y-357000D01*
X-65000Y-356000D02*
X-53000Y-344000D01*
X-65000Y-400000D02*
Y-356000D01*
X-200000Y-328000D02*
X-181500Y-346500D01*
X-237000Y-328000D02*
X-200000D01*
X-195000Y-357000D02*
X-188000Y-350000D01*
X-195000Y-400000D02*
Y-357000D01*
X-205000Y-356000D02*
X-193000Y-344000D01*
X-205000Y-400000D02*
Y-356000D01*
X-340000Y-328000D02*
X-321500Y-346500D01*
X-377000Y-328000D02*
X-340000D01*
X-335000Y-357000D02*
X-328000Y-350000D01*
X-335000Y-400000D02*
Y-357000D01*
X-345000Y-356000D02*
X-333000Y-344000D01*
X-345000Y-400000D02*
Y-356000D01*
X495000Y-81000D02*
X502000Y-88000D01*
X518500Y-104500D01*
Y-126500D02*
Y-104500D01*
X471000Y-81000D02*
X495000D01*
X463000Y-89000D02*
X471000Y-81000D01*
X463000Y-108000D02*
Y-89000D01*
X505000Y-180000D02*
Y-115000D01*
X478000Y-88000D02*
X505000Y-115000D01*
X495000Y-180000D02*
Y-139000D01*
X478000Y-122000D02*
X495000Y-139000D01*
X355000Y-81000D02*
X362000Y-88000D01*
X378500Y-104500D01*
Y-126500D02*
Y-104500D01*
X331000Y-81000D02*
X355000D01*
X323000Y-89000D02*
X331000Y-81000D01*
X323000Y-108000D02*
Y-89000D01*
X365000Y-180000D02*
Y-115000D01*
X338000Y-88000D02*
X365000Y-115000D01*
X355000Y-180000D02*
Y-139000D01*
X338000Y-122000D02*
X355000Y-139000D01*
X215000Y-81000D02*
X222000Y-88000D01*
X238500Y-104500D01*
Y-126500D02*
Y-104500D01*
X191000Y-81000D02*
X215000D01*
X183000Y-89000D02*
X191000Y-81000D01*
X183000Y-108000D02*
Y-89000D01*
X225000Y-180000D02*
Y-115000D01*
X198000Y-88000D02*
X225000Y-115000D01*
X215000Y-180000D02*
Y-139000D01*
X198000Y-122000D02*
X215000Y-139000D01*
X75000Y-81000D02*
X82000Y-88000D01*
X98500Y-104500D01*
Y-126500D02*
Y-104500D01*
X51000Y-81000D02*
X75000D01*
X43000Y-89000D02*
X51000Y-81000D01*
X43000Y-108000D02*
Y-89000D01*
X85000Y-180000D02*
Y-115000D01*
X58000Y-88000D02*
X85000Y-115000D01*
X75000Y-180000D02*
Y-139000D01*
X58000Y-122000D02*
X75000Y-139000D01*
X-65000Y-81000D02*
X-58000Y-88000D01*
X-41500Y-104500D01*
Y-126500D02*
Y-104500D01*
X-89000Y-81000D02*
X-65000D01*
X-97000Y-89000D02*
X-89000Y-81000D01*
X-97000Y-108000D02*
Y-89000D01*
X-55000Y-180000D02*
Y-115000D01*
X-82000Y-88000D02*
X-55000Y-115000D01*
X-65000Y-180000D02*
Y-139000D01*
X-82000Y-122000D02*
X-65000Y-139000D01*
X-205000Y-81000D02*
X-198000Y-88000D01*
X-181500Y-104500D01*
Y-126500D02*
Y-104500D01*
X-229000Y-81000D02*
X-205000D01*
X-237000Y-89000D02*
X-229000Y-81000D01*
X-237000Y-108000D02*
Y-89000D01*
X-195000Y-180000D02*
Y-115000D01*
X-222000Y-88000D02*
X-195000Y-115000D01*
X-205000Y-180000D02*
Y-139000D01*
X-222000Y-122000D02*
X-205000Y-139000D01*
X-345000Y-81000D02*
X-338000Y-88000D01*
X-321500Y-104500D01*
Y-126500D02*
Y-104500D01*
X-369000Y-81000D02*
X-345000D01*
X-377000Y-89000D02*
X-369000Y-81000D01*
X-377000Y-108000D02*
Y-89000D01*
X-335000Y-180000D02*
Y-115000D01*
X-362000Y-88000D02*
X-335000Y-115000D01*
X-345000Y-180000D02*
Y-139000D01*
X-362000Y-122000D02*
X-345000Y-139000D01*
X500000Y112000D02*
X518500Y93500D01*
X463000Y112000D02*
X500000D01*
X505000Y83000D02*
X512000Y90000D01*
X505000Y40000D02*
Y83000D01*
X495000Y84000D02*
X507000Y96000D01*
X495000Y40000D02*
Y84000D01*
X360000Y112000D02*
X378500Y93500D01*
X323000Y112000D02*
X360000D01*
X365000Y83000D02*
X372000Y90000D01*
X365000Y40000D02*
Y83000D01*
X355000Y84000D02*
X367000Y96000D01*
X355000Y40000D02*
Y84000D01*
X220000Y112000D02*
X238500Y93500D01*
X183000Y112000D02*
X220000D01*
X225000Y83000D02*
X232000Y90000D01*
X225000Y40000D02*
Y83000D01*
X215000Y84000D02*
X227000Y96000D01*
X215000Y40000D02*
Y84000D01*
X80000Y112000D02*
X98500Y93500D01*
X43000Y112000D02*
X80000D01*
X85000Y83000D02*
X92000Y90000D01*
X85000Y40000D02*
Y83000D01*
X75000Y84000D02*
X87000Y96000D01*
X75000Y40000D02*
Y84000D01*
X-60000Y112000D02*
X-41500Y93500D01*
X-97000Y112000D02*
X-60000D01*
X-55000Y83000D02*
X-48000Y90000D01*
X-55000Y40000D02*
Y83000D01*
X-65000Y84000D02*
X-53000Y96000D01*
X-65000Y40000D02*
Y84000D01*
X-200000Y112000D02*
X-181500Y93500D01*
X-237000Y112000D02*
X-200000D01*
X-195000Y83000D02*
X-188000Y90000D01*
X-195000Y40000D02*
Y83000D01*
X-205000Y84000D02*
X-193000Y96000D01*
X-205000Y40000D02*
Y84000D01*
X-340000Y112000D02*
X-321500Y93500D01*
X-377000Y112000D02*
X-340000D01*
X-335000Y83000D02*
X-328000Y90000D01*
X-335000Y40000D02*
Y83000D01*
X-345000Y84000D02*
X-333000Y96000D01*
X-345000Y40000D02*
Y84000D01*
X-480000Y112000D02*
X-461500Y93500D01*
X-517000Y112000D02*
X-480000D01*
X-485000Y84000D02*
X-473000Y96000D01*
X-485000Y40000D02*
Y84000D01*
X-475000Y83000D02*
X-468000Y90000D01*
X-475000Y40000D02*
Y83000D01*
X-478000Y-88000D02*
X-461500Y-104500D01*
Y-126500D02*
Y-104500D01*
X-485000Y-81000D02*
X-478000Y-88000D01*
X-509000Y-81000D02*
X-485000D01*
X-517000Y-89000D02*
X-509000Y-81000D01*
X-517000Y-108000D02*
Y-89000D01*
X-475000Y-180000D02*
Y-115000D01*
X-502000Y-88000D02*
X-475000Y-115000D01*
X-502000Y-122000D02*
X-485000Y-139000D01*
Y-180000D02*
Y-139000D01*
X-475000Y-400000D02*
Y-357000D01*
X-468000Y-350000D01*
X-485000Y-400000D02*
Y-356000D01*
X-473000Y-344000D01*
X-517000Y-328000D02*
X-480000D01*
X-461500Y-346500D01*
X495000Y359000D02*
X502000Y352000D01*
X518500Y335500D01*
Y313500D02*
Y335500D01*
X471000Y359000D02*
X495000D01*
X463000Y351000D02*
X471000Y359000D01*
X463000Y332000D02*
Y351000D01*
X505000Y260000D02*
Y325000D01*
X478000Y352000D02*
X505000Y325000D01*
X495000Y260000D02*
Y301000D01*
X478000Y318000D02*
X495000Y301000D01*
X355000Y359000D02*
X362000Y352000D01*
X378500Y335500D01*
Y313500D02*
Y335500D01*
X331000Y359000D02*
X355000D01*
X323000Y351000D02*
X331000Y359000D01*
X323000Y332000D02*
Y351000D01*
X365000Y260000D02*
Y325000D01*
X338000Y352000D02*
X365000Y325000D01*
X355000Y260000D02*
Y301000D01*
X338000Y318000D02*
X355000Y301000D01*
X215000Y359000D02*
X222000Y352000D01*
X238500Y335500D01*
Y313500D02*
Y335500D01*
X191000Y359000D02*
X215000D01*
X183000Y351000D02*
X191000Y359000D01*
X183000Y332000D02*
Y351000D01*
X225000Y260000D02*
Y325000D01*
X198000Y352000D02*
X225000Y325000D01*
X215000Y260000D02*
Y301000D01*
X198000Y318000D02*
X215000Y301000D01*
X75000Y359000D02*
X82000Y352000D01*
X98500Y335500D01*
Y313500D02*
Y335500D01*
X51000Y359000D02*
X75000D01*
X43000Y351000D02*
X51000Y359000D01*
X43000Y332000D02*
Y351000D01*
X85000Y260000D02*
Y325000D01*
X58000Y352000D02*
X85000Y325000D01*
X75000Y260000D02*
Y301000D01*
X58000Y318000D02*
X75000Y301000D01*
X-65000Y359000D02*
X-58000Y352000D01*
X-41500Y335500D01*
Y313500D02*
Y335500D01*
X-89000Y359000D02*
X-65000D01*
X-97000Y351000D02*
X-89000Y359000D01*
X-97000Y332000D02*
Y351000D01*
X-55000Y260000D02*
Y325000D01*
X-82000Y352000D02*
X-55000Y325000D01*
X-65000Y260000D02*
Y301000D01*
X-82000Y318000D02*
X-65000Y301000D01*
X-205000Y359000D02*
X-198000Y352000D01*
X-181500Y335500D01*
Y313500D02*
Y335500D01*
X-229000Y359000D02*
X-205000D01*
X-237000Y351000D02*
X-229000Y359000D01*
X-237000Y332000D02*
Y351000D01*
X-195000Y260000D02*
Y325000D01*
X-222000Y352000D02*
X-195000Y325000D01*
X-205000Y260000D02*
Y301000D01*
X-222000Y318000D02*
X-205000Y301000D01*
X-345000Y359000D02*
X-338000Y352000D01*
X-321500Y335500D01*
Y313500D02*
Y335500D01*
X-369000Y359000D02*
X-345000D01*
X-377000Y351000D02*
X-369000Y359000D01*
X-377000Y332000D02*
Y351000D01*
X-335000Y260000D02*
Y325000D01*
X-362000Y352000D02*
X-335000Y325000D01*
X-345000Y260000D02*
Y301000D01*
X-362000Y318000D02*
X-345000Y301000D01*
X-485000Y260000D02*
Y301000D01*
X-502000Y318000D02*
X-485000Y301000D01*
X-502000Y352000D02*
X-475000Y325000D01*
Y260000D02*
Y325000D01*
X-517000Y332000D02*
Y351000D01*
X-509000Y359000D01*
X-485000D01*
X-478000Y352000D01*
X-461500Y313500D02*
Y335500D01*
X-478000Y352000D02*
X-461500Y335500D01*
D11*
X-560000Y-220000D02*
X-420000D01*
X-280000D01*
X-140000D01*
X0D01*
X140000D01*
X280000D01*
X420000D01*
X560000D01*
X-560000Y-0D02*
X-420000D01*
X-280000D01*
X-140000D01*
X0D01*
X140000D01*
X280000D01*
X420000D01*
X560000D01*
X-560000Y220000D02*
X-420000D01*
X-280000D01*
X-140000D01*
X0D01*
X140000D01*
X280000D01*
X420000D01*
X560000D01*
X420000Y220000D02*
Y440000D01*
Y0D02*
Y220000D01*
Y-220000D02*
Y0D01*
Y-440000D02*
Y-220000D01*
X280000Y220000D02*
Y440000D01*
Y0D02*
Y220000D01*
Y-220000D02*
Y0D01*
Y-440000D02*
Y-220000D01*
X140000Y220000D02*
Y440000D01*
Y0D02*
Y220000D01*
Y-220000D02*
Y0D01*
Y-440000D02*
Y-220000D01*
X0Y220000D02*
Y440000D01*
Y-0D02*
Y220000D01*
Y-220000D02*
Y-0D01*
Y-440000D02*
Y-220000D01*
X-140000Y220000D02*
Y440000D01*
Y0D02*
Y220000D01*
Y-220000D02*
Y0D01*
Y-440000D02*
Y-220000D01*
X-280000Y220000D02*
Y440000D01*
Y0D02*
Y220000D01*
Y-220000D02*
Y0D01*
Y-440000D02*
Y-220000D01*
X-420000Y220000D02*
Y440000D01*
Y0D02*
Y220000D01*
Y-220000D02*
Y0D01*
Y-440000D02*
Y-220000D01*
X420000Y440000D02*
X560000D01*
Y220000D02*
Y440000D01*
X560000Y0D02*
Y220000D01*
Y-220000D02*
Y0D01*
X420000Y-440000D02*
X560000D01*
Y-220000D01*
X280000Y440000D02*
X420000D01*
X280000Y-440000D02*
X420000D01*
X140000Y440000D02*
X280000D01*
X140000Y-440000D02*
X280000D01*
X0Y440000D02*
X140000D01*
X-0Y-440000D02*
X140000D01*
X-140000Y440000D02*
X0D01*
X-140000Y-440000D02*
X-0D01*
X-280000Y440000D02*
X-140000D01*
X-280000Y-440000D02*
X-140000D01*
X-420000Y440000D02*
X-280000D01*
X-420000Y-440000D02*
X-280000D01*
X-560000D02*
X-420000D01*
X-560000D02*
Y-220000D01*
Y0D01*
Y220000D01*
Y440000D01*
X-420000D01*
D49*
X-490000Y122500D02*
D03*
X-350000D02*
D03*
X-210000D02*
D03*
X-70000D02*
D03*
X70000D02*
D03*
X210000D02*
D03*
X350000D02*
D03*
X490000D02*
D03*
X-490000Y-317500D02*
D03*
X-350000D02*
D03*
X-210000D02*
D03*
X-70000D02*
D03*
X70000D02*
D03*
X210000D02*
D03*
X350000D02*
D03*
X490000D02*
D03*
D50*
X540001Y-260000D02*
D03*
Y-340000D02*
D03*
Y-420000D02*
D03*
X530001Y-240000D02*
D03*
Y-280000D02*
D03*
Y-400000D02*
D03*
X500001Y-300000D02*
D03*
Y-420000D02*
D03*
X480001Y-300000D02*
D03*
Y-420000D02*
D03*
X460001Y-300000D02*
D03*
X470001Y-320000D02*
D03*
X460001Y-380000D02*
D03*
X450001Y-240000D02*
D03*
X440001Y-260000D02*
D03*
X450001Y-280000D02*
D03*
X440001Y-300000D02*
D03*
X400001Y-260000D02*
D03*
Y-340000D02*
D03*
Y-420000D02*
D03*
X390001Y-240000D02*
D03*
Y-280000D02*
D03*
Y-400000D02*
D03*
X360001Y-300000D02*
D03*
Y-420000D02*
D03*
X340001Y-300000D02*
D03*
Y-420000D02*
D03*
X320001Y-300000D02*
D03*
X330001Y-320000D02*
D03*
X320001Y-380000D02*
D03*
X310001Y-240000D02*
D03*
X300001Y-260000D02*
D03*
X310001Y-280000D02*
D03*
X300001Y-300000D02*
D03*
X260001Y-260000D02*
D03*
Y-340000D02*
D03*
Y-420000D02*
D03*
X250001Y-240000D02*
D03*
Y-280000D02*
D03*
Y-400000D02*
D03*
X220001Y-300000D02*
D03*
Y-420000D02*
D03*
X200001Y-300000D02*
D03*
Y-420000D02*
D03*
X180001Y-300000D02*
D03*
X190001Y-320000D02*
D03*
X180001Y-380000D02*
D03*
X170001Y-240000D02*
D03*
X160001Y-260000D02*
D03*
X170001Y-280000D02*
D03*
X160001Y-300000D02*
D03*
X120001Y-260000D02*
D03*
Y-340000D02*
D03*
Y-420000D02*
D03*
X110001Y-240000D02*
D03*
Y-280000D02*
D03*
Y-400000D02*
D03*
X80001Y-300000D02*
D03*
Y-420000D02*
D03*
X60001Y-300000D02*
D03*
Y-420000D02*
D03*
X40001Y-300000D02*
D03*
X50001Y-320000D02*
D03*
X40001Y-380000D02*
D03*
X30001Y-240000D02*
D03*
X20001Y-260000D02*
D03*
X30001Y-280000D02*
D03*
X20001Y-300000D02*
D03*
X-19999Y-260000D02*
D03*
Y-340000D02*
D03*
Y-420000D02*
D03*
X-29999Y-240000D02*
D03*
Y-280000D02*
D03*
Y-400000D02*
D03*
X-59999Y-300000D02*
D03*
Y-420000D02*
D03*
X-79999Y-300000D02*
D03*
Y-420000D02*
D03*
X-99999Y-300000D02*
D03*
X-89999Y-320000D02*
D03*
X-99999Y-380000D02*
D03*
X-109999Y-240000D02*
D03*
X-119999Y-260000D02*
D03*
X-109999Y-280000D02*
D03*
X-119999Y-300000D02*
D03*
X-159999Y-260000D02*
D03*
Y-340000D02*
D03*
Y-420000D02*
D03*
X-169999Y-240000D02*
D03*
Y-280000D02*
D03*
Y-400000D02*
D03*
X-199999Y-300000D02*
D03*
Y-420000D02*
D03*
X-219999Y-300000D02*
D03*
Y-420000D02*
D03*
X-239999Y-300000D02*
D03*
X-229999Y-320000D02*
D03*
X-239999Y-380000D02*
D03*
X-249999Y-240000D02*
D03*
X-259999Y-260000D02*
D03*
X-249999Y-280000D02*
D03*
X-259999Y-300000D02*
D03*
X-299999Y-260000D02*
D03*
Y-340000D02*
D03*
Y-420000D02*
D03*
X-309999Y-240000D02*
D03*
Y-280000D02*
D03*
Y-400000D02*
D03*
X-339999Y-300000D02*
D03*
Y-420000D02*
D03*
X-359999Y-300000D02*
D03*
Y-420000D02*
D03*
X-379999Y-300000D02*
D03*
X-369999Y-320000D02*
D03*
X-379999Y-380000D02*
D03*
X-389999Y-240000D02*
D03*
X-399999Y-260000D02*
D03*
X-389999Y-280000D02*
D03*
X-399999Y-300000D02*
D03*
X-440000Y-260000D02*
D03*
Y-340000D02*
D03*
Y-420000D02*
D03*
X-450000Y-240000D02*
D03*
Y-280000D02*
D03*
Y-400000D02*
D03*
X-480000Y-300000D02*
D03*
Y-420000D02*
D03*
X-500000Y-300000D02*
D03*
Y-420000D02*
D03*
X-520000Y-300000D02*
D03*
X-510000Y-320000D02*
D03*
X-520000Y-380000D02*
D03*
X-530000Y-240000D02*
D03*
X-540000Y-260000D02*
D03*
X-530000Y-280000D02*
D03*
X-540000Y-300000D02*
D03*
X540001Y-39999D02*
D03*
Y-120000D02*
D03*
Y-200000D02*
D03*
X530001Y-20000D02*
D03*
Y-59999D02*
D03*
Y-180000D02*
D03*
X500001Y-200000D02*
D03*
X480001D02*
D03*
X460001Y-79999D02*
D03*
X470001Y-100000D02*
D03*
X460001Y-160000D02*
D03*
X450001Y-20000D02*
D03*
X440001Y-39999D02*
D03*
X450001Y-59999D02*
D03*
X440001Y-79999D02*
D03*
X400001Y-39999D02*
D03*
Y-120000D02*
D03*
Y-200000D02*
D03*
X390001Y-20000D02*
D03*
Y-59999D02*
D03*
Y-180000D02*
D03*
X360001Y-200000D02*
D03*
X340001D02*
D03*
X320001Y-79999D02*
D03*
X330001Y-100000D02*
D03*
X320001Y-160000D02*
D03*
X310001Y-20000D02*
D03*
X300001Y-39999D02*
D03*
X310001Y-59999D02*
D03*
X300001Y-79999D02*
D03*
X260001Y-39999D02*
D03*
Y-120000D02*
D03*
Y-200000D02*
D03*
X250001Y-20000D02*
D03*
Y-59999D02*
D03*
Y-180000D02*
D03*
X220001Y-200000D02*
D03*
X200001D02*
D03*
X180001Y-79999D02*
D03*
X190001Y-100000D02*
D03*
X180001Y-160000D02*
D03*
X170001Y-20000D02*
D03*
X160001Y-39999D02*
D03*
X170001Y-59999D02*
D03*
X160001Y-79999D02*
D03*
X120001Y-39999D02*
D03*
Y-120000D02*
D03*
Y-200000D02*
D03*
X110001Y-20000D02*
D03*
Y-59999D02*
D03*
Y-180000D02*
D03*
X80001Y-200000D02*
D03*
X60001D02*
D03*
X40001Y-79999D02*
D03*
X50001Y-100000D02*
D03*
X40001Y-160000D02*
D03*
X30001Y-20000D02*
D03*
X20001Y-39999D02*
D03*
X30001Y-59999D02*
D03*
X20001Y-79999D02*
D03*
X-19999Y-39999D02*
D03*
Y-120000D02*
D03*
Y-200000D02*
D03*
X-29999Y-20000D02*
D03*
Y-59999D02*
D03*
Y-180000D02*
D03*
X-59999Y-200000D02*
D03*
X-79999D02*
D03*
X-99999Y-79999D02*
D03*
X-89999Y-100000D02*
D03*
X-99999Y-160000D02*
D03*
X-109999Y-20000D02*
D03*
X-119999Y-39999D02*
D03*
X-109999Y-59999D02*
D03*
X-119999Y-79999D02*
D03*
X-159999Y-39999D02*
D03*
Y-120000D02*
D03*
Y-200000D02*
D03*
X-169999Y-20000D02*
D03*
Y-59999D02*
D03*
Y-180000D02*
D03*
X-199999Y-200000D02*
D03*
X-219999D02*
D03*
X-239999Y-79999D02*
D03*
X-229999Y-100000D02*
D03*
X-239999Y-160000D02*
D03*
X-249999Y-20000D02*
D03*
X-259999Y-39999D02*
D03*
X-249999Y-59999D02*
D03*
X-259999Y-79999D02*
D03*
X-299999Y-39999D02*
D03*
Y-120000D02*
D03*
Y-200000D02*
D03*
X-309999Y-20000D02*
D03*
Y-59999D02*
D03*
Y-180000D02*
D03*
X-339999Y-200000D02*
D03*
X-359999D02*
D03*
X-379999Y-79999D02*
D03*
X-369999Y-100000D02*
D03*
X-379999Y-160000D02*
D03*
X-389999Y-20000D02*
D03*
X-399999Y-39999D02*
D03*
X-389999Y-59999D02*
D03*
X-399999Y-79999D02*
D03*
X-440000Y-39999D02*
D03*
Y-120000D02*
D03*
Y-200000D02*
D03*
X-450000Y-20000D02*
D03*
Y-59999D02*
D03*
Y-180000D02*
D03*
X-480000Y-200000D02*
D03*
X-500000D02*
D03*
X-520000Y-79999D02*
D03*
X-510000Y-100000D02*
D03*
X-520000Y-160000D02*
D03*
X-530000Y-20000D02*
D03*
X-540000Y-39999D02*
D03*
X-530000Y-59999D02*
D03*
X-540000Y-79999D02*
D03*
X440000Y-419999D02*
D03*
X300000D02*
D03*
X160000D02*
D03*
X20001D02*
D03*
X-120000D02*
D03*
X-260000D02*
D03*
X-400000D02*
D03*
X440000Y-199999D02*
D03*
X300000D02*
D03*
X160000D02*
D03*
X20001D02*
D03*
X-120000D02*
D03*
X-260000D02*
D03*
X-400000D02*
D03*
X518500Y-346500D02*
D03*
D03*
X463000Y-328000D02*
D03*
D03*
X512000Y-350000D02*
D03*
X505000Y-400000D02*
D03*
D03*
X507000Y-344000D02*
D03*
X495000Y-400000D02*
D03*
D03*
X378500Y-346500D02*
D03*
D03*
X323000Y-328000D02*
D03*
D03*
X372000Y-350000D02*
D03*
X365000Y-400000D02*
D03*
D03*
X367000Y-344000D02*
D03*
X355000Y-400000D02*
D03*
D03*
X238500Y-346500D02*
D03*
D03*
X183000Y-328000D02*
D03*
D03*
X232000Y-350000D02*
D03*
X225000Y-400000D02*
D03*
D03*
X227000Y-344000D02*
D03*
X215000Y-400000D02*
D03*
D03*
X98500Y-346500D02*
D03*
D03*
X43000Y-328000D02*
D03*
D03*
X92000Y-350000D02*
D03*
X85000Y-400000D02*
D03*
D03*
X87000Y-344000D02*
D03*
X75000Y-400000D02*
D03*
D03*
X-41500Y-346500D02*
D03*
D03*
X-97000Y-328000D02*
D03*
D03*
X-48000Y-350000D02*
D03*
X-55000Y-400000D02*
D03*
D03*
X-53000Y-344000D02*
D03*
X-65000Y-400000D02*
D03*
D03*
X-181500Y-346500D02*
D03*
D03*
X-237000Y-328000D02*
D03*
D03*
X-188000Y-350000D02*
D03*
X-195000Y-400000D02*
D03*
D03*
X-193000Y-344000D02*
D03*
X-205000Y-400000D02*
D03*
D03*
X-321500Y-346500D02*
D03*
D03*
X-377000Y-328000D02*
D03*
D03*
X-328000Y-350000D02*
D03*
X-335000Y-400000D02*
D03*
D03*
X-333000Y-344000D02*
D03*
X-345000Y-400000D02*
D03*
D03*
X502000Y-88000D02*
D03*
X518500Y-126500D02*
D03*
X463000Y-108000D02*
D03*
X505000Y-180000D02*
D03*
X478000Y-88000D02*
D03*
X495000Y-180000D02*
D03*
X478000Y-122000D02*
D03*
X362000Y-88000D02*
D03*
X378500Y-126500D02*
D03*
X323000Y-108000D02*
D03*
X365000Y-180000D02*
D03*
X338000Y-88000D02*
D03*
X355000Y-180000D02*
D03*
X338000Y-122000D02*
D03*
X222000Y-88000D02*
D03*
X238500Y-126500D02*
D03*
X183000Y-108000D02*
D03*
X225000Y-180000D02*
D03*
X198000Y-88000D02*
D03*
X215000Y-180000D02*
D03*
X198000Y-122000D02*
D03*
X82000Y-88000D02*
D03*
X98500Y-126500D02*
D03*
X43000Y-108000D02*
D03*
X85000Y-180000D02*
D03*
X58000Y-88000D02*
D03*
X75000Y-180000D02*
D03*
X58000Y-122000D02*
D03*
X-58000Y-88000D02*
D03*
X-41500Y-126500D02*
D03*
X-97000Y-108000D02*
D03*
X-55000Y-180000D02*
D03*
X-82000Y-88000D02*
D03*
X-65000Y-180000D02*
D03*
X-82000Y-122000D02*
D03*
X-198000Y-88000D02*
D03*
X-181500Y-126500D02*
D03*
X-237000Y-108000D02*
D03*
X-195000Y-180000D02*
D03*
X-222000Y-88000D02*
D03*
X-205000Y-180000D02*
D03*
X-222000Y-122000D02*
D03*
X-338000Y-88000D02*
D03*
X-321500Y-126500D02*
D03*
X-377000Y-108000D02*
D03*
X-335000Y-180000D02*
D03*
X-362000Y-88000D02*
D03*
X-345000Y-180000D02*
D03*
X-362000Y-122000D02*
D03*
X540001Y180001D02*
D03*
Y100001D02*
D03*
Y20001D02*
D03*
X530001Y200001D02*
D03*
Y160001D02*
D03*
Y40001D02*
D03*
X500001Y140001D02*
D03*
Y20001D02*
D03*
X480001Y140001D02*
D03*
Y20001D02*
D03*
X460001Y140001D02*
D03*
X470001Y120001D02*
D03*
X460001Y60001D02*
D03*
X450001Y200001D02*
D03*
X440001Y180001D02*
D03*
X450001Y160001D02*
D03*
X440001Y140001D02*
D03*
X400001Y180001D02*
D03*
Y100001D02*
D03*
Y20001D02*
D03*
X390001Y200001D02*
D03*
Y160001D02*
D03*
Y40001D02*
D03*
X360001Y140001D02*
D03*
Y20001D02*
D03*
X340001Y140001D02*
D03*
Y20001D02*
D03*
X320001Y140001D02*
D03*
X330001Y120001D02*
D03*
X320001Y60001D02*
D03*
X310001Y200001D02*
D03*
X300001Y180001D02*
D03*
X310001Y160001D02*
D03*
X300001Y140001D02*
D03*
X260001Y180001D02*
D03*
Y100001D02*
D03*
Y20001D02*
D03*
X250001Y200001D02*
D03*
Y160001D02*
D03*
Y40001D02*
D03*
X220001Y140001D02*
D03*
Y20001D02*
D03*
X200001Y140001D02*
D03*
Y20001D02*
D03*
X180001Y140001D02*
D03*
X190001Y120001D02*
D03*
X180001Y60001D02*
D03*
X170001Y200001D02*
D03*
X160001Y180001D02*
D03*
X170001Y160001D02*
D03*
X160001Y140001D02*
D03*
X120001Y180001D02*
D03*
Y100001D02*
D03*
Y20001D02*
D03*
X110001Y200001D02*
D03*
Y160001D02*
D03*
Y40001D02*
D03*
X80001Y140001D02*
D03*
Y20001D02*
D03*
X60001Y140001D02*
D03*
Y20001D02*
D03*
X40001Y140001D02*
D03*
X50001Y120001D02*
D03*
X40001Y60001D02*
D03*
X30001Y200001D02*
D03*
X20001Y180001D02*
D03*
X30001Y160001D02*
D03*
X20001Y140001D02*
D03*
X-19999Y180001D02*
D03*
Y100001D02*
D03*
Y20001D02*
D03*
X-29999Y200001D02*
D03*
Y160001D02*
D03*
Y40001D02*
D03*
X-59999Y140001D02*
D03*
Y20001D02*
D03*
X-79999Y140001D02*
D03*
Y20001D02*
D03*
X-99999Y140001D02*
D03*
X-89999Y120001D02*
D03*
X-99999Y60001D02*
D03*
X-109999Y200001D02*
D03*
X-119999Y180001D02*
D03*
X-109999Y160001D02*
D03*
X-119999Y140001D02*
D03*
X-159999Y180001D02*
D03*
Y100001D02*
D03*
Y20001D02*
D03*
X-169999Y200001D02*
D03*
Y160001D02*
D03*
Y40001D02*
D03*
X-199999Y140001D02*
D03*
Y20001D02*
D03*
X-219999Y140001D02*
D03*
Y20001D02*
D03*
X-239999Y140001D02*
D03*
X-229999Y120001D02*
D03*
X-239999Y60001D02*
D03*
X-249999Y200001D02*
D03*
X-259999Y180001D02*
D03*
X-249999Y160001D02*
D03*
X-259999Y140001D02*
D03*
X-299999Y180001D02*
D03*
Y100001D02*
D03*
Y20001D02*
D03*
X-309999Y200001D02*
D03*
Y160001D02*
D03*
Y40001D02*
D03*
X-339999Y140001D02*
D03*
Y20001D02*
D03*
X-359999Y140001D02*
D03*
Y20001D02*
D03*
X-379999Y140001D02*
D03*
X-369999Y120001D02*
D03*
X-379999Y60001D02*
D03*
X-389999Y200001D02*
D03*
X-399999Y180001D02*
D03*
X-389999Y160001D02*
D03*
X-399999Y140001D02*
D03*
X-440000Y180001D02*
D03*
Y100001D02*
D03*
Y20001D02*
D03*
X-450000Y200001D02*
D03*
Y160001D02*
D03*
Y40001D02*
D03*
X-480000Y140001D02*
D03*
Y20001D02*
D03*
X-500000Y140001D02*
D03*
Y20001D02*
D03*
X-520000Y140001D02*
D03*
X-510000Y120001D02*
D03*
X-520000Y60001D02*
D03*
X-530000Y200001D02*
D03*
X-540000Y180001D02*
D03*
X-530000Y160001D02*
D03*
X-540000Y140001D02*
D03*
X440000Y20001D02*
D03*
X300000D02*
D03*
X160000D02*
D03*
X20001D02*
D03*
X-120000D02*
D03*
X-260000D02*
D03*
X-400000D02*
D03*
X518500Y93500D02*
D03*
X463000Y112000D02*
D03*
X512000Y90000D02*
D03*
X505000Y40000D02*
D03*
X507000Y96000D02*
D03*
X495000Y40000D02*
D03*
X378500Y93500D02*
D03*
X323000Y112000D02*
D03*
X372000Y90000D02*
D03*
X365000Y40000D02*
D03*
X367000Y96000D02*
D03*
X355000Y40000D02*
D03*
X238500Y93500D02*
D03*
X183000Y112000D02*
D03*
X232000Y90000D02*
D03*
X225000Y40000D02*
D03*
X227000Y96000D02*
D03*
X215000Y40000D02*
D03*
X98500Y93500D02*
D03*
X43000Y112000D02*
D03*
X92000Y90000D02*
D03*
X85000Y40000D02*
D03*
X87000Y96000D02*
D03*
X75000Y40000D02*
D03*
X-41500Y93500D02*
D03*
X-97000Y112000D02*
D03*
X-48000Y90000D02*
D03*
X-55000Y40000D02*
D03*
X-53000Y96000D02*
D03*
X-65000Y40000D02*
D03*
X-181500Y93500D02*
D03*
X-237000Y112000D02*
D03*
X-188000Y90000D02*
D03*
X-195000Y40000D02*
D03*
X-193000Y96000D02*
D03*
X-205000Y40000D02*
D03*
X-321500Y93500D02*
D03*
X-377000Y112000D02*
D03*
X-328000Y90000D02*
D03*
X-335000Y40000D02*
D03*
X-333000Y96000D02*
D03*
X-345000Y40000D02*
D03*
X-478000Y-88000D02*
D03*
X-517000Y-108000D02*
D03*
X-485000Y-180000D02*
D03*
X-475000D02*
D03*
X-461500Y-126500D02*
D03*
X-502000Y-88000D02*
D03*
Y-122000D02*
D03*
X-540000Y-199999D02*
D03*
X-461500Y-346500D02*
D03*
X-475000Y-400000D02*
D03*
X-485000D02*
D03*
X-517000Y-328000D02*
D03*
X-473000Y-344000D02*
D03*
X-468000Y-350000D02*
D03*
X-540000Y-419999D02*
D03*
Y20001D02*
D03*
X540001Y400001D02*
D03*
Y320001D02*
D03*
Y240001D02*
D03*
X530001Y420001D02*
D03*
Y380001D02*
D03*
Y260001D02*
D03*
X500001Y240001D02*
D03*
X480001D02*
D03*
X460001Y360001D02*
D03*
Y280001D02*
D03*
X450001Y420001D02*
D03*
X440001Y400001D02*
D03*
X450001Y380001D02*
D03*
X440001Y360001D02*
D03*
X400001Y400001D02*
D03*
Y320001D02*
D03*
Y240001D02*
D03*
X390001Y420001D02*
D03*
Y380001D02*
D03*
Y260001D02*
D03*
X360001Y240001D02*
D03*
X340001D02*
D03*
X320001Y360001D02*
D03*
Y280001D02*
D03*
X310001Y420001D02*
D03*
X300001Y400001D02*
D03*
X310001Y380001D02*
D03*
X300001Y360001D02*
D03*
X260001Y400001D02*
D03*
Y320001D02*
D03*
Y240001D02*
D03*
X250001Y420001D02*
D03*
Y380001D02*
D03*
Y260001D02*
D03*
X220001Y240001D02*
D03*
X200001D02*
D03*
X180001Y360001D02*
D03*
Y280001D02*
D03*
X170001Y420001D02*
D03*
X160001Y400001D02*
D03*
X170001Y380001D02*
D03*
X160001Y360001D02*
D03*
X120001Y400001D02*
D03*
Y320001D02*
D03*
Y240001D02*
D03*
X110001Y420001D02*
D03*
Y380001D02*
D03*
Y260001D02*
D03*
X80001Y240001D02*
D03*
X60001D02*
D03*
X40001Y360001D02*
D03*
Y280001D02*
D03*
X30001Y420001D02*
D03*
X20001Y400001D02*
D03*
X30001Y380001D02*
D03*
X20001Y360001D02*
D03*
X-19999Y400001D02*
D03*
Y320001D02*
D03*
Y240001D02*
D03*
X-29999Y420001D02*
D03*
Y380001D02*
D03*
Y260001D02*
D03*
X-59999Y240001D02*
D03*
X-79999D02*
D03*
X-99999Y360001D02*
D03*
Y280001D02*
D03*
X-109999Y420001D02*
D03*
X-119999Y400001D02*
D03*
X-109999Y380001D02*
D03*
X-119999Y360001D02*
D03*
X-159999Y400001D02*
D03*
Y320001D02*
D03*
Y240001D02*
D03*
X-169999Y420001D02*
D03*
Y380001D02*
D03*
Y260001D02*
D03*
X-199999Y240001D02*
D03*
X-219999D02*
D03*
X-239999Y360001D02*
D03*
Y280001D02*
D03*
X-249999Y420001D02*
D03*
X-259999Y400001D02*
D03*
X-249999Y380001D02*
D03*
X-259999Y360001D02*
D03*
X-299999Y400001D02*
D03*
Y320001D02*
D03*
Y240001D02*
D03*
X-309999Y420001D02*
D03*
Y380001D02*
D03*
Y260001D02*
D03*
X-339999Y240001D02*
D03*
X-359999D02*
D03*
X-379999Y360001D02*
D03*
Y280001D02*
D03*
X-389999Y420001D02*
D03*
X-399999Y400001D02*
D03*
X-389999Y380001D02*
D03*
X-399999Y360001D02*
D03*
X-440000Y400001D02*
D03*
Y320001D02*
D03*
Y240001D02*
D03*
X-450000Y420001D02*
D03*
Y380001D02*
D03*
Y260001D02*
D03*
X-480000Y240001D02*
D03*
X-500000D02*
D03*
X-520000Y360001D02*
D03*
X-510000Y340001D02*
D03*
X-520000Y280001D02*
D03*
X-530000Y420001D02*
D03*
X-540000Y400001D02*
D03*
X-530000Y380001D02*
D03*
X-540000Y360001D02*
D03*
X440000Y240001D02*
D03*
X300000D02*
D03*
X160000D02*
D03*
X20001D02*
D03*
X-120000D02*
D03*
X-260000D02*
D03*
X-400000D02*
D03*
X-540000D02*
D03*
X-468000Y90000D02*
D03*
X-473000Y96000D02*
D03*
X-517000Y-328000D02*
D03*
X-485000Y-400000D02*
D03*
X-475000D02*
D03*
X-461500Y-346500D02*
D03*
X-517000Y112000D02*
D03*
X-485000Y40000D02*
D03*
X-475000D02*
D03*
X-461500Y93500D02*
D03*
X502000Y352000D02*
D03*
X518500Y313500D02*
D03*
X463000Y332000D02*
D03*
X505000Y260000D02*
D03*
X478000Y352000D02*
D03*
X495000Y260000D02*
D03*
X478000Y318000D02*
D03*
X362000Y352000D02*
D03*
X378500Y313500D02*
D03*
X323000Y332000D02*
D03*
X365000Y260000D02*
D03*
X338000Y352000D02*
D03*
X355000Y260000D02*
D03*
X338000Y318000D02*
D03*
X222000Y352000D02*
D03*
X238500Y313500D02*
D03*
X183000Y332000D02*
D03*
X225000Y260000D02*
D03*
X198000Y352000D02*
D03*
X215000Y260000D02*
D03*
X198000Y318000D02*
D03*
X82000Y352000D02*
D03*
X98500Y313500D02*
D03*
X43000Y332000D02*
D03*
X85000Y260000D02*
D03*
X58000Y352000D02*
D03*
X75000Y260000D02*
D03*
X58000Y318000D02*
D03*
X-58000Y352000D02*
D03*
X-41500Y313500D02*
D03*
X-97000Y332000D02*
D03*
X-55000Y260000D02*
D03*
X-82000Y352000D02*
D03*
X-65000Y260000D02*
D03*
X-82000Y318000D02*
D03*
X-198000Y352000D02*
D03*
X-181500Y313500D02*
D03*
X-237000Y332000D02*
D03*
X-195000Y260000D02*
D03*
X-222000Y352000D02*
D03*
X-205000Y260000D02*
D03*
X-222000Y318000D02*
D03*
X-338000Y352000D02*
D03*
X-321500Y313500D02*
D03*
X-377000Y332000D02*
D03*
X-335000Y260000D02*
D03*
X-362000Y352000D02*
D03*
X-345000Y260000D02*
D03*
X-362000Y318000D02*
D03*
X-502000D02*
D03*
Y352000D02*
D03*
X-461500Y313500D02*
D03*
X-475000Y260000D02*
D03*
X-485000D02*
D03*
X-517000Y332000D02*
D03*
X-478000Y352000D02*
D03*
D51*
X470000Y340001D02*
D03*
X330000D02*
D03*
X190000D02*
D03*
X50001D02*
D03*
X-90000D02*
D03*
X-230000D02*
D03*
X-370000D02*
D03*
M02*
