G04*
G04 #@! TF.GenerationSoftware,Altium Limited,Altium Designer,22.2.1 (43)*
G04*
G04 Layer_Color=8388736*
%FSLAX44Y44*%
%MOMM*%
G71*
G04*
G04 #@! TF.SameCoordinates,B7F19F8C-4A71-44AC-9732-6E8CD1541173*
G04*
G04*
G04 #@! TF.FilePolarity,Negative*
G04*
G01*
G75*
%ADD11C,0.2540*%
%ADD29C,1.1020*%
%ADD30R,0.9282X0.7252*%
%ADD31O,0.5032X0.3032*%
%ADD32O,0.3032X0.5032*%
%ADD33R,1.0032X1.2032*%
%ADD34R,1.7032X0.9032*%
%ADD35R,0.8382X1.0922*%
%ADD36R,0.9032X0.9532*%
%ADD37R,1.5032X0.5532*%
%ADD38R,0.6032X1.1532*%
%ADD39R,0.5532X2.5032*%
%ADD40R,1.4032X2.2032*%
%ADD41R,0.9032X2.0032*%
%ADD42R,1.9812X1.3462*%
%ADD43R,1.0922X0.8382*%
%ADD44C,1.8300*%
%ADD45C,0.2032*%
D11*
X-560000Y-220000D02*
X-420000D01*
X-280000D01*
X-140000D01*
X0D01*
X140000D01*
X280000D01*
X420000D01*
X560000D01*
X-560000Y-0D02*
X-420000D01*
X-280000D01*
X-140000D01*
X0D01*
X140000D01*
X280000D01*
X420000D01*
X560000D01*
X-560000Y220000D02*
X-420000D01*
X-280000D01*
X-140000D01*
X0D01*
X140000D01*
X280000D01*
X420000D01*
X560000D01*
X420000Y220000D02*
Y440000D01*
Y0D02*
Y220000D01*
Y-220000D02*
Y0D01*
Y-440000D02*
Y-220000D01*
X280000Y220000D02*
Y440000D01*
Y0D02*
Y220000D01*
Y-220000D02*
Y0D01*
Y-440000D02*
Y-220000D01*
X140000Y220000D02*
Y440000D01*
Y0D02*
Y220000D01*
Y-220000D02*
Y0D01*
Y-440000D02*
Y-220000D01*
X0Y220000D02*
Y440000D01*
Y-0D02*
Y220000D01*
Y-220000D02*
Y-0D01*
Y-440000D02*
Y-220000D01*
X-140000Y220000D02*
Y440000D01*
Y0D02*
Y220000D01*
Y-220000D02*
Y0D01*
Y-440000D02*
Y-220000D01*
X-280000Y220000D02*
Y440000D01*
Y0D02*
Y220000D01*
Y-220000D02*
Y0D01*
Y-440000D02*
Y-220000D01*
X-420000Y220000D02*
Y440000D01*
Y0D02*
Y220000D01*
Y-220000D02*
Y0D01*
Y-440000D02*
Y-220000D01*
X420000Y440000D02*
X560000D01*
Y220000D02*
Y440000D01*
X560000Y0D02*
Y220000D01*
Y-220000D02*
Y0D01*
X420000Y-440000D02*
X560000D01*
Y-220000D01*
X280000Y440000D02*
X420000D01*
X280000Y-440000D02*
X420000D01*
X140000Y440000D02*
X280000D01*
X140000Y-440000D02*
X280000D01*
X0Y440000D02*
X140000D01*
X-0Y-440000D02*
X140000D01*
X-140000Y440000D02*
X0D01*
X-140000Y-440000D02*
X-0D01*
X-280000Y440000D02*
X-140000D01*
X-280000Y-440000D02*
X-140000D01*
X-420000Y440000D02*
X-280000D01*
X-420000Y-440000D02*
X-280000D01*
X-560000D02*
X-420000D01*
X-560000D02*
Y-220000D01*
Y0D01*
Y220000D01*
Y440000D01*
X-420000D01*
D29*
X96610Y400000D02*
G03*
X96610Y400000I-26610J0D01*
G01*
X-463390Y180000D02*
G03*
X-463390Y180000I-26610J0D01*
G01*
X516610Y-260000D02*
G03*
X516610Y-260000I-26610J0D01*
G01*
X376610D02*
G03*
X376610Y-260000I-26610J0D01*
G01*
X236610D02*
G03*
X236610Y-260000I-26610J0D01*
G01*
X96610D02*
G03*
X96610Y-260000I-26610J0D01*
G01*
X-43390D02*
G03*
X-43390Y-260000I-26610J0D01*
G01*
X-183390D02*
G03*
X-183390Y-260000I-26610J0D01*
G01*
X-323390D02*
G03*
X-323390Y-260000I-26610J0D01*
G01*
X-463390D02*
G03*
X-463390Y-260000I-26610J0D01*
G01*
X516610Y400000D02*
G03*
X516610Y400000I-26610J0D01*
G01*
X376610D02*
G03*
X376610Y400000I-26610J0D01*
G01*
X236610D02*
G03*
X236610Y400000I-26610J0D01*
G01*
X-43390D02*
G03*
X-43390Y400000I-26610J0D01*
G01*
X-183390D02*
G03*
X-183390Y400000I-26610J0D01*
G01*
X-323390D02*
G03*
X-323390Y400000I-26610J0D01*
G01*
X-463390D02*
G03*
X-463390Y400000I-26610J0D01*
G01*
X516610Y-40000D02*
G03*
X516610Y-40000I-26610J0D01*
G01*
X376610D02*
G03*
X376610Y-40000I-26610J0D01*
G01*
X236610D02*
G03*
X236610Y-40000I-26610J0D01*
G01*
X96610D02*
G03*
X96610Y-40000I-26610J0D01*
G01*
X-43390D02*
G03*
X-43390Y-40000I-26610J0D01*
G01*
X-183390D02*
G03*
X-183390Y-40000I-26610J0D01*
G01*
X-323390D02*
G03*
X-323390Y-40000I-26610J0D01*
G01*
X-463390D02*
G03*
X-463390Y-40000I-26610J0D01*
G01*
X516610Y180000D02*
G03*
X516610Y180000I-26610J0D01*
G01*
X376610D02*
G03*
X376610Y180000I-26610J0D01*
G01*
X236610D02*
G03*
X236610Y180000I-26610J0D01*
G01*
X96610D02*
G03*
X96610Y180000I-26610J0D01*
G01*
X-43390D02*
G03*
X-43390Y180000I-26610J0D01*
G01*
X-183390D02*
G03*
X-183390Y180000I-26610J0D01*
G01*
X-323390D02*
G03*
X-323390Y180000I-26610J0D01*
G01*
D30*
X-481625Y101760D02*
D03*
Y109980D02*
D03*
X-498370D02*
D03*
Y101760D02*
D03*
X-358370D02*
D03*
Y109980D02*
D03*
X-341625D02*
D03*
Y101760D02*
D03*
X-201625D02*
D03*
Y109980D02*
D03*
X-218370D02*
D03*
Y101760D02*
D03*
X-78370D02*
D03*
Y109980D02*
D03*
X-61625D02*
D03*
Y101760D02*
D03*
X78375D02*
D03*
Y109980D02*
D03*
X61630D02*
D03*
Y101760D02*
D03*
X201630D02*
D03*
Y109980D02*
D03*
X218375D02*
D03*
Y101760D02*
D03*
X358375D02*
D03*
Y109980D02*
D03*
X341630D02*
D03*
Y101760D02*
D03*
X481630D02*
D03*
Y109980D02*
D03*
X498375D02*
D03*
Y101760D02*
D03*
X-481625Y-338240D02*
D03*
Y-330020D02*
D03*
X-498370D02*
D03*
Y-338240D02*
D03*
X-358370D02*
D03*
Y-330020D02*
D03*
X-341625D02*
D03*
Y-338240D02*
D03*
X-201625D02*
D03*
Y-330020D02*
D03*
X-218370D02*
D03*
Y-338240D02*
D03*
X-78370D02*
D03*
Y-330020D02*
D03*
X-61625D02*
D03*
Y-338240D02*
D03*
X78375D02*
D03*
Y-330020D02*
D03*
X61630D02*
D03*
Y-338240D02*
D03*
X201630D02*
D03*
Y-330020D02*
D03*
X218375D02*
D03*
Y-338240D02*
D03*
X358375D02*
D03*
Y-330020D02*
D03*
X341630D02*
D03*
Y-338240D02*
D03*
X481630D02*
D03*
Y-330020D02*
D03*
X498375D02*
D03*
Y-338240D02*
D03*
D31*
X-483375Y122500D02*
D03*
X-496625D02*
D03*
X-356625D02*
D03*
X-343375D02*
D03*
X-203375D02*
D03*
X-216625D02*
D03*
X-76625D02*
D03*
X-63375D02*
D03*
X76625D02*
D03*
X63375D02*
D03*
X203375D02*
D03*
X216625D02*
D03*
X356625D02*
D03*
X343375D02*
D03*
X483375D02*
D03*
X496625D02*
D03*
X-483375Y-317500D02*
D03*
X-496625D02*
D03*
X-356625D02*
D03*
X-343375D02*
D03*
X-203375D02*
D03*
X-216625D02*
D03*
X-76625D02*
D03*
X-63375D02*
D03*
X76625D02*
D03*
X63375D02*
D03*
X203375D02*
D03*
X216625D02*
D03*
X356625D02*
D03*
X343375D02*
D03*
X483375D02*
D03*
X496625D02*
D03*
D32*
X-490000Y129125D02*
D03*
Y115875D02*
D03*
X-350000D02*
D03*
Y129125D02*
D03*
X-210000D02*
D03*
Y115875D02*
D03*
X-70000D02*
D03*
Y129125D02*
D03*
X70000D02*
D03*
Y115875D02*
D03*
X210000D02*
D03*
Y129125D02*
D03*
X350000D02*
D03*
Y115875D02*
D03*
X490000D02*
D03*
Y129125D02*
D03*
X-490000Y-310875D02*
D03*
Y-324125D02*
D03*
X-350000D02*
D03*
Y-310875D02*
D03*
X-210000D02*
D03*
Y-324125D02*
D03*
X-70000D02*
D03*
Y-310875D02*
D03*
X70000D02*
D03*
Y-324125D02*
D03*
X210000D02*
D03*
Y-310875D02*
D03*
X350000D02*
D03*
Y-324125D02*
D03*
X490000D02*
D03*
Y-310875D02*
D03*
D33*
X-434350Y351500D02*
D03*
Y278500D02*
D03*
X-453650D02*
D03*
Y351500D02*
D03*
X-313650D02*
D03*
Y278500D02*
D03*
X-294350D02*
D03*
Y351500D02*
D03*
X-154350D02*
D03*
Y278500D02*
D03*
X-173650D02*
D03*
Y351500D02*
D03*
X-33650D02*
D03*
Y278500D02*
D03*
X-14350D02*
D03*
Y351500D02*
D03*
X265650D02*
D03*
Y278500D02*
D03*
X246350D02*
D03*
Y351500D02*
D03*
X386350D02*
D03*
Y278500D02*
D03*
X405650D02*
D03*
Y351500D02*
D03*
X545650D02*
D03*
Y278500D02*
D03*
X526350D02*
D03*
Y351500D02*
D03*
X-453650Y131500D02*
D03*
Y58500D02*
D03*
X-434350D02*
D03*
Y131500D02*
D03*
X-294350D02*
D03*
Y58500D02*
D03*
X-313650D02*
D03*
Y131500D02*
D03*
X-173650D02*
D03*
Y58500D02*
D03*
X-154350D02*
D03*
Y131500D02*
D03*
X-14350D02*
D03*
Y58500D02*
D03*
X-33650D02*
D03*
Y131500D02*
D03*
X106350D02*
D03*
Y58500D02*
D03*
X125650D02*
D03*
Y131500D02*
D03*
X265650D02*
D03*
Y58500D02*
D03*
X246350D02*
D03*
Y131500D02*
D03*
X386350D02*
D03*
Y58500D02*
D03*
X405650D02*
D03*
Y131500D02*
D03*
X545650D02*
D03*
Y58500D02*
D03*
X526350D02*
D03*
Y131500D02*
D03*
X-453650Y-88500D02*
D03*
Y-161500D02*
D03*
X-434350D02*
D03*
Y-88500D02*
D03*
X-294350D02*
D03*
Y-161500D02*
D03*
X-313650D02*
D03*
Y-88500D02*
D03*
X-173650D02*
D03*
Y-161500D02*
D03*
X-154350D02*
D03*
Y-88500D02*
D03*
X-14350D02*
D03*
Y-161500D02*
D03*
X-33650D02*
D03*
Y-88500D02*
D03*
X106350D02*
D03*
Y-161500D02*
D03*
X125650D02*
D03*
Y-88500D02*
D03*
X265650D02*
D03*
Y-161500D02*
D03*
X246350D02*
D03*
Y-88500D02*
D03*
X386350D02*
D03*
Y-161500D02*
D03*
X405650D02*
D03*
Y-88500D02*
D03*
X545650D02*
D03*
Y-161500D02*
D03*
X526350D02*
D03*
Y-88500D02*
D03*
X-453650Y-308500D02*
D03*
Y-381500D02*
D03*
X-434350D02*
D03*
Y-308500D02*
D03*
X-294350D02*
D03*
Y-381500D02*
D03*
X-313650D02*
D03*
Y-308500D02*
D03*
X-173650D02*
D03*
Y-381500D02*
D03*
X-154350D02*
D03*
Y-308500D02*
D03*
X-14350D02*
D03*
Y-381500D02*
D03*
X-33650D02*
D03*
Y-308500D02*
D03*
X106350D02*
D03*
Y-381500D02*
D03*
X125650D02*
D03*
Y-308500D02*
D03*
X265650D02*
D03*
Y-381500D02*
D03*
X246350D02*
D03*
Y-308500D02*
D03*
X386350D02*
D03*
Y-381500D02*
D03*
X405650D02*
D03*
Y-308500D02*
D03*
X545650D02*
D03*
Y-381500D02*
D03*
X526350D02*
D03*
Y-308500D02*
D03*
X106350Y351500D02*
D03*
Y278500D02*
D03*
X125650D02*
D03*
Y351500D02*
D03*
D34*
X-461500Y292500D02*
D03*
Y322500D02*
D03*
Y337500D02*
D03*
X-321500D02*
D03*
Y322500D02*
D03*
Y292500D02*
D03*
X-181500D02*
D03*
Y322500D02*
D03*
Y337500D02*
D03*
X-41500D02*
D03*
Y322500D02*
D03*
Y292500D02*
D03*
X238500D02*
D03*
Y322500D02*
D03*
Y337500D02*
D03*
X378500D02*
D03*
Y322500D02*
D03*
Y292500D02*
D03*
X518500D02*
D03*
Y322500D02*
D03*
Y337500D02*
D03*
X-461500Y117500D02*
D03*
Y102500D02*
D03*
Y72500D02*
D03*
X-321500D02*
D03*
Y102500D02*
D03*
Y117500D02*
D03*
X-181500D02*
D03*
Y102500D02*
D03*
Y72500D02*
D03*
X-41500D02*
D03*
Y102500D02*
D03*
Y117500D02*
D03*
X98500D02*
D03*
Y102500D02*
D03*
Y72500D02*
D03*
X238500D02*
D03*
Y102500D02*
D03*
Y117500D02*
D03*
X378500D02*
D03*
Y102500D02*
D03*
Y72500D02*
D03*
X518500D02*
D03*
Y102500D02*
D03*
Y117500D02*
D03*
X-461500Y-102500D02*
D03*
Y-117500D02*
D03*
Y-147500D02*
D03*
X-321500D02*
D03*
Y-117500D02*
D03*
Y-102500D02*
D03*
X-181500D02*
D03*
Y-117500D02*
D03*
Y-147500D02*
D03*
X-41500D02*
D03*
Y-117500D02*
D03*
Y-102500D02*
D03*
X98500D02*
D03*
Y-117500D02*
D03*
Y-147500D02*
D03*
X238500D02*
D03*
Y-117500D02*
D03*
Y-102500D02*
D03*
X378500D02*
D03*
Y-117500D02*
D03*
Y-147500D02*
D03*
X518500D02*
D03*
Y-117500D02*
D03*
Y-102500D02*
D03*
X-461500Y-322500D02*
D03*
Y-337500D02*
D03*
Y-367500D02*
D03*
X-321500D02*
D03*
Y-337500D02*
D03*
Y-322500D02*
D03*
X-181500D02*
D03*
Y-337500D02*
D03*
Y-367500D02*
D03*
X-41500D02*
D03*
Y-337500D02*
D03*
Y-322500D02*
D03*
X98500D02*
D03*
Y-337500D02*
D03*
Y-367500D02*
D03*
X238500D02*
D03*
Y-337500D02*
D03*
Y-322500D02*
D03*
X378500D02*
D03*
Y-337500D02*
D03*
Y-367500D02*
D03*
X518500D02*
D03*
Y-337500D02*
D03*
Y-322500D02*
D03*
X98500Y337500D02*
D03*
Y322500D02*
D03*
Y292500D02*
D03*
D35*
X-539620Y332000D02*
D03*
X-524380D02*
D03*
X77620Y293000D02*
D03*
X62380D02*
D03*
X77620Y305000D02*
D03*
X62380D02*
D03*
X20380Y332000D02*
D03*
X35620D02*
D03*
X-539620Y112000D02*
D03*
X-524380D02*
D03*
X-482380Y73000D02*
D03*
X-497620D02*
D03*
X-482380Y85000D02*
D03*
X-497620D02*
D03*
X497620Y-367000D02*
D03*
X482380D02*
D03*
X497620Y-355000D02*
D03*
X482380D02*
D03*
X440380Y-328000D02*
D03*
X455620D02*
D03*
X357620Y-367000D02*
D03*
X342380D02*
D03*
X357620Y-355000D02*
D03*
X342380D02*
D03*
X300380Y-328000D02*
D03*
X315620D02*
D03*
X217620Y-367000D02*
D03*
X202380D02*
D03*
X217620Y-355000D02*
D03*
X202380D02*
D03*
X160380Y-328000D02*
D03*
X175620D02*
D03*
X77620Y-367000D02*
D03*
X62380D02*
D03*
X77620Y-355000D02*
D03*
X62380D02*
D03*
X20380Y-328000D02*
D03*
X35620D02*
D03*
X-62380Y-367000D02*
D03*
X-77620D02*
D03*
X-62380Y-355000D02*
D03*
X-77620D02*
D03*
X-119620Y-328000D02*
D03*
X-104380D02*
D03*
X-202380Y-367000D02*
D03*
X-217620D02*
D03*
X-202380Y-355000D02*
D03*
X-217620D02*
D03*
X-259620Y-328000D02*
D03*
X-244380D02*
D03*
X-342380Y-367000D02*
D03*
X-357620D02*
D03*
X-342380Y-355000D02*
D03*
X-357620D02*
D03*
X-399620Y-328000D02*
D03*
X-384380D02*
D03*
X-482380Y-367000D02*
D03*
X-497620D02*
D03*
X-482380Y-355000D02*
D03*
X-497620D02*
D03*
X-539620Y-328000D02*
D03*
X-524380D02*
D03*
X497620Y293000D02*
D03*
X482380D02*
D03*
X497620Y305000D02*
D03*
X482380D02*
D03*
X440380Y332000D02*
D03*
X455620D02*
D03*
X357620Y293000D02*
D03*
X342380D02*
D03*
X357620Y305000D02*
D03*
X342380D02*
D03*
X300380Y332000D02*
D03*
X315620D02*
D03*
X217620Y293000D02*
D03*
X202380D02*
D03*
X217620Y305000D02*
D03*
X202380D02*
D03*
X160380Y332000D02*
D03*
X175620D02*
D03*
X-62380Y293000D02*
D03*
X-77620D02*
D03*
X-62380Y305000D02*
D03*
X-77620D02*
D03*
X-119620Y332000D02*
D03*
X-104380D02*
D03*
X-202380Y293000D02*
D03*
X-217620D02*
D03*
X-202380Y305000D02*
D03*
X-217620D02*
D03*
X-259620Y332000D02*
D03*
X-244380D02*
D03*
X-342380Y293000D02*
D03*
X-357620D02*
D03*
X-342380Y305000D02*
D03*
X-357620D02*
D03*
X-399620Y332000D02*
D03*
X-384380D02*
D03*
X-482380Y293000D02*
D03*
X-497620D02*
D03*
X-482380Y305000D02*
D03*
X-497620D02*
D03*
X497620Y-147000D02*
D03*
X482380D02*
D03*
X497620Y-135000D02*
D03*
X482380D02*
D03*
X440380Y-108000D02*
D03*
X455620D02*
D03*
X357620Y-147000D02*
D03*
X342380D02*
D03*
X357620Y-135000D02*
D03*
X342380D02*
D03*
X300380Y-108000D02*
D03*
X315620D02*
D03*
X217620Y-147000D02*
D03*
X202380D02*
D03*
X217620Y-135000D02*
D03*
X202380D02*
D03*
X160380Y-108000D02*
D03*
X175620D02*
D03*
X77620Y-147000D02*
D03*
X62380D02*
D03*
X77620Y-135000D02*
D03*
X62380D02*
D03*
X20380Y-108000D02*
D03*
X35620D02*
D03*
X-62380Y-147000D02*
D03*
X-77620D02*
D03*
X-62380Y-135000D02*
D03*
X-77620D02*
D03*
X-119620Y-108000D02*
D03*
X-104380D02*
D03*
X-202380Y-147000D02*
D03*
X-217620D02*
D03*
X-202380Y-135000D02*
D03*
X-217620D02*
D03*
X-259620Y-108000D02*
D03*
X-244380D02*
D03*
X-342380Y-147000D02*
D03*
X-357620D02*
D03*
X-342380Y-135000D02*
D03*
X-357620D02*
D03*
X-399620Y-108000D02*
D03*
X-384380D02*
D03*
X-482380Y-147000D02*
D03*
X-497620D02*
D03*
X-482380Y-135000D02*
D03*
X-497620D02*
D03*
X-539620Y-108000D02*
D03*
X-524380D02*
D03*
X497620Y73000D02*
D03*
X482380D02*
D03*
X497620Y85000D02*
D03*
X482380D02*
D03*
X440380Y112000D02*
D03*
X455620D02*
D03*
X357620Y73000D02*
D03*
X342380D02*
D03*
X357620Y85000D02*
D03*
X342380D02*
D03*
X300380Y112000D02*
D03*
X315620D02*
D03*
X217620Y73000D02*
D03*
X202380D02*
D03*
X217620Y85000D02*
D03*
X202380D02*
D03*
X160380Y112000D02*
D03*
X175620D02*
D03*
X77620Y73000D02*
D03*
X62380D02*
D03*
X77620Y85000D02*
D03*
X62380D02*
D03*
X20380Y112000D02*
D03*
X35620D02*
D03*
X-62380Y73000D02*
D03*
X-77620D02*
D03*
X-62380Y85000D02*
D03*
X-77620D02*
D03*
X-119620Y112000D02*
D03*
X-104380D02*
D03*
X-202380Y73000D02*
D03*
X-217620D02*
D03*
X-202380Y85000D02*
D03*
X-217620D02*
D03*
X-259620Y112000D02*
D03*
X-244380D02*
D03*
X-342380Y73000D02*
D03*
X-357620D02*
D03*
X-342380Y85000D02*
D03*
X-357620D02*
D03*
X-399620Y112000D02*
D03*
X-384380D02*
D03*
D36*
X-530700Y303500D02*
D03*
Y317500D02*
D03*
X-539300Y303500D02*
D03*
Y317500D02*
D03*
X29300Y303500D02*
D03*
Y317500D02*
D03*
X20700Y303500D02*
D03*
Y317500D02*
D03*
X-530700Y83500D02*
D03*
Y97500D02*
D03*
X-539300Y83500D02*
D03*
Y97500D02*
D03*
X449300Y-356500D02*
D03*
Y-342500D02*
D03*
X440700Y-356500D02*
D03*
Y-342500D02*
D03*
X309300Y-356500D02*
D03*
Y-342500D02*
D03*
X300700Y-356500D02*
D03*
Y-342500D02*
D03*
X169300Y-356500D02*
D03*
Y-342500D02*
D03*
X160700Y-356500D02*
D03*
Y-342500D02*
D03*
X29300Y-356500D02*
D03*
Y-342500D02*
D03*
X20700Y-356500D02*
D03*
Y-342500D02*
D03*
X-110700Y-356500D02*
D03*
Y-342500D02*
D03*
X-119300Y-356500D02*
D03*
Y-342500D02*
D03*
X-250700Y-356500D02*
D03*
Y-342500D02*
D03*
X-259300Y-356500D02*
D03*
Y-342500D02*
D03*
X-390700Y-356500D02*
D03*
Y-342500D02*
D03*
X-399300Y-356500D02*
D03*
Y-342500D02*
D03*
X-530700Y-356500D02*
D03*
Y-342500D02*
D03*
X-539300Y-356500D02*
D03*
Y-342500D02*
D03*
X449300Y303500D02*
D03*
Y317500D02*
D03*
X440700Y303500D02*
D03*
Y317500D02*
D03*
X309300Y303500D02*
D03*
Y317500D02*
D03*
X300700Y303500D02*
D03*
Y317500D02*
D03*
X169300Y303500D02*
D03*
Y317500D02*
D03*
X160700Y303500D02*
D03*
Y317500D02*
D03*
X-110700Y303500D02*
D03*
Y317500D02*
D03*
X-119300Y303500D02*
D03*
Y317500D02*
D03*
X-250700Y303500D02*
D03*
Y317500D02*
D03*
X-259300Y303500D02*
D03*
Y317500D02*
D03*
X-390700Y303500D02*
D03*
Y317500D02*
D03*
X-399300Y303500D02*
D03*
Y317500D02*
D03*
X449300Y-136500D02*
D03*
Y-122500D02*
D03*
X440700Y-136500D02*
D03*
Y-122500D02*
D03*
X309300Y-136500D02*
D03*
Y-122500D02*
D03*
X300700Y-136500D02*
D03*
Y-122500D02*
D03*
X169300Y-136500D02*
D03*
Y-122500D02*
D03*
X160700Y-136500D02*
D03*
Y-122500D02*
D03*
X29300Y-136500D02*
D03*
Y-122500D02*
D03*
X20700Y-136500D02*
D03*
Y-122500D02*
D03*
X-110700Y-136500D02*
D03*
Y-122500D02*
D03*
X-119300Y-136500D02*
D03*
Y-122500D02*
D03*
X-250700Y-136500D02*
D03*
Y-122500D02*
D03*
X-259300Y-136500D02*
D03*
Y-122500D02*
D03*
X-390700Y-136500D02*
D03*
Y-122500D02*
D03*
X-399300Y-136500D02*
D03*
Y-122500D02*
D03*
X-530700Y-136500D02*
D03*
Y-122500D02*
D03*
X-539300Y-136500D02*
D03*
Y-122500D02*
D03*
X449300Y83500D02*
D03*
Y97500D02*
D03*
X440700Y83500D02*
D03*
Y97500D02*
D03*
X309300Y83500D02*
D03*
Y97500D02*
D03*
X300700Y83500D02*
D03*
Y97500D02*
D03*
X169300Y83500D02*
D03*
Y97500D02*
D03*
X160700Y83500D02*
D03*
Y97500D02*
D03*
X29300Y83500D02*
D03*
Y97500D02*
D03*
X20700Y83500D02*
D03*
Y97500D02*
D03*
X-110700Y83500D02*
D03*
Y97500D02*
D03*
X-119300Y83500D02*
D03*
Y97500D02*
D03*
X-250700Y83500D02*
D03*
Y97500D02*
D03*
X-259300Y83500D02*
D03*
Y97500D02*
D03*
X-390700Y83500D02*
D03*
Y97500D02*
D03*
X-399300Y83500D02*
D03*
Y97500D02*
D03*
D37*
X70000Y317750D02*
D03*
Y352250D02*
D03*
X490000Y317750D02*
D03*
Y352250D02*
D03*
X350000Y317750D02*
D03*
Y352250D02*
D03*
X210000Y317750D02*
D03*
Y352250D02*
D03*
X-70000Y317750D02*
D03*
Y352250D02*
D03*
X-210000Y317750D02*
D03*
Y352250D02*
D03*
X-350000Y317750D02*
D03*
Y352250D02*
D03*
X-490000Y317750D02*
D03*
Y352250D02*
D03*
X490000Y-122250D02*
D03*
Y-87750D02*
D03*
X350000Y-122250D02*
D03*
Y-87750D02*
D03*
X210000Y-122250D02*
D03*
Y-87750D02*
D03*
X70000Y-122250D02*
D03*
Y-87750D02*
D03*
X-70000Y-122250D02*
D03*
Y-87750D02*
D03*
X-210000Y-122250D02*
D03*
Y-87750D02*
D03*
X-350000Y-122250D02*
D03*
Y-87750D02*
D03*
X-490000Y-122250D02*
D03*
Y-87750D02*
D03*
D38*
X74250Y341750D02*
D03*
Y328250D02*
D03*
X65750Y341750D02*
D03*
Y328250D02*
D03*
X494250Y341750D02*
D03*
Y328250D02*
D03*
X485750Y341750D02*
D03*
Y328250D02*
D03*
X354250Y341750D02*
D03*
Y328250D02*
D03*
X345750Y341750D02*
D03*
Y328250D02*
D03*
X214250Y341750D02*
D03*
Y328250D02*
D03*
X205750Y341750D02*
D03*
Y328250D02*
D03*
X-65750Y341750D02*
D03*
Y328250D02*
D03*
X-74250Y341750D02*
D03*
Y328250D02*
D03*
X-205750Y341750D02*
D03*
Y328250D02*
D03*
X-214250Y341750D02*
D03*
Y328250D02*
D03*
X-345750Y341750D02*
D03*
Y328250D02*
D03*
X-354250Y341750D02*
D03*
Y328250D02*
D03*
X-485750Y341750D02*
D03*
Y328250D02*
D03*
X-494250Y341750D02*
D03*
Y328250D02*
D03*
X494250Y-98250D02*
D03*
Y-111750D02*
D03*
X485750Y-98250D02*
D03*
Y-111750D02*
D03*
X354250Y-98250D02*
D03*
Y-111750D02*
D03*
X345750Y-98250D02*
D03*
Y-111750D02*
D03*
X214250Y-98250D02*
D03*
Y-111750D02*
D03*
X205750Y-98250D02*
D03*
Y-111750D02*
D03*
X74250Y-98250D02*
D03*
Y-111750D02*
D03*
X65750Y-98250D02*
D03*
Y-111750D02*
D03*
X-65750Y-98250D02*
D03*
Y-111750D02*
D03*
X-74250Y-98250D02*
D03*
Y-111750D02*
D03*
X-205750Y-98250D02*
D03*
Y-111750D02*
D03*
X-214250Y-98250D02*
D03*
Y-111750D02*
D03*
X-345750Y-98250D02*
D03*
Y-111750D02*
D03*
X-354250Y-98250D02*
D03*
Y-111750D02*
D03*
X-485750Y-98250D02*
D03*
Y-111750D02*
D03*
X-494250Y-98250D02*
D03*
Y-111750D02*
D03*
D39*
X82250Y335000D02*
D03*
X57750D02*
D03*
X502250D02*
D03*
X477750D02*
D03*
X362250D02*
D03*
X337750D02*
D03*
X222250D02*
D03*
X197750D02*
D03*
X-57750D02*
D03*
X-82250D02*
D03*
X-197750D02*
D03*
X-222250D02*
D03*
X-337750D02*
D03*
X-362250D02*
D03*
X-477750D02*
D03*
X-502250D02*
D03*
X502250Y-105000D02*
D03*
X477750D02*
D03*
X362250D02*
D03*
X337750D02*
D03*
X222250D02*
D03*
X197750D02*
D03*
X82250D02*
D03*
X57750D02*
D03*
X-57750D02*
D03*
X-82250D02*
D03*
X-197750D02*
D03*
X-222250D02*
D03*
X-337750D02*
D03*
X-362250D02*
D03*
X-477750D02*
D03*
X-502250D02*
D03*
D40*
X98000Y234000D02*
D03*
X42000D02*
D03*
X-462000Y14000D02*
D03*
X-518000D02*
D03*
X518000Y-426000D02*
D03*
X462000D02*
D03*
X378000D02*
D03*
X322000D02*
D03*
X238000D02*
D03*
X182000D02*
D03*
X98000D02*
D03*
X42000D02*
D03*
X-42000D02*
D03*
X-98000D02*
D03*
X-182000D02*
D03*
X-238000D02*
D03*
X-322000D02*
D03*
X-378000D02*
D03*
X-462000D02*
D03*
X-518000D02*
D03*
X518000Y234000D02*
D03*
X462000D02*
D03*
X378000D02*
D03*
X322000D02*
D03*
X238000D02*
D03*
X182000D02*
D03*
X-42000D02*
D03*
X-98000D02*
D03*
X-182000D02*
D03*
X-238000D02*
D03*
X-322000D02*
D03*
X-378000D02*
D03*
X-462000D02*
D03*
X-518000D02*
D03*
X518000Y-206000D02*
D03*
X462000D02*
D03*
X378000D02*
D03*
X322000D02*
D03*
X238000D02*
D03*
X182000D02*
D03*
X98000D02*
D03*
X42000D02*
D03*
X-42000D02*
D03*
X-98000D02*
D03*
X-182000D02*
D03*
X-238000D02*
D03*
X-322000D02*
D03*
X-378000D02*
D03*
X-462000D02*
D03*
X-518000D02*
D03*
X518000Y14000D02*
D03*
X462000D02*
D03*
X378000D02*
D03*
X322000D02*
D03*
X238000D02*
D03*
X182000D02*
D03*
X98000D02*
D03*
X42000D02*
D03*
X-42000D02*
D03*
X-98000D02*
D03*
X-182000D02*
D03*
X-238000D02*
D03*
X-322000D02*
D03*
X-378000D02*
D03*
D41*
X85000Y275000D02*
D03*
X75000D02*
D03*
X55000D02*
D03*
X65000D02*
D03*
X-475000Y55000D02*
D03*
X-485000D02*
D03*
X-505000D02*
D03*
X-495000D02*
D03*
X505000Y-385000D02*
D03*
X495000D02*
D03*
X475000D02*
D03*
X485000D02*
D03*
X365000D02*
D03*
X355000D02*
D03*
X335000D02*
D03*
X345000D02*
D03*
X225000D02*
D03*
X215000D02*
D03*
X195000D02*
D03*
X205000D02*
D03*
X85000D02*
D03*
X75000D02*
D03*
X55000D02*
D03*
X65000D02*
D03*
X-55000D02*
D03*
X-65000D02*
D03*
X-85000D02*
D03*
X-75000D02*
D03*
X-195000D02*
D03*
X-205000D02*
D03*
X-225000D02*
D03*
X-215000D02*
D03*
X-335000D02*
D03*
X-345000D02*
D03*
X-365000D02*
D03*
X-355000D02*
D03*
X-475000D02*
D03*
X-485000D02*
D03*
X-505000D02*
D03*
X-495000D02*
D03*
X505000Y275000D02*
D03*
X495000D02*
D03*
X475000D02*
D03*
X485000D02*
D03*
X365000D02*
D03*
X355000D02*
D03*
X335000D02*
D03*
X345000D02*
D03*
X225000D02*
D03*
X215000D02*
D03*
X195000D02*
D03*
X205000D02*
D03*
X-55000D02*
D03*
X-65000D02*
D03*
X-85000D02*
D03*
X-75000D02*
D03*
X-195000D02*
D03*
X-205000D02*
D03*
X-225000D02*
D03*
X-215000D02*
D03*
X-335000D02*
D03*
X-345000D02*
D03*
X-365000D02*
D03*
X-355000D02*
D03*
X-475000D02*
D03*
X-485000D02*
D03*
X-505000D02*
D03*
X-495000D02*
D03*
X505000Y-165000D02*
D03*
X495000D02*
D03*
X475000D02*
D03*
X485000D02*
D03*
X365000D02*
D03*
X355000D02*
D03*
X335000D02*
D03*
X345000D02*
D03*
X225000D02*
D03*
X215000D02*
D03*
X195000D02*
D03*
X205000D02*
D03*
X85000D02*
D03*
X75000D02*
D03*
X55000D02*
D03*
X65000D02*
D03*
X-55000D02*
D03*
X-65000D02*
D03*
X-85000D02*
D03*
X-75000D02*
D03*
X-195000D02*
D03*
X-205000D02*
D03*
X-225000D02*
D03*
X-215000D02*
D03*
X-335000D02*
D03*
X-345000D02*
D03*
X-365000D02*
D03*
X-355000D02*
D03*
X-475000D02*
D03*
X-485000D02*
D03*
X-505000D02*
D03*
X-495000D02*
D03*
X505000Y55000D02*
D03*
X495000D02*
D03*
X475000D02*
D03*
X485000D02*
D03*
X365000D02*
D03*
X355000D02*
D03*
X335000D02*
D03*
X345000D02*
D03*
X225000D02*
D03*
X215000D02*
D03*
X195000D02*
D03*
X205000D02*
D03*
X85000D02*
D03*
X75000D02*
D03*
X55000D02*
D03*
X65000D02*
D03*
X-55000D02*
D03*
X-65000D02*
D03*
X-85000D02*
D03*
X-75000D02*
D03*
X-195000D02*
D03*
X-205000D02*
D03*
X-225000D02*
D03*
X-215000D02*
D03*
X-335000D02*
D03*
X-345000D02*
D03*
X-365000D02*
D03*
X-355000D02*
D03*
D42*
X25000Y254760D02*
D03*
Y285240D02*
D03*
X-535000Y34760D02*
D03*
Y65240D02*
D03*
X445000Y-405240D02*
D03*
Y-374760D02*
D03*
X305000Y-405240D02*
D03*
Y-374760D02*
D03*
X165000Y-405240D02*
D03*
Y-374760D02*
D03*
X25000Y-405240D02*
D03*
Y-374760D02*
D03*
X-115000Y-405240D02*
D03*
Y-374760D02*
D03*
X-255000Y-405240D02*
D03*
Y-374760D02*
D03*
X-395000Y-405240D02*
D03*
Y-374760D02*
D03*
X-535000Y-405240D02*
D03*
Y-374760D02*
D03*
X445000Y254760D02*
D03*
Y285240D02*
D03*
X305000Y254760D02*
D03*
Y285240D02*
D03*
X165000Y254760D02*
D03*
Y285240D02*
D03*
X-115000Y254760D02*
D03*
Y285240D02*
D03*
X-255000Y254760D02*
D03*
Y285240D02*
D03*
X-395000Y254760D02*
D03*
Y285240D02*
D03*
X-535000Y254760D02*
D03*
Y285240D02*
D03*
X445000Y-185240D02*
D03*
Y-154760D02*
D03*
X305000Y-185240D02*
D03*
Y-154760D02*
D03*
X165000Y-185240D02*
D03*
Y-154760D02*
D03*
X25000Y-185240D02*
D03*
Y-154760D02*
D03*
X-115000Y-185240D02*
D03*
Y-154760D02*
D03*
X-255000Y-185240D02*
D03*
Y-154760D02*
D03*
X-395000Y-185240D02*
D03*
Y-154760D02*
D03*
X-535000Y-185240D02*
D03*
Y-154760D02*
D03*
X445000Y34760D02*
D03*
Y65240D02*
D03*
X305000Y34760D02*
D03*
Y65240D02*
D03*
X165000Y34760D02*
D03*
Y65240D02*
D03*
X25000Y34760D02*
D03*
Y65240D02*
D03*
X-115000Y34760D02*
D03*
Y65240D02*
D03*
X-255000Y34760D02*
D03*
Y65240D02*
D03*
X-395000Y34760D02*
D03*
Y65240D02*
D03*
D43*
X43000Y303380D02*
D03*
Y318620D02*
D03*
X-517000Y83380D02*
D03*
Y98620D02*
D03*
X463000Y-356620D02*
D03*
Y-341380D02*
D03*
X323000Y-356620D02*
D03*
Y-341380D02*
D03*
X183000Y-356620D02*
D03*
Y-341380D02*
D03*
X43000Y-356620D02*
D03*
Y-341380D02*
D03*
X-97000Y-356620D02*
D03*
Y-341380D02*
D03*
X-237000Y-356620D02*
D03*
Y-341380D02*
D03*
X-377000Y-356620D02*
D03*
Y-341380D02*
D03*
X-517000Y-356620D02*
D03*
Y-341380D02*
D03*
X463000Y303380D02*
D03*
Y318620D02*
D03*
X323000Y303380D02*
D03*
Y318620D02*
D03*
X183000Y303380D02*
D03*
Y318620D02*
D03*
X-97000Y303380D02*
D03*
Y318620D02*
D03*
X-237000Y303380D02*
D03*
Y318620D02*
D03*
X-377000Y303380D02*
D03*
Y318620D02*
D03*
X-517000Y303380D02*
D03*
Y318620D02*
D03*
X463000Y-136620D02*
D03*
Y-121380D02*
D03*
X323000Y-136620D02*
D03*
Y-121380D02*
D03*
X183000Y-136620D02*
D03*
Y-121380D02*
D03*
X43000Y-136620D02*
D03*
Y-121380D02*
D03*
X-97000Y-136620D02*
D03*
Y-121380D02*
D03*
X-237000Y-136620D02*
D03*
Y-121380D02*
D03*
X-377000Y-136620D02*
D03*
Y-121380D02*
D03*
X-517000Y-136620D02*
D03*
Y-121380D02*
D03*
X463000Y83380D02*
D03*
Y98620D02*
D03*
X323000Y83380D02*
D03*
Y98620D02*
D03*
X183000Y83380D02*
D03*
Y98620D02*
D03*
X43000Y83380D02*
D03*
Y98620D02*
D03*
X-97000Y83380D02*
D03*
Y98620D02*
D03*
X-237000Y83380D02*
D03*
Y98620D02*
D03*
X-377000Y83380D02*
D03*
Y98620D02*
D03*
D44*
X-490000Y122500D02*
D03*
X-350000D02*
D03*
X-210000D02*
D03*
X-70000D02*
D03*
X70000D02*
D03*
X210000D02*
D03*
X350000D02*
D03*
X490000D02*
D03*
X-490000Y-317500D02*
D03*
X-350000D02*
D03*
X-210000D02*
D03*
X-70000D02*
D03*
X70000D02*
D03*
X210000D02*
D03*
X350000D02*
D03*
X490000D02*
D03*
D45*
X-444000Y330000D02*
D03*
Y300000D02*
D03*
X-304000D02*
D03*
Y330000D02*
D03*
X-164000D02*
D03*
Y300000D02*
D03*
X-24000D02*
D03*
Y330000D02*
D03*
X256000D02*
D03*
Y300000D02*
D03*
X396000D02*
D03*
Y330000D02*
D03*
X536000D02*
D03*
Y300000D02*
D03*
X-444000Y80000D02*
D03*
Y110000D02*
D03*
X-304000D02*
D03*
Y80000D02*
D03*
X-164000D02*
D03*
Y110000D02*
D03*
X-24000D02*
D03*
Y80000D02*
D03*
X116000D02*
D03*
Y110000D02*
D03*
X256000D02*
D03*
Y80000D02*
D03*
X396000D02*
D03*
Y110000D02*
D03*
X536000D02*
D03*
Y80000D02*
D03*
X-444000Y-140000D02*
D03*
Y-110000D02*
D03*
X-304000D02*
D03*
Y-140000D02*
D03*
X-164000D02*
D03*
Y-110000D02*
D03*
X-24000D02*
D03*
Y-140000D02*
D03*
X116000D02*
D03*
Y-110000D02*
D03*
X256000D02*
D03*
Y-140000D02*
D03*
X396000D02*
D03*
Y-110000D02*
D03*
X536000D02*
D03*
Y-140000D02*
D03*
X-444000Y-360000D02*
D03*
Y-330000D02*
D03*
X-304000D02*
D03*
Y-360000D02*
D03*
X-164000D02*
D03*
Y-330000D02*
D03*
X-24000D02*
D03*
Y-360000D02*
D03*
X116000D02*
D03*
Y-330000D02*
D03*
X256000D02*
D03*
Y-360000D02*
D03*
X396000D02*
D03*
Y-330000D02*
D03*
X536000D02*
D03*
Y-360000D02*
D03*
X116000Y300000D02*
D03*
Y330000D02*
D03*
X70000Y400000D02*
D03*
X-490000Y180000D02*
D03*
X490000Y-260000D02*
D03*
X350000D02*
D03*
X210000D02*
D03*
X70000D02*
D03*
X-70000D02*
D03*
X-210000D02*
D03*
X-350000D02*
D03*
X-490000D02*
D03*
X490000Y400000D02*
D03*
X350000D02*
D03*
X210000D02*
D03*
X-70000D02*
D03*
X-210000D02*
D03*
X-350000D02*
D03*
X-490000D02*
D03*
X490000Y-40000D02*
D03*
X350000D02*
D03*
X210000D02*
D03*
X70000D02*
D03*
X-70000D02*
D03*
X-210000D02*
D03*
X-350000D02*
D03*
X-490000D02*
D03*
X490000Y180000D02*
D03*
X350000D02*
D03*
X210000D02*
D03*
X70000D02*
D03*
X-70000D02*
D03*
X-210000D02*
D03*
X-350000D02*
D03*
M02*
