G04*
G04 #@! TF.GenerationSoftware,Altium Limited,Altium Designer,22.2.1 (43)*
G04*
G04 Layer_Color=8421504*
%FSLAX44Y44*%
%MOMM*%
G71*
G04*
G04 #@! TF.SameCoordinates,B7F19F8C-4A71-44AC-9732-6E8CD1541173*
G04*
G04*
G04 #@! TF.FilePolarity,Positive*
G04*
G01*
G75*
%ADD11C,0.2540*%
%ADD15R,0.7250X0.5220*%
%ADD16O,0.3000X0.1000*%
%ADD17O,0.1000X0.3000*%
%ADD18R,0.8000X1.0000*%
%ADD19R,1.5000X0.7000*%
%ADD20R,0.6350X0.8890*%
%ADD21R,0.7000X0.7500*%
%ADD22R,1.3000X0.3500*%
%ADD23R,0.4000X0.9500*%
%ADD24R,0.3500X2.3000*%
%ADD25R,1.2000X2.0000*%
%ADD26R,0.7000X1.8000*%
%ADD27R,1.7780X1.1430*%
%ADD28R,0.8890X0.6350*%
G36*
X-337086Y-11708D02*
D01*
X-337086Y-11708D01*
X-337086Y-11708D01*
D02*
G37*
G36*
X-477086D02*
D01*
X-477086Y-11708D01*
X-477086Y-11708D01*
D02*
G37*
G36*
X-347215Y-8900D02*
X-341735Y-9889D01*
X-339126Y-10863D01*
X-339126Y-10863D01*
X-342957Y-20110D01*
X-344673Y-19584D01*
X-348207Y-18976D01*
X-351793Y-18976D01*
X-355328Y-19584D01*
X-357043Y-20110D01*
X-357043Y-20110D01*
X-360874Y-10863D01*
X-358265Y-9889D01*
X-352785Y-8900D01*
X-347215Y-8900D01*
D02*
G37*
G36*
X-487215D02*
X-481735Y-9889D01*
X-479126Y-10863D01*
X-479126Y-10863D01*
X-482957Y-20110D01*
X-484673Y-19584D01*
X-488207Y-18976D01*
X-491793Y-18976D01*
X-495328Y-19584D01*
X-497043Y-20110D01*
X-497043Y-20110D01*
X-500874Y-10863D01*
X-498265Y-9889D01*
X-492785Y-8900D01*
X-487215Y-8900D01*
D02*
G37*
G36*
X-378292Y-27086D02*
D01*
X-378292Y-27086D01*
X-378292Y-27086D01*
D02*
G37*
G36*
X-518292D02*
D01*
X-518292Y-27086D01*
X-518292Y-27086D01*
D02*
G37*
G36*
X-359084Y-20956D02*
Y-20956D01*
X-360669Y-21796D01*
X-363598Y-23866D01*
X-366134Y-26402D01*
X-368204Y-29331D01*
X-369044Y-30916D01*
X-378292Y-27086D01*
X-377136Y-24553D01*
X-373960Y-19978D01*
X-370022Y-16040D01*
X-365447Y-12864D01*
X-362914Y-11708D01*
X-359084Y-20956D01*
D02*
G37*
G36*
X-499084D02*
Y-20956D01*
X-500669Y-21796D01*
X-503598Y-23866D01*
X-506134Y-26402D01*
X-508204Y-29331D01*
X-509044Y-30916D01*
X-518292Y-27086D01*
X-517136Y-24553D01*
X-513960Y-19978D01*
X-510022Y-16040D01*
X-505447Y-12864D01*
X-502914Y-11708D01*
X-499084Y-20956D01*
D02*
G37*
G36*
X-334553Y-12864D02*
X-329978Y-16040D01*
X-326040Y-19978D01*
X-322864Y-24553D01*
X-321708Y-27086D01*
X-330956Y-30916D01*
X-330956Y-30916D01*
X-331796Y-29331D01*
X-333866Y-26402D01*
X-336402Y-23866D01*
X-339331Y-21796D01*
X-340916Y-20956D01*
X-337086Y-11708D01*
X-334553Y-12864D01*
D02*
G37*
G36*
X-474553D02*
X-469978Y-16040D01*
X-466040Y-19978D01*
X-462864Y-24553D01*
X-461708Y-27086D01*
X-470956Y-30916D01*
X-470956Y-30916D01*
X-471796Y-29331D01*
X-473866Y-26402D01*
X-476402Y-23866D01*
X-479331Y-21796D01*
X-480916Y-20956D01*
X-477086Y-11708D01*
X-474553Y-12864D01*
D02*
G37*
G36*
X-319889Y-31735D02*
X-318900Y-37215D01*
X-318900Y-42785D01*
X-319889Y-48265D01*
X-320863Y-50874D01*
X-320863D01*
X-320863D01*
D01*
X-330110Y-47043D01*
X-329584Y-45328D01*
X-328976Y-41793D01*
X-328976Y-38207D01*
X-329584Y-34673D01*
X-330110Y-32957D01*
X-330110Y-32957D01*
X-320863Y-29126D01*
X-319889Y-31735D01*
D02*
G37*
G36*
X-369890Y-32957D02*
X-370416Y-34672D01*
X-371024Y-38207D01*
X-371024Y-41793D01*
X-370416Y-45328D01*
X-369890Y-47043D01*
Y-47043D01*
X-379137Y-50874D01*
X-380111Y-48265D01*
X-381100Y-42785D01*
X-381100Y-37215D01*
X-380111Y-31735D01*
X-379137Y-29126D01*
Y-29126D01*
X-369890Y-32957D01*
D02*
G37*
G36*
X-459889Y-31735D02*
X-458900Y-37215D01*
X-458900Y-42785D01*
X-459889Y-48265D01*
X-460863Y-50874D01*
X-460863D01*
X-460863D01*
D01*
X-470110Y-47043D01*
X-469584Y-45328D01*
X-468976Y-41793D01*
X-468976Y-38207D01*
X-469584Y-34673D01*
X-470110Y-32957D01*
X-470110Y-32957D01*
X-460863Y-29126D01*
X-459889Y-31735D01*
D02*
G37*
G36*
X-509890Y-32957D02*
X-510416Y-34672D01*
X-511024Y-38207D01*
X-511024Y-41793D01*
X-510416Y-45328D01*
X-509890Y-47043D01*
Y-47043D01*
X-519137Y-50874D01*
X-520111Y-48265D01*
X-521100Y-42785D01*
X-521100Y-37215D01*
X-520111Y-31735D01*
X-519137Y-29126D01*
Y-29126D01*
X-509890Y-32957D01*
D02*
G37*
G36*
X-339126Y-69137D02*
X-341735Y-70111D01*
X-347215Y-71100D01*
X-352785Y-71100D01*
X-358265Y-70111D01*
X-360874Y-69137D01*
X-357043Y-59890D01*
X-355328Y-60416D01*
X-351793Y-61024D01*
X-348207Y-61024D01*
X-344673Y-60416D01*
X-342957Y-59890D01*
X-342957D01*
X-339126Y-69137D01*
D02*
G37*
G36*
X-479126D02*
X-481735Y-70111D01*
X-487215Y-71100D01*
X-492785Y-71100D01*
X-498265Y-70111D01*
X-500874Y-69137D01*
X-497043Y-59890D01*
X-495328Y-60416D01*
X-491793Y-61024D01*
X-488207Y-61024D01*
X-484673Y-60416D01*
X-482957Y-59890D01*
X-482957D01*
X-479126Y-69137D01*
D02*
G37*
G36*
X-368204Y-50669D02*
X-366134Y-53598D01*
X-363598Y-56134D01*
X-360669Y-58204D01*
X-359084Y-59044D01*
X-362914Y-68292D01*
Y-68292D01*
X-365447Y-67136D01*
X-370022Y-63960D01*
X-373960Y-60022D01*
X-377136Y-55447D01*
X-378292Y-52914D01*
X-369044Y-49084D01*
X-369044D01*
X-368204Y-50669D01*
D02*
G37*
G36*
X-508204D02*
X-506134Y-53598D01*
X-503598Y-56134D01*
X-500669Y-58204D01*
X-499084Y-59044D01*
X-502914Y-68292D01*
Y-68292D01*
X-505447Y-67136D01*
X-510022Y-63960D01*
X-513960Y-60022D01*
X-517136Y-55447D01*
X-518292Y-52914D01*
X-509044Y-49084D01*
X-509044D01*
X-508204Y-50669D01*
D02*
G37*
G36*
X-321708Y-52914D02*
X-321708D01*
X-322864Y-55447D01*
X-326040Y-60022D01*
X-329978Y-63960D01*
X-334553Y-67136D01*
X-337086Y-68292D01*
X-340916Y-59044D01*
X-340916Y-59044D01*
X-339331Y-58204D01*
X-336402Y-56134D01*
X-333866Y-53598D01*
X-331796Y-50669D01*
X-330956Y-49084D01*
X-321708Y-52914D01*
D02*
G37*
G36*
X-461708D02*
X-461708D01*
X-462864Y-55447D01*
X-466040Y-60022D01*
X-469978Y-63960D01*
X-474553Y-67136D01*
X-477086Y-68292D01*
X-480916Y-59044D01*
X-480916Y-59044D01*
X-479331Y-58204D01*
X-476402Y-56134D01*
X-473866Y-53598D01*
X-471796Y-50669D01*
X-470956Y-49084D01*
X-461708Y-52914D01*
D02*
G37*
G36*
X-337086Y-231708D02*
D01*
X-337086Y-231708D01*
X-337086Y-231708D01*
D02*
G37*
G36*
X-477086D02*
D01*
X-477086Y-231708D01*
X-477086Y-231708D01*
D02*
G37*
G36*
X-347215Y-228900D02*
X-341735Y-229889D01*
X-339126Y-230863D01*
X-339126Y-230863D01*
X-342957Y-240110D01*
X-344673Y-239584D01*
X-348207Y-238976D01*
X-351793Y-238976D01*
X-355328Y-239584D01*
X-357043Y-240110D01*
X-357043Y-240110D01*
X-360874Y-230863D01*
X-358265Y-229889D01*
X-352785Y-228900D01*
X-347215Y-228900D01*
D02*
G37*
G36*
X-487215D02*
X-481735Y-229889D01*
X-479126Y-230863D01*
X-479126Y-230863D01*
X-482957Y-240110D01*
X-484673Y-239584D01*
X-488207Y-238976D01*
X-491793Y-238976D01*
X-495328Y-239584D01*
X-497043Y-240110D01*
X-497043Y-240110D01*
X-500874Y-230863D01*
X-498265Y-229889D01*
X-492785Y-228900D01*
X-487215Y-228900D01*
D02*
G37*
G36*
X-499084Y-240956D02*
Y-240956D01*
X-500669Y-241796D01*
X-503598Y-243866D01*
X-506134Y-246402D01*
X-508204Y-249331D01*
X-509044Y-250916D01*
X-518292Y-247086D01*
D01*
X-518292Y-247086D01*
X-518292Y-247086D01*
X-517136Y-244553D01*
X-513960Y-239978D01*
X-510022Y-236040D01*
X-505447Y-232864D01*
X-502914Y-231708D01*
X-499084Y-240956D01*
D02*
G37*
G36*
X-378292Y-247086D02*
D01*
X-378292Y-247086D01*
X-378292Y-247086D01*
D02*
G37*
G36*
X-359084Y-240956D02*
Y-240956D01*
X-360669Y-241796D01*
X-363598Y-243866D01*
X-366134Y-246402D01*
X-368204Y-249331D01*
X-369044Y-250916D01*
X-378292Y-247086D01*
X-377136Y-244553D01*
X-373960Y-239978D01*
X-370022Y-236040D01*
X-365447Y-232864D01*
X-362914Y-231708D01*
X-359084Y-240956D01*
D02*
G37*
G36*
X-334553Y-232864D02*
X-329978Y-236040D01*
X-326040Y-239978D01*
X-322864Y-244553D01*
X-321708Y-247086D01*
X-330956Y-250916D01*
X-330956Y-250916D01*
X-331796Y-249331D01*
X-333866Y-246402D01*
X-336402Y-243866D01*
X-339331Y-241796D01*
X-340916Y-240956D01*
X-337086Y-231708D01*
X-334553Y-232864D01*
D02*
G37*
G36*
X-474553D02*
X-469978Y-236040D01*
X-466040Y-239978D01*
X-462864Y-244553D01*
X-461708Y-247086D01*
X-470956Y-250916D01*
X-470956Y-250916D01*
X-471796Y-249331D01*
X-473866Y-246402D01*
X-476402Y-243866D01*
X-479331Y-241796D01*
X-480916Y-240956D01*
X-477086Y-231708D01*
X-474553Y-232864D01*
D02*
G37*
G36*
X-319889Y-251735D02*
X-318900Y-257215D01*
X-318900Y-262785D01*
X-319889Y-268265D01*
X-320863Y-270874D01*
X-320863D01*
X-320863D01*
D01*
X-330110Y-267043D01*
X-329584Y-265328D01*
X-328976Y-261793D01*
X-328976Y-258207D01*
X-329584Y-254673D01*
X-330110Y-252957D01*
X-330110Y-252957D01*
X-320863Y-249126D01*
X-319889Y-251735D01*
D02*
G37*
G36*
X-369890Y-252957D02*
X-370416Y-254672D01*
X-371024Y-258207D01*
X-371024Y-261793D01*
X-370416Y-265327D01*
X-369890Y-267043D01*
Y-267043D01*
X-379137Y-270874D01*
X-380111Y-268265D01*
X-381100Y-262785D01*
X-381100Y-257215D01*
X-380111Y-251735D01*
X-379137Y-249126D01*
Y-249126D01*
X-369890Y-252957D01*
D02*
G37*
G36*
X-459889Y-251735D02*
X-458900Y-257215D01*
X-458900Y-262785D01*
X-459889Y-268265D01*
X-460863Y-270874D01*
X-460863D01*
X-460863D01*
D01*
X-470110Y-267043D01*
X-469584Y-265328D01*
X-468976Y-261793D01*
X-468976Y-258207D01*
X-469584Y-254673D01*
X-470110Y-252957D01*
X-470110Y-252957D01*
X-460863Y-249126D01*
X-459889Y-251735D01*
D02*
G37*
G36*
X-509890Y-252957D02*
X-510416Y-254672D01*
X-511024Y-258207D01*
X-511024Y-261793D01*
X-510416Y-265327D01*
X-509890Y-267043D01*
Y-267043D01*
X-519137Y-270874D01*
X-520111Y-268265D01*
X-521100Y-262785D01*
X-521100Y-257215D01*
X-520111Y-251735D01*
X-519137Y-249126D01*
Y-249126D01*
X-509890Y-252957D01*
D02*
G37*
G36*
X-339126Y-289137D02*
X-341735Y-290111D01*
X-347215Y-291100D01*
X-352785Y-291100D01*
X-358265Y-290111D01*
X-360874Y-289137D01*
X-357043Y-279890D01*
X-355328Y-280416D01*
X-351793Y-281024D01*
X-348207Y-281024D01*
X-344673Y-280416D01*
X-342957Y-279890D01*
X-342957D01*
X-339126Y-289137D01*
D02*
G37*
G36*
X-479126D02*
X-481735Y-290111D01*
X-487215Y-291100D01*
X-492785Y-291100D01*
X-498265Y-290111D01*
X-500874Y-289137D01*
X-497043Y-279890D01*
X-495328Y-280416D01*
X-491793Y-281024D01*
X-488207Y-281024D01*
X-484673Y-280416D01*
X-482957Y-279890D01*
X-482957D01*
X-479126Y-289137D01*
D02*
G37*
G36*
X-368204Y-270669D02*
X-366134Y-273598D01*
X-363598Y-276134D01*
X-360669Y-278204D01*
X-359084Y-279044D01*
X-362914Y-288292D01*
Y-288292D01*
X-365447Y-287136D01*
X-370022Y-283960D01*
X-373960Y-280022D01*
X-377136Y-275447D01*
X-378292Y-272914D01*
X-369044Y-269084D01*
X-369044D01*
X-368204Y-270669D01*
D02*
G37*
G36*
X-508204D02*
X-506134Y-273598D01*
X-503598Y-276134D01*
X-500669Y-278204D01*
X-499084Y-279044D01*
X-502914Y-288292D01*
Y-288292D01*
X-505447Y-287136D01*
X-510022Y-283960D01*
X-513960Y-280022D01*
X-517136Y-275447D01*
X-518292Y-272914D01*
X-509044Y-269084D01*
X-509044D01*
X-508204Y-270669D01*
D02*
G37*
G36*
X-321708Y-272914D02*
X-321708D01*
X-322864Y-275447D01*
X-326040Y-280022D01*
X-329978Y-283960D01*
X-334553Y-287136D01*
X-337086Y-288292D01*
X-340916Y-279044D01*
X-340916Y-279044D01*
X-339331Y-278204D01*
X-336402Y-276134D01*
X-333866Y-273598D01*
X-331796Y-270669D01*
X-330956Y-269084D01*
X-321708Y-272914D01*
D02*
G37*
G36*
X-461708D02*
X-461708D01*
X-462864Y-275447D01*
X-466040Y-280022D01*
X-469978Y-283960D01*
X-474553Y-287136D01*
X-477086Y-288292D01*
X-480916Y-279044D01*
X-480916Y-279044D01*
X-479331Y-278204D01*
X-476402Y-276134D01*
X-473866Y-273598D01*
X-471796Y-270669D01*
X-470956Y-269084D01*
X-461708Y-272914D01*
D02*
G37*
G36*
X-348600Y-309500D02*
X-347700Y-309700D01*
X-346900Y-310000D01*
X-345900Y-310500D01*
X-345000Y-311100D01*
X-346150Y-312250D01*
X-347173Y-313238D01*
X-347754Y-312885D01*
X-348800Y-312500D01*
X-350000Y-312364D01*
X-350600Y-312400D01*
X-351200Y-312500D01*
X-351750Y-312650D01*
X-352300Y-312900D01*
X-352800Y-313150D01*
X-353750Y-312200D01*
X-354898Y-311047D01*
X-354150Y-310500D01*
X-353100Y-310000D01*
X-351602Y-309538D01*
X-350000Y-309400D01*
X-348600Y-309500D01*
D02*
G37*
G36*
X-488600D02*
X-487700Y-309700D01*
X-486900Y-310000D01*
X-485900Y-310500D01*
X-485000Y-311100D01*
X-486150Y-312250D01*
X-487173Y-313238D01*
X-487754Y-312885D01*
X-488800Y-312500D01*
X-490000Y-312364D01*
X-490600Y-312400D01*
X-491200Y-312500D01*
X-491750Y-312650D01*
X-492300Y-312900D01*
X-492800Y-313150D01*
X-493750Y-312200D01*
X-494898Y-311047D01*
X-494150Y-310500D01*
X-493100Y-310000D01*
X-491602Y-309538D01*
X-490000Y-309400D01*
X-488600Y-309500D01*
D02*
G37*
G36*
X-355250Y-313650D02*
X-354262Y-314673D01*
X-354615Y-315254D01*
X-355000Y-316300D01*
X-355136Y-317500D01*
X-355100Y-318100D01*
X-355000Y-318700D01*
X-354850Y-319250D01*
X-354600Y-319800D01*
X-354350Y-320300D01*
X-355300Y-321250D01*
X-356453Y-322398D01*
X-357000Y-321650D01*
X-357500Y-320600D01*
X-357962Y-319102D01*
X-358100Y-317500D01*
X-358000Y-316100D01*
X-357800Y-315200D01*
X-357500Y-314400D01*
X-357000Y-313400D01*
X-356400Y-312500D01*
X-355250Y-313650D01*
D02*
G37*
G36*
X-495250D02*
X-494262Y-314673D01*
X-494615Y-315254D01*
X-495000Y-316300D01*
X-495136Y-317500D01*
X-495100Y-318100D01*
X-495000Y-318700D01*
X-494850Y-319250D01*
X-494600Y-319800D01*
X-494350Y-320300D01*
X-495300Y-321250D01*
X-496453Y-322398D01*
X-497000Y-321650D01*
X-497500Y-320600D01*
X-497962Y-319102D01*
X-498100Y-317500D01*
X-498000Y-316100D01*
X-497800Y-315200D01*
X-497500Y-314400D01*
X-497000Y-313400D01*
X-496400Y-312500D01*
X-495250Y-313650D01*
D02*
G37*
G36*
X-343000Y-313350D02*
X-342500Y-314400D01*
X-342038Y-315898D01*
X-341900Y-317500D01*
X-342000Y-318900D01*
X-342200Y-319800D01*
X-342500Y-320600D01*
X-343000Y-321600D01*
X-343600Y-322500D01*
X-344750Y-321350D01*
X-345738Y-320327D01*
X-345385Y-319746D01*
X-345000Y-318700D01*
X-344864Y-317500D01*
X-344900Y-316900D01*
X-345000Y-316300D01*
X-345150Y-315750D01*
X-345400Y-315200D01*
X-345650Y-314700D01*
X-344700Y-313750D01*
X-343547Y-312602D01*
X-343000Y-313350D01*
D02*
G37*
G36*
X-483000D02*
X-482500Y-314400D01*
X-482038Y-315898D01*
X-481900Y-317500D01*
X-482000Y-318900D01*
X-482200Y-319800D01*
X-482500Y-320600D01*
X-483000Y-321600D01*
X-483600Y-322500D01*
X-484750Y-321350D01*
X-485738Y-320327D01*
X-485385Y-319746D01*
X-485000Y-318700D01*
X-484864Y-317500D01*
X-484900Y-316900D01*
X-485000Y-316300D01*
X-485150Y-315750D01*
X-485400Y-315200D01*
X-485650Y-314700D01*
X-484700Y-313750D01*
X-483547Y-312602D01*
X-483000Y-313350D01*
D02*
G37*
G36*
X-352246Y-322115D02*
X-351200Y-322500D01*
X-350000Y-322636D01*
X-349400Y-322600D01*
X-348800Y-322500D01*
X-348250Y-322350D01*
X-347700Y-322100D01*
X-347200Y-321850D01*
X-346250Y-322800D01*
X-345102Y-323953D01*
X-345850Y-324500D01*
X-346900Y-325000D01*
X-348398Y-325462D01*
X-350000Y-325600D01*
X-351400Y-325500D01*
X-352300Y-325300D01*
X-353100Y-325000D01*
X-354100Y-324500D01*
X-355000Y-323900D01*
X-353850Y-322750D01*
X-352827Y-321762D01*
X-352246Y-322115D01*
D02*
G37*
G36*
X-492246D02*
X-491200Y-322500D01*
X-490000Y-322636D01*
X-489400Y-322600D01*
X-488800Y-322500D01*
X-488250Y-322350D01*
X-487700Y-322100D01*
X-487200Y-321850D01*
X-486250Y-322800D01*
X-485102Y-323953D01*
X-485850Y-324500D01*
X-486900Y-325000D01*
X-488398Y-325462D01*
X-490000Y-325600D01*
X-491400Y-325500D01*
X-492300Y-325300D01*
X-493100Y-325000D01*
X-494100Y-324500D01*
X-495000Y-323900D01*
X-493850Y-322750D01*
X-492827Y-321762D01*
X-492246Y-322115D01*
D02*
G37*
G36*
X-57086Y-11708D02*
D01*
X-57086Y-11708D01*
X-57086Y-11708D01*
D02*
G37*
G36*
X-197086D02*
D01*
X-197086Y-11708D01*
X-197086Y-11708D01*
D02*
G37*
G36*
X-67215Y-8900D02*
X-61735Y-9889D01*
X-59126Y-10863D01*
X-59126Y-10863D01*
X-62957Y-20110D01*
X-64672Y-19584D01*
X-68207Y-18976D01*
X-71793Y-18976D01*
X-75328Y-19584D01*
X-77043Y-20110D01*
X-77043Y-20110D01*
X-80874Y-10863D01*
X-78265Y-9889D01*
X-72785Y-8900D01*
X-67215Y-8900D01*
D02*
G37*
G36*
X-207215D02*
X-201735Y-9889D01*
X-199126Y-10863D01*
X-199126Y-10863D01*
X-202957Y-20110D01*
X-204673Y-19584D01*
X-208207Y-18976D01*
X-211793Y-18976D01*
X-215328Y-19584D01*
X-217043Y-20110D01*
X-217043Y-20110D01*
X-220874Y-10863D01*
X-218265Y-9889D01*
X-212785Y-8900D01*
X-207215Y-8900D01*
D02*
G37*
G36*
X-98292Y-27086D02*
D01*
X-98292Y-27086D01*
X-98292Y-27086D01*
D02*
G37*
G36*
X-238292D02*
D01*
X-238292Y-27086D01*
X-238292Y-27086D01*
D02*
G37*
G36*
X-79084Y-20956D02*
Y-20956D01*
X-80669Y-21796D01*
X-83598Y-23866D01*
X-86134Y-26402D01*
X-88204Y-29331D01*
X-89045Y-30916D01*
X-98292Y-27086D01*
X-97136Y-24553D01*
X-93960Y-19978D01*
X-90022Y-16040D01*
X-85447Y-12864D01*
X-82914Y-11708D01*
X-79084Y-20956D01*
D02*
G37*
G36*
X-219084D02*
Y-20956D01*
X-220669Y-21796D01*
X-223598Y-23866D01*
X-226134Y-26402D01*
X-228204Y-29331D01*
X-229044Y-30916D01*
X-238292Y-27086D01*
X-237136Y-24553D01*
X-233960Y-19978D01*
X-230022Y-16040D01*
X-225447Y-12864D01*
X-222914Y-11708D01*
X-219084Y-20956D01*
D02*
G37*
G36*
X-54553Y-12864D02*
X-49978Y-16040D01*
X-46040Y-19978D01*
X-42864Y-24553D01*
X-41708Y-27086D01*
X-50956Y-30916D01*
X-50956Y-30916D01*
X-51796Y-29331D01*
X-53866Y-26402D01*
X-56402Y-23866D01*
X-59331Y-21796D01*
X-60916Y-20956D01*
X-57086Y-11708D01*
X-54553Y-12864D01*
D02*
G37*
G36*
X-194553D02*
X-189978Y-16040D01*
X-186040Y-19978D01*
X-182864Y-24553D01*
X-181708Y-27086D01*
X-190956Y-30916D01*
X-190956Y-30916D01*
X-191796Y-29331D01*
X-193866Y-26402D01*
X-196402Y-23866D01*
X-199331Y-21796D01*
X-200916Y-20956D01*
X-197086Y-11708D01*
X-194553Y-12864D01*
D02*
G37*
G36*
X-39889Y-31735D02*
X-38900Y-37215D01*
X-38900Y-42785D01*
X-39889Y-48265D01*
X-40863Y-50874D01*
X-40863D01*
X-40863D01*
D01*
X-50110Y-47043D01*
X-49584Y-45328D01*
X-48976Y-41793D01*
X-48976Y-38207D01*
X-49584Y-34673D01*
X-50110Y-32957D01*
X-50110Y-32957D01*
X-40863Y-29126D01*
X-39889Y-31735D01*
D02*
G37*
G36*
X-89890Y-32957D02*
X-90416Y-34672D01*
X-91024Y-38207D01*
X-91024Y-41793D01*
X-90416Y-45328D01*
X-89890Y-47043D01*
Y-47043D01*
X-99137Y-50874D01*
X-100111Y-48265D01*
X-101100Y-42785D01*
X-101100Y-37215D01*
X-100111Y-31735D01*
X-99137Y-29126D01*
Y-29126D01*
X-89890Y-32957D01*
D02*
G37*
G36*
X-179889Y-31735D02*
X-178900Y-37215D01*
X-178900Y-42785D01*
X-179889Y-48265D01*
X-180863Y-50874D01*
X-180863D01*
X-180863D01*
D01*
X-190110Y-47043D01*
X-189584Y-45328D01*
X-188976Y-41793D01*
X-188976Y-38207D01*
X-189584Y-34673D01*
X-190110Y-32957D01*
X-190110Y-32957D01*
X-180863Y-29126D01*
X-179889Y-31735D01*
D02*
G37*
G36*
X-229890Y-32957D02*
X-230416Y-34672D01*
X-231024Y-38207D01*
X-231024Y-41793D01*
X-230416Y-45328D01*
X-229890Y-47043D01*
Y-47043D01*
X-239137Y-50874D01*
X-240111Y-48265D01*
X-241100Y-42785D01*
X-241100Y-37215D01*
X-240111Y-31735D01*
X-239137Y-29126D01*
Y-29126D01*
X-229890Y-32957D01*
D02*
G37*
G36*
X-59126Y-69137D02*
X-61735Y-70111D01*
X-67215Y-71100D01*
X-72785Y-71100D01*
X-78265Y-70111D01*
X-80874Y-69137D01*
X-77043Y-59890D01*
X-75328Y-60416D01*
X-71793Y-61024D01*
X-68207Y-61024D01*
X-64672Y-60416D01*
X-62957Y-59890D01*
X-62957D01*
X-59126Y-69137D01*
D02*
G37*
G36*
X-199126D02*
X-201735Y-70111D01*
X-207215Y-71100D01*
X-212785Y-71100D01*
X-218265Y-70111D01*
X-220874Y-69137D01*
X-217043Y-59890D01*
X-215328Y-60416D01*
X-211793Y-61024D01*
X-208207Y-61024D01*
X-204673Y-60416D01*
X-202957Y-59890D01*
X-202957D01*
X-199126Y-69137D01*
D02*
G37*
G36*
X-88204Y-50669D02*
X-86134Y-53598D01*
X-83598Y-56134D01*
X-80669Y-58204D01*
X-79084Y-59044D01*
X-82914Y-68292D01*
Y-68292D01*
X-85447Y-67136D01*
X-90022Y-63960D01*
X-93960Y-60022D01*
X-97136Y-55447D01*
X-98292Y-52914D01*
X-89045Y-49084D01*
X-89044D01*
X-88204Y-50669D01*
D02*
G37*
G36*
X-228204D02*
X-226134Y-53598D01*
X-223598Y-56134D01*
X-220669Y-58204D01*
X-219084Y-59044D01*
X-222914Y-68292D01*
Y-68292D01*
X-225447Y-67136D01*
X-230022Y-63960D01*
X-233960Y-60022D01*
X-237136Y-55447D01*
X-238292Y-52914D01*
X-229044Y-49084D01*
X-229044D01*
X-228204Y-50669D01*
D02*
G37*
G36*
X-41708Y-52914D02*
X-41708D01*
X-42864Y-55447D01*
X-46040Y-60022D01*
X-49978Y-63960D01*
X-54553Y-67136D01*
X-57086Y-68292D01*
X-60916Y-59044D01*
X-60916Y-59044D01*
X-59331Y-58204D01*
X-56402Y-56134D01*
X-53866Y-53598D01*
X-51796Y-50669D01*
X-50956Y-49084D01*
X-41708Y-52914D01*
D02*
G37*
G36*
X-181708D02*
X-181708D01*
X-182864Y-55447D01*
X-186040Y-60022D01*
X-189978Y-63960D01*
X-194553Y-67136D01*
X-197086Y-68292D01*
X-200916Y-59044D01*
X-200916Y-59044D01*
X-199331Y-58204D01*
X-196402Y-56134D01*
X-193866Y-53598D01*
X-191796Y-50669D01*
X-190956Y-49084D01*
X-181708Y-52914D01*
D02*
G37*
G36*
X-57086Y-231708D02*
D01*
X-57086Y-231708D01*
X-57086Y-231708D01*
D02*
G37*
G36*
X-197086D02*
D01*
X-197086Y-231708D01*
X-197086Y-231708D01*
D02*
G37*
G36*
X-67215Y-228900D02*
X-61735Y-229889D01*
X-59126Y-230863D01*
X-59126Y-230863D01*
X-62957Y-240110D01*
X-64672Y-239584D01*
X-68207Y-238976D01*
X-71793Y-238976D01*
X-75328Y-239584D01*
X-77043Y-240110D01*
X-77043Y-240110D01*
X-80874Y-230863D01*
X-78265Y-229889D01*
X-72785Y-228900D01*
X-67215Y-228900D01*
D02*
G37*
G36*
X-207215D02*
X-201735Y-229889D01*
X-199126Y-230863D01*
X-199126Y-230863D01*
X-202957Y-240110D01*
X-204673Y-239584D01*
X-208207Y-238976D01*
X-211793Y-238976D01*
X-215328Y-239584D01*
X-217043Y-240110D01*
X-217043Y-240110D01*
X-220874Y-230863D01*
X-218265Y-229889D01*
X-212785Y-228900D01*
X-207215Y-228900D01*
D02*
G37*
G36*
X-219084Y-240956D02*
Y-240956D01*
X-220669Y-241796D01*
X-223598Y-243866D01*
X-226134Y-246402D01*
X-228204Y-249331D01*
X-229044Y-250916D01*
X-238292Y-247086D01*
D01*
X-238292Y-247086D01*
X-238292Y-247086D01*
X-237136Y-244553D01*
X-233960Y-239978D01*
X-230022Y-236040D01*
X-225447Y-232864D01*
X-222914Y-231708D01*
X-219084Y-240956D01*
D02*
G37*
G36*
X-98292Y-247086D02*
D01*
X-98292Y-247086D01*
X-98292Y-247086D01*
D02*
G37*
G36*
X-79084Y-240956D02*
Y-240956D01*
X-80669Y-241796D01*
X-83598Y-243866D01*
X-86134Y-246402D01*
X-88204Y-249331D01*
X-89045Y-250916D01*
X-98292Y-247086D01*
X-97136Y-244553D01*
X-93960Y-239978D01*
X-90022Y-236040D01*
X-85447Y-232864D01*
X-82914Y-231708D01*
X-79084Y-240956D01*
D02*
G37*
G36*
X-54553Y-232864D02*
X-49978Y-236040D01*
X-46040Y-239978D01*
X-42864Y-244553D01*
X-41708Y-247086D01*
X-50956Y-250916D01*
X-50956Y-250916D01*
X-51796Y-249331D01*
X-53866Y-246402D01*
X-56402Y-243866D01*
X-59331Y-241796D01*
X-60916Y-240956D01*
X-57086Y-231708D01*
X-54553Y-232864D01*
D02*
G37*
G36*
X-194553D02*
X-189978Y-236040D01*
X-186040Y-239978D01*
X-182864Y-244553D01*
X-181708Y-247086D01*
X-190956Y-250916D01*
X-190956Y-250916D01*
X-191796Y-249331D01*
X-193866Y-246402D01*
X-196402Y-243866D01*
X-199331Y-241796D01*
X-200916Y-240956D01*
X-197086Y-231708D01*
X-194553Y-232864D01*
D02*
G37*
G36*
X-39889Y-251735D02*
X-38900Y-257215D01*
X-38900Y-262785D01*
X-39889Y-268265D01*
X-40863Y-270874D01*
X-40863D01*
X-40863D01*
D01*
X-50110Y-267043D01*
X-49584Y-265328D01*
X-48976Y-261793D01*
X-48976Y-258207D01*
X-49584Y-254673D01*
X-50110Y-252957D01*
X-50110Y-252957D01*
X-40863Y-249126D01*
X-39889Y-251735D01*
D02*
G37*
G36*
X-89890Y-252957D02*
X-90416Y-254672D01*
X-91024Y-258207D01*
X-91024Y-261793D01*
X-90416Y-265327D01*
X-89890Y-267043D01*
Y-267043D01*
X-99137Y-270874D01*
X-100111Y-268265D01*
X-101100Y-262785D01*
X-101100Y-257215D01*
X-100111Y-251735D01*
X-99137Y-249126D01*
Y-249126D01*
X-89890Y-252957D01*
D02*
G37*
G36*
X-179889Y-251735D02*
X-178900Y-257215D01*
X-178900Y-262785D01*
X-179889Y-268265D01*
X-180863Y-270874D01*
X-180863D01*
X-180863D01*
D01*
X-190110Y-267043D01*
X-189584Y-265328D01*
X-188976Y-261793D01*
X-188976Y-258207D01*
X-189584Y-254673D01*
X-190110Y-252957D01*
X-190110Y-252957D01*
X-180863Y-249126D01*
X-179889Y-251735D01*
D02*
G37*
G36*
X-229890Y-252957D02*
X-230416Y-254672D01*
X-231024Y-258207D01*
X-231024Y-261793D01*
X-230416Y-265327D01*
X-229890Y-267043D01*
Y-267043D01*
X-239137Y-270874D01*
X-240111Y-268265D01*
X-241100Y-262785D01*
X-241100Y-257215D01*
X-240111Y-251735D01*
X-239137Y-249126D01*
Y-249126D01*
X-229890Y-252957D01*
D02*
G37*
G36*
X-59126Y-289137D02*
X-61735Y-290111D01*
X-67215Y-291100D01*
X-72785Y-291100D01*
X-78265Y-290111D01*
X-80874Y-289137D01*
X-77043Y-279890D01*
X-75328Y-280416D01*
X-71793Y-281024D01*
X-68207Y-281024D01*
X-64672Y-280416D01*
X-62957Y-279890D01*
X-62957D01*
X-59126Y-289137D01*
D02*
G37*
G36*
X-199126D02*
X-201735Y-290111D01*
X-207215Y-291100D01*
X-212785Y-291100D01*
X-218265Y-290111D01*
X-220874Y-289137D01*
X-217043Y-279890D01*
X-215328Y-280416D01*
X-211793Y-281024D01*
X-208207Y-281024D01*
X-204673Y-280416D01*
X-202957Y-279890D01*
X-202957D01*
X-199126Y-289137D01*
D02*
G37*
G36*
X-88204Y-270669D02*
X-86134Y-273598D01*
X-83598Y-276134D01*
X-80669Y-278204D01*
X-79084Y-279044D01*
X-82914Y-288292D01*
Y-288292D01*
X-85447Y-287136D01*
X-90022Y-283960D01*
X-93960Y-280022D01*
X-97136Y-275447D01*
X-98292Y-272914D01*
X-89045Y-269084D01*
X-89044D01*
X-88204Y-270669D01*
D02*
G37*
G36*
X-228204D02*
X-226134Y-273598D01*
X-223598Y-276134D01*
X-220669Y-278204D01*
X-219084Y-279044D01*
X-222914Y-288292D01*
Y-288292D01*
X-225447Y-287136D01*
X-230022Y-283960D01*
X-233960Y-280022D01*
X-237136Y-275447D01*
X-238292Y-272914D01*
X-229044Y-269084D01*
X-229044D01*
X-228204Y-270669D01*
D02*
G37*
G36*
X-41708Y-272914D02*
X-41708D01*
X-42864Y-275447D01*
X-46040Y-280022D01*
X-49978Y-283960D01*
X-54553Y-287136D01*
X-57086Y-288292D01*
X-60916Y-279044D01*
X-60916Y-279044D01*
X-59331Y-278204D01*
X-56402Y-276134D01*
X-53866Y-273598D01*
X-51796Y-270669D01*
X-50956Y-269084D01*
X-41708Y-272914D01*
D02*
G37*
G36*
X-181708D02*
X-181708D01*
X-182864Y-275447D01*
X-186040Y-280022D01*
X-189978Y-283960D01*
X-194553Y-287136D01*
X-197086Y-288292D01*
X-200916Y-279044D01*
X-200916Y-279044D01*
X-199331Y-278204D01*
X-196402Y-276134D01*
X-193866Y-273598D01*
X-191796Y-270669D01*
X-190956Y-269084D01*
X-181708Y-272914D01*
D02*
G37*
G36*
X-68600Y-309500D02*
X-67700Y-309700D01*
X-66900Y-310000D01*
X-65900Y-310500D01*
X-65000Y-311100D01*
X-66150Y-312250D01*
X-67173Y-313238D01*
X-67754Y-312885D01*
X-68800Y-312500D01*
X-70000Y-312364D01*
X-70600Y-312400D01*
X-71200Y-312500D01*
X-71750Y-312650D01*
X-72300Y-312900D01*
X-72800Y-313150D01*
X-73750Y-312200D01*
X-74898Y-311047D01*
X-74150Y-310500D01*
X-73100Y-310000D01*
X-71602Y-309538D01*
X-70000Y-309400D01*
X-68600Y-309500D01*
D02*
G37*
G36*
X-208600D02*
X-207700Y-309700D01*
X-206900Y-310000D01*
X-205900Y-310500D01*
X-205000Y-311100D01*
X-206150Y-312250D01*
X-207173Y-313238D01*
X-207754Y-312885D01*
X-208800Y-312500D01*
X-210000Y-312364D01*
X-210600Y-312400D01*
X-211200Y-312500D01*
X-211750Y-312650D01*
X-212300Y-312900D01*
X-212800Y-313150D01*
X-213750Y-312200D01*
X-214898Y-311047D01*
X-214150Y-310500D01*
X-213100Y-310000D01*
X-211602Y-309538D01*
X-210000Y-309400D01*
X-208600Y-309500D01*
D02*
G37*
G36*
X-75250Y-313650D02*
X-74262Y-314673D01*
X-74615Y-315254D01*
X-75000Y-316300D01*
X-75136Y-317500D01*
X-75100Y-318100D01*
X-75000Y-318700D01*
X-74850Y-319250D01*
X-74600Y-319800D01*
X-74350Y-320300D01*
X-75300Y-321250D01*
X-76453Y-322398D01*
X-77000Y-321650D01*
X-77500Y-320600D01*
X-77962Y-319102D01*
X-78100Y-317500D01*
X-78000Y-316100D01*
X-77800Y-315200D01*
X-77500Y-314400D01*
X-77000Y-313400D01*
X-76400Y-312500D01*
X-75250Y-313650D01*
D02*
G37*
G36*
X-215250D02*
X-214262Y-314673D01*
X-214615Y-315254D01*
X-215000Y-316300D01*
X-215136Y-317500D01*
X-215100Y-318100D01*
X-215000Y-318700D01*
X-214850Y-319250D01*
X-214600Y-319800D01*
X-214350Y-320300D01*
X-215300Y-321250D01*
X-216453Y-322398D01*
X-217000Y-321650D01*
X-217500Y-320600D01*
X-217962Y-319102D01*
X-218100Y-317500D01*
X-218000Y-316100D01*
X-217800Y-315200D01*
X-217500Y-314400D01*
X-217000Y-313400D01*
X-216400Y-312500D01*
X-215250Y-313650D01*
D02*
G37*
G36*
X-63000Y-313350D02*
X-62500Y-314400D01*
X-62038Y-315898D01*
X-61900Y-317500D01*
X-62000Y-318900D01*
X-62200Y-319800D01*
X-62500Y-320600D01*
X-63000Y-321600D01*
X-63600Y-322500D01*
X-64750Y-321350D01*
X-65738Y-320327D01*
X-65385Y-319746D01*
X-65000Y-318700D01*
X-64864Y-317500D01*
X-64900Y-316900D01*
X-65000Y-316300D01*
X-65150Y-315750D01*
X-65400Y-315200D01*
X-65650Y-314700D01*
X-64700Y-313750D01*
X-63547Y-312602D01*
X-63000Y-313350D01*
D02*
G37*
G36*
X-203000D02*
X-202500Y-314400D01*
X-202038Y-315898D01*
X-201900Y-317500D01*
X-202000Y-318900D01*
X-202200Y-319800D01*
X-202500Y-320600D01*
X-203000Y-321600D01*
X-203600Y-322500D01*
X-204750Y-321350D01*
X-205738Y-320327D01*
X-205385Y-319746D01*
X-205000Y-318700D01*
X-204864Y-317500D01*
X-204900Y-316900D01*
X-205000Y-316300D01*
X-205150Y-315750D01*
X-205400Y-315200D01*
X-205650Y-314700D01*
X-204700Y-313750D01*
X-203547Y-312602D01*
X-203000Y-313350D01*
D02*
G37*
G36*
X-72246Y-322115D02*
X-71200Y-322500D01*
X-70000Y-322636D01*
X-69400Y-322600D01*
X-68800Y-322500D01*
X-68250Y-322350D01*
X-67700Y-322100D01*
X-67200Y-321850D01*
X-66250Y-322800D01*
X-65102Y-323953D01*
X-65850Y-324500D01*
X-66900Y-325000D01*
X-68398Y-325462D01*
X-70000Y-325600D01*
X-71400Y-325500D01*
X-72300Y-325300D01*
X-73100Y-325000D01*
X-74100Y-324500D01*
X-75000Y-323900D01*
X-73850Y-322750D01*
X-72827Y-321762D01*
X-72246Y-322115D01*
D02*
G37*
G36*
X-212246D02*
X-211200Y-322500D01*
X-210000Y-322636D01*
X-209400Y-322600D01*
X-208800Y-322500D01*
X-208250Y-322350D01*
X-207700Y-322100D01*
X-207200Y-321850D01*
X-206250Y-322800D01*
X-205102Y-323953D01*
X-205850Y-324500D01*
X-206900Y-325000D01*
X-208398Y-325462D01*
X-210000Y-325600D01*
X-211400Y-325500D01*
X-212300Y-325300D01*
X-213100Y-325000D01*
X-214100Y-324500D01*
X-215000Y-323900D01*
X-213850Y-322750D01*
X-212827Y-321762D01*
X-212246Y-322115D01*
D02*
G37*
G36*
X-337086Y428292D02*
D01*
X-337086Y428292D01*
X-337086Y428292D01*
D02*
G37*
G36*
X-477086D02*
D01*
X-477086Y428292D01*
X-477086Y428292D01*
D02*
G37*
G36*
X-347215Y431100D02*
X-341735Y430111D01*
X-339126Y429137D01*
X-339126Y429137D01*
X-342957Y419890D01*
X-344673Y420416D01*
X-348207Y421024D01*
X-351793Y421024D01*
X-355328Y420416D01*
X-357043Y419890D01*
X-357043Y419890D01*
X-360874Y429137D01*
X-358265Y430111D01*
X-352785Y431100D01*
X-347215Y431100D01*
D02*
G37*
G36*
X-487215D02*
X-481735Y430111D01*
X-479126Y429137D01*
X-479126Y429137D01*
X-482957Y419890D01*
X-484673Y420416D01*
X-488207Y421024D01*
X-491793Y421024D01*
X-495328Y420416D01*
X-497043Y419890D01*
X-497043Y419890D01*
X-500874Y429137D01*
X-498265Y430111D01*
X-492785Y431100D01*
X-487215Y431100D01*
D02*
G37*
G36*
X-378292Y412914D02*
D01*
X-378292Y412914D01*
X-378292Y412914D01*
D02*
G37*
G36*
X-518292D02*
D01*
X-518292Y412914D01*
X-518292Y412914D01*
D02*
G37*
G36*
X-359084Y419044D02*
Y419044D01*
X-360669Y418204D01*
X-363598Y416134D01*
X-366134Y413598D01*
X-368204Y410669D01*
X-369044Y409084D01*
X-378292Y412914D01*
X-377136Y415447D01*
X-373960Y420022D01*
X-370022Y423960D01*
X-365447Y427136D01*
X-362914Y428292D01*
X-359084Y419044D01*
D02*
G37*
G36*
X-499084D02*
Y419044D01*
X-500669Y418204D01*
X-503598Y416134D01*
X-506134Y413598D01*
X-508204Y410669D01*
X-509044Y409084D01*
X-518292Y412914D01*
X-517136Y415447D01*
X-513960Y420022D01*
X-510022Y423960D01*
X-505447Y427136D01*
X-502914Y428292D01*
X-499084Y419044D01*
D02*
G37*
G36*
X-334553Y427136D02*
X-329978Y423960D01*
X-326040Y420022D01*
X-322864Y415447D01*
X-321708Y412914D01*
X-330956Y409084D01*
X-330956Y409084D01*
X-331796Y410669D01*
X-333866Y413598D01*
X-336402Y416134D01*
X-339331Y418204D01*
X-340916Y419044D01*
X-337086Y428292D01*
X-334553Y427136D01*
D02*
G37*
G36*
X-474553D02*
X-469978Y423960D01*
X-466040Y420022D01*
X-462864Y415447D01*
X-461708Y412914D01*
X-470956Y409084D01*
X-470956Y409084D01*
X-471796Y410669D01*
X-473866Y413598D01*
X-476402Y416134D01*
X-479331Y418204D01*
X-480916Y419044D01*
X-477086Y428292D01*
X-474553Y427136D01*
D02*
G37*
G36*
X-319889Y408265D02*
X-318900Y402785D01*
X-318900Y397215D01*
X-319889Y391735D01*
X-320863Y389126D01*
X-320863D01*
X-320863D01*
D01*
X-330110Y392957D01*
X-329584Y394672D01*
X-328976Y398207D01*
X-328976Y401793D01*
X-329584Y405327D01*
X-330110Y407043D01*
X-330110Y407043D01*
X-320863Y410874D01*
X-319889Y408265D01*
D02*
G37*
G36*
X-369890Y407043D02*
X-370416Y405327D01*
X-371024Y401793D01*
X-371024Y398207D01*
X-370416Y394672D01*
X-369890Y392957D01*
Y392957D01*
X-379137Y389126D01*
X-380111Y391735D01*
X-381100Y397215D01*
X-381100Y402785D01*
X-380111Y408265D01*
X-379137Y410874D01*
Y410874D01*
X-369890Y407043D01*
D02*
G37*
G36*
X-459889Y408265D02*
X-458900Y402785D01*
X-458900Y397215D01*
X-459889Y391735D01*
X-460863Y389126D01*
X-460863D01*
X-460863D01*
D01*
X-470110Y392957D01*
X-469584Y394672D01*
X-468976Y398207D01*
X-468976Y401793D01*
X-469584Y405327D01*
X-470110Y407043D01*
X-470110Y407043D01*
X-460863Y410874D01*
X-459889Y408265D01*
D02*
G37*
G36*
X-509890Y407043D02*
X-510416Y405327D01*
X-511024Y401793D01*
X-511024Y398207D01*
X-510416Y394672D01*
X-509890Y392957D01*
Y392957D01*
X-519137Y389126D01*
X-520111Y391735D01*
X-521100Y397215D01*
X-521100Y402785D01*
X-520111Y408265D01*
X-519137Y410874D01*
Y410874D01*
X-509890Y407043D01*
D02*
G37*
G36*
X-339126Y370863D02*
X-341735Y369889D01*
X-347215Y368900D01*
X-352785Y368900D01*
X-358265Y369889D01*
X-360874Y370863D01*
X-357043Y380110D01*
X-355328Y379584D01*
X-351793Y378976D01*
X-348207Y378976D01*
X-344673Y379584D01*
X-342957Y380110D01*
X-342957D01*
X-339126Y370863D01*
D02*
G37*
G36*
X-479126D02*
X-481735Y369889D01*
X-487215Y368900D01*
X-492785Y368900D01*
X-498265Y369889D01*
X-500874Y370863D01*
X-497043Y380110D01*
X-495328Y379584D01*
X-491793Y378976D01*
X-488207Y378976D01*
X-484673Y379584D01*
X-482957Y380110D01*
X-482957D01*
X-479126Y370863D01*
D02*
G37*
G36*
X-368204Y389331D02*
X-366134Y386402D01*
X-363598Y383866D01*
X-360669Y381796D01*
X-359084Y380956D01*
X-362914Y371708D01*
Y371708D01*
X-365447Y372864D01*
X-370022Y376040D01*
X-373960Y379978D01*
X-377136Y384553D01*
X-378292Y387086D01*
X-369044Y390916D01*
X-369044D01*
X-368204Y389331D01*
D02*
G37*
G36*
X-508204D02*
X-506134Y386402D01*
X-503598Y383866D01*
X-500669Y381796D01*
X-499084Y380956D01*
X-502914Y371708D01*
Y371708D01*
X-505447Y372864D01*
X-510022Y376040D01*
X-513960Y379978D01*
X-517136Y384553D01*
X-518292Y387086D01*
X-509044Y390916D01*
X-509044D01*
X-508204Y389331D01*
D02*
G37*
G36*
X-321708Y387086D02*
X-321708D01*
X-322864Y384553D01*
X-326040Y379978D01*
X-329978Y376040D01*
X-334553Y372864D01*
X-337086Y371708D01*
X-340916Y380956D01*
X-340916Y380956D01*
X-339331Y381796D01*
X-336402Y383866D01*
X-333866Y386402D01*
X-331796Y389331D01*
X-330956Y390916D01*
X-321708Y387086D01*
D02*
G37*
G36*
X-461708D02*
X-461708D01*
X-462864Y384553D01*
X-466040Y379978D01*
X-469978Y376040D01*
X-474553Y372864D01*
X-477086Y371708D01*
X-480916Y380956D01*
X-480916Y380956D01*
X-479331Y381796D01*
X-476402Y383866D01*
X-473866Y386402D01*
X-471796Y389331D01*
X-470956Y390916D01*
X-461708Y387086D01*
D02*
G37*
G36*
X-337086Y208292D02*
D01*
X-337086Y208292D01*
X-337086Y208292D01*
D02*
G37*
G36*
X-477086D02*
D01*
X-477086Y208292D01*
X-477086Y208292D01*
D02*
G37*
G36*
X-347215Y211100D02*
X-341735Y210111D01*
X-339126Y209137D01*
X-339126Y209137D01*
X-342957Y199890D01*
X-344673Y200416D01*
X-348207Y201024D01*
X-351793Y201024D01*
X-355328Y200416D01*
X-357043Y199890D01*
X-357043Y199890D01*
X-360874Y209137D01*
X-358265Y210111D01*
X-352785Y211100D01*
X-347215Y211100D01*
D02*
G37*
G36*
X-487215D02*
X-481735Y210111D01*
X-479126Y209137D01*
X-479126Y209137D01*
X-482957Y199890D01*
X-484673Y200416D01*
X-488207Y201024D01*
X-491793Y201024D01*
X-495328Y200416D01*
X-497043Y199890D01*
X-497043Y199890D01*
X-500874Y209137D01*
X-498265Y210111D01*
X-492785Y211100D01*
X-487215Y211100D01*
D02*
G37*
G36*
X-378292Y192914D02*
D01*
X-378292Y192914D01*
X-378292Y192914D01*
D02*
G37*
G36*
X-518292D02*
D01*
X-518292Y192914D01*
X-518292Y192914D01*
D02*
G37*
G36*
X-359084Y199044D02*
Y199044D01*
X-360669Y198204D01*
X-363598Y196134D01*
X-366134Y193598D01*
X-368204Y190669D01*
X-369044Y189084D01*
X-378292Y192914D01*
X-377136Y195447D01*
X-373960Y200022D01*
X-370022Y203960D01*
X-365447Y207136D01*
X-362914Y208292D01*
X-359084Y199044D01*
D02*
G37*
G36*
X-499084D02*
Y199044D01*
X-500669Y198204D01*
X-503598Y196134D01*
X-506134Y193598D01*
X-508204Y190669D01*
X-509044Y189084D01*
X-518292Y192914D01*
X-517136Y195447D01*
X-513960Y200022D01*
X-510022Y203960D01*
X-505447Y207136D01*
X-502914Y208292D01*
X-499084Y199044D01*
D02*
G37*
G36*
X-334553Y207136D02*
X-329978Y203960D01*
X-326040Y200022D01*
X-322864Y195447D01*
X-321708Y192914D01*
X-330956Y189084D01*
X-330956Y189084D01*
X-331796Y190669D01*
X-333866Y193598D01*
X-336402Y196134D01*
X-339331Y198204D01*
X-340916Y199044D01*
X-337086Y208292D01*
X-334553Y207136D01*
D02*
G37*
G36*
X-474553D02*
X-469978Y203960D01*
X-466040Y200022D01*
X-462864Y195447D01*
X-461708Y192914D01*
X-470956Y189084D01*
X-470956Y189084D01*
X-471796Y190669D01*
X-473866Y193598D01*
X-476402Y196134D01*
X-479331Y198204D01*
X-480916Y199044D01*
X-477086Y208292D01*
X-474553Y207136D01*
D02*
G37*
G36*
X-319889Y188265D02*
X-318900Y182785D01*
X-318900Y177215D01*
X-319889Y171735D01*
X-320863Y169126D01*
X-320863D01*
X-320863D01*
D01*
X-330110Y172957D01*
X-329584Y174672D01*
X-328976Y178207D01*
X-328976Y181793D01*
X-329584Y185327D01*
X-330110Y187043D01*
X-330110Y187043D01*
X-320863Y190874D01*
X-319889Y188265D01*
D02*
G37*
G36*
X-369890Y187043D02*
X-370416Y185327D01*
X-371024Y181793D01*
X-371024Y178207D01*
X-370416Y174672D01*
X-369890Y172957D01*
Y172957D01*
X-379137Y169126D01*
X-380111Y171735D01*
X-381100Y177215D01*
X-381100Y182785D01*
X-380111Y188265D01*
X-379137Y190874D01*
Y190874D01*
X-369890Y187043D01*
D02*
G37*
G36*
X-459889Y188265D02*
X-458900Y182785D01*
X-458900Y177215D01*
X-459889Y171735D01*
X-460863Y169126D01*
X-460863D01*
X-460863D01*
D01*
X-470110Y172957D01*
X-469584Y174672D01*
X-468976Y178207D01*
X-468976Y181793D01*
X-469584Y185327D01*
X-470110Y187043D01*
X-470110Y187043D01*
X-460863Y190874D01*
X-459889Y188265D01*
D02*
G37*
G36*
X-509890Y187043D02*
X-510416Y185327D01*
X-511024Y181793D01*
X-511024Y178207D01*
X-510416Y174672D01*
X-509890Y172957D01*
Y172957D01*
X-519137Y169126D01*
X-520111Y171735D01*
X-521100Y177215D01*
X-521100Y182785D01*
X-520111Y188265D01*
X-519137Y190874D01*
Y190874D01*
X-509890Y187043D01*
D02*
G37*
G36*
X-339126Y150863D02*
X-341735Y149889D01*
X-347215Y148900D01*
X-352785Y148900D01*
X-358265Y149889D01*
X-360874Y150863D01*
X-357043Y160110D01*
X-355328Y159584D01*
X-351793Y158976D01*
X-348207Y158976D01*
X-344673Y159584D01*
X-342957Y160110D01*
X-342957D01*
X-339126Y150863D01*
D02*
G37*
G36*
X-479126D02*
X-481735Y149889D01*
X-487215Y148900D01*
X-492785Y148900D01*
X-498265Y149889D01*
X-500874Y150863D01*
X-497043Y160110D01*
X-495328Y159584D01*
X-491793Y158976D01*
X-488207Y158976D01*
X-484673Y159584D01*
X-482957Y160110D01*
X-482957D01*
X-479126Y150863D01*
D02*
G37*
G36*
X-368204Y169331D02*
X-366134Y166402D01*
X-363598Y163866D01*
X-360669Y161796D01*
X-359084Y160956D01*
X-362914Y151708D01*
Y151708D01*
X-365447Y152864D01*
X-370022Y156040D01*
X-373960Y159978D01*
X-377136Y164553D01*
X-378292Y167086D01*
X-369044Y170916D01*
X-369044D01*
X-368204Y169331D01*
D02*
G37*
G36*
X-508204D02*
X-506134Y166402D01*
X-503598Y163866D01*
X-500669Y161796D01*
X-499084Y160956D01*
X-502914Y151708D01*
Y151708D01*
X-505447Y152864D01*
X-510022Y156040D01*
X-513960Y159978D01*
X-517136Y164553D01*
X-518292Y167086D01*
X-509044Y170916D01*
X-509044D01*
X-508204Y169331D01*
D02*
G37*
G36*
X-321708Y167086D02*
X-321708D01*
X-322864Y164553D01*
X-326040Y159978D01*
X-329978Y156040D01*
X-334553Y152864D01*
X-337086Y151708D01*
X-340916Y160956D01*
X-340916Y160956D01*
X-339331Y161796D01*
X-336402Y163866D01*
X-333866Y166402D01*
X-331796Y169331D01*
X-330956Y170916D01*
X-321708Y167086D01*
D02*
G37*
G36*
X-461708D02*
X-461708D01*
X-462864Y164553D01*
X-466040Y159978D01*
X-469978Y156040D01*
X-474553Y152864D01*
X-477086Y151708D01*
X-480916Y160956D01*
X-480916Y160956D01*
X-479331Y161796D01*
X-476402Y163866D01*
X-473866Y166402D01*
X-471796Y169331D01*
X-470956Y170916D01*
X-461708Y167086D01*
D02*
G37*
G36*
X-348600Y130500D02*
X-347700Y130300D01*
X-346900Y130000D01*
X-345900Y129500D01*
X-345000Y128900D01*
X-346150Y127750D01*
X-347173Y126762D01*
X-347754Y127115D01*
X-348800Y127500D01*
X-350000Y127636D01*
X-350600Y127600D01*
X-351200Y127500D01*
X-351750Y127350D01*
X-352300Y127100D01*
X-352800Y126850D01*
X-353750Y127800D01*
X-354898Y128953D01*
X-354150Y129500D01*
X-353100Y130000D01*
X-351602Y130462D01*
X-350000Y130600D01*
X-348600Y130500D01*
D02*
G37*
G36*
X-488600D02*
X-487700Y130300D01*
X-486900Y130000D01*
X-485900Y129500D01*
X-485000Y128900D01*
X-486150Y127750D01*
X-487173Y126762D01*
X-487754Y127115D01*
X-488800Y127500D01*
X-490000Y127636D01*
X-490600Y127600D01*
X-491200Y127500D01*
X-491750Y127350D01*
X-492300Y127100D01*
X-492800Y126850D01*
X-493750Y127800D01*
X-494898Y128953D01*
X-494150Y129500D01*
X-493100Y130000D01*
X-491602Y130462D01*
X-490000Y130600D01*
X-488600Y130500D01*
D02*
G37*
G36*
X-355250Y126350D02*
X-354262Y125327D01*
X-354615Y124746D01*
X-355000Y123700D01*
X-355136Y122500D01*
X-355100Y121900D01*
X-355000Y121300D01*
X-354850Y120750D01*
X-354600Y120200D01*
X-354350Y119700D01*
X-355300Y118750D01*
X-356453Y117602D01*
X-357000Y118350D01*
X-357500Y119400D01*
X-357962Y120898D01*
X-358100Y122500D01*
X-358000Y123900D01*
X-357800Y124800D01*
X-357500Y125600D01*
X-357000Y126600D01*
X-356400Y127500D01*
X-355250Y126350D01*
D02*
G37*
G36*
X-495250D02*
X-494262Y125327D01*
X-494615Y124746D01*
X-495000Y123700D01*
X-495136Y122500D01*
X-495100Y121900D01*
X-495000Y121300D01*
X-494850Y120750D01*
X-494600Y120200D01*
X-494350Y119700D01*
X-495300Y118750D01*
X-496453Y117602D01*
X-497000Y118350D01*
X-497500Y119400D01*
X-497962Y120898D01*
X-498100Y122500D01*
X-498000Y123900D01*
X-497800Y124800D01*
X-497500Y125600D01*
X-497000Y126600D01*
X-496400Y127500D01*
X-495250Y126350D01*
D02*
G37*
G36*
X-343000Y126650D02*
X-342500Y125600D01*
X-342038Y124102D01*
X-341900Y122500D01*
X-342000Y121100D01*
X-342200Y120200D01*
X-342500Y119400D01*
X-343000Y118400D01*
X-343600Y117500D01*
X-344750Y118650D01*
X-345738Y119673D01*
X-345385Y120254D01*
X-345000Y121300D01*
X-344864Y122500D01*
X-344900Y123100D01*
X-345000Y123700D01*
X-345150Y124250D01*
X-345400Y124800D01*
X-345650Y125300D01*
X-344700Y126250D01*
X-343547Y127398D01*
X-343000Y126650D01*
D02*
G37*
G36*
X-483000D02*
X-482500Y125600D01*
X-482038Y124102D01*
X-481900Y122500D01*
X-482000Y121100D01*
X-482200Y120200D01*
X-482500Y119400D01*
X-483000Y118400D01*
X-483600Y117500D01*
X-484750Y118650D01*
X-485738Y119673D01*
X-485385Y120254D01*
X-485000Y121300D01*
X-484864Y122500D01*
X-484900Y123100D01*
X-485000Y123700D01*
X-485150Y124250D01*
X-485400Y124800D01*
X-485650Y125300D01*
X-484700Y126250D01*
X-483547Y127398D01*
X-483000Y126650D01*
D02*
G37*
G36*
X-352246Y117885D02*
X-351200Y117500D01*
X-350000Y117364D01*
X-349400Y117400D01*
X-348800Y117500D01*
X-348250Y117650D01*
X-347700Y117900D01*
X-347200Y118150D01*
X-346250Y117200D01*
X-345102Y116047D01*
X-345850Y115500D01*
X-346900Y115000D01*
X-348398Y114538D01*
X-350000Y114400D01*
X-351400Y114500D01*
X-352300Y114700D01*
X-353100Y115000D01*
X-354100Y115500D01*
X-355000Y116100D01*
X-353850Y117250D01*
X-352827Y118238D01*
X-352246Y117885D01*
D02*
G37*
G36*
X-492246D02*
X-491200Y117500D01*
X-490000Y117364D01*
X-489400Y117400D01*
X-488800Y117500D01*
X-488250Y117650D01*
X-487700Y117900D01*
X-487200Y118150D01*
X-486250Y117200D01*
X-485102Y116047D01*
X-485850Y115500D01*
X-486900Y115000D01*
X-488398Y114538D01*
X-490000Y114400D01*
X-491400Y114500D01*
X-492300Y114700D01*
X-493100Y115000D01*
X-494100Y115500D01*
X-495000Y116100D01*
X-493850Y117250D01*
X-492827Y118238D01*
X-492246Y117885D01*
D02*
G37*
G36*
X-57086Y428292D02*
D01*
X-57086Y428292D01*
X-57086Y428292D01*
D02*
G37*
G36*
X-197086D02*
D01*
X-197086Y428292D01*
X-197086Y428292D01*
D02*
G37*
G36*
X-67215Y431100D02*
X-61735Y430111D01*
X-59126Y429137D01*
X-59126Y429137D01*
X-62957Y419890D01*
X-64672Y420416D01*
X-68207Y421024D01*
X-71793Y421024D01*
X-75328Y420416D01*
X-77043Y419890D01*
X-77043Y419890D01*
X-80874Y429137D01*
X-78265Y430111D01*
X-72785Y431100D01*
X-67215Y431100D01*
D02*
G37*
G36*
X-207215D02*
X-201735Y430111D01*
X-199126Y429137D01*
X-199126Y429137D01*
X-202957Y419890D01*
X-204673Y420416D01*
X-208207Y421024D01*
X-211793Y421024D01*
X-215328Y420416D01*
X-217043Y419890D01*
X-217043Y419890D01*
X-220874Y429137D01*
X-218265Y430111D01*
X-212785Y431100D01*
X-207215Y431100D01*
D02*
G37*
G36*
X-98292Y412914D02*
D01*
X-98292Y412914D01*
X-98292Y412914D01*
D02*
G37*
G36*
X-238292D02*
D01*
X-238292Y412914D01*
X-238292Y412914D01*
D02*
G37*
G36*
X-79084Y419044D02*
Y419044D01*
X-80669Y418204D01*
X-83598Y416134D01*
X-86134Y413598D01*
X-88204Y410669D01*
X-89045Y409084D01*
X-98292Y412914D01*
X-97136Y415447D01*
X-93960Y420022D01*
X-90022Y423960D01*
X-85447Y427136D01*
X-82914Y428292D01*
X-79084Y419044D01*
D02*
G37*
G36*
X-219084D02*
Y419044D01*
X-220669Y418204D01*
X-223598Y416134D01*
X-226134Y413598D01*
X-228204Y410669D01*
X-229044Y409084D01*
X-238292Y412914D01*
X-237136Y415447D01*
X-233960Y420022D01*
X-230022Y423960D01*
X-225447Y427136D01*
X-222914Y428292D01*
X-219084Y419044D01*
D02*
G37*
G36*
X-54553Y427136D02*
X-49978Y423960D01*
X-46040Y420022D01*
X-42864Y415447D01*
X-41708Y412914D01*
X-50956Y409084D01*
X-50956Y409084D01*
X-51796Y410669D01*
X-53866Y413598D01*
X-56402Y416134D01*
X-59331Y418204D01*
X-60916Y419044D01*
X-57086Y428292D01*
X-54553Y427136D01*
D02*
G37*
G36*
X-194553D02*
X-189978Y423960D01*
X-186040Y420022D01*
X-182864Y415447D01*
X-181708Y412914D01*
X-190956Y409084D01*
X-190956Y409084D01*
X-191796Y410669D01*
X-193866Y413598D01*
X-196402Y416134D01*
X-199331Y418204D01*
X-200916Y419044D01*
X-197086Y428292D01*
X-194553Y427136D01*
D02*
G37*
G36*
X-39889Y408265D02*
X-38900Y402785D01*
X-38900Y397215D01*
X-39889Y391735D01*
X-40863Y389126D01*
X-40863D01*
X-40863D01*
D01*
X-50110Y392957D01*
X-49584Y394672D01*
X-48976Y398207D01*
X-48976Y401793D01*
X-49584Y405327D01*
X-50110Y407043D01*
X-50110Y407043D01*
X-40863Y410874D01*
X-39889Y408265D01*
D02*
G37*
G36*
X-89890Y407043D02*
X-90416Y405327D01*
X-91024Y401793D01*
X-91024Y398207D01*
X-90416Y394672D01*
X-89890Y392957D01*
Y392957D01*
X-99137Y389126D01*
X-100111Y391735D01*
X-101100Y397215D01*
X-101100Y402785D01*
X-100111Y408265D01*
X-99137Y410874D01*
Y410874D01*
X-89890Y407043D01*
D02*
G37*
G36*
X-179889Y408265D02*
X-178900Y402785D01*
X-178900Y397215D01*
X-179889Y391735D01*
X-180863Y389126D01*
X-180863D01*
X-180863D01*
D01*
X-190110Y392957D01*
X-189584Y394672D01*
X-188976Y398207D01*
X-188976Y401793D01*
X-189584Y405327D01*
X-190110Y407043D01*
X-190110Y407043D01*
X-180863Y410874D01*
X-179889Y408265D01*
D02*
G37*
G36*
X-229890Y407043D02*
X-230416Y405327D01*
X-231024Y401793D01*
X-231024Y398207D01*
X-230416Y394672D01*
X-229890Y392957D01*
Y392957D01*
X-239137Y389126D01*
X-240111Y391735D01*
X-241100Y397215D01*
X-241100Y402785D01*
X-240111Y408265D01*
X-239137Y410874D01*
Y410874D01*
X-229890Y407043D01*
D02*
G37*
G36*
X-59126Y370863D02*
X-61735Y369889D01*
X-67215Y368900D01*
X-72785Y368900D01*
X-78265Y369889D01*
X-80874Y370863D01*
X-77043Y380110D01*
X-75328Y379584D01*
X-71793Y378976D01*
X-68207Y378976D01*
X-64672Y379584D01*
X-62957Y380110D01*
X-62957D01*
X-59126Y370863D01*
D02*
G37*
G36*
X-199126D02*
X-201735Y369889D01*
X-207215Y368900D01*
X-212785Y368900D01*
X-218265Y369889D01*
X-220874Y370863D01*
X-217043Y380110D01*
X-215328Y379584D01*
X-211793Y378976D01*
X-208207Y378976D01*
X-204673Y379584D01*
X-202957Y380110D01*
X-202957D01*
X-199126Y370863D01*
D02*
G37*
G36*
X-88204Y389331D02*
X-86134Y386402D01*
X-83598Y383866D01*
X-80669Y381796D01*
X-79084Y380956D01*
X-82914Y371708D01*
Y371708D01*
X-85447Y372864D01*
X-90022Y376040D01*
X-93960Y379978D01*
X-97136Y384553D01*
X-98292Y387086D01*
X-89045Y390916D01*
X-89044D01*
X-88204Y389331D01*
D02*
G37*
G36*
X-228204D02*
X-226134Y386402D01*
X-223598Y383866D01*
X-220669Y381796D01*
X-219084Y380956D01*
X-222914Y371708D01*
Y371708D01*
X-225447Y372864D01*
X-230022Y376040D01*
X-233960Y379978D01*
X-237136Y384553D01*
X-238292Y387086D01*
X-229044Y390916D01*
X-229044D01*
X-228204Y389331D01*
D02*
G37*
G36*
X-41708Y387086D02*
X-41708D01*
X-42864Y384553D01*
X-46040Y379978D01*
X-49978Y376040D01*
X-54553Y372864D01*
X-57086Y371708D01*
X-60916Y380956D01*
X-60916Y380956D01*
X-59331Y381796D01*
X-56402Y383866D01*
X-53866Y386402D01*
X-51796Y389331D01*
X-50956Y390916D01*
X-41708Y387086D01*
D02*
G37*
G36*
X-181708D02*
X-181708D01*
X-182864Y384553D01*
X-186040Y379978D01*
X-189978Y376040D01*
X-194553Y372864D01*
X-197086Y371708D01*
X-200916Y380956D01*
X-200916Y380956D01*
X-199331Y381796D01*
X-196402Y383866D01*
X-193866Y386402D01*
X-191796Y389331D01*
X-190956Y390916D01*
X-181708Y387086D01*
D02*
G37*
G36*
X-57086Y208292D02*
D01*
X-57086Y208292D01*
X-57086Y208292D01*
D02*
G37*
G36*
X-197086D02*
D01*
X-197086Y208292D01*
X-197086Y208292D01*
D02*
G37*
G36*
X-67215Y211100D02*
X-61735Y210111D01*
X-59126Y209137D01*
X-59126Y209137D01*
X-62957Y199890D01*
X-64672Y200416D01*
X-68207Y201024D01*
X-71793Y201024D01*
X-75328Y200416D01*
X-77043Y199890D01*
X-77043Y199890D01*
X-80874Y209137D01*
X-78265Y210111D01*
X-72785Y211100D01*
X-67215Y211100D01*
D02*
G37*
G36*
X-207215D02*
X-201735Y210111D01*
X-199126Y209137D01*
X-199126Y209137D01*
X-202957Y199890D01*
X-204673Y200416D01*
X-208207Y201024D01*
X-211793Y201024D01*
X-215328Y200416D01*
X-217043Y199890D01*
X-217043Y199890D01*
X-220874Y209137D01*
X-218265Y210111D01*
X-212785Y211100D01*
X-207215Y211100D01*
D02*
G37*
G36*
X-98292Y192914D02*
D01*
X-98292Y192914D01*
X-98292Y192914D01*
D02*
G37*
G36*
X-238292D02*
D01*
X-238292Y192914D01*
X-238292Y192914D01*
D02*
G37*
G36*
X-79084Y199044D02*
Y199044D01*
X-80669Y198204D01*
X-83598Y196134D01*
X-86134Y193598D01*
X-88204Y190669D01*
X-89045Y189084D01*
X-98292Y192914D01*
X-97136Y195447D01*
X-93960Y200022D01*
X-90022Y203960D01*
X-85447Y207136D01*
X-82914Y208292D01*
X-79084Y199044D01*
D02*
G37*
G36*
X-219084D02*
Y199044D01*
X-220669Y198204D01*
X-223598Y196134D01*
X-226134Y193598D01*
X-228204Y190669D01*
X-229044Y189084D01*
X-238292Y192914D01*
X-237136Y195447D01*
X-233960Y200022D01*
X-230022Y203960D01*
X-225447Y207136D01*
X-222914Y208292D01*
X-219084Y199044D01*
D02*
G37*
G36*
X-54553Y207136D02*
X-49978Y203960D01*
X-46040Y200022D01*
X-42864Y195447D01*
X-41708Y192914D01*
X-50956Y189084D01*
X-50956Y189084D01*
X-51796Y190669D01*
X-53866Y193598D01*
X-56402Y196134D01*
X-59331Y198204D01*
X-60916Y199044D01*
X-57086Y208292D01*
X-54553Y207136D01*
D02*
G37*
G36*
X-194553D02*
X-189978Y203960D01*
X-186040Y200022D01*
X-182864Y195447D01*
X-181708Y192914D01*
X-190956Y189084D01*
X-190956Y189084D01*
X-191796Y190669D01*
X-193866Y193598D01*
X-196402Y196134D01*
X-199331Y198204D01*
X-200916Y199044D01*
X-197086Y208292D01*
X-194553Y207136D01*
D02*
G37*
G36*
X-39889Y188265D02*
X-38900Y182785D01*
X-38900Y177215D01*
X-39889Y171735D01*
X-40863Y169126D01*
X-40863D01*
X-40863D01*
D01*
X-50110Y172957D01*
X-49584Y174672D01*
X-48976Y178207D01*
X-48976Y181793D01*
X-49584Y185327D01*
X-50110Y187043D01*
X-50110Y187043D01*
X-40863Y190874D01*
X-39889Y188265D01*
D02*
G37*
G36*
X-89890Y187043D02*
X-90416Y185327D01*
X-91024Y181793D01*
X-91024Y178207D01*
X-90416Y174672D01*
X-89890Y172957D01*
Y172957D01*
X-99137Y169126D01*
X-100111Y171735D01*
X-101100Y177215D01*
X-101100Y182785D01*
X-100111Y188265D01*
X-99137Y190874D01*
Y190874D01*
X-89890Y187043D01*
D02*
G37*
G36*
X-179889Y188265D02*
X-178900Y182785D01*
X-178900Y177215D01*
X-179889Y171735D01*
X-180863Y169126D01*
X-180863D01*
X-180863D01*
D01*
X-190110Y172957D01*
X-189584Y174672D01*
X-188976Y178207D01*
X-188976Y181793D01*
X-189584Y185327D01*
X-190110Y187043D01*
X-190110Y187043D01*
X-180863Y190874D01*
X-179889Y188265D01*
D02*
G37*
G36*
X-229890Y187043D02*
X-230416Y185327D01*
X-231024Y181793D01*
X-231024Y178207D01*
X-230416Y174672D01*
X-229890Y172957D01*
Y172957D01*
X-239137Y169126D01*
X-240111Y171735D01*
X-241100Y177215D01*
X-241100Y182785D01*
X-240111Y188265D01*
X-239137Y190874D01*
Y190874D01*
X-229890Y187043D01*
D02*
G37*
G36*
X-59126Y150863D02*
X-61735Y149889D01*
X-67215Y148900D01*
X-72785Y148900D01*
X-78265Y149889D01*
X-80874Y150863D01*
X-77043Y160110D01*
X-75328Y159584D01*
X-71793Y158976D01*
X-68207Y158976D01*
X-64672Y159584D01*
X-62957Y160110D01*
X-62957D01*
X-59126Y150863D01*
D02*
G37*
G36*
X-199126D02*
X-201735Y149889D01*
X-207215Y148900D01*
X-212785Y148900D01*
X-218265Y149889D01*
X-220874Y150863D01*
X-217043Y160110D01*
X-215328Y159584D01*
X-211793Y158976D01*
X-208207Y158976D01*
X-204673Y159584D01*
X-202957Y160110D01*
X-202957D01*
X-199126Y150863D01*
D02*
G37*
G36*
X-88204Y169331D02*
X-86134Y166402D01*
X-83598Y163866D01*
X-80669Y161796D01*
X-79084Y160956D01*
X-82914Y151708D01*
Y151708D01*
X-85447Y152864D01*
X-90022Y156040D01*
X-93960Y159978D01*
X-97136Y164553D01*
X-98292Y167086D01*
X-89045Y170916D01*
X-89044D01*
X-88204Y169331D01*
D02*
G37*
G36*
X-228204D02*
X-226134Y166402D01*
X-223598Y163866D01*
X-220669Y161796D01*
X-219084Y160956D01*
X-222914Y151708D01*
Y151708D01*
X-225447Y152864D01*
X-230022Y156040D01*
X-233960Y159978D01*
X-237136Y164553D01*
X-238292Y167086D01*
X-229044Y170916D01*
X-229044D01*
X-228204Y169331D01*
D02*
G37*
G36*
X-41708Y167086D02*
X-41708D01*
X-42864Y164553D01*
X-46040Y159978D01*
X-49978Y156040D01*
X-54553Y152864D01*
X-57086Y151708D01*
X-60916Y160956D01*
X-60916Y160956D01*
X-59331Y161796D01*
X-56402Y163866D01*
X-53866Y166402D01*
X-51796Y169331D01*
X-50956Y170916D01*
X-41708Y167086D01*
D02*
G37*
G36*
X-181708D02*
X-181708D01*
X-182864Y164553D01*
X-186040Y159978D01*
X-189978Y156040D01*
X-194553Y152864D01*
X-197086Y151708D01*
X-200916Y160956D01*
X-200916Y160956D01*
X-199331Y161796D01*
X-196402Y163866D01*
X-193866Y166402D01*
X-191796Y169331D01*
X-190956Y170916D01*
X-181708Y167086D01*
D02*
G37*
G36*
X-68600Y130500D02*
X-67700Y130300D01*
X-66900Y130000D01*
X-65900Y129500D01*
X-65000Y128900D01*
X-66150Y127750D01*
X-67173Y126762D01*
X-67754Y127115D01*
X-68800Y127500D01*
X-70000Y127636D01*
X-70600Y127600D01*
X-71200Y127500D01*
X-71750Y127350D01*
X-72300Y127100D01*
X-72800Y126850D01*
X-73750Y127800D01*
X-74898Y128953D01*
X-74150Y129500D01*
X-73100Y130000D01*
X-71602Y130462D01*
X-70000Y130600D01*
X-68600Y130500D01*
D02*
G37*
G36*
X-208600D02*
X-207700Y130300D01*
X-206900Y130000D01*
X-205900Y129500D01*
X-205000Y128900D01*
X-206150Y127750D01*
X-207173Y126762D01*
X-207754Y127115D01*
X-208800Y127500D01*
X-210000Y127636D01*
X-210600Y127600D01*
X-211200Y127500D01*
X-211750Y127350D01*
X-212300Y127100D01*
X-212800Y126850D01*
X-213750Y127800D01*
X-214898Y128953D01*
X-214150Y129500D01*
X-213100Y130000D01*
X-211602Y130462D01*
X-210000Y130600D01*
X-208600Y130500D01*
D02*
G37*
G36*
X-75250Y126350D02*
X-74262Y125327D01*
X-74615Y124746D01*
X-75000Y123700D01*
X-75136Y122500D01*
X-75100Y121900D01*
X-75000Y121300D01*
X-74850Y120750D01*
X-74600Y120200D01*
X-74350Y119700D01*
X-75300Y118750D01*
X-76453Y117602D01*
X-77000Y118350D01*
X-77500Y119400D01*
X-77962Y120898D01*
X-78100Y122500D01*
X-78000Y123900D01*
X-77800Y124800D01*
X-77500Y125600D01*
X-77000Y126600D01*
X-76400Y127500D01*
X-75250Y126350D01*
D02*
G37*
G36*
X-215250D02*
X-214262Y125327D01*
X-214615Y124746D01*
X-215000Y123700D01*
X-215136Y122500D01*
X-215100Y121900D01*
X-215000Y121300D01*
X-214850Y120750D01*
X-214600Y120200D01*
X-214350Y119700D01*
X-215300Y118750D01*
X-216453Y117602D01*
X-217000Y118350D01*
X-217500Y119400D01*
X-217962Y120898D01*
X-218100Y122500D01*
X-218000Y123900D01*
X-217800Y124800D01*
X-217500Y125600D01*
X-217000Y126600D01*
X-216400Y127500D01*
X-215250Y126350D01*
D02*
G37*
G36*
X-63000Y126650D02*
X-62500Y125600D01*
X-62038Y124102D01*
X-61900Y122500D01*
X-62000Y121100D01*
X-62200Y120200D01*
X-62500Y119400D01*
X-63000Y118400D01*
X-63600Y117500D01*
X-64750Y118650D01*
X-65738Y119673D01*
X-65385Y120254D01*
X-65000Y121300D01*
X-64864Y122500D01*
X-64900Y123100D01*
X-65000Y123700D01*
X-65150Y124250D01*
X-65400Y124800D01*
X-65650Y125300D01*
X-64700Y126250D01*
X-63547Y127398D01*
X-63000Y126650D01*
D02*
G37*
G36*
X-203000D02*
X-202500Y125600D01*
X-202038Y124102D01*
X-201900Y122500D01*
X-202000Y121100D01*
X-202200Y120200D01*
X-202500Y119400D01*
X-203000Y118400D01*
X-203600Y117500D01*
X-204750Y118650D01*
X-205738Y119673D01*
X-205385Y120254D01*
X-205000Y121300D01*
X-204864Y122500D01*
X-204900Y123100D01*
X-205000Y123700D01*
X-205150Y124250D01*
X-205400Y124800D01*
X-205650Y125300D01*
X-204700Y126250D01*
X-203547Y127398D01*
X-203000Y126650D01*
D02*
G37*
G36*
X-72246Y117885D02*
X-71200Y117500D01*
X-70000Y117364D01*
X-69400Y117400D01*
X-68800Y117500D01*
X-68250Y117650D01*
X-67700Y117900D01*
X-67200Y118150D01*
X-66250Y117200D01*
X-65102Y116047D01*
X-65850Y115500D01*
X-66900Y115000D01*
X-68398Y114538D01*
X-70000Y114400D01*
X-71400Y114500D01*
X-72300Y114700D01*
X-73100Y115000D01*
X-74100Y115500D01*
X-75000Y116100D01*
X-73850Y117250D01*
X-72827Y118238D01*
X-72246Y117885D01*
D02*
G37*
G36*
X-212246D02*
X-211200Y117500D01*
X-210000Y117364D01*
X-209400Y117400D01*
X-208800Y117500D01*
X-208250Y117650D01*
X-207700Y117900D01*
X-207200Y118150D01*
X-206250Y117200D01*
X-205102Y116047D01*
X-205850Y115500D01*
X-206900Y115000D01*
X-208398Y114538D01*
X-210000Y114400D01*
X-211400Y114500D01*
X-212300Y114700D01*
X-213100Y115000D01*
X-214100Y115500D01*
X-215000Y116100D01*
X-213850Y117250D01*
X-212827Y118238D01*
X-212246Y117885D01*
D02*
G37*
G36*
X222914Y-11708D02*
D01*
X222914Y-11708D01*
X222914Y-11708D01*
D02*
G37*
G36*
X82914D02*
D01*
X82914Y-11708D01*
X82914Y-11708D01*
D02*
G37*
G36*
X212785Y-8900D02*
X218265Y-9889D01*
X220874Y-10863D01*
X220874Y-10863D01*
X217043Y-20110D01*
X215328Y-19584D01*
X211793Y-18976D01*
X208207Y-18976D01*
X204673Y-19584D01*
X202957Y-20110D01*
X202957Y-20110D01*
X199126Y-10863D01*
X201735Y-9889D01*
X207215Y-8900D01*
X212785Y-8900D01*
D02*
G37*
G36*
X72785D02*
X78265Y-9889D01*
X80874Y-10863D01*
X80874Y-10863D01*
X77043Y-20110D01*
X75328Y-19584D01*
X71793Y-18976D01*
X68207Y-18976D01*
X64672Y-19584D01*
X62957Y-20110D01*
X62957Y-20110D01*
X59126Y-10863D01*
X61735Y-9889D01*
X67215Y-8900D01*
X72785Y-8900D01*
D02*
G37*
G36*
X181708Y-27086D02*
D01*
X181708Y-27086D01*
X181708Y-27086D01*
D02*
G37*
G36*
X41708D02*
D01*
X41708Y-27086D01*
X41708Y-27086D01*
D02*
G37*
G36*
X200916Y-20956D02*
Y-20956D01*
X199331Y-21796D01*
X196402Y-23866D01*
X193866Y-26402D01*
X191796Y-29331D01*
X190956Y-30916D01*
X181708Y-27086D01*
X182864Y-24553D01*
X186040Y-19978D01*
X189978Y-16040D01*
X194553Y-12864D01*
X197086Y-11708D01*
X200916Y-20956D01*
D02*
G37*
G36*
X60916D02*
Y-20956D01*
X59331Y-21796D01*
X56402Y-23866D01*
X53866Y-26402D01*
X51796Y-29331D01*
X50956Y-30916D01*
X41708Y-27086D01*
X42864Y-24553D01*
X46040Y-19978D01*
X49978Y-16040D01*
X54553Y-12864D01*
X57086Y-11708D01*
X60916Y-20956D01*
D02*
G37*
G36*
X225447Y-12864D02*
X230022Y-16040D01*
X233960Y-19978D01*
X237136Y-24553D01*
X238292Y-27086D01*
X229044Y-30916D01*
X229044Y-30916D01*
X228204Y-29331D01*
X226134Y-26402D01*
X223598Y-23866D01*
X220669Y-21796D01*
X219084Y-20956D01*
X222914Y-11708D01*
X225447Y-12864D01*
D02*
G37*
G36*
X85447D02*
X90022Y-16040D01*
X93960Y-19978D01*
X97136Y-24553D01*
X98292Y-27086D01*
X89045Y-30916D01*
X89044Y-30916D01*
X88204Y-29331D01*
X86134Y-26402D01*
X83598Y-23866D01*
X80669Y-21796D01*
X79084Y-20956D01*
X82914Y-11708D01*
X85447Y-12864D01*
D02*
G37*
G36*
X240111Y-31735D02*
X241100Y-37215D01*
X241100Y-42785D01*
X240111Y-48265D01*
X239137Y-50874D01*
X239137D01*
X239137D01*
D01*
X229890Y-47043D01*
X230416Y-45328D01*
X231024Y-41793D01*
X231024Y-38207D01*
X230416Y-34673D01*
X229890Y-32957D01*
X229890Y-32957D01*
X239137Y-29126D01*
X240111Y-31735D01*
D02*
G37*
G36*
X190110Y-32957D02*
X189584Y-34672D01*
X188976Y-38207D01*
X188976Y-41793D01*
X189584Y-45328D01*
X190110Y-47043D01*
Y-47043D01*
X180863Y-50874D01*
X179889Y-48265D01*
X178900Y-42785D01*
X178900Y-37215D01*
X179889Y-31735D01*
X180863Y-29126D01*
Y-29126D01*
X190110Y-32957D01*
D02*
G37*
G36*
X100111Y-31735D02*
X101100Y-37215D01*
X101100Y-42785D01*
X100111Y-48265D01*
X99137Y-50874D01*
X99137D01*
X99137D01*
D01*
X89890Y-47043D01*
X90416Y-45328D01*
X91024Y-41793D01*
X91024Y-38207D01*
X90416Y-34673D01*
X89890Y-32957D01*
X89890Y-32957D01*
X99137Y-29126D01*
X100111Y-31735D01*
D02*
G37*
G36*
X50110Y-32957D02*
X49584Y-34672D01*
X48976Y-38207D01*
X48976Y-41793D01*
X49584Y-45328D01*
X50110Y-47043D01*
Y-47043D01*
X40863Y-50874D01*
X39889Y-48265D01*
X38900Y-42785D01*
X38900Y-37215D01*
X39889Y-31735D01*
X40863Y-29126D01*
Y-29126D01*
X50110Y-32957D01*
D02*
G37*
G36*
X220874Y-69137D02*
X218265Y-70111D01*
X212785Y-71100D01*
X207215Y-71100D01*
X201735Y-70111D01*
X199126Y-69137D01*
X202957Y-59890D01*
X204672Y-60416D01*
X208207Y-61024D01*
X211793Y-61024D01*
X215327Y-60416D01*
X217043Y-59890D01*
X217043D01*
X220874Y-69137D01*
D02*
G37*
G36*
X80874D02*
X78265Y-70111D01*
X72785Y-71100D01*
X67215Y-71100D01*
X61735Y-70111D01*
X59126Y-69137D01*
X62957Y-59890D01*
X64672Y-60416D01*
X68207Y-61024D01*
X71793Y-61024D01*
X75328Y-60416D01*
X77043Y-59890D01*
X77043D01*
X80874Y-69137D01*
D02*
G37*
G36*
X191796Y-50669D02*
X193866Y-53598D01*
X196402Y-56134D01*
X199331Y-58204D01*
X200916Y-59044D01*
X197086Y-68292D01*
Y-68292D01*
X194553Y-67136D01*
X189978Y-63960D01*
X186040Y-60022D01*
X182864Y-55447D01*
X181708Y-52914D01*
X190956Y-49084D01*
X190956D01*
X191796Y-50669D01*
D02*
G37*
G36*
X51796D02*
X53866Y-53598D01*
X56402Y-56134D01*
X59331Y-58204D01*
X60916Y-59044D01*
X57086Y-68292D01*
Y-68292D01*
X54553Y-67136D01*
X49978Y-63960D01*
X46040Y-60022D01*
X42864Y-55447D01*
X41708Y-52914D01*
X50956Y-49084D01*
X50956D01*
X51796Y-50669D01*
D02*
G37*
G36*
X238292Y-52914D02*
X238292D01*
X237136Y-55447D01*
X233960Y-60022D01*
X230022Y-63960D01*
X225447Y-67136D01*
X222914Y-68292D01*
X219084Y-59044D01*
X219084Y-59044D01*
X220669Y-58204D01*
X223598Y-56134D01*
X226134Y-53598D01*
X228204Y-50669D01*
X229044Y-49084D01*
X238292Y-52914D01*
D02*
G37*
G36*
X98292D02*
X98292D01*
X97136Y-55447D01*
X93960Y-60022D01*
X90022Y-63960D01*
X85447Y-67136D01*
X82914Y-68292D01*
X79084Y-59044D01*
X79084Y-59044D01*
X80669Y-58204D01*
X83598Y-56134D01*
X86134Y-53598D01*
X88204Y-50669D01*
X89045Y-49084D01*
X98292Y-52914D01*
D02*
G37*
G36*
X222914Y-231708D02*
D01*
X222914Y-231708D01*
X222914Y-231708D01*
D02*
G37*
G36*
X82914D02*
D01*
X82914Y-231708D01*
X82914Y-231708D01*
D02*
G37*
G36*
X212785Y-228900D02*
X218265Y-229889D01*
X220874Y-230863D01*
X220874Y-230863D01*
X217043Y-240110D01*
X215328Y-239584D01*
X211793Y-238976D01*
X208207Y-238976D01*
X204673Y-239584D01*
X202957Y-240110D01*
X202957Y-240110D01*
X199126Y-230863D01*
X201735Y-229889D01*
X207215Y-228900D01*
X212785Y-228900D01*
D02*
G37*
G36*
X72785D02*
X78265Y-229889D01*
X80874Y-230863D01*
X80874Y-230863D01*
X77043Y-240110D01*
X75328Y-239584D01*
X71793Y-238976D01*
X68207Y-238976D01*
X64672Y-239584D01*
X62957Y-240110D01*
X62957Y-240110D01*
X59126Y-230863D01*
X61735Y-229889D01*
X67215Y-228900D01*
X72785Y-228900D01*
D02*
G37*
G36*
X60916Y-240956D02*
Y-240956D01*
X59331Y-241796D01*
X56402Y-243866D01*
X53866Y-246402D01*
X51796Y-249331D01*
X50956Y-250916D01*
X41708Y-247086D01*
D01*
X41708Y-247086D01*
X41708Y-247086D01*
X42864Y-244553D01*
X46040Y-239978D01*
X49978Y-236040D01*
X54553Y-232864D01*
X57086Y-231708D01*
X60916Y-240956D01*
D02*
G37*
G36*
X181708Y-247086D02*
D01*
X181708Y-247086D01*
X181708Y-247086D01*
D02*
G37*
G36*
X200916Y-240956D02*
Y-240956D01*
X199331Y-241796D01*
X196402Y-243866D01*
X193866Y-246402D01*
X191796Y-249331D01*
X190956Y-250916D01*
X181708Y-247086D01*
X182864Y-244553D01*
X186040Y-239978D01*
X189978Y-236040D01*
X194553Y-232864D01*
X197086Y-231708D01*
X200916Y-240956D01*
D02*
G37*
G36*
X225447Y-232864D02*
X230022Y-236040D01*
X233960Y-239978D01*
X237136Y-244553D01*
X238292Y-247086D01*
X229044Y-250916D01*
X229044Y-250916D01*
X228204Y-249331D01*
X226134Y-246402D01*
X223598Y-243866D01*
X220669Y-241796D01*
X219084Y-240956D01*
X222914Y-231708D01*
X225447Y-232864D01*
D02*
G37*
G36*
X85447D02*
X90022Y-236040D01*
X93960Y-239978D01*
X97136Y-244553D01*
X98292Y-247086D01*
X89045Y-250916D01*
X89044Y-250916D01*
X88204Y-249331D01*
X86134Y-246402D01*
X83598Y-243866D01*
X80669Y-241796D01*
X79084Y-240956D01*
X82914Y-231708D01*
X85447Y-232864D01*
D02*
G37*
G36*
X240111Y-251735D02*
X241100Y-257215D01*
X241100Y-262785D01*
X240111Y-268265D01*
X239137Y-270874D01*
X239137D01*
X239137D01*
D01*
X229890Y-267043D01*
X230416Y-265328D01*
X231024Y-261793D01*
X231024Y-258207D01*
X230416Y-254673D01*
X229890Y-252957D01*
X229890Y-252957D01*
X239137Y-249126D01*
X240111Y-251735D01*
D02*
G37*
G36*
X190110Y-252957D02*
X189584Y-254672D01*
X188976Y-258207D01*
X188976Y-261793D01*
X189584Y-265327D01*
X190110Y-267043D01*
Y-267043D01*
X180863Y-270874D01*
X179889Y-268265D01*
X178900Y-262785D01*
X178900Y-257215D01*
X179889Y-251735D01*
X180863Y-249126D01*
Y-249126D01*
X190110Y-252957D01*
D02*
G37*
G36*
X100111Y-251735D02*
X101100Y-257215D01*
X101100Y-262785D01*
X100111Y-268265D01*
X99137Y-270874D01*
X99137D01*
X99137D01*
D01*
X89890Y-267043D01*
X90416Y-265328D01*
X91024Y-261793D01*
X91024Y-258207D01*
X90416Y-254673D01*
X89890Y-252957D01*
X89890Y-252957D01*
X99137Y-249126D01*
X100111Y-251735D01*
D02*
G37*
G36*
X50110Y-252957D02*
X49584Y-254672D01*
X48976Y-258207D01*
X48976Y-261793D01*
X49584Y-265327D01*
X50110Y-267043D01*
Y-267043D01*
X40863Y-270874D01*
X39889Y-268265D01*
X38900Y-262785D01*
X38900Y-257215D01*
X39889Y-251735D01*
X40863Y-249126D01*
Y-249126D01*
X50110Y-252957D01*
D02*
G37*
G36*
X220874Y-289137D02*
X218265Y-290111D01*
X212785Y-291100D01*
X207215Y-291100D01*
X201735Y-290111D01*
X199126Y-289137D01*
X202957Y-279890D01*
X204672Y-280416D01*
X208207Y-281024D01*
X211793Y-281024D01*
X215327Y-280416D01*
X217043Y-279890D01*
X217043D01*
X220874Y-289137D01*
D02*
G37*
G36*
X80874D02*
X78265Y-290111D01*
X72785Y-291100D01*
X67215Y-291100D01*
X61735Y-290111D01*
X59126Y-289137D01*
X62957Y-279890D01*
X64672Y-280416D01*
X68207Y-281024D01*
X71793Y-281024D01*
X75328Y-280416D01*
X77043Y-279890D01*
X77043D01*
X80874Y-289137D01*
D02*
G37*
G36*
X191796Y-270669D02*
X193866Y-273598D01*
X196402Y-276134D01*
X199331Y-278204D01*
X200916Y-279044D01*
X197086Y-288292D01*
Y-288292D01*
X194553Y-287136D01*
X189978Y-283960D01*
X186040Y-280022D01*
X182864Y-275447D01*
X181708Y-272914D01*
X190956Y-269084D01*
X190956D01*
X191796Y-270669D01*
D02*
G37*
G36*
X51796D02*
X53866Y-273598D01*
X56402Y-276134D01*
X59331Y-278204D01*
X60916Y-279044D01*
X57086Y-288292D01*
Y-288292D01*
X54553Y-287136D01*
X49978Y-283960D01*
X46040Y-280022D01*
X42864Y-275447D01*
X41708Y-272914D01*
X50956Y-269084D01*
X50956D01*
X51796Y-270669D01*
D02*
G37*
G36*
X238292Y-272914D02*
X238292D01*
X237136Y-275447D01*
X233960Y-280022D01*
X230022Y-283960D01*
X225447Y-287136D01*
X222914Y-288292D01*
X219084Y-279044D01*
X219084Y-279044D01*
X220669Y-278204D01*
X223598Y-276134D01*
X226134Y-273598D01*
X228204Y-270669D01*
X229044Y-269084D01*
X238292Y-272914D01*
D02*
G37*
G36*
X98292D02*
X98292D01*
X97136Y-275447D01*
X93960Y-280022D01*
X90022Y-283960D01*
X85447Y-287136D01*
X82914Y-288292D01*
X79084Y-279044D01*
X79084Y-279044D01*
X80669Y-278204D01*
X83598Y-276134D01*
X86134Y-273598D01*
X88204Y-270669D01*
X89045Y-269084D01*
X98292Y-272914D01*
D02*
G37*
G36*
X211400Y-309500D02*
X212300Y-309700D01*
X213100Y-310000D01*
X214100Y-310500D01*
X215000Y-311100D01*
X213850Y-312250D01*
X212827Y-313238D01*
X212246Y-312885D01*
X211200Y-312500D01*
X210000Y-312364D01*
X209400Y-312400D01*
X208800Y-312500D01*
X208250Y-312650D01*
X207700Y-312900D01*
X207200Y-313150D01*
X206250Y-312200D01*
X205102Y-311047D01*
X205850Y-310500D01*
X206900Y-310000D01*
X208398Y-309538D01*
X210000Y-309400D01*
X211400Y-309500D01*
D02*
G37*
G36*
X71400D02*
X72300Y-309700D01*
X73100Y-310000D01*
X74100Y-310500D01*
X75000Y-311100D01*
X73850Y-312250D01*
X72827Y-313238D01*
X72246Y-312885D01*
X71200Y-312500D01*
X70000Y-312364D01*
X69400Y-312400D01*
X68800Y-312500D01*
X68250Y-312650D01*
X67700Y-312900D01*
X67200Y-313150D01*
X66250Y-312200D01*
X65102Y-311047D01*
X65850Y-310500D01*
X66900Y-310000D01*
X68398Y-309538D01*
X70000Y-309400D01*
X71400Y-309500D01*
D02*
G37*
G36*
X204750Y-313650D02*
X205738Y-314673D01*
X205385Y-315254D01*
X205000Y-316300D01*
X204864Y-317500D01*
X204900Y-318100D01*
X205000Y-318700D01*
X205150Y-319250D01*
X205400Y-319800D01*
X205650Y-320300D01*
X204700Y-321250D01*
X203547Y-322398D01*
X203000Y-321650D01*
X202500Y-320600D01*
X202038Y-319102D01*
X201900Y-317500D01*
X202000Y-316100D01*
X202200Y-315200D01*
X202500Y-314400D01*
X203000Y-313400D01*
X203600Y-312500D01*
X204750Y-313650D01*
D02*
G37*
G36*
X64750D02*
X65738Y-314673D01*
X65385Y-315254D01*
X65000Y-316300D01*
X64864Y-317500D01*
X64900Y-318100D01*
X65000Y-318700D01*
X65150Y-319250D01*
X65400Y-319800D01*
X65650Y-320300D01*
X64700Y-321250D01*
X63547Y-322398D01*
X63000Y-321650D01*
X62500Y-320600D01*
X62038Y-319102D01*
X61900Y-317500D01*
X62000Y-316100D01*
X62200Y-315200D01*
X62500Y-314400D01*
X63000Y-313400D01*
X63600Y-312500D01*
X64750Y-313650D01*
D02*
G37*
G36*
X217000Y-313350D02*
X217500Y-314400D01*
X217962Y-315898D01*
X218100Y-317500D01*
X218000Y-318900D01*
X217800Y-319800D01*
X217500Y-320600D01*
X217000Y-321600D01*
X216400Y-322500D01*
X215250Y-321350D01*
X214262Y-320327D01*
X214615Y-319746D01*
X215000Y-318700D01*
X215136Y-317500D01*
X215100Y-316900D01*
X215000Y-316300D01*
X214850Y-315750D01*
X214600Y-315200D01*
X214350Y-314700D01*
X215300Y-313750D01*
X216453Y-312602D01*
X217000Y-313350D01*
D02*
G37*
G36*
X77000D02*
X77500Y-314400D01*
X77962Y-315898D01*
X78100Y-317500D01*
X78000Y-318900D01*
X77800Y-319800D01*
X77500Y-320600D01*
X77000Y-321600D01*
X76400Y-322500D01*
X75250Y-321350D01*
X74262Y-320327D01*
X74615Y-319746D01*
X75000Y-318700D01*
X75136Y-317500D01*
X75100Y-316900D01*
X75000Y-316300D01*
X74850Y-315750D01*
X74600Y-315200D01*
X74350Y-314700D01*
X75300Y-313750D01*
X76453Y-312602D01*
X77000Y-313350D01*
D02*
G37*
G36*
X207754Y-322115D02*
X208800Y-322500D01*
X210000Y-322636D01*
X210600Y-322600D01*
X211200Y-322500D01*
X211750Y-322350D01*
X212300Y-322100D01*
X212800Y-321850D01*
X213750Y-322800D01*
X214898Y-323953D01*
X214150Y-324500D01*
X213100Y-325000D01*
X211602Y-325462D01*
X210000Y-325600D01*
X208600Y-325500D01*
X207700Y-325300D01*
X206900Y-325000D01*
X205900Y-324500D01*
X205000Y-323900D01*
X206150Y-322750D01*
X207173Y-321762D01*
X207754Y-322115D01*
D02*
G37*
G36*
X67754D02*
X68800Y-322500D01*
X70000Y-322636D01*
X70600Y-322600D01*
X71200Y-322500D01*
X71750Y-322350D01*
X72300Y-322100D01*
X72800Y-321850D01*
X73750Y-322800D01*
X74898Y-323953D01*
X74150Y-324500D01*
X73100Y-325000D01*
X71602Y-325462D01*
X70000Y-325600D01*
X68600Y-325500D01*
X67700Y-325300D01*
X66900Y-325000D01*
X65900Y-324500D01*
X65000Y-323900D01*
X66150Y-322750D01*
X67173Y-321762D01*
X67754Y-322115D01*
D02*
G37*
G36*
X502914Y-11708D02*
D01*
X502914Y-11708D01*
X502914Y-11708D01*
D02*
G37*
G36*
X362914D02*
D01*
X362914Y-11708D01*
X362914Y-11708D01*
D02*
G37*
G36*
X492785Y-8900D02*
X498265Y-9889D01*
X500874Y-10863D01*
X500874Y-10863D01*
X497043Y-20110D01*
X495328Y-19584D01*
X491793Y-18976D01*
X488207Y-18976D01*
X484673Y-19584D01*
X482957Y-20110D01*
X482957Y-20110D01*
X479126Y-10863D01*
X481735Y-9889D01*
X487215Y-8900D01*
X492785Y-8900D01*
D02*
G37*
G36*
X352785D02*
X358265Y-9889D01*
X360874Y-10863D01*
X360874Y-10863D01*
X357043Y-20110D01*
X355328Y-19584D01*
X351793Y-18976D01*
X348207Y-18976D01*
X344673Y-19584D01*
X342957Y-20110D01*
X342957Y-20110D01*
X339126Y-10863D01*
X341735Y-9889D01*
X347215Y-8900D01*
X352785Y-8900D01*
D02*
G37*
G36*
X461708Y-27086D02*
D01*
X461708Y-27086D01*
X461708Y-27086D01*
D02*
G37*
G36*
X321708D02*
D01*
X321708Y-27086D01*
X321708Y-27086D01*
D02*
G37*
G36*
X480916Y-20956D02*
Y-20956D01*
X479331Y-21796D01*
X476402Y-23866D01*
X473866Y-26402D01*
X471796Y-29331D01*
X470956Y-30916D01*
X461708Y-27086D01*
X462864Y-24553D01*
X466040Y-19978D01*
X469978Y-16040D01*
X474553Y-12864D01*
X477086Y-11708D01*
X480916Y-20956D01*
D02*
G37*
G36*
X340916D02*
Y-20956D01*
X339331Y-21796D01*
X336402Y-23866D01*
X333866Y-26402D01*
X331796Y-29331D01*
X330956Y-30916D01*
X321708Y-27086D01*
X322864Y-24553D01*
X326040Y-19978D01*
X329978Y-16040D01*
X334553Y-12864D01*
X337086Y-11708D01*
X340916Y-20956D01*
D02*
G37*
G36*
X505447Y-12864D02*
X510022Y-16040D01*
X513960Y-19978D01*
X517136Y-24553D01*
X518292Y-27086D01*
X509044Y-30916D01*
X509044Y-30916D01*
X508204Y-29331D01*
X506134Y-26402D01*
X503598Y-23866D01*
X500669Y-21796D01*
X499084Y-20956D01*
X502914Y-11708D01*
X505447Y-12864D01*
D02*
G37*
G36*
X365447D02*
X370022Y-16040D01*
X373960Y-19978D01*
X377136Y-24553D01*
X378292Y-27086D01*
X369044Y-30916D01*
X369044Y-30916D01*
X368204Y-29331D01*
X366134Y-26402D01*
X363598Y-23866D01*
X360669Y-21796D01*
X359084Y-20956D01*
X362914Y-11708D01*
X365447Y-12864D01*
D02*
G37*
G36*
X520111Y-31735D02*
X521100Y-37215D01*
X521100Y-42785D01*
X520111Y-48265D01*
X519137Y-50874D01*
X519137D01*
X519137D01*
D01*
X509890Y-47043D01*
X510416Y-45328D01*
X511024Y-41793D01*
X511024Y-38207D01*
X510416Y-34673D01*
X509890Y-32957D01*
X509890Y-32957D01*
X519137Y-29126D01*
X520111Y-31735D01*
D02*
G37*
G36*
X470110Y-32957D02*
X469584Y-34672D01*
X468976Y-38207D01*
X468976Y-41793D01*
X469584Y-45328D01*
X470110Y-47043D01*
Y-47043D01*
X460863Y-50874D01*
X459889Y-48265D01*
X458900Y-42785D01*
X458900Y-37215D01*
X459889Y-31735D01*
X460863Y-29126D01*
Y-29126D01*
X470110Y-32957D01*
D02*
G37*
G36*
X380111Y-31735D02*
X381100Y-37215D01*
X381100Y-42785D01*
X380111Y-48265D01*
X379137Y-50874D01*
X379137D01*
X379137D01*
D01*
X369890Y-47043D01*
X370416Y-45328D01*
X371024Y-41793D01*
X371024Y-38207D01*
X370416Y-34673D01*
X369890Y-32957D01*
X369890Y-32957D01*
X379137Y-29126D01*
X380111Y-31735D01*
D02*
G37*
G36*
X330110Y-32957D02*
X329584Y-34672D01*
X328976Y-38207D01*
X328976Y-41793D01*
X329584Y-45328D01*
X330110Y-47043D01*
Y-47043D01*
X320863Y-50874D01*
X319889Y-48265D01*
X318900Y-42785D01*
X318900Y-37215D01*
X319889Y-31735D01*
X320863Y-29126D01*
Y-29126D01*
X330110Y-32957D01*
D02*
G37*
G36*
X500874Y-69137D02*
X498265Y-70111D01*
X492785Y-71100D01*
X487215Y-71100D01*
X481735Y-70111D01*
X479126Y-69137D01*
X482957Y-59890D01*
X484672Y-60416D01*
X488207Y-61024D01*
X491793Y-61024D01*
X495327Y-60416D01*
X497043Y-59890D01*
X497043D01*
X500874Y-69137D01*
D02*
G37*
G36*
X360874D02*
X358265Y-70111D01*
X352785Y-71100D01*
X347215Y-71100D01*
X341735Y-70111D01*
X339126Y-69137D01*
X342957Y-59890D01*
X344672Y-60416D01*
X348207Y-61024D01*
X351793Y-61024D01*
X355327Y-60416D01*
X357043Y-59890D01*
X357043D01*
X360874Y-69137D01*
D02*
G37*
G36*
X471796Y-50669D02*
X473866Y-53598D01*
X476402Y-56134D01*
X479331Y-58204D01*
X480916Y-59044D01*
X477086Y-68292D01*
Y-68292D01*
X474553Y-67136D01*
X469978Y-63960D01*
X466040Y-60022D01*
X462864Y-55447D01*
X461708Y-52914D01*
X470956Y-49084D01*
X470956D01*
X471796Y-50669D01*
D02*
G37*
G36*
X331796D02*
X333866Y-53598D01*
X336402Y-56134D01*
X339331Y-58204D01*
X340916Y-59044D01*
X337086Y-68292D01*
Y-68292D01*
X334553Y-67136D01*
X329978Y-63960D01*
X326040Y-60022D01*
X322864Y-55447D01*
X321708Y-52914D01*
X330956Y-49084D01*
X330956D01*
X331796Y-50669D01*
D02*
G37*
G36*
X518292Y-52914D02*
X518292D01*
X517136Y-55447D01*
X513960Y-60022D01*
X510022Y-63960D01*
X505447Y-67136D01*
X502914Y-68292D01*
X499084Y-59044D01*
X499084Y-59044D01*
X500669Y-58204D01*
X503598Y-56134D01*
X506134Y-53598D01*
X508204Y-50669D01*
X509044Y-49084D01*
X518292Y-52914D01*
D02*
G37*
G36*
X378292D02*
X378292D01*
X377136Y-55447D01*
X373960Y-60022D01*
X370022Y-63960D01*
X365447Y-67136D01*
X362914Y-68292D01*
X359084Y-59044D01*
X359084Y-59044D01*
X360669Y-58204D01*
X363598Y-56134D01*
X366134Y-53598D01*
X368204Y-50669D01*
X369044Y-49084D01*
X378292Y-52914D01*
D02*
G37*
G36*
X502914Y-231708D02*
D01*
X502914Y-231708D01*
X502914Y-231708D01*
D02*
G37*
G36*
X362914D02*
D01*
X362914Y-231708D01*
X362914Y-231708D01*
D02*
G37*
G36*
X492785Y-228900D02*
X498265Y-229889D01*
X500874Y-230863D01*
X500874Y-230863D01*
X497043Y-240110D01*
X495328Y-239584D01*
X491793Y-238976D01*
X488207Y-238976D01*
X484673Y-239584D01*
X482957Y-240110D01*
X482957Y-240110D01*
X479126Y-230863D01*
X481735Y-229889D01*
X487215Y-228900D01*
X492785Y-228900D01*
D02*
G37*
G36*
X352785D02*
X358265Y-229889D01*
X360874Y-230863D01*
X360874Y-230863D01*
X357043Y-240110D01*
X355328Y-239584D01*
X351793Y-238976D01*
X348207Y-238976D01*
X344673Y-239584D01*
X342957Y-240110D01*
X342957Y-240110D01*
X339126Y-230863D01*
X341735Y-229889D01*
X347215Y-228900D01*
X352785Y-228900D01*
D02*
G37*
G36*
X461708Y-247086D02*
D01*
X461708Y-247086D01*
X461708Y-247086D01*
D02*
G37*
G36*
X321708D02*
D01*
X321708Y-247086D01*
X321708Y-247086D01*
D02*
G37*
G36*
X480916Y-240956D02*
Y-240956D01*
X479331Y-241796D01*
X476402Y-243866D01*
X473866Y-246402D01*
X471796Y-249331D01*
X470956Y-250916D01*
X461708Y-247086D01*
X462864Y-244553D01*
X466040Y-239978D01*
X469978Y-236040D01*
X474553Y-232864D01*
X477086Y-231708D01*
X480916Y-240956D01*
D02*
G37*
G36*
X340916D02*
Y-240956D01*
X339331Y-241796D01*
X336402Y-243866D01*
X333866Y-246402D01*
X331796Y-249331D01*
X330956Y-250916D01*
X321708Y-247086D01*
X322864Y-244553D01*
X326040Y-239978D01*
X329978Y-236040D01*
X334553Y-232864D01*
X337086Y-231708D01*
X340916Y-240956D01*
D02*
G37*
G36*
X505447Y-232864D02*
X510022Y-236040D01*
X513960Y-239978D01*
X517136Y-244553D01*
X518292Y-247086D01*
X509044Y-250916D01*
X509044Y-250916D01*
X508204Y-249331D01*
X506134Y-246402D01*
X503598Y-243866D01*
X500669Y-241796D01*
X499084Y-240956D01*
X502914Y-231708D01*
X505447Y-232864D01*
D02*
G37*
G36*
X365447D02*
X370022Y-236040D01*
X373960Y-239978D01*
X377136Y-244553D01*
X378292Y-247086D01*
X369044Y-250916D01*
X369044Y-250916D01*
X368204Y-249331D01*
X366134Y-246402D01*
X363598Y-243866D01*
X360669Y-241796D01*
X359084Y-240956D01*
X362914Y-231708D01*
X365447Y-232864D01*
D02*
G37*
G36*
X520111Y-251735D02*
X521100Y-257215D01*
X521100Y-262785D01*
X520111Y-268265D01*
X519137Y-270874D01*
X519137D01*
X519137D01*
D01*
X509890Y-267043D01*
X510416Y-265328D01*
X511024Y-261793D01*
X511024Y-258207D01*
X510416Y-254673D01*
X509890Y-252957D01*
X509890Y-252957D01*
X519137Y-249126D01*
X520111Y-251735D01*
D02*
G37*
G36*
X470110Y-252957D02*
X469584Y-254672D01*
X468976Y-258207D01*
X468976Y-261793D01*
X469584Y-265327D01*
X470110Y-267043D01*
Y-267043D01*
X460863Y-270874D01*
X459889Y-268265D01*
X458900Y-262785D01*
X458900Y-257215D01*
X459889Y-251735D01*
X460863Y-249126D01*
Y-249126D01*
X470110Y-252957D01*
D02*
G37*
G36*
X380111Y-251735D02*
X381100Y-257215D01*
X381100Y-262785D01*
X380111Y-268265D01*
X379137Y-270874D01*
X379137D01*
X379137D01*
D01*
X369890Y-267043D01*
X370416Y-265328D01*
X371024Y-261793D01*
X371024Y-258207D01*
X370416Y-254673D01*
X369890Y-252957D01*
X369890Y-252957D01*
X379137Y-249126D01*
X380111Y-251735D01*
D02*
G37*
G36*
X330110Y-252957D02*
X329584Y-254672D01*
X328976Y-258207D01*
X328976Y-261793D01*
X329584Y-265327D01*
X330110Y-267043D01*
Y-267043D01*
X320863Y-270874D01*
X319889Y-268265D01*
X318900Y-262785D01*
X318900Y-257215D01*
X319889Y-251735D01*
X320863Y-249126D01*
Y-249126D01*
X330110Y-252957D01*
D02*
G37*
G36*
X500874Y-289137D02*
X498265Y-290111D01*
X492785Y-291100D01*
X487215Y-291100D01*
X481735Y-290111D01*
X479126Y-289137D01*
X482957Y-279890D01*
X484672Y-280416D01*
X488207Y-281024D01*
X491793Y-281024D01*
X495327Y-280416D01*
X497043Y-279890D01*
X497043D01*
X500874Y-289137D01*
D02*
G37*
G36*
X360874D02*
X358265Y-290111D01*
X352785Y-291100D01*
X347215Y-291100D01*
X341735Y-290111D01*
X339126Y-289137D01*
X342957Y-279890D01*
X344672Y-280416D01*
X348207Y-281024D01*
X351793Y-281024D01*
X355327Y-280416D01*
X357043Y-279890D01*
X357043D01*
X360874Y-289137D01*
D02*
G37*
G36*
X471796Y-270669D02*
X473866Y-273598D01*
X476402Y-276134D01*
X479331Y-278204D01*
X480916Y-279044D01*
X477086Y-288292D01*
Y-288292D01*
X474553Y-287136D01*
X469978Y-283960D01*
X466040Y-280022D01*
X462864Y-275447D01*
X461708Y-272914D01*
X470956Y-269084D01*
X470956D01*
X471796Y-270669D01*
D02*
G37*
G36*
X331796D02*
X333866Y-273598D01*
X336402Y-276134D01*
X339331Y-278204D01*
X340916Y-279044D01*
X337086Y-288292D01*
Y-288292D01*
X334553Y-287136D01*
X329978Y-283960D01*
X326040Y-280022D01*
X322864Y-275447D01*
X321708Y-272914D01*
X330956Y-269084D01*
X330956D01*
X331796Y-270669D01*
D02*
G37*
G36*
X518292Y-272914D02*
X518292D01*
X517136Y-275447D01*
X513960Y-280022D01*
X510022Y-283960D01*
X505447Y-287136D01*
X502914Y-288292D01*
X499084Y-279044D01*
X499084Y-279044D01*
X500669Y-278204D01*
X503598Y-276134D01*
X506134Y-273598D01*
X508204Y-270669D01*
X509044Y-269084D01*
X518292Y-272914D01*
D02*
G37*
G36*
X378292D02*
X378292D01*
X377136Y-275447D01*
X373960Y-280022D01*
X370022Y-283960D01*
X365447Y-287136D01*
X362914Y-288292D01*
X359084Y-279044D01*
X359084Y-279044D01*
X360669Y-278204D01*
X363598Y-276134D01*
X366134Y-273598D01*
X368204Y-270669D01*
X369044Y-269084D01*
X378292Y-272914D01*
D02*
G37*
G36*
X491400Y-309500D02*
X492300Y-309700D01*
X493100Y-310000D01*
X494100Y-310500D01*
X495000Y-311100D01*
X493850Y-312250D01*
X492827Y-313238D01*
X492246Y-312885D01*
X491200Y-312500D01*
X490000Y-312364D01*
X489400Y-312400D01*
X488800Y-312500D01*
X488250Y-312650D01*
X487700Y-312900D01*
X487200Y-313150D01*
X486250Y-312200D01*
X485102Y-311047D01*
X485850Y-310500D01*
X486900Y-310000D01*
X488398Y-309538D01*
X490000Y-309400D01*
X491400Y-309500D01*
D02*
G37*
G36*
X351400D02*
X352300Y-309700D01*
X353100Y-310000D01*
X354100Y-310500D01*
X355000Y-311100D01*
X353850Y-312250D01*
X352827Y-313238D01*
X352246Y-312885D01*
X351200Y-312500D01*
X350000Y-312364D01*
X349400Y-312400D01*
X348800Y-312500D01*
X348250Y-312650D01*
X347700Y-312900D01*
X347200Y-313150D01*
X346250Y-312200D01*
X345102Y-311047D01*
X345850Y-310500D01*
X346900Y-310000D01*
X348398Y-309538D01*
X350000Y-309400D01*
X351400Y-309500D01*
D02*
G37*
G36*
X484750Y-313650D02*
X485738Y-314673D01*
X485385Y-315254D01*
X485000Y-316300D01*
X484864Y-317500D01*
X484900Y-318100D01*
X485000Y-318700D01*
X485150Y-319250D01*
X485400Y-319800D01*
X485650Y-320300D01*
X484700Y-321250D01*
X483547Y-322398D01*
X483000Y-321650D01*
X482500Y-320600D01*
X482038Y-319102D01*
X481900Y-317500D01*
X482000Y-316100D01*
X482200Y-315200D01*
X482500Y-314400D01*
X483000Y-313400D01*
X483600Y-312500D01*
X484750Y-313650D01*
D02*
G37*
G36*
X344750D02*
X345738Y-314673D01*
X345385Y-315254D01*
X345000Y-316300D01*
X344864Y-317500D01*
X344900Y-318100D01*
X345000Y-318700D01*
X345150Y-319250D01*
X345400Y-319800D01*
X345650Y-320300D01*
X344700Y-321250D01*
X343547Y-322398D01*
X343000Y-321650D01*
X342500Y-320600D01*
X342038Y-319102D01*
X341900Y-317500D01*
X342000Y-316100D01*
X342200Y-315200D01*
X342500Y-314400D01*
X343000Y-313400D01*
X343600Y-312500D01*
X344750Y-313650D01*
D02*
G37*
G36*
X497000Y-313350D02*
X497500Y-314400D01*
X497962Y-315898D01*
X498100Y-317500D01*
X498000Y-318900D01*
X497800Y-319800D01*
X497500Y-320600D01*
X497000Y-321600D01*
X496400Y-322500D01*
X495250Y-321350D01*
X494262Y-320327D01*
X494615Y-319746D01*
X495000Y-318700D01*
X495136Y-317500D01*
X495100Y-316900D01*
X495000Y-316300D01*
X494850Y-315750D01*
X494600Y-315200D01*
X494350Y-314700D01*
X495300Y-313750D01*
X496453Y-312602D01*
X497000Y-313350D01*
D02*
G37*
G36*
X357000D02*
X357500Y-314400D01*
X357962Y-315898D01*
X358100Y-317500D01*
X358000Y-318900D01*
X357800Y-319800D01*
X357500Y-320600D01*
X357000Y-321600D01*
X356400Y-322500D01*
X355250Y-321350D01*
X354262Y-320327D01*
X354615Y-319746D01*
X355000Y-318700D01*
X355136Y-317500D01*
X355100Y-316900D01*
X355000Y-316300D01*
X354850Y-315750D01*
X354600Y-315200D01*
X354350Y-314700D01*
X355300Y-313750D01*
X356453Y-312602D01*
X357000Y-313350D01*
D02*
G37*
G36*
X487754Y-322115D02*
X488800Y-322500D01*
X490000Y-322636D01*
X490600Y-322600D01*
X491200Y-322500D01*
X491750Y-322350D01*
X492300Y-322100D01*
X492800Y-321850D01*
X493750Y-322800D01*
X494898Y-323953D01*
X494150Y-324500D01*
X493100Y-325000D01*
X491602Y-325462D01*
X490000Y-325600D01*
X488600Y-325500D01*
X487700Y-325300D01*
X486900Y-325000D01*
X485900Y-324500D01*
X485000Y-323900D01*
X486150Y-322750D01*
X487173Y-321762D01*
X487754Y-322115D01*
D02*
G37*
G36*
X347754D02*
X348800Y-322500D01*
X350000Y-322636D01*
X350600Y-322600D01*
X351200Y-322500D01*
X351750Y-322350D01*
X352300Y-322100D01*
X352800Y-321850D01*
X353750Y-322800D01*
X354898Y-323953D01*
X354150Y-324500D01*
X353100Y-325000D01*
X351602Y-325462D01*
X350000Y-325600D01*
X348600Y-325500D01*
X347700Y-325300D01*
X346900Y-325000D01*
X345900Y-324500D01*
X345000Y-323900D01*
X346150Y-322750D01*
X347173Y-321762D01*
X347754Y-322115D01*
D02*
G37*
G36*
X222914Y428292D02*
D01*
X222914Y428292D01*
X222914Y428292D01*
D02*
G37*
G36*
X82914D02*
D01*
X82914Y428292D01*
X82914Y428292D01*
D02*
G37*
G36*
X212785Y431100D02*
X218265Y430111D01*
X220874Y429137D01*
X220874Y429137D01*
X217043Y419890D01*
X215327Y420416D01*
X211793Y421024D01*
X208207Y421024D01*
X204672Y420416D01*
X202957Y419890D01*
X202957Y419890D01*
X199126Y429137D01*
X201735Y430111D01*
X207215Y431100D01*
X212785Y431100D01*
D02*
G37*
G36*
X72785D02*
X78265Y430111D01*
X80874Y429137D01*
X80874Y429137D01*
X77043Y419890D01*
X75328Y420416D01*
X71793Y421024D01*
X68207Y421024D01*
X64672Y420416D01*
X62957Y419890D01*
X62957Y419890D01*
X59126Y429137D01*
X61735Y430111D01*
X67215Y431100D01*
X72785Y431100D01*
D02*
G37*
G36*
X181708Y412914D02*
D01*
X181708Y412914D01*
X181708Y412914D01*
D02*
G37*
G36*
X41708D02*
D01*
X41708Y412914D01*
X41708Y412914D01*
D02*
G37*
G36*
X200916Y419044D02*
Y419044D01*
X199331Y418204D01*
X196402Y416134D01*
X193866Y413598D01*
X191796Y410669D01*
X190956Y409084D01*
X181708Y412914D01*
X182864Y415447D01*
X186040Y420022D01*
X189978Y423960D01*
X194553Y427136D01*
X197086Y428292D01*
X200916Y419044D01*
D02*
G37*
G36*
X60916D02*
Y419044D01*
X59331Y418204D01*
X56402Y416134D01*
X53866Y413598D01*
X51796Y410669D01*
X50956Y409084D01*
X41708Y412914D01*
X42864Y415447D01*
X46040Y420022D01*
X49978Y423960D01*
X54553Y427136D01*
X57086Y428292D01*
X60916Y419044D01*
D02*
G37*
G36*
X225447Y427136D02*
X230022Y423960D01*
X233960Y420022D01*
X237136Y415447D01*
X238292Y412914D01*
X229044Y409084D01*
X229044Y409084D01*
X228204Y410669D01*
X226134Y413598D01*
X223598Y416134D01*
X220669Y418204D01*
X219084Y419044D01*
X222914Y428292D01*
X225447Y427136D01*
D02*
G37*
G36*
X85447D02*
X90022Y423960D01*
X93960Y420022D01*
X97136Y415447D01*
X98292Y412914D01*
X89044Y409084D01*
X89044Y409084D01*
X88204Y410669D01*
X86134Y413598D01*
X83598Y416134D01*
X80669Y418204D01*
X79084Y419044D01*
X82914Y428292D01*
X85447Y427136D01*
D02*
G37*
G36*
X240111Y408265D02*
X241100Y402785D01*
X241100Y397215D01*
X240111Y391735D01*
X239137Y389126D01*
X239137D01*
X239137D01*
D01*
X229890Y392957D01*
X230416Y394672D01*
X231024Y398207D01*
X231024Y401793D01*
X230416Y405327D01*
X229890Y407043D01*
X229890Y407043D01*
X239137Y410874D01*
X240111Y408265D01*
D02*
G37*
G36*
X190110Y407043D02*
X189584Y405327D01*
X188976Y401793D01*
X188976Y398207D01*
X189584Y394672D01*
X190110Y392957D01*
Y392957D01*
X180863Y389126D01*
X179889Y391735D01*
X178900Y397215D01*
X178900Y402785D01*
X179889Y408265D01*
X180863Y410874D01*
Y410874D01*
X190110Y407043D01*
D02*
G37*
G36*
X100111Y408265D02*
X101100Y402785D01*
X101100Y397215D01*
X100111Y391735D01*
X99137Y389126D01*
X99137D01*
X99137D01*
D01*
X89890Y392957D01*
X90416Y394672D01*
X91024Y398207D01*
X91024Y401793D01*
X90416Y405327D01*
X89890Y407043D01*
X89890Y407043D01*
X99137Y410874D01*
X100111Y408265D01*
D02*
G37*
G36*
X50110Y407043D02*
X49584Y405327D01*
X48976Y401793D01*
X48976Y398207D01*
X49584Y394672D01*
X50110Y392957D01*
Y392957D01*
X40863Y389126D01*
X39889Y391735D01*
X38900Y397215D01*
X38900Y402785D01*
X39889Y408265D01*
X40863Y410874D01*
Y410874D01*
X50110Y407043D01*
D02*
G37*
G36*
X220874Y370863D02*
X218265Y369889D01*
X212785Y368900D01*
X207215Y368900D01*
X201735Y369889D01*
X199126Y370863D01*
X202957Y380110D01*
X204672Y379584D01*
X208207Y378976D01*
X211793Y378976D01*
X215327Y379584D01*
X217043Y380110D01*
X217043D01*
X220874Y370863D01*
D02*
G37*
G36*
X80874D02*
X78265Y369889D01*
X72785Y368900D01*
X67215Y368900D01*
X61735Y369889D01*
X59126Y370863D01*
X62957Y380110D01*
X64672Y379584D01*
X68207Y378976D01*
X71793Y378976D01*
X75328Y379584D01*
X77043Y380110D01*
X77043D01*
X80874Y370863D01*
D02*
G37*
G36*
X191796Y389331D02*
X193866Y386402D01*
X196402Y383866D01*
X199331Y381796D01*
X200916Y380956D01*
X197086Y371708D01*
Y371708D01*
X194553Y372864D01*
X189978Y376040D01*
X186040Y379978D01*
X182864Y384553D01*
X181708Y387086D01*
X190956Y390916D01*
X190956D01*
X191796Y389331D01*
D02*
G37*
G36*
X51796D02*
X53866Y386402D01*
X56402Y383866D01*
X59331Y381796D01*
X60916Y380956D01*
X57086Y371708D01*
Y371708D01*
X54553Y372864D01*
X49978Y376040D01*
X46040Y379978D01*
X42864Y384553D01*
X41708Y387086D01*
X50956Y390916D01*
X50956D01*
X51796Y389331D01*
D02*
G37*
G36*
X238292Y387086D02*
X238292D01*
X237136Y384553D01*
X233960Y379978D01*
X230022Y376040D01*
X225447Y372864D01*
X222914Y371708D01*
X219084Y380956D01*
X219084Y380956D01*
X220669Y381796D01*
X223598Y383866D01*
X226134Y386402D01*
X228204Y389331D01*
X229044Y390916D01*
X238292Y387086D01*
D02*
G37*
G36*
X98292D02*
X98292D01*
X97136Y384553D01*
X93960Y379978D01*
X90022Y376040D01*
X85447Y372864D01*
X82914Y371708D01*
X79084Y380956D01*
X79084Y380956D01*
X80669Y381796D01*
X83598Y383866D01*
X86134Y386402D01*
X88204Y389331D01*
X89045Y390916D01*
X98292Y387086D01*
D02*
G37*
G36*
X222914Y208292D02*
D01*
X222914Y208292D01*
X222914Y208292D01*
D02*
G37*
G36*
X82914D02*
D01*
X82914Y208292D01*
X82914Y208292D01*
D02*
G37*
G36*
X212785Y211100D02*
X218265Y210111D01*
X220874Y209137D01*
X220874Y209137D01*
X217043Y199890D01*
X215327Y200416D01*
X211793Y201024D01*
X208207Y201024D01*
X204672Y200416D01*
X202957Y199890D01*
X202957Y199890D01*
X199126Y209137D01*
X201735Y210111D01*
X207215Y211100D01*
X212785Y211100D01*
D02*
G37*
G36*
X72785D02*
X78265Y210111D01*
X80874Y209137D01*
X80874Y209137D01*
X77043Y199890D01*
X75328Y200416D01*
X71793Y201024D01*
X68207Y201024D01*
X64672Y200416D01*
X62957Y199890D01*
X62957Y199890D01*
X59126Y209137D01*
X61735Y210111D01*
X67215Y211100D01*
X72785Y211100D01*
D02*
G37*
G36*
X181708Y192914D02*
D01*
X181708Y192914D01*
X181708Y192914D01*
D02*
G37*
G36*
X41708D02*
D01*
X41708Y192914D01*
X41708Y192914D01*
D02*
G37*
G36*
X200916Y199044D02*
Y199044D01*
X199331Y198204D01*
X196402Y196134D01*
X193866Y193598D01*
X191796Y190669D01*
X190956Y189084D01*
X181708Y192914D01*
X182864Y195447D01*
X186040Y200022D01*
X189978Y203960D01*
X194553Y207136D01*
X197086Y208292D01*
X200916Y199044D01*
D02*
G37*
G36*
X60916D02*
Y199044D01*
X59331Y198204D01*
X56402Y196134D01*
X53866Y193598D01*
X51796Y190669D01*
X50956Y189084D01*
X41708Y192914D01*
X42864Y195447D01*
X46040Y200022D01*
X49978Y203960D01*
X54553Y207136D01*
X57086Y208292D01*
X60916Y199044D01*
D02*
G37*
G36*
X225447Y207136D02*
X230022Y203960D01*
X233960Y200022D01*
X237136Y195447D01*
X238292Y192914D01*
X229044Y189084D01*
X229044Y189084D01*
X228204Y190669D01*
X226134Y193598D01*
X223598Y196134D01*
X220669Y198204D01*
X219084Y199044D01*
X222914Y208292D01*
X225447Y207136D01*
D02*
G37*
G36*
X85447D02*
X90022Y203960D01*
X93960Y200022D01*
X97136Y195447D01*
X98292Y192914D01*
X89044Y189084D01*
X89044Y189084D01*
X88204Y190669D01*
X86134Y193598D01*
X83598Y196134D01*
X80669Y198204D01*
X79084Y199044D01*
X82914Y208292D01*
X85447Y207136D01*
D02*
G37*
G36*
X240111Y188265D02*
X241100Y182785D01*
X241100Y177215D01*
X240111Y171735D01*
X239137Y169126D01*
X239137D01*
X239137D01*
D01*
X229890Y172957D01*
X230416Y174672D01*
X231024Y178207D01*
X231024Y181793D01*
X230416Y185327D01*
X229890Y187043D01*
X229890Y187043D01*
X239137Y190874D01*
X240111Y188265D01*
D02*
G37*
G36*
X190110Y187043D02*
X189584Y185327D01*
X188976Y181793D01*
X188976Y178207D01*
X189584Y174672D01*
X190110Y172957D01*
Y172957D01*
X180863Y169126D01*
X179889Y171735D01*
X178900Y177215D01*
X178900Y182785D01*
X179889Y188265D01*
X180863Y190874D01*
Y190874D01*
X190110Y187043D01*
D02*
G37*
G36*
X100111Y188265D02*
X101100Y182785D01*
X101100Y177215D01*
X100111Y171735D01*
X99137Y169126D01*
X99137D01*
X99137D01*
D01*
X89890Y172957D01*
X90416Y174672D01*
X91024Y178207D01*
X91024Y181793D01*
X90416Y185327D01*
X89890Y187043D01*
X89890Y187043D01*
X99137Y190874D01*
X100111Y188265D01*
D02*
G37*
G36*
X50110Y187043D02*
X49584Y185327D01*
X48976Y181793D01*
X48976Y178207D01*
X49584Y174672D01*
X50110Y172957D01*
Y172957D01*
X40863Y169126D01*
X39889Y171735D01*
X38900Y177215D01*
X38900Y182785D01*
X39889Y188265D01*
X40863Y190874D01*
Y190874D01*
X50110Y187043D01*
D02*
G37*
G36*
X220874Y150863D02*
X218265Y149889D01*
X212785Y148900D01*
X207215Y148900D01*
X201735Y149889D01*
X199126Y150863D01*
X202957Y160110D01*
X204672Y159584D01*
X208207Y158976D01*
X211793Y158976D01*
X215327Y159584D01*
X217043Y160110D01*
X217043D01*
X220874Y150863D01*
D02*
G37*
G36*
X80874D02*
X78265Y149889D01*
X72785Y148900D01*
X67215Y148900D01*
X61735Y149889D01*
X59126Y150863D01*
X62957Y160110D01*
X64672Y159584D01*
X68207Y158976D01*
X71793Y158976D01*
X75328Y159584D01*
X77043Y160110D01*
X77043D01*
X80874Y150863D01*
D02*
G37*
G36*
X191796Y169331D02*
X193866Y166402D01*
X196402Y163866D01*
X199331Y161796D01*
X200916Y160956D01*
X197086Y151708D01*
Y151708D01*
X194553Y152864D01*
X189978Y156040D01*
X186040Y159978D01*
X182864Y164553D01*
X181708Y167086D01*
X190956Y170916D01*
X190956D01*
X191796Y169331D01*
D02*
G37*
G36*
X51796D02*
X53866Y166402D01*
X56402Y163866D01*
X59331Y161796D01*
X60916Y160956D01*
X57086Y151708D01*
Y151708D01*
X54553Y152864D01*
X49978Y156040D01*
X46040Y159978D01*
X42864Y164553D01*
X41708Y167086D01*
X50956Y170916D01*
X50956D01*
X51796Y169331D01*
D02*
G37*
G36*
X238292Y167086D02*
X238292D01*
X237136Y164553D01*
X233960Y159978D01*
X230022Y156040D01*
X225447Y152864D01*
X222914Y151708D01*
X219084Y160956D01*
X219084Y160956D01*
X220669Y161796D01*
X223598Y163866D01*
X226134Y166402D01*
X228204Y169331D01*
X229044Y170916D01*
X238292Y167086D01*
D02*
G37*
G36*
X98292D02*
X98292D01*
X97136Y164553D01*
X93960Y159978D01*
X90022Y156040D01*
X85447Y152864D01*
X82914Y151708D01*
X79084Y160956D01*
X79084Y160956D01*
X80669Y161796D01*
X83598Y163866D01*
X86134Y166402D01*
X88204Y169331D01*
X89045Y170916D01*
X98292Y167086D01*
D02*
G37*
G36*
X211400Y130500D02*
X212300Y130300D01*
X213100Y130000D01*
X214100Y129500D01*
X215000Y128900D01*
X213850Y127750D01*
X212827Y126762D01*
X212246Y127115D01*
X211200Y127500D01*
X210000Y127636D01*
X209400Y127600D01*
X208800Y127500D01*
X208250Y127350D01*
X207700Y127100D01*
X207200Y126850D01*
X206250Y127800D01*
X205102Y128953D01*
X205850Y129500D01*
X206900Y130000D01*
X208398Y130462D01*
X210000Y130600D01*
X211400Y130500D01*
D02*
G37*
G36*
X71400D02*
X72300Y130300D01*
X73100Y130000D01*
X74100Y129500D01*
X75000Y128900D01*
X73850Y127750D01*
X72827Y126762D01*
X72246Y127115D01*
X71200Y127500D01*
X70000Y127636D01*
X69400Y127600D01*
X68800Y127500D01*
X68250Y127350D01*
X67700Y127100D01*
X67200Y126850D01*
X66250Y127800D01*
X65102Y128953D01*
X65850Y129500D01*
X66900Y130000D01*
X68398Y130462D01*
X70000Y130600D01*
X71400Y130500D01*
D02*
G37*
G36*
X204750Y126350D02*
X205738Y125327D01*
X205385Y124746D01*
X205000Y123700D01*
X204864Y122500D01*
X204900Y121900D01*
X205000Y121300D01*
X205150Y120750D01*
X205400Y120200D01*
X205650Y119700D01*
X204700Y118750D01*
X203547Y117602D01*
X203000Y118350D01*
X202500Y119400D01*
X202038Y120898D01*
X201900Y122500D01*
X202000Y123900D01*
X202200Y124800D01*
X202500Y125600D01*
X203000Y126600D01*
X203600Y127500D01*
X204750Y126350D01*
D02*
G37*
G36*
X64750D02*
X65738Y125327D01*
X65385Y124746D01*
X65000Y123700D01*
X64864Y122500D01*
X64900Y121900D01*
X65000Y121300D01*
X65150Y120750D01*
X65400Y120200D01*
X65650Y119700D01*
X64700Y118750D01*
X63547Y117602D01*
X63000Y118350D01*
X62500Y119400D01*
X62038Y120898D01*
X61900Y122500D01*
X62000Y123900D01*
X62200Y124800D01*
X62500Y125600D01*
X63000Y126600D01*
X63600Y127500D01*
X64750Y126350D01*
D02*
G37*
G36*
X217000Y126650D02*
X217500Y125600D01*
X217962Y124102D01*
X218100Y122500D01*
X218000Y121100D01*
X217800Y120200D01*
X217500Y119400D01*
X217000Y118400D01*
X216400Y117500D01*
X215250Y118650D01*
X214262Y119673D01*
X214615Y120254D01*
X215000Y121300D01*
X215136Y122500D01*
X215100Y123100D01*
X215000Y123700D01*
X214850Y124250D01*
X214600Y124800D01*
X214350Y125300D01*
X215300Y126250D01*
X216453Y127398D01*
X217000Y126650D01*
D02*
G37*
G36*
X77000D02*
X77500Y125600D01*
X77962Y124102D01*
X78100Y122500D01*
X78000Y121100D01*
X77800Y120200D01*
X77500Y119400D01*
X77000Y118400D01*
X76400Y117500D01*
X75250Y118650D01*
X74262Y119673D01*
X74615Y120254D01*
X75000Y121300D01*
X75136Y122500D01*
X75100Y123100D01*
X75000Y123700D01*
X74850Y124250D01*
X74600Y124800D01*
X74350Y125300D01*
X75300Y126250D01*
X76453Y127398D01*
X77000Y126650D01*
D02*
G37*
G36*
X207754Y117885D02*
X208800Y117500D01*
X210000Y117364D01*
X210600Y117400D01*
X211200Y117500D01*
X211750Y117650D01*
X212300Y117900D01*
X212800Y118150D01*
X213750Y117200D01*
X214898Y116047D01*
X214150Y115500D01*
X213100Y115000D01*
X211602Y114538D01*
X210000Y114400D01*
X208600Y114500D01*
X207700Y114700D01*
X206900Y115000D01*
X205900Y115500D01*
X205000Y116100D01*
X206150Y117250D01*
X207173Y118238D01*
X207754Y117885D01*
D02*
G37*
G36*
X67754D02*
X68800Y117500D01*
X70000Y117364D01*
X70600Y117400D01*
X71200Y117500D01*
X71750Y117650D01*
X72300Y117900D01*
X72800Y118150D01*
X73750Y117200D01*
X74898Y116047D01*
X74150Y115500D01*
X73100Y115000D01*
X71602Y114538D01*
X70000Y114400D01*
X68600Y114500D01*
X67700Y114700D01*
X66900Y115000D01*
X65900Y115500D01*
X65000Y116100D01*
X66150Y117250D01*
X67173Y118238D01*
X67754Y117885D01*
D02*
G37*
G36*
X502914Y428292D02*
D01*
X502914Y428292D01*
X502914Y428292D01*
D02*
G37*
G36*
X362914D02*
D01*
X362914Y428292D01*
X362914Y428292D01*
D02*
G37*
G36*
X492785Y431100D02*
X498265Y430111D01*
X500874Y429137D01*
X500874Y429137D01*
X497043Y419890D01*
X495327Y420416D01*
X491793Y421024D01*
X488207Y421024D01*
X484672Y420416D01*
X482957Y419890D01*
X482957Y419890D01*
X479126Y429137D01*
X481735Y430111D01*
X487215Y431100D01*
X492785Y431100D01*
D02*
G37*
G36*
X352785D02*
X358265Y430111D01*
X360874Y429137D01*
X360874Y429137D01*
X357043Y419890D01*
X355327Y420416D01*
X351793Y421024D01*
X348207Y421024D01*
X344672Y420416D01*
X342957Y419890D01*
X342957Y419890D01*
X339126Y429137D01*
X341735Y430111D01*
X347215Y431100D01*
X352785Y431100D01*
D02*
G37*
G36*
X461708Y412914D02*
D01*
X461708Y412914D01*
X461708Y412914D01*
D02*
G37*
G36*
X321708D02*
D01*
X321708Y412914D01*
X321708Y412914D01*
D02*
G37*
G36*
X480916Y419044D02*
Y419044D01*
X479331Y418204D01*
X476402Y416134D01*
X473866Y413598D01*
X471796Y410669D01*
X470956Y409084D01*
X461708Y412914D01*
X462864Y415447D01*
X466040Y420022D01*
X469978Y423960D01*
X474553Y427136D01*
X477086Y428292D01*
X480916Y419044D01*
D02*
G37*
G36*
X340916D02*
Y419044D01*
X339331Y418204D01*
X336402Y416134D01*
X333866Y413598D01*
X331796Y410669D01*
X330956Y409084D01*
X321708Y412914D01*
X322864Y415447D01*
X326040Y420022D01*
X329978Y423960D01*
X334553Y427136D01*
X337086Y428292D01*
X340916Y419044D01*
D02*
G37*
G36*
X505447Y427136D02*
X510022Y423960D01*
X513960Y420022D01*
X517136Y415447D01*
X518292Y412914D01*
X509044Y409084D01*
X509044Y409084D01*
X508204Y410669D01*
X506134Y413598D01*
X503598Y416134D01*
X500669Y418204D01*
X499084Y419044D01*
X502914Y428292D01*
X505447Y427136D01*
D02*
G37*
G36*
X365447D02*
X370022Y423960D01*
X373960Y420022D01*
X377136Y415447D01*
X378292Y412914D01*
X369044Y409084D01*
X369044Y409084D01*
X368204Y410669D01*
X366134Y413598D01*
X363598Y416134D01*
X360669Y418204D01*
X359084Y419044D01*
X362914Y428292D01*
X365447Y427136D01*
D02*
G37*
G36*
X520111Y408265D02*
X521100Y402785D01*
X521100Y397215D01*
X520111Y391735D01*
X519137Y389126D01*
X519137D01*
X519137D01*
D01*
X509890Y392957D01*
X510416Y394672D01*
X511024Y398207D01*
X511024Y401793D01*
X510416Y405327D01*
X509890Y407043D01*
X509890Y407043D01*
X519137Y410874D01*
X520111Y408265D01*
D02*
G37*
G36*
X470110Y407043D02*
X469584Y405327D01*
X468976Y401793D01*
X468976Y398207D01*
X469584Y394672D01*
X470110Y392957D01*
Y392957D01*
X460863Y389126D01*
X459889Y391735D01*
X458900Y397215D01*
X458900Y402785D01*
X459889Y408265D01*
X460863Y410874D01*
Y410874D01*
X470110Y407043D01*
D02*
G37*
G36*
X380111Y408265D02*
X381100Y402785D01*
X381100Y397215D01*
X380111Y391735D01*
X379137Y389126D01*
X379137D01*
X379137D01*
D01*
X369890Y392957D01*
X370416Y394672D01*
X371024Y398207D01*
X371024Y401793D01*
X370416Y405327D01*
X369890Y407043D01*
X369890Y407043D01*
X379137Y410874D01*
X380111Y408265D01*
D02*
G37*
G36*
X330110Y407043D02*
X329584Y405327D01*
X328976Y401793D01*
X328976Y398207D01*
X329584Y394672D01*
X330110Y392957D01*
Y392957D01*
X320863Y389126D01*
X319889Y391735D01*
X318900Y397215D01*
X318900Y402785D01*
X319889Y408265D01*
X320863Y410874D01*
Y410874D01*
X330110Y407043D01*
D02*
G37*
G36*
X500874Y370863D02*
X498265Y369889D01*
X492785Y368900D01*
X487215Y368900D01*
X481735Y369889D01*
X479126Y370863D01*
X482957Y380110D01*
X484672Y379584D01*
X488207Y378976D01*
X491793Y378976D01*
X495327Y379584D01*
X497043Y380110D01*
X497043D01*
X500874Y370863D01*
D02*
G37*
G36*
X360874D02*
X358265Y369889D01*
X352785Y368900D01*
X347215Y368900D01*
X341735Y369889D01*
X339126Y370863D01*
X342957Y380110D01*
X344672Y379584D01*
X348207Y378976D01*
X351793Y378976D01*
X355327Y379584D01*
X357043Y380110D01*
X357043D01*
X360874Y370863D01*
D02*
G37*
G36*
X471796Y389331D02*
X473866Y386402D01*
X476402Y383866D01*
X479331Y381796D01*
X480916Y380956D01*
X477086Y371708D01*
Y371708D01*
X474553Y372864D01*
X469978Y376040D01*
X466040Y379978D01*
X462864Y384553D01*
X461708Y387086D01*
X470956Y390916D01*
X470956D01*
X471796Y389331D01*
D02*
G37*
G36*
X331796D02*
X333866Y386402D01*
X336402Y383866D01*
X339331Y381796D01*
X340916Y380956D01*
X337086Y371708D01*
Y371708D01*
X334553Y372864D01*
X329978Y376040D01*
X326040Y379978D01*
X322864Y384553D01*
X321708Y387086D01*
X330956Y390916D01*
X330956D01*
X331796Y389331D01*
D02*
G37*
G36*
X518292Y387086D02*
X518292D01*
X517136Y384553D01*
X513960Y379978D01*
X510022Y376040D01*
X505447Y372864D01*
X502914Y371708D01*
X499084Y380956D01*
X499084Y380956D01*
X500669Y381796D01*
X503598Y383866D01*
X506134Y386402D01*
X508204Y389331D01*
X509044Y390916D01*
X518292Y387086D01*
D02*
G37*
G36*
X378292D02*
X378292D01*
X377136Y384553D01*
X373960Y379978D01*
X370022Y376040D01*
X365447Y372864D01*
X362914Y371708D01*
X359084Y380956D01*
X359084Y380956D01*
X360669Y381796D01*
X363598Y383866D01*
X366134Y386402D01*
X368204Y389331D01*
X369044Y390916D01*
X378292Y387086D01*
D02*
G37*
G36*
X502914Y208292D02*
D01*
X502914Y208292D01*
X502914Y208292D01*
D02*
G37*
G36*
X362914D02*
D01*
X362914Y208292D01*
X362914Y208292D01*
D02*
G37*
G36*
X492785Y211100D02*
X498265Y210111D01*
X500874Y209137D01*
X500874Y209137D01*
X497043Y199890D01*
X495327Y200416D01*
X491793Y201024D01*
X488207Y201024D01*
X484672Y200416D01*
X482957Y199890D01*
X482957Y199890D01*
X479126Y209137D01*
X481735Y210111D01*
X487215Y211100D01*
X492785Y211100D01*
D02*
G37*
G36*
X352785D02*
X358265Y210111D01*
X360874Y209137D01*
X360874Y209137D01*
X357043Y199890D01*
X355327Y200416D01*
X351793Y201024D01*
X348207Y201024D01*
X344672Y200416D01*
X342957Y199890D01*
X342957Y199890D01*
X339126Y209137D01*
X341735Y210111D01*
X347215Y211100D01*
X352785Y211100D01*
D02*
G37*
G36*
X461708Y192914D02*
D01*
X461708Y192914D01*
X461708Y192914D01*
D02*
G37*
G36*
X321708D02*
D01*
X321708Y192914D01*
X321708Y192914D01*
D02*
G37*
G36*
X480916Y199044D02*
Y199044D01*
X479331Y198204D01*
X476402Y196134D01*
X473866Y193598D01*
X471796Y190669D01*
X470956Y189084D01*
X461708Y192914D01*
X462864Y195447D01*
X466040Y200022D01*
X469978Y203960D01*
X474553Y207136D01*
X477086Y208292D01*
X480916Y199044D01*
D02*
G37*
G36*
X340916D02*
Y199044D01*
X339331Y198204D01*
X336402Y196134D01*
X333866Y193598D01*
X331796Y190669D01*
X330956Y189084D01*
X321708Y192914D01*
X322864Y195447D01*
X326040Y200022D01*
X329978Y203960D01*
X334553Y207136D01*
X337086Y208292D01*
X340916Y199044D01*
D02*
G37*
G36*
X505447Y207136D02*
X510022Y203960D01*
X513960Y200022D01*
X517136Y195447D01*
X518292Y192914D01*
X509044Y189084D01*
X509044Y189084D01*
X508204Y190669D01*
X506134Y193598D01*
X503598Y196134D01*
X500669Y198204D01*
X499084Y199044D01*
X502914Y208292D01*
X505447Y207136D01*
D02*
G37*
G36*
X365447D02*
X370022Y203960D01*
X373960Y200022D01*
X377136Y195447D01*
X378292Y192914D01*
X369044Y189084D01*
X369044Y189084D01*
X368204Y190669D01*
X366134Y193598D01*
X363598Y196134D01*
X360669Y198204D01*
X359084Y199044D01*
X362914Y208292D01*
X365447Y207136D01*
D02*
G37*
G36*
X520111Y188265D02*
X521100Y182785D01*
X521100Y177215D01*
X520111Y171735D01*
X519137Y169126D01*
X519137D01*
X519137D01*
D01*
X509890Y172957D01*
X510416Y174672D01*
X511024Y178207D01*
X511024Y181793D01*
X510416Y185327D01*
X509890Y187043D01*
X509890Y187043D01*
X519137Y190874D01*
X520111Y188265D01*
D02*
G37*
G36*
X470110Y187043D02*
X469584Y185327D01*
X468976Y181793D01*
X468976Y178207D01*
X469584Y174672D01*
X470110Y172957D01*
Y172957D01*
X460863Y169126D01*
X459889Y171735D01*
X458900Y177215D01*
X458900Y182785D01*
X459889Y188265D01*
X460863Y190874D01*
Y190874D01*
X470110Y187043D01*
D02*
G37*
G36*
X380111Y188265D02*
X381100Y182785D01*
X381100Y177215D01*
X380111Y171735D01*
X379137Y169126D01*
X379137D01*
X379137D01*
D01*
X369890Y172957D01*
X370416Y174672D01*
X371024Y178207D01*
X371024Y181793D01*
X370416Y185327D01*
X369890Y187043D01*
X369890Y187043D01*
X379137Y190874D01*
X380111Y188265D01*
D02*
G37*
G36*
X330110Y187043D02*
X329584Y185327D01*
X328976Y181793D01*
X328976Y178207D01*
X329584Y174672D01*
X330110Y172957D01*
Y172957D01*
X320863Y169126D01*
X319889Y171735D01*
X318900Y177215D01*
X318900Y182785D01*
X319889Y188265D01*
X320863Y190874D01*
Y190874D01*
X330110Y187043D01*
D02*
G37*
G36*
X500874Y150863D02*
X498265Y149889D01*
X492785Y148900D01*
X487215Y148900D01*
X481735Y149889D01*
X479126Y150863D01*
X482957Y160110D01*
X484672Y159584D01*
X488207Y158976D01*
X491793Y158976D01*
X495327Y159584D01*
X497043Y160110D01*
X497043D01*
X500874Y150863D01*
D02*
G37*
G36*
X360874D02*
X358265Y149889D01*
X352785Y148900D01*
X347215Y148900D01*
X341735Y149889D01*
X339126Y150863D01*
X342957Y160110D01*
X344672Y159584D01*
X348207Y158976D01*
X351793Y158976D01*
X355327Y159584D01*
X357043Y160110D01*
X357043D01*
X360874Y150863D01*
D02*
G37*
G36*
X471796Y169331D02*
X473866Y166402D01*
X476402Y163866D01*
X479331Y161796D01*
X480916Y160956D01*
X477086Y151708D01*
Y151708D01*
X474553Y152864D01*
X469978Y156040D01*
X466040Y159978D01*
X462864Y164553D01*
X461708Y167086D01*
X470956Y170916D01*
X470956D01*
X471796Y169331D01*
D02*
G37*
G36*
X331796D02*
X333866Y166402D01*
X336402Y163866D01*
X339331Y161796D01*
X340916Y160956D01*
X337086Y151708D01*
Y151708D01*
X334553Y152864D01*
X329978Y156040D01*
X326040Y159978D01*
X322864Y164553D01*
X321708Y167086D01*
X330956Y170916D01*
X330956D01*
X331796Y169331D01*
D02*
G37*
G36*
X518292Y167086D02*
X518292D01*
X517136Y164553D01*
X513960Y159978D01*
X510022Y156040D01*
X505447Y152864D01*
X502914Y151708D01*
X499084Y160956D01*
X499084Y160956D01*
X500669Y161796D01*
X503598Y163866D01*
X506134Y166402D01*
X508204Y169331D01*
X509044Y170916D01*
X518292Y167086D01*
D02*
G37*
G36*
X378292D02*
X378292D01*
X377136Y164553D01*
X373960Y159978D01*
X370022Y156040D01*
X365447Y152864D01*
X362914Y151708D01*
X359084Y160956D01*
X359084Y160956D01*
X360669Y161796D01*
X363598Y163866D01*
X366134Y166402D01*
X368204Y169331D01*
X369044Y170916D01*
X378292Y167086D01*
D02*
G37*
G36*
X491400Y130500D02*
X492300Y130300D01*
X493100Y130000D01*
X494100Y129500D01*
X495000Y128900D01*
X493850Y127750D01*
X492827Y126762D01*
X492246Y127115D01*
X491200Y127500D01*
X490000Y127636D01*
X489400Y127600D01*
X488800Y127500D01*
X488250Y127350D01*
X487700Y127100D01*
X487200Y126850D01*
X486250Y127800D01*
X485102Y128953D01*
X485850Y129500D01*
X486900Y130000D01*
X488398Y130462D01*
X490000Y130600D01*
X491400Y130500D01*
D02*
G37*
G36*
X351400D02*
X352300Y130300D01*
X353100Y130000D01*
X354100Y129500D01*
X355000Y128900D01*
X353850Y127750D01*
X352827Y126762D01*
X352246Y127115D01*
X351200Y127500D01*
X350000Y127636D01*
X349400Y127600D01*
X348800Y127500D01*
X348250Y127350D01*
X347700Y127100D01*
X347200Y126850D01*
X346250Y127800D01*
X345102Y128953D01*
X345850Y129500D01*
X346900Y130000D01*
X348398Y130462D01*
X350000Y130600D01*
X351400Y130500D01*
D02*
G37*
G36*
X484750Y126350D02*
X485738Y125327D01*
X485385Y124746D01*
X485000Y123700D01*
X484864Y122500D01*
X484900Y121900D01*
X485000Y121300D01*
X485150Y120750D01*
X485400Y120200D01*
X485650Y119700D01*
X484700Y118750D01*
X483547Y117602D01*
X483000Y118350D01*
X482500Y119400D01*
X482038Y120898D01*
X481900Y122500D01*
X482000Y123900D01*
X482200Y124800D01*
X482500Y125600D01*
X483000Y126600D01*
X483600Y127500D01*
X484750Y126350D01*
D02*
G37*
G36*
X344750D02*
X345738Y125327D01*
X345385Y124746D01*
X345000Y123700D01*
X344864Y122500D01*
X344900Y121900D01*
X345000Y121300D01*
X345150Y120750D01*
X345400Y120200D01*
X345650Y119700D01*
X344700Y118750D01*
X343547Y117602D01*
X343000Y118350D01*
X342500Y119400D01*
X342038Y120898D01*
X341900Y122500D01*
X342000Y123900D01*
X342200Y124800D01*
X342500Y125600D01*
X343000Y126600D01*
X343600Y127500D01*
X344750Y126350D01*
D02*
G37*
G36*
X497000Y126650D02*
X497500Y125600D01*
X497962Y124102D01*
X498100Y122500D01*
X498000Y121100D01*
X497800Y120200D01*
X497500Y119400D01*
X497000Y118400D01*
X496400Y117500D01*
X495250Y118650D01*
X494262Y119673D01*
X494615Y120254D01*
X495000Y121300D01*
X495136Y122500D01*
X495100Y123100D01*
X495000Y123700D01*
X494850Y124250D01*
X494600Y124800D01*
X494350Y125300D01*
X495300Y126250D01*
X496453Y127398D01*
X497000Y126650D01*
D02*
G37*
G36*
X357000D02*
X357500Y125600D01*
X357962Y124102D01*
X358100Y122500D01*
X358000Y121100D01*
X357800Y120200D01*
X357500Y119400D01*
X357000Y118400D01*
X356400Y117500D01*
X355250Y118650D01*
X354262Y119673D01*
X354615Y120254D01*
X355000Y121300D01*
X355136Y122500D01*
X355100Y123100D01*
X355000Y123700D01*
X354850Y124250D01*
X354600Y124800D01*
X354350Y125300D01*
X355300Y126250D01*
X356453Y127398D01*
X357000Y126650D01*
D02*
G37*
G36*
X487754Y117885D02*
X488800Y117500D01*
X490000Y117364D01*
X490600Y117400D01*
X491200Y117500D01*
X491750Y117650D01*
X492300Y117900D01*
X492800Y118150D01*
X493750Y117200D01*
X494898Y116047D01*
X494150Y115500D01*
X493100Y115000D01*
X491602Y114538D01*
X490000Y114400D01*
X488600Y114500D01*
X487700Y114700D01*
X486900Y115000D01*
X485900Y115500D01*
X485000Y116100D01*
X486150Y117250D01*
X487173Y118238D01*
X487754Y117885D01*
D02*
G37*
G36*
X347754D02*
X348800Y117500D01*
X350000Y117364D01*
X350600Y117400D01*
X351200Y117500D01*
X351750Y117650D01*
X352300Y117900D01*
X352800Y118150D01*
X353750Y117200D01*
X354898Y116047D01*
X354150Y115500D01*
X353100Y115000D01*
X351602Y114538D01*
X350000Y114400D01*
X348600Y114500D01*
X347700Y114700D01*
X346900Y115000D01*
X345900Y115500D01*
X345000Y116100D01*
X346150Y117250D01*
X347173Y118238D01*
X347754Y117885D01*
D02*
G37*
D11*
X-560000Y-220000D02*
X-420000D01*
X-280000D01*
X-140000D01*
X0D01*
X140000D01*
X280000D01*
X420000D01*
X560000D01*
X-560000Y-0D02*
X-420000D01*
X-280000D01*
X-140000D01*
X0D01*
X140000D01*
X280000D01*
X420000D01*
X560000D01*
X-560000Y220000D02*
X-420000D01*
X-280000D01*
X-140000D01*
X0D01*
X140000D01*
X280000D01*
X420000D01*
X560000D01*
X420000Y220000D02*
Y440000D01*
Y0D02*
Y220000D01*
Y-220000D02*
Y0D01*
Y-440000D02*
Y-220000D01*
X280000Y220000D02*
Y440000D01*
Y0D02*
Y220000D01*
Y-220000D02*
Y0D01*
Y-440000D02*
Y-220000D01*
X140000Y220000D02*
Y440000D01*
Y0D02*
Y220000D01*
Y-220000D02*
Y0D01*
Y-440000D02*
Y-220000D01*
X0Y220000D02*
Y440000D01*
Y-0D02*
Y220000D01*
Y-220000D02*
Y-0D01*
Y-440000D02*
Y-220000D01*
X-140000Y220000D02*
Y440000D01*
Y0D02*
Y220000D01*
Y-220000D02*
Y0D01*
Y-440000D02*
Y-220000D01*
X-280000Y220000D02*
Y440000D01*
Y0D02*
Y220000D01*
Y-220000D02*
Y0D01*
Y-440000D02*
Y-220000D01*
X-420000Y220000D02*
Y440000D01*
Y0D02*
Y220000D01*
Y-220000D02*
Y0D01*
Y-440000D02*
Y-220000D01*
X420000Y440000D02*
X560000D01*
Y220000D02*
Y440000D01*
X560000Y0D02*
Y220000D01*
Y-220000D02*
Y0D01*
X420000Y-440000D02*
X560000D01*
Y-220000D01*
X280000Y440000D02*
X420000D01*
X280000Y-440000D02*
X420000D01*
X140000Y440000D02*
X280000D01*
X140000Y-440000D02*
X280000D01*
X0Y440000D02*
X140000D01*
X-0Y-440000D02*
X140000D01*
X-140000Y440000D02*
X0D01*
X-140000Y-440000D02*
X-0D01*
X-280000Y440000D02*
X-140000D01*
X-280000Y-440000D02*
X-140000D01*
X-420000Y440000D02*
X-280000D01*
X-420000Y-440000D02*
X-280000D01*
X-560000D02*
X-420000D01*
X-560000D02*
Y-220000D01*
Y0D01*
Y220000D01*
Y440000D01*
X-420000D01*
D15*
X-481625Y101760D02*
D03*
Y109980D02*
D03*
X-498370D02*
D03*
Y101760D02*
D03*
X-358370D02*
D03*
Y109980D02*
D03*
X-341625D02*
D03*
Y101760D02*
D03*
X-201625D02*
D03*
Y109980D02*
D03*
X-218370D02*
D03*
Y101760D02*
D03*
X-78370D02*
D03*
Y109980D02*
D03*
X-61625D02*
D03*
Y101760D02*
D03*
X78375D02*
D03*
Y109980D02*
D03*
X61630D02*
D03*
Y101760D02*
D03*
X201630D02*
D03*
Y109980D02*
D03*
X218375D02*
D03*
Y101760D02*
D03*
X358375D02*
D03*
Y109980D02*
D03*
X341630D02*
D03*
Y101760D02*
D03*
X481630D02*
D03*
Y109980D02*
D03*
X498375D02*
D03*
Y101760D02*
D03*
X-481625Y-338240D02*
D03*
Y-330020D02*
D03*
X-498370D02*
D03*
Y-338240D02*
D03*
X-358370D02*
D03*
Y-330020D02*
D03*
X-341625D02*
D03*
Y-338240D02*
D03*
X-201625D02*
D03*
Y-330020D02*
D03*
X-218370D02*
D03*
Y-338240D02*
D03*
X-78370D02*
D03*
Y-330020D02*
D03*
X-61625D02*
D03*
Y-338240D02*
D03*
X78375D02*
D03*
Y-330020D02*
D03*
X61630D02*
D03*
Y-338240D02*
D03*
X201630D02*
D03*
Y-330020D02*
D03*
X218375D02*
D03*
Y-338240D02*
D03*
X358375D02*
D03*
Y-330020D02*
D03*
X341630D02*
D03*
Y-338240D02*
D03*
X481630D02*
D03*
Y-330020D02*
D03*
X498375D02*
D03*
Y-338240D02*
D03*
D16*
X-483375Y122500D02*
D03*
X-496625D02*
D03*
X-356625D02*
D03*
X-343375D02*
D03*
X-203375D02*
D03*
X-216625D02*
D03*
X-76625D02*
D03*
X-63375D02*
D03*
X76625D02*
D03*
X63375D02*
D03*
X203375D02*
D03*
X216625D02*
D03*
X356625D02*
D03*
X343375D02*
D03*
X483375D02*
D03*
X496625D02*
D03*
X-483375Y-317500D02*
D03*
X-496625D02*
D03*
X-356625D02*
D03*
X-343375D02*
D03*
X-203375D02*
D03*
X-216625D02*
D03*
X-76625D02*
D03*
X-63375D02*
D03*
X76625D02*
D03*
X63375D02*
D03*
X203375D02*
D03*
X216625D02*
D03*
X356625D02*
D03*
X343375D02*
D03*
X483375D02*
D03*
X496625D02*
D03*
D17*
X-490000Y129125D02*
D03*
Y115875D02*
D03*
X-350000D02*
D03*
Y129125D02*
D03*
X-210000D02*
D03*
Y115875D02*
D03*
X-70000D02*
D03*
Y129125D02*
D03*
X70000D02*
D03*
Y115875D02*
D03*
X210000D02*
D03*
Y129125D02*
D03*
X350000D02*
D03*
Y115875D02*
D03*
X490000D02*
D03*
Y129125D02*
D03*
X-490000Y-310875D02*
D03*
Y-324125D02*
D03*
X-350000D02*
D03*
Y-310875D02*
D03*
X-210000D02*
D03*
Y-324125D02*
D03*
X-70000D02*
D03*
Y-310875D02*
D03*
X70000D02*
D03*
Y-324125D02*
D03*
X210000D02*
D03*
Y-310875D02*
D03*
X350000D02*
D03*
Y-324125D02*
D03*
X490000D02*
D03*
Y-310875D02*
D03*
D18*
X-434350Y351500D02*
D03*
Y278500D02*
D03*
X-453650D02*
D03*
Y351500D02*
D03*
X-313650D02*
D03*
Y278500D02*
D03*
X-294350D02*
D03*
Y351500D02*
D03*
X-154350D02*
D03*
Y278500D02*
D03*
X-173650D02*
D03*
Y351500D02*
D03*
X-33650D02*
D03*
Y278500D02*
D03*
X-14350D02*
D03*
Y351500D02*
D03*
X265650D02*
D03*
Y278500D02*
D03*
X246350D02*
D03*
Y351500D02*
D03*
X386350D02*
D03*
Y278500D02*
D03*
X405650D02*
D03*
Y351500D02*
D03*
X545650D02*
D03*
Y278500D02*
D03*
X526350D02*
D03*
Y351500D02*
D03*
X-453650Y131500D02*
D03*
Y58500D02*
D03*
X-434350D02*
D03*
Y131500D02*
D03*
X-294350D02*
D03*
Y58500D02*
D03*
X-313650D02*
D03*
Y131500D02*
D03*
X-173650D02*
D03*
Y58500D02*
D03*
X-154350D02*
D03*
Y131500D02*
D03*
X-14350D02*
D03*
Y58500D02*
D03*
X-33650D02*
D03*
Y131500D02*
D03*
X106350D02*
D03*
Y58500D02*
D03*
X125650D02*
D03*
Y131500D02*
D03*
X265650D02*
D03*
Y58500D02*
D03*
X246350D02*
D03*
Y131500D02*
D03*
X386350D02*
D03*
Y58500D02*
D03*
X405650D02*
D03*
Y131500D02*
D03*
X545650D02*
D03*
Y58500D02*
D03*
X526350D02*
D03*
Y131500D02*
D03*
X-453650Y-88500D02*
D03*
Y-161500D02*
D03*
X-434350D02*
D03*
Y-88500D02*
D03*
X-294350D02*
D03*
Y-161500D02*
D03*
X-313650D02*
D03*
Y-88500D02*
D03*
X-173650D02*
D03*
Y-161500D02*
D03*
X-154350D02*
D03*
Y-88500D02*
D03*
X-14350D02*
D03*
Y-161500D02*
D03*
X-33650D02*
D03*
Y-88500D02*
D03*
X106350D02*
D03*
Y-161500D02*
D03*
X125650D02*
D03*
Y-88500D02*
D03*
X265650D02*
D03*
Y-161500D02*
D03*
X246350D02*
D03*
Y-88500D02*
D03*
X386350D02*
D03*
Y-161500D02*
D03*
X405650D02*
D03*
Y-88500D02*
D03*
X545650D02*
D03*
Y-161500D02*
D03*
X526350D02*
D03*
Y-88500D02*
D03*
X-453650Y-308500D02*
D03*
Y-381500D02*
D03*
X-434350D02*
D03*
Y-308500D02*
D03*
X-294350D02*
D03*
Y-381500D02*
D03*
X-313650D02*
D03*
Y-308500D02*
D03*
X-173650D02*
D03*
Y-381500D02*
D03*
X-154350D02*
D03*
Y-308500D02*
D03*
X-14350D02*
D03*
Y-381500D02*
D03*
X-33650D02*
D03*
Y-308500D02*
D03*
X106350D02*
D03*
Y-381500D02*
D03*
X125650D02*
D03*
Y-308500D02*
D03*
X265650D02*
D03*
Y-381500D02*
D03*
X246350D02*
D03*
Y-308500D02*
D03*
X386350D02*
D03*
Y-381500D02*
D03*
X405650D02*
D03*
Y-308500D02*
D03*
X545650D02*
D03*
Y-381500D02*
D03*
X526350D02*
D03*
Y-308500D02*
D03*
X106350Y351500D02*
D03*
Y278500D02*
D03*
X125650D02*
D03*
Y351500D02*
D03*
D19*
X-461500Y292500D02*
D03*
Y322500D02*
D03*
Y337500D02*
D03*
X-321500D02*
D03*
Y322500D02*
D03*
Y292500D02*
D03*
X-181500D02*
D03*
Y322500D02*
D03*
Y337500D02*
D03*
X-41500D02*
D03*
Y322500D02*
D03*
Y292500D02*
D03*
X238500D02*
D03*
Y322500D02*
D03*
Y337500D02*
D03*
X378500D02*
D03*
Y322500D02*
D03*
Y292500D02*
D03*
X518500D02*
D03*
Y322500D02*
D03*
Y337500D02*
D03*
X-461500Y117500D02*
D03*
Y102500D02*
D03*
Y72500D02*
D03*
X-321500D02*
D03*
Y102500D02*
D03*
Y117500D02*
D03*
X-181500D02*
D03*
Y102500D02*
D03*
Y72500D02*
D03*
X-41500D02*
D03*
Y102500D02*
D03*
Y117500D02*
D03*
X98500D02*
D03*
Y102500D02*
D03*
Y72500D02*
D03*
X238500D02*
D03*
Y102500D02*
D03*
Y117500D02*
D03*
X378500D02*
D03*
Y102500D02*
D03*
Y72500D02*
D03*
X518500D02*
D03*
Y102500D02*
D03*
Y117500D02*
D03*
X-461500Y-102500D02*
D03*
Y-117500D02*
D03*
Y-147500D02*
D03*
X-321500D02*
D03*
Y-117500D02*
D03*
Y-102500D02*
D03*
X-181500D02*
D03*
Y-117500D02*
D03*
Y-147500D02*
D03*
X-41500D02*
D03*
Y-117500D02*
D03*
Y-102500D02*
D03*
X98500D02*
D03*
Y-117500D02*
D03*
Y-147500D02*
D03*
X238500D02*
D03*
Y-117500D02*
D03*
Y-102500D02*
D03*
X378500D02*
D03*
Y-117500D02*
D03*
Y-147500D02*
D03*
X518500D02*
D03*
Y-117500D02*
D03*
Y-102500D02*
D03*
X-461500Y-322500D02*
D03*
Y-337500D02*
D03*
Y-367500D02*
D03*
X-321500D02*
D03*
Y-337500D02*
D03*
Y-322500D02*
D03*
X-181500D02*
D03*
Y-337500D02*
D03*
Y-367500D02*
D03*
X-41500D02*
D03*
Y-337500D02*
D03*
Y-322500D02*
D03*
X98500D02*
D03*
Y-337500D02*
D03*
Y-367500D02*
D03*
X238500D02*
D03*
Y-337500D02*
D03*
Y-322500D02*
D03*
X378500D02*
D03*
Y-337500D02*
D03*
Y-367500D02*
D03*
X518500D02*
D03*
Y-337500D02*
D03*
Y-322500D02*
D03*
X98500Y337500D02*
D03*
Y322500D02*
D03*
Y292500D02*
D03*
D20*
X-539620Y332000D02*
D03*
X-524380D02*
D03*
X77620Y293000D02*
D03*
X62380D02*
D03*
X77620Y305000D02*
D03*
X62380D02*
D03*
X20380Y332000D02*
D03*
X35620D02*
D03*
X-539620Y112000D02*
D03*
X-524380D02*
D03*
X-482380Y73000D02*
D03*
X-497620D02*
D03*
X-482380Y85000D02*
D03*
X-497620D02*
D03*
X497620Y-367000D02*
D03*
X482380D02*
D03*
X497620Y-355000D02*
D03*
X482380D02*
D03*
X440380Y-328000D02*
D03*
X455620D02*
D03*
X357620Y-367000D02*
D03*
X342380D02*
D03*
X357620Y-355000D02*
D03*
X342380D02*
D03*
X300380Y-328000D02*
D03*
X315620D02*
D03*
X217620Y-367000D02*
D03*
X202380D02*
D03*
X217620Y-355000D02*
D03*
X202380D02*
D03*
X160380Y-328000D02*
D03*
X175620D02*
D03*
X77620Y-367000D02*
D03*
X62380D02*
D03*
X77620Y-355000D02*
D03*
X62380D02*
D03*
X20380Y-328000D02*
D03*
X35620D02*
D03*
X-62380Y-367000D02*
D03*
X-77620D02*
D03*
X-62380Y-355000D02*
D03*
X-77620D02*
D03*
X-119620Y-328000D02*
D03*
X-104380D02*
D03*
X-202380Y-367000D02*
D03*
X-217620D02*
D03*
X-202380Y-355000D02*
D03*
X-217620D02*
D03*
X-259620Y-328000D02*
D03*
X-244380D02*
D03*
X-342380Y-367000D02*
D03*
X-357620D02*
D03*
X-342380Y-355000D02*
D03*
X-357620D02*
D03*
X-399620Y-328000D02*
D03*
X-384380D02*
D03*
X-482380Y-367000D02*
D03*
X-497620D02*
D03*
X-482380Y-355000D02*
D03*
X-497620D02*
D03*
X-539620Y-328000D02*
D03*
X-524380D02*
D03*
X497620Y293000D02*
D03*
X482380D02*
D03*
X497620Y305000D02*
D03*
X482380D02*
D03*
X440380Y332000D02*
D03*
X455620D02*
D03*
X357620Y293000D02*
D03*
X342380D02*
D03*
X357620Y305000D02*
D03*
X342380D02*
D03*
X300380Y332000D02*
D03*
X315620D02*
D03*
X217620Y293000D02*
D03*
X202380D02*
D03*
X217620Y305000D02*
D03*
X202380D02*
D03*
X160380Y332000D02*
D03*
X175620D02*
D03*
X-62380Y293000D02*
D03*
X-77620D02*
D03*
X-62380Y305000D02*
D03*
X-77620D02*
D03*
X-119620Y332000D02*
D03*
X-104380D02*
D03*
X-202380Y293000D02*
D03*
X-217620D02*
D03*
X-202380Y305000D02*
D03*
X-217620D02*
D03*
X-259620Y332000D02*
D03*
X-244380D02*
D03*
X-342380Y293000D02*
D03*
X-357620D02*
D03*
X-342380Y305000D02*
D03*
X-357620D02*
D03*
X-399620Y332000D02*
D03*
X-384380D02*
D03*
X-482380Y293000D02*
D03*
X-497620D02*
D03*
X-482380Y305000D02*
D03*
X-497620D02*
D03*
X497620Y-147000D02*
D03*
X482380D02*
D03*
X497620Y-135000D02*
D03*
X482380D02*
D03*
X440380Y-108000D02*
D03*
X455620D02*
D03*
X357620Y-147000D02*
D03*
X342380D02*
D03*
X357620Y-135000D02*
D03*
X342380D02*
D03*
X300380Y-108000D02*
D03*
X315620D02*
D03*
X217620Y-147000D02*
D03*
X202380D02*
D03*
X217620Y-135000D02*
D03*
X202380D02*
D03*
X160380Y-108000D02*
D03*
X175620D02*
D03*
X77620Y-147000D02*
D03*
X62380D02*
D03*
X77620Y-135000D02*
D03*
X62380D02*
D03*
X20380Y-108000D02*
D03*
X35620D02*
D03*
X-62380Y-147000D02*
D03*
X-77620D02*
D03*
X-62380Y-135000D02*
D03*
X-77620D02*
D03*
X-119620Y-108000D02*
D03*
X-104380D02*
D03*
X-202380Y-147000D02*
D03*
X-217620D02*
D03*
X-202380Y-135000D02*
D03*
X-217620D02*
D03*
X-259620Y-108000D02*
D03*
X-244380D02*
D03*
X-342380Y-147000D02*
D03*
X-357620D02*
D03*
X-342380Y-135000D02*
D03*
X-357620D02*
D03*
X-399620Y-108000D02*
D03*
X-384380D02*
D03*
X-482380Y-147000D02*
D03*
X-497620D02*
D03*
X-482380Y-135000D02*
D03*
X-497620D02*
D03*
X-539620Y-108000D02*
D03*
X-524380D02*
D03*
X497620Y73000D02*
D03*
X482380D02*
D03*
X497620Y85000D02*
D03*
X482380D02*
D03*
X440380Y112000D02*
D03*
X455620D02*
D03*
X357620Y73000D02*
D03*
X342380D02*
D03*
X357620Y85000D02*
D03*
X342380D02*
D03*
X300380Y112000D02*
D03*
X315620D02*
D03*
X217620Y73000D02*
D03*
X202380D02*
D03*
X217620Y85000D02*
D03*
X202380D02*
D03*
X160380Y112000D02*
D03*
X175620D02*
D03*
X77620Y73000D02*
D03*
X62380D02*
D03*
X77620Y85000D02*
D03*
X62380D02*
D03*
X20380Y112000D02*
D03*
X35620D02*
D03*
X-62380Y73000D02*
D03*
X-77620D02*
D03*
X-62380Y85000D02*
D03*
X-77620D02*
D03*
X-119620Y112000D02*
D03*
X-104380D02*
D03*
X-202380Y73000D02*
D03*
X-217620D02*
D03*
X-202380Y85000D02*
D03*
X-217620D02*
D03*
X-259620Y112000D02*
D03*
X-244380D02*
D03*
X-342380Y73000D02*
D03*
X-357620D02*
D03*
X-342380Y85000D02*
D03*
X-357620D02*
D03*
X-399620Y112000D02*
D03*
X-384380D02*
D03*
D21*
X-530700Y303500D02*
D03*
Y317500D02*
D03*
X-539300Y303500D02*
D03*
Y317500D02*
D03*
X29300Y303500D02*
D03*
Y317500D02*
D03*
X20700Y303500D02*
D03*
Y317500D02*
D03*
X-530700Y83500D02*
D03*
Y97500D02*
D03*
X-539300Y83500D02*
D03*
Y97500D02*
D03*
X449300Y-356500D02*
D03*
Y-342500D02*
D03*
X440700Y-356500D02*
D03*
Y-342500D02*
D03*
X309300Y-356500D02*
D03*
Y-342500D02*
D03*
X300700Y-356500D02*
D03*
Y-342500D02*
D03*
X169300Y-356500D02*
D03*
Y-342500D02*
D03*
X160700Y-356500D02*
D03*
Y-342500D02*
D03*
X29300Y-356500D02*
D03*
Y-342500D02*
D03*
X20700Y-356500D02*
D03*
Y-342500D02*
D03*
X-110700Y-356500D02*
D03*
Y-342500D02*
D03*
X-119300Y-356500D02*
D03*
Y-342500D02*
D03*
X-250700Y-356500D02*
D03*
Y-342500D02*
D03*
X-259300Y-356500D02*
D03*
Y-342500D02*
D03*
X-390700Y-356500D02*
D03*
Y-342500D02*
D03*
X-399300Y-356500D02*
D03*
Y-342500D02*
D03*
X-530700Y-356500D02*
D03*
Y-342500D02*
D03*
X-539300Y-356500D02*
D03*
Y-342500D02*
D03*
X449300Y303500D02*
D03*
Y317500D02*
D03*
X440700Y303500D02*
D03*
Y317500D02*
D03*
X309300Y303500D02*
D03*
Y317500D02*
D03*
X300700Y303500D02*
D03*
Y317500D02*
D03*
X169300Y303500D02*
D03*
Y317500D02*
D03*
X160700Y303500D02*
D03*
Y317500D02*
D03*
X-110700Y303500D02*
D03*
Y317500D02*
D03*
X-119300Y303500D02*
D03*
Y317500D02*
D03*
X-250700Y303500D02*
D03*
Y317500D02*
D03*
X-259300Y303500D02*
D03*
Y317500D02*
D03*
X-390700Y303500D02*
D03*
Y317500D02*
D03*
X-399300Y303500D02*
D03*
Y317500D02*
D03*
X449300Y-136500D02*
D03*
Y-122500D02*
D03*
X440700Y-136500D02*
D03*
Y-122500D02*
D03*
X309300Y-136500D02*
D03*
Y-122500D02*
D03*
X300700Y-136500D02*
D03*
Y-122500D02*
D03*
X169300Y-136500D02*
D03*
Y-122500D02*
D03*
X160700Y-136500D02*
D03*
Y-122500D02*
D03*
X29300Y-136500D02*
D03*
Y-122500D02*
D03*
X20700Y-136500D02*
D03*
Y-122500D02*
D03*
X-110700Y-136500D02*
D03*
Y-122500D02*
D03*
X-119300Y-136500D02*
D03*
Y-122500D02*
D03*
X-250700Y-136500D02*
D03*
Y-122500D02*
D03*
X-259300Y-136500D02*
D03*
Y-122500D02*
D03*
X-390700Y-136500D02*
D03*
Y-122500D02*
D03*
X-399300Y-136500D02*
D03*
Y-122500D02*
D03*
X-530700Y-136500D02*
D03*
Y-122500D02*
D03*
X-539300Y-136500D02*
D03*
Y-122500D02*
D03*
X449300Y83500D02*
D03*
Y97500D02*
D03*
X440700Y83500D02*
D03*
Y97500D02*
D03*
X309300Y83500D02*
D03*
Y97500D02*
D03*
X300700Y83500D02*
D03*
Y97500D02*
D03*
X169300Y83500D02*
D03*
Y97500D02*
D03*
X160700Y83500D02*
D03*
Y97500D02*
D03*
X29300Y83500D02*
D03*
Y97500D02*
D03*
X20700Y83500D02*
D03*
Y97500D02*
D03*
X-110700Y83500D02*
D03*
Y97500D02*
D03*
X-119300Y83500D02*
D03*
Y97500D02*
D03*
X-250700Y83500D02*
D03*
Y97500D02*
D03*
X-259300Y83500D02*
D03*
Y97500D02*
D03*
X-390700Y83500D02*
D03*
Y97500D02*
D03*
X-399300Y83500D02*
D03*
Y97500D02*
D03*
D22*
X70000Y317750D02*
D03*
Y352250D02*
D03*
X490000Y317750D02*
D03*
Y352250D02*
D03*
X350000Y317750D02*
D03*
Y352250D02*
D03*
X210000Y317750D02*
D03*
Y352250D02*
D03*
X-70000Y317750D02*
D03*
Y352250D02*
D03*
X-210000Y317750D02*
D03*
Y352250D02*
D03*
X-350000Y317750D02*
D03*
Y352250D02*
D03*
X-490000Y317750D02*
D03*
Y352250D02*
D03*
X490000Y-122250D02*
D03*
Y-87750D02*
D03*
X350000Y-122250D02*
D03*
Y-87750D02*
D03*
X210000Y-122250D02*
D03*
Y-87750D02*
D03*
X70000Y-122250D02*
D03*
Y-87750D02*
D03*
X-70000Y-122250D02*
D03*
Y-87750D02*
D03*
X-210000Y-122250D02*
D03*
Y-87750D02*
D03*
X-350000Y-122250D02*
D03*
Y-87750D02*
D03*
X-490000Y-122250D02*
D03*
Y-87750D02*
D03*
D23*
X74250Y341750D02*
D03*
Y328250D02*
D03*
X65750Y341750D02*
D03*
Y328250D02*
D03*
X494250Y341750D02*
D03*
Y328250D02*
D03*
X485750Y341750D02*
D03*
Y328250D02*
D03*
X354250Y341750D02*
D03*
Y328250D02*
D03*
X345750Y341750D02*
D03*
Y328250D02*
D03*
X214250Y341750D02*
D03*
Y328250D02*
D03*
X205750Y341750D02*
D03*
Y328250D02*
D03*
X-65750Y341750D02*
D03*
Y328250D02*
D03*
X-74250Y341750D02*
D03*
Y328250D02*
D03*
X-205750Y341750D02*
D03*
Y328250D02*
D03*
X-214250Y341750D02*
D03*
Y328250D02*
D03*
X-345750Y341750D02*
D03*
Y328250D02*
D03*
X-354250Y341750D02*
D03*
Y328250D02*
D03*
X-485750Y341750D02*
D03*
Y328250D02*
D03*
X-494250Y341750D02*
D03*
Y328250D02*
D03*
X494250Y-98250D02*
D03*
Y-111750D02*
D03*
X485750Y-98250D02*
D03*
Y-111750D02*
D03*
X354250Y-98250D02*
D03*
Y-111750D02*
D03*
X345750Y-98250D02*
D03*
Y-111750D02*
D03*
X214250Y-98250D02*
D03*
Y-111750D02*
D03*
X205750Y-98250D02*
D03*
Y-111750D02*
D03*
X74250Y-98250D02*
D03*
Y-111750D02*
D03*
X65750Y-98250D02*
D03*
Y-111750D02*
D03*
X-65750Y-98250D02*
D03*
Y-111750D02*
D03*
X-74250Y-98250D02*
D03*
Y-111750D02*
D03*
X-205750Y-98250D02*
D03*
Y-111750D02*
D03*
X-214250Y-98250D02*
D03*
Y-111750D02*
D03*
X-345750Y-98250D02*
D03*
Y-111750D02*
D03*
X-354250Y-98250D02*
D03*
Y-111750D02*
D03*
X-485750Y-98250D02*
D03*
Y-111750D02*
D03*
X-494250Y-98250D02*
D03*
Y-111750D02*
D03*
D24*
X82250Y335000D02*
D03*
X57750D02*
D03*
X502250D02*
D03*
X477750D02*
D03*
X362250D02*
D03*
X337750D02*
D03*
X222250D02*
D03*
X197750D02*
D03*
X-57750D02*
D03*
X-82250D02*
D03*
X-197750D02*
D03*
X-222250D02*
D03*
X-337750D02*
D03*
X-362250D02*
D03*
X-477750D02*
D03*
X-502250D02*
D03*
X502250Y-105000D02*
D03*
X477750D02*
D03*
X362250D02*
D03*
X337750D02*
D03*
X222250D02*
D03*
X197750D02*
D03*
X82250D02*
D03*
X57750D02*
D03*
X-57750D02*
D03*
X-82250D02*
D03*
X-197750D02*
D03*
X-222250D02*
D03*
X-337750D02*
D03*
X-362250D02*
D03*
X-477750D02*
D03*
X-502250D02*
D03*
D25*
X98000Y234000D02*
D03*
X42000D02*
D03*
X-462000Y14000D02*
D03*
X-518000D02*
D03*
X518000Y-426000D02*
D03*
X462000D02*
D03*
X378000D02*
D03*
X322000D02*
D03*
X238000D02*
D03*
X182000D02*
D03*
X98000D02*
D03*
X42000D02*
D03*
X-42000D02*
D03*
X-98000D02*
D03*
X-182000D02*
D03*
X-238000D02*
D03*
X-322000D02*
D03*
X-378000D02*
D03*
X-462000D02*
D03*
X-518000D02*
D03*
X518000Y234000D02*
D03*
X462000D02*
D03*
X378000D02*
D03*
X322000D02*
D03*
X238000D02*
D03*
X182000D02*
D03*
X-42000D02*
D03*
X-98000D02*
D03*
X-182000D02*
D03*
X-238000D02*
D03*
X-322000D02*
D03*
X-378000D02*
D03*
X-462000D02*
D03*
X-518000D02*
D03*
X518000Y-206000D02*
D03*
X462000D02*
D03*
X378000D02*
D03*
X322000D02*
D03*
X238000D02*
D03*
X182000D02*
D03*
X98000D02*
D03*
X42000D02*
D03*
X-42000D02*
D03*
X-98000D02*
D03*
X-182000D02*
D03*
X-238000D02*
D03*
X-322000D02*
D03*
X-378000D02*
D03*
X-462000D02*
D03*
X-518000D02*
D03*
X518000Y14000D02*
D03*
X462000D02*
D03*
X378000D02*
D03*
X322000D02*
D03*
X238000D02*
D03*
X182000D02*
D03*
X98000D02*
D03*
X42000D02*
D03*
X-42000D02*
D03*
X-98000D02*
D03*
X-182000D02*
D03*
X-238000D02*
D03*
X-322000D02*
D03*
X-378000D02*
D03*
D26*
X85000Y275000D02*
D03*
X75000D02*
D03*
X55000D02*
D03*
X65000D02*
D03*
X-475000Y55000D02*
D03*
X-485000D02*
D03*
X-505000D02*
D03*
X-495000D02*
D03*
X505000Y-385000D02*
D03*
X495000D02*
D03*
X475000D02*
D03*
X485000D02*
D03*
X365000D02*
D03*
X355000D02*
D03*
X335000D02*
D03*
X345000D02*
D03*
X225000D02*
D03*
X215000D02*
D03*
X195000D02*
D03*
X205000D02*
D03*
X85000D02*
D03*
X75000D02*
D03*
X55000D02*
D03*
X65000D02*
D03*
X-55000D02*
D03*
X-65000D02*
D03*
X-85000D02*
D03*
X-75000D02*
D03*
X-195000D02*
D03*
X-205000D02*
D03*
X-225000D02*
D03*
X-215000D02*
D03*
X-335000D02*
D03*
X-345000D02*
D03*
X-365000D02*
D03*
X-355000D02*
D03*
X-475000D02*
D03*
X-485000D02*
D03*
X-505000D02*
D03*
X-495000D02*
D03*
X505000Y275000D02*
D03*
X495000D02*
D03*
X475000D02*
D03*
X485000D02*
D03*
X365000D02*
D03*
X355000D02*
D03*
X335000D02*
D03*
X345000D02*
D03*
X225000D02*
D03*
X215000D02*
D03*
X195000D02*
D03*
X205000D02*
D03*
X-55000D02*
D03*
X-65000D02*
D03*
X-85000D02*
D03*
X-75000D02*
D03*
X-195000D02*
D03*
X-205000D02*
D03*
X-225000D02*
D03*
X-215000D02*
D03*
X-335000D02*
D03*
X-345000D02*
D03*
X-365000D02*
D03*
X-355000D02*
D03*
X-475000D02*
D03*
X-485000D02*
D03*
X-505000D02*
D03*
X-495000D02*
D03*
X505000Y-165000D02*
D03*
X495000D02*
D03*
X475000D02*
D03*
X485000D02*
D03*
X365000D02*
D03*
X355000D02*
D03*
X335000D02*
D03*
X345000D02*
D03*
X225000D02*
D03*
X215000D02*
D03*
X195000D02*
D03*
X205000D02*
D03*
X85000D02*
D03*
X75000D02*
D03*
X55000D02*
D03*
X65000D02*
D03*
X-55000D02*
D03*
X-65000D02*
D03*
X-85000D02*
D03*
X-75000D02*
D03*
X-195000D02*
D03*
X-205000D02*
D03*
X-225000D02*
D03*
X-215000D02*
D03*
X-335000D02*
D03*
X-345000D02*
D03*
X-365000D02*
D03*
X-355000D02*
D03*
X-475000D02*
D03*
X-485000D02*
D03*
X-505000D02*
D03*
X-495000D02*
D03*
X505000Y55000D02*
D03*
X495000D02*
D03*
X475000D02*
D03*
X485000D02*
D03*
X365000D02*
D03*
X355000D02*
D03*
X335000D02*
D03*
X345000D02*
D03*
X225000D02*
D03*
X215000D02*
D03*
X195000D02*
D03*
X205000D02*
D03*
X85000D02*
D03*
X75000D02*
D03*
X55000D02*
D03*
X65000D02*
D03*
X-55000D02*
D03*
X-65000D02*
D03*
X-85000D02*
D03*
X-75000D02*
D03*
X-195000D02*
D03*
X-205000D02*
D03*
X-225000D02*
D03*
X-215000D02*
D03*
X-335000D02*
D03*
X-345000D02*
D03*
X-365000D02*
D03*
X-355000D02*
D03*
D27*
X25000Y254760D02*
D03*
Y285240D02*
D03*
X-535000Y34760D02*
D03*
Y65240D02*
D03*
X445000Y-405240D02*
D03*
Y-374760D02*
D03*
X305000Y-405240D02*
D03*
Y-374760D02*
D03*
X165000Y-405240D02*
D03*
Y-374760D02*
D03*
X25000Y-405240D02*
D03*
Y-374760D02*
D03*
X-115000Y-405240D02*
D03*
Y-374760D02*
D03*
X-255000Y-405240D02*
D03*
Y-374760D02*
D03*
X-395000Y-405240D02*
D03*
Y-374760D02*
D03*
X-535000Y-405240D02*
D03*
Y-374760D02*
D03*
X445000Y254760D02*
D03*
Y285240D02*
D03*
X305000Y254760D02*
D03*
Y285240D02*
D03*
X165000Y254760D02*
D03*
Y285240D02*
D03*
X-115000Y254760D02*
D03*
Y285240D02*
D03*
X-255000Y254760D02*
D03*
Y285240D02*
D03*
X-395000Y254760D02*
D03*
Y285240D02*
D03*
X-535000Y254760D02*
D03*
Y285240D02*
D03*
X445000Y-185240D02*
D03*
Y-154760D02*
D03*
X305000Y-185240D02*
D03*
Y-154760D02*
D03*
X165000Y-185240D02*
D03*
Y-154760D02*
D03*
X25000Y-185240D02*
D03*
Y-154760D02*
D03*
X-115000Y-185240D02*
D03*
Y-154760D02*
D03*
X-255000Y-185240D02*
D03*
Y-154760D02*
D03*
X-395000Y-185240D02*
D03*
Y-154760D02*
D03*
X-535000Y-185240D02*
D03*
Y-154760D02*
D03*
X445000Y34760D02*
D03*
Y65240D02*
D03*
X305000Y34760D02*
D03*
Y65240D02*
D03*
X165000Y34760D02*
D03*
Y65240D02*
D03*
X25000Y34760D02*
D03*
Y65240D02*
D03*
X-115000Y34760D02*
D03*
Y65240D02*
D03*
X-255000Y34760D02*
D03*
Y65240D02*
D03*
X-395000Y34760D02*
D03*
Y65240D02*
D03*
D28*
X43000Y303380D02*
D03*
Y318620D02*
D03*
X-517000Y83380D02*
D03*
Y98620D02*
D03*
X463000Y-356620D02*
D03*
Y-341380D02*
D03*
X323000Y-356620D02*
D03*
Y-341380D02*
D03*
X183000Y-356620D02*
D03*
Y-341380D02*
D03*
X43000Y-356620D02*
D03*
Y-341380D02*
D03*
X-97000Y-356620D02*
D03*
Y-341380D02*
D03*
X-237000Y-356620D02*
D03*
Y-341380D02*
D03*
X-377000Y-356620D02*
D03*
Y-341380D02*
D03*
X-517000Y-356620D02*
D03*
Y-341380D02*
D03*
X463000Y303380D02*
D03*
Y318620D02*
D03*
X323000Y303380D02*
D03*
Y318620D02*
D03*
X183000Y303380D02*
D03*
Y318620D02*
D03*
X-97000Y303380D02*
D03*
Y318620D02*
D03*
X-237000Y303380D02*
D03*
Y318620D02*
D03*
X-377000Y303380D02*
D03*
Y318620D02*
D03*
X-517000Y303380D02*
D03*
Y318620D02*
D03*
X463000Y-136620D02*
D03*
Y-121380D02*
D03*
X323000Y-136620D02*
D03*
Y-121380D02*
D03*
X183000Y-136620D02*
D03*
Y-121380D02*
D03*
X43000Y-136620D02*
D03*
Y-121380D02*
D03*
X-97000Y-136620D02*
D03*
Y-121380D02*
D03*
X-237000Y-136620D02*
D03*
Y-121380D02*
D03*
X-377000Y-136620D02*
D03*
Y-121380D02*
D03*
X-517000Y-136620D02*
D03*
Y-121380D02*
D03*
X463000Y83380D02*
D03*
Y98620D02*
D03*
X323000Y83380D02*
D03*
Y98620D02*
D03*
X183000Y83380D02*
D03*
Y98620D02*
D03*
X43000Y83380D02*
D03*
Y98620D02*
D03*
X-97000Y83380D02*
D03*
Y98620D02*
D03*
X-237000Y83380D02*
D03*
Y98620D02*
D03*
X-377000Y83380D02*
D03*
Y98620D02*
D03*
M02*
