M48
;Layer_Color=9474304
;FILE_FORMAT=4:4
METRIC,LZ
;TYPE=PLATED
T1F00S00C0.3000
T2F00S00C4.2200
;TYPE=NON_PLATED
T3F00S00C0.5000
T4F00S00C0.9000
%
T01
X0044Y-00419999
X00480001Y-0042
X00500001
X00505Y-004
X00495
X00530001Y-004
X00540001Y-0042
Y-0034
X005185Y-003465
X00512Y-0035
X00507Y-00344
X00500001Y-003
X00480001
X00460001
X00440001
X00470001Y-0032
X00463Y-00328
X00460001Y-0038
X00390001Y-004
X00365Y-004
X00355
X00360001Y-0042
X00340001
X003Y-00419999
X00260001Y-0042
X00250001Y-004
X00225Y-004
X00215
X00220001Y-0042
X00200001
X0016Y-00419999
X00120001Y-0042
X00110001Y-004
X00085Y-004
X00075
X00080001Y-0042
X00060001
X00040001Y-0038
X00043Y-00328
X00050001Y-0032
X00060001Y-003
X00080001
X00040001
X00087Y-00344
X00092Y-0035
X000985Y-003465
X00120001Y-0034
X00183Y-00328
X00190001Y-0032
X00200001Y-003
X00220001
X00180001
X00160001
X00180001Y-0038
X00232Y-0035
X002385Y-003465
X00227Y-00344
X00260001Y-0034
X00323Y-00328
X00330001Y-0032
X00340001Y-003
X00360001
X00320001
X00300001
X00320001Y-0038
X00372Y-0035
X003785Y-003465
X00367Y-00344
X00400001Y-0034
Y-0042
X00020001Y-00419999
X-00019999Y-0042
X-00029999Y-004
X-00055Y-004
X-00065
X-00059999Y-0042
X-00079999
X-0012Y-00419999
X-00159999Y-0042
X-00169999Y-004
X-00195Y-004
X-00205
X-00199999Y-0042
X-00219999
X-0026Y-00419999
X-00299999Y-0042
X-00309999Y-004
X-00335Y-004
X-00345
X-00339999Y-0042
X-00359999
X-00328Y-0035
X-003215Y-003465
X-00333Y-00344
X-00299999Y-0034
X-00237Y-00328
X-00229999Y-0032
X-00219999Y-003
X-00199999
X-00239999
X-00259999
X-00339999
X-00359999
X-00369999Y-0032
X-00239999Y-0038
X-00188Y-0035
X-001815Y-003465
X-00193Y-00344
X-00159999Y-0034
X-00097Y-00328
X-00089999Y-0032
X-00079999Y-003
X-00059999
X-00099999
X-00119999
X-00099999Y-0038
X-00048Y-0035
X-000415Y-003465
X-00053Y-00344
X-00019999Y-0034
X00020001Y-003
X-00379999
X-00399999
X-00377Y-00328
X-00379999Y-0038
X-004Y-00419999
X-0044Y-0042
X-0045Y-004
X-00475Y-004
X-00485
X-0048Y-0042
X-005
X-0054Y-00419999
X-0052Y-0038
X-00517Y-00328
X-0051Y-0032
X-005Y-003
X-0048
X-0052
X-0054
X-00473Y-00344
X-00468Y-0035
X-004615Y-003465
X-0044Y-0034
X-0045Y-0028
X-0044Y-0026
X-0045Y-0024
X-0044Y-002
X-0045Y-0018
X-00475Y-0018
X-00485
X-0048Y-002
X-005
X-0054Y-00199999
X-0053Y-0024
X-0054Y-0026
X-0053Y-0028
X-0052Y-0016
X-00517Y-00108
X-0051Y-001
X-00502Y-00088
X-00478
X-0052Y-00079999
X-0054
X-0053Y-00059999
X-0054Y-00039999
X-0053Y-0002
X-0054Y00020001
X-005Y00020001
X-0048
X-00475Y0004
X-00485
X-0045Y00040001
X-0044Y00020001
X-004Y00020001
X-00389999Y-0002
X-00399999Y-00039999
X-00389999Y-00059999
X-00379999Y-00079999
X-00399999
X-00377Y-00108
X-00379999Y-0016
X-004Y-00199999
X-00389999Y-0024
X-00399999Y-0026
X-00389999Y-0028
X-0044Y-0012
X-004615Y-001265
X-00502Y-00122
X-0045Y-00059999
X-0044Y-00039999
X-0045Y-0002
X-004615Y000935
X-00468Y0009
X-00473Y00096
X-0052Y00060001
X-00379999
X-00345Y0004
X-00335
X-00339999Y00020001
X-00359999
X-00299999
X-00309999Y00040001
Y-0002
X-00299999Y-00039999
X-00309999Y-00059999
X-00338Y-00088
X-00362
X-00369999Y-001
X-00362Y-00122
X-003215Y-001265
X-00299999Y-0012
X-00309999Y-0018
X-00335Y-0018
X-00345
X-00339999Y-002
X-00359999
X-00299999
X-0026Y-00199999
X-00219999Y-002
X-00199999
X-00195Y-0018
X-00205
X-00169999Y-0018
X-00159999Y-002
X-0012Y-00199999
X-00079999Y-002
X-00059999
X-00055Y-0018
X-00065
X-00029999Y-0018
X-00019999Y-002
X00020001Y-00199999
X00020001Y-0026
X-00019999
X-00029999Y-0024
Y-0028
X-00109999
X-00119999Y-0026
X-00109999Y-0024
X-00169999
X-00159999Y-0026
X-00169999Y-0028
X-00249999
X-00259999Y-0026
X-00249999Y-0024
X-00309999
X-00299999Y-0026
X-00309999Y-0028
X-00239999Y-0016
X-00237Y-00108
X-00229999Y-001
X-00222Y-00088
X-00198
X-00239999Y-00079999
X-00259999
X-00249999Y-00059999
X-00259999Y-00039999
X-00249999Y-0002
X-0026Y00020001
X-00219999Y00020001
X-00199999
X-00195Y0004
X-00205
X-00169999Y00040001
X-00159999Y00020001
X-0012Y00020001
X-00079999Y00020001
X-00059999
X-00055Y0004
X-00065
X-00029999Y00040001
X-00019999Y00020001
X00020001Y00020001
X00020001Y-00039999
Y-00079999
X-00029999Y-00059999
X-00019999Y-00039999
X-00029999Y-0002
X-00109999
X-00119999Y-00039999
X-00109999Y-00059999
X-00099999Y-00079999
X-00119999
X-00082Y-00088
X-00089999Y-001
X-00097Y-00108
X-00082Y-00122
X-000415Y-001265
X-00019999Y-0012
X-00058Y-00088
X-00099999Y-0016
X-00159999Y-0012
X-001815Y-001265
X-00222Y-00122
X-00169999Y-00059999
X-00159999Y-00039999
X-00169999Y-0002
X-001815Y000935
X-00188Y0009
X-00193Y00096
X-00239999Y00060001
X-003215Y000935
X-00328Y0009
X-00333Y00096
X-00099999Y00060001
X-00048Y0009
X-000415Y000935
X-00053Y00096
X00040001Y00060001
X00075Y0004
X00085
X00080001Y00020001
X00060001
X00120001
X00110001Y00040001
Y-0002
X00120001Y-00039999
X00110001Y-00059999
X00082Y-00088
X00058
X00050001Y-001
X00043Y-00108
X00058Y-00122
X000985Y-001265
X00120001Y-0012
X00110001Y-0018
X00085Y-0018
X00075
X00080001Y-002
X00060001
X00120001
X0016Y-00199999
X00200001Y-002
X00220001
X00225Y-0018
X00215
X00250001Y-0018
X00260001Y-002
X003Y-00199999
X00340001Y-002
X00360001
X00365Y-0018
X00355
X00390001Y-0018
X00400001Y-002
X00390001Y-0024
X00400001Y-0026
X00390001Y-0028
X00310001
X00300001Y-0026
X00310001Y-0024
X00250001
X00260001Y-0026
X00250001Y-0028
X00170001
X00160001Y-0026
X00170001Y-0024
X00110001
X00120001Y-0026
X00110001Y-0028
X00030001
Y-0024
X00040001Y-0016
Y-00079999
X00030001Y-00059999
Y-0002
X00170001
X00160001Y-00039999
X00170001Y-00059999
X00180001Y-00079999
X00160001
X00198Y-00088
X00190001Y-001
X00183Y-00108
X00198Y-00122
X002385Y-001265
X00260001Y-0012
X00250001Y-00059999
X00260001Y-00039999
X00250001Y-0002
X00260001Y00020001
X00250001Y00040001
X00225Y0004
X00215
X00220001Y00020001
X00200001
X0016Y00020001
X00180001Y00060001
X00232Y0009
X002385Y000935
X00227Y00096
X00320001Y00060001
X00355Y0004
X00365
X00360001Y00020001
X00340001
X003Y00020001
X00310001Y-0002
X00300001Y-00039999
X00310001Y-00059999
X00320001Y-00079999
X00300001
X00338Y-00088
X00330001Y-001
X00323Y-00108
X00338Y-00122
X003785Y-001265
X00400001Y-0012
X00390001Y-00059999
X00400001Y-00039999
X00390001Y-0002
X00400001Y00020001
X00390001Y00040001
X003785Y000935
X00372Y0009
X00367Y00096
X00362Y-00088
X00320001Y-0016
X00180001
X00222Y-00088
X000985Y000935
X00092Y0009
X00087Y00096
X00460001Y00060001
X00495Y0004
X00505
X00500001Y00020001
X00480001
X0044Y00020001
X00450001Y-0002
X00440001Y-00039999
X00450001Y-00059999
X00460001Y-00079999
X00440001
X00478Y-00088
X00470001Y-001
X00463Y-00108
X00478Y-00122
X005185Y-001265
X00540001Y-0012
X00530001Y-00059999
X00540001Y-00039999
X00530001Y-0002
X00540001Y00020001
X00530001Y00040001
X005185Y000935
X00512Y0009
X00507Y00096
X00502Y-00088
X00505Y-0018
X00495
X00500001Y-002
X00480001
X0044Y-00199999
X00450001Y-0024
X00440001Y-0026
X00450001Y-0028
X00530001
X00540001Y-0026
X00530001Y-0024
X00540001Y-002
X00530001Y-0018
X00460001Y-0016
X00463Y00112
X00470001Y00120001
X00480001Y00140001
X00500001
X00460001
X00440001
X00450001Y00160001
X00440001Y00180001
X00450001Y00200001
X0044Y00240001
X00480001Y00240001
X00500001
X00505Y0026
X00495
X00530001Y00260001
X00540001Y00240001
X00530001Y00200001
X00540001Y00180001
X00530001Y00160001
X00540001Y00100001
Y00320001
X005185Y003135
X00478Y00318
X00463Y00332
X0047Y00340001
X00478Y00352
X00502
X00460001Y00360001
X00440001
X00450001Y00380001
X00440001Y00400001
X00450001Y00420001
X00530001
X00540001Y00400001
X00530001Y00380001
X00460001Y00280001
X00390001Y00260001
X00365Y0026
X00355
X00360001Y00240001
X00340001
X003Y00240001
X00260001Y00240001
X00250001Y00260001
X00225Y0026
X00215
X00220001Y00240001
X00200001
X0016Y00240001
X00120001Y00240001
X00110001Y00260001
X00085Y0026
X00075
X00080001Y00240001
X00060001
X00040001Y00280001
X00043Y00332
X00050001Y00340001
X00058Y00352
X00082
X00040001Y00360001
X00030001Y00380001
Y00420001
X00110001
X00120001Y00400001
X00110001Y00380001
X00170001
X00180001Y00360001
X00160001
Y00400001
X00170001Y00420001
X00250001
X00260001Y00400001
X00250001Y00380001
X00222Y00352
X00198
X0019Y00340001
X00183Y00332
X00198Y00318
X002385Y003135
X00260001Y00320001
X00323Y00332
X0033Y00340001
X00338Y00352
X00362
X00320001Y00360001
X00300001
X00310001Y00380001
X00300001Y00400001
X00310001Y00420001
X00390001
X00400001Y00400001
X00390001Y00380001
X00400001Y00320001
X003785Y003135
X00338Y00318
X00320001Y00280001
X00310001Y00200001
X00300001Y00180001
X00310001Y00160001
X00320001Y00140001
X00340001
X00360001
X00390001Y00160001
X00400001Y00180001
X00390001Y00200001
X00400001Y00240001
Y00100001
X00323Y00112
X00330001Y00120001
X00300001Y00140001
X00250001Y00160001
X00260001Y00180001
X00250001Y00200001
X00170001
X00160001Y00180001
X00170001Y00160001
X00180001Y00140001
X00200001
X00220001
X00190001Y00120001
X00183Y00112
X00160001Y00140001
X00110001Y00160001
X00120001Y00180001
X00110001Y00200001
X00030001
Y00160001
X00040001Y00140001
X00060001
X00080001
X00050001Y00120001
X00043Y00112
X00120001Y00100001
X00260001
X00180001Y00280001
X00120001Y00320001
X000985Y003135
X00058Y00318
X00020001Y00360001
Y00400001
X-00019999
X-00029999Y00420001
Y00380001
X-00058Y00352
X-00082
X-0009Y00340001
X-00097Y00332
X-00082Y00318
X-000415Y003135
X-00019999Y00320001
X-00029999Y00260001
X-00055Y0026
X-00065
X-00059999Y00240001
X-00079999
X-0012Y00240001
X-00159999Y00240001
X-00169999Y00260001
X-00195Y0026
X-00205
X-00199999Y00240001
X-00219999
X-0026Y00240001
X-00299999Y00240001
X-00309999Y00260001
X-00335Y0026
X-00345
X-00339999Y00240001
X-00359999
X-00362Y00318
X-0037Y00340001
X-00362Y00352
X-00338
X-003215Y003135
X-00299999Y00320001
X-00309999Y00380001
X-00299999Y00400001
X-00309999Y00420001
X-00249999
X-00259999Y00400001
X-00249999Y00380001
X-00239999Y00360001
X-00259999
X-00222Y00352
X-0023Y00340001
X-00237Y00332
X-00222Y00318
X-001815Y003135
X-00159999Y00320001
X-00198Y00352
X-00169999Y00380001
X-00159999Y00400001
X-00169999Y00420001
X-00109999
X-00119999Y00400001
X-00109999Y00380001
X-00099999Y00360001
X-00119999
X-00099999Y00280001
X-00109999Y00200001
X-00119999Y00180001
X-00109999Y00160001
X-00099999Y00140001
X-00079999
X-00059999
X-00029999Y00160001
X-00019999Y00180001
X-00029999Y00200001
X-00019999Y00240001
X00020001Y00240001
X00020001Y00180001
Y00140001
X-00019999Y00100001
X-00097Y00112
X-00089999Y00120001
X-00119999Y00140001
X-00169999Y00160001
X-00159999Y00180001
X-00169999Y00200001
X-00249999
X-00259999Y00180001
X-00249999Y00160001
X-00239999Y00140001
X-00219999
X-00199999
X-00229999Y00120001
X-00237Y00112
X-00259999Y00140001
X-00309999Y00160001
X-00299999Y00180001
X-00309999Y00200001
X-00339999Y00140001
X-00359999
X-00369999Y00120001
X-00299999Y00100001
X-00159999
X-00239999Y00280001
X-00379999
X-00377Y00332
X-00379999Y00360001
X-00399999
X-00389999Y00380001
X-00399999Y00400001
X-00389999Y00420001
X-0045
X-0044Y00400001
X-0045Y00380001
X-00478Y00352
X-00502
X-0051Y00340001
X-00517Y00332
X-00502Y00318
X-004615Y003135
X-0044Y00320001
X-0045Y00260001
X-00475Y0026
X-00485
X-0048Y00240001
X-005
X-0054Y00240001
X-0053Y00200001
X-0054Y00180001
X-0053Y00160001
X-0052Y00140001
X-005
X-0048
X-0045Y00160001
X-0044Y00180001
X-0045Y00200001
X-0044Y00240001
X-004Y00240001
X-00389999Y00200001
X-00399999Y00180001
X-00389999Y00160001
X-00379999Y00140001
X-00399999
X-00377Y00112
X-0044Y00100001
X-00517Y00112
X-0051Y00120001
X-0054Y00140001
X-0052Y00280001
Y00360001
X-0054
X-0053Y00380001
X-0054Y00400001
X-0053Y00420001
T02
X-0049Y-0026
Y-0004
X-0035
X-0021
X-0007
Y-0026
X-0021
X-0035
X0007
X0021
X0035
Y-0004
X0021
X0007
X0049
Y-0026
X0049Y0018
Y004
X0035
X0021
X0007
Y0018
X0021
X0035
X-0007
X-0021
X-0035
Y004
X-0021
X-0007
X-0049
Y0018
T03
X0049Y-003175
X0035
X0021
X0007
X-0007
X-0021
X-0035
X-0049
X0049Y001225
X0035
X0021
X0007
X-0007
X-0021
X-0035
X-0049
T04
X00536Y-0036
Y-0033
X00396
Y-0036
X00256
Y-0033
X00116
Y-0036
X-00024
Y-0033
X-00164
Y-0036
X-00304
Y-0033
X-00444
Y-0036
Y-0014
Y-0011
Y0008
X-00304
X-00164
X-00024
Y-0011
Y-0014
X-00164
Y-0011
X-00304
Y-0014
X00116
Y-0011
X00256
Y-0014
X00396
Y-0011
X00396Y0008
X00256
X00116
X00536
X00536Y-0011
Y-0014
X00536Y0011
Y003
Y0033
X00396
Y003
X00256
Y0033
X00116
Y003
Y0011
X00256
X00396
X-00024
X-00164
X-00304
Y003
Y0033
X-00164
Y003
X-00024
Y0033
X-00444
Y003
Y0011
M30
