G04*
G04 #@! TF.GenerationSoftware,Altium Limited,Altium Designer,22.2.1 (43)*
G04*
G04 Layer_Physical_Order=3*
G04 Layer_Color=16440176*
%FSLAX44Y44*%
%MOMM*%
G71*
G04*
G04 #@! TF.SameCoordinates,1638434B-95A0-431D-8215-D8E3F3AE7B07*
G04*
G04*
G04 #@! TF.FilePolarity,Positive*
G04*
G01*
G75*
%ADD10C,0.2540*%
%ADD103C,1.4000*%
%ADD104C,1.6000*%
%ADD105R,1.6000X1.6000*%
%ADD108R,2.2000X1.7000*%
%ADD110O,1.2000X2.1000*%
%ADD111O,1.2000X2.3000*%
%ADD112O,1.5000X2.1000*%
%ADD114C,1.9000*%
%ADD116C,0.5500*%
%ADD117C,0.6200*%
G36*
X468147Y704730D02*
X467266Y703204D01*
X466700Y701093D01*
Y698907D01*
X467266Y696796D01*
X468358Y694904D01*
X469904Y693358D01*
X471796Y692266D01*
X473907Y691700D01*
X476093D01*
X478204Y692266D01*
X479845Y693214D01*
X481115Y692759D01*
Y677500D01*
X481115Y677500D01*
X481078D01*
X481526Y671802D01*
X482860Y666245D01*
X485047Y660965D01*
X488034Y656092D01*
X491745Y651746D01*
X496091Y648034D01*
X500965Y645048D01*
X506245Y642860D01*
X511802Y641526D01*
X517500Y641078D01*
Y641115D01*
X517500Y641115D01*
X540000D01*
X540167Y641149D01*
X542366Y640711D01*
X544371Y639371D01*
X545000Y638430D01*
X545000Y-638430D01*
X544371Y-639371D01*
X542366Y-640711D01*
X540167Y-641149D01*
X540000Y-641115D01*
X517500D01*
X517500Y-641115D01*
Y-641078D01*
X511802Y-641526D01*
X506245Y-642860D01*
X500965Y-645047D01*
X496091Y-648034D01*
X491745Y-651746D01*
X488034Y-656091D01*
X485047Y-660965D01*
X482860Y-666245D01*
X481526Y-671802D01*
X481078Y-677500D01*
X481115D01*
X481115Y-677500D01*
Y-692759D01*
X479845Y-693213D01*
X478204Y-692266D01*
X476093Y-691700D01*
X473907D01*
X471796Y-692266D01*
X469904Y-693358D01*
X468358Y-694904D01*
X467266Y-696796D01*
X466700Y-698907D01*
Y-701093D01*
X467266Y-703204D01*
X468214Y-704845D01*
X467759Y-706115D01*
X172500D01*
X172304Y-706154D01*
X168959Y-705714D01*
X165660Y-704347D01*
X162827Y-702173D01*
X160653Y-699340D01*
X159286Y-696041D01*
X158846Y-692696D01*
X158885Y-692500D01*
Y-682500D01*
X158913D01*
X158502Y-678323D01*
X157283Y-674305D01*
X155304Y-670603D01*
X152641Y-667359D01*
X149396Y-664696D01*
X145695Y-662717D01*
X141678Y-661498D01*
X137500Y-661087D01*
Y-661115D01*
X136250Y-661364D01*
X135000Y-661115D01*
X-137500D01*
Y-661087D01*
X-141678Y-661498D01*
X-145695Y-662717D01*
X-149396Y-664696D01*
X-152641Y-667359D01*
X-155304Y-670603D01*
X-157283Y-674306D01*
X-158502Y-678323D01*
X-158913Y-682500D01*
X-158885D01*
Y-692500D01*
X-158846Y-692696D01*
X-159286Y-696041D01*
X-160653Y-699340D01*
X-162827Y-702173D01*
X-165660Y-704347D01*
X-168959Y-705714D01*
X-171270Y-706018D01*
X-172500Y-706115D01*
X-173758Y-706115D01*
X-280644D01*
X-281482Y-705161D01*
X-281395Y-704500D01*
Y-694500D01*
X-281654Y-692532D01*
X-282414Y-690697D01*
X-283622Y-689122D01*
X-285198Y-687914D01*
X-287032Y-687154D01*
X-289000Y-686895D01*
X-311000D01*
X-312968Y-687154D01*
X-314802Y-687914D01*
X-316378Y-689122D01*
X-317586Y-690697D01*
X-318346Y-692532D01*
X-318605Y-694500D01*
Y-704500D01*
X-318518Y-705161D01*
X-319356Y-706115D01*
X-467759Y-706115D01*
X-468214Y-704845D01*
X-467266Y-703204D01*
X-466700Y-701093D01*
Y-698907D01*
X-467266Y-696796D01*
X-468358Y-694904D01*
X-469904Y-693358D01*
X-471796Y-692266D01*
X-473907Y-691700D01*
X-476093D01*
X-478204Y-692266D01*
X-479845Y-693213D01*
X-481115Y-692759D01*
Y-677500D01*
X-481115Y-677500D01*
X-481078D01*
X-481526Y-671802D01*
X-482860Y-666245D01*
X-485047Y-660965D01*
X-488034Y-656091D01*
X-491745Y-651746D01*
X-496091Y-648034D01*
X-500965Y-645047D01*
X-506245Y-642860D01*
X-511802Y-641526D01*
X-517500Y-641078D01*
Y-641115D01*
X-517500Y-641115D01*
X-540000D01*
X-540167Y-641149D01*
X-542366Y-640711D01*
X-544371Y-639371D01*
X-545000Y-638430D01*
Y638430D01*
X-544371Y639371D01*
X-542366Y640711D01*
X-540167Y641149D01*
X-540000Y641115D01*
X-517500D01*
X-517500Y641115D01*
Y641078D01*
X-511802Y641526D01*
X-506245Y642860D01*
X-500965Y645048D01*
X-496091Y648034D01*
X-491745Y651746D01*
X-488034Y656092D01*
X-485047Y660965D01*
X-482860Y666245D01*
X-481526Y671802D01*
X-481078Y677500D01*
X-481115D01*
X-481115Y677500D01*
Y692759D01*
X-479845Y693214D01*
X-478204Y692266D01*
X-476093Y691700D01*
X-473907D01*
X-471796Y692266D01*
X-469904Y693358D01*
X-468358Y694904D01*
X-467266Y696796D01*
X-466700Y698907D01*
Y701093D01*
X-467266Y703204D01*
X-468147Y704730D01*
X-467609Y706000D01*
X467609Y706000D01*
X468147Y704730D01*
D02*
G37*
%LPC*%
G36*
X44470Y701946D02*
Y690270D01*
X51814D01*
Y693500D01*
X51520Y695729D01*
X50660Y697807D01*
X49291Y699591D01*
X47507Y700960D01*
X45429Y701820D01*
X44470Y701946D01*
D02*
G37*
G36*
X41930Y701946D02*
X40971Y701820D01*
X38893Y700960D01*
X37109Y699591D01*
X35740Y697807D01*
X34880Y695729D01*
X34586Y693500D01*
Y690270D01*
X41930D01*
Y701946D01*
D02*
G37*
G36*
X-41930D02*
Y690270D01*
X-34586D01*
Y693500D01*
X-34880Y695729D01*
X-35740Y697807D01*
X-37109Y699591D01*
X-38893Y700960D01*
X-40971Y701820D01*
X-41930Y701946D01*
D02*
G37*
G36*
X-44470D02*
X-45429Y701820D01*
X-47507Y700960D01*
X-49291Y699591D01*
X-50660Y697807D01*
X-51520Y695729D01*
X-51814Y693500D01*
Y690270D01*
X-44470D01*
Y701946D01*
D02*
G37*
G36*
X51814Y687730D02*
X44470D01*
Y676053D01*
X45429Y676180D01*
X47507Y677040D01*
X49291Y678409D01*
X50660Y680193D01*
X51520Y682271D01*
X51814Y684500D01*
Y687730D01*
D02*
G37*
G36*
X-34586Y687730D02*
X-41930D01*
Y676053D01*
X-40971Y676180D01*
X-38893Y677040D01*
X-37109Y678409D01*
X-35740Y680193D01*
X-34880Y682271D01*
X-34586Y684500D01*
Y687730D01*
D02*
G37*
G36*
X-44470D02*
X-51814D01*
Y684500D01*
X-51520Y682271D01*
X-50660Y680193D01*
X-49291Y678409D01*
X-47507Y677040D01*
X-45429Y676180D01*
X-44470Y676053D01*
Y687730D01*
D02*
G37*
G36*
X41930Y687730D02*
X34586D01*
Y684500D01*
X34880Y682271D01*
X35740Y680193D01*
X37109Y678409D01*
X38893Y677040D01*
X40971Y676180D01*
X41930Y676053D01*
Y687730D01*
D02*
G37*
G36*
X-160165Y670340D02*
X-160480D01*
Y659570D01*
X-149710D01*
Y659885D01*
X-150531Y662947D01*
X-152116Y665693D01*
X-154357Y667934D01*
X-157103Y669520D01*
X-160165Y670340D01*
D02*
G37*
G36*
X-163020D02*
X-163335D01*
X-166397Y669520D01*
X-169143Y667934D01*
X-171384Y665693D01*
X-172969Y662947D01*
X-173790Y659885D01*
Y659570D01*
X-163020D01*
Y670340D01*
D02*
G37*
G36*
X17052Y660290D02*
X14948D01*
X13003Y659485D01*
X12000Y658481D01*
X10997Y659485D01*
X9052Y660290D01*
X6948D01*
X5003Y659485D01*
X4000Y658481D01*
X2997Y659485D01*
X1052Y660290D01*
X-1052D01*
X-2997Y659485D01*
X-4000Y658481D01*
X-5003Y659485D01*
X-6948Y660290D01*
X-9052D01*
X-10997Y659485D01*
X-12000Y658481D01*
X-13003Y659485D01*
X-14948Y660290D01*
X-17052D01*
X-18996Y659485D01*
X-20485Y657997D01*
X-21290Y656052D01*
Y653948D01*
X-20485Y652003D01*
X-18996Y650515D01*
X-17052Y649710D01*
X-14948D01*
X-13003Y650515D01*
X-12000Y651519D01*
X-10997Y650515D01*
X-9052Y649710D01*
X-6948D01*
X-5003Y650515D01*
X-4000Y651519D01*
X-2997Y650515D01*
X-1052Y649710D01*
X1052D01*
X2997Y650515D01*
X4000Y651519D01*
X5003Y650515D01*
X6948Y649710D01*
X9052D01*
X10997Y650515D01*
X12000Y651519D01*
X13003Y650515D01*
X14948Y649710D01*
X17052D01*
X18996Y650515D01*
X20485Y652003D01*
X21290Y653948D01*
Y656052D01*
X20485Y657997D01*
X18996Y659485D01*
X17052Y660290D01*
D02*
G37*
G36*
X-104007Y671790D02*
X-105993D01*
X-107910Y671276D01*
X-109630Y670284D01*
X-111034Y668880D01*
X-112026Y667160D01*
X-112540Y665243D01*
Y663257D01*
X-112026Y661340D01*
X-111034Y659620D01*
X-109630Y658216D01*
X-107910Y657224D01*
X-105993Y656710D01*
X-104007D01*
X-102090Y657224D01*
X-100370Y658216D01*
X-98967Y659620D01*
X-97974Y661340D01*
X-97460Y663257D01*
Y665243D01*
X-97974Y667160D01*
X-98967Y668880D01*
X-100370Y670284D01*
X-102090Y671276D01*
X-104007Y671790D01*
D02*
G37*
G36*
X156453Y678540D02*
X153547D01*
X150739Y677788D01*
X148221Y676334D01*
X146166Y674279D01*
X144712Y671761D01*
X143960Y668953D01*
Y666047D01*
X144712Y663239D01*
X146166Y660721D01*
X148221Y658666D01*
X150739Y657212D01*
X153547Y656460D01*
X156453D01*
X159261Y657212D01*
X161779Y658666D01*
X163834Y660721D01*
X165288Y663239D01*
X166040Y666047D01*
Y668953D01*
X165288Y671761D01*
X163834Y674279D01*
X161779Y676334D01*
X159261Y677788D01*
X156453Y678540D01*
D02*
G37*
G36*
X41930Y661146D02*
X40971Y661020D01*
X38893Y660160D01*
X37109Y658791D01*
X35740Y657007D01*
X35145Y655571D01*
X33809Y655480D01*
X32180Y657109D01*
X30052Y657990D01*
X27748D01*
X25620Y657109D01*
X23991Y655480D01*
X23110Y653352D01*
Y651048D01*
X23991Y648920D01*
X25620Y647291D01*
X27748Y646410D01*
X30052D01*
X32180Y647291D01*
X33316Y648428D01*
X34586Y647902D01*
Y641700D01*
X34880Y639471D01*
X35740Y637393D01*
X37109Y635609D01*
X38893Y634240D01*
X40971Y633380D01*
X41930Y633254D01*
Y647200D01*
Y661146D01*
D02*
G37*
G36*
X77588Y674940D02*
X74812D01*
X72132Y674222D01*
X69728Y672834D01*
X67766Y670872D01*
X66378Y668468D01*
X65660Y665788D01*
Y663012D01*
X66378Y660332D01*
X67766Y657928D01*
X69728Y655966D01*
X72132Y654578D01*
X74812Y653860D01*
X77588D01*
X80268Y654578D01*
X82672Y655966D01*
X84634Y657928D01*
X86022Y660332D01*
X86740Y663012D01*
Y665788D01*
X86022Y668468D01*
X84634Y670872D01*
X82672Y672834D01*
X80268Y674222D01*
X77588Y674940D01*
D02*
G37*
G36*
X-74812D02*
X-77588D01*
X-80268Y674222D01*
X-82672Y672834D01*
X-84634Y670872D01*
X-86022Y668468D01*
X-86740Y665788D01*
Y663012D01*
X-86022Y660332D01*
X-84634Y657928D01*
X-82672Y655966D01*
X-80268Y654578D01*
X-77588Y653860D01*
X-74812D01*
X-72132Y654578D01*
X-69728Y655966D01*
X-67766Y657928D01*
X-66378Y660332D01*
X-65660Y663012D01*
Y665788D01*
X-66378Y668468D01*
X-67766Y670872D01*
X-69728Y672834D01*
X-72132Y674222D01*
X-74812Y674940D01*
D02*
G37*
G36*
X44470Y661146D02*
Y648470D01*
X51814D01*
Y652700D01*
X51520Y654929D01*
X50660Y657007D01*
X49291Y658791D01*
X47507Y660160D01*
X45429Y661020D01*
X44470Y661146D01*
D02*
G37*
G36*
X-44470Y661146D02*
X-45429Y661020D01*
X-47507Y660160D01*
X-49291Y658791D01*
X-50660Y657007D01*
X-51520Y654929D01*
X-51814Y652700D01*
Y648470D01*
X-44470D01*
Y661146D01*
D02*
G37*
G36*
X-41930D02*
Y647200D01*
Y633254D01*
X-40971Y633380D01*
X-38893Y634240D01*
X-37109Y635609D01*
X-35740Y637393D01*
X-34880Y639471D01*
X-34586Y641700D01*
Y647902D01*
X-33316Y648428D01*
X-32180Y647291D01*
X-30052Y646410D01*
X-27748D01*
X-25620Y647291D01*
X-23991Y648920D01*
X-23110Y651048D01*
Y653352D01*
X-23991Y655480D01*
X-25620Y657109D01*
X-27748Y657990D01*
X-30052D01*
X-32180Y657109D01*
X-33809Y655480D01*
X-35145Y655571D01*
X-35740Y657007D01*
X-37109Y658791D01*
X-38893Y660160D01*
X-40971Y661020D01*
X-41930Y661146D01*
D02*
G37*
G36*
X-149710Y657030D02*
X-160480D01*
Y646260D01*
X-160165D01*
X-157103Y647081D01*
X-154357Y648666D01*
X-152116Y650907D01*
X-150531Y653653D01*
X-149710Y656715D01*
Y657030D01*
D02*
G37*
G36*
X-163020D02*
X-173790D01*
Y656715D01*
X-172969Y653653D01*
X-171384Y650907D01*
X-169143Y648666D01*
X-166397Y647081D01*
X-163335Y646260D01*
X-163020D01*
Y657030D01*
D02*
G37*
G36*
X-261265Y670340D02*
X-264435D01*
X-267497Y669520D01*
X-270243Y667934D01*
X-272484Y665693D01*
X-274069Y662947D01*
X-274890Y659885D01*
Y656715D01*
X-274069Y653653D01*
X-272484Y650907D01*
X-270243Y648666D01*
X-267497Y647081D01*
X-264435Y646260D01*
X-261265D01*
X-258203Y647081D01*
X-255457Y648666D01*
X-253216Y650907D01*
X-251630Y653653D01*
X-250810Y656715D01*
Y659885D01*
X-251630Y662947D01*
X-253216Y665693D01*
X-255457Y667934D01*
X-258203Y669520D01*
X-261265Y670340D01*
D02*
G37*
G36*
X51814Y645930D02*
X44470D01*
Y633254D01*
X45429Y633380D01*
X47507Y634240D01*
X49291Y635609D01*
X50660Y637393D01*
X51520Y639471D01*
X51814Y641700D01*
Y645930D01*
D02*
G37*
G36*
X-44470D02*
X-51814D01*
Y641700D01*
X-51520Y639471D01*
X-50660Y637393D01*
X-49291Y635609D01*
X-47507Y634240D01*
X-45429Y633380D01*
X-44470Y633254D01*
Y645930D01*
D02*
G37*
G36*
X-185565Y653340D02*
X-188735D01*
X-191797Y652520D01*
X-194543Y650934D01*
X-196784Y648693D01*
X-198370Y645947D01*
X-199190Y642885D01*
Y639715D01*
X-198370Y636653D01*
X-196784Y633907D01*
X-194543Y631666D01*
X-191797Y630081D01*
X-188735Y629260D01*
X-185565D01*
X-182503Y630081D01*
X-179757Y631666D01*
X-177516Y633907D01*
X-175931Y636653D01*
X-175110Y639715D01*
Y642885D01*
X-175931Y645947D01*
X-177516Y648693D01*
X-179757Y650934D01*
X-182503Y652520D01*
X-185565Y653340D01*
D02*
G37*
G36*
X-286665D02*
X-289835D01*
X-292897Y652520D01*
X-295643Y650934D01*
X-297884Y648693D01*
X-299470Y645947D01*
X-300290Y642885D01*
Y639715D01*
X-299470Y636653D01*
X-297884Y633907D01*
X-295643Y631666D01*
X-292897Y630081D01*
X-289835Y629260D01*
X-286665D01*
X-283603Y630081D01*
X-280857Y631666D01*
X-278616Y633907D01*
X-277031Y636653D01*
X-276210Y639715D01*
Y642885D01*
X-277031Y645947D01*
X-278616Y648693D01*
X-280857Y650934D01*
X-283603Y652520D01*
X-286665Y653340D01*
D02*
G37*
G36*
X77588Y649540D02*
X74812D01*
X72132Y648822D01*
X69728Y647434D01*
X67766Y645472D01*
X66378Y643068D01*
X65660Y640388D01*
Y637612D01*
X66378Y634932D01*
X67766Y632528D01*
X69728Y630566D01*
X72132Y629178D01*
X74812Y628460D01*
X77588D01*
X80268Y629178D01*
X82672Y630566D01*
X84634Y632528D01*
X86022Y634932D01*
X86740Y637612D01*
Y640388D01*
X86022Y643068D01*
X84634Y645472D01*
X82672Y647434D01*
X80268Y648822D01*
X77588Y649540D01*
D02*
G37*
G36*
X-74812D02*
X-77588D01*
X-80268Y648822D01*
X-82672Y647434D01*
X-84634Y645472D01*
X-86022Y643068D01*
X-86740Y640388D01*
Y637612D01*
X-86022Y634932D01*
X-84634Y632528D01*
X-82672Y630566D01*
X-80268Y629178D01*
X-77588Y628460D01*
X-74812D01*
X-72132Y629178D01*
X-69728Y630566D01*
X-67766Y632528D01*
X-66378Y634932D01*
X-65660Y637612D01*
Y640388D01*
X-66378Y643068D01*
X-67766Y645472D01*
X-69728Y647434D01*
X-72132Y648822D01*
X-74812Y649540D01*
D02*
G37*
G36*
X526052Y632790D02*
X523948D01*
X522004Y631985D01*
X520515Y630496D01*
X519710Y628552D01*
Y626448D01*
X520515Y624503D01*
X522004Y623015D01*
X523948Y622210D01*
X526052D01*
X527996Y623015D01*
X529485Y624503D01*
X530290Y626448D01*
Y628552D01*
X529485Y630496D01*
X527996Y631985D01*
X526052Y632790D01*
D02*
G37*
G36*
X-434448Y621790D02*
X-436552D01*
X-438497Y620985D01*
X-439170Y620311D01*
X-440000Y619511D01*
X-440830Y620311D01*
X-441503Y620985D01*
X-443448Y621790D01*
X-445552D01*
X-447496Y620985D01*
X-448985Y619497D01*
X-449790Y617552D01*
Y615448D01*
X-448985Y613503D01*
X-447496Y612015D01*
X-445552Y611210D01*
X-443448D01*
X-441503Y612015D01*
X-440830Y612689D01*
X-440000Y613489D01*
X-439170Y612689D01*
X-438497Y612015D01*
X-436552Y611210D01*
X-434448D01*
X-432504Y612015D01*
X-431015Y613503D01*
X-430210Y615448D01*
Y617552D01*
X-431015Y619497D01*
X-432504Y620985D01*
X-434448Y621790D01*
D02*
G37*
G36*
X-56448Y625290D02*
X-58552D01*
X-60497Y624485D01*
X-61985Y622996D01*
X-62790Y621052D01*
Y618948D01*
X-61985Y617004D01*
X-60497Y615515D01*
X-58552Y614710D01*
X-56448D01*
X-54503Y615515D01*
X-53015Y617004D01*
X-52210Y618948D01*
Y621052D01*
X-53015Y622996D01*
X-54503Y624485D01*
X-56448Y625290D01*
D02*
G37*
G36*
X-1034Y639882D02*
X-3965D01*
X-6797Y639123D01*
X-9335Y637658D01*
X-11408Y635585D01*
X-12873Y633047D01*
X-13632Y630216D01*
Y627284D01*
X-12873Y624453D01*
X-11408Y621915D01*
X-9335Y619842D01*
X-7479Y618771D01*
X-6408Y616915D01*
X-4335Y614842D01*
X-1797Y613377D01*
X1034Y612618D01*
X3965D01*
X6797Y613377D01*
X9335Y614842D01*
X11408Y616915D01*
X12873Y619453D01*
X13632Y622285D01*
Y625216D01*
X12873Y628047D01*
X11408Y630585D01*
X9335Y632658D01*
X7479Y633729D01*
X6408Y635585D01*
X4335Y637658D01*
X1797Y639123D01*
X-1034Y639882D01*
D02*
G37*
G36*
X281052Y622790D02*
X278948D01*
X277004Y621985D01*
X275516Y620497D01*
X274710Y618553D01*
Y616448D01*
X275516Y614504D01*
X277004Y613016D01*
X278948Y612210D01*
X281052D01*
X282997Y613016D01*
X284485Y614504D01*
X285290Y616448D01*
Y618553D01*
X284485Y620497D01*
X282997Y621985D01*
X281052Y622790D01*
D02*
G37*
G36*
X241052Y622790D02*
X238948D01*
X237003Y621985D01*
X235515Y620496D01*
X234710Y618552D01*
Y616448D01*
X235515Y614504D01*
X237003Y613015D01*
X238948Y612210D01*
X241052D01*
X242997Y613015D01*
X244485Y614504D01*
X245290Y616448D01*
Y618552D01*
X244485Y620496D01*
X242997Y621985D01*
X241052Y622790D01*
D02*
G37*
G36*
X421052Y621910D02*
X418947D01*
X417003Y621105D01*
X415515Y619617D01*
X414710Y617672D01*
Y615568D01*
X415515Y613624D01*
X417003Y612136D01*
X418947Y611330D01*
X421052D01*
X422996Y612136D01*
X424484Y613624D01*
X425290Y615568D01*
Y617672D01*
X424484Y619617D01*
X422996Y621105D01*
X421052Y621910D01*
D02*
G37*
G36*
X-418948D02*
X-421053D01*
X-422997Y621105D01*
X-424485Y619617D01*
X-425290Y617672D01*
Y615568D01*
X-424485Y613624D01*
X-422997Y612136D01*
X-421053Y611330D01*
X-418948D01*
X-417004Y612136D01*
X-415516Y613624D01*
X-414710Y615568D01*
Y617672D01*
X-415516Y619617D01*
X-417004Y621105D01*
X-418948Y621910D01*
D02*
G37*
G36*
X-468448Y621790D02*
X-470552D01*
X-472496Y620985D01*
X-473985Y619497D01*
X-474790Y617552D01*
Y615448D01*
X-473985Y613503D01*
X-472496Y612015D01*
X-470552Y611210D01*
X-468448D01*
X-466503Y612015D01*
X-465015Y613503D01*
X-464210Y615448D01*
Y617552D01*
X-465015Y619497D01*
X-466503Y620985D01*
X-468448Y621790D01*
D02*
G37*
G36*
X77588Y624140D02*
X74812D01*
X72132Y623422D01*
X69728Y622034D01*
X67766Y620072D01*
X66378Y617668D01*
X65660Y614988D01*
Y612212D01*
X66378Y609532D01*
X67766Y607128D01*
X69728Y605166D01*
X72132Y603778D01*
X74812Y603060D01*
X77588D01*
X80268Y603778D01*
X82672Y605166D01*
X84634Y607128D01*
X86022Y609532D01*
X86740Y612212D01*
Y614988D01*
X86022Y617668D01*
X84634Y620072D01*
X82672Y622034D01*
X80268Y623422D01*
X77588Y624140D01*
D02*
G37*
G36*
X-74812D02*
X-77588D01*
X-80268Y623422D01*
X-82672Y622034D01*
X-84634Y620072D01*
X-86022Y617668D01*
X-86740Y614988D01*
Y612212D01*
X-86022Y609532D01*
X-84634Y607128D01*
X-82672Y605166D01*
X-80268Y603778D01*
X-77588Y603060D01*
X-74812D01*
X-72132Y603778D01*
X-69728Y605166D01*
X-67766Y607128D01*
X-66378Y609532D01*
X-65660Y612212D01*
Y614988D01*
X-66378Y617668D01*
X-67766Y620072D01*
X-69728Y622034D01*
X-72132Y623422D01*
X-74812Y624140D01*
D02*
G37*
G36*
X-513948Y610290D02*
X-516052D01*
X-517997Y609485D01*
X-519485Y607996D01*
X-520290Y606052D01*
Y603948D01*
X-519485Y602004D01*
X-517997Y600515D01*
X-516052Y599710D01*
X-513948D01*
X-512004Y600515D01*
X-510515Y602004D01*
X-509710Y603948D01*
Y606052D01*
X-510515Y607996D01*
X-512004Y609485D01*
X-513948Y610290D01*
D02*
G37*
G36*
X516052Y600290D02*
X513948D01*
X512004Y599485D01*
X510515Y597996D01*
X509710Y596052D01*
Y593948D01*
X510515Y592004D01*
X512004Y590515D01*
X513948Y589710D01*
X516052D01*
X517997Y590515D01*
X519485Y592004D01*
X520290Y593948D01*
Y596052D01*
X519485Y597996D01*
X517997Y599485D01*
X516052Y600290D01*
D02*
G37*
G36*
X-165999Y626290D02*
X-169701D01*
X-173331Y625568D01*
X-176750Y624151D01*
X-179828Y622095D01*
X-182445Y619478D01*
X-184501Y616400D01*
X-185918Y612981D01*
X-186640Y609351D01*
Y605649D01*
X-185918Y602019D01*
X-184501Y598600D01*
X-182445Y595522D01*
X-179828Y592905D01*
X-176750Y590849D01*
X-173331Y589432D01*
X-169701Y588710D01*
X-165999D01*
X-162369Y589432D01*
X-158950Y590849D01*
X-155872Y592905D01*
X-153255Y595522D01*
X-151199Y598600D01*
X-149782Y602019D01*
X-149060Y605649D01*
Y609351D01*
X-149782Y612981D01*
X-151199Y616400D01*
X-153255Y619478D01*
X-155872Y622095D01*
X-158950Y624151D01*
X-162369Y625568D01*
X-165999Y626290D01*
D02*
G37*
G36*
X-280299D02*
X-284001D01*
X-287631Y625568D01*
X-291050Y624151D01*
X-294128Y622095D01*
X-296745Y619478D01*
X-298801Y616400D01*
X-300218Y612981D01*
X-300940Y609351D01*
Y605649D01*
X-300218Y602019D01*
X-298801Y598600D01*
X-296745Y595522D01*
X-294128Y592905D01*
X-291050Y590849D01*
X-287631Y589432D01*
X-284001Y588710D01*
X-280299D01*
X-276669Y589432D01*
X-273250Y590849D01*
X-270172Y592905D01*
X-267555Y595522D01*
X-265499Y598600D01*
X-264082Y602019D01*
X-263360Y605649D01*
Y609351D01*
X-264082Y612981D01*
X-265499Y616400D01*
X-267555Y619478D01*
X-270172Y622095D01*
X-273250Y624151D01*
X-276669Y625568D01*
X-280299Y626290D01*
D02*
G37*
G36*
X156453Y608540D02*
X153547D01*
X150739Y607788D01*
X148221Y606334D01*
X146166Y604279D01*
X144712Y601761D01*
X143960Y598953D01*
Y596047D01*
X144712Y593239D01*
X146166Y590721D01*
X148221Y588666D01*
X150739Y587212D01*
X153547Y586460D01*
X156453D01*
X159261Y587212D01*
X161779Y588666D01*
X163834Y590721D01*
X165288Y593239D01*
X166040Y596047D01*
Y598953D01*
X165288Y601761D01*
X163834Y604279D01*
X161779Y606334D01*
X159261Y607788D01*
X156453Y608540D01*
D02*
G37*
G36*
X77588Y598740D02*
X74812D01*
X72132Y598022D01*
X69728Y596634D01*
X67766Y594672D01*
X66378Y592268D01*
X65660Y589588D01*
Y586812D01*
X66378Y584132D01*
X67766Y581728D01*
X69728Y579766D01*
X72132Y578378D01*
X74812Y577660D01*
X77588D01*
X80268Y578378D01*
X82672Y579766D01*
X84634Y581728D01*
X86022Y584132D01*
X86740Y586812D01*
Y589588D01*
X86022Y592268D01*
X84634Y594672D01*
X82672Y596634D01*
X80268Y598022D01*
X77588Y598740D01*
D02*
G37*
G36*
X-74812D02*
X-77588D01*
X-80268Y598022D01*
X-82672Y596634D01*
X-84634Y594672D01*
X-86022Y592268D01*
X-86740Y589588D01*
Y586812D01*
X-86022Y584132D01*
X-84634Y581728D01*
X-82672Y579766D01*
X-80268Y578378D01*
X-77588Y577660D01*
X-74812D01*
X-72132Y578378D01*
X-69728Y579766D01*
X-67766Y581728D01*
X-66378Y584132D01*
X-65660Y586812D01*
Y589588D01*
X-66378Y592268D01*
X-67766Y594672D01*
X-69728Y596634D01*
X-72132Y598022D01*
X-74812Y598740D01*
D02*
G37*
G36*
X-144719Y592540D02*
X-147781D01*
X-150783Y591943D01*
X-153611Y590771D01*
X-156156Y589071D01*
X-158321Y586906D01*
X-160021Y584361D01*
X-161193Y581533D01*
X-161790Y578531D01*
Y575470D01*
X-161193Y572467D01*
X-160021Y569639D01*
X-158321Y567094D01*
X-156156Y564929D01*
X-153611Y563229D01*
X-150783Y562057D01*
X-147781Y561460D01*
X-144719D01*
X-141717Y562057D01*
X-138889Y563229D01*
X-136344Y564929D01*
X-134179Y567094D01*
X-132479Y569639D01*
X-131307Y572467D01*
X-130710Y575470D01*
Y578531D01*
X-131307Y581533D01*
X-132479Y584361D01*
X-134179Y586906D01*
X-136344Y589071D01*
X-138889Y590771D01*
X-141717Y591943D01*
X-144719Y592540D01*
D02*
G37*
G36*
X-302220D02*
X-305281D01*
X-308283Y591943D01*
X-311111Y590771D01*
X-313656Y589071D01*
X-315821Y586906D01*
X-317521Y584361D01*
X-318693Y581533D01*
X-319290Y578531D01*
Y575470D01*
X-318693Y572467D01*
X-317521Y569639D01*
X-315821Y567094D01*
X-313656Y564929D01*
X-311111Y563229D01*
X-308283Y562057D01*
X-305281Y561460D01*
X-302220D01*
X-299217Y562057D01*
X-296389Y563229D01*
X-293844Y564929D01*
X-291679Y567094D01*
X-289979Y569639D01*
X-288807Y572467D01*
X-288210Y575470D01*
Y578531D01*
X-288807Y581533D01*
X-289979Y584361D01*
X-291679Y586906D01*
X-293844Y589071D01*
X-296389Y590771D01*
X-299217Y591943D01*
X-302220Y592540D01*
D02*
G37*
G36*
X-164168Y560382D02*
X-196932D01*
Y559024D01*
X-198052Y558425D01*
X-198190Y558517D01*
X-201172Y559752D01*
X-204336Y560382D01*
X-207563D01*
X-210728Y559752D01*
X-213710Y558517D01*
X-216393Y556725D01*
X-218675Y554443D01*
X-220467Y551760D01*
X-221188Y550020D01*
X-222601Y549927D01*
X-222916Y550472D01*
X-224878Y552434D01*
X-227282Y553822D01*
X-229962Y554540D01*
X-232738D01*
X-235418Y553822D01*
X-237822Y552434D01*
X-239784Y550472D01*
X-241172Y548068D01*
X-241890Y545388D01*
Y542612D01*
X-241172Y539932D01*
X-239784Y537528D01*
X-237822Y535566D01*
X-235418Y534178D01*
X-232738Y533460D01*
X-229962D01*
X-227282Y534178D01*
X-224878Y535566D01*
X-222916Y537528D01*
X-222601Y538073D01*
X-221188Y537980D01*
X-220467Y536240D01*
X-220451Y536216D01*
X-221050Y534826D01*
X-223428Y534352D01*
X-226410Y533117D01*
X-229093Y531325D01*
X-231350Y529068D01*
X-233607Y531325D01*
X-236290Y533117D01*
X-239272Y534352D01*
X-242437Y534982D01*
X-245664D01*
X-248829Y534352D01*
X-251810Y533117D01*
X-254493Y531325D01*
X-256775Y529043D01*
X-258568Y526360D01*
X-259288Y524620D01*
X-260701Y524527D01*
X-261016Y525072D01*
X-262978Y527034D01*
X-265382Y528422D01*
X-268062Y529140D01*
X-268180D01*
Y518600D01*
Y508060D01*
X-268062D01*
X-265382Y508778D01*
X-262978Y510166D01*
X-261016Y512128D01*
X-260701Y512673D01*
X-259288Y512580D01*
X-258568Y510840D01*
X-256775Y508157D01*
X-254493Y505875D01*
X-251810Y504082D01*
X-248829Y502848D01*
X-245664Y502218D01*
X-242437D01*
X-239272Y502848D01*
X-236290Y504082D01*
X-233607Y505875D01*
X-231350Y508132D01*
X-229093Y505875D01*
X-226410Y504082D01*
X-223428Y502848D01*
X-220264Y502218D01*
X-217036D01*
X-213872Y502848D01*
X-210890Y504082D01*
X-208207Y505875D01*
X-205925Y508157D01*
X-204132Y510840D01*
X-203412Y512580D01*
X-201999Y512673D01*
X-201684Y512128D01*
X-199722Y510166D01*
X-197318Y508778D01*
X-194638Y508060D01*
X-191862D01*
X-189182Y508778D01*
X-186778Y510166D01*
X-184816Y512128D01*
X-183428Y514532D01*
X-182710Y517212D01*
Y519988D01*
X-183428Y522668D01*
X-184816Y525072D01*
X-186092Y526348D01*
X-185566Y527618D01*
X-164168D01*
Y560382D01*
D02*
G37*
G36*
X77588Y573340D02*
X74812D01*
X72132Y572622D01*
X69728Y571234D01*
X67766Y569272D01*
X66378Y566868D01*
X65660Y564188D01*
Y561412D01*
X66378Y558732D01*
X67766Y556328D01*
X69728Y554366D01*
X72132Y552978D01*
X74812Y552260D01*
X77588D01*
X80268Y552978D01*
X82672Y554366D01*
X84634Y556328D01*
X86022Y558732D01*
X86740Y561412D01*
Y564188D01*
X86022Y566868D01*
X84634Y569272D01*
X82672Y571234D01*
X80268Y572622D01*
X77588Y573340D01*
D02*
G37*
G36*
X-74812D02*
X-77588D01*
X-80268Y572622D01*
X-82672Y571234D01*
X-84634Y569272D01*
X-86022Y566868D01*
X-86740Y564188D01*
Y561412D01*
X-86022Y558732D01*
X-84634Y556328D01*
X-82672Y554366D01*
X-80268Y552978D01*
X-77588Y552260D01*
X-74812D01*
X-72132Y552978D01*
X-69728Y554366D01*
X-67766Y556328D01*
X-66378Y558732D01*
X-65660Y561412D01*
Y564188D01*
X-66378Y566868D01*
X-67766Y569272D01*
X-69728Y571234D01*
X-72132Y572622D01*
X-74812Y573340D01*
D02*
G37*
G36*
X1388Y547940D02*
X1270D01*
Y538670D01*
X10540D01*
Y538788D01*
X9822Y541468D01*
X8434Y543872D01*
X6472Y545834D01*
X4068Y547222D01*
X1388Y547940D01*
D02*
G37*
G36*
X-1270D02*
X-1388D01*
X-4068Y547222D01*
X-6472Y545834D01*
X-8434Y543872D01*
X-9822Y541468D01*
X-10540Y538788D01*
Y538670D01*
X-1270D01*
Y547940D01*
D02*
G37*
G36*
X211052Y545410D02*
X208948D01*
X207003Y544605D01*
X205515Y543117D01*
X204710Y541172D01*
Y539068D01*
X205515Y537124D01*
X207003Y535635D01*
X208948Y534830D01*
X211052D01*
X212997Y535635D01*
X214485Y537124D01*
X215290Y539068D01*
Y541172D01*
X214485Y543117D01*
X212997Y544605D01*
X211052Y545410D01*
D02*
G37*
G36*
X-255362Y554540D02*
X-258138D01*
X-260818Y553822D01*
X-263222Y552434D01*
X-265184Y550472D01*
X-266572Y548068D01*
X-267290Y545388D01*
Y542612D01*
X-266572Y539932D01*
X-265184Y537528D01*
X-263222Y535566D01*
X-260818Y534178D01*
X-258138Y533460D01*
X-255362D01*
X-252682Y534178D01*
X-250278Y535566D01*
X-248316Y537528D01*
X-246928Y539932D01*
X-246210Y542612D01*
Y545388D01*
X-246928Y548068D01*
X-248316Y550472D01*
X-250278Y552434D01*
X-252682Y553822D01*
X-255362Y554540D01*
D02*
G37*
G36*
X421052Y541910D02*
X418947D01*
X417003Y541105D01*
X415515Y539617D01*
X414710Y537672D01*
Y535568D01*
X415515Y533624D01*
X417003Y532136D01*
X418947Y531330D01*
X421052D01*
X422996Y532136D01*
X424484Y533624D01*
X425290Y535568D01*
Y537672D01*
X424484Y539617D01*
X422996Y541105D01*
X421052Y541910D01*
D02*
G37*
G36*
X-418948D02*
X-421053D01*
X-422997Y541105D01*
X-424485Y539617D01*
X-425290Y537672D01*
Y535568D01*
X-424485Y533624D01*
X-422997Y532136D01*
X-421053Y531330D01*
X-418948D01*
X-417004Y532136D01*
X-415516Y533624D01*
X-414710Y535568D01*
Y537672D01*
X-415516Y539617D01*
X-417004Y541105D01*
X-418948Y541910D01*
D02*
G37*
G36*
X-443448Y541790D02*
X-445552D01*
X-447496Y540985D01*
X-448985Y539497D01*
X-449790Y537552D01*
Y535448D01*
X-448985Y533503D01*
X-447496Y532015D01*
X-445552Y531210D01*
X-443448D01*
X-441503Y532015D01*
X-440015Y533503D01*
X-439210Y535448D01*
Y537552D01*
X-440015Y539497D01*
X-441503Y540985D01*
X-443448Y541790D01*
D02*
G37*
G36*
X-468448D02*
X-470552D01*
X-472496Y540985D01*
X-473985Y539497D01*
X-474790Y537552D01*
Y535448D01*
X-473985Y533503D01*
X-472496Y532015D01*
X-470552Y531210D01*
X-468448D01*
X-466503Y532015D01*
X-465015Y533503D01*
X-464210Y535448D01*
Y537552D01*
X-465015Y539497D01*
X-466503Y540985D01*
X-468448Y541790D01*
D02*
G37*
G36*
X77588Y547940D02*
X74812D01*
X72132Y547222D01*
X69728Y545834D01*
X67766Y543872D01*
X66378Y541468D01*
X65660Y538788D01*
Y536012D01*
X66378Y533332D01*
X67766Y530928D01*
X69728Y528966D01*
X72132Y527578D01*
X74812Y526860D01*
X77588D01*
X80268Y527578D01*
X82672Y528966D01*
X84634Y530928D01*
X86022Y533332D01*
X86740Y536012D01*
Y538788D01*
X86022Y541468D01*
X84634Y543872D01*
X82672Y545834D01*
X80268Y547222D01*
X77588Y547940D01*
D02*
G37*
G36*
X52188D02*
X49412D01*
X46732Y547222D01*
X44328Y545834D01*
X42366Y543872D01*
X40978Y541468D01*
X40260Y538788D01*
Y536012D01*
X40978Y533332D01*
X42366Y530928D01*
X44328Y528966D01*
X46732Y527578D01*
X49412Y526860D01*
X52188D01*
X54868Y527578D01*
X57272Y528966D01*
X59234Y530928D01*
X60622Y533332D01*
X61340Y536012D01*
Y538788D01*
X60622Y541468D01*
X59234Y543872D01*
X57272Y545834D01*
X54868Y547222D01*
X52188Y547940D01*
D02*
G37*
G36*
X26788D02*
X24012D01*
X21332Y547222D01*
X18928Y545834D01*
X16966Y543872D01*
X15578Y541468D01*
X14860Y538788D01*
Y536012D01*
X15578Y533332D01*
X16966Y530928D01*
X18928Y528966D01*
X21332Y527578D01*
X24012Y526860D01*
X26788D01*
X29468Y527578D01*
X31872Y528966D01*
X33834Y530928D01*
X35222Y533332D01*
X35940Y536012D01*
Y538788D01*
X35222Y541468D01*
X33834Y543872D01*
X31872Y545834D01*
X29468Y547222D01*
X26788Y547940D01*
D02*
G37*
G36*
X10540Y536130D02*
X1270D01*
Y526860D01*
X1388D01*
X4068Y527578D01*
X6472Y528966D01*
X8434Y530928D01*
X9822Y533332D01*
X10540Y536012D01*
Y536130D01*
D02*
G37*
G36*
X-1270D02*
X-10540D01*
Y536012D01*
X-9822Y533332D01*
X-8434Y530928D01*
X-6472Y528966D01*
X-4068Y527578D01*
X-1388Y526860D01*
X-1270D01*
Y536130D01*
D02*
G37*
G36*
X-24012Y547940D02*
X-26788D01*
X-29468Y547222D01*
X-31872Y545834D01*
X-33834Y543872D01*
X-35222Y541468D01*
X-35940Y538788D01*
Y536012D01*
X-35222Y533332D01*
X-33834Y530928D01*
X-31872Y528966D01*
X-29468Y527578D01*
X-26788Y526860D01*
X-24012D01*
X-21332Y527578D01*
X-18928Y528966D01*
X-16966Y530928D01*
X-15578Y533332D01*
X-14860Y536012D01*
Y538788D01*
X-15578Y541468D01*
X-16966Y543872D01*
X-18928Y545834D01*
X-21332Y547222D01*
X-24012Y547940D01*
D02*
G37*
G36*
X-49412D02*
X-52188D01*
X-54868Y547222D01*
X-57272Y545834D01*
X-59234Y543872D01*
X-60622Y541468D01*
X-61340Y538788D01*
Y536012D01*
X-60622Y533332D01*
X-59234Y530928D01*
X-57272Y528966D01*
X-54868Y527578D01*
X-52188Y526860D01*
X-49412D01*
X-46732Y527578D01*
X-44328Y528966D01*
X-42366Y530928D01*
X-40978Y533332D01*
X-40260Y536012D01*
Y538788D01*
X-40978Y541468D01*
X-42366Y543872D01*
X-44328Y545834D01*
X-46732Y547222D01*
X-49412Y547940D01*
D02*
G37*
G36*
X-74812D02*
X-77588D01*
X-80268Y547222D01*
X-82672Y545834D01*
X-84634Y543872D01*
X-86022Y541468D01*
X-86740Y538788D01*
Y536012D01*
X-86022Y533332D01*
X-84634Y530928D01*
X-82672Y528966D01*
X-80268Y527578D01*
X-77588Y526860D01*
X-74812D01*
X-72132Y527578D01*
X-69728Y528966D01*
X-67766Y530928D01*
X-66378Y533332D01*
X-65660Y536012D01*
Y538788D01*
X-66378Y541468D01*
X-67766Y543872D01*
X-69728Y545834D01*
X-72132Y547222D01*
X-74812Y547940D01*
D02*
G37*
G36*
X-270720Y529140D02*
X-270838D01*
X-273518Y528422D01*
X-275922Y527034D01*
X-277884Y525072D01*
X-279272Y522668D01*
X-279990Y519988D01*
Y519870D01*
X-270720D01*
Y529140D01*
D02*
G37*
G36*
X-513948Y530290D02*
X-516052D01*
X-517997Y529485D01*
X-519485Y527997D01*
X-520290Y526052D01*
Y523948D01*
X-519485Y522004D01*
X-517997Y520515D01*
X-516052Y519710D01*
X-513948D01*
X-512004Y520515D01*
X-510515Y522004D01*
X-509710Y523948D01*
Y526052D01*
X-510515Y527997D01*
X-512004Y529485D01*
X-513948Y530290D01*
D02*
G37*
G36*
X486052Y530290D02*
X483948D01*
X482004Y529485D01*
X480515Y527996D01*
X479710Y526052D01*
Y523948D01*
X480515Y522004D01*
X482004Y520515D01*
X483948Y519710D01*
X486052D01*
X487997Y520515D01*
X489485Y522004D01*
X490290Y523948D01*
Y526052D01*
X489485Y527996D01*
X487997Y529485D01*
X486052Y530290D01*
D02*
G37*
G36*
X-483948Y520290D02*
X-486052D01*
X-487997Y519485D01*
X-489485Y517997D01*
X-490290Y516052D01*
Y513948D01*
X-489485Y512004D01*
X-487997Y510515D01*
X-486052Y509710D01*
X-483948D01*
X-482004Y510515D01*
X-480515Y512004D01*
X-479710Y513948D01*
Y516052D01*
X-480515Y517997D01*
X-482004Y519485D01*
X-483948Y520290D01*
D02*
G37*
G36*
X516052Y520290D02*
X513948D01*
X512004Y519485D01*
X510515Y517997D01*
X509710Y516052D01*
Y513948D01*
X510515Y512004D01*
X512004Y510515D01*
X513948Y509710D01*
X516052D01*
X517997Y510515D01*
X519485Y512004D01*
X520290Y513948D01*
Y516052D01*
X519485Y517997D01*
X517997Y519485D01*
X516052Y520290D01*
D02*
G37*
G36*
X-270720Y517330D02*
X-279990D01*
Y517212D01*
X-279272Y514532D01*
X-277884Y512128D01*
X-275922Y510166D01*
X-273518Y508778D01*
X-270838Y508060D01*
X-270720D01*
Y517330D01*
D02*
G37*
G36*
X77588Y522540D02*
X74812D01*
X72132Y521822D01*
X69728Y520434D01*
X67766Y518472D01*
X66378Y516068D01*
X65660Y513388D01*
Y510612D01*
X66378Y507932D01*
X67766Y505528D01*
X69728Y503566D01*
X72132Y502178D01*
X74812Y501460D01*
X77588D01*
X80268Y502178D01*
X82672Y503566D01*
X84634Y505528D01*
X86022Y507932D01*
X86740Y510612D01*
Y513388D01*
X86022Y516068D01*
X84634Y518472D01*
X82672Y520434D01*
X80268Y521822D01*
X77588Y522540D01*
D02*
G37*
G36*
X-74812D02*
X-77588D01*
X-80268Y521822D01*
X-82672Y520434D01*
X-84634Y518472D01*
X-86022Y516068D01*
X-86740Y513388D01*
Y510612D01*
X-86022Y507932D01*
X-84634Y505528D01*
X-82672Y503566D01*
X-80268Y502178D01*
X-77588Y501460D01*
X-74812D01*
X-72132Y502178D01*
X-69728Y503566D01*
X-67766Y505528D01*
X-66378Y507932D01*
X-65660Y510612D01*
Y513388D01*
X-66378Y516068D01*
X-67766Y518472D01*
X-69728Y520434D01*
X-72132Y521822D01*
X-74812Y522540D01*
D02*
G37*
G36*
X253672Y492790D02*
X251567D01*
X249623Y491985D01*
X248870Y491231D01*
X248116Y491985D01*
X246172Y492790D01*
X244068D01*
X242123Y491985D01*
X240635Y490497D01*
X239830Y488552D01*
Y486448D01*
X240635Y484504D01*
X241389Y483750D01*
X240636Y482997D01*
X239830Y481053D01*
Y478948D01*
X240636Y477004D01*
X242124Y475516D01*
X244068Y474710D01*
X246172D01*
X248117Y475516D01*
X249605Y477004D01*
X250410Y478948D01*
Y481053D01*
X250279Y481369D01*
X251251Y482341D01*
X251567Y482210D01*
X253672D01*
X255616Y483016D01*
X257104Y484504D01*
X257910Y486448D01*
Y488553D01*
X257104Y490497D01*
X255616Y491985D01*
X253672Y492790D01*
D02*
G37*
G36*
X77588Y497140D02*
X74812D01*
X72132Y496422D01*
X69728Y495034D01*
X67766Y493072D01*
X66378Y490668D01*
X65660Y487988D01*
Y485212D01*
X66378Y482532D01*
X67766Y480128D01*
X69728Y478166D01*
X72132Y476778D01*
X74812Y476060D01*
X77588D01*
X80268Y476778D01*
X82672Y478166D01*
X84634Y480128D01*
X86022Y482532D01*
X86740Y485212D01*
Y487988D01*
X86022Y490668D01*
X84634Y493072D01*
X82672Y495034D01*
X80268Y496422D01*
X77588Y497140D01*
D02*
G37*
G36*
X-74812D02*
X-77588D01*
X-80268Y496422D01*
X-82672Y495034D01*
X-84634Y493072D01*
X-86022Y490668D01*
X-86740Y487988D01*
Y485212D01*
X-86022Y482532D01*
X-84634Y480128D01*
X-82672Y478166D01*
X-80268Y476778D01*
X-77588Y476060D01*
X-74812D01*
X-72132Y476778D01*
X-69728Y478166D01*
X-67766Y480128D01*
X-66378Y482532D01*
X-65660Y485212D01*
Y487988D01*
X-66378Y490668D01*
X-67766Y493072D01*
X-69728Y495034D01*
X-72132Y496422D01*
X-74812Y497140D01*
D02*
G37*
G36*
X-223948Y466490D02*
X-226052D01*
X-227997Y465685D01*
X-229485Y464197D01*
X-230290Y462252D01*
Y460148D01*
X-229485Y458203D01*
X-227997Y456715D01*
X-226052Y455910D01*
X-223948D01*
X-222003Y456715D01*
X-220515Y458203D01*
X-219710Y460148D01*
Y462252D01*
X-220515Y464197D01*
X-222003Y465685D01*
X-223948Y466490D01*
D02*
G37*
G36*
X-418948Y461910D02*
X-421053D01*
X-422997Y461105D01*
X-424485Y459617D01*
X-425290Y457672D01*
Y455568D01*
X-424485Y453624D01*
X-422997Y452136D01*
X-421053Y451330D01*
X-418948D01*
X-417004Y452136D01*
X-415516Y453624D01*
X-414710Y455568D01*
Y457672D01*
X-415516Y459617D01*
X-417004Y461105D01*
X-418948Y461910D01*
D02*
G37*
G36*
X421052Y461910D02*
X418947D01*
X417003Y461105D01*
X415515Y459617D01*
X414710Y457672D01*
Y455568D01*
X415515Y453624D01*
X417003Y452136D01*
X418947Y451330D01*
X421052D01*
X422996Y452136D01*
X424484Y453624D01*
X425290Y455568D01*
Y457672D01*
X424484Y459617D01*
X422996Y461105D01*
X421052Y461910D01*
D02*
G37*
G36*
X-443448Y461790D02*
X-445552D01*
X-447496Y460985D01*
X-448985Y459497D01*
X-449790Y457552D01*
Y455448D01*
X-448985Y453503D01*
X-447496Y452015D01*
X-445552Y451210D01*
X-443448D01*
X-441503Y452015D01*
X-440015Y453503D01*
X-439210Y455448D01*
Y457552D01*
X-440015Y459497D01*
X-441503Y460985D01*
X-443448Y461790D01*
D02*
G37*
G36*
X-468448D02*
X-470552D01*
X-472496Y460985D01*
X-473985Y459497D01*
X-474790Y457552D01*
Y455448D01*
X-473985Y453503D01*
X-472496Y452015D01*
X-470552Y451210D01*
X-468448D01*
X-466503Y452015D01*
X-465015Y453503D01*
X-464210Y455448D01*
Y457552D01*
X-465015Y459497D01*
X-466503Y460985D01*
X-468448Y461790D01*
D02*
G37*
G36*
X77588Y471740D02*
X74812D01*
X72132Y471022D01*
X69728Y469634D01*
X67766Y467672D01*
X66378Y465268D01*
X65660Y462588D01*
Y459812D01*
X66378Y457132D01*
X67766Y454728D01*
X69728Y452766D01*
X72132Y451378D01*
X74812Y450660D01*
X77588D01*
X80268Y451378D01*
X82672Y452766D01*
X84634Y454728D01*
X86022Y457132D01*
X86740Y459812D01*
Y462588D01*
X86022Y465268D01*
X84634Y467672D01*
X82672Y469634D01*
X80268Y471022D01*
X77588Y471740D01*
D02*
G37*
G36*
X-74812D02*
X-77588D01*
X-80268Y471022D01*
X-82672Y469634D01*
X-84634Y467672D01*
X-86022Y465268D01*
X-86740Y462588D01*
Y459812D01*
X-86022Y457132D01*
X-84634Y454728D01*
X-82672Y452766D01*
X-80268Y451378D01*
X-77588Y450660D01*
X-74812D01*
X-72132Y451378D01*
X-69728Y452766D01*
X-67766Y454728D01*
X-66378Y457132D01*
X-65660Y459812D01*
Y462588D01*
X-66378Y465268D01*
X-67766Y467672D01*
X-69728Y469634D01*
X-72132Y471022D01*
X-74812Y471740D01*
D02*
G37*
G36*
X486052Y450290D02*
X483948D01*
X482004Y449485D01*
X480515Y447996D01*
X479710Y446052D01*
Y443948D01*
X480515Y442004D01*
X482004Y440515D01*
X483948Y439710D01*
X486052D01*
X487997Y440515D01*
X489485Y442004D01*
X490290Y443948D01*
Y446052D01*
X489485Y447996D01*
X487997Y449485D01*
X486052Y450290D01*
D02*
G37*
G36*
X-513948D02*
X-516052D01*
X-517997Y449485D01*
X-519485Y447996D01*
X-520290Y446052D01*
Y443948D01*
X-519485Y442004D01*
X-517997Y440515D01*
X-516052Y439710D01*
X-513948D01*
X-512004Y440515D01*
X-510515Y442004D01*
X-509710Y443948D01*
Y446052D01*
X-510515Y447996D01*
X-512004Y449485D01*
X-513948Y450290D01*
D02*
G37*
G36*
X-74812Y446340D02*
X-74930D01*
Y437070D01*
X-65660D01*
Y437188D01*
X-66378Y439868D01*
X-67766Y442272D01*
X-69728Y444234D01*
X-72132Y445622D01*
X-74812Y446340D01*
D02*
G37*
G36*
X-77470D02*
X-77588D01*
X-80268Y445622D01*
X-82672Y444234D01*
X-84634Y442272D01*
X-86022Y439868D01*
X-86740Y437188D01*
Y437070D01*
X-77470D01*
Y446340D01*
D02*
G37*
G36*
X516052Y440290D02*
X513948D01*
X512004Y439485D01*
X510515Y437997D01*
X509710Y436052D01*
Y433948D01*
X510515Y432004D01*
X512004Y430515D01*
X513948Y429710D01*
X516052D01*
X517997Y430515D01*
X519485Y432004D01*
X520290Y433948D01*
Y436052D01*
X519485Y437997D01*
X517997Y439485D01*
X516052Y440290D01*
D02*
G37*
G36*
X-483948D02*
X-486052D01*
X-487997Y439485D01*
X-489485Y437997D01*
X-490290Y436052D01*
Y433948D01*
X-489485Y432004D01*
X-487997Y430515D01*
X-486052Y429710D01*
X-483948D01*
X-482004Y430515D01*
X-480515Y432004D01*
X-479710Y433948D01*
Y436052D01*
X-480515Y437997D01*
X-482004Y439485D01*
X-483948Y440290D01*
D02*
G37*
G36*
X77588Y446340D02*
X74812D01*
X72132Y445622D01*
X69728Y444234D01*
X67766Y442272D01*
X66378Y439868D01*
X65660Y437188D01*
Y434412D01*
X66378Y431732D01*
X67766Y429328D01*
X69728Y427366D01*
X72132Y425978D01*
X74812Y425260D01*
X77588D01*
X80268Y425978D01*
X82672Y427366D01*
X84634Y429328D01*
X86022Y431732D01*
X86740Y434412D01*
Y437188D01*
X86022Y439868D01*
X84634Y442272D01*
X82672Y444234D01*
X80268Y445622D01*
X77588Y446340D01*
D02*
G37*
G36*
X-65660Y434530D02*
X-74930D01*
Y425260D01*
X-74812D01*
X-72132Y425978D01*
X-69728Y427366D01*
X-67766Y429328D01*
X-66378Y431732D01*
X-65660Y434412D01*
Y434530D01*
D02*
G37*
G36*
X-77470D02*
X-86740D01*
Y434412D01*
X-86022Y431732D01*
X-84634Y429328D01*
X-82672Y427366D01*
X-80268Y425978D01*
X-77588Y425260D01*
X-77470D01*
Y434530D01*
D02*
G37*
G36*
X268552Y465289D02*
X266447D01*
X264503Y464484D01*
X263015Y462996D01*
X262210Y461052D01*
Y458947D01*
X263015Y457003D01*
X263768Y456250D01*
X263015Y455496D01*
X262210Y453552D01*
Y451447D01*
X263015Y449503D01*
X263769Y448750D01*
X263015Y447996D01*
X262210Y446052D01*
Y443948D01*
X263015Y442004D01*
X263769Y441250D01*
X263016Y440497D01*
X262210Y438553D01*
Y436448D01*
X263016Y434504D01*
X263769Y433750D01*
X263016Y432997D01*
X262211Y431053D01*
Y428948D01*
X263016Y427004D01*
X264504Y425516D01*
X266448Y424711D01*
X268553D01*
X270497Y425516D01*
X271985Y427004D01*
X272790Y428948D01*
Y431053D01*
X271985Y432997D01*
X271232Y433750D01*
X271985Y434504D01*
X272790Y436448D01*
Y438553D01*
X271985Y440497D01*
X271231Y441250D01*
X271985Y442004D01*
X272790Y443948D01*
Y446052D01*
X271985Y447996D01*
X271231Y448750D01*
X271984Y449503D01*
X272790Y451447D01*
Y453552D01*
X271984Y455496D01*
X271231Y456250D01*
X271984Y457003D01*
X272789Y458947D01*
Y461052D01*
X271984Y462996D01*
X270496Y464484D01*
X268552Y465289D01*
D02*
G37*
G36*
X151053Y435290D02*
X148948D01*
X147004Y434485D01*
X145516Y432997D01*
X144710Y431053D01*
Y428948D01*
X145516Y427004D01*
X147004Y425516D01*
X148948Y424710D01*
X151053D01*
X152997Y425516D01*
X154485Y427004D01*
X155290Y428948D01*
Y431053D01*
X154485Y432997D01*
X152997Y434485D01*
X151053Y435290D01*
D02*
G37*
G36*
X32775Y415690D02*
X30670D01*
X28726Y414885D01*
X27238Y413396D01*
X26433Y411452D01*
Y409348D01*
X27238Y407403D01*
X28726Y405915D01*
X30670Y405110D01*
X32775D01*
X34719Y405915D01*
X36207Y407403D01*
X37013Y409348D01*
Y411452D01*
X36207Y413396D01*
X34719Y414885D01*
X32775Y415690D01*
D02*
G37*
G36*
X77588Y420940D02*
X74812D01*
X72132Y420222D01*
X69728Y418834D01*
X67766Y416872D01*
X66378Y414468D01*
X65660Y411788D01*
Y409012D01*
X66378Y406332D01*
X67766Y403928D01*
X69728Y401966D01*
X72132Y400578D01*
X74812Y399860D01*
X77588D01*
X80268Y400578D01*
X82672Y401966D01*
X84634Y403928D01*
X86022Y406332D01*
X86740Y409012D01*
Y411788D01*
X86022Y414468D01*
X84634Y416872D01*
X82672Y418834D01*
X80268Y420222D01*
X77588Y420940D01*
D02*
G37*
G36*
X-74812D02*
X-77588D01*
X-80268Y420222D01*
X-82672Y418834D01*
X-84634Y416872D01*
X-86022Y414468D01*
X-86740Y411788D01*
Y409012D01*
X-86022Y406332D01*
X-84634Y403928D01*
X-82672Y401966D01*
X-80268Y400578D01*
X-77588Y399860D01*
X-74812D01*
X-72132Y400578D01*
X-69728Y401966D01*
X-67766Y403928D01*
X-66378Y406332D01*
X-65660Y409012D01*
Y411788D01*
X-66378Y414468D01*
X-67766Y416872D01*
X-69728Y418834D01*
X-72132Y420222D01*
X-74812Y420940D01*
D02*
G37*
G36*
X377500Y420035D02*
X372500D01*
X369618Y419656D01*
X366932Y418543D01*
X364626Y416774D01*
X362857Y414468D01*
X361744Y411782D01*
X361365Y408900D01*
X361744Y406018D01*
X362857Y403332D01*
X364626Y401026D01*
X366932Y399257D01*
X369618Y398144D01*
X372500Y397765D01*
X377500D01*
X380382Y398144D01*
X383068Y399257D01*
X385374Y401026D01*
X387143Y403332D01*
X388256Y406018D01*
X388635Y408900D01*
X388256Y411782D01*
X387143Y414468D01*
X385374Y416774D01*
X383068Y418543D01*
X380382Y419656D01*
X377500Y420035D01*
D02*
G37*
G36*
X-372500D02*
X-377500D01*
X-380382Y419656D01*
X-383068Y418543D01*
X-385374Y416774D01*
X-387143Y414468D01*
X-388256Y411782D01*
X-388635Y408900D01*
X-388256Y406018D01*
X-387143Y403332D01*
X-385374Y401026D01*
X-383068Y399257D01*
X-380382Y398144D01*
X-377500Y397765D01*
X-372500D01*
X-369618Y398144D01*
X-366932Y399257D01*
X-364626Y401026D01*
X-362857Y403332D01*
X-361744Y406018D01*
X-361365Y408900D01*
X-361744Y411782D01*
X-362857Y414468D01*
X-364626Y416774D01*
X-366932Y418543D01*
X-369618Y419656D01*
X-372500Y420035D01*
D02*
G37*
G36*
X202052Y393290D02*
X199948D01*
X198004Y392485D01*
X197000Y391481D01*
X195996Y392485D01*
X194052Y393290D01*
X191948D01*
X190004Y392485D01*
X189500Y391981D01*
X189107Y392374D01*
X187163Y393180D01*
X185058D01*
X183114Y392374D01*
X181626Y390886D01*
X180820Y388942D01*
Y386837D01*
X181626Y384893D01*
X183114Y383405D01*
X185058Y382600D01*
X187163D01*
X189107Y383405D01*
X189610Y383908D01*
X190004Y383515D01*
X191948Y382710D01*
X194052D01*
X195996Y383515D01*
X197000Y384519D01*
X198004Y383515D01*
X199948Y382710D01*
X202052D01*
X203997Y383515D01*
X205485Y385004D01*
X206290Y386948D01*
Y389052D01*
X205485Y390997D01*
X203997Y392485D01*
X202052Y393290D01*
D02*
G37*
G36*
X471052Y405290D02*
X468948D01*
X467004Y404485D01*
X465515Y402996D01*
X464710Y401052D01*
Y398948D01*
X465515Y397003D01*
X466269Y396250D01*
X465515Y395496D01*
X464710Y393552D01*
Y391448D01*
X465515Y389504D01*
X467004Y388015D01*
X468948Y387210D01*
X471052D01*
X472996Y388015D01*
X474485Y389504D01*
X475290Y391448D01*
Y393552D01*
X474485Y395496D01*
X473731Y396250D01*
X474485Y397003D01*
X475290Y398948D01*
Y401052D01*
X474485Y402996D01*
X472996Y404485D01*
X471052Y405290D01*
D02*
G37*
G36*
X223053Y387790D02*
X220948D01*
X219004Y386985D01*
X217516Y385496D01*
X216710Y383552D01*
Y381448D01*
X217516Y379504D01*
X219004Y378015D01*
X220948Y377210D01*
X223053D01*
X224997Y378015D01*
X226485Y379504D01*
X227290Y381448D01*
Y383552D01*
X226485Y385496D01*
X224997Y386985D01*
X223053Y387790D01*
D02*
G37*
G36*
X77588Y395540D02*
X74812D01*
X72132Y394822D01*
X69728Y393434D01*
X67766Y391472D01*
X66378Y389068D01*
X65660Y386388D01*
Y383612D01*
X66378Y380932D01*
X67766Y378528D01*
X69728Y376566D01*
X72132Y375178D01*
X74812Y374460D01*
X77588D01*
X80268Y375178D01*
X82672Y376566D01*
X84634Y378528D01*
X86022Y380932D01*
X86740Y383612D01*
Y386388D01*
X86022Y389068D01*
X84634Y391472D01*
X82672Y393434D01*
X80268Y394822D01*
X77588Y395540D01*
D02*
G37*
G36*
X-74812D02*
X-77588D01*
X-80268Y394822D01*
X-82672Y393434D01*
X-84634Y391472D01*
X-86022Y389068D01*
X-86740Y386388D01*
Y383612D01*
X-86022Y380932D01*
X-84634Y378528D01*
X-82672Y376566D01*
X-80268Y375178D01*
X-77588Y374460D01*
X-74812D01*
X-72132Y375178D01*
X-69728Y376566D01*
X-67766Y378528D01*
X-66378Y380932D01*
X-65660Y383612D01*
Y386388D01*
X-66378Y389068D01*
X-67766Y391472D01*
X-69728Y393434D01*
X-72132Y394822D01*
X-74812Y395540D01*
D02*
G37*
G36*
X377500Y394635D02*
X372500D01*
X369618Y394256D01*
X366932Y393143D01*
X364626Y391374D01*
X362857Y389068D01*
X361744Y386382D01*
X361365Y383500D01*
X361744Y380618D01*
X362857Y377932D01*
X364626Y375626D01*
X366932Y373857D01*
X369618Y372744D01*
X372500Y372365D01*
X377500D01*
X380382Y372744D01*
X383068Y373857D01*
X385374Y375626D01*
X387143Y377932D01*
X388256Y380618D01*
X388635Y383500D01*
X388256Y386382D01*
X387143Y389068D01*
X385374Y391374D01*
X383068Y393143D01*
X380382Y394256D01*
X377500Y394635D01*
D02*
G37*
G36*
X-372500D02*
X-377500D01*
X-380382Y394256D01*
X-383068Y393143D01*
X-385374Y391374D01*
X-387143Y389068D01*
X-388256Y386382D01*
X-388635Y383500D01*
X-388256Y380618D01*
X-387143Y377932D01*
X-385374Y375626D01*
X-383068Y373857D01*
X-380382Y372744D01*
X-377500Y372365D01*
X-372500D01*
X-369618Y372744D01*
X-366932Y373857D01*
X-364626Y375626D01*
X-362857Y377932D01*
X-361744Y380618D01*
X-361365Y383500D01*
X-361744Y386382D01*
X-362857Y389068D01*
X-364626Y391374D01*
X-366932Y393143D01*
X-369618Y394256D01*
X-372500Y394635D01*
D02*
G37*
G36*
X-418948Y381910D02*
X-421053D01*
X-422997Y381105D01*
X-424485Y379617D01*
X-425290Y377672D01*
Y375568D01*
X-424485Y373624D01*
X-422997Y372136D01*
X-421053Y371330D01*
X-418948D01*
X-417004Y372136D01*
X-415516Y373624D01*
X-414710Y375568D01*
Y377672D01*
X-415516Y379617D01*
X-417004Y381105D01*
X-418948Y381910D01*
D02*
G37*
G36*
X421052Y381910D02*
X418947D01*
X417003Y381105D01*
X415515Y379617D01*
X414710Y377672D01*
Y375568D01*
X415515Y373624D01*
X417003Y372136D01*
X418947Y371330D01*
X421052D01*
X422996Y372136D01*
X424484Y373624D01*
X425290Y375568D01*
Y377672D01*
X424484Y379617D01*
X422996Y381105D01*
X421052Y381910D01*
D02*
G37*
G36*
X-443448Y381790D02*
X-445552D01*
X-447496Y380985D01*
X-448985Y379497D01*
X-449790Y377552D01*
Y375448D01*
X-448985Y373503D01*
X-447496Y372015D01*
X-445552Y371210D01*
X-443448D01*
X-441503Y372015D01*
X-440015Y373503D01*
X-439210Y375448D01*
Y377552D01*
X-440015Y379497D01*
X-441503Y380985D01*
X-443448Y381790D01*
D02*
G37*
G36*
X-468448D02*
X-470552D01*
X-472496Y380985D01*
X-473985Y379497D01*
X-474790Y377552D01*
Y375448D01*
X-473985Y373503D01*
X-472496Y372015D01*
X-470552Y371210D01*
X-468448D01*
X-466503Y372015D01*
X-465015Y373503D01*
X-464210Y375448D01*
Y377552D01*
X-465015Y379497D01*
X-466503Y380985D01*
X-468448Y381790D01*
D02*
G37*
G36*
X106053Y426040D02*
X103948D01*
X102004Y425235D01*
X100516Y423747D01*
X99710Y421802D01*
Y419698D01*
X100516Y417754D01*
X101269Y417000D01*
X100516Y416247D01*
X99710Y414302D01*
Y412198D01*
X100516Y410254D01*
X101269Y409500D01*
X100516Y408747D01*
X99710Y406802D01*
Y404698D01*
X100516Y402754D01*
X101269Y402000D01*
X100516Y401247D01*
X99710Y399302D01*
Y397198D01*
X100516Y395254D01*
X101269Y394500D01*
X100516Y393747D01*
X99710Y391802D01*
Y389698D01*
X100516Y387754D01*
X101269Y387000D01*
X100516Y386247D01*
X99710Y384303D01*
Y382198D01*
X100516Y380254D01*
X101269Y379500D01*
X100516Y378747D01*
X99710Y376803D01*
Y374698D01*
X100516Y372754D01*
X102004Y371266D01*
X103948Y370460D01*
X106053D01*
X107997Y371266D01*
X109485Y372754D01*
X110290Y374698D01*
Y376803D01*
X109485Y378747D01*
X108731Y379500D01*
X109485Y380254D01*
X110290Y382198D01*
Y384303D01*
X109485Y386247D01*
X108731Y387000D01*
X109485Y387754D01*
X110290Y389698D01*
Y391802D01*
X109485Y393747D01*
X108731Y394500D01*
X109485Y395254D01*
X110290Y397198D01*
Y399302D01*
X109485Y401247D01*
X108731Y402000D01*
X109485Y402754D01*
X110290Y404698D01*
Y406802D01*
X109485Y408747D01*
X108731Y409500D01*
X109485Y410254D01*
X110290Y412198D01*
Y414302D01*
X109485Y416247D01*
X108731Y417000D01*
X109485Y417754D01*
X110290Y419698D01*
Y421802D01*
X109485Y423747D01*
X107997Y425235D01*
X106053Y426040D01*
D02*
G37*
G36*
X-513948Y370290D02*
X-516052D01*
X-517997Y369485D01*
X-519485Y367996D01*
X-520290Y366052D01*
Y363948D01*
X-519485Y362004D01*
X-517997Y360515D01*
X-516052Y359710D01*
X-513948D01*
X-512004Y360515D01*
X-510515Y362004D01*
X-509710Y363948D01*
Y366052D01*
X-510515Y367996D01*
X-512004Y369485D01*
X-513948Y370290D01*
D02*
G37*
G36*
X-268948Y382790D02*
X-271052D01*
X-272997Y381985D01*
X-274485Y380497D01*
X-275290Y378553D01*
Y376448D01*
X-274485Y374504D01*
X-273731Y373750D01*
X-274485Y372997D01*
X-275290Y371053D01*
Y368948D01*
X-274485Y367004D01*
X-273731Y366250D01*
X-274485Y365497D01*
X-275290Y363553D01*
Y361448D01*
X-274485Y359504D01*
X-272997Y358016D01*
X-271052Y357210D01*
X-268948D01*
X-267003Y358016D01*
X-265515Y359504D01*
X-264710Y361448D01*
Y363553D01*
X-265515Y365497D01*
X-266269Y366250D01*
X-265515Y367004D01*
X-264710Y368948D01*
Y371053D01*
X-265515Y372997D01*
X-266269Y373750D01*
X-265515Y374504D01*
X-264710Y376448D01*
Y378553D01*
X-265515Y380497D01*
X-267003Y381985D01*
X-268948Y382790D01*
D02*
G37*
G36*
X-288948D02*
X-291052D01*
X-292997Y381985D01*
X-294485Y380497D01*
X-295290Y378553D01*
Y376448D01*
X-294485Y374504D01*
X-293731Y373750D01*
X-294485Y372997D01*
X-295290Y371053D01*
Y368948D01*
X-294485Y367004D01*
X-293731Y366250D01*
X-294485Y365497D01*
X-295290Y363553D01*
Y361448D01*
X-294485Y359504D01*
X-292997Y358016D01*
X-291052Y357210D01*
X-288948D01*
X-287003Y358016D01*
X-285515Y359504D01*
X-284710Y361448D01*
Y363553D01*
X-285515Y365497D01*
X-286269Y366250D01*
X-285515Y367004D01*
X-284710Y368948D01*
Y371053D01*
X-285515Y372997D01*
X-286269Y373750D01*
X-285515Y374504D01*
X-284710Y376448D01*
Y378553D01*
X-285515Y380497D01*
X-287003Y381985D01*
X-288948Y382790D01*
D02*
G37*
G36*
X516052Y360290D02*
X513948D01*
X512004Y359485D01*
X510515Y357996D01*
X509710Y356052D01*
Y353948D01*
X510515Y352004D01*
X512004Y350515D01*
X513948Y349710D01*
X516052D01*
X517997Y350515D01*
X519485Y352004D01*
X520290Y353948D01*
Y356052D01*
X519485Y357996D01*
X517997Y359485D01*
X516052Y360290D01*
D02*
G37*
G36*
X324052Y351290D02*
X321948D01*
X320003Y350485D01*
X319000Y349481D01*
X317997Y350485D01*
X316052Y351290D01*
X313948D01*
X312003Y350485D01*
X310515Y348997D01*
X309710Y347052D01*
Y344948D01*
X310515Y343004D01*
X312003Y341515D01*
X313948Y340710D01*
X316052D01*
X317997Y341515D01*
X319000Y342519D01*
X320003Y341515D01*
X321948Y340710D01*
X324052D01*
X325997Y341515D01*
X327485Y343004D01*
X328290Y344948D01*
Y347052D01*
X327485Y348997D01*
X325997Y350485D01*
X324052Y351290D01*
D02*
G37*
G36*
X77588Y370140D02*
X74812D01*
X72132Y369422D01*
X69728Y368034D01*
X67766Y366072D01*
X66378Y363668D01*
X65660Y360988D01*
Y358212D01*
X66378Y355532D01*
X67766Y353128D01*
X69728Y351166D01*
X72132Y349778D01*
X74812Y349060D01*
X77588D01*
X80268Y349778D01*
X82672Y351166D01*
X84634Y353128D01*
X86022Y355532D01*
X86740Y358212D01*
Y360988D01*
X86022Y363668D01*
X84634Y366072D01*
X82672Y368034D01*
X80268Y369422D01*
X77588Y370140D01*
D02*
G37*
G36*
X-74812D02*
X-77588D01*
X-80268Y369422D01*
X-82672Y368034D01*
X-84634Y366072D01*
X-86022Y363668D01*
X-86740Y360988D01*
Y358212D01*
X-86022Y355532D01*
X-84634Y353128D01*
X-82672Y351166D01*
X-80268Y349778D01*
X-77588Y349060D01*
X-74812D01*
X-72132Y349778D01*
X-69728Y351166D01*
X-67766Y353128D01*
X-66378Y355532D01*
X-65660Y358212D01*
Y360988D01*
X-66378Y363668D01*
X-67766Y366072D01*
X-69728Y368034D01*
X-72132Y369422D01*
X-74812Y370140D01*
D02*
G37*
G36*
X377500Y369235D02*
X372500D01*
X369618Y368856D01*
X366932Y367743D01*
X364626Y365974D01*
X362857Y363668D01*
X361744Y360982D01*
X361365Y358100D01*
X361744Y355218D01*
X362857Y352532D01*
X364626Y350226D01*
X366932Y348457D01*
X369618Y347344D01*
X372500Y346965D01*
X377500D01*
X380382Y347344D01*
X383068Y348457D01*
X385374Y350226D01*
X387143Y352532D01*
X388256Y355218D01*
X388635Y358100D01*
X388256Y360982D01*
X387143Y363668D01*
X385374Y365974D01*
X383068Y367743D01*
X380382Y368856D01*
X377500Y369235D01*
D02*
G37*
G36*
X-372500D02*
X-377500D01*
X-380382Y368856D01*
X-383068Y367743D01*
X-385374Y365974D01*
X-387143Y363668D01*
X-388256Y360982D01*
X-388635Y358100D01*
X-388256Y355218D01*
X-387143Y352532D01*
X-385374Y350226D01*
X-383068Y348457D01*
X-380382Y347344D01*
X-377500Y346965D01*
X-372500D01*
X-369618Y347344D01*
X-366932Y348457D01*
X-364626Y350226D01*
X-362857Y352532D01*
X-361744Y355218D01*
X-361365Y358100D01*
X-361744Y360982D01*
X-362857Y363668D01*
X-364626Y365974D01*
X-366932Y367743D01*
X-369618Y368856D01*
X-372500Y369235D01*
D02*
G37*
G36*
X-288948Y355290D02*
X-291052D01*
X-292997Y354485D01*
X-294485Y352997D01*
X-295290Y351052D01*
Y348948D01*
X-294485Y347004D01*
X-292997Y345515D01*
X-291052Y344710D01*
X-288948D01*
X-287003Y345515D01*
X-285515Y347004D01*
X-284710Y348948D01*
Y351052D01*
X-285515Y352997D01*
X-287003Y354485D01*
X-288948Y355290D01*
D02*
G37*
G36*
X-328948D02*
X-331052D01*
X-332996Y354485D01*
X-334485Y352997D01*
X-335290Y351052D01*
Y348948D01*
X-334485Y347004D01*
X-332996Y345515D01*
X-331052Y344710D01*
X-328948D01*
X-327004Y345515D01*
X-325515Y347004D01*
X-324710Y348948D01*
Y351052D01*
X-325515Y352997D01*
X-327004Y354485D01*
X-328948Y355290D01*
D02*
G37*
G36*
X271052Y355290D02*
X268948D01*
X267003Y354485D01*
X265515Y352997D01*
X264710Y351052D01*
Y350290D01*
X263948D01*
X262003Y349485D01*
X260515Y347997D01*
X259710Y346052D01*
Y343948D01*
X260515Y342004D01*
X262003Y340515D01*
X263948Y339710D01*
X264710D01*
Y338948D01*
X265515Y337004D01*
X267003Y335515D01*
X268948Y334710D01*
X271052D01*
X272997Y335515D01*
X274485Y337004D01*
X275290Y338948D01*
Y341052D01*
X274485Y342996D01*
X273240Y344241D01*
X273095Y345000D01*
X273240Y345759D01*
X274485Y347004D01*
X275290Y348948D01*
Y351052D01*
X274485Y352997D01*
X272997Y354485D01*
X271052Y355290D01*
D02*
G37*
G36*
X210052Y345290D02*
X207948D01*
X206003Y344485D01*
X204515Y342996D01*
X203710Y341052D01*
Y338948D01*
X204515Y337004D01*
X206003Y335515D01*
X207948Y334710D01*
X210052D01*
X211997Y335515D01*
X213485Y337004D01*
X214290Y338948D01*
Y341052D01*
X213485Y342996D01*
X211997Y344485D01*
X210052Y345290D01*
D02*
G37*
G36*
X-473992Y350290D02*
X-476096D01*
X-478041Y349485D01*
X-479529Y347997D01*
X-480334Y346052D01*
Y343948D01*
X-479529Y342004D01*
X-479025Y341500D01*
X-479529Y340997D01*
X-480334Y339052D01*
Y336948D01*
X-479529Y335004D01*
X-478041Y333515D01*
X-476096Y332710D01*
X-473992D01*
X-472048Y333515D01*
X-470559Y335004D01*
X-469754Y336948D01*
Y339052D01*
X-470559Y340997D01*
X-471063Y341500D01*
X-470559Y342004D01*
X-469754Y343948D01*
Y346052D01*
X-470559Y347997D01*
X-472048Y349485D01*
X-473992Y350290D01*
D02*
G37*
G36*
X77588Y344740D02*
X74812D01*
X72132Y344022D01*
X69728Y342634D01*
X67766Y340672D01*
X66378Y338268D01*
X65660Y335588D01*
Y332812D01*
X66378Y330132D01*
X67766Y327728D01*
X69728Y325766D01*
X72132Y324378D01*
X74812Y323660D01*
X77588D01*
X80268Y324378D01*
X82672Y325766D01*
X84634Y327728D01*
X86022Y330132D01*
X86740Y332812D01*
Y335588D01*
X86022Y338268D01*
X84634Y340672D01*
X82672Y342634D01*
X80268Y344022D01*
X77588Y344740D01*
D02*
G37*
G36*
X-74812D02*
X-77588D01*
X-80268Y344022D01*
X-82672Y342634D01*
X-84634Y340672D01*
X-86022Y338268D01*
X-86740Y335588D01*
Y332812D01*
X-86022Y330132D01*
X-84634Y327728D01*
X-82672Y325766D01*
X-80268Y324378D01*
X-77588Y323660D01*
X-74812D01*
X-72132Y324378D01*
X-69728Y325766D01*
X-67766Y327728D01*
X-66378Y330132D01*
X-65660Y332812D01*
Y335588D01*
X-66378Y338268D01*
X-67766Y340672D01*
X-69728Y342634D01*
X-72132Y344022D01*
X-74812Y344740D01*
D02*
G37*
G36*
X377500Y343835D02*
X372500D01*
X369618Y343456D01*
X366932Y342343D01*
X364626Y340574D01*
X362857Y338268D01*
X361744Y335582D01*
X361365Y332700D01*
X361744Y329818D01*
X362857Y327132D01*
X364626Y324826D01*
X366932Y323057D01*
X369618Y321944D01*
X372500Y321565D01*
X377500D01*
X380382Y321944D01*
X383068Y323057D01*
X385374Y324826D01*
X387143Y327132D01*
X388256Y329818D01*
X388635Y332700D01*
X388256Y335582D01*
X387143Y338268D01*
X385374Y340574D01*
X383068Y342343D01*
X380382Y343456D01*
X377500Y343835D01*
D02*
G37*
G36*
X-372500D02*
X-377500D01*
X-380382Y343456D01*
X-383068Y342343D01*
X-385374Y340574D01*
X-387143Y338268D01*
X-388256Y335582D01*
X-388635Y332700D01*
X-388256Y329818D01*
X-387143Y327132D01*
X-385374Y324826D01*
X-383068Y323057D01*
X-380382Y321944D01*
X-377500Y321565D01*
X-372500D01*
X-369618Y321944D01*
X-366932Y323057D01*
X-364626Y324826D01*
X-362857Y327132D01*
X-361744Y329818D01*
X-361365Y332700D01*
X-361744Y335582D01*
X-362857Y338268D01*
X-364626Y340574D01*
X-366932Y342343D01*
X-369618Y343456D01*
X-372500Y343835D01*
D02*
G37*
G36*
X-345948Y330290D02*
X-348052D01*
X-349996Y329485D01*
X-351485Y327997D01*
X-352290Y326052D01*
Y323948D01*
X-351485Y322004D01*
X-349996Y320515D01*
X-348290Y319809D01*
Y317948D01*
X-347485Y316003D01*
X-345997Y314515D01*
X-344052Y313710D01*
X-341948D01*
X-340004Y314515D01*
X-338515Y316003D01*
X-337710Y317948D01*
Y320052D01*
X-338515Y321996D01*
X-340004Y323485D01*
X-341710Y324192D01*
Y326052D01*
X-342515Y327997D01*
X-344003Y329485D01*
X-345948Y330290D01*
D02*
G37*
G36*
X337052Y331290D02*
X334948D01*
X333003Y330485D01*
X331515Y328997D01*
X330710Y327052D01*
Y324948D01*
X331515Y323004D01*
X333003Y321515D01*
X334948Y320710D01*
X335578Y319440D01*
X335210Y318552D01*
Y316448D01*
X336015Y314503D01*
X337504Y313015D01*
X339448Y312210D01*
X341552D01*
X343497Y313015D01*
X344985Y314503D01*
X345790Y316448D01*
Y318552D01*
X344985Y320496D01*
X343497Y321985D01*
X341552Y322790D01*
X340922Y324060D01*
X341290Y324948D01*
Y327052D01*
X340485Y328997D01*
X338997Y330485D01*
X337052Y331290D01*
D02*
G37*
G36*
X251052Y332790D02*
X248948D01*
X247003Y331985D01*
X245515Y330496D01*
X244710Y328552D01*
Y327790D01*
X243948D01*
X242003Y326985D01*
X240515Y325496D01*
X239710Y323552D01*
Y322790D01*
X238948D01*
X237003Y321985D01*
X235515Y320496D01*
X234710Y318552D01*
Y316448D01*
X235515Y314503D01*
X237003Y313015D01*
X238948Y312210D01*
X241052D01*
X242997Y313015D01*
X244485Y314503D01*
X245290Y316448D01*
Y317210D01*
X246052D01*
X247997Y318015D01*
X249485Y319503D01*
X250290Y321448D01*
Y322210D01*
X251052D01*
X252997Y323015D01*
X254485Y324503D01*
X255290Y326448D01*
Y328552D01*
X254485Y330496D01*
X252997Y331985D01*
X251052Y332790D01*
D02*
G37*
G36*
X-238948Y327790D02*
X-241052D01*
X-242997Y326985D01*
X-244485Y325497D01*
X-245290Y323552D01*
Y322790D01*
X-246052D01*
X-247997Y321985D01*
X-249485Y320497D01*
X-250290Y318552D01*
Y317790D01*
X-251052D01*
X-252997Y316985D01*
X-254485Y315497D01*
X-255290Y313552D01*
Y311448D01*
X-254485Y309503D01*
X-252997Y308015D01*
X-251052Y307210D01*
X-248948D01*
X-247003Y308015D01*
X-245515Y309503D01*
X-244710Y311448D01*
Y312210D01*
X-243948D01*
X-242003Y313015D01*
X-240515Y314503D01*
X-239710Y316448D01*
Y317210D01*
X-238948D01*
X-237003Y318015D01*
X-235515Y319503D01*
X-234710Y321448D01*
Y323552D01*
X-235515Y325497D01*
X-237003Y326985D01*
X-238948Y327790D01*
D02*
G37*
G36*
X105993Y362540D02*
X104007D01*
X102090Y362026D01*
X100370Y361034D01*
X98967Y359630D01*
X97974Y357910D01*
X97460Y355993D01*
Y354007D01*
X97974Y352090D01*
X98967Y350370D01*
X100370Y348966D01*
X101694Y348202D01*
X101757Y348016D01*
Y346984D01*
X101694Y346798D01*
X100370Y346034D01*
X98967Y344630D01*
X97974Y342910D01*
X97460Y340993D01*
Y339007D01*
X97974Y337090D01*
X98967Y335370D01*
X100370Y333966D01*
X101694Y333202D01*
X101757Y333016D01*
Y331984D01*
X101694Y331798D01*
X100370Y331034D01*
X98967Y329630D01*
X97974Y327910D01*
X97460Y325993D01*
Y324007D01*
X97974Y322090D01*
X98967Y320370D01*
X100370Y318967D01*
X101694Y318202D01*
X101757Y318016D01*
Y316984D01*
X101694Y316798D01*
X100370Y316033D01*
X98967Y314630D01*
X97974Y312910D01*
X97460Y310993D01*
Y309007D01*
X97974Y307090D01*
X98967Y305370D01*
X100370Y303967D01*
X102090Y302974D01*
X104007Y302460D01*
X105993D01*
X107910Y302974D01*
X109630Y303967D01*
X111033Y305370D01*
X112026Y307090D01*
X112540Y309007D01*
Y310993D01*
X112026Y312910D01*
X111033Y314630D01*
X109630Y316033D01*
X108305Y316798D01*
X108243Y316984D01*
Y318016D01*
X108305Y318202D01*
X109630Y318967D01*
X111033Y320370D01*
X112026Y322090D01*
X112540Y324007D01*
Y325993D01*
X112026Y327910D01*
X111033Y329630D01*
X109630Y331034D01*
X108305Y331798D01*
X108243Y331984D01*
Y333016D01*
X108305Y333202D01*
X109630Y333966D01*
X111033Y335370D01*
X112026Y337090D01*
X112540Y339007D01*
Y340993D01*
X112026Y342910D01*
X111033Y344630D01*
X109630Y346034D01*
X108305Y346798D01*
X108243Y346984D01*
Y348016D01*
X108305Y348202D01*
X109630Y348966D01*
X111033Y350370D01*
X112026Y352090D01*
X112540Y354007D01*
Y355993D01*
X112026Y357910D01*
X111033Y359630D01*
X109630Y361034D01*
X107910Y362026D01*
X105993Y362540D01*
D02*
G37*
G36*
X77588Y319340D02*
X74812D01*
X72132Y318622D01*
X69728Y317234D01*
X67766Y315272D01*
X66378Y312868D01*
X65660Y310188D01*
Y307412D01*
X66378Y304732D01*
X67766Y302328D01*
X69728Y300366D01*
X72132Y298978D01*
X74812Y298260D01*
X77588D01*
X80268Y298978D01*
X82672Y300366D01*
X84634Y302328D01*
X86022Y304732D01*
X86740Y307412D01*
Y310188D01*
X86022Y312868D01*
X84634Y315272D01*
X82672Y317234D01*
X80268Y318622D01*
X77588Y319340D01*
D02*
G37*
G36*
X-74812D02*
X-77588D01*
X-80268Y318622D01*
X-82672Y317234D01*
X-84634Y315272D01*
X-86022Y312868D01*
X-86740Y310188D01*
Y307412D01*
X-86022Y304732D01*
X-84634Y302328D01*
X-82672Y300366D01*
X-80268Y298978D01*
X-77588Y298260D01*
X-74812D01*
X-72132Y298978D01*
X-69728Y300366D01*
X-67766Y302328D01*
X-66378Y304732D01*
X-65660Y307412D01*
Y310188D01*
X-66378Y312868D01*
X-67766Y315272D01*
X-69728Y317234D01*
X-72132Y318622D01*
X-74812Y319340D01*
D02*
G37*
G36*
X377500Y318435D02*
X372500D01*
X369618Y318056D01*
X366932Y316943D01*
X364626Y315174D01*
X362857Y312868D01*
X361744Y310182D01*
X361365Y307300D01*
X361744Y304418D01*
X362857Y301732D01*
X364626Y299426D01*
X366932Y297657D01*
X369618Y296544D01*
X372500Y296165D01*
X377500D01*
X380382Y296544D01*
X383068Y297657D01*
X385374Y299426D01*
X387143Y301732D01*
X388256Y304418D01*
X388635Y307300D01*
X388256Y310182D01*
X387143Y312868D01*
X385374Y315174D01*
X383068Y316943D01*
X380382Y318056D01*
X377500Y318435D01*
D02*
G37*
G36*
X-372500D02*
X-377500D01*
X-380382Y318056D01*
X-383068Y316943D01*
X-385374Y315174D01*
X-387143Y312868D01*
X-388256Y310182D01*
X-388635Y307300D01*
X-388256Y304418D01*
X-387143Y301732D01*
X-385374Y299426D01*
X-383068Y297657D01*
X-380382Y296544D01*
X-377500Y296165D01*
X-372500D01*
X-369618Y296544D01*
X-366932Y297657D01*
X-364626Y299426D01*
X-362857Y301732D01*
X-361744Y304418D01*
X-361365Y307300D01*
X-361744Y310182D01*
X-362857Y312868D01*
X-364626Y315174D01*
X-366932Y316943D01*
X-369618Y318056D01*
X-372500Y318435D01*
D02*
G37*
G36*
X-418948Y301910D02*
X-421053D01*
X-422997Y301105D01*
X-424485Y299617D01*
X-425290Y297672D01*
Y295568D01*
X-424485Y293624D01*
X-422997Y292136D01*
X-421053Y291330D01*
X-418948D01*
X-417004Y292136D01*
X-415516Y293624D01*
X-414710Y295568D01*
Y297672D01*
X-415516Y299617D01*
X-417004Y301105D01*
X-418948Y301910D01*
D02*
G37*
G36*
X421052Y301910D02*
X418947D01*
X417003Y301105D01*
X415515Y299617D01*
X414710Y297672D01*
Y295568D01*
X415515Y293624D01*
X417003Y292136D01*
X418947Y291330D01*
X421052D01*
X422996Y292136D01*
X424484Y293624D01*
X425290Y295568D01*
Y297672D01*
X424484Y299617D01*
X422996Y301105D01*
X421052Y301910D01*
D02*
G37*
G36*
X-443448Y301790D02*
X-445552D01*
X-447496Y300985D01*
X-448985Y299497D01*
X-449790Y297552D01*
Y295448D01*
X-448985Y293503D01*
X-447496Y292015D01*
X-445552Y291210D01*
X-443448D01*
X-441503Y292015D01*
X-440015Y293503D01*
X-439210Y295448D01*
Y297552D01*
X-440015Y299497D01*
X-441503Y300985D01*
X-443448Y301790D01*
D02*
G37*
G36*
X-468448D02*
X-470552D01*
X-472496Y300985D01*
X-473985Y299497D01*
X-474790Y297552D01*
Y295448D01*
X-473985Y293503D01*
X-472496Y292015D01*
X-470552Y291210D01*
X-468448D01*
X-466503Y292015D01*
X-465015Y293503D01*
X-464210Y295448D01*
Y297552D01*
X-465015Y299497D01*
X-466503Y300985D01*
X-468448Y301790D01*
D02*
G37*
G36*
X-16948Y301390D02*
X-19052D01*
X-20996Y300585D01*
X-22485Y299097D01*
X-23290Y297152D01*
Y295048D01*
X-22485Y293103D01*
X-20996Y291615D01*
X-19052Y290810D01*
X-16948D01*
X-15003Y291615D01*
X-13515Y293103D01*
X-12710Y295048D01*
Y297152D01*
X-13515Y299097D01*
X-15003Y300585D01*
X-16948Y301390D01*
D02*
G37*
G36*
X194052Y301290D02*
X191948D01*
X190004Y300485D01*
X188515Y298997D01*
X187710Y297052D01*
Y294948D01*
X188515Y293004D01*
X190004Y291515D01*
X191948Y290710D01*
X194052D01*
X195996Y291515D01*
X197485Y293004D01*
X198290Y294948D01*
Y297052D01*
X197485Y298997D01*
X195996Y300485D01*
X194052Y301290D01*
D02*
G37*
G36*
X-263948Y300290D02*
X-266052D01*
X-267997Y299485D01*
X-269485Y297997D01*
X-270290Y296052D01*
Y295290D01*
X-271052D01*
X-272997Y294485D01*
X-274485Y292997D01*
X-275290Y291052D01*
Y288948D01*
X-274485Y287003D01*
X-272997Y285515D01*
X-271052Y284710D01*
X-268948D01*
X-267003Y285515D01*
X-265515Y287003D01*
X-264710Y288948D01*
Y289710D01*
X-263948D01*
X-262003Y290515D01*
X-260515Y292003D01*
X-259710Y293948D01*
Y296052D01*
X-260515Y297997D01*
X-262003Y299485D01*
X-263948Y300290D01*
D02*
G37*
G36*
X331052Y295290D02*
X328948D01*
X327004Y294485D01*
X325515Y292997D01*
X324710Y291052D01*
Y288948D01*
X325515Y287003D01*
X327004Y285515D01*
X328948Y284710D01*
X331052D01*
X332996Y285515D01*
X334485Y287003D01*
X335290Y288948D01*
Y291052D01*
X334485Y292997D01*
X332996Y294485D01*
X331052Y295290D01*
D02*
G37*
G36*
X291052D02*
X288948D01*
X287003Y294485D01*
X285515Y292997D01*
X284710Y291052D01*
Y288948D01*
X285515Y287003D01*
X287003Y285515D01*
X288948Y284710D01*
X291052D01*
X292997Y285515D01*
X294485Y287003D01*
X295290Y288948D01*
Y291052D01*
X294485Y292997D01*
X292997Y294485D01*
X291052Y295290D01*
D02*
G37*
G36*
X-513948Y290290D02*
X-516052D01*
X-517997Y289485D01*
X-519485Y287997D01*
X-520290Y286052D01*
Y283948D01*
X-519485Y282003D01*
X-517997Y280515D01*
X-516052Y279710D01*
X-513948D01*
X-512004Y280515D01*
X-510515Y282003D01*
X-509710Y283948D01*
Y286052D01*
X-510515Y287997D01*
X-512004Y289485D01*
X-513948Y290290D01*
D02*
G37*
G36*
X202052Y288690D02*
X199948D01*
X198004Y287885D01*
X196515Y286397D01*
X195710Y284452D01*
Y282348D01*
X196515Y280403D01*
X198004Y278915D01*
X199948Y278110D01*
X202052D01*
X203997Y278915D01*
X205485Y280403D01*
X206290Y282348D01*
Y284452D01*
X205485Y286397D01*
X203997Y287885D01*
X202052Y288690D01*
D02*
G37*
G36*
X77588Y293940D02*
X74812D01*
X72132Y293222D01*
X69728Y291834D01*
X67766Y289872D01*
X66378Y287468D01*
X65660Y284788D01*
Y282012D01*
X66378Y279332D01*
X67766Y276928D01*
X69728Y274966D01*
X72132Y273578D01*
X74812Y272860D01*
X77588D01*
X80268Y273578D01*
X82672Y274966D01*
X84634Y276928D01*
X86022Y279332D01*
X86740Y282012D01*
Y284788D01*
X86022Y287468D01*
X84634Y289872D01*
X82672Y291834D01*
X80268Y293222D01*
X77588Y293940D01*
D02*
G37*
G36*
X-74812D02*
X-77588D01*
X-80268Y293222D01*
X-82672Y291834D01*
X-84634Y289872D01*
X-86022Y287468D01*
X-86740Y284788D01*
Y282012D01*
X-86022Y279332D01*
X-84634Y276928D01*
X-82672Y274966D01*
X-80268Y273578D01*
X-77588Y272860D01*
X-74812D01*
X-72132Y273578D01*
X-69728Y274966D01*
X-67766Y276928D01*
X-66378Y279332D01*
X-65660Y282012D01*
Y284788D01*
X-66378Y287468D01*
X-67766Y289872D01*
X-69728Y291834D01*
X-72132Y293222D01*
X-74812Y293940D01*
D02*
G37*
G36*
X291052Y282790D02*
X288948D01*
X287003Y281984D01*
X285515Y280496D01*
X284710Y278552D01*
Y276448D01*
X285515Y274503D01*
X287003Y273015D01*
X288948Y272210D01*
X291052D01*
X292997Y273015D01*
X294485Y274503D01*
X295290Y276448D01*
Y278552D01*
X294485Y280496D01*
X292997Y281984D01*
X291052Y282790D01*
D02*
G37*
G36*
X377500Y293035D02*
X372500D01*
X369618Y292656D01*
X366932Y291543D01*
X364626Y289774D01*
X362857Y287468D01*
X361744Y284782D01*
X361365Y281900D01*
X361744Y279018D01*
X362857Y276332D01*
X364626Y274026D01*
X366932Y272257D01*
X369618Y271144D01*
X372500Y270765D01*
X377500D01*
X380382Y271144D01*
X383068Y272257D01*
X385374Y274026D01*
X387143Y276332D01*
X388256Y279018D01*
X388635Y281900D01*
X388256Y284782D01*
X387143Y287468D01*
X385374Y289774D01*
X383068Y291543D01*
X380382Y292656D01*
X377500Y293035D01*
D02*
G37*
G36*
X-372500D02*
X-377500D01*
X-380382Y292656D01*
X-383068Y291543D01*
X-385374Y289774D01*
X-387143Y287468D01*
X-388256Y284782D01*
X-388635Y281900D01*
X-388256Y279018D01*
X-387143Y276332D01*
X-385374Y274026D01*
X-383068Y272257D01*
X-380382Y271144D01*
X-377500Y270765D01*
X-372500D01*
X-369618Y271144D01*
X-366932Y272257D01*
X-364626Y274026D01*
X-362857Y276332D01*
X-361744Y279018D01*
X-361365Y281900D01*
X-361744Y284782D01*
X-362857Y287468D01*
X-364626Y289774D01*
X-366932Y291543D01*
X-369618Y292656D01*
X-372500Y293035D01*
D02*
G37*
G36*
X516052Y280290D02*
X513948D01*
X512004Y279485D01*
X510515Y277997D01*
X509710Y276052D01*
Y273948D01*
X510515Y272003D01*
X512004Y270515D01*
X513948Y269710D01*
X516052D01*
X517997Y270515D01*
X519485Y272003D01*
X520290Y273948D01*
Y276052D01*
X519485Y277997D01*
X517997Y279485D01*
X516052Y280290D01*
D02*
G37*
G36*
X187163Y276040D02*
X185058D01*
X183114Y275235D01*
X181626Y273746D01*
X180820Y271802D01*
Y269698D01*
X181626Y267754D01*
X183114Y266265D01*
X185058Y265460D01*
X187163D01*
X189107Y266265D01*
X190595Y267754D01*
X191400Y269698D01*
Y271802D01*
X190595Y273746D01*
X189107Y275235D01*
X187163Y276040D01*
D02*
G37*
G36*
X77588Y268540D02*
X74812D01*
X72132Y267822D01*
X69728Y266434D01*
X67766Y264472D01*
X66378Y262068D01*
X65660Y259388D01*
Y256612D01*
X66378Y253932D01*
X67766Y251528D01*
X69728Y249566D01*
X72132Y248178D01*
X74812Y247460D01*
X77588D01*
X80268Y248178D01*
X82672Y249566D01*
X84634Y251528D01*
X86022Y253932D01*
X86740Y256612D01*
Y259388D01*
X86022Y262068D01*
X84634Y264472D01*
X82672Y266434D01*
X80268Y267822D01*
X77588Y268540D01*
D02*
G37*
G36*
X-74812D02*
X-77588D01*
X-80268Y267822D01*
X-82672Y266434D01*
X-84634Y264472D01*
X-86022Y262068D01*
X-86740Y259388D01*
Y256612D01*
X-86022Y253932D01*
X-84634Y251528D01*
X-82672Y249566D01*
X-80268Y248178D01*
X-77588Y247460D01*
X-74812D01*
X-72132Y248178D01*
X-69728Y249566D01*
X-67766Y251528D01*
X-66378Y253932D01*
X-65660Y256612D01*
Y259388D01*
X-66378Y262068D01*
X-67766Y264472D01*
X-69728Y266434D01*
X-72132Y267822D01*
X-74812Y268540D01*
D02*
G37*
G36*
X377500Y267635D02*
X372500D01*
X369618Y267256D01*
X366932Y266143D01*
X364626Y264374D01*
X362857Y262068D01*
X361744Y259382D01*
X361365Y256500D01*
X361744Y253618D01*
X362857Y250932D01*
X364626Y248626D01*
X366932Y246857D01*
X369618Y245744D01*
X372500Y245365D01*
X377500D01*
X380382Y245744D01*
X383068Y246857D01*
X385374Y248626D01*
X387143Y250932D01*
X388256Y253618D01*
X388635Y256500D01*
X388256Y259382D01*
X387143Y262068D01*
X385374Y264374D01*
X383068Y266143D01*
X380382Y267256D01*
X377500Y267635D01*
D02*
G37*
G36*
X-372500D02*
X-377500D01*
X-380382Y267256D01*
X-383068Y266143D01*
X-385374Y264374D01*
X-387143Y262068D01*
X-388256Y259382D01*
X-388635Y256500D01*
X-388256Y253618D01*
X-387143Y250932D01*
X-385374Y248626D01*
X-383068Y246857D01*
X-380382Y245744D01*
X-377500Y245365D01*
X-372500D01*
X-369618Y245744D01*
X-366932Y246857D01*
X-364626Y248626D01*
X-362857Y250932D01*
X-361744Y253618D01*
X-361365Y256500D01*
X-361744Y259382D01*
X-362857Y262068D01*
X-364626Y264374D01*
X-366932Y266143D01*
X-369618Y267256D01*
X-372500Y267635D01*
D02*
G37*
G36*
X-238948Y251040D02*
X-241052D01*
X-242997Y250235D01*
X-244485Y248746D01*
X-245290Y246802D01*
Y244698D01*
X-244485Y242754D01*
X-242997Y241265D01*
X-241052Y240460D01*
X-238948D01*
X-237003Y241265D01*
X-235515Y242754D01*
X-234710Y244698D01*
Y246802D01*
X-235515Y248746D01*
X-237003Y250235D01*
X-238948Y251040D01*
D02*
G37*
G36*
X210052Y250540D02*
X207948D01*
X206003Y249735D01*
X204515Y248246D01*
X203710Y246302D01*
Y244198D01*
X204515Y242253D01*
X206003Y240765D01*
X207948Y239960D01*
X210052D01*
X211996Y240765D01*
X213485Y242253D01*
X214290Y244198D01*
Y246302D01*
X213485Y248246D01*
X211996Y249735D01*
X210052Y250540D01*
D02*
G37*
G36*
X-10185Y245282D02*
X-13215D01*
X-16187Y244691D01*
X-18986Y243531D01*
X-21505Y241848D01*
X-23648Y239705D01*
X-24677Y238165D01*
X-25842Y237534D01*
X-28018Y238790D01*
X-30430Y239436D01*
Y229900D01*
X-32970D01*
Y239436D01*
X-35382Y238790D01*
X-37558Y237534D01*
X-38723Y238165D01*
X-39752Y239705D01*
X-41895Y241848D01*
X-44414Y243531D01*
X-47213Y244691D01*
X-50185Y245282D01*
X-53215D01*
X-56187Y244691D01*
X-58986Y243531D01*
X-61505Y241848D01*
X-63648Y239705D01*
X-65274Y237271D01*
X-65641Y237193D01*
X-66694Y237215D01*
X-67766Y239072D01*
X-69728Y241034D01*
X-72132Y242422D01*
X-74812Y243140D01*
X-77588D01*
X-80268Y242422D01*
X-82672Y241034D01*
X-84634Y239072D01*
X-86022Y236668D01*
X-86740Y233988D01*
Y231212D01*
X-86022Y228532D01*
X-84634Y226128D01*
X-82672Y224166D01*
X-80268Y222778D01*
X-77588Y222060D01*
X-74812D01*
X-72132Y222778D01*
X-69728Y224166D01*
X-67901Y225993D01*
X-66589Y225905D01*
X-66491Y225413D01*
X-65331Y222614D01*
X-63648Y220095D01*
X-63453Y219900D01*
X-63648Y219705D01*
X-65331Y217186D01*
X-66491Y214387D01*
X-66589Y213895D01*
X-67901Y213807D01*
X-69728Y215634D01*
X-72132Y217022D01*
X-74812Y217740D01*
X-77588D01*
X-80268Y217022D01*
X-82672Y215634D01*
X-84634Y213672D01*
X-86022Y211268D01*
X-86740Y208588D01*
Y205812D01*
X-86022Y203132D01*
X-84634Y200728D01*
X-82672Y198766D01*
X-80268Y197378D01*
X-77588Y196660D01*
X-74812D01*
X-72132Y197378D01*
X-69728Y198766D01*
X-67766Y200728D01*
X-66694Y202585D01*
X-65640Y202607D01*
X-65274Y202528D01*
X-63648Y200095D01*
X-61505Y197952D01*
X-58986Y196269D01*
X-56187Y195109D01*
X-53215Y194518D01*
X-50185D01*
X-47213Y195109D01*
X-44414Y196269D01*
X-41895Y197952D01*
X-39752Y200095D01*
X-38723Y201635D01*
X-37558Y202266D01*
X-35382Y201010D01*
X-32956Y200360D01*
X-30444D01*
X-28018Y201010D01*
X-25842Y202266D01*
X-24677Y201635D01*
X-23648Y200095D01*
X-21505Y197952D01*
X-18986Y196269D01*
X-16187Y195109D01*
X-13215Y194518D01*
X-10185D01*
X-7213Y195109D01*
X-4414Y196269D01*
X-1895Y197952D01*
X248Y200095D01*
X1931Y202614D01*
X3091Y205413D01*
X3682Y208385D01*
Y211415D01*
X3091Y214387D01*
X1931Y217186D01*
X248Y219705D01*
X53Y219900D01*
X248Y220095D01*
X1931Y222614D01*
X3091Y225413D01*
X3682Y228385D01*
Y231415D01*
X3091Y234387D01*
X1931Y237186D01*
X248Y239705D01*
X-1895Y241848D01*
X-4414Y243531D01*
X-7213Y244691D01*
X-10185Y245282D01*
D02*
G37*
G36*
X388540Y242140D02*
X376270D01*
Y232370D01*
X388540D01*
Y242140D01*
D02*
G37*
G36*
X373730D02*
X361460D01*
Y232370D01*
X373730D01*
Y242140D01*
D02*
G37*
G36*
X-361460D02*
X-373730D01*
Y232370D01*
X-361460D01*
Y242140D01*
D02*
G37*
G36*
X-376270D02*
X-388540D01*
Y232370D01*
X-376270D01*
Y242140D01*
D02*
G37*
G36*
X241052Y237890D02*
X238948D01*
X237003Y237085D01*
X235515Y235597D01*
X234710Y233652D01*
Y231548D01*
X235515Y229604D01*
X237003Y228115D01*
X238948Y227310D01*
X241052D01*
X242997Y228115D01*
X244485Y229604D01*
X245290Y231548D01*
Y233652D01*
X244485Y235597D01*
X242997Y237085D01*
X241052Y237890D01*
D02*
G37*
G36*
X-248948Y237890D02*
X-251052D01*
X-252997Y237085D01*
X-254485Y235597D01*
X-255290Y233652D01*
Y231548D01*
X-254485Y229603D01*
X-252997Y228115D01*
X-251052Y227310D01*
X-248948D01*
X-247003Y228115D01*
X-245515Y229603D01*
X-244710Y231548D01*
Y233652D01*
X-245515Y235597D01*
X-247003Y237085D01*
X-248948Y237890D01*
D02*
G37*
G36*
X77588Y243140D02*
X74812D01*
X72132Y242422D01*
X69728Y241034D01*
X67766Y239072D01*
X66378Y236668D01*
X65660Y233988D01*
Y231212D01*
X66378Y228532D01*
X67766Y226128D01*
X69728Y224166D01*
X72132Y222778D01*
X74812Y222060D01*
X77588D01*
X80268Y222778D01*
X82672Y224166D01*
X84634Y226128D01*
X86022Y228532D01*
X86740Y231212D01*
Y233988D01*
X86022Y236668D01*
X84634Y239072D01*
X82672Y241034D01*
X80268Y242422D01*
X77588Y243140D01*
D02*
G37*
G36*
X388540Y229830D02*
X376270D01*
Y220060D01*
X388540D01*
Y229830D01*
D02*
G37*
G36*
X373730D02*
X361460D01*
Y220060D01*
X373730D01*
Y229830D01*
D02*
G37*
G36*
X-361460Y229830D02*
X-373730D01*
Y220060D01*
X-361460D01*
Y229830D01*
D02*
G37*
G36*
X-376270D02*
X-388540D01*
Y220060D01*
X-376270D01*
Y229830D01*
D02*
G37*
G36*
X-418948Y221910D02*
X-421053D01*
X-422997Y221105D01*
X-424485Y219617D01*
X-425290Y217672D01*
Y215568D01*
X-424485Y213624D01*
X-422997Y212136D01*
X-421053Y211330D01*
X-418948D01*
X-417004Y212136D01*
X-415516Y213624D01*
X-414710Y215568D01*
Y217672D01*
X-415516Y219617D01*
X-417004Y221105D01*
X-418948Y221910D01*
D02*
G37*
G36*
X421052Y221910D02*
X418947D01*
X417003Y221105D01*
X415515Y219617D01*
X414710Y217672D01*
Y215568D01*
X415515Y213624D01*
X417003Y212136D01*
X418947Y211330D01*
X421052D01*
X422996Y212136D01*
X424484Y213624D01*
X425290Y215568D01*
Y217672D01*
X424484Y219617D01*
X422996Y221105D01*
X421052Y221910D01*
D02*
G37*
G36*
X-443448Y221790D02*
X-445552D01*
X-447496Y220985D01*
X-448985Y219497D01*
X-449790Y217552D01*
Y215448D01*
X-448985Y213503D01*
X-447496Y212015D01*
X-445552Y211210D01*
X-443448D01*
X-441503Y212015D01*
X-440015Y213503D01*
X-439210Y215448D01*
Y217552D01*
X-440015Y219497D01*
X-441503Y220985D01*
X-443448Y221790D01*
D02*
G37*
G36*
X-468448D02*
X-470552D01*
X-472496Y220985D01*
X-473985Y219497D01*
X-474790Y217552D01*
Y215448D01*
X-473985Y213503D01*
X-472496Y212015D01*
X-470552Y211210D01*
X-468448D01*
X-466503Y212015D01*
X-465015Y213503D01*
X-464210Y215448D01*
Y217552D01*
X-465015Y219497D01*
X-466503Y220985D01*
X-468448Y221790D01*
D02*
G37*
G36*
X-243948Y212490D02*
X-246052D01*
X-247997Y211685D01*
X-249485Y210196D01*
X-250290Y208252D01*
Y206148D01*
X-249485Y204203D01*
X-247997Y202715D01*
X-246052Y201910D01*
X-243948D01*
X-242003Y202715D01*
X-240515Y204203D01*
X-239710Y206148D01*
Y208252D01*
X-240515Y210196D01*
X-242003Y211685D01*
X-243948Y212490D01*
D02*
G37*
G36*
X-513948Y210290D02*
X-516052D01*
X-517997Y209485D01*
X-519485Y207997D01*
X-520290Y206052D01*
Y203948D01*
X-519485Y202003D01*
X-517997Y200515D01*
X-516052Y199710D01*
X-513948D01*
X-512004Y200515D01*
X-510515Y202003D01*
X-509710Y203948D01*
Y206052D01*
X-510515Y207997D01*
X-512004Y209485D01*
X-513948Y210290D01*
D02*
G37*
G36*
X486052Y210290D02*
X483948D01*
X482004Y209485D01*
X480515Y207997D01*
X479710Y206052D01*
Y203948D01*
X480515Y202003D01*
X482004Y200515D01*
X483948Y199710D01*
X486052D01*
X487997Y200515D01*
X489485Y202003D01*
X490290Y203948D01*
Y206052D01*
X489485Y207997D01*
X487997Y209485D01*
X486052Y210290D01*
D02*
G37*
G36*
X246052Y212490D02*
X243948D01*
X242003Y211685D01*
X240515Y210196D01*
X239710Y208252D01*
Y206148D01*
X240515Y204203D01*
X242003Y202715D01*
X243948Y201910D01*
X244710D01*
Y201448D01*
X245515Y199503D01*
X247003Y198015D01*
X248948Y197210D01*
X251052D01*
X252997Y198015D01*
X254485Y199503D01*
X255290Y201448D01*
Y203552D01*
X254485Y205497D01*
X252997Y206985D01*
X251052Y207790D01*
X250290D01*
Y208252D01*
X249485Y210196D01*
X247997Y211685D01*
X246052Y212490D01*
D02*
G37*
G36*
X77588Y217740D02*
X74812D01*
X72132Y217022D01*
X69728Y215634D01*
X67766Y213672D01*
X66378Y211268D01*
X65660Y208588D01*
Y205812D01*
X66378Y203132D01*
X67766Y200728D01*
X69728Y198766D01*
X72132Y197378D01*
X74812Y196660D01*
X77588D01*
X80268Y197378D01*
X82672Y198766D01*
X84634Y200728D01*
X86022Y203132D01*
X86740Y205812D01*
Y208588D01*
X86022Y211268D01*
X84634Y213672D01*
X82672Y215634D01*
X80268Y217022D01*
X77588Y217740D01*
D02*
G37*
G36*
X-483948Y200290D02*
X-486052D01*
X-487997Y199485D01*
X-489485Y197997D01*
X-490290Y196052D01*
Y193948D01*
X-489485Y192003D01*
X-487997Y190515D01*
X-486052Y189710D01*
X-483948D01*
X-482004Y190515D01*
X-480515Y192003D01*
X-479710Y193948D01*
Y196052D01*
X-480515Y197997D01*
X-482004Y199485D01*
X-483948Y200290D01*
D02*
G37*
G36*
X516052Y200290D02*
X513948D01*
X512004Y199485D01*
X510515Y197997D01*
X509710Y196052D01*
Y193948D01*
X510515Y192003D01*
X512004Y190515D01*
X513948Y189710D01*
X516052D01*
X517997Y190515D01*
X519485Y192003D01*
X520290Y193948D01*
Y196052D01*
X519485Y197997D01*
X517997Y199485D01*
X516052Y200290D01*
D02*
G37*
G36*
X77588Y192340D02*
X74812D01*
X72132Y191622D01*
X69728Y190234D01*
X67766Y188272D01*
X66378Y185868D01*
X65660Y183188D01*
Y180412D01*
X66378Y177732D01*
X67766Y175328D01*
X69728Y173366D01*
X72132Y171978D01*
X74812Y171260D01*
X77588D01*
X80268Y171978D01*
X82672Y173366D01*
X84634Y175328D01*
X86022Y177732D01*
X86740Y180412D01*
Y183188D01*
X86022Y185868D01*
X84634Y188272D01*
X82672Y190234D01*
X80268Y191622D01*
X77588Y192340D01*
D02*
G37*
G36*
X-74812D02*
X-77588D01*
X-80268Y191622D01*
X-82672Y190234D01*
X-84634Y188272D01*
X-86022Y185868D01*
X-86740Y183188D01*
Y180412D01*
X-86022Y177732D01*
X-84634Y175328D01*
X-82672Y173366D01*
X-80268Y171978D01*
X-77588Y171260D01*
X-74812D01*
X-72132Y171978D01*
X-69728Y173366D01*
X-67766Y175328D01*
X-66378Y177732D01*
X-65660Y180412D01*
Y183188D01*
X-66378Y185868D01*
X-67766Y188272D01*
X-69728Y190234D01*
X-72132Y191622D01*
X-74812Y192340D01*
D02*
G37*
G36*
X77588Y166940D02*
X74812D01*
X72132Y166222D01*
X69728Y164834D01*
X67766Y162872D01*
X66378Y160468D01*
X65660Y157788D01*
Y155012D01*
X66378Y152332D01*
X67766Y149928D01*
X69728Y147966D01*
X72132Y146578D01*
X74812Y145860D01*
X77588D01*
X80268Y146578D01*
X82672Y147966D01*
X84634Y149928D01*
X86022Y152332D01*
X86740Y155012D01*
Y157788D01*
X86022Y160468D01*
X84634Y162872D01*
X82672Y164834D01*
X80268Y166222D01*
X77588Y166940D01*
D02*
G37*
G36*
X-74812D02*
X-77588D01*
X-80268Y166222D01*
X-82672Y164834D01*
X-84634Y162872D01*
X-86022Y160468D01*
X-86740Y157788D01*
Y155012D01*
X-86022Y152332D01*
X-84634Y149928D01*
X-82672Y147966D01*
X-80268Y146578D01*
X-77588Y145860D01*
X-74812D01*
X-72132Y146578D01*
X-69728Y147966D01*
X-67766Y149928D01*
X-66378Y152332D01*
X-65660Y155012D01*
Y157788D01*
X-66378Y160468D01*
X-67766Y162872D01*
X-69728Y164834D01*
X-72132Y166222D01*
X-74812Y166940D01*
D02*
G37*
G36*
X-418948Y141910D02*
X-421053D01*
X-422997Y141105D01*
X-424485Y139617D01*
X-425290Y137672D01*
Y135568D01*
X-424485Y133624D01*
X-422997Y132135D01*
X-421053Y131330D01*
X-418948D01*
X-417004Y132135D01*
X-415516Y133624D01*
X-414710Y135568D01*
Y137672D01*
X-415516Y139617D01*
X-417004Y141105D01*
X-418948Y141910D01*
D02*
G37*
G36*
X421052Y141910D02*
X418947D01*
X417003Y141105D01*
X415515Y139617D01*
X414710Y137672D01*
Y135568D01*
X415515Y133624D01*
X417003Y132135D01*
X418947Y131330D01*
X421052D01*
X422996Y132135D01*
X424484Y133624D01*
X425290Y135568D01*
Y137672D01*
X424484Y139617D01*
X422996Y141105D01*
X421052Y141910D01*
D02*
G37*
G36*
X-443448Y141790D02*
X-445552D01*
X-447496Y140985D01*
X-448985Y139497D01*
X-449790Y137552D01*
Y135448D01*
X-448985Y133504D01*
X-447496Y132015D01*
X-445552Y131210D01*
X-443448D01*
X-441503Y132015D01*
X-440015Y133504D01*
X-439210Y135448D01*
Y137552D01*
X-440015Y139497D01*
X-441503Y140985D01*
X-443448Y141790D01*
D02*
G37*
G36*
X-468448D02*
X-470552D01*
X-472496Y140985D01*
X-473985Y139497D01*
X-474790Y137552D01*
Y135448D01*
X-473985Y133504D01*
X-472496Y132015D01*
X-470552Y131210D01*
X-468448D01*
X-466503Y132015D01*
X-465015Y133504D01*
X-464210Y135448D01*
Y137552D01*
X-465015Y139497D01*
X-466503Y140985D01*
X-468448Y141790D01*
D02*
G37*
G36*
X-23948Y139290D02*
X-26052D01*
X-27996Y138485D01*
X-29485Y136997D01*
X-30290Y135052D01*
Y132948D01*
X-29485Y131004D01*
X-27996Y129515D01*
X-26052Y128710D01*
X-23948D01*
X-22004Y129515D01*
X-20515Y131004D01*
X-19710Y132948D01*
Y135052D01*
X-20515Y136997D01*
X-22004Y138485D01*
X-23948Y139290D01*
D02*
G37*
G36*
X77588Y141540D02*
X74812D01*
X72132Y140822D01*
X69728Y139434D01*
X67766Y137472D01*
X66378Y135068D01*
X65660Y132388D01*
Y129612D01*
X66378Y126932D01*
X67766Y124528D01*
X69728Y122566D01*
X72132Y121178D01*
X74812Y120460D01*
X77588D01*
X80268Y121178D01*
X82672Y122566D01*
X84634Y124528D01*
X86022Y126932D01*
X86740Y129612D01*
Y132388D01*
X86022Y135068D01*
X84634Y137472D01*
X82672Y139434D01*
X80268Y140822D01*
X77588Y141540D01*
D02*
G37*
G36*
X-74812D02*
X-77588D01*
X-80268Y140822D01*
X-82672Y139434D01*
X-84634Y137472D01*
X-86022Y135068D01*
X-86740Y132388D01*
Y129612D01*
X-86022Y126932D01*
X-84634Y124528D01*
X-82672Y122566D01*
X-80268Y121178D01*
X-77588Y120460D01*
X-74812D01*
X-72132Y121178D01*
X-69728Y122566D01*
X-67766Y124528D01*
X-66378Y126932D01*
X-65660Y129612D01*
Y132388D01*
X-66378Y135068D01*
X-67766Y137472D01*
X-69728Y139434D01*
X-72132Y140822D01*
X-74812Y141540D01*
D02*
G37*
G36*
X486052Y130290D02*
X483948D01*
X482004Y129485D01*
X480515Y127997D01*
X479710Y126052D01*
Y123948D01*
X480515Y122003D01*
X482004Y120515D01*
X483948Y119710D01*
X486052D01*
X487997Y120515D01*
X489485Y122003D01*
X490290Y123948D01*
Y126052D01*
X489485Y127997D01*
X487997Y129485D01*
X486052Y130290D01*
D02*
G37*
G36*
X-513948D02*
X-516052D01*
X-517997Y129485D01*
X-519485Y127997D01*
X-520290Y126052D01*
Y123948D01*
X-519485Y122003D01*
X-517997Y120515D01*
X-516052Y119710D01*
X-513948D01*
X-512004Y120515D01*
X-510515Y122003D01*
X-509710Y123948D01*
Y126052D01*
X-510515Y127997D01*
X-512004Y129485D01*
X-513948Y130290D01*
D02*
G37*
G36*
X516052Y120290D02*
X513948D01*
X512004Y119485D01*
X510515Y117997D01*
X509710Y116052D01*
Y113948D01*
X510515Y112003D01*
X512004Y110515D01*
X513948Y109710D01*
X516052D01*
X517997Y110515D01*
X519485Y112003D01*
X520290Y113948D01*
Y116052D01*
X519485Y117997D01*
X517997Y119485D01*
X516052Y120290D01*
D02*
G37*
G36*
X-483948D02*
X-486052D01*
X-487997Y119485D01*
X-489485Y117997D01*
X-490290Y116052D01*
Y113948D01*
X-489485Y112003D01*
X-487997Y110515D01*
X-486052Y109710D01*
X-483948D01*
X-482004Y110515D01*
X-480515Y112003D01*
X-479710Y113948D01*
Y116052D01*
X-480515Y117997D01*
X-482004Y119485D01*
X-483948Y120290D01*
D02*
G37*
G36*
X-74812Y116140D02*
X-74930D01*
Y106870D01*
X-65660D01*
Y106988D01*
X-66378Y109668D01*
X-67766Y112072D01*
X-69728Y114034D01*
X-72132Y115422D01*
X-74812Y116140D01*
D02*
G37*
G36*
X-77470D02*
X-77588D01*
X-80268Y115422D01*
X-82672Y114034D01*
X-84634Y112072D01*
X-86022Y109668D01*
X-86740Y106988D01*
Y106870D01*
X-77470D01*
Y116140D01*
D02*
G37*
G36*
X14560Y104182D02*
X10840D01*
X7192Y103456D01*
X3756Y102033D01*
X663Y99967D01*
X0Y99303D01*
X-663Y99967D01*
X-3756Y102033D01*
X-7192Y103456D01*
X-10840Y104182D01*
X-14560D01*
X-18208Y103456D01*
X-21644Y102033D01*
X-24737Y99967D01*
X-27367Y97337D01*
X-29433Y94244D01*
X-30856Y90808D01*
X-31582Y87160D01*
Y83440D01*
X-30856Y79792D01*
X-29433Y76356D01*
X-27367Y73263D01*
X-24737Y70633D01*
X-21644Y68567D01*
X-18208Y67144D01*
X-14560Y66418D01*
X-10840D01*
X-7192Y67144D01*
X-3756Y68567D01*
X-663Y70633D01*
X0Y71297D01*
X663Y70633D01*
X3756Y68567D01*
X7192Y67144D01*
X10840Y66418D01*
X14560D01*
X18208Y67144D01*
X21644Y68567D01*
X24737Y70633D01*
X27367Y73263D01*
X29433Y76356D01*
X30856Y79792D01*
X31582Y83440D01*
Y87160D01*
X30856Y90808D01*
X29433Y94244D01*
X27367Y97337D01*
X24737Y99967D01*
X21644Y102033D01*
X18208Y103456D01*
X14560Y104182D01*
D02*
G37*
G36*
X77588Y116140D02*
X74812D01*
X72132Y115422D01*
X69728Y114034D01*
X67766Y112072D01*
X66378Y109668D01*
X65660Y106988D01*
Y104212D01*
X66378Y101532D01*
X67766Y99128D01*
X69728Y97166D01*
X72132Y95778D01*
X74812Y95060D01*
X77588D01*
X80268Y95778D01*
X82672Y97166D01*
X84634Y99128D01*
X86022Y101532D01*
X86740Y104212D01*
Y106988D01*
X86022Y109668D01*
X84634Y112072D01*
X82672Y114034D01*
X80268Y115422D01*
X77588Y116140D01*
D02*
G37*
G36*
X-49412D02*
X-52188D01*
X-54868Y115422D01*
X-57272Y114034D01*
X-59234Y112072D01*
X-60622Y109668D01*
X-61340Y106988D01*
Y104212D01*
X-60622Y101532D01*
X-59234Y99128D01*
X-57272Y97166D01*
X-54868Y95778D01*
X-52188Y95060D01*
X-49412D01*
X-46732Y95778D01*
X-44328Y97166D01*
X-42366Y99128D01*
X-40978Y101532D01*
X-40260Y104212D01*
Y106988D01*
X-40978Y109668D01*
X-42366Y112072D01*
X-44328Y114034D01*
X-46732Y115422D01*
X-49412Y116140D01*
D02*
G37*
G36*
X-65660Y104330D02*
X-74930D01*
Y95060D01*
X-74812D01*
X-72132Y95778D01*
X-69728Y97166D01*
X-67766Y99128D01*
X-66378Y101532D01*
X-65660Y104212D01*
Y104330D01*
D02*
G37*
G36*
X-77470D02*
X-86740D01*
Y104212D01*
X-86022Y101532D01*
X-84634Y99128D01*
X-82672Y97166D01*
X-80268Y95778D01*
X-77588Y95060D01*
X-77470D01*
Y104330D01*
D02*
G37*
G36*
X134702Y94290D02*
X132598D01*
X130654Y93484D01*
X129165Y91996D01*
X128360Y90052D01*
Y87948D01*
X129165Y86003D01*
X130654Y84515D01*
X132598Y83710D01*
X134702D01*
X136647Y84515D01*
X138135Y86003D01*
X138940Y87948D01*
Y90052D01*
X138135Y91996D01*
X136647Y93484D01*
X134702Y94290D01*
D02*
G37*
G36*
X86740Y90740D02*
X77470D01*
Y81470D01*
X86740D01*
Y90740D01*
D02*
G37*
G36*
X74930D02*
X65660D01*
Y81470D01*
X74930D01*
Y90740D01*
D02*
G37*
G36*
X86740Y78930D02*
X77470D01*
Y69660D01*
X86740D01*
Y78930D01*
D02*
G37*
G36*
X74930D02*
X65660D01*
Y69660D01*
X74930D01*
Y78930D01*
D02*
G37*
G36*
X-74812Y90740D02*
X-77588D01*
X-80268Y90022D01*
X-82672Y88634D01*
X-84634Y86672D01*
X-86022Y84268D01*
X-86740Y81588D01*
Y78812D01*
X-86022Y76132D01*
X-84634Y73728D01*
X-82672Y71766D01*
X-80268Y70378D01*
X-77588Y69660D01*
X-74812D01*
X-72132Y70378D01*
X-69728Y71766D01*
X-67766Y73728D01*
X-66378Y76132D01*
X-65660Y78812D01*
Y81588D01*
X-66378Y84268D01*
X-67766Y86672D01*
X-69728Y88634D01*
X-72132Y90022D01*
X-74812Y90740D01*
D02*
G37*
G36*
X-418948Y61910D02*
X-421053D01*
X-422997Y61105D01*
X-424485Y59617D01*
X-425290Y57672D01*
Y55568D01*
X-424485Y53624D01*
X-422997Y52136D01*
X-421053Y51330D01*
X-418948D01*
X-417004Y52136D01*
X-415516Y53624D01*
X-414710Y55568D01*
Y57672D01*
X-415516Y59617D01*
X-417004Y61105D01*
X-418948Y61910D01*
D02*
G37*
G36*
X421052Y61910D02*
X418947D01*
X417003Y61105D01*
X415515Y59617D01*
X414710Y57672D01*
Y55568D01*
X415515Y53624D01*
X417003Y52136D01*
X418947Y51330D01*
X421052D01*
X422996Y52136D01*
X424484Y53624D01*
X425290Y55568D01*
Y57672D01*
X424484Y59617D01*
X422996Y61105D01*
X421052Y61910D01*
D02*
G37*
G36*
X-443448Y61790D02*
X-445552D01*
X-447496Y60985D01*
X-448985Y59497D01*
X-449790Y57552D01*
Y55448D01*
X-448985Y53503D01*
X-447496Y52015D01*
X-445552Y51210D01*
X-443448D01*
X-441503Y52015D01*
X-440015Y53503D01*
X-439210Y55448D01*
Y57552D01*
X-440015Y59497D01*
X-441503Y60985D01*
X-443448Y61790D01*
D02*
G37*
G36*
X-468448D02*
X-470552D01*
X-472496Y60985D01*
X-473985Y59497D01*
X-474790Y57552D01*
Y55448D01*
X-473985Y53503D01*
X-472496Y52015D01*
X-470552Y51210D01*
X-468448D01*
X-466503Y52015D01*
X-465015Y53503D01*
X-464210Y55448D01*
Y57552D01*
X-465015Y59497D01*
X-466503Y60985D01*
X-468448Y61790D01*
D02*
G37*
G36*
X176052Y58290D02*
X173948D01*
X172003Y57485D01*
X170515Y55997D01*
X169710Y54052D01*
Y51948D01*
X170515Y50003D01*
X172003Y48515D01*
X173948Y47710D01*
X176052D01*
X177997Y48515D01*
X179485Y50003D01*
X180290Y51948D01*
Y54052D01*
X179485Y55997D01*
X177997Y57485D01*
X176052Y58290D01*
D02*
G37*
G36*
X-513948Y50290D02*
X-516052D01*
X-517997Y49485D01*
X-519485Y47997D01*
X-520290Y46052D01*
Y43948D01*
X-519485Y42003D01*
X-517997Y40515D01*
X-516052Y39710D01*
X-513948D01*
X-512004Y40515D01*
X-510515Y42003D01*
X-509710Y43948D01*
Y46052D01*
X-510515Y47997D01*
X-512004Y49485D01*
X-513948Y50290D01*
D02*
G37*
G36*
X516052Y40290D02*
X513948D01*
X512004Y39485D01*
X510515Y37996D01*
X509710Y36052D01*
Y33948D01*
X510515Y32004D01*
X512004Y30515D01*
X513948Y29710D01*
X516052D01*
X517997Y30515D01*
X519485Y32004D01*
X520290Y33948D01*
Y36052D01*
X519485Y37996D01*
X517997Y39485D01*
X516052Y40290D01*
D02*
G37*
G36*
X-36448Y35290D02*
X-38552D01*
X-40497Y34485D01*
X-41985Y32996D01*
X-42790Y31052D01*
Y28948D01*
X-41985Y27003D01*
X-40497Y25515D01*
X-38552Y24710D01*
X-37790D01*
Y23948D01*
X-36985Y22003D01*
X-35497Y20515D01*
X-33552Y19710D01*
X-31448D01*
X-29504Y20515D01*
X-28015Y22003D01*
X-27210Y23948D01*
Y26052D01*
X-28015Y27996D01*
X-29504Y29485D01*
X-31448Y30290D01*
X-32210D01*
Y31052D01*
X-33015Y32996D01*
X-34504Y34485D01*
X-36448Y35290D01*
D02*
G37*
G36*
X421052Y-18090D02*
X418947D01*
X417003Y-18895D01*
X415515Y-20383D01*
X414710Y-22328D01*
Y-24432D01*
X415515Y-26376D01*
X417003Y-27864D01*
X418947Y-28670D01*
X421052D01*
X422996Y-27864D01*
X424484Y-26376D01*
X425290Y-24432D01*
Y-22328D01*
X424484Y-20383D01*
X422996Y-18895D01*
X421052Y-18090D01*
D02*
G37*
G36*
X-418948D02*
X-421053D01*
X-422997Y-18895D01*
X-424485Y-20383D01*
X-425290Y-22328D01*
Y-24432D01*
X-424485Y-26376D01*
X-422997Y-27864D01*
X-421053Y-28670D01*
X-418948D01*
X-417004Y-27864D01*
X-415516Y-26376D01*
X-414710Y-24432D01*
Y-22328D01*
X-415516Y-20383D01*
X-417004Y-18895D01*
X-418948Y-18090D01*
D02*
G37*
G36*
X-443448Y-18210D02*
X-445552D01*
X-447496Y-19015D01*
X-448985Y-20503D01*
X-449790Y-22448D01*
Y-24552D01*
X-448985Y-26497D01*
X-447496Y-27985D01*
X-445552Y-28790D01*
X-443448D01*
X-441503Y-27985D01*
X-440015Y-26497D01*
X-439210Y-24552D01*
Y-22448D01*
X-440015Y-20503D01*
X-441503Y-19015D01*
X-443448Y-18210D01*
D02*
G37*
G36*
X-468448D02*
X-470552D01*
X-472496Y-19015D01*
X-473985Y-20503D01*
X-474790Y-22448D01*
Y-24552D01*
X-473985Y-26497D01*
X-472496Y-27985D01*
X-470552Y-28790D01*
X-468448D01*
X-466503Y-27985D01*
X-465015Y-26497D01*
X-464210Y-24552D01*
Y-22448D01*
X-465015Y-20503D01*
X-466503Y-19015D01*
X-468448Y-18210D01*
D02*
G37*
G36*
X-513948Y-29710D02*
X-516052D01*
X-517997Y-30515D01*
X-519485Y-32003D01*
X-520290Y-33948D01*
Y-36052D01*
X-519485Y-37996D01*
X-517997Y-39485D01*
X-516052Y-40290D01*
X-513948D01*
X-512004Y-39485D01*
X-510515Y-37996D01*
X-509710Y-36052D01*
Y-33948D01*
X-510515Y-32003D01*
X-512004Y-30515D01*
X-513948Y-29710D01*
D02*
G37*
G36*
X516052Y-39710D02*
X513948D01*
X512004Y-40515D01*
X510515Y-42003D01*
X509710Y-43948D01*
Y-46052D01*
X510515Y-47997D01*
X512004Y-49485D01*
X513948Y-50290D01*
X516052D01*
X517997Y-49485D01*
X519485Y-47997D01*
X520290Y-46052D01*
Y-43948D01*
X519485Y-42003D01*
X517997Y-40515D01*
X516052Y-39710D01*
D02*
G37*
G36*
X126052Y-54710D02*
X123948D01*
X122003Y-55515D01*
X120515Y-57003D01*
X119710Y-58948D01*
Y-61052D01*
X120515Y-62997D01*
X122003Y-64485D01*
X123948Y-65290D01*
X126052D01*
X127997Y-64485D01*
X129485Y-62997D01*
X130290Y-61052D01*
Y-58948D01*
X129485Y-57003D01*
X127997Y-55515D01*
X126052Y-54710D01*
D02*
G37*
G36*
X421052Y-98090D02*
X418947D01*
X417003Y-98895D01*
X415515Y-100383D01*
X414710Y-102328D01*
Y-104432D01*
X415515Y-106376D01*
X417003Y-107865D01*
X418947Y-108670D01*
X421052D01*
X422996Y-107865D01*
X424484Y-106376D01*
X425290Y-104432D01*
Y-102328D01*
X424484Y-100383D01*
X422996Y-98895D01*
X421052Y-98090D01*
D02*
G37*
G36*
X-418948D02*
X-421053D01*
X-422997Y-98895D01*
X-424485Y-100383D01*
X-425290Y-102328D01*
Y-104432D01*
X-424485Y-106376D01*
X-422997Y-107865D01*
X-421053Y-108670D01*
X-418948D01*
X-417004Y-107865D01*
X-415516Y-106376D01*
X-414710Y-104432D01*
Y-102328D01*
X-415516Y-100383D01*
X-417004Y-98895D01*
X-418948Y-98090D01*
D02*
G37*
G36*
X-443448Y-98210D02*
X-445552D01*
X-447496Y-99015D01*
X-448985Y-100503D01*
X-449790Y-102448D01*
Y-104552D01*
X-448985Y-106496D01*
X-447496Y-107985D01*
X-445552Y-108790D01*
X-443448D01*
X-441503Y-107985D01*
X-440015Y-106496D01*
X-439210Y-104552D01*
Y-102448D01*
X-440015Y-100503D01*
X-441503Y-99015D01*
X-443448Y-98210D01*
D02*
G37*
G36*
X-468448D02*
X-470552D01*
X-472496Y-99015D01*
X-473985Y-100503D01*
X-474790Y-102448D01*
Y-104552D01*
X-473985Y-106496D01*
X-472496Y-107985D01*
X-470552Y-108790D01*
X-468448D01*
X-466503Y-107985D01*
X-465015Y-106496D01*
X-464210Y-104552D01*
Y-102448D01*
X-465015Y-100503D01*
X-466503Y-99015D01*
X-468448Y-98210D01*
D02*
G37*
G36*
X-513948Y-109710D02*
X-516052D01*
X-517997Y-110515D01*
X-519485Y-112003D01*
X-520290Y-113948D01*
Y-116052D01*
X-519485Y-117997D01*
X-517997Y-119485D01*
X-516052Y-120290D01*
X-513948D01*
X-512004Y-119485D01*
X-510515Y-117997D01*
X-509710Y-116052D01*
Y-113948D01*
X-510515Y-112003D01*
X-512004Y-110515D01*
X-513948Y-109710D01*
D02*
G37*
G36*
X486052Y-109710D02*
X483948D01*
X482004Y-110515D01*
X480515Y-112003D01*
X479710Y-113948D01*
Y-116052D01*
X480515Y-117997D01*
X482004Y-119485D01*
X483948Y-120290D01*
X486052D01*
X487997Y-119485D01*
X489485Y-117997D01*
X490290Y-116052D01*
Y-113948D01*
X489485Y-112003D01*
X487997Y-110515D01*
X486052Y-109710D01*
D02*
G37*
G36*
X266052Y-107210D02*
X263948D01*
X262003Y-108015D01*
X260515Y-109503D01*
X259710Y-111448D01*
Y-113552D01*
X260515Y-115497D01*
X262003Y-116985D01*
X263948Y-117790D01*
X264710D01*
Y-118552D01*
X265515Y-120497D01*
X267003Y-121985D01*
X268948Y-122790D01*
X271052D01*
X272997Y-121985D01*
X274485Y-120497D01*
X275290Y-118552D01*
Y-116448D01*
X274485Y-114503D01*
X272997Y-113015D01*
X271052Y-112210D01*
X270290D01*
Y-111448D01*
X269485Y-109503D01*
X267997Y-108015D01*
X266052Y-107210D01*
D02*
G37*
G36*
X-263948D02*
X-266052D01*
X-267997Y-108015D01*
X-269485Y-109503D01*
X-270290Y-111448D01*
Y-112210D01*
X-271052D01*
X-272997Y-113015D01*
X-274485Y-114503D01*
X-275290Y-116448D01*
Y-118552D01*
X-274485Y-120497D01*
X-272997Y-121985D01*
X-271052Y-122790D01*
X-268948D01*
X-267003Y-121985D01*
X-265515Y-120497D01*
X-264710Y-118552D01*
Y-117790D01*
X-263948D01*
X-262003Y-116985D01*
X-260515Y-115497D01*
X-259710Y-113552D01*
Y-111448D01*
X-260515Y-109503D01*
X-262003Y-108015D01*
X-263948Y-107210D01*
D02*
G37*
G36*
X-483948Y-119710D02*
X-486052D01*
X-487997Y-120515D01*
X-489485Y-122003D01*
X-490290Y-123948D01*
Y-126052D01*
X-489485Y-127997D01*
X-487997Y-129485D01*
X-486052Y-130290D01*
X-483948D01*
X-482004Y-129485D01*
X-480515Y-127997D01*
X-479710Y-126052D01*
Y-123948D01*
X-480515Y-122003D01*
X-482004Y-120515D01*
X-483948Y-119710D01*
D02*
G37*
G36*
X516052Y-119710D02*
X513948D01*
X512004Y-120515D01*
X510515Y-122003D01*
X509710Y-123948D01*
Y-126052D01*
X510515Y-127997D01*
X512004Y-129485D01*
X513948Y-130290D01*
X516052D01*
X517997Y-129485D01*
X519485Y-127997D01*
X520290Y-126052D01*
Y-123948D01*
X519485Y-122003D01*
X517997Y-120515D01*
X516052Y-119710D01*
D02*
G37*
G36*
X-418948Y-178090D02*
X-421053D01*
X-422997Y-178895D01*
X-424485Y-180383D01*
X-425290Y-182328D01*
Y-184432D01*
X-424485Y-186376D01*
X-422997Y-187864D01*
X-421053Y-188670D01*
X-418948D01*
X-417004Y-187864D01*
X-415516Y-186376D01*
X-414710Y-184432D01*
Y-182328D01*
X-415516Y-180383D01*
X-417004Y-178895D01*
X-418948Y-178090D01*
D02*
G37*
G36*
X421052Y-178090D02*
X418947D01*
X417003Y-178895D01*
X415515Y-180383D01*
X414710Y-182328D01*
Y-184432D01*
X415515Y-186376D01*
X417003Y-187864D01*
X418947Y-188670D01*
X421052D01*
X422996Y-187864D01*
X424484Y-186376D01*
X425290Y-184432D01*
Y-182328D01*
X424484Y-180383D01*
X422996Y-178895D01*
X421052Y-178090D01*
D02*
G37*
G36*
X-443448Y-178210D02*
X-445552D01*
X-447496Y-179015D01*
X-448985Y-180503D01*
X-449790Y-182448D01*
Y-184552D01*
X-448985Y-186497D01*
X-447496Y-187985D01*
X-445552Y-188790D01*
X-443448D01*
X-441503Y-187985D01*
X-440015Y-186497D01*
X-439210Y-184552D01*
Y-182448D01*
X-440015Y-180503D01*
X-441503Y-179015D01*
X-443448Y-178210D01*
D02*
G37*
G36*
X-468448D02*
X-470552D01*
X-472496Y-179015D01*
X-473985Y-180503D01*
X-474790Y-182448D01*
Y-184552D01*
X-473985Y-186497D01*
X-472496Y-187985D01*
X-470552Y-188790D01*
X-468448D01*
X-466503Y-187985D01*
X-465015Y-186497D01*
X-464210Y-184552D01*
Y-182448D01*
X-465015Y-180503D01*
X-466503Y-179015D01*
X-468448Y-178210D01*
D02*
G37*
G36*
X486052Y-189710D02*
X483948D01*
X482004Y-190515D01*
X480515Y-192003D01*
X479710Y-193948D01*
Y-196052D01*
X480515Y-197997D01*
X482004Y-199485D01*
X483948Y-200290D01*
X486052D01*
X487997Y-199485D01*
X489485Y-197997D01*
X490290Y-196052D01*
Y-193948D01*
X489485Y-192003D01*
X487997Y-190515D01*
X486052Y-189710D01*
D02*
G37*
G36*
X-513948D02*
X-516052D01*
X-517997Y-190515D01*
X-519485Y-192003D01*
X-520290Y-193948D01*
Y-196052D01*
X-519485Y-197997D01*
X-517997Y-199485D01*
X-516052Y-200290D01*
X-513948D01*
X-512004Y-199485D01*
X-510515Y-197997D01*
X-509710Y-196052D01*
Y-193948D01*
X-510515Y-192003D01*
X-512004Y-190515D01*
X-513948Y-189710D01*
D02*
G37*
G36*
X516052Y-199710D02*
X513948D01*
X512004Y-200515D01*
X510515Y-202003D01*
X509710Y-203948D01*
Y-206052D01*
X510515Y-207997D01*
X512004Y-209485D01*
X513948Y-210290D01*
X516052D01*
X517997Y-209485D01*
X519485Y-207997D01*
X520290Y-206052D01*
Y-203948D01*
X519485Y-202003D01*
X517997Y-200515D01*
X516052Y-199710D01*
D02*
G37*
G36*
X-483948D02*
X-486052D01*
X-487997Y-200515D01*
X-489485Y-202003D01*
X-490290Y-203948D01*
Y-206052D01*
X-489485Y-207997D01*
X-487997Y-209485D01*
X-486052Y-210290D01*
X-483948D01*
X-482004Y-209485D01*
X-480515Y-207997D01*
X-479710Y-206052D01*
Y-203948D01*
X-480515Y-202003D01*
X-482004Y-200515D01*
X-483948Y-199710D01*
D02*
G37*
G36*
X-278948Y-207210D02*
X-281052D01*
X-282997Y-208015D01*
X-284485Y-209503D01*
X-285290Y-211448D01*
Y-213552D01*
X-284485Y-215497D01*
X-282997Y-216985D01*
X-281052Y-217790D01*
X-278948D01*
X-277003Y-216985D01*
X-275515Y-215497D01*
X-274710Y-213552D01*
Y-211448D01*
X-275515Y-209503D01*
X-277003Y-208015D01*
X-278948Y-207210D01*
D02*
G37*
G36*
X377500Y-219965D02*
X372500D01*
X369618Y-220344D01*
X366932Y-221457D01*
X364626Y-223226D01*
X362857Y-225532D01*
X361744Y-228218D01*
X361365Y-231100D01*
X361744Y-233982D01*
X362857Y-236668D01*
X364626Y-238974D01*
X366932Y-240743D01*
X369618Y-241856D01*
X372500Y-242235D01*
X377500D01*
X380382Y-241856D01*
X383068Y-240743D01*
X385374Y-238974D01*
X387143Y-236668D01*
X388256Y-233982D01*
X388635Y-231100D01*
X388256Y-228218D01*
X387143Y-225532D01*
X385374Y-223226D01*
X383068Y-221457D01*
X380382Y-220344D01*
X377500Y-219965D01*
D02*
G37*
G36*
X-372500D02*
X-377500D01*
X-380382Y-220344D01*
X-383068Y-221457D01*
X-385374Y-223226D01*
X-387143Y-225532D01*
X-388256Y-228218D01*
X-388635Y-231100D01*
X-388256Y-233982D01*
X-387143Y-236668D01*
X-385374Y-238974D01*
X-383068Y-240743D01*
X-380382Y-241856D01*
X-377500Y-242235D01*
X-372500D01*
X-369618Y-241856D01*
X-366932Y-240743D01*
X-364626Y-238974D01*
X-362857Y-236668D01*
X-361744Y-233982D01*
X-361365Y-231100D01*
X-361744Y-228218D01*
X-362857Y-225532D01*
X-364626Y-223226D01*
X-366932Y-221457D01*
X-369618Y-220344D01*
X-372500Y-219965D01*
D02*
G37*
G36*
X471052Y-234710D02*
X468948D01*
X467004Y-235515D01*
X465515Y-237003D01*
X464710Y-238948D01*
Y-241052D01*
X465515Y-242997D01*
X466269Y-243750D01*
X465515Y-244503D01*
X464710Y-246448D01*
Y-248552D01*
X465515Y-250497D01*
X467004Y-251985D01*
X468948Y-252790D01*
X471052D01*
X472996Y-251985D01*
X474485Y-250497D01*
X475290Y-248552D01*
Y-246448D01*
X474485Y-244503D01*
X473731Y-243750D01*
X474485Y-242997D01*
X475290Y-241052D01*
Y-238948D01*
X474485Y-237003D01*
X472996Y-235515D01*
X471052Y-234710D01*
D02*
G37*
G36*
X168052Y-249710D02*
X165947D01*
X164003Y-250515D01*
X162515Y-252003D01*
X161710Y-253948D01*
Y-256052D01*
X162515Y-257996D01*
X164003Y-259484D01*
X165947Y-260290D01*
X168052D01*
X169996Y-259484D01*
X171484Y-257996D01*
X172290Y-256052D01*
Y-253948D01*
X171484Y-252003D01*
X169996Y-250515D01*
X168052Y-249710D01*
D02*
G37*
G36*
X-8948Y-249710D02*
X-11052D01*
X-12996Y-250515D01*
X-14485Y-252003D01*
X-15290Y-253948D01*
Y-256052D01*
X-14485Y-257997D01*
X-12996Y-259485D01*
X-11052Y-260290D01*
X-8948D01*
X-7003Y-259485D01*
X-5515Y-257997D01*
X-4710Y-256052D01*
Y-253948D01*
X-5515Y-252003D01*
X-7003Y-250515D01*
X-8948Y-249710D01*
D02*
G37*
G36*
X18552Y-244710D02*
X16448D01*
X14504Y-245515D01*
X13015Y-247003D01*
X12210Y-248948D01*
Y-251052D01*
X13015Y-252997D01*
X14019Y-254000D01*
X13015Y-255004D01*
X12210Y-256948D01*
Y-259052D01*
X13015Y-260996D01*
X14504Y-262485D01*
X16448Y-263290D01*
X18552D01*
X20496Y-262485D01*
X21363Y-261618D01*
X22293Y-262549D01*
X24238Y-263354D01*
X26342D01*
X28286Y-262549D01*
X29774Y-261061D01*
X30580Y-259116D01*
Y-257012D01*
X29774Y-255067D01*
X28286Y-253579D01*
X26342Y-252774D01*
X24238D01*
X23289Y-253167D01*
X22317Y-252195D01*
X22790Y-251052D01*
Y-248948D01*
X21985Y-247003D01*
X20496Y-245515D01*
X18552Y-244710D01*
D02*
G37*
G36*
X377500Y-245365D02*
X372500D01*
X369618Y-245744D01*
X366932Y-246857D01*
X364626Y-248626D01*
X362857Y-250932D01*
X361744Y-253618D01*
X361365Y-256500D01*
X361744Y-259382D01*
X362857Y-262068D01*
X364626Y-264374D01*
X366932Y-266143D01*
X369618Y-267256D01*
X372500Y-267635D01*
X377500D01*
X380382Y-267256D01*
X383068Y-266143D01*
X385374Y-264374D01*
X387143Y-262068D01*
X388256Y-259382D01*
X388635Y-256500D01*
X388256Y-253618D01*
X387143Y-250932D01*
X385374Y-248626D01*
X383068Y-246857D01*
X380382Y-245744D01*
X377500Y-245365D01*
D02*
G37*
G36*
X-372500D02*
X-377500D01*
X-380382Y-245744D01*
X-383068Y-246857D01*
X-385374Y-248626D01*
X-387143Y-250932D01*
X-388256Y-253618D01*
X-388635Y-256500D01*
X-388256Y-259382D01*
X-387143Y-262068D01*
X-385374Y-264374D01*
X-383068Y-266143D01*
X-380382Y-267256D01*
X-377500Y-267635D01*
X-372500D01*
X-369618Y-267256D01*
X-366932Y-266143D01*
X-364626Y-264374D01*
X-362857Y-262068D01*
X-361744Y-259382D01*
X-361365Y-256500D01*
X-361744Y-253618D01*
X-362857Y-250932D01*
X-364626Y-248626D01*
X-366932Y-246857D01*
X-369618Y-245744D01*
X-372500Y-245365D01*
D02*
G37*
G36*
X-418948Y-258090D02*
X-421053D01*
X-422997Y-258895D01*
X-424485Y-260383D01*
X-425290Y-262328D01*
Y-264432D01*
X-424485Y-266376D01*
X-422997Y-267864D01*
X-421053Y-268670D01*
X-418948D01*
X-417004Y-267864D01*
X-415516Y-266376D01*
X-414710Y-264432D01*
Y-262328D01*
X-415516Y-260383D01*
X-417004Y-258895D01*
X-418948Y-258090D01*
D02*
G37*
G36*
X421052Y-258090D02*
X418947D01*
X417003Y-258895D01*
X415515Y-260383D01*
X414710Y-262328D01*
Y-264432D01*
X415515Y-266376D01*
X417003Y-267864D01*
X418947Y-268670D01*
X421052D01*
X422996Y-267864D01*
X424484Y-266376D01*
X425290Y-264432D01*
Y-262328D01*
X424484Y-260383D01*
X422996Y-258895D01*
X421052Y-258090D01*
D02*
G37*
G36*
X-443448Y-258210D02*
X-445552D01*
X-447496Y-259015D01*
X-448985Y-260503D01*
X-449790Y-262448D01*
Y-264552D01*
X-448985Y-266497D01*
X-447496Y-267985D01*
X-445552Y-268790D01*
X-443448D01*
X-441503Y-267985D01*
X-440015Y-266497D01*
X-439210Y-264552D01*
Y-262448D01*
X-440015Y-260503D01*
X-441503Y-259015D01*
X-443448Y-258210D01*
D02*
G37*
G36*
X-468448D02*
X-470552D01*
X-472496Y-259015D01*
X-473985Y-260503D01*
X-474790Y-262448D01*
Y-264552D01*
X-473985Y-266497D01*
X-472496Y-267985D01*
X-470552Y-268790D01*
X-468448D01*
X-466503Y-267985D01*
X-465015Y-266497D01*
X-464210Y-264552D01*
Y-262448D01*
X-465015Y-260503D01*
X-466503Y-259015D01*
X-468448Y-258210D01*
D02*
G37*
G36*
X286596Y-262210D02*
X284492D01*
X282547Y-263015D01*
X281059Y-264503D01*
X280254Y-266448D01*
Y-268552D01*
X281059Y-270497D01*
X282547Y-271985D01*
X284492Y-272790D01*
X286596D01*
X288540Y-271985D01*
X290029Y-270497D01*
X290834Y-268552D01*
Y-266448D01*
X290029Y-264503D01*
X288540Y-263015D01*
X286596Y-262210D01*
D02*
G37*
G36*
X13552Y-268210D02*
X11448D01*
X9503Y-269015D01*
X8015Y-270504D01*
X7210Y-272448D01*
Y-274552D01*
X7662Y-275644D01*
X7833Y-276055D01*
X6756Y-276775D01*
X6425Y-276444D01*
X5497Y-275515D01*
X3552Y-274710D01*
X2895D01*
X2790Y-274552D01*
Y-272448D01*
X1985Y-270504D01*
X496Y-269015D01*
X-1448Y-268210D01*
X-3552D01*
X-5497Y-269015D01*
X-6985Y-270504D01*
X-7790Y-272448D01*
Y-274552D01*
X-6985Y-276497D01*
X-5497Y-277985D01*
X-3552Y-278790D01*
X-2895D01*
X-2790Y-278948D01*
Y-281052D01*
X-1985Y-282997D01*
X-496Y-284485D01*
X1448Y-285290D01*
X3552D01*
X5497Y-284485D01*
X6985Y-282997D01*
X7790Y-281052D01*
Y-278948D01*
X7338Y-277855D01*
X7167Y-277445D01*
X8244Y-276725D01*
X8575Y-277056D01*
X9503Y-277985D01*
X11448Y-278790D01*
X12105D01*
X12210Y-278948D01*
Y-281052D01*
X13015Y-282997D01*
X14504Y-284485D01*
X16448Y-285290D01*
X18552D01*
X20496Y-284485D01*
X21985Y-282997D01*
X22790Y-281052D01*
Y-278948D01*
X21985Y-277003D01*
X20496Y-275515D01*
X18552Y-274710D01*
X17895D01*
X17790Y-274552D01*
Y-272448D01*
X16985Y-270504D01*
X15496Y-269015D01*
X13552Y-268210D01*
D02*
G37*
G36*
X-513948Y-269710D02*
X-516052D01*
X-517997Y-270515D01*
X-519485Y-272003D01*
X-520290Y-273948D01*
Y-276052D01*
X-519485Y-277997D01*
X-517997Y-279485D01*
X-516052Y-280290D01*
X-513948D01*
X-512004Y-279485D01*
X-510515Y-277997D01*
X-509710Y-276052D01*
Y-273948D01*
X-510515Y-272003D01*
X-512004Y-270515D01*
X-513948Y-269710D01*
D02*
G37*
G36*
X-288948Y-272210D02*
X-291052D01*
X-292997Y-273015D01*
X-294485Y-274503D01*
X-295290Y-276448D01*
Y-278552D01*
X-294485Y-280496D01*
X-292997Y-281984D01*
X-291052Y-282790D01*
X-288948D01*
X-287003Y-281984D01*
X-285515Y-280496D01*
X-284710Y-278552D01*
Y-276448D01*
X-285515Y-274503D01*
X-287003Y-273015D01*
X-288948Y-272210D01*
D02*
G37*
G36*
X516052Y-279710D02*
X513948D01*
X512004Y-280515D01*
X510515Y-282003D01*
X509710Y-283948D01*
Y-286052D01*
X510515Y-287997D01*
X512004Y-289485D01*
X513948Y-290290D01*
X516052D01*
X517997Y-289485D01*
X519485Y-287997D01*
X520290Y-286052D01*
Y-283948D01*
X519485Y-282003D01*
X517997Y-280515D01*
X516052Y-279710D01*
D02*
G37*
G36*
X324052Y-288710D02*
X321948D01*
X320003Y-289515D01*
X319000Y-290519D01*
X317997Y-289515D01*
X316052Y-288710D01*
X313948D01*
X312003Y-289515D01*
X310515Y-291003D01*
X309710Y-292948D01*
Y-295052D01*
X310515Y-296996D01*
X312003Y-298485D01*
X313948Y-299290D01*
X316052D01*
X317997Y-298485D01*
X319000Y-297481D01*
X320003Y-298485D01*
X321948Y-299290D01*
X324052D01*
X325997Y-298485D01*
X327485Y-296996D01*
X328290Y-295052D01*
Y-292948D01*
X327485Y-291003D01*
X325997Y-289515D01*
X324052Y-288710D01*
D02*
G37*
G36*
X377500Y-270765D02*
X372500D01*
X369618Y-271144D01*
X366932Y-272257D01*
X364626Y-274026D01*
X362857Y-276332D01*
X361744Y-279018D01*
X361365Y-281900D01*
X361744Y-284782D01*
X362857Y-287468D01*
X364626Y-289774D01*
X366932Y-291543D01*
X369618Y-292656D01*
X372500Y-293035D01*
X377500D01*
X380382Y-292656D01*
X383068Y-291543D01*
X385374Y-289774D01*
X387143Y-287468D01*
X388256Y-284782D01*
X388635Y-281900D01*
X388256Y-279018D01*
X387143Y-276332D01*
X385374Y-274026D01*
X383068Y-272257D01*
X380382Y-271144D01*
X377500Y-270765D01*
D02*
G37*
G36*
X-372500D02*
X-377500D01*
X-380382Y-271144D01*
X-383068Y-272257D01*
X-385374Y-274026D01*
X-387143Y-276332D01*
X-388256Y-279018D01*
X-388635Y-281900D01*
X-388256Y-284782D01*
X-387143Y-287468D01*
X-385374Y-289774D01*
X-383068Y-291543D01*
X-380382Y-292656D01*
X-377500Y-293035D01*
X-372500D01*
X-369618Y-292656D01*
X-366932Y-291543D01*
X-364626Y-289774D01*
X-362857Y-287468D01*
X-361744Y-284782D01*
X-361365Y-281900D01*
X-361744Y-279018D01*
X-362857Y-276332D01*
X-364626Y-274026D01*
X-366932Y-272257D01*
X-369618Y-271144D01*
X-372500Y-270765D01*
D02*
G37*
G36*
X198552Y-284710D02*
X196448D01*
X194503Y-285515D01*
X193015Y-287003D01*
X192210Y-288948D01*
Y-291052D01*
X193015Y-292997D01*
X194503Y-294485D01*
X196448Y-295290D01*
X198552D01*
X200497Y-294485D01*
X201985Y-292997D01*
X202790Y-291052D01*
Y-288948D01*
X201985Y-287003D01*
X200497Y-285515D01*
X198552Y-284710D01*
D02*
G37*
G36*
X-288948D02*
X-291052D01*
X-292997Y-285515D01*
X-294485Y-287003D01*
X-295290Y-288948D01*
Y-291052D01*
X-294485Y-292997D01*
X-292997Y-294485D01*
X-291052Y-295290D01*
X-288948D01*
X-287003Y-294485D01*
X-285515Y-292997D01*
X-284710Y-291052D01*
Y-288948D01*
X-285515Y-287003D01*
X-287003Y-285515D01*
X-288948Y-284710D01*
D02*
G37*
G36*
X-328948D02*
X-331052D01*
X-332996Y-285515D01*
X-334485Y-287003D01*
X-335290Y-288948D01*
Y-291052D01*
X-334485Y-292997D01*
X-332996Y-294485D01*
X-331052Y-295290D01*
X-328948D01*
X-327004Y-294485D01*
X-325515Y-292997D01*
X-324710Y-291052D01*
Y-288948D01*
X-325515Y-287003D01*
X-327004Y-285515D01*
X-328948Y-284710D01*
D02*
G37*
G36*
X271052D02*
X268948D01*
X267003Y-285515D01*
X265515Y-287003D01*
X264710Y-288948D01*
Y-289710D01*
X263948D01*
X262003Y-290515D01*
X260515Y-292003D01*
X259710Y-293948D01*
Y-296052D01*
X260515Y-297997D01*
X262003Y-299485D01*
X263948Y-300290D01*
X266052D01*
X267997Y-299485D01*
X269485Y-297997D01*
X270290Y-296052D01*
Y-295290D01*
X271052D01*
X272997Y-294485D01*
X274485Y-292997D01*
X275290Y-291052D01*
Y-288948D01*
X274485Y-287003D01*
X272997Y-285515D01*
X271052Y-284710D01*
D02*
G37*
G36*
X-474448Y-289710D02*
X-476552D01*
X-478497Y-290515D01*
X-479985Y-292003D01*
X-480790Y-293948D01*
Y-296052D01*
X-479985Y-297997D01*
X-479481Y-298500D01*
X-479985Y-299004D01*
X-480790Y-300948D01*
Y-303052D01*
X-479985Y-304996D01*
X-478497Y-306485D01*
X-476552Y-307290D01*
X-474448D01*
X-472503Y-306485D01*
X-471015Y-304996D01*
X-470210Y-303052D01*
Y-300948D01*
X-471015Y-299004D01*
X-471519Y-298500D01*
X-471015Y-297997D01*
X-470210Y-296052D01*
Y-293948D01*
X-471015Y-292003D01*
X-472503Y-290515D01*
X-474448Y-289710D01*
D02*
G37*
G36*
X33052Y-304710D02*
X30948D01*
X29004Y-305515D01*
X27515Y-307003D01*
X26710Y-308948D01*
Y-311052D01*
X27515Y-312997D01*
X29004Y-314485D01*
X30948Y-315290D01*
X33052D01*
X34997Y-314485D01*
X36485Y-312997D01*
X37290Y-311052D01*
Y-308948D01*
X36485Y-307003D01*
X34997Y-305515D01*
X33052Y-304710D01*
D02*
G37*
G36*
X377500Y-296165D02*
X372500D01*
X369618Y-296544D01*
X366932Y-297657D01*
X364626Y-299426D01*
X362857Y-301732D01*
X361744Y-304418D01*
X361365Y-307300D01*
X361744Y-310182D01*
X362857Y-312868D01*
X364626Y-315174D01*
X366932Y-316943D01*
X369618Y-318056D01*
X372500Y-318435D01*
X377500D01*
X380382Y-318056D01*
X383068Y-316943D01*
X385374Y-315174D01*
X387143Y-312868D01*
X388256Y-310182D01*
X388635Y-307300D01*
X388256Y-304418D01*
X387143Y-301732D01*
X385374Y-299426D01*
X383068Y-297657D01*
X380382Y-296544D01*
X377500Y-296165D01*
D02*
G37*
G36*
X-372500D02*
X-377500D01*
X-380382Y-296544D01*
X-383068Y-297657D01*
X-385374Y-299426D01*
X-387143Y-301732D01*
X-388256Y-304418D01*
X-388635Y-307300D01*
X-388256Y-310182D01*
X-387143Y-312868D01*
X-385374Y-315174D01*
X-383068Y-316943D01*
X-380382Y-318056D01*
X-377500Y-318435D01*
X-372500D01*
X-369618Y-318056D01*
X-366932Y-316943D01*
X-364626Y-315174D01*
X-362857Y-312868D01*
X-361744Y-310182D01*
X-361365Y-307300D01*
X-361744Y-304418D01*
X-362857Y-301732D01*
X-364626Y-299426D01*
X-366932Y-297657D01*
X-369618Y-296544D01*
X-372500Y-296165D01*
D02*
G37*
G36*
X-345948Y-309710D02*
X-348052D01*
X-349996Y-310515D01*
X-351485Y-312003D01*
X-352290Y-313948D01*
Y-316052D01*
X-351485Y-317997D01*
X-349996Y-319485D01*
X-348290Y-320191D01*
Y-322052D01*
X-347485Y-323997D01*
X-345997Y-325485D01*
X-344052Y-326290D01*
X-341948D01*
X-340004Y-325485D01*
X-338515Y-323997D01*
X-337710Y-322052D01*
Y-319948D01*
X-338515Y-318004D01*
X-340004Y-316515D01*
X-341710Y-315809D01*
Y-313948D01*
X-342515Y-312003D01*
X-344003Y-310515D01*
X-345948Y-309710D01*
D02*
G37*
G36*
X337052Y-308710D02*
X334948D01*
X333003Y-309515D01*
X331515Y-311003D01*
X330710Y-312948D01*
Y-315052D01*
X331515Y-316996D01*
X333003Y-318485D01*
X334948Y-319290D01*
X335578Y-320560D01*
X335210Y-321448D01*
Y-323552D01*
X336015Y-325496D01*
X337504Y-326985D01*
X339448Y-327790D01*
X341552D01*
X343497Y-326985D01*
X344985Y-325496D01*
X345790Y-323552D01*
Y-321448D01*
X344985Y-319503D01*
X343497Y-318015D01*
X341552Y-317210D01*
X340922Y-315940D01*
X341290Y-315052D01*
Y-312948D01*
X340485Y-311003D01*
X338997Y-309515D01*
X337052Y-308710D01*
D02*
G37*
G36*
X251052Y-307210D02*
X248948D01*
X247003Y-308015D01*
X245515Y-309503D01*
X244710Y-311448D01*
Y-312210D01*
X243948D01*
X242003Y-313015D01*
X240515Y-314503D01*
X239710Y-316448D01*
Y-317210D01*
X238948D01*
X237003Y-318015D01*
X235515Y-319503D01*
X234710Y-321448D01*
Y-323552D01*
X235515Y-325497D01*
X237003Y-326985D01*
X238948Y-327790D01*
X241052D01*
X242997Y-326985D01*
X244485Y-325497D01*
X245290Y-323552D01*
Y-322790D01*
X246052D01*
X247997Y-321985D01*
X249485Y-320497D01*
X250290Y-318552D01*
Y-317790D01*
X251052D01*
X252997Y-316985D01*
X254485Y-315497D01*
X255290Y-313552D01*
Y-311448D01*
X254485Y-309503D01*
X252997Y-308015D01*
X251052Y-307210D01*
D02*
G37*
G36*
X-238948Y-312210D02*
X-241052D01*
X-242997Y-313015D01*
X-244485Y-314503D01*
X-245290Y-316448D01*
Y-317210D01*
X-246052D01*
X-247997Y-318015D01*
X-249485Y-319503D01*
X-250290Y-321448D01*
Y-322210D01*
X-251052D01*
X-252997Y-323015D01*
X-254485Y-324504D01*
X-255290Y-326448D01*
Y-328552D01*
X-254485Y-330496D01*
X-252997Y-331985D01*
X-251052Y-332790D01*
X-248948D01*
X-247003Y-331985D01*
X-245515Y-330496D01*
X-244710Y-328552D01*
Y-327790D01*
X-243948D01*
X-242003Y-326985D01*
X-240515Y-325496D01*
X-239710Y-323552D01*
Y-322790D01*
X-238948D01*
X-237003Y-321985D01*
X-235515Y-320496D01*
X-234710Y-318552D01*
Y-316448D01*
X-235515Y-314503D01*
X-237003Y-313015D01*
X-238948Y-312210D01*
D02*
G37*
G36*
X377500Y-321565D02*
X372500D01*
X369618Y-321944D01*
X366932Y-323057D01*
X364626Y-324826D01*
X362857Y-327132D01*
X361744Y-329818D01*
X361365Y-332700D01*
X361744Y-335582D01*
X362857Y-338268D01*
X364626Y-340574D01*
X366932Y-342343D01*
X369618Y-343456D01*
X372500Y-343835D01*
X377500D01*
X380382Y-343456D01*
X383068Y-342343D01*
X385374Y-340574D01*
X387143Y-338268D01*
X388256Y-335582D01*
X388635Y-332700D01*
X388256Y-329818D01*
X387143Y-327132D01*
X385374Y-324826D01*
X383068Y-323057D01*
X380382Y-321944D01*
X377500Y-321565D01*
D02*
G37*
G36*
X-372500D02*
X-377500D01*
X-380382Y-321944D01*
X-383068Y-323057D01*
X-385374Y-324826D01*
X-387143Y-327132D01*
X-388256Y-329818D01*
X-388635Y-332700D01*
X-388256Y-335582D01*
X-387143Y-338268D01*
X-385374Y-340574D01*
X-383068Y-342343D01*
X-380382Y-343456D01*
X-377500Y-343835D01*
X-372500D01*
X-369618Y-343456D01*
X-366932Y-342343D01*
X-364626Y-340574D01*
X-362857Y-338268D01*
X-361744Y-335582D01*
X-361365Y-332700D01*
X-361744Y-329818D01*
X-362857Y-327132D01*
X-364626Y-324826D01*
X-366932Y-323057D01*
X-369618Y-321944D01*
X-372500Y-321565D01*
D02*
G37*
G36*
X-418948Y-338090D02*
X-421053D01*
X-422997Y-338895D01*
X-424485Y-340383D01*
X-425290Y-342328D01*
Y-344432D01*
X-424485Y-346376D01*
X-422997Y-347864D01*
X-421053Y-348670D01*
X-418948D01*
X-417004Y-347864D01*
X-415516Y-346376D01*
X-414710Y-344432D01*
Y-342328D01*
X-415516Y-340383D01*
X-417004Y-338895D01*
X-418948Y-338090D01*
D02*
G37*
G36*
X421052Y-338090D02*
X418947D01*
X417003Y-338895D01*
X415515Y-340383D01*
X414710Y-342328D01*
Y-344432D01*
X415515Y-346376D01*
X417003Y-347864D01*
X418947Y-348670D01*
X421052D01*
X422996Y-347864D01*
X424484Y-346376D01*
X425290Y-344432D01*
Y-342328D01*
X424484Y-340383D01*
X422996Y-338895D01*
X421052Y-338090D01*
D02*
G37*
G36*
X-443448Y-338210D02*
X-445552D01*
X-447496Y-339015D01*
X-448985Y-340503D01*
X-449790Y-342448D01*
Y-344552D01*
X-448985Y-346497D01*
X-447496Y-347985D01*
X-445552Y-348790D01*
X-443448D01*
X-441503Y-347985D01*
X-440015Y-346497D01*
X-439210Y-344552D01*
Y-342448D01*
X-440015Y-340503D01*
X-441503Y-339015D01*
X-443448Y-338210D01*
D02*
G37*
G36*
X-468448D02*
X-470552D01*
X-472496Y-339015D01*
X-473985Y-340503D01*
X-474790Y-342448D01*
Y-344552D01*
X-473985Y-346497D01*
X-472496Y-347985D01*
X-470552Y-348790D01*
X-468448D01*
X-466503Y-347985D01*
X-465015Y-346497D01*
X-464210Y-344552D01*
Y-342448D01*
X-465015Y-340503D01*
X-466503Y-339015D01*
X-468448Y-338210D01*
D02*
G37*
G36*
X186052Y-342210D02*
X183948D01*
X182003Y-343015D01*
X180515Y-344504D01*
X179710Y-346448D01*
Y-348552D01*
X180515Y-350496D01*
X182003Y-351985D01*
X183948Y-352790D01*
X186052D01*
X187997Y-351985D01*
X189485Y-350496D01*
X190290Y-348552D01*
Y-346448D01*
X189485Y-344504D01*
X187997Y-343015D01*
X186052Y-342210D01*
D02*
G37*
G36*
X331052Y-344710D02*
X328948D01*
X327004Y-345515D01*
X325515Y-347004D01*
X324710Y-348948D01*
Y-351052D01*
X325515Y-352997D01*
X327004Y-354485D01*
X328948Y-355290D01*
X331052D01*
X332996Y-354485D01*
X334485Y-352997D01*
X335290Y-351052D01*
Y-348948D01*
X334485Y-347004D01*
X332996Y-345515D01*
X331052Y-344710D01*
D02*
G37*
G36*
X291052D02*
X288948D01*
X287003Y-345515D01*
X285515Y-347004D01*
X284710Y-348948D01*
Y-351052D01*
X285515Y-352997D01*
X287003Y-354485D01*
X288948Y-355290D01*
X291052D01*
X292997Y-354485D01*
X294485Y-352997D01*
X295290Y-351052D01*
Y-348948D01*
X294485Y-347004D01*
X292997Y-345515D01*
X291052Y-344710D01*
D02*
G37*
G36*
X-263948Y-339710D02*
X-266052D01*
X-267997Y-340515D01*
X-269485Y-342004D01*
X-270290Y-343948D01*
Y-344710D01*
X-271052D01*
X-272997Y-345515D01*
X-274485Y-347004D01*
X-275290Y-348948D01*
Y-351052D01*
X-274485Y-352997D01*
X-272997Y-354485D01*
X-271052Y-355290D01*
X-268948D01*
X-267003Y-354485D01*
X-265515Y-352997D01*
X-264710Y-351052D01*
Y-350290D01*
X-263948D01*
X-262003Y-349485D01*
X-260515Y-347996D01*
X-259710Y-346052D01*
Y-343948D01*
X-260515Y-342004D01*
X-262003Y-340515D01*
X-263948Y-339710D01*
D02*
G37*
G36*
X-513948Y-349710D02*
X-516052D01*
X-517997Y-350515D01*
X-519485Y-352003D01*
X-520290Y-353948D01*
Y-356052D01*
X-519485Y-357996D01*
X-517997Y-359485D01*
X-516052Y-360290D01*
X-513948D01*
X-512004Y-359485D01*
X-510515Y-357996D01*
X-509710Y-356052D01*
Y-353948D01*
X-510515Y-352003D01*
X-512004Y-350515D01*
X-513948Y-349710D01*
D02*
G37*
G36*
X291052Y-357210D02*
X288948D01*
X287003Y-358016D01*
X285515Y-359504D01*
X284710Y-361448D01*
Y-363553D01*
X285515Y-365497D01*
X287003Y-366985D01*
X288948Y-367790D01*
X291052D01*
X292997Y-366985D01*
X294485Y-365497D01*
X295290Y-363553D01*
Y-361448D01*
X294485Y-359504D01*
X292997Y-358016D01*
X291052Y-357210D01*
D02*
G37*
G36*
X377500Y-346965D02*
X372500D01*
X369618Y-347344D01*
X366932Y-348457D01*
X364626Y-350226D01*
X362857Y-352532D01*
X361744Y-355218D01*
X361365Y-358100D01*
X361744Y-360982D01*
X362857Y-363668D01*
X364626Y-365974D01*
X366932Y-367743D01*
X369618Y-368856D01*
X372500Y-369235D01*
X377500D01*
X380382Y-368856D01*
X383068Y-367743D01*
X385374Y-365974D01*
X387143Y-363668D01*
X388256Y-360982D01*
X388635Y-358100D01*
X388256Y-355218D01*
X387143Y-352532D01*
X385374Y-350226D01*
X383068Y-348457D01*
X380382Y-347344D01*
X377500Y-346965D01*
D02*
G37*
G36*
X-372500D02*
X-377500D01*
X-380382Y-347344D01*
X-383068Y-348457D01*
X-385374Y-350226D01*
X-387143Y-352532D01*
X-388256Y-355218D01*
X-388635Y-358100D01*
X-388256Y-360982D01*
X-387143Y-363668D01*
X-385374Y-365974D01*
X-383068Y-367743D01*
X-380382Y-368856D01*
X-377500Y-369235D01*
X-372500D01*
X-369618Y-368856D01*
X-366932Y-367743D01*
X-364626Y-365974D01*
X-362857Y-363668D01*
X-361744Y-360982D01*
X-361365Y-358100D01*
X-361744Y-355218D01*
X-362857Y-352532D01*
X-364626Y-350226D01*
X-366932Y-348457D01*
X-369618Y-347344D01*
X-372500Y-346965D01*
D02*
G37*
G36*
X516052Y-359710D02*
X513948D01*
X512004Y-360515D01*
X510515Y-362004D01*
X509710Y-363948D01*
Y-366052D01*
X510515Y-367996D01*
X512004Y-369485D01*
X513948Y-370290D01*
X516052D01*
X517997Y-369485D01*
X519485Y-367996D01*
X520290Y-366052D01*
Y-363948D01*
X519485Y-362004D01*
X517997Y-360515D01*
X516052Y-359710D01*
D02*
G37*
G36*
X377500Y-372365D02*
X372500D01*
X369618Y-372744D01*
X366932Y-373857D01*
X364626Y-375626D01*
X362857Y-377932D01*
X361744Y-380618D01*
X361365Y-383500D01*
X361744Y-386382D01*
X362857Y-389068D01*
X364626Y-391374D01*
X366932Y-393143D01*
X369618Y-394256D01*
X372500Y-394635D01*
X377500D01*
X380382Y-394256D01*
X383068Y-393143D01*
X385374Y-391374D01*
X387143Y-389068D01*
X388256Y-386382D01*
X388635Y-383500D01*
X388256Y-380618D01*
X387143Y-377932D01*
X385374Y-375626D01*
X383068Y-373857D01*
X380382Y-372744D01*
X377500Y-372365D01*
D02*
G37*
G36*
X-372500D02*
X-377500D01*
X-380382Y-372744D01*
X-383068Y-373857D01*
X-385374Y-375626D01*
X-387143Y-377932D01*
X-388256Y-380618D01*
X-388635Y-383500D01*
X-388256Y-386382D01*
X-387143Y-389068D01*
X-385374Y-391374D01*
X-383068Y-393143D01*
X-380382Y-394256D01*
X-377500Y-394635D01*
X-372500D01*
X-369618Y-394256D01*
X-366932Y-393143D01*
X-364626Y-391374D01*
X-362857Y-389068D01*
X-361744Y-386382D01*
X-361365Y-383500D01*
X-361744Y-380618D01*
X-362857Y-377932D01*
X-364626Y-375626D01*
X-366932Y-373857D01*
X-369618Y-372744D01*
X-372500Y-372365D01*
D02*
G37*
G36*
X388540Y-397860D02*
X376270D01*
Y-407630D01*
X388540D01*
Y-397860D01*
D02*
G37*
G36*
X373730D02*
X361460D01*
Y-407630D01*
X373730D01*
Y-397860D01*
D02*
G37*
G36*
X-361460D02*
X-373730D01*
Y-407630D01*
X-361460D01*
Y-397860D01*
D02*
G37*
G36*
X-376270D02*
X-388540D01*
Y-407630D01*
X-376270D01*
Y-397860D01*
D02*
G37*
G36*
X388540Y-410170D02*
X376270D01*
Y-419940D01*
X388540D01*
Y-410170D01*
D02*
G37*
G36*
X373730D02*
X361460D01*
Y-419940D01*
X373730D01*
Y-410170D01*
D02*
G37*
G36*
X-361460Y-410170D02*
X-373730D01*
Y-419940D01*
X-361460D01*
Y-410170D01*
D02*
G37*
G36*
X-376270D02*
X-388540D01*
Y-419940D01*
X-376270D01*
Y-410170D01*
D02*
G37*
G36*
X-418948Y-418090D02*
X-421053D01*
X-422997Y-418895D01*
X-424485Y-420383D01*
X-425290Y-422328D01*
Y-424432D01*
X-424485Y-426376D01*
X-422997Y-427864D01*
X-421053Y-428670D01*
X-418948D01*
X-417004Y-427864D01*
X-415516Y-426376D01*
X-414710Y-424432D01*
Y-422328D01*
X-415516Y-420383D01*
X-417004Y-418895D01*
X-418948Y-418090D01*
D02*
G37*
G36*
X421052Y-418090D02*
X418947D01*
X417003Y-418895D01*
X415515Y-420383D01*
X414710Y-422328D01*
Y-424432D01*
X415515Y-426376D01*
X417003Y-427864D01*
X418947Y-428670D01*
X421052D01*
X422996Y-427864D01*
X424484Y-426376D01*
X425290Y-424432D01*
Y-422328D01*
X424484Y-420383D01*
X422996Y-418895D01*
X421052Y-418090D01*
D02*
G37*
G36*
X-443448Y-418210D02*
X-445552D01*
X-447496Y-419015D01*
X-448985Y-420503D01*
X-449790Y-422448D01*
Y-424552D01*
X-448985Y-426497D01*
X-447496Y-427985D01*
X-445552Y-428790D01*
X-443448D01*
X-441503Y-427985D01*
X-440015Y-426497D01*
X-439210Y-424552D01*
Y-422448D01*
X-440015Y-420503D01*
X-441503Y-419015D01*
X-443448Y-418210D01*
D02*
G37*
G36*
X-468448D02*
X-470552D01*
X-472496Y-419015D01*
X-473985Y-420503D01*
X-474790Y-422448D01*
Y-424552D01*
X-473985Y-426497D01*
X-472496Y-427985D01*
X-470552Y-428790D01*
X-468448D01*
X-466503Y-427985D01*
X-465015Y-426497D01*
X-464210Y-424552D01*
Y-422448D01*
X-465015Y-420503D01*
X-466503Y-419015D01*
X-468448Y-418210D01*
D02*
G37*
G36*
X-513948Y-429710D02*
X-516052D01*
X-517997Y-430515D01*
X-519485Y-432003D01*
X-520290Y-433948D01*
Y-436052D01*
X-519485Y-437996D01*
X-517997Y-439485D01*
X-516052Y-440290D01*
X-513948D01*
X-512004Y-439485D01*
X-510515Y-437996D01*
X-509710Y-436052D01*
Y-433948D01*
X-510515Y-432003D01*
X-512004Y-430515D01*
X-513948Y-429710D01*
D02*
G37*
G36*
X486052Y-429710D02*
X483948D01*
X482004Y-430515D01*
X480515Y-432004D01*
X479710Y-433948D01*
Y-436052D01*
X480515Y-437996D01*
X482004Y-439485D01*
X483948Y-440290D01*
X486052D01*
X487997Y-439485D01*
X489485Y-437996D01*
X490290Y-436052D01*
Y-433948D01*
X489485Y-432004D01*
X487997Y-430515D01*
X486052Y-429710D01*
D02*
G37*
G36*
X-483948Y-439710D02*
X-486052D01*
X-487997Y-440515D01*
X-489485Y-442003D01*
X-490290Y-443948D01*
Y-446052D01*
X-489485Y-447996D01*
X-487997Y-449485D01*
X-486052Y-450290D01*
X-483948D01*
X-482004Y-449485D01*
X-480515Y-447996D01*
X-479710Y-446052D01*
Y-443948D01*
X-480515Y-442003D01*
X-482004Y-440515D01*
X-483948Y-439710D01*
D02*
G37*
G36*
X516052Y-439710D02*
X513948D01*
X512004Y-440515D01*
X510515Y-442003D01*
X509710Y-443948D01*
Y-446052D01*
X510515Y-447996D01*
X512004Y-449485D01*
X513948Y-450290D01*
X516052D01*
X517997Y-449485D01*
X519485Y-447996D01*
X520290Y-446052D01*
Y-443948D01*
X519485Y-442003D01*
X517997Y-440515D01*
X516052Y-439710D01*
D02*
G37*
G36*
X-418948Y-498090D02*
X-421053D01*
X-422997Y-498895D01*
X-424485Y-500383D01*
X-425290Y-502328D01*
Y-504432D01*
X-424485Y-506376D01*
X-422997Y-507864D01*
X-421053Y-508670D01*
X-418948D01*
X-417004Y-507864D01*
X-415516Y-506376D01*
X-414710Y-504432D01*
Y-502328D01*
X-415516Y-500383D01*
X-417004Y-498895D01*
X-418948Y-498090D01*
D02*
G37*
G36*
X421052Y-498090D02*
X418947D01*
X417003Y-498895D01*
X415515Y-500383D01*
X414710Y-502328D01*
Y-504432D01*
X415515Y-506376D01*
X417003Y-507864D01*
X418947Y-508670D01*
X421052D01*
X422996Y-507864D01*
X424484Y-506376D01*
X425290Y-504432D01*
Y-502328D01*
X424484Y-500383D01*
X422996Y-498895D01*
X421052Y-498090D01*
D02*
G37*
G36*
X-443448Y-498210D02*
X-445552D01*
X-447496Y-499015D01*
X-448985Y-500503D01*
X-449790Y-502448D01*
Y-504552D01*
X-448985Y-506497D01*
X-447496Y-507985D01*
X-445552Y-508790D01*
X-443448D01*
X-441503Y-507985D01*
X-440015Y-506497D01*
X-439210Y-504552D01*
Y-502448D01*
X-440015Y-500503D01*
X-441503Y-499015D01*
X-443448Y-498210D01*
D02*
G37*
G36*
X-468448D02*
X-470552D01*
X-472496Y-499015D01*
X-473985Y-500503D01*
X-474790Y-502448D01*
Y-504552D01*
X-473985Y-506497D01*
X-472496Y-507985D01*
X-470552Y-508790D01*
X-468448D01*
X-466503Y-507985D01*
X-465015Y-506497D01*
X-464210Y-504552D01*
Y-502448D01*
X-465015Y-500503D01*
X-466503Y-499015D01*
X-468448Y-498210D01*
D02*
G37*
G36*
X486052Y-509710D02*
X483948D01*
X482004Y-510515D01*
X480515Y-512003D01*
X479710Y-513948D01*
Y-516052D01*
X480515Y-517996D01*
X482004Y-519485D01*
X483948Y-520290D01*
X486052D01*
X487997Y-519485D01*
X489485Y-517996D01*
X490290Y-516052D01*
Y-513948D01*
X489485Y-512003D01*
X487997Y-510515D01*
X486052Y-509710D01*
D02*
G37*
G36*
X-513948D02*
X-516052D01*
X-517997Y-510515D01*
X-519485Y-512003D01*
X-520290Y-513948D01*
Y-516052D01*
X-519485Y-517996D01*
X-517997Y-519485D01*
X-516052Y-520290D01*
X-513948D01*
X-512004Y-519485D01*
X-510515Y-517996D01*
X-509710Y-516052D01*
Y-513948D01*
X-510515Y-512003D01*
X-512004Y-510515D01*
X-513948Y-509710D01*
D02*
G37*
G36*
X516052Y-519710D02*
X513948D01*
X512004Y-520515D01*
X510515Y-522003D01*
X509710Y-523948D01*
Y-526052D01*
X510515Y-527996D01*
X512004Y-529485D01*
X513948Y-530290D01*
X516052D01*
X517997Y-529485D01*
X519485Y-527996D01*
X520290Y-526052D01*
Y-523948D01*
X519485Y-522003D01*
X517997Y-520515D01*
X516052Y-519710D01*
D02*
G37*
G36*
X-483948D02*
X-486052D01*
X-487997Y-520515D01*
X-489485Y-522003D01*
X-490290Y-523948D01*
Y-526052D01*
X-489485Y-527996D01*
X-487997Y-529485D01*
X-486052Y-530290D01*
X-483948D01*
X-482004Y-529485D01*
X-480515Y-527996D01*
X-479710Y-526052D01*
Y-523948D01*
X-480515Y-522003D01*
X-482004Y-520515D01*
X-483948Y-519710D01*
D02*
G37*
G36*
X-278948Y-544710D02*
X-281052D01*
X-282997Y-545515D01*
X-284485Y-547003D01*
X-285290Y-548947D01*
Y-551052D01*
X-284485Y-552996D01*
X-282997Y-554484D01*
X-281052Y-555290D01*
X-278948D01*
X-277004Y-554484D01*
X-275516Y-552996D01*
X-274710Y-551052D01*
Y-548947D01*
X-275516Y-547003D01*
X-277004Y-545515D01*
X-278948Y-544710D01*
D02*
G37*
G36*
X-258948Y-552210D02*
X-261052D01*
X-262997Y-553015D01*
X-264485Y-554504D01*
X-265290Y-556448D01*
Y-558552D01*
X-264485Y-560496D01*
X-262997Y-561985D01*
X-261052Y-562790D01*
X-258948D01*
X-257003Y-561985D01*
X-255515Y-560496D01*
X-254710Y-558552D01*
Y-556448D01*
X-255515Y-554504D01*
X-257003Y-553015D01*
X-258948Y-552210D01*
D02*
G37*
G36*
X-418948Y-578090D02*
X-421053D01*
X-422997Y-578895D01*
X-424485Y-580383D01*
X-425290Y-582328D01*
Y-584432D01*
X-424485Y-586376D01*
X-422997Y-587864D01*
X-421053Y-588670D01*
X-418948D01*
X-417004Y-587864D01*
X-415516Y-586376D01*
X-414710Y-584432D01*
Y-582328D01*
X-415516Y-580383D01*
X-417004Y-578895D01*
X-418948Y-578090D01*
D02*
G37*
G36*
X421052Y-578090D02*
X418947D01*
X417003Y-578895D01*
X415515Y-580383D01*
X414710Y-582328D01*
Y-584432D01*
X415515Y-586376D01*
X417003Y-587864D01*
X418947Y-588670D01*
X421052D01*
X422996Y-587864D01*
X424484Y-586376D01*
X425290Y-584432D01*
Y-582328D01*
X424484Y-580383D01*
X422996Y-578895D01*
X421052Y-578090D01*
D02*
G37*
G36*
X-443448Y-578210D02*
X-445552D01*
X-447496Y-579015D01*
X-448985Y-580503D01*
X-449790Y-582448D01*
Y-584552D01*
X-448985Y-586497D01*
X-447496Y-587985D01*
X-445552Y-588790D01*
X-443448D01*
X-441503Y-587985D01*
X-440015Y-586497D01*
X-439210Y-584552D01*
Y-582448D01*
X-440015Y-580503D01*
X-441503Y-579015D01*
X-443448Y-578210D01*
D02*
G37*
G36*
X-468448D02*
X-470552D01*
X-472496Y-579015D01*
X-473985Y-580503D01*
X-474790Y-582448D01*
Y-584552D01*
X-473985Y-586497D01*
X-472496Y-587985D01*
X-470552Y-588790D01*
X-468448D01*
X-466503Y-587985D01*
X-465015Y-586497D01*
X-464210Y-584552D01*
Y-582448D01*
X-465015Y-580503D01*
X-466503Y-579015D01*
X-468448Y-578210D01*
D02*
G37*
G36*
X-513948Y-589710D02*
X-516052D01*
X-517997Y-590515D01*
X-519485Y-592003D01*
X-520290Y-593948D01*
Y-596052D01*
X-519485Y-597996D01*
X-517997Y-599485D01*
X-516052Y-600290D01*
X-513948D01*
X-512004Y-599485D01*
X-510515Y-597996D01*
X-509710Y-596052D01*
Y-593948D01*
X-510515Y-592003D01*
X-512004Y-590515D01*
X-513948Y-589710D01*
D02*
G37*
G36*
X516052Y-599710D02*
X513948D01*
X512004Y-600515D01*
X510515Y-602003D01*
X509710Y-603948D01*
Y-606052D01*
X510515Y-607996D01*
X512004Y-609485D01*
X513948Y-610290D01*
X516052D01*
X517997Y-609485D01*
X519485Y-607996D01*
X520290Y-606052D01*
Y-603948D01*
X519485Y-602003D01*
X517997Y-600515D01*
X516052Y-599710D01*
D02*
G37*
G36*
X286052Y-604710D02*
X283948D01*
X282003Y-605515D01*
X280515Y-607004D01*
X279710Y-608948D01*
Y-611052D01*
X279752Y-611154D01*
X279181Y-612008D01*
X278834Y-612257D01*
X277003Y-613015D01*
X275515Y-614504D01*
X274710Y-616448D01*
Y-618552D01*
X275515Y-620496D01*
X277003Y-621985D01*
X278948Y-622790D01*
X281052D01*
X282997Y-621985D01*
X284485Y-620496D01*
X285290Y-618552D01*
Y-616448D01*
X285248Y-616346D01*
X285819Y-615492D01*
X286166Y-615243D01*
X287997Y-614485D01*
X289485Y-612996D01*
X290290Y-611052D01*
Y-608948D01*
X289485Y-607004D01*
X287997Y-605515D01*
X286052Y-604710D01*
D02*
G37*
G36*
X241052Y-612210D02*
X238947D01*
X237003Y-613016D01*
X235515Y-614504D01*
X234710Y-616448D01*
Y-618552D01*
X235515Y-620497D01*
X237003Y-621985D01*
X238947Y-622790D01*
X241052D01*
X242996Y-621985D01*
X244484Y-620497D01*
X245290Y-618552D01*
Y-616448D01*
X244484Y-614504D01*
X242996Y-613016D01*
X241052Y-612210D01*
D02*
G37*
G36*
X526052Y-622210D02*
X523948D01*
X522004Y-623015D01*
X520515Y-624503D01*
X519710Y-626448D01*
Y-628552D01*
X520515Y-630496D01*
X522004Y-631985D01*
X523948Y-632790D01*
X526052D01*
X527996Y-631985D01*
X529485Y-630496D01*
X530290Y-628552D01*
Y-626448D01*
X529485Y-624503D01*
X527996Y-623015D01*
X526052Y-622210D01*
D02*
G37*
G36*
X-289000Y-607895D02*
X-311000D01*
X-312968Y-608154D01*
X-314802Y-608914D01*
X-316378Y-610122D01*
X-317586Y-611698D01*
X-318346Y-613532D01*
X-318605Y-615500D01*
Y-625500D01*
X-318346Y-627468D01*
X-317586Y-629303D01*
X-316378Y-630878D01*
X-314802Y-632086D01*
X-312968Y-632846D01*
X-311000Y-633105D01*
X-289000D01*
X-287032Y-632846D01*
X-285198Y-632086D01*
X-283622Y-630878D01*
X-282414Y-629303D01*
X-281654Y-627468D01*
X-281395Y-625500D01*
Y-615500D01*
X-281654Y-613532D01*
X-282414Y-611698D01*
X-283622Y-610122D01*
X-285198Y-608914D01*
X-287032Y-608154D01*
X-289000Y-607895D01*
D02*
G37*
G36*
X482052Y-637210D02*
X479948D01*
X478004Y-638015D01*
X476515Y-639503D01*
X475710Y-641448D01*
Y-643552D01*
X476515Y-645496D01*
X478004Y-646984D01*
X479948Y-647790D01*
X482052D01*
X483997Y-646984D01*
X485485Y-645496D01*
X486290Y-643552D01*
Y-641448D01*
X485485Y-639503D01*
X483997Y-638015D01*
X482052Y-637210D01*
D02*
G37*
G36*
X-438730Y-662041D02*
Y-673730D01*
X-429873D01*
Y-672000D01*
X-430218Y-669379D01*
X-431230Y-666937D01*
X-432839Y-664839D01*
X-434937Y-663230D01*
X-437379Y-662218D01*
X-438730Y-662041D01*
D02*
G37*
G36*
X-441270D02*
X-442621Y-662218D01*
X-445063Y-663230D01*
X-447161Y-664839D01*
X-448770Y-666937D01*
X-449782Y-669379D01*
X-450127Y-672000D01*
Y-673730D01*
X-441270D01*
Y-662041D01*
D02*
G37*
G36*
X461552Y-677210D02*
X459448D01*
X457504Y-678015D01*
X456015Y-679503D01*
X455210Y-681448D01*
Y-683552D01*
X456015Y-685497D01*
X457504Y-686985D01*
X459448Y-687790D01*
X461552D01*
X463497Y-686985D01*
X464985Y-685497D01*
X465790Y-683552D01*
Y-681448D01*
X464985Y-679503D01*
X463497Y-678015D01*
X461552Y-677210D01*
D02*
G37*
G36*
X-429873Y-676270D02*
X-438730D01*
Y-687959D01*
X-437379Y-687782D01*
X-434937Y-686770D01*
X-432839Y-685161D01*
X-431230Y-683063D01*
X-430218Y-680621D01*
X-429873Y-678000D01*
Y-676270D01*
D02*
G37*
G36*
X-441270D02*
X-450127D01*
Y-678000D01*
X-449782Y-680621D01*
X-448770Y-683063D01*
X-447161Y-685161D01*
X-445063Y-686770D01*
X-442621Y-687782D01*
X-441270Y-687959D01*
Y-676270D01*
D02*
G37*
%LPD*%
D10*
X137500Y-695000D02*
G03*
X137500Y-670000I0J12500D01*
G01*
X-137500D02*
G03*
X-137500Y-695000I0J-12500D01*
G01*
X520000Y-715000D02*
G03*
X555000Y-680000I0J35000D01*
G01*
Y680000D02*
G03*
X520000Y715000I-35000J0D01*
G01*
X-520000D02*
G03*
X-555000Y680000I0J-35000D01*
G01*
Y-680000D02*
G03*
X-520000Y-715000I35000J0D01*
G01*
X-137500Y-695000D02*
X137500Y-695000D01*
X-137500Y-670000D02*
X137500Y-670000D01*
X555000Y-680000D02*
X555000Y680000D01*
X0Y-715000D02*
X520000D01*
X0Y715000D02*
X520000D01*
X-520000D02*
X0D01*
X-520000Y-715000D02*
X0D01*
X-555000Y680000D02*
X-555000Y-680000D01*
D103*
X-31700Y229900D02*
D03*
D104*
X0Y537400D02*
D03*
X-76200Y105600D02*
D03*
Y435800D02*
D03*
X-269450Y518600D02*
D03*
D105*
X76200Y80200D02*
D03*
D108*
X375000Y-408900D02*
D03*
Y231100D02*
D03*
X-375000Y-408900D02*
D03*
Y231100D02*
D03*
D110*
X43200Y689000D02*
D03*
X-43200D02*
D03*
D111*
X43200Y647200D02*
D03*
X-43200D02*
D03*
D112*
X-440000Y-675000D02*
D03*
D114*
X-161750Y658300D02*
D03*
D116*
X-287500Y327500D02*
D03*
X207500Y395000D02*
D03*
X30000Y302550D02*
D03*
Y283150D02*
D03*
Y230750D02*
D03*
Y393750D02*
D03*
Y257750D02*
D03*
X-37500Y126500D02*
D03*
X3500Y162500D02*
D03*
X31000Y524000D02*
D03*
X472500Y322500D02*
D03*
X-463250Y317750D02*
D03*
X-460250Y-324000D02*
D03*
X470000Y-317500D02*
D03*
X-357500Y-370000D02*
D03*
Y270000D02*
D03*
X-25000Y185000D02*
D03*
X448380Y-642500D02*
D03*
X145000Y387500D02*
D03*
X174000Y345000D02*
D03*
X133120Y-254880D02*
D03*
X420000Y583380D02*
D03*
Y423380D02*
D03*
Y-376620D02*
D03*
Y263380D02*
D03*
Y-56620D02*
D03*
Y103380D02*
D03*
Y-216620D02*
D03*
Y503380D02*
D03*
Y-536620D02*
D03*
Y23380D02*
D03*
Y183380D02*
D03*
Y-136620D02*
D03*
Y-456620D02*
D03*
Y-296620D02*
D03*
X-420000Y503380D02*
D03*
X185000Y-315000D02*
D03*
X-170000Y-60000D02*
D03*
X18000Y-310000D02*
D03*
X-225000Y490000D02*
D03*
X-340000Y-550000D02*
D03*
X320120Y268120D02*
D03*
Y-371880D02*
D03*
X-320120Y-268120D02*
D03*
Y371880D02*
D03*
X175000Y96620D02*
D03*
X120950Y89000D02*
D03*
X240000Y-665000D02*
D03*
X152500Y185000D02*
D03*
X280000Y665000D02*
D03*
X150000Y445000D02*
D03*
X208000Y445000D02*
D03*
X145000Y414000D02*
D03*
X255000Y370000D02*
D03*
X257499Y445000D02*
D03*
X129880Y507379D02*
D03*
X217500Y497500D02*
D03*
X469500Y-56500D02*
D03*
X444500D02*
D03*
X469500Y-136500D02*
D03*
X444500D02*
D03*
X469500Y-216500D02*
D03*
X444500D02*
D03*
X469500Y-296500D02*
D03*
X444500D02*
D03*
X469500Y-376500D02*
D03*
X444500D02*
D03*
X469500Y-456500D02*
D03*
X444500D02*
D03*
X469500Y-536500D02*
D03*
X444500D02*
D03*
X469500Y-616500D02*
D03*
X444500D02*
D03*
X515000Y-55000D02*
D03*
Y-375000D02*
D03*
Y-135000D02*
D03*
Y-455000D02*
D03*
Y-215000D02*
D03*
Y-535000D02*
D03*
Y-295000D02*
D03*
Y-615000D02*
D03*
X420000Y-616620D02*
D03*
X515000Y25000D02*
D03*
Y105000D02*
D03*
Y185000D02*
D03*
Y265000D02*
D03*
Y345000D02*
D03*
Y425000D02*
D03*
Y505000D02*
D03*
Y585000D02*
D03*
X469500Y23500D02*
D03*
X444500D02*
D03*
X469500Y103500D02*
D03*
X444500D02*
D03*
X469500Y183500D02*
D03*
X444500D02*
D03*
X469500Y263500D02*
D03*
X444500D02*
D03*
X469500Y343500D02*
D03*
X444500D02*
D03*
X420000Y343380D02*
D03*
X469500Y423500D02*
D03*
X444500D02*
D03*
Y503500D02*
D03*
X469500D02*
D03*
Y583500D02*
D03*
X444500D02*
D03*
X-280000Y-277500D02*
D03*
X-420000Y-56620D02*
D03*
Y-136620D02*
D03*
Y-216620D02*
D03*
Y-296620D02*
D03*
Y-376620D02*
D03*
Y-456620D02*
D03*
Y-536620D02*
D03*
Y-616620D02*
D03*
X-515000Y-25000D02*
D03*
Y-345000D02*
D03*
Y-105000D02*
D03*
Y-425000D02*
D03*
Y-185000D02*
D03*
Y-505000D02*
D03*
Y-265000D02*
D03*
Y-585000D02*
D03*
X-420000Y343380D02*
D03*
X-515000Y295000D02*
D03*
Y215000D02*
D03*
Y135000D02*
D03*
Y55000D02*
D03*
Y375000D02*
D03*
Y455000D02*
D03*
Y535000D02*
D03*
Y615000D02*
D03*
X-420000Y23380D02*
D03*
Y103380D02*
D03*
Y183380D02*
D03*
Y263380D02*
D03*
Y423380D02*
D03*
Y583380D02*
D03*
D117*
X475000Y650000D02*
D03*
Y550000D02*
D03*
X500000Y400000D02*
D03*
Y0D02*
D03*
Y-400000D02*
D03*
X475000Y-550000D02*
D03*
X450000Y700000D02*
D03*
X425000Y650000D02*
D03*
Y550000D02*
D03*
Y150000D02*
D03*
Y-150000D02*
D03*
Y-550000D02*
D03*
X400000Y700000D02*
D03*
X375000Y650000D02*
D03*
X400000Y600000D02*
D03*
X375000Y550000D02*
D03*
X400000Y500000D02*
D03*
X375000Y450000D02*
D03*
X400000Y400000D02*
D03*
Y200000D02*
D03*
X375000Y150000D02*
D03*
X400000Y100000D02*
D03*
X375000Y50000D02*
D03*
X400000Y0D02*
D03*
X375000Y-50000D02*
D03*
X400000Y-100000D02*
D03*
X375000Y-150000D02*
D03*
X400000Y-200000D02*
D03*
Y-400000D02*
D03*
X375000Y-450000D02*
D03*
X400000Y-500000D02*
D03*
X375000Y-550000D02*
D03*
X400000Y-600000D02*
D03*
X350000Y700000D02*
D03*
X325000Y650000D02*
D03*
X350000Y600000D02*
D03*
X325000Y550000D02*
D03*
X350000Y500000D02*
D03*
X325000Y450000D02*
D03*
X350000Y400000D02*
D03*
Y200000D02*
D03*
Y100000D02*
D03*
Y0D02*
D03*
Y-100000D02*
D03*
Y-200000D02*
D03*
Y-400000D02*
D03*
X325000Y-450000D02*
D03*
X350000Y-500000D02*
D03*
X325000Y-550000D02*
D03*
X350000Y-600000D02*
D03*
X300000Y700000D02*
D03*
Y600000D02*
D03*
Y500000D02*
D03*
Y400000D02*
D03*
Y200000D02*
D03*
Y100000D02*
D03*
Y0D02*
D03*
Y-100000D02*
D03*
Y-200000D02*
D03*
Y-400000D02*
D03*
Y-500000D02*
D03*
Y-600000D02*
D03*
X225000Y650000D02*
D03*
Y550000D02*
D03*
Y50000D02*
D03*
Y-50000D02*
D03*
Y-150000D02*
D03*
Y-250000D02*
D03*
Y-350000D02*
D03*
X250000Y-400000D02*
D03*
X225000Y-450000D02*
D03*
X250000Y-500000D02*
D03*
X225000Y-550000D02*
D03*
X200000Y700000D02*
D03*
Y100000D02*
D03*
X175000Y-50000D02*
D03*
Y-150000D02*
D03*
Y-250000D02*
D03*
Y-350000D02*
D03*
X200000Y-400000D02*
D03*
X175000Y-450000D02*
D03*
X200000Y-500000D02*
D03*
X175000Y-550000D02*
D03*
X200000Y-600000D02*
D03*
X150000Y700000D02*
D03*
X125000Y350000D02*
D03*
Y150000D02*
D03*
X150000Y0D02*
D03*
Y-100000D02*
D03*
X125000Y-150000D02*
D03*
X150000Y-200000D02*
D03*
X125000Y-250000D02*
D03*
X150000Y-300000D02*
D03*
X125000Y-350000D02*
D03*
X150000Y-400000D02*
D03*
X125000Y-450000D02*
D03*
X150000Y-500000D02*
D03*
X125000Y-550000D02*
D03*
X150000Y-600000D02*
D03*
X100000Y700000D02*
D03*
Y500000D02*
D03*
Y100000D02*
D03*
X75000Y50000D02*
D03*
X100000Y0D02*
D03*
X75000Y-50000D02*
D03*
X100000Y-100000D02*
D03*
X75000Y-150000D02*
D03*
X100000Y-200000D02*
D03*
X75000Y-250000D02*
D03*
X100000Y-300000D02*
D03*
X75000Y-350000D02*
D03*
X100000Y-400000D02*
D03*
X75000Y-450000D02*
D03*
X100000Y-500000D02*
D03*
X75000Y-550000D02*
D03*
X100000Y-600000D02*
D03*
X50000Y600000D02*
D03*
Y500000D02*
D03*
X25000Y50000D02*
D03*
X50000Y0D02*
D03*
X25000Y-50000D02*
D03*
X50000Y-100000D02*
D03*
X25000Y-150000D02*
D03*
X50000Y-200000D02*
D03*
X25000Y-350000D02*
D03*
X50000Y-400000D02*
D03*
X25000Y-450000D02*
D03*
X50000Y-500000D02*
D03*
X25000Y-550000D02*
D03*
X50000Y-600000D02*
D03*
X0Y700000D02*
D03*
Y500000D02*
D03*
X-25000Y450000D02*
D03*
Y350000D02*
D03*
Y50000D02*
D03*
Y-50000D02*
D03*
Y-150000D02*
D03*
Y-250000D02*
D03*
Y-350000D02*
D03*
X0Y-400000D02*
D03*
X-25000Y-450000D02*
D03*
X0Y-500000D02*
D03*
X-25000Y-550000D02*
D03*
X0Y-600000D02*
D03*
X-50000Y600000D02*
D03*
Y500000D02*
D03*
X-75000Y50000D02*
D03*
X-50000Y0D02*
D03*
X-75000Y-50000D02*
D03*
X-50000Y-100000D02*
D03*
X-75000Y-150000D02*
D03*
X-50000Y-200000D02*
D03*
X-75000Y-250000D02*
D03*
X-50000Y-300000D02*
D03*
Y-400000D02*
D03*
Y-500000D02*
D03*
Y-600000D02*
D03*
X-100000Y700000D02*
D03*
X-125000Y650000D02*
D03*
X-100000Y600000D02*
D03*
X-125000Y550000D02*
D03*
X-100000Y500000D02*
D03*
X-125000Y450000D02*
D03*
X-100000Y300000D02*
D03*
X-125000Y150000D02*
D03*
X-100000Y100000D02*
D03*
X-125000Y50000D02*
D03*
X-100000Y0D02*
D03*
X-125000Y-50000D02*
D03*
X-100000Y-100000D02*
D03*
X-125000Y-150000D02*
D03*
X-100000Y-200000D02*
D03*
X-125000Y-250000D02*
D03*
X-100000Y-300000D02*
D03*
X-125000Y-350000D02*
D03*
X-100000Y-400000D02*
D03*
X-125000Y-450000D02*
D03*
X-100000Y-500000D02*
D03*
X-125000Y-550000D02*
D03*
X-100000Y-600000D02*
D03*
X-150000Y700000D02*
D03*
Y500000D02*
D03*
Y400000D02*
D03*
X-175000Y150000D02*
D03*
X-150000Y100000D02*
D03*
X-175000Y50000D02*
D03*
X-150000Y0D02*
D03*
X-175000Y-50000D02*
D03*
X-150000Y-100000D02*
D03*
X-175000Y-150000D02*
D03*
X-150000Y-200000D02*
D03*
X-175000Y-250000D02*
D03*
X-150000Y-300000D02*
D03*
X-175000Y-350000D02*
D03*
X-150000Y-400000D02*
D03*
X-175000Y-450000D02*
D03*
X-150000Y-500000D02*
D03*
X-175000Y-550000D02*
D03*
X-150000Y-600000D02*
D03*
X-200000Y700000D02*
D03*
X-225000Y650000D02*
D03*
X-200000Y600000D02*
D03*
Y400000D02*
D03*
Y200000D02*
D03*
Y100000D02*
D03*
Y0D02*
D03*
Y-100000D02*
D03*
Y-200000D02*
D03*
Y-300000D02*
D03*
Y-400000D02*
D03*
Y-500000D02*
D03*
X-225000Y-550000D02*
D03*
X-200000Y-600000D02*
D03*
X-225000Y-650000D02*
D03*
X-250000Y700000D02*
D03*
Y600000D02*
D03*
Y400000D02*
D03*
X-275000Y250000D02*
D03*
Y150000D02*
D03*
Y50000D02*
D03*
Y-150000D02*
D03*
X-250000Y-400000D02*
D03*
X-275000Y-450000D02*
D03*
X-250000Y-500000D02*
D03*
Y-600000D02*
D03*
X-275000Y-650000D02*
D03*
X-300000Y700000D02*
D03*
X-325000Y650000D02*
D03*
Y550000D02*
D03*
X-300000Y500000D02*
D03*
X-325000Y450000D02*
D03*
X-300000Y400000D02*
D03*
Y200000D02*
D03*
Y100000D02*
D03*
Y-100000D02*
D03*
Y-200000D02*
D03*
Y-400000D02*
D03*
X-325000Y-450000D02*
D03*
X-300000Y-500000D02*
D03*
X-325000Y-550000D02*
D03*
X-300000Y-600000D02*
D03*
X-325000Y-650000D02*
D03*
X-350000Y700000D02*
D03*
X-375000Y650000D02*
D03*
X-350000Y600000D02*
D03*
Y500000D02*
D03*
X-375000Y450000D02*
D03*
X-350000Y400000D02*
D03*
Y300000D02*
D03*
Y200000D02*
D03*
X-375000Y150000D02*
D03*
X-350000Y100000D02*
D03*
X-375000Y50000D02*
D03*
X-350000Y0D02*
D03*
X-375000Y-50000D02*
D03*
X-350000Y-100000D02*
D03*
X-375000Y-150000D02*
D03*
X-350000Y-200000D02*
D03*
Y-400000D02*
D03*
X-375000Y-450000D02*
D03*
X-350000Y-500000D02*
D03*
X-375000Y-550000D02*
D03*
Y-650000D02*
D03*
X-400000Y700000D02*
D03*
X-425000Y650000D02*
D03*
X-400000Y600000D02*
D03*
X-425000Y550000D02*
D03*
X-400000Y500000D02*
D03*
Y400000D02*
D03*
Y200000D02*
D03*
X-425000Y150000D02*
D03*
X-400000Y100000D02*
D03*
Y0D02*
D03*
Y-100000D02*
D03*
X-425000Y-150000D02*
D03*
X-400000Y-200000D02*
D03*
X-425000Y-250000D02*
D03*
X-400000Y-400000D02*
D03*
Y-500000D02*
D03*
X-425000Y-550000D02*
D03*
Y-650000D02*
D03*
X-450000Y700000D02*
D03*
X-475000Y650000D02*
D03*
X-450000Y500000D02*
D03*
Y100000D02*
D03*
X-475000Y-650000D02*
D03*
X-500000Y400000D02*
D03*
Y0D02*
D03*
Y-400000D02*
D03*
M02*
