G04*
G04 #@! TF.GenerationSoftware,Altium Limited,Altium Designer,22.2.1 (43)*
G04*
G04 Layer_Color=8388736*
%FSLAX44Y44*%
%MOMM*%
G71*
G04*
G04 #@! TF.SameCoordinates,1638434B-95A0-431D-8215-D8E3F3AE7B07*
G04*
G04*
G04 #@! TF.FilePolarity,Negative*
G04*
G01*
G75*
%ADD10C,0.2540*%
%ADD55C,1.1020*%
%ADD56R,1.0922X0.8382*%
%ADD57R,0.9032X0.8032*%
%ADD58O,0.9532X0.4532*%
%ADD59R,0.9032X1.2032*%
%ADD60R,2.8032X3.8032*%
%ADD61R,1.0032X0.8532*%
%ADD62R,1.0032X0.7032*%
%ADD63R,0.8382X1.0922*%
%ADD64R,1.8532X1.8532*%
%ADD65O,0.4532X0.9532*%
%ADD66R,2.0032X0.9032*%
%ADD67R,2.2032X1.4032*%
%ADD68R,1.2032X2.4032*%
%ADD69R,1.3462X1.9812*%
%ADD70R,1.3462X2.9972*%
%ADD71R,0.8032X1.4532*%
%ADD72R,0.5032X1.4532*%
%ADD73R,1.4032X1.6032*%
%ADD74R,2.4032X1.6032*%
%ADD75R,1.0032X1.0032*%
%ADD76O,0.8032X2.4032*%
%ADD77R,1.5032X2.0032*%
%ADD78R,3.0032X3.0032*%
%ADD79O,0.4032X0.8532*%
%ADD80O,0.8532X0.4032*%
%ADD81R,2.7032X1.7032*%
%ADD82R,2.7032X1.4032*%
%ADD83R,2.7032X2.2032*%
%ADD84R,2.2032X3.1032*%
%ADD85C,2.3032*%
%ADD86C,1.6032*%
%ADD87C,1.8032*%
%ADD88R,1.8032X1.8032*%
%ADD89C,1.2032*%
%ADD90O,2.4032X1.9032*%
%ADD91R,2.4032X1.9032*%
%ADD92C,1.4480*%
%ADD93C,0.2032*%
%ADD94O,1.4032X2.3032*%
%ADD95O,1.4032X2.5032*%
%ADD96O,1.7032X2.3032*%
%ADD97C,2.8032*%
%ADD98C,2.1032*%
G04:AMPARAMS|DCode=99|XSize=2.2032mm|YSize=3.4032mm|CornerRadius=0.6016mm|HoleSize=0mm|Usage=FLASHONLY|Rotation=270.000|XOffset=0mm|YOffset=0mm|HoleType=Round|Shape=RoundedRectangle|*
%AMROUNDEDRECTD99*
21,1,2.2032,2.2000,0,0,270.0*
21,1,1.0000,3.4032,0,0,270.0*
1,1,1.2032,-1.1000,-0.5000*
1,1,1.2032,-1.1000,0.5000*
1,1,1.2032,1.1000,0.5000*
1,1,1.2032,1.1000,-0.5000*
%
%ADD99ROUNDEDRECTD99*%
G36*
X-298069Y6548D02*
X-296697D01*
Y6456D01*
X-295782D01*
Y6365D01*
X-295050D01*
Y6273D01*
X-294409D01*
Y6182D01*
X-293860D01*
Y6090D01*
X-293311D01*
Y5999D01*
X-292854D01*
Y5907D01*
X-292396D01*
Y5816D01*
X-291939D01*
Y5724D01*
X-291572D01*
Y5633D01*
X-291115D01*
Y5541D01*
X-290749D01*
Y5450D01*
X-290383D01*
Y5358D01*
X-290109D01*
Y5267D01*
X-289743D01*
Y5175D01*
X-289468D01*
Y5084D01*
X-289102D01*
Y4992D01*
X-288828D01*
Y4901D01*
X-288553D01*
Y4809D01*
X-288279D01*
Y4718D01*
X-288004D01*
Y4626D01*
X-287729D01*
Y4535D01*
X-287455D01*
Y4443D01*
X-287272D01*
Y4352D01*
X-286998D01*
Y4260D01*
X-286723D01*
Y4169D01*
X-286540D01*
Y4077D01*
X-286266D01*
Y3986D01*
X-286082D01*
Y3894D01*
X-285808D01*
Y3803D01*
X-285625D01*
Y3711D01*
X-285350D01*
Y3620D01*
X-285168D01*
Y3528D01*
X-284984D01*
Y3437D01*
X-284802D01*
Y3345D01*
X-284527D01*
Y3254D01*
X-284344D01*
Y3162D01*
X-284161D01*
Y3071D01*
X-283978D01*
Y2979D01*
X-283795D01*
Y2888D01*
X-283612D01*
Y2796D01*
X-283429D01*
Y2705D01*
X-283246D01*
Y2613D01*
X-283063D01*
Y2522D01*
X-282880D01*
Y2430D01*
X-282697D01*
Y2339D01*
X-282514D01*
Y2247D01*
X-282331D01*
Y2156D01*
X-282239D01*
Y2064D01*
X-282057D01*
Y1972D01*
X-281873D01*
Y1881D01*
X-281691D01*
Y1790D01*
X-281599D01*
Y1698D01*
X-281416D01*
Y1607D01*
X-281233D01*
Y1515D01*
X-281050D01*
Y1424D01*
X-280958D01*
Y1332D01*
X-280776D01*
Y1241D01*
X-280592D01*
Y1149D01*
X-280501D01*
Y1058D01*
X-280318D01*
Y966D01*
X-280226D01*
Y874D01*
X-280043D01*
Y783D01*
X-279952D01*
Y692D01*
X-279769D01*
Y600D01*
X-279677D01*
Y509D01*
X-279494D01*
Y417D01*
X-279403D01*
Y326D01*
X-279220D01*
Y234D01*
X-279128D01*
Y143D01*
X-278946D01*
Y51D01*
X-278854D01*
Y-40D01*
X-278671D01*
Y-132D01*
X-278579D01*
Y-223D01*
X-278396D01*
Y-315D01*
X-278305D01*
Y-406D01*
X-278213D01*
Y-498D01*
X-278030D01*
Y-589D01*
X-277939D01*
Y-681D01*
X-277847D01*
Y-772D01*
X-277664D01*
Y-864D01*
X-277573D01*
Y-955D01*
X-277481D01*
Y-1047D01*
X-277298D01*
Y-1138D01*
X-277207D01*
Y-1230D01*
X-277115D01*
Y-1321D01*
X-277024D01*
Y-1413D01*
X-276841D01*
Y-1505D01*
X-276749D01*
Y-1596D01*
X-276658D01*
Y-1687D01*
X-276566D01*
Y-1779D01*
X-276475D01*
Y-1870D01*
X-276292D01*
Y-1962D01*
X-276200D01*
Y-2053D01*
X-276109D01*
Y-2145D01*
X-276017D01*
Y-2236D01*
X-275926D01*
Y-2328D01*
X-275834D01*
Y-2420D01*
X-275651D01*
Y-2511D01*
X-275560D01*
Y-2603D01*
X-275468D01*
Y-2694D01*
X-275377D01*
Y-2785D01*
X-275285D01*
Y-2877D01*
X-275194D01*
Y-2968D01*
X-275102D01*
Y-3060D01*
X-275011D01*
Y-3151D01*
X-274919D01*
Y-3243D01*
X-274736D01*
Y-3334D01*
X-274645D01*
Y-3426D01*
X-274553D01*
Y-3517D01*
X-274462D01*
Y-3609D01*
X-274370D01*
Y-3701D01*
X-274279D01*
Y-3792D01*
X-274187D01*
Y-3884D01*
X-274096D01*
Y-3975D01*
X-274004D01*
Y-4067D01*
X-273913D01*
Y-4158D01*
X-273821D01*
Y-4250D01*
X-273730D01*
Y-4341D01*
X-273638D01*
Y-4433D01*
X-273547D01*
Y-4524D01*
X-273455D01*
Y-4615D01*
X-273364D01*
Y-4707D01*
X-273272D01*
Y-4798D01*
X-273181D01*
Y-4890D01*
X-273089D01*
Y-4981D01*
X-272998D01*
Y-5073D01*
X-272906D01*
Y-5164D01*
X-272815D01*
Y-5256D01*
X-272723D01*
Y-5347D01*
X-272632D01*
Y-5439D01*
X-272540D01*
Y-5530D01*
X-272449D01*
Y-5622D01*
X-272357D01*
Y-5713D01*
X-272266D01*
Y-5805D01*
X-272174D01*
Y-5896D01*
X-272083D01*
Y-5988D01*
X-271991D01*
Y-6079D01*
X-271900D01*
Y-6171D01*
X-271808D01*
Y-6263D01*
X-271717D01*
Y-6354D01*
X-271625D01*
Y-6446D01*
X-271534D01*
Y-6537D01*
X-271351D01*
Y-6629D01*
X-271259D01*
Y-6720D01*
X-271168D01*
Y-6812D01*
X-271076D01*
Y-6903D01*
X-270985D01*
Y-6995D01*
X-270893D01*
Y-7086D01*
X-270802D01*
Y-7178D01*
X-270710D01*
Y-7269D01*
X-270619D01*
Y-7361D01*
X-270527D01*
Y-7452D01*
X-270436D01*
Y-7544D01*
X-270344D01*
Y-7635D01*
X-270253D01*
Y-7727D01*
X-270161D01*
Y-7818D01*
X-270070D01*
Y-7910D01*
X-269978D01*
Y-8001D01*
X-269887D01*
Y-8092D01*
X-269795D01*
Y-8184D01*
X-269704D01*
Y-8275D01*
X-269612D01*
Y-8367D01*
X-269521D01*
Y-8458D01*
X-269338D01*
Y-8550D01*
X-269246D01*
Y-8641D01*
X-269155D01*
Y-8733D01*
X-269063D01*
Y-8824D01*
X-268972D01*
Y-8916D01*
X-268880D01*
Y-9008D01*
X-268789D01*
Y-9099D01*
X-268697D01*
Y-9190D01*
X-268606D01*
Y-9282D01*
X-268514D01*
Y-9373D01*
X-268423D01*
Y-9465D01*
X-268331D01*
Y-9556D01*
X-268240D01*
Y-9648D01*
X-268148D01*
Y-9740D01*
X-268057D01*
Y-9831D01*
X-267965D01*
Y-9923D01*
X-267874D01*
Y-10014D01*
X-267782D01*
Y-10106D01*
X-267691D01*
Y-10197D01*
X-267599D01*
Y-10289D01*
X-267508D01*
Y-10380D01*
X-267416D01*
Y-10472D01*
X-267325D01*
Y-10563D01*
X-267233D01*
Y-10655D01*
X-267142D01*
Y-10746D01*
X-267050D01*
Y-10838D01*
X-266959D01*
Y-10929D01*
X-266867D01*
Y-11021D01*
X-266776D01*
Y-11112D01*
X-266684D01*
Y-11204D01*
X-266593D01*
Y-11295D01*
X-266501D01*
Y-11387D01*
X-266410D01*
Y-11478D01*
X-266318D01*
Y-11570D01*
X-266227D01*
Y-11661D01*
X-266135D01*
Y-11753D01*
X-266044D01*
Y-11844D01*
X-265952D01*
Y-11936D01*
X-265861D01*
Y-12027D01*
X-265769D01*
Y-12119D01*
X-265678D01*
Y-12210D01*
X-265586D01*
Y-12302D01*
X-265495D01*
Y-12393D01*
X-265403D01*
Y-12485D01*
X-265312D01*
Y-12576D01*
X-265220D01*
Y-12668D01*
X-265129D01*
Y-12759D01*
X-265037D01*
Y-12851D01*
X-264946D01*
Y-12942D01*
X-264854D01*
Y-13034D01*
X-264763D01*
Y-13125D01*
X-264671D01*
Y-13217D01*
X-264580D01*
Y-13308D01*
X-264488D01*
Y-13400D01*
X-264397D01*
Y-13491D01*
X-264305D01*
Y-13583D01*
Y-13674D01*
X-264214D01*
Y-13766D01*
X-264122D01*
Y-13857D01*
X-264031D01*
Y-13949D01*
X-263939D01*
Y-14040D01*
X-263848D01*
Y-14132D01*
X-263756D01*
Y-14223D01*
X-263665D01*
Y-14315D01*
X-263573D01*
Y-14406D01*
X-263482D01*
Y-14498D01*
X-263390D01*
Y-14589D01*
X-263299D01*
Y-14681D01*
Y-14772D01*
X-263207D01*
Y-14864D01*
X-263116D01*
Y-14955D01*
X-263024D01*
Y-15047D01*
X-262933D01*
Y-15138D01*
X-262841D01*
Y-15230D01*
X-262750D01*
Y-15321D01*
X-262658D01*
Y-15413D01*
Y-15504D01*
X-262567D01*
Y-15596D01*
X-262475D01*
Y-15687D01*
X-262384D01*
Y-15779D01*
X-262292D01*
Y-15870D01*
X-262201D01*
Y-15962D01*
X-262109D01*
Y-16053D01*
Y-16145D01*
X-262018D01*
Y-16236D01*
X-261926D01*
Y-16328D01*
X-261835D01*
Y-16419D01*
X-261743D01*
Y-16511D01*
X-261652D01*
Y-16602D01*
Y-16694D01*
X-261560D01*
Y-16785D01*
X-261469D01*
Y-16877D01*
X-261377D01*
Y-16968D01*
X-261286D01*
Y-17060D01*
Y-17151D01*
X-261194D01*
Y-17243D01*
X-261103D01*
Y-17334D01*
X-261011D01*
Y-17426D01*
X-260920D01*
Y-17517D01*
Y-17609D01*
X-260828D01*
Y-17700D01*
X-260737D01*
Y-17792D01*
X-260645D01*
Y-17883D01*
Y-17975D01*
X-260554D01*
Y-18066D01*
X-260462D01*
Y-18158D01*
X-260371D01*
Y-18249D01*
Y-18341D01*
X-260279D01*
Y-18432D01*
X-260188D01*
Y-18524D01*
X-260096D01*
Y-18615D01*
Y-18707D01*
X-260005D01*
Y-18798D01*
X-259913D01*
Y-18890D01*
Y-18981D01*
X-259822D01*
Y-19073D01*
X-259730D01*
Y-19164D01*
X-259639D01*
Y-19256D01*
Y-19347D01*
X-259547D01*
Y-19439D01*
X-259456D01*
Y-19530D01*
Y-19622D01*
X-259364D01*
Y-19713D01*
X-259273D01*
Y-19805D01*
Y-19896D01*
X-259181D01*
Y-19988D01*
X-259090D01*
Y-20079D01*
Y-20171D01*
X-258998D01*
Y-20262D01*
X-258907D01*
Y-20354D01*
Y-20445D01*
X-258815D01*
Y-20537D01*
Y-20628D01*
X-258724D01*
Y-20720D01*
X-258632D01*
Y-20811D01*
Y-20903D01*
X-258541D01*
Y-20994D01*
Y-21086D01*
X-258449D01*
Y-21177D01*
X-258358D01*
Y-21269D01*
Y-21360D01*
X-258266D01*
Y-21452D01*
Y-21543D01*
X-258175D01*
Y-21635D01*
Y-21726D01*
X-258083D01*
Y-21818D01*
X-257992D01*
Y-21909D01*
Y-22001D01*
X-257900D01*
Y-22092D01*
Y-22184D01*
X-257809D01*
Y-22275D01*
Y-22367D01*
X-257717D01*
Y-22458D01*
Y-22550D01*
X-257626D01*
Y-22641D01*
Y-22733D01*
X-257534D01*
Y-22824D01*
Y-22916D01*
X-257443D01*
Y-23007D01*
Y-23099D01*
X-257351D01*
Y-23190D01*
Y-23282D01*
X-257260D01*
Y-23373D01*
Y-23465D01*
X-257168D01*
Y-23556D01*
Y-23648D01*
X-257077D01*
Y-23739D01*
Y-23831D01*
Y-23922D01*
X-256985D01*
Y-24014D01*
Y-24105D01*
X-256894D01*
Y-24197D01*
Y-24288D01*
Y-24380D01*
X-256802D01*
Y-24471D01*
Y-24563D01*
X-256711D01*
Y-24654D01*
Y-24746D01*
Y-24837D01*
X-256619D01*
Y-24929D01*
Y-25020D01*
Y-25112D01*
X-256528D01*
Y-25203D01*
Y-25295D01*
X-256436D01*
Y-25386D01*
Y-25478D01*
Y-25569D01*
X-256345D01*
Y-25661D01*
Y-25752D01*
Y-25844D01*
Y-25935D01*
X-256253D01*
Y-26027D01*
Y-26118D01*
Y-26210D01*
X-256162D01*
Y-26301D01*
Y-26393D01*
Y-26484D01*
Y-26576D01*
X-256070D01*
Y-26667D01*
Y-26759D01*
Y-26850D01*
Y-26942D01*
X-255979D01*
Y-27033D01*
Y-27125D01*
Y-27216D01*
Y-27308D01*
Y-27399D01*
X-255887D01*
Y-27491D01*
Y-27582D01*
Y-27674D01*
Y-27765D01*
Y-27857D01*
X-255796D01*
Y-27948D01*
Y-28040D01*
Y-28131D01*
Y-28223D01*
Y-28314D01*
Y-28406D01*
Y-28497D01*
X-255704D01*
Y-28589D01*
Y-28680D01*
Y-28772D01*
Y-28863D01*
Y-28955D01*
Y-29046D01*
Y-29138D01*
Y-29229D01*
Y-29321D01*
Y-29412D01*
Y-29504D01*
Y-29595D01*
Y-29687D01*
Y-29778D01*
Y-29870D01*
Y-29961D01*
Y-30053D01*
Y-30144D01*
Y-30236D01*
Y-30327D01*
Y-30419D01*
Y-30510D01*
Y-30602D01*
Y-30693D01*
Y-30785D01*
Y-30876D01*
Y-30968D01*
Y-31059D01*
Y-31151D01*
Y-31242D01*
Y-31334D01*
Y-31425D01*
Y-31517D01*
Y-31608D01*
Y-31700D01*
Y-31791D01*
X-255796D01*
Y-31883D01*
Y-31974D01*
Y-32066D01*
Y-32157D01*
Y-32249D01*
Y-32340D01*
Y-32432D01*
X-255887D01*
Y-32523D01*
Y-32615D01*
Y-32706D01*
Y-32798D01*
Y-32889D01*
X-255979D01*
Y-32981D01*
Y-33072D01*
Y-33164D01*
Y-33255D01*
Y-33347D01*
X-256070D01*
Y-33438D01*
Y-33530D01*
Y-33621D01*
Y-33713D01*
X-256162D01*
Y-33804D01*
Y-33896D01*
Y-33987D01*
Y-34079D01*
X-256253D01*
Y-34170D01*
Y-34262D01*
Y-34353D01*
X-256345D01*
Y-34445D01*
Y-34536D01*
Y-34628D01*
X-256436D01*
Y-34719D01*
Y-34811D01*
Y-34902D01*
X-256528D01*
Y-34994D01*
Y-35085D01*
Y-35177D01*
X-256619D01*
Y-35268D01*
Y-35360D01*
Y-35451D01*
X-256711D01*
Y-35543D01*
Y-35634D01*
Y-35726D01*
X-256802D01*
Y-35817D01*
Y-35909D01*
X-256894D01*
Y-36000D01*
Y-36092D01*
Y-36183D01*
X-256985D01*
Y-36275D01*
Y-36366D01*
X-257077D01*
Y-36458D01*
Y-36549D01*
X-257168D01*
Y-36641D01*
Y-36732D01*
Y-36824D01*
X-257260D01*
Y-36915D01*
Y-37007D01*
X-257351D01*
Y-37098D01*
Y-37190D01*
X-257443D01*
Y-37281D01*
Y-37373D01*
X-257534D01*
Y-37464D01*
Y-37556D01*
X-257626D01*
Y-37647D01*
Y-37739D01*
X-257717D01*
Y-37830D01*
Y-37922D01*
X-257809D01*
Y-38013D01*
Y-38105D01*
X-257900D01*
Y-38196D01*
Y-38288D01*
X-257992D01*
Y-38379D01*
X-258083D01*
Y-38471D01*
Y-38562D01*
X-258175D01*
Y-38654D01*
Y-38745D01*
X-258266D01*
Y-38837D01*
Y-38928D01*
X-258358D01*
Y-39020D01*
X-258449D01*
Y-39111D01*
Y-39203D01*
X-258541D01*
Y-39295D01*
Y-39386D01*
X-258632D01*
Y-39477D01*
X-258724D01*
Y-39569D01*
Y-39660D01*
X-258815D01*
Y-39752D01*
Y-39843D01*
X-258907D01*
Y-39935D01*
X-258998D01*
Y-40026D01*
Y-40118D01*
X-259090D01*
Y-40209D01*
X-259181D01*
Y-40301D01*
Y-40392D01*
X-259273D01*
Y-40484D01*
X-259364D01*
Y-40575D01*
Y-40667D01*
X-259456D01*
Y-40758D01*
X-259547D01*
Y-40850D01*
Y-40941D01*
X-259639D01*
Y-41033D01*
X-259730D01*
Y-41124D01*
Y-41216D01*
X-259822D01*
Y-41308D01*
X-259913D01*
Y-41399D01*
X-260005D01*
Y-41490D01*
Y-41582D01*
X-260096D01*
Y-41673D01*
X-260188D01*
Y-41765D01*
Y-41856D01*
X-260279D01*
Y-41948D01*
X-260371D01*
Y-42039D01*
X-260462D01*
Y-42131D01*
Y-42222D01*
X-260554D01*
Y-42314D01*
X-260645D01*
Y-42406D01*
X-260737D01*
Y-42497D01*
Y-42589D01*
X-260828D01*
Y-42680D01*
X-260920D01*
Y-42771D01*
X-261011D01*
Y-42863D01*
X-261103D01*
Y-42954D01*
Y-43046D01*
X-261194D01*
Y-43137D01*
X-261286D01*
Y-43229D01*
X-261377D01*
Y-43320D01*
X-261469D01*
Y-43412D01*
Y-43503D01*
X-261560D01*
Y-43595D01*
X-261652D01*
Y-43686D01*
X-261743D01*
Y-43778D01*
X-261835D01*
Y-43870D01*
Y-43961D01*
X-261926D01*
Y-44052D01*
X-262018D01*
Y-44144D01*
X-262109D01*
Y-44235D01*
X-262201D01*
Y-44327D01*
X-262292D01*
Y-44419D01*
X-262384D01*
Y-44510D01*
Y-44601D01*
X-262475D01*
Y-44693D01*
X-262567D01*
Y-44784D01*
X-262658D01*
Y-44876D01*
X-262750D01*
Y-44967D01*
X-262841D01*
Y-45059D01*
X-262933D01*
Y-45150D01*
Y-45242D01*
X-263024D01*
Y-45333D01*
X-263116D01*
Y-45425D01*
X-263207D01*
Y-45516D01*
X-263299D01*
Y-45608D01*
X-263390D01*
Y-45700D01*
X-263482D01*
Y-45791D01*
X-263573D01*
Y-45883D01*
X-263665D01*
Y-45974D01*
X-263756D01*
Y-46066D01*
X-263848D01*
Y-46157D01*
Y-46248D01*
X-263939D01*
Y-46340D01*
X-264031D01*
Y-46431D01*
X-264122D01*
Y-46523D01*
X-264214D01*
Y-46614D01*
X-264305D01*
Y-46706D01*
X-264397D01*
Y-46797D01*
X-264488D01*
Y-46889D01*
X-264580D01*
Y-46981D01*
X-264671D01*
Y-47072D01*
X-264763D01*
Y-47164D01*
X-264854D01*
Y-47255D01*
X-264946D01*
Y-47347D01*
X-265037D01*
Y-47438D01*
X-265129D01*
Y-47530D01*
X-265220D01*
Y-47621D01*
X-265312D01*
Y-47712D01*
X-265403D01*
Y-47804D01*
Y-47895D01*
X-265495D01*
Y-47987D01*
X-265586D01*
Y-48078D01*
X-265678D01*
Y-48170D01*
X-265769D01*
Y-48261D01*
X-265861D01*
Y-48353D01*
X-265952D01*
Y-48444D01*
X-266044D01*
Y-48536D01*
X-266135D01*
Y-48628D01*
X-266227D01*
Y-48719D01*
X-266318D01*
Y-48811D01*
X-266410D01*
Y-48902D01*
X-266501D01*
Y-48994D01*
X-266593D01*
Y-49085D01*
X-266684D01*
Y-49177D01*
X-266776D01*
Y-49268D01*
X-266867D01*
Y-49359D01*
X-266959D01*
Y-49451D01*
X-267050D01*
Y-49542D01*
X-267142D01*
Y-49634D01*
X-267233D01*
Y-49725D01*
X-267325D01*
Y-49817D01*
X-267508D01*
Y-49908D01*
X-267599D01*
Y-50000D01*
X-267691D01*
Y-50092D01*
X-267782D01*
Y-50183D01*
X-267874D01*
Y-50275D01*
X-267965D01*
Y-50366D01*
X-268057D01*
Y-50458D01*
X-268148D01*
Y-50549D01*
X-268240D01*
Y-50641D01*
X-268331D01*
Y-50732D01*
X-268423D01*
Y-50824D01*
X-268514D01*
Y-50915D01*
X-268606D01*
Y-51006D01*
X-268697D01*
Y-51098D01*
X-268789D01*
Y-51189D01*
X-268880D01*
Y-51281D01*
X-268972D01*
Y-51373D01*
X-269063D01*
Y-51464D01*
X-269155D01*
Y-51556D01*
X-269246D01*
Y-51647D01*
X-269338D01*
Y-51739D01*
X-269429D01*
Y-51830D01*
X-269521D01*
Y-51922D01*
X-269612D01*
Y-52013D01*
X-269704D01*
Y-52105D01*
X-269887D01*
Y-52196D01*
X-269978D01*
Y-52288D01*
X-270070D01*
Y-52379D01*
X-270161D01*
Y-52470D01*
X-270253D01*
Y-52562D01*
X-270344D01*
Y-52654D01*
X-270436D01*
Y-52745D01*
X-270527D01*
Y-52836D01*
X-270619D01*
Y-52928D01*
X-270710D01*
Y-53020D01*
X-270802D01*
Y-53111D01*
X-270893D01*
Y-53203D01*
X-270985D01*
Y-53294D01*
X-271076D01*
Y-53386D01*
X-271168D01*
Y-53477D01*
X-271259D01*
Y-53569D01*
X-271351D01*
Y-53660D01*
X-271442D01*
Y-53752D01*
X-271534D01*
Y-53843D01*
X-271717D01*
Y-53935D01*
X-271808D01*
Y-54026D01*
X-271900D01*
Y-54118D01*
X-271991D01*
Y-54209D01*
X-272083D01*
Y-54301D01*
X-272174D01*
Y-54392D01*
X-272266D01*
Y-54484D01*
X-272357D01*
Y-54575D01*
X-272449D01*
Y-54667D01*
X-272540D01*
Y-54758D01*
X-272632D01*
Y-54850D01*
X-272723D01*
Y-54941D01*
X-272815D01*
Y-55033D01*
X-272906D01*
Y-55124D01*
X-272998D01*
Y-55216D01*
X-273089D01*
Y-55307D01*
X-273181D01*
Y-55399D01*
X-273272D01*
Y-55490D01*
X-273364D01*
Y-55582D01*
X-273455D01*
Y-55673D01*
X-273547D01*
Y-55765D01*
X-273638D01*
Y-55856D01*
X-273730D01*
Y-55948D01*
X-273821D01*
Y-56039D01*
X-273913D01*
Y-56131D01*
X-274004D01*
Y-56222D01*
X-274096D01*
Y-56314D01*
X-274187D01*
Y-56405D01*
X-274279D01*
Y-56497D01*
X-274370D01*
Y-56588D01*
X-274462D01*
Y-56680D01*
X-274553D01*
Y-56771D01*
X-274645D01*
Y-56863D01*
X-274736D01*
Y-56954D01*
X-274919D01*
Y-57046D01*
X-275011D01*
Y-57137D01*
X-275102D01*
Y-57229D01*
X-275194D01*
Y-57320D01*
X-275285D01*
Y-57412D01*
X-275377D01*
Y-57503D01*
X-275468D01*
Y-57595D01*
X-275560D01*
Y-57686D01*
X-275651D01*
Y-57778D01*
X-275834D01*
Y-57869D01*
X-275926D01*
Y-57961D01*
X-276017D01*
Y-58052D01*
X-276109D01*
Y-58144D01*
X-276200D01*
Y-58235D01*
X-276292D01*
Y-58327D01*
X-276475D01*
Y-58418D01*
X-276566D01*
Y-58510D01*
X-276658D01*
Y-58601D01*
X-276749D01*
Y-58693D01*
X-276841D01*
Y-58784D01*
X-277024D01*
Y-58876D01*
X-277115D01*
Y-58967D01*
X-277207D01*
Y-59059D01*
X-277390D01*
Y-59150D01*
X-277481D01*
Y-59242D01*
X-277573D01*
Y-59333D01*
X-277664D01*
Y-59425D01*
X-277847D01*
Y-59516D01*
X-277939D01*
Y-59608D01*
X-278030D01*
Y-59699D01*
X-278213D01*
Y-59791D01*
X-278305D01*
Y-59882D01*
X-278488D01*
Y-59974D01*
X-278579D01*
Y-60065D01*
X-278671D01*
Y-60157D01*
X-278854D01*
Y-60248D01*
X-278946D01*
Y-60340D01*
X-279128D01*
Y-60431D01*
X-279220D01*
Y-60523D01*
X-279403D01*
Y-60614D01*
X-279494D01*
Y-60706D01*
X-279677D01*
Y-60797D01*
X-279769D01*
Y-60889D01*
X-279952D01*
Y-60980D01*
X-280043D01*
Y-61072D01*
X-280226D01*
Y-61163D01*
X-280318D01*
Y-61255D01*
X-280501D01*
Y-61346D01*
X-280592D01*
Y-61438D01*
X-280776D01*
Y-61529D01*
X-280958D01*
Y-61621D01*
X-281050D01*
Y-61712D01*
X-281233D01*
Y-61804D01*
X-281416D01*
Y-61895D01*
X-281599D01*
Y-61987D01*
X-281691D01*
Y-62078D01*
X-281873D01*
Y-62170D01*
X-282057D01*
Y-62261D01*
X-282239D01*
Y-62353D01*
X-282331D01*
Y-62444D01*
X-282514D01*
Y-62536D01*
X-282697D01*
Y-62627D01*
X-282880D01*
Y-62719D01*
X-283063D01*
Y-62810D01*
X-283246D01*
Y-62902D01*
X-283429D01*
Y-62993D01*
X-283612D01*
Y-63085D01*
X-283795D01*
Y-63176D01*
X-283978D01*
Y-63268D01*
X-284161D01*
Y-63359D01*
X-284344D01*
Y-63451D01*
X-284527D01*
Y-63542D01*
X-284802D01*
Y-63634D01*
X-284984D01*
Y-63725D01*
X-285168D01*
Y-63817D01*
X-285350D01*
Y-63908D01*
X-285625D01*
Y-64000D01*
X-285808D01*
Y-64091D01*
X-286082D01*
Y-64183D01*
X-286266D01*
Y-64274D01*
X-286540D01*
Y-64366D01*
X-286723D01*
Y-64457D01*
X-286998D01*
Y-64549D01*
X-287272D01*
Y-64640D01*
X-287455D01*
Y-64732D01*
X-287729D01*
Y-64823D01*
X-288004D01*
Y-64915D01*
X-288279D01*
Y-65006D01*
X-288553D01*
Y-65098D01*
X-288828D01*
Y-65189D01*
X-289102D01*
Y-65281D01*
X-289468D01*
Y-65372D01*
X-289743D01*
Y-65464D01*
X-290109D01*
Y-65555D01*
X-290383D01*
Y-65647D01*
X-290749D01*
Y-65738D01*
X-291115D01*
Y-65830D01*
X-291572D01*
Y-65921D01*
X-291939D01*
Y-66013D01*
X-292396D01*
Y-66104D01*
X-292854D01*
Y-66196D01*
X-293311D01*
Y-66287D01*
X-293860D01*
Y-66379D01*
X-294409D01*
Y-66470D01*
X-295050D01*
Y-66562D01*
X-295782D01*
Y-66653D01*
X-296697D01*
Y-66745D01*
X-298069D01*
Y-66836D01*
X-301821D01*
Y-66745D01*
X-303193D01*
Y-66653D01*
X-304108D01*
Y-66562D01*
X-304840D01*
Y-66470D01*
X-305481D01*
Y-66379D01*
X-306030D01*
Y-66287D01*
X-306579D01*
Y-66196D01*
X-307036D01*
Y-66104D01*
X-307494D01*
Y-66013D01*
X-307951D01*
Y-65921D01*
X-308317D01*
Y-65830D01*
X-308775D01*
Y-65738D01*
X-309141D01*
Y-65647D01*
X-309415D01*
Y-65555D01*
X-309781D01*
Y-65464D01*
X-310147D01*
Y-65372D01*
X-310422D01*
Y-65281D01*
X-310696D01*
Y-65189D01*
X-311062D01*
Y-65098D01*
X-311337D01*
Y-65006D01*
X-311611D01*
Y-64915D01*
X-311886D01*
Y-64823D01*
X-312160D01*
Y-64732D01*
X-312435D01*
Y-64640D01*
X-312618D01*
Y-64549D01*
X-312892D01*
Y-64457D01*
X-313167D01*
Y-64366D01*
X-313350D01*
Y-64274D01*
X-313624D01*
Y-64183D01*
X-313807D01*
Y-64091D01*
X-314082D01*
Y-64000D01*
X-314265D01*
Y-63908D01*
X-314448D01*
Y-63817D01*
X-314722D01*
Y-63725D01*
X-314905D01*
Y-63634D01*
X-315088D01*
Y-63542D01*
X-315271D01*
Y-63451D01*
X-315546D01*
Y-63359D01*
X-315729D01*
Y-63268D01*
X-315912D01*
Y-63176D01*
X-316095D01*
Y-63085D01*
X-316278D01*
Y-62993D01*
X-316461D01*
Y-62902D01*
X-316644D01*
Y-62810D01*
X-316827D01*
Y-62719D01*
X-317010D01*
Y-62627D01*
X-317193D01*
Y-62536D01*
X-317376D01*
Y-62444D01*
X-317467D01*
Y-62353D01*
X-317650D01*
Y-62261D01*
X-317833D01*
Y-62170D01*
X-318016D01*
Y-62078D01*
X-318199D01*
Y-61987D01*
X-318291D01*
Y-61895D01*
X-318474D01*
Y-61804D01*
X-318657D01*
Y-61712D01*
X-318840D01*
Y-61621D01*
X-318931D01*
Y-61529D01*
X-319114D01*
Y-61438D01*
X-319206D01*
Y-61346D01*
X-319389D01*
Y-61255D01*
X-319572D01*
Y-61163D01*
X-319663D01*
Y-61072D01*
X-319846D01*
Y-60980D01*
X-319938D01*
Y-60889D01*
X-320121D01*
Y-60797D01*
X-320212D01*
Y-60706D01*
X-320395D01*
Y-60614D01*
X-320487D01*
Y-60523D01*
X-320670D01*
Y-60431D01*
X-320761D01*
Y-60340D01*
X-320944D01*
Y-60248D01*
X-321036D01*
Y-60157D01*
X-321219D01*
Y-60065D01*
X-321311D01*
Y-59974D01*
X-321402D01*
Y-59882D01*
X-321585D01*
Y-59791D01*
X-321676D01*
Y-59699D01*
X-321860D01*
Y-59608D01*
X-321951D01*
Y-59516D01*
X-322042D01*
Y-59425D01*
X-322225D01*
Y-59333D01*
X-322317D01*
Y-59242D01*
X-322408D01*
Y-59150D01*
X-322500D01*
Y-59059D01*
X-322683D01*
Y-58967D01*
X-322774D01*
Y-58876D01*
X-322866D01*
Y-58784D01*
X-322957D01*
Y-58693D01*
X-323140D01*
Y-58601D01*
X-323232D01*
Y-58510D01*
X-323324D01*
Y-58418D01*
X-323415D01*
Y-58327D01*
X-323598D01*
Y-58235D01*
X-323689D01*
Y-58144D01*
X-323781D01*
Y-58052D01*
X-323872D01*
Y-57961D01*
X-323964D01*
Y-57869D01*
X-324055D01*
Y-57778D01*
X-324238D01*
Y-57686D01*
X-324330D01*
Y-57595D01*
X-324422D01*
Y-57503D01*
X-324513D01*
Y-57412D01*
X-324604D01*
Y-57320D01*
X-324696D01*
Y-57229D01*
X-324787D01*
Y-57137D01*
X-324879D01*
Y-57046D01*
X-324971D01*
Y-56954D01*
X-325062D01*
Y-56863D01*
X-325245D01*
Y-56771D01*
X-325336D01*
Y-56680D01*
X-325428D01*
Y-56588D01*
X-325519D01*
Y-56497D01*
X-325611D01*
Y-56405D01*
X-325703D01*
Y-56314D01*
X-325794D01*
Y-56222D01*
X-325886D01*
Y-56131D01*
X-325977D01*
Y-56039D01*
X-326068D01*
Y-55948D01*
X-326160D01*
Y-55856D01*
X-326251D01*
Y-55765D01*
X-326343D01*
Y-55673D01*
X-326435D01*
Y-55582D01*
X-326526D01*
Y-55490D01*
X-326618D01*
Y-55399D01*
X-326709D01*
Y-55307D01*
Y-55216D01*
X-326800D01*
Y-55124D01*
X-326892D01*
Y-55033D01*
X-326983D01*
Y-54941D01*
X-327075D01*
Y-54850D01*
X-327166D01*
Y-54758D01*
X-327258D01*
Y-54667D01*
X-327350D01*
Y-54575D01*
X-327441D01*
Y-54484D01*
X-327533D01*
Y-54392D01*
X-327624D01*
Y-54301D01*
Y-54209D01*
X-327715D01*
Y-54118D01*
X-327807D01*
Y-54026D01*
X-327898D01*
Y-53935D01*
X-327990D01*
Y-53843D01*
X-328082D01*
Y-53752D01*
X-328173D01*
Y-53660D01*
Y-53569D01*
X-328265D01*
Y-53477D01*
X-328356D01*
Y-53386D01*
X-328447D01*
Y-53294D01*
X-328539D01*
Y-53203D01*
Y-53111D01*
X-328630D01*
Y-53020D01*
X-328722D01*
Y-52928D01*
X-328814D01*
Y-52836D01*
X-328905D01*
Y-52745D01*
Y-52654D01*
X-328997D01*
Y-52562D01*
X-329088D01*
Y-52470D01*
X-329179D01*
Y-52379D01*
X-329271D01*
Y-52288D01*
Y-52196D01*
X-329362D01*
Y-52105D01*
X-329454D01*
Y-52013D01*
X-329546D01*
Y-51922D01*
Y-51830D01*
X-329637D01*
Y-51739D01*
X-329729D01*
Y-51647D01*
Y-51556D01*
X-329820D01*
Y-51464D01*
X-329911D01*
Y-51373D01*
X-330003D01*
Y-51281D01*
Y-51189D01*
X-330095D01*
Y-51098D01*
X-330186D01*
Y-51006D01*
Y-50915D01*
X-330277D01*
Y-50824D01*
X-330369D01*
Y-50732D01*
Y-50641D01*
X-330461D01*
Y-50549D01*
X-330552D01*
Y-50458D01*
Y-50366D01*
X-330644D01*
Y-50275D01*
X-330735D01*
Y-50183D01*
Y-50092D01*
X-330826D01*
Y-50000D01*
X-330918D01*
Y-49908D01*
Y-49817D01*
X-331009D01*
Y-49725D01*
X-331101D01*
Y-49634D01*
Y-49542D01*
X-331193D01*
Y-49451D01*
Y-49359D01*
X-331284D01*
Y-49268D01*
X-331376D01*
Y-49177D01*
Y-49085D01*
X-331467D01*
Y-48994D01*
X-331558D01*
Y-48902D01*
Y-48811D01*
X-331650D01*
Y-48719D01*
Y-48628D01*
X-331742D01*
Y-48536D01*
Y-48444D01*
X-331833D01*
Y-48353D01*
X-331925D01*
Y-48261D01*
Y-48170D01*
X-332016D01*
Y-48078D01*
Y-47987D01*
X-332108D01*
Y-47895D01*
Y-47804D01*
X-332199D01*
Y-47712D01*
Y-47621D01*
X-332291D01*
Y-47530D01*
X-332382D01*
Y-47438D01*
Y-47347D01*
X-332474D01*
Y-47255D01*
Y-47164D01*
X-332565D01*
Y-47072D01*
Y-46981D01*
X-332657D01*
Y-46889D01*
Y-46797D01*
X-332748D01*
Y-46706D01*
Y-46614D01*
X-332840D01*
Y-46523D01*
Y-46431D01*
X-332931D01*
Y-46340D01*
Y-46248D01*
X-333023D01*
Y-46157D01*
Y-46066D01*
X-333114D01*
Y-45974D01*
Y-45883D01*
X-333206D01*
Y-45791D01*
Y-45700D01*
X-333297D01*
Y-45608D01*
Y-45516D01*
Y-45425D01*
X-333389D01*
Y-45333D01*
Y-45242D01*
X-333480D01*
Y-45150D01*
Y-45059D01*
X-333572D01*
Y-44967D01*
Y-44876D01*
X-333663D01*
Y-44784D01*
Y-44693D01*
Y-44601D01*
X-333755D01*
Y-44510D01*
Y-44419D01*
X-333846D01*
Y-44327D01*
Y-44235D01*
X-333938D01*
Y-44144D01*
Y-44052D01*
Y-43961D01*
X-334029D01*
Y-43870D01*
Y-43778D01*
X-334121D01*
Y-43686D01*
Y-43595D01*
Y-43503D01*
X-334212D01*
Y-43412D01*
Y-43320D01*
X-334304D01*
Y-43229D01*
Y-43137D01*
Y-43046D01*
X-334395D01*
Y-42954D01*
Y-42863D01*
Y-42771D01*
X-334487D01*
Y-42680D01*
Y-42589D01*
X-334578D01*
Y-42497D01*
Y-42406D01*
Y-42314D01*
X-334670D01*
Y-42222D01*
Y-42131D01*
Y-42039D01*
X-334761D01*
Y-41948D01*
Y-41856D01*
Y-41765D01*
X-334853D01*
Y-41673D01*
Y-41582D01*
Y-41490D01*
X-334944D01*
Y-41399D01*
Y-41308D01*
Y-41216D01*
X-335036D01*
Y-41124D01*
Y-41033D01*
Y-40941D01*
Y-40850D01*
X-335127D01*
Y-40758D01*
Y-40667D01*
Y-40575D01*
X-335219D01*
Y-40484D01*
Y-40392D01*
Y-40301D01*
X-335310D01*
Y-40209D01*
Y-40118D01*
Y-40026D01*
Y-39935D01*
X-335402D01*
Y-39843D01*
Y-39752D01*
Y-39660D01*
Y-39569D01*
X-335493D01*
Y-39477D01*
Y-39386D01*
Y-39295D01*
X-335585D01*
Y-39203D01*
Y-39111D01*
Y-39020D01*
Y-38928D01*
X-335676D01*
Y-38837D01*
Y-38745D01*
Y-38654D01*
Y-38562D01*
Y-38471D01*
X-335768D01*
Y-38379D01*
Y-38288D01*
Y-38196D01*
Y-38105D01*
X-335859D01*
Y-38013D01*
Y-37922D01*
Y-37830D01*
Y-37739D01*
Y-37647D01*
X-335951D01*
Y-37556D01*
Y-37464D01*
Y-37373D01*
Y-37281D01*
Y-37190D01*
X-336042D01*
Y-37098D01*
Y-37007D01*
Y-36915D01*
Y-36824D01*
Y-36732D01*
X-336134D01*
Y-36641D01*
Y-36549D01*
Y-36458D01*
Y-36366D01*
Y-36275D01*
Y-36183D01*
X-336225D01*
Y-36092D01*
Y-36000D01*
Y-35909D01*
Y-35817D01*
Y-35726D01*
Y-35634D01*
X-336317D01*
Y-35543D01*
Y-35451D01*
Y-35360D01*
Y-35268D01*
Y-35177D01*
Y-35085D01*
Y-34994D01*
X-336408D01*
Y-34902D01*
Y-34811D01*
Y-34719D01*
Y-34628D01*
Y-34536D01*
Y-34445D01*
Y-34353D01*
Y-34262D01*
X-336500D01*
Y-34170D01*
Y-34079D01*
Y-33987D01*
Y-33896D01*
Y-33804D01*
Y-33713D01*
Y-33621D01*
Y-33530D01*
Y-33438D01*
Y-33347D01*
Y-33255D01*
X-336591D01*
Y-33164D01*
Y-33072D01*
Y-32981D01*
Y-32889D01*
Y-32798D01*
Y-32706D01*
Y-32615D01*
Y-32523D01*
Y-32432D01*
Y-32340D01*
Y-32249D01*
Y-32157D01*
Y-32066D01*
Y-31974D01*
X-336683D01*
Y-31883D01*
Y-31791D01*
Y-31700D01*
Y-31608D01*
Y-31517D01*
Y-31425D01*
Y-31334D01*
Y-31242D01*
Y-31151D01*
Y-31059D01*
Y-30968D01*
Y-30876D01*
Y-30785D01*
Y-30693D01*
Y-30602D01*
Y-30510D01*
Y-30419D01*
Y-30327D01*
Y-30236D01*
Y-30144D01*
Y-30053D01*
Y-29961D01*
Y-29870D01*
Y-29778D01*
Y-29687D01*
Y-29595D01*
Y-29504D01*
Y-29412D01*
Y-29321D01*
Y-29229D01*
Y-29138D01*
Y-29046D01*
Y-28955D01*
Y-28863D01*
Y-28772D01*
Y-28680D01*
Y-28589D01*
Y-28497D01*
Y-28406D01*
Y-28314D01*
Y-28223D01*
X-336591D01*
Y-28131D01*
Y-28040D01*
Y-27948D01*
Y-27857D01*
Y-27765D01*
Y-27674D01*
Y-27582D01*
Y-27491D01*
Y-27399D01*
Y-27308D01*
Y-27216D01*
Y-27125D01*
Y-27033D01*
Y-26942D01*
X-336500D01*
Y-26850D01*
Y-26759D01*
Y-26667D01*
Y-26576D01*
Y-26484D01*
Y-26393D01*
Y-26301D01*
Y-26210D01*
Y-26118D01*
Y-26027D01*
Y-25935D01*
X-336408D01*
Y-25844D01*
Y-25752D01*
Y-25661D01*
Y-25569D01*
Y-25478D01*
Y-25386D01*
Y-25295D01*
Y-25203D01*
X-336317D01*
Y-25112D01*
Y-25020D01*
Y-24929D01*
Y-24837D01*
Y-24746D01*
Y-24654D01*
Y-24563D01*
X-336225D01*
Y-24471D01*
Y-24380D01*
Y-24288D01*
Y-24197D01*
Y-24105D01*
Y-24014D01*
X-336134D01*
Y-23922D01*
Y-23831D01*
Y-23739D01*
Y-23648D01*
Y-23556D01*
Y-23465D01*
X-336042D01*
Y-23373D01*
Y-23282D01*
Y-23190D01*
Y-23099D01*
Y-23007D01*
X-335951D01*
Y-22916D01*
Y-22824D01*
Y-22733D01*
Y-22641D01*
Y-22550D01*
X-335859D01*
Y-22458D01*
Y-22367D01*
Y-22275D01*
Y-22184D01*
Y-22092D01*
X-335768D01*
Y-22001D01*
Y-21909D01*
Y-21818D01*
Y-21726D01*
X-335676D01*
Y-21635D01*
Y-21543D01*
Y-21452D01*
Y-21360D01*
Y-21269D01*
X-335585D01*
Y-21177D01*
Y-21086D01*
Y-20994D01*
Y-20903D01*
X-335493D01*
Y-20811D01*
Y-20720D01*
Y-20628D01*
X-335402D01*
Y-20537D01*
Y-20445D01*
Y-20354D01*
Y-20262D01*
X-335310D01*
Y-20171D01*
Y-20079D01*
Y-19988D01*
Y-19896D01*
X-335219D01*
Y-19805D01*
Y-19713D01*
Y-19622D01*
X-335127D01*
Y-19530D01*
Y-19439D01*
Y-19347D01*
X-335036D01*
Y-19256D01*
Y-19164D01*
Y-19073D01*
Y-18981D01*
X-334944D01*
Y-18890D01*
Y-18798D01*
Y-18707D01*
X-334853D01*
Y-18615D01*
Y-18524D01*
Y-18432D01*
X-334761D01*
Y-18341D01*
Y-18249D01*
Y-18158D01*
X-334670D01*
Y-18066D01*
Y-17975D01*
Y-17883D01*
X-334578D01*
Y-17792D01*
Y-17700D01*
Y-17609D01*
X-334487D01*
Y-17517D01*
Y-17426D01*
X-334395D01*
Y-17334D01*
Y-17243D01*
Y-17151D01*
X-334304D01*
Y-17060D01*
Y-16968D01*
Y-16877D01*
X-334212D01*
Y-16785D01*
Y-16694D01*
X-334121D01*
Y-16602D01*
Y-16511D01*
Y-16419D01*
X-334029D01*
Y-16328D01*
Y-16236D01*
X-333938D01*
Y-16145D01*
Y-16053D01*
Y-15962D01*
X-333846D01*
Y-15870D01*
Y-15779D01*
X-333755D01*
Y-15687D01*
Y-15596D01*
X-333663D01*
Y-15504D01*
Y-15413D01*
Y-15321D01*
X-333572D01*
Y-15230D01*
Y-15138D01*
X-333480D01*
Y-15047D01*
Y-14955D01*
X-333389D01*
Y-14864D01*
Y-14772D01*
X-333297D01*
Y-14681D01*
Y-14589D01*
Y-14498D01*
X-333206D01*
Y-14406D01*
Y-14315D01*
X-333114D01*
Y-14223D01*
Y-14132D01*
X-333023D01*
Y-14040D01*
Y-13949D01*
X-332931D01*
Y-13857D01*
Y-13766D01*
X-332840D01*
Y-13674D01*
Y-13583D01*
X-332748D01*
Y-13491D01*
Y-13400D01*
X-332657D01*
Y-13308D01*
Y-13217D01*
X-332565D01*
Y-13125D01*
Y-13034D01*
X-332474D01*
Y-12942D01*
Y-12851D01*
X-332382D01*
Y-12759D01*
Y-12668D01*
X-332291D01*
Y-12576D01*
X-332199D01*
Y-12485D01*
Y-12393D01*
X-332108D01*
Y-12302D01*
Y-12210D01*
X-332016D01*
Y-12119D01*
Y-12027D01*
X-331925D01*
Y-11936D01*
Y-11844D01*
X-331833D01*
Y-11753D01*
X-331742D01*
Y-11661D01*
Y-11570D01*
X-331650D01*
Y-11478D01*
Y-11387D01*
X-331558D01*
Y-11295D01*
Y-11204D01*
X-331467D01*
Y-11112D01*
X-331376D01*
Y-11021D01*
Y-10929D01*
X-331284D01*
Y-10838D01*
X-331193D01*
Y-10746D01*
Y-10655D01*
X-331101D01*
Y-10563D01*
Y-10472D01*
X-331009D01*
Y-10380D01*
X-330918D01*
Y-10289D01*
Y-10197D01*
X-330826D01*
Y-10106D01*
X-330735D01*
Y-10014D01*
Y-9923D01*
X-330644D01*
Y-9831D01*
X-330552D01*
Y-9740D01*
Y-9648D01*
X-330461D01*
Y-9556D01*
X-330369D01*
Y-9465D01*
Y-9373D01*
X-330277D01*
Y-9282D01*
X-330186D01*
Y-9190D01*
Y-9099D01*
X-330095D01*
Y-9008D01*
X-330003D01*
Y-8916D01*
Y-8824D01*
X-329911D01*
Y-8733D01*
X-329820D01*
Y-8641D01*
X-329729D01*
Y-8550D01*
Y-8458D01*
X-329637D01*
Y-8367D01*
X-329546D01*
Y-8275D01*
Y-8184D01*
X-329454D01*
Y-8092D01*
X-329362D01*
Y-8001D01*
X-329271D01*
Y-7910D01*
Y-7818D01*
X-329179D01*
Y-7727D01*
X-329088D01*
Y-7635D01*
X-328997D01*
Y-7544D01*
X-328905D01*
Y-7452D01*
Y-7361D01*
X-328814D01*
Y-7269D01*
X-328722D01*
Y-7178D01*
X-328630D01*
Y-7086D01*
X-328539D01*
Y-6995D01*
Y-6903D01*
X-328447D01*
Y-6812D01*
X-328356D01*
Y-6720D01*
X-328265D01*
Y-6629D01*
X-328173D01*
Y-6537D01*
Y-6446D01*
X-328082D01*
Y-6354D01*
X-327990D01*
Y-6263D01*
X-327898D01*
Y-6171D01*
X-327807D01*
Y-6079D01*
X-327715D01*
Y-5988D01*
X-327624D01*
Y-5896D01*
Y-5805D01*
X-327533D01*
Y-5713D01*
X-327441D01*
Y-5622D01*
X-327350D01*
Y-5530D01*
X-327258D01*
Y-5439D01*
X-327166D01*
Y-5347D01*
X-327075D01*
Y-5256D01*
X-326983D01*
Y-5164D01*
X-326892D01*
Y-5073D01*
X-326800D01*
Y-4981D01*
X-326709D01*
Y-4890D01*
Y-4798D01*
X-326618D01*
Y-4707D01*
X-326526D01*
Y-4615D01*
X-326435D01*
Y-4524D01*
X-326343D01*
Y-4433D01*
X-326251D01*
Y-4341D01*
X-326160D01*
Y-4250D01*
X-326068D01*
Y-4158D01*
X-325977D01*
Y-4067D01*
X-325886D01*
Y-3975D01*
X-325794D01*
Y-3884D01*
X-325703D01*
Y-3792D01*
X-325611D01*
Y-3701D01*
X-325519D01*
Y-3609D01*
X-325428D01*
Y-3517D01*
X-325336D01*
Y-3426D01*
X-325245D01*
Y-3334D01*
X-325062D01*
Y-3243D01*
X-324971D01*
Y-3151D01*
X-324879D01*
Y-3060D01*
X-324787D01*
Y-2968D01*
X-324696D01*
Y-2877D01*
X-324604D01*
Y-2785D01*
X-324513D01*
Y-2694D01*
X-324422D01*
Y-2603D01*
X-324330D01*
Y-2511D01*
X-324238D01*
Y-2420D01*
X-324055D01*
Y-2328D01*
X-323964D01*
Y-2236D01*
X-323872D01*
Y-2145D01*
X-323781D01*
Y-2053D01*
X-323689D01*
Y-1962D01*
X-323598D01*
Y-1870D01*
X-323415D01*
Y-1779D01*
X-323324D01*
Y-1687D01*
X-323232D01*
Y-1596D01*
X-323140D01*
Y-1505D01*
X-322957D01*
Y-1413D01*
X-322866D01*
Y-1321D01*
X-322774D01*
Y-1230D01*
X-322683D01*
Y-1138D01*
X-322500D01*
Y-1047D01*
X-322408D01*
Y-955D01*
X-322317D01*
Y-864D01*
X-322225D01*
Y-772D01*
X-322042D01*
Y-681D01*
X-321951D01*
Y-589D01*
X-321860D01*
Y-498D01*
X-321676D01*
Y-406D01*
X-321585D01*
Y-315D01*
X-321402D01*
Y-223D01*
X-321311D01*
Y-132D01*
X-321219D01*
Y-40D01*
X-321036D01*
Y51D01*
X-320944D01*
Y143D01*
X-320761D01*
Y234D01*
X-320670D01*
Y326D01*
X-320487D01*
Y417D01*
X-320395D01*
Y509D01*
X-320212D01*
Y600D01*
X-320121D01*
Y692D01*
X-319938D01*
Y783D01*
X-319846D01*
Y874D01*
X-319663D01*
Y966D01*
X-319572D01*
Y1058D01*
X-319389D01*
Y1149D01*
X-319206D01*
Y1241D01*
X-319114D01*
Y1332D01*
X-318931D01*
Y1424D01*
X-318840D01*
Y1515D01*
X-318657D01*
Y1607D01*
X-318474D01*
Y1698D01*
X-318291D01*
Y1790D01*
X-318199D01*
Y1881D01*
X-318016D01*
Y1972D01*
X-317833D01*
Y2064D01*
X-317650D01*
Y2156D01*
X-317467D01*
Y2247D01*
X-317376D01*
Y2339D01*
X-317193D01*
Y2430D01*
X-317010D01*
Y2522D01*
X-316827D01*
Y2613D01*
X-316644D01*
Y2705D01*
X-316461D01*
Y2796D01*
X-316278D01*
Y2888D01*
X-316095D01*
Y2979D01*
X-315912D01*
Y3071D01*
X-315729D01*
Y3162D01*
X-315546D01*
Y3254D01*
X-315363D01*
Y3345D01*
X-315088D01*
Y3437D01*
X-314905D01*
Y3528D01*
X-314722D01*
Y3620D01*
X-314448D01*
Y3711D01*
X-314265D01*
Y3803D01*
X-314082D01*
Y3894D01*
X-313807D01*
Y3986D01*
X-313624D01*
Y4077D01*
X-313350D01*
Y4169D01*
X-313167D01*
Y4260D01*
X-312892D01*
Y4352D01*
X-312618D01*
Y4443D01*
X-312435D01*
Y4535D01*
X-312160D01*
Y4626D01*
X-311886D01*
Y4718D01*
X-311611D01*
Y4809D01*
X-311337D01*
Y4901D01*
X-311062D01*
Y4992D01*
X-310788D01*
Y5084D01*
X-310422D01*
Y5175D01*
X-310147D01*
Y5267D01*
X-309781D01*
Y5358D01*
X-309415D01*
Y5450D01*
X-309141D01*
Y5541D01*
X-308775D01*
Y5633D01*
X-308317D01*
Y5724D01*
X-307951D01*
Y5816D01*
X-307494D01*
Y5907D01*
X-307036D01*
Y5999D01*
X-306579D01*
Y6090D01*
X-306030D01*
Y6182D01*
X-305481D01*
Y6273D01*
X-304840D01*
Y6365D01*
X-304108D01*
Y6456D01*
X-303193D01*
Y6548D01*
X-301821D01*
Y6639D01*
X-298069D01*
Y6548D01*
D02*
G37*
G36*
X-233927Y-18158D02*
X-233286D01*
Y-18249D01*
X-232829D01*
Y-18341D01*
X-232371D01*
Y-18432D01*
X-232097D01*
Y-18524D01*
X-231731D01*
Y-18615D01*
X-231456D01*
Y-18707D01*
X-231273D01*
Y-18798D01*
X-230999D01*
Y-18890D01*
X-230816D01*
Y-18981D01*
X-230541D01*
Y-19073D01*
X-230358D01*
Y-19164D01*
X-230175D01*
Y-19256D01*
X-229992D01*
Y-19347D01*
X-229809D01*
Y-19439D01*
X-229626D01*
Y-19530D01*
X-229443D01*
Y-19622D01*
X-229352D01*
Y-19713D01*
X-229169D01*
Y-19805D01*
X-229077D01*
Y-19896D01*
X-228894D01*
Y-19988D01*
X-228803D01*
Y-20079D01*
X-228620D01*
Y-20171D01*
X-228528D01*
Y-20262D01*
X-228345D01*
Y-20354D01*
X-228254D01*
Y-20445D01*
X-228162D01*
Y-20537D01*
X-227979D01*
Y-20628D01*
X-227888D01*
Y-20720D01*
X-227796D01*
Y-20811D01*
X-227705D01*
Y-20903D01*
X-227613D01*
Y-20994D01*
X-227522D01*
Y-21086D01*
X-227430D01*
Y-21177D01*
X-227339D01*
Y-21269D01*
X-227156D01*
Y-21360D01*
X-227064D01*
Y-21452D01*
X-226973D01*
Y-21543D01*
Y-21635D01*
X-226881D01*
Y-21726D01*
X-226790D01*
Y-21818D01*
X-226698D01*
Y-21909D01*
X-226607D01*
Y-22001D01*
X-226515D01*
Y-22092D01*
X-226424D01*
Y-22184D01*
X-226332D01*
Y-22275D01*
Y-22367D01*
X-226241D01*
Y-22458D01*
X-226149D01*
Y-22550D01*
X-226058D01*
Y-22641D01*
X-225966D01*
Y-22733D01*
Y-22824D01*
X-225875D01*
Y-22916D01*
X-225783D01*
Y-23007D01*
Y-23099D01*
X-225692D01*
Y-23190D01*
X-225600D01*
Y-23282D01*
Y-23373D01*
X-225509D01*
Y-23465D01*
X-225417D01*
Y-23556D01*
Y-23648D01*
X-225326D01*
Y-23739D01*
Y-23831D01*
X-225234D01*
Y-23922D01*
Y-24014D01*
X-225143D01*
Y-24105D01*
X-225051D01*
Y-24197D01*
Y-24288D01*
X-224960D01*
Y-24380D01*
Y-24471D01*
X-224868D01*
Y-24563D01*
Y-24654D01*
X-224777D01*
Y-24746D01*
Y-24837D01*
Y-24929D01*
X-224685D01*
Y-25020D01*
Y-25112D01*
X-224594D01*
Y-25203D01*
Y-25295D01*
Y-25386D01*
X-224502D01*
Y-25478D01*
Y-25569D01*
X-224411D01*
Y-25661D01*
Y-25752D01*
Y-25844D01*
X-224319D01*
Y-25935D01*
Y-26027D01*
Y-26118D01*
X-224228D01*
Y-26210D01*
Y-26301D01*
Y-26393D01*
Y-26484D01*
X-224136D01*
Y-26576D01*
Y-26667D01*
Y-26759D01*
Y-26850D01*
X-224045D01*
Y-26942D01*
Y-27033D01*
Y-27125D01*
Y-27216D01*
X-223953D01*
Y-27308D01*
Y-27399D01*
Y-27491D01*
Y-27582D01*
Y-27674D01*
Y-27765D01*
X-223862D01*
Y-27857D01*
Y-27948D01*
Y-28040D01*
Y-28131D01*
Y-28223D01*
Y-28314D01*
Y-28406D01*
Y-28497D01*
X-223770D01*
Y-28589D01*
Y-28680D01*
Y-28772D01*
Y-28863D01*
Y-28955D01*
Y-29046D01*
Y-29138D01*
Y-29229D01*
Y-29321D01*
Y-29412D01*
Y-29504D01*
Y-29595D01*
Y-29687D01*
Y-29778D01*
Y-29870D01*
Y-29961D01*
Y-30053D01*
Y-30144D01*
Y-30236D01*
Y-30327D01*
Y-30419D01*
Y-30510D01*
Y-30602D01*
Y-30693D01*
X-223862D01*
Y-30785D01*
Y-30876D01*
Y-30968D01*
Y-31059D01*
Y-31151D01*
Y-31242D01*
Y-31334D01*
Y-31425D01*
X-223953D01*
Y-31517D01*
Y-31608D01*
Y-31700D01*
Y-31791D01*
Y-31883D01*
Y-31974D01*
X-224045D01*
Y-32066D01*
Y-32157D01*
Y-32249D01*
Y-32340D01*
X-224136D01*
Y-32432D01*
Y-32523D01*
Y-32615D01*
Y-32706D01*
X-224228D01*
Y-32798D01*
Y-32889D01*
Y-32981D01*
Y-33072D01*
X-224319D01*
Y-33164D01*
Y-33255D01*
Y-33347D01*
X-224411D01*
Y-33438D01*
Y-33530D01*
Y-33621D01*
X-224502D01*
Y-33713D01*
Y-33804D01*
X-224594D01*
Y-33896D01*
Y-33987D01*
Y-34079D01*
X-224685D01*
Y-34170D01*
Y-34262D01*
X-224777D01*
Y-34353D01*
Y-34445D01*
Y-34536D01*
X-224868D01*
Y-34628D01*
Y-34719D01*
X-224960D01*
Y-34811D01*
Y-34902D01*
X-225051D01*
Y-34994D01*
Y-35085D01*
X-225143D01*
Y-35177D01*
Y-35268D01*
X-225234D01*
Y-35360D01*
X-225326D01*
Y-35451D01*
Y-35543D01*
X-225417D01*
Y-35634D01*
Y-35726D01*
X-225509D01*
Y-35817D01*
X-225600D01*
Y-35909D01*
Y-36000D01*
X-225692D01*
Y-36092D01*
Y-36183D01*
X-225783D01*
Y-36275D01*
X-225875D01*
Y-36366D01*
X-225966D01*
Y-36458D01*
Y-36549D01*
X-226058D01*
Y-36641D01*
X-226149D01*
Y-36732D01*
Y-36824D01*
X-226241D01*
Y-36915D01*
X-226332D01*
Y-37007D01*
X-226424D01*
Y-37098D01*
X-226515D01*
Y-37190D01*
X-226607D01*
Y-37281D01*
Y-37373D01*
X-226698D01*
Y-37464D01*
X-226790D01*
Y-37556D01*
X-226881D01*
Y-37647D01*
X-226973D01*
Y-37739D01*
X-227064D01*
Y-37830D01*
X-227156D01*
Y-37922D01*
X-227247D01*
Y-38013D01*
X-227339D01*
Y-38105D01*
X-227430D01*
Y-38196D01*
X-227522D01*
Y-38288D01*
X-227613D01*
Y-38379D01*
X-227705D01*
Y-38471D01*
X-227796D01*
Y-38562D01*
X-227979D01*
Y-38654D01*
X-228071D01*
Y-38745D01*
X-228162D01*
Y-38837D01*
X-228254D01*
Y-38928D01*
X-228437D01*
Y-39020D01*
X-228528D01*
Y-39111D01*
X-228620D01*
Y-39203D01*
X-228803D01*
Y-39295D01*
X-228894D01*
Y-39386D01*
X-229077D01*
Y-39477D01*
X-229169D01*
Y-39569D01*
X-229352D01*
Y-39660D01*
X-229535D01*
Y-39752D01*
X-229626D01*
Y-39843D01*
X-229809D01*
Y-39935D01*
X-229992D01*
Y-40026D01*
X-230175D01*
Y-40118D01*
X-230358D01*
Y-40209D01*
X-230541D01*
Y-40301D01*
X-230724D01*
Y-40392D01*
X-230999D01*
Y-40484D01*
X-231182D01*
Y-40575D01*
X-231456D01*
Y-40667D01*
X-231731D01*
Y-40758D01*
X-232005D01*
Y-40850D01*
X-232280D01*
Y-40941D01*
X-232646D01*
Y-41033D01*
X-233103D01*
Y-41124D01*
X-233561D01*
Y-41216D01*
X-234293D01*
Y-41308D01*
X-236763D01*
Y-41216D01*
X-237404D01*
Y-41124D01*
X-237953D01*
Y-41033D01*
X-238319D01*
Y-40941D01*
X-238685D01*
Y-40850D01*
X-238960D01*
Y-40758D01*
X-239326D01*
Y-40667D01*
X-239508D01*
Y-40575D01*
X-239783D01*
Y-40484D01*
X-240058D01*
Y-40392D01*
X-240240D01*
Y-40301D01*
X-240424D01*
Y-40209D01*
X-240606D01*
Y-40118D01*
X-240790D01*
Y-40026D01*
X-240972D01*
Y-39935D01*
X-241155D01*
Y-39843D01*
X-241339D01*
Y-39752D01*
X-241521D01*
Y-39660D01*
X-241613D01*
Y-39569D01*
X-241796D01*
Y-39477D01*
X-241887D01*
Y-39386D01*
X-242071D01*
Y-39295D01*
X-242162D01*
Y-39203D01*
X-242345D01*
Y-39111D01*
X-242437D01*
Y-39020D01*
X-242619D01*
Y-38928D01*
X-242711D01*
Y-38837D01*
X-242803D01*
Y-38745D01*
X-242894D01*
Y-38654D01*
X-243077D01*
Y-38562D01*
X-243169D01*
Y-38471D01*
X-243260D01*
Y-38379D01*
X-243351D01*
Y-38288D01*
X-243443D01*
Y-38196D01*
X-243535D01*
Y-38105D01*
X-243626D01*
Y-38013D01*
X-243717D01*
Y-37922D01*
X-243809D01*
Y-37830D01*
X-243901D01*
Y-37739D01*
X-243992D01*
Y-37647D01*
X-244083D01*
Y-37556D01*
X-244175D01*
Y-37464D01*
X-244266D01*
Y-37373D01*
X-244358D01*
Y-37281D01*
X-244450D01*
Y-37190D01*
X-244541D01*
Y-37098D01*
X-244632D01*
Y-37007D01*
Y-36915D01*
X-244724D01*
Y-36824D01*
X-244816D01*
Y-36732D01*
X-244907D01*
Y-36641D01*
Y-36549D01*
X-244998D01*
Y-36458D01*
X-245090D01*
Y-36366D01*
X-245182D01*
Y-36275D01*
Y-36183D01*
X-245273D01*
Y-36092D01*
X-245365D01*
Y-36000D01*
Y-35909D01*
X-245456D01*
Y-35817D01*
Y-35726D01*
X-245548D01*
Y-35634D01*
X-245639D01*
Y-35543D01*
Y-35451D01*
X-245731D01*
Y-35360D01*
Y-35268D01*
X-245822D01*
Y-35177D01*
Y-35085D01*
X-245914D01*
Y-34994D01*
Y-34902D01*
X-246005D01*
Y-34811D01*
Y-34719D01*
X-246097D01*
Y-34628D01*
Y-34536D01*
X-246188D01*
Y-34445D01*
Y-34353D01*
X-246280D01*
Y-34262D01*
Y-34170D01*
X-246371D01*
Y-34079D01*
Y-33987D01*
Y-33896D01*
X-246463D01*
Y-33804D01*
Y-33713D01*
X-246554D01*
Y-33621D01*
Y-33530D01*
Y-33438D01*
X-246646D01*
Y-33347D01*
Y-33255D01*
Y-33164D01*
X-246737D01*
Y-33072D01*
Y-32981D01*
Y-32889D01*
Y-32798D01*
X-246828D01*
Y-32706D01*
Y-32615D01*
Y-32523D01*
X-246920D01*
Y-32432D01*
Y-32340D01*
Y-32249D01*
Y-32157D01*
Y-32066D01*
X-247012D01*
Y-31974D01*
Y-31883D01*
Y-31791D01*
Y-31700D01*
Y-31608D01*
X-247103D01*
Y-31517D01*
Y-31425D01*
Y-31334D01*
Y-31242D01*
Y-31151D01*
Y-31059D01*
Y-30968D01*
X-247195D01*
Y-30876D01*
Y-30785D01*
Y-30693D01*
Y-30602D01*
Y-30510D01*
Y-30419D01*
Y-30327D01*
Y-30236D01*
Y-30144D01*
Y-30053D01*
Y-29961D01*
Y-29870D01*
Y-29778D01*
Y-29687D01*
Y-29595D01*
Y-29504D01*
Y-29412D01*
Y-29321D01*
Y-29229D01*
Y-29138D01*
Y-29046D01*
Y-28955D01*
Y-28863D01*
Y-28772D01*
Y-28680D01*
Y-28589D01*
Y-28497D01*
Y-28406D01*
Y-28314D01*
Y-28223D01*
X-247103D01*
Y-28131D01*
Y-28040D01*
Y-27948D01*
Y-27857D01*
Y-27765D01*
Y-27674D01*
Y-27582D01*
X-247012D01*
Y-27491D01*
Y-27399D01*
Y-27308D01*
Y-27216D01*
Y-27125D01*
Y-27033D01*
X-246920D01*
Y-26942D01*
Y-26850D01*
Y-26759D01*
Y-26667D01*
X-246828D01*
Y-26576D01*
Y-26484D01*
Y-26393D01*
Y-26301D01*
X-246737D01*
Y-26210D01*
Y-26118D01*
Y-26027D01*
X-246646D01*
Y-25935D01*
Y-25844D01*
Y-25752D01*
X-246554D01*
Y-25661D01*
Y-25569D01*
Y-25478D01*
X-246463D01*
Y-25386D01*
Y-25295D01*
X-246371D01*
Y-25203D01*
Y-25112D01*
Y-25020D01*
X-246280D01*
Y-24929D01*
Y-24837D01*
X-246188D01*
Y-24746D01*
Y-24654D01*
X-246097D01*
Y-24563D01*
Y-24471D01*
X-246005D01*
Y-24380D01*
Y-24288D01*
X-245914D01*
Y-24197D01*
Y-24105D01*
X-245822D01*
Y-24014D01*
Y-23922D01*
X-245731D01*
Y-23831D01*
Y-23739D01*
X-245639D01*
Y-23648D01*
Y-23556D01*
X-245548D01*
Y-23465D01*
X-245456D01*
Y-23373D01*
Y-23282D01*
X-245365D01*
Y-23190D01*
X-245273D01*
Y-23099D01*
Y-23007D01*
X-245182D01*
Y-22916D01*
X-245090D01*
Y-22824D01*
Y-22733D01*
X-244998D01*
Y-22641D01*
X-244907D01*
Y-22550D01*
X-244816D01*
Y-22458D01*
Y-22367D01*
X-244724D01*
Y-22275D01*
X-244632D01*
Y-22184D01*
X-244541D01*
Y-22092D01*
X-244450D01*
Y-22001D01*
X-244358D01*
Y-21909D01*
Y-21818D01*
X-244266D01*
Y-21726D01*
X-244175D01*
Y-21635D01*
X-244083D01*
Y-21543D01*
X-243992D01*
Y-21452D01*
X-243901D01*
Y-21360D01*
X-243809D01*
Y-21269D01*
X-243717D01*
Y-21177D01*
X-243626D01*
Y-21086D01*
X-243535D01*
Y-20994D01*
X-243443D01*
Y-20903D01*
X-243260D01*
Y-20811D01*
X-243169D01*
Y-20720D01*
X-243077D01*
Y-20628D01*
X-242985D01*
Y-20537D01*
X-242894D01*
Y-20445D01*
X-242711D01*
Y-20354D01*
X-242619D01*
Y-20262D01*
X-242528D01*
Y-20171D01*
X-242345D01*
Y-20079D01*
X-242253D01*
Y-19988D01*
X-242071D01*
Y-19896D01*
X-241979D01*
Y-19805D01*
X-241796D01*
Y-19713D01*
X-241705D01*
Y-19622D01*
X-241521D01*
Y-19530D01*
X-241339D01*
Y-19439D01*
X-241155D01*
Y-19347D01*
X-240972D01*
Y-19256D01*
X-240790D01*
Y-19164D01*
X-240606D01*
Y-19073D01*
X-240424D01*
Y-18981D01*
X-240240D01*
Y-18890D01*
X-239966D01*
Y-18798D01*
X-239783D01*
Y-18707D01*
X-239508D01*
Y-18615D01*
X-239234D01*
Y-18524D01*
X-238960D01*
Y-18432D01*
X-238594D01*
Y-18341D01*
X-238228D01*
Y-18249D01*
X-237679D01*
Y-18158D01*
X-237129D01*
Y-18066D01*
X-233927D01*
Y-18158D01*
D02*
G37*
G36*
X-210686D02*
X-209862D01*
Y-18249D01*
X-209313D01*
Y-18341D01*
X-208947D01*
Y-18432D01*
X-208581D01*
Y-18524D01*
X-208307D01*
Y-18615D01*
X-208032D01*
Y-18707D01*
X-207758D01*
Y-18798D01*
X-207575D01*
Y-18890D01*
X-207300D01*
Y-18981D01*
X-207117D01*
Y-19073D01*
X-206934D01*
Y-19164D01*
X-206751D01*
Y-19256D01*
X-206568D01*
Y-19347D01*
X-206385D01*
Y-19439D01*
X-206294D01*
Y-19530D01*
X-206111D01*
Y-19622D01*
X-206019D01*
Y-19713D01*
X-205836D01*
Y-19805D01*
X-205745D01*
Y-19896D01*
X-205562D01*
Y-19988D01*
X-205470D01*
Y-20079D01*
X-205287D01*
Y-20171D01*
X-205196D01*
Y-20262D01*
X-205104D01*
Y-20354D01*
X-205013D01*
Y-20445D01*
Y-20537D01*
Y-20628D01*
X-205104D01*
Y-20720D01*
X-205196D01*
Y-20811D01*
Y-20903D01*
X-205287D01*
Y-20994D01*
Y-21086D01*
X-205379D01*
Y-21177D01*
Y-21269D01*
X-205470D01*
Y-21360D01*
Y-21452D01*
X-205562D01*
Y-21543D01*
Y-21635D01*
X-205653D01*
Y-21726D01*
X-205745D01*
Y-21818D01*
Y-21909D01*
X-205836D01*
Y-22001D01*
Y-22092D01*
X-205928D01*
Y-22184D01*
Y-22275D01*
X-206019D01*
Y-22367D01*
Y-22458D01*
X-206111D01*
Y-22550D01*
Y-22641D01*
X-206202D01*
Y-22733D01*
X-206294D01*
Y-22824D01*
Y-22916D01*
X-206385D01*
Y-23007D01*
Y-23099D01*
X-206477D01*
Y-23190D01*
Y-23282D01*
X-206568D01*
Y-23373D01*
Y-23465D01*
X-206751D01*
Y-23373D01*
X-206934D01*
Y-23282D01*
X-207026D01*
Y-23190D01*
X-207117D01*
Y-23099D01*
X-207300D01*
Y-23007D01*
X-207392D01*
Y-22916D01*
X-207575D01*
Y-22824D01*
X-207666D01*
Y-22733D01*
X-207849D01*
Y-22641D01*
X-208032D01*
Y-22550D01*
X-208215D01*
Y-22458D01*
X-208398D01*
Y-22367D01*
X-208581D01*
Y-22275D01*
X-208764D01*
Y-22184D01*
X-208947D01*
Y-22092D01*
X-209222D01*
Y-22001D01*
X-209496D01*
Y-21909D01*
X-209771D01*
Y-21818D01*
X-210137D01*
Y-21726D01*
X-210594D01*
Y-21635D01*
X-211235D01*
Y-21543D01*
X-212607D01*
Y-21635D01*
X-212973D01*
Y-21726D01*
X-213248D01*
Y-21818D01*
X-213431D01*
Y-21909D01*
X-213614D01*
Y-22001D01*
X-213797D01*
Y-22092D01*
X-213888D01*
Y-22184D01*
X-214071D01*
Y-22275D01*
X-214163D01*
Y-22367D01*
X-214254D01*
Y-22458D01*
X-214346D01*
Y-22550D01*
X-214437D01*
Y-22641D01*
X-214529D01*
Y-22733D01*
X-214620D01*
Y-22824D01*
X-214712D01*
Y-22916D01*
Y-23007D01*
X-214803D01*
Y-23099D01*
X-214895D01*
Y-23190D01*
Y-23282D01*
X-214986D01*
Y-23373D01*
Y-23465D01*
X-215078D01*
Y-23556D01*
Y-23648D01*
X-215169D01*
Y-23739D01*
Y-23831D01*
Y-23922D01*
X-215261D01*
Y-24014D01*
Y-24105D01*
Y-24197D01*
Y-24288D01*
Y-24380D01*
X-215352D01*
Y-24471D01*
Y-24563D01*
Y-24654D01*
Y-24746D01*
X-215261D01*
Y-24837D01*
Y-24929D01*
Y-25020D01*
Y-25112D01*
X-215169D01*
Y-25203D01*
Y-25295D01*
Y-25386D01*
X-215078D01*
Y-25478D01*
Y-25569D01*
X-214986D01*
Y-25661D01*
X-214895D01*
Y-25752D01*
Y-25844D01*
X-214803D01*
Y-25935D01*
X-214712D01*
Y-26027D01*
X-214620D01*
Y-26118D01*
X-214529D01*
Y-26210D01*
X-214437D01*
Y-26301D01*
X-214346D01*
Y-26393D01*
X-214254D01*
Y-26484D01*
X-214163D01*
Y-26576D01*
X-213980D01*
Y-26667D01*
X-213888D01*
Y-26759D01*
X-213705D01*
Y-26850D01*
X-213614D01*
Y-26942D01*
X-213431D01*
Y-27033D01*
X-213248D01*
Y-27125D01*
X-213065D01*
Y-27216D01*
X-212882D01*
Y-27308D01*
X-212699D01*
Y-27399D01*
X-212516D01*
Y-27491D01*
X-212333D01*
Y-27582D01*
X-212150D01*
Y-27674D01*
X-211875D01*
Y-27765D01*
X-211692D01*
Y-27857D01*
X-211509D01*
Y-27948D01*
X-211235D01*
Y-28040D01*
X-211052D01*
Y-28131D01*
X-210869D01*
Y-28223D01*
X-210594D01*
Y-28314D01*
X-210411D01*
Y-28406D01*
X-210137D01*
Y-28497D01*
X-209954D01*
Y-28589D01*
X-209771D01*
Y-28680D01*
X-209496D01*
Y-28772D01*
X-209313D01*
Y-28863D01*
X-209130D01*
Y-28955D01*
X-208947D01*
Y-29046D01*
X-208764D01*
Y-29138D01*
X-208581D01*
Y-29229D01*
X-208398D01*
Y-29321D01*
X-208215D01*
Y-29412D01*
X-208032D01*
Y-29504D01*
X-207849D01*
Y-29595D01*
X-207758D01*
Y-29687D01*
X-207575D01*
Y-29778D01*
X-207392D01*
Y-29870D01*
X-207300D01*
Y-29961D01*
X-207117D01*
Y-30053D01*
X-207026D01*
Y-30144D01*
X-206934D01*
Y-30236D01*
X-206751D01*
Y-30327D01*
X-206660D01*
Y-30419D01*
X-206568D01*
Y-30510D01*
X-206477D01*
Y-30602D01*
X-206385D01*
Y-30693D01*
X-206202D01*
Y-30785D01*
X-206111D01*
Y-30876D01*
X-206019D01*
Y-30968D01*
Y-31059D01*
X-205928D01*
Y-31151D01*
X-205836D01*
Y-31242D01*
X-205745D01*
Y-31334D01*
X-205653D01*
Y-31425D01*
X-205562D01*
Y-31517D01*
Y-31608D01*
X-205470D01*
Y-31700D01*
X-205379D01*
Y-31791D01*
Y-31883D01*
X-205287D01*
Y-31974D01*
Y-32066D01*
X-205196D01*
Y-32157D01*
X-205104D01*
Y-32249D01*
Y-32340D01*
X-205013D01*
Y-32432D01*
Y-32523D01*
Y-32615D01*
X-204921D01*
Y-32706D01*
Y-32798D01*
X-204830D01*
Y-32889D01*
Y-32981D01*
Y-33072D01*
Y-33164D01*
X-204738D01*
Y-33255D01*
Y-33347D01*
Y-33438D01*
Y-33530D01*
X-204647D01*
Y-33621D01*
Y-33713D01*
Y-33804D01*
Y-33896D01*
Y-33987D01*
Y-34079D01*
X-204555D01*
Y-34170D01*
Y-34262D01*
Y-34353D01*
Y-34445D01*
Y-34536D01*
Y-34628D01*
Y-34719D01*
Y-34811D01*
Y-34902D01*
Y-34994D01*
Y-35085D01*
Y-35177D01*
Y-35268D01*
Y-35360D01*
Y-35451D01*
Y-35543D01*
Y-35634D01*
Y-35726D01*
X-204647D01*
Y-35817D01*
Y-35909D01*
Y-36000D01*
Y-36092D01*
Y-36183D01*
Y-36275D01*
Y-36366D01*
X-204738D01*
Y-36458D01*
Y-36549D01*
Y-36641D01*
Y-36732D01*
Y-36824D01*
X-204830D01*
Y-36915D01*
Y-37007D01*
Y-37098D01*
X-204921D01*
Y-37190D01*
Y-37281D01*
Y-37373D01*
X-205013D01*
Y-37464D01*
Y-37556D01*
Y-37647D01*
X-205104D01*
Y-37739D01*
Y-37830D01*
X-205196D01*
Y-37922D01*
Y-38013D01*
X-205287D01*
Y-38105D01*
Y-38196D01*
X-205379D01*
Y-38288D01*
Y-38379D01*
X-205470D01*
Y-38471D01*
X-205562D01*
Y-38562D01*
Y-38654D01*
X-205653D01*
Y-38745D01*
X-205745D01*
Y-38837D01*
Y-38928D01*
X-205836D01*
Y-39020D01*
X-205928D01*
Y-39111D01*
X-206019D01*
Y-39203D01*
X-206111D01*
Y-39295D01*
Y-39386D01*
X-206202D01*
Y-39477D01*
X-206294D01*
Y-39569D01*
X-206385D01*
Y-39660D01*
X-206477D01*
Y-39752D01*
X-206660D01*
Y-39843D01*
X-206751D01*
Y-39935D01*
X-206843D01*
Y-40026D01*
X-206934D01*
Y-40118D01*
X-207117D01*
Y-40209D01*
X-207209D01*
Y-40301D01*
X-207300D01*
Y-40392D01*
X-207483D01*
Y-40484D01*
X-207666D01*
Y-40575D01*
X-207758D01*
Y-40667D01*
X-207941D01*
Y-40758D01*
X-208124D01*
Y-40850D01*
X-208307D01*
Y-40941D01*
X-208581D01*
Y-41033D01*
X-208764D01*
Y-41124D01*
X-209039D01*
Y-41216D01*
X-209313D01*
Y-41308D01*
X-209679D01*
Y-41399D01*
X-210137D01*
Y-41490D01*
X-210686D01*
Y-41582D01*
X-213339D01*
Y-41490D01*
X-213980D01*
Y-41399D01*
X-214437D01*
Y-41308D01*
X-214895D01*
Y-41216D01*
X-215169D01*
Y-41124D01*
X-215535D01*
Y-41033D01*
X-215810D01*
Y-40941D01*
X-215993D01*
Y-40850D01*
X-216267D01*
Y-40758D01*
X-216450D01*
Y-40667D01*
X-216725D01*
Y-40575D01*
X-216908D01*
Y-40484D01*
X-217091D01*
Y-40392D01*
X-217274D01*
Y-40301D01*
X-217457D01*
Y-40209D01*
X-217548D01*
Y-40118D01*
X-217731D01*
Y-40026D01*
X-217914D01*
Y-39935D01*
X-218097D01*
Y-39843D01*
X-218189D01*
Y-39752D01*
X-218372D01*
Y-39660D01*
X-218463D01*
Y-39569D01*
X-218646D01*
Y-39477D01*
X-218738D01*
Y-39386D01*
X-218829D01*
Y-39295D01*
X-219012D01*
Y-39203D01*
X-219104D01*
Y-39111D01*
X-219195D01*
Y-39020D01*
X-219287D01*
Y-38928D01*
X-219378D01*
Y-38837D01*
X-219561D01*
Y-38745D01*
X-219653D01*
Y-38654D01*
X-219744D01*
Y-38562D01*
Y-38471D01*
X-219653D01*
Y-38379D01*
X-219561D01*
Y-38288D01*
Y-38196D01*
X-219470D01*
Y-38105D01*
X-219378D01*
Y-38013D01*
Y-37922D01*
X-219287D01*
Y-37830D01*
X-219195D01*
Y-37739D01*
X-219104D01*
Y-37647D01*
Y-37556D01*
X-219012D01*
Y-37464D01*
X-218921D01*
Y-37373D01*
X-218829D01*
Y-37281D01*
Y-37190D01*
X-218738D01*
Y-37098D01*
X-218646D01*
Y-37007D01*
Y-36915D01*
X-218555D01*
Y-36824D01*
X-218463D01*
Y-36732D01*
X-218372D01*
Y-36641D01*
Y-36549D01*
X-218280D01*
Y-36458D01*
X-218189D01*
Y-36366D01*
Y-36275D01*
X-218097D01*
Y-36183D01*
X-218006D01*
Y-36092D01*
X-217914D01*
Y-36000D01*
Y-35909D01*
X-217823D01*
Y-35817D01*
X-217731D01*
Y-35726D01*
X-217640D01*
Y-35634D01*
X-217548D01*
Y-35726D01*
X-217457D01*
Y-35817D01*
X-217365D01*
Y-35909D01*
X-217274D01*
Y-36000D01*
X-217182D01*
Y-36092D01*
X-216999D01*
Y-36183D01*
X-216908D01*
Y-36275D01*
X-216816D01*
Y-36366D01*
X-216633D01*
Y-36458D01*
X-216542D01*
Y-36549D01*
X-216359D01*
Y-36641D01*
X-216267D01*
Y-36732D01*
X-216084D01*
Y-36824D01*
X-215901D01*
Y-36915D01*
X-215718D01*
Y-37007D01*
X-215535D01*
Y-37098D01*
X-215352D01*
Y-37190D01*
X-215169D01*
Y-37281D01*
X-214986D01*
Y-37373D01*
X-214712D01*
Y-37464D01*
X-214529D01*
Y-37556D01*
X-214163D01*
Y-37647D01*
X-213888D01*
Y-37739D01*
X-213522D01*
Y-37830D01*
X-213065D01*
Y-37922D01*
X-212424D01*
Y-38013D01*
X-211326D01*
Y-37922D01*
X-210869D01*
Y-37830D01*
X-210594D01*
Y-37739D01*
X-210320D01*
Y-37647D01*
X-210137D01*
Y-37556D01*
X-209954D01*
Y-37464D01*
X-209771D01*
Y-37373D01*
X-209679D01*
Y-37281D01*
X-209588D01*
Y-37190D01*
X-209405D01*
Y-37098D01*
X-209313D01*
Y-37007D01*
X-209222D01*
Y-36915D01*
X-209130D01*
Y-36824D01*
X-209039D01*
Y-36732D01*
Y-36641D01*
X-208947D01*
Y-36549D01*
X-208856D01*
Y-36458D01*
X-208764D01*
Y-36366D01*
Y-36275D01*
X-208673D01*
Y-36183D01*
Y-36092D01*
X-208581D01*
Y-36000D01*
Y-35909D01*
Y-35817D01*
X-208490D01*
Y-35726D01*
Y-35634D01*
Y-35543D01*
Y-35451D01*
Y-35360D01*
X-208398D01*
Y-35268D01*
Y-35177D01*
Y-35085D01*
Y-34994D01*
Y-34902D01*
Y-34811D01*
X-208490D01*
Y-34719D01*
Y-34628D01*
Y-34536D01*
Y-34445D01*
X-208581D01*
Y-34353D01*
Y-34262D01*
Y-34170D01*
X-208673D01*
Y-34079D01*
Y-33987D01*
X-208764D01*
Y-33896D01*
Y-33804D01*
X-208856D01*
Y-33713D01*
X-208947D01*
Y-33621D01*
X-209039D01*
Y-33530D01*
Y-33438D01*
X-209130D01*
Y-33347D01*
X-209222D01*
Y-33255D01*
X-209313D01*
Y-33164D01*
X-209496D01*
Y-33072D01*
X-209588D01*
Y-32981D01*
X-209679D01*
Y-32889D01*
X-209771D01*
Y-32798D01*
X-209954D01*
Y-32706D01*
X-210045D01*
Y-32615D01*
X-210228D01*
Y-32523D01*
X-210411D01*
Y-32432D01*
X-210503D01*
Y-32340D01*
X-210686D01*
Y-32249D01*
X-210869D01*
Y-32157D01*
X-211052D01*
Y-32066D01*
X-211235D01*
Y-31974D01*
X-211418D01*
Y-31883D01*
X-211601D01*
Y-31791D01*
X-211784D01*
Y-31700D01*
X-212058D01*
Y-31608D01*
X-212241D01*
Y-31517D01*
X-212424D01*
Y-31425D01*
X-212699D01*
Y-31334D01*
X-212882D01*
Y-31242D01*
X-213065D01*
Y-31151D01*
X-213339D01*
Y-31059D01*
X-213522D01*
Y-30968D01*
X-213705D01*
Y-30876D01*
X-213888D01*
Y-30785D01*
X-214071D01*
Y-30693D01*
X-214346D01*
Y-30602D01*
X-214529D01*
Y-30510D01*
X-214712D01*
Y-30419D01*
X-214895D01*
Y-30327D01*
X-215078D01*
Y-30236D01*
X-215261D01*
Y-30144D01*
X-215352D01*
Y-30053D01*
X-215535D01*
Y-29961D01*
X-215718D01*
Y-29870D01*
X-215901D01*
Y-29778D01*
X-215993D01*
Y-29687D01*
X-216176D01*
Y-29595D01*
X-216267D01*
Y-29504D01*
X-216450D01*
Y-29412D01*
X-216542D01*
Y-29321D01*
X-216725D01*
Y-29229D01*
X-216816D01*
Y-29138D01*
X-216908D01*
Y-29046D01*
X-217091D01*
Y-28955D01*
X-217182D01*
Y-28863D01*
X-217274D01*
Y-28772D01*
X-217365D01*
Y-28680D01*
X-217457D01*
Y-28589D01*
X-217548D01*
Y-28497D01*
X-217640D01*
Y-28406D01*
X-217731D01*
Y-28314D01*
X-217823D01*
Y-28223D01*
X-217914D01*
Y-28131D01*
X-218006D01*
Y-28040D01*
X-218097D01*
Y-27948D01*
X-218189D01*
Y-27857D01*
X-218280D01*
Y-27765D01*
Y-27674D01*
X-218372D01*
Y-27582D01*
X-218463D01*
Y-27491D01*
Y-27399D01*
X-218555D01*
Y-27308D01*
X-218646D01*
Y-27216D01*
Y-27125D01*
X-218738D01*
Y-27033D01*
Y-26942D01*
X-218829D01*
Y-26850D01*
Y-26759D01*
X-218921D01*
Y-26667D01*
Y-26576D01*
Y-26484D01*
X-219012D01*
Y-26393D01*
Y-26301D01*
Y-26210D01*
X-219104D01*
Y-26118D01*
Y-26027D01*
Y-25935D01*
Y-25844D01*
X-219195D01*
Y-25752D01*
Y-25661D01*
Y-25569D01*
Y-25478D01*
Y-25386D01*
X-219287D01*
Y-25295D01*
Y-25203D01*
Y-25112D01*
Y-25020D01*
Y-24929D01*
Y-24837D01*
Y-24746D01*
Y-24654D01*
Y-24563D01*
Y-24471D01*
Y-24380D01*
Y-24288D01*
Y-24197D01*
Y-24105D01*
Y-24014D01*
Y-23922D01*
Y-23831D01*
X-219195D01*
Y-23739D01*
Y-23648D01*
Y-23556D01*
Y-23465D01*
Y-23373D01*
Y-23282D01*
X-219104D01*
Y-23190D01*
Y-23099D01*
Y-23007D01*
Y-22916D01*
X-219012D01*
Y-22824D01*
Y-22733D01*
Y-22641D01*
X-218921D01*
Y-22550D01*
Y-22458D01*
Y-22367D01*
X-218829D01*
Y-22275D01*
Y-22184D01*
X-218738D01*
Y-22092D01*
Y-22001D01*
X-218646D01*
Y-21909D01*
Y-21818D01*
X-218555D01*
Y-21726D01*
Y-21635D01*
X-218463D01*
Y-21543D01*
Y-21452D01*
X-218372D01*
Y-21360D01*
Y-21269D01*
X-218280D01*
Y-21177D01*
X-218189D01*
Y-21086D01*
X-218097D01*
Y-20994D01*
Y-20903D01*
X-218006D01*
Y-20811D01*
X-217914D01*
Y-20720D01*
X-217823D01*
Y-20628D01*
X-217731D01*
Y-20537D01*
Y-20445D01*
X-217640D01*
Y-20354D01*
X-217548D01*
Y-20262D01*
X-217457D01*
Y-20171D01*
X-217365D01*
Y-20079D01*
X-217182D01*
Y-19988D01*
X-217091D01*
Y-19896D01*
X-216999D01*
Y-19805D01*
X-216908D01*
Y-19713D01*
X-216725D01*
Y-19622D01*
X-216633D01*
Y-19530D01*
X-216542D01*
Y-19439D01*
X-216359D01*
Y-19347D01*
X-216267D01*
Y-19256D01*
X-216084D01*
Y-19164D01*
X-215901D01*
Y-19073D01*
X-215718D01*
Y-18981D01*
X-215535D01*
Y-18890D01*
X-215352D01*
Y-18798D01*
X-215169D01*
Y-18707D01*
X-214895D01*
Y-18615D01*
X-214620D01*
Y-18524D01*
X-214346D01*
Y-18432D01*
X-214071D01*
Y-18341D01*
X-213614D01*
Y-18249D01*
X-213156D01*
Y-18158D01*
X-212241D01*
Y-18066D01*
X-210686D01*
Y-18158D01*
D02*
G37*
G36*
X-185340Y-18524D02*
Y-18615D01*
Y-18707D01*
Y-18798D01*
Y-18890D01*
Y-18981D01*
Y-19073D01*
Y-19164D01*
Y-19256D01*
Y-19347D01*
Y-19439D01*
Y-19530D01*
Y-19622D01*
Y-19713D01*
Y-19805D01*
Y-19896D01*
Y-19988D01*
Y-20079D01*
Y-20171D01*
Y-20262D01*
Y-20354D01*
Y-20445D01*
Y-20537D01*
Y-20628D01*
Y-20720D01*
Y-20811D01*
Y-20903D01*
Y-20994D01*
Y-21086D01*
Y-21177D01*
Y-21269D01*
Y-21360D01*
Y-21452D01*
Y-21543D01*
X-190921D01*
Y-21635D01*
Y-21726D01*
Y-21818D01*
Y-21909D01*
Y-22001D01*
Y-22092D01*
Y-22184D01*
Y-22275D01*
Y-22367D01*
Y-22458D01*
Y-22550D01*
Y-22641D01*
Y-22733D01*
Y-22824D01*
Y-22916D01*
Y-23007D01*
Y-23099D01*
Y-23190D01*
Y-23282D01*
Y-23373D01*
Y-23465D01*
Y-23556D01*
Y-23648D01*
Y-23739D01*
Y-23831D01*
Y-23922D01*
Y-24014D01*
Y-24105D01*
Y-24197D01*
Y-24288D01*
Y-24380D01*
Y-24471D01*
Y-24563D01*
Y-24654D01*
Y-24746D01*
Y-24837D01*
Y-24929D01*
Y-25020D01*
Y-25112D01*
Y-25203D01*
Y-25295D01*
Y-25386D01*
Y-25478D01*
Y-25569D01*
Y-25661D01*
Y-25752D01*
Y-25844D01*
Y-25935D01*
Y-26027D01*
Y-26118D01*
Y-26210D01*
Y-26301D01*
Y-26393D01*
Y-26484D01*
Y-26576D01*
Y-26667D01*
Y-26759D01*
Y-26850D01*
Y-26942D01*
Y-27033D01*
Y-27125D01*
Y-27216D01*
Y-27308D01*
Y-27399D01*
Y-27491D01*
Y-27582D01*
Y-27674D01*
Y-27765D01*
Y-27857D01*
Y-27948D01*
Y-28040D01*
Y-28131D01*
Y-28223D01*
Y-28314D01*
Y-28406D01*
Y-28497D01*
Y-28589D01*
Y-28680D01*
Y-28772D01*
Y-28863D01*
Y-28955D01*
Y-29046D01*
Y-29138D01*
Y-29229D01*
Y-29321D01*
Y-29412D01*
Y-29504D01*
Y-29595D01*
Y-29687D01*
Y-29778D01*
Y-29870D01*
Y-29961D01*
Y-30053D01*
Y-30144D01*
Y-30236D01*
Y-30327D01*
Y-30419D01*
Y-30510D01*
Y-30602D01*
Y-30693D01*
Y-30785D01*
Y-30876D01*
Y-30968D01*
Y-31059D01*
Y-31151D01*
Y-31242D01*
Y-31334D01*
Y-31425D01*
Y-31517D01*
Y-31608D01*
Y-31700D01*
Y-31791D01*
Y-31883D01*
Y-31974D01*
Y-32066D01*
Y-32157D01*
Y-32249D01*
Y-32340D01*
Y-32432D01*
Y-32523D01*
Y-32615D01*
Y-32706D01*
Y-32798D01*
Y-32889D01*
Y-32981D01*
Y-33072D01*
Y-33164D01*
Y-33255D01*
Y-33347D01*
Y-33438D01*
Y-33530D01*
Y-33621D01*
Y-33713D01*
Y-33804D01*
Y-33896D01*
Y-33987D01*
Y-34079D01*
Y-34170D01*
Y-34262D01*
Y-34353D01*
Y-34445D01*
Y-34536D01*
Y-34628D01*
Y-34719D01*
Y-34811D01*
Y-34902D01*
Y-34994D01*
Y-35085D01*
Y-35177D01*
Y-35268D01*
Y-35360D01*
Y-35451D01*
Y-35543D01*
Y-35634D01*
Y-35726D01*
Y-35817D01*
Y-35909D01*
Y-36000D01*
Y-36092D01*
Y-36183D01*
Y-36275D01*
Y-36366D01*
Y-36458D01*
Y-36549D01*
Y-36641D01*
Y-36732D01*
Y-36824D01*
Y-36915D01*
Y-37007D01*
Y-37098D01*
Y-37190D01*
Y-37281D01*
Y-37373D01*
Y-37464D01*
Y-37556D01*
Y-37647D01*
Y-37739D01*
Y-37830D01*
Y-37922D01*
Y-38013D01*
Y-38105D01*
Y-38196D01*
Y-38288D01*
Y-38379D01*
Y-38471D01*
Y-38562D01*
Y-38654D01*
Y-38745D01*
Y-38837D01*
Y-38928D01*
Y-39020D01*
Y-39111D01*
Y-39203D01*
Y-39295D01*
Y-39386D01*
Y-39477D01*
Y-39569D01*
Y-39660D01*
Y-39752D01*
Y-39843D01*
Y-39935D01*
Y-40026D01*
Y-40118D01*
Y-40209D01*
Y-40301D01*
Y-40392D01*
Y-40484D01*
Y-40575D01*
Y-40667D01*
Y-40758D01*
Y-40850D01*
Y-40941D01*
Y-41033D01*
Y-41124D01*
X-194581D01*
Y-41033D01*
Y-40941D01*
Y-40850D01*
Y-40758D01*
Y-40667D01*
Y-40575D01*
Y-40484D01*
Y-40392D01*
Y-40301D01*
Y-40209D01*
Y-40118D01*
Y-40026D01*
Y-39935D01*
Y-39843D01*
Y-39752D01*
Y-39660D01*
Y-39569D01*
Y-39477D01*
Y-39386D01*
Y-39295D01*
Y-39203D01*
Y-39111D01*
Y-39020D01*
Y-38928D01*
Y-38837D01*
Y-38745D01*
Y-38654D01*
Y-38562D01*
Y-38471D01*
Y-38379D01*
Y-38288D01*
Y-38196D01*
Y-38105D01*
Y-38013D01*
Y-37922D01*
Y-37830D01*
Y-37739D01*
Y-37647D01*
Y-37556D01*
Y-37464D01*
Y-37373D01*
Y-37281D01*
Y-37190D01*
Y-37098D01*
Y-37007D01*
Y-36915D01*
Y-36824D01*
Y-36732D01*
Y-36641D01*
Y-36549D01*
Y-36458D01*
Y-36366D01*
Y-36275D01*
Y-36183D01*
Y-36092D01*
Y-36000D01*
Y-35909D01*
Y-35817D01*
Y-35726D01*
Y-35634D01*
Y-35543D01*
Y-35451D01*
Y-35360D01*
Y-35268D01*
Y-35177D01*
Y-35085D01*
Y-34994D01*
Y-34902D01*
Y-34811D01*
Y-34719D01*
Y-34628D01*
Y-34536D01*
Y-34445D01*
Y-34353D01*
Y-34262D01*
Y-34170D01*
Y-34079D01*
Y-33987D01*
Y-33896D01*
Y-33804D01*
Y-33713D01*
Y-33621D01*
Y-33530D01*
Y-33438D01*
Y-33347D01*
Y-33255D01*
Y-33164D01*
Y-33072D01*
Y-32981D01*
Y-32889D01*
Y-32798D01*
Y-32706D01*
Y-32615D01*
Y-32523D01*
Y-32432D01*
Y-32340D01*
Y-32249D01*
Y-32157D01*
Y-32066D01*
Y-31974D01*
Y-31883D01*
Y-31791D01*
Y-31700D01*
Y-31608D01*
Y-31517D01*
Y-31425D01*
Y-31334D01*
Y-31242D01*
Y-31151D01*
Y-31059D01*
Y-30968D01*
Y-30876D01*
Y-30785D01*
Y-30693D01*
Y-30602D01*
Y-30510D01*
Y-30419D01*
Y-30327D01*
Y-30236D01*
Y-30144D01*
Y-30053D01*
Y-29961D01*
Y-29870D01*
Y-29778D01*
Y-29687D01*
Y-29595D01*
Y-29504D01*
Y-29412D01*
Y-29321D01*
Y-29229D01*
Y-29138D01*
Y-29046D01*
Y-28955D01*
Y-28863D01*
Y-28772D01*
Y-28680D01*
Y-28589D01*
Y-28497D01*
Y-28406D01*
Y-28314D01*
Y-28223D01*
Y-28131D01*
Y-28040D01*
Y-27948D01*
Y-27857D01*
Y-27765D01*
Y-27674D01*
Y-27582D01*
Y-27491D01*
Y-27399D01*
Y-27308D01*
Y-27216D01*
Y-27125D01*
Y-27033D01*
Y-26942D01*
Y-26850D01*
Y-26759D01*
Y-26667D01*
Y-26576D01*
Y-26484D01*
Y-26393D01*
Y-26301D01*
Y-26210D01*
Y-26118D01*
Y-26027D01*
Y-25935D01*
Y-25844D01*
Y-25752D01*
Y-25661D01*
Y-25569D01*
Y-25478D01*
Y-25386D01*
Y-25295D01*
Y-25203D01*
Y-25112D01*
Y-25020D01*
Y-24929D01*
Y-24837D01*
Y-24746D01*
Y-24654D01*
Y-24563D01*
Y-24471D01*
Y-24380D01*
Y-24288D01*
Y-24197D01*
Y-24105D01*
Y-24014D01*
Y-23922D01*
Y-23831D01*
Y-23739D01*
Y-23648D01*
Y-23556D01*
Y-23465D01*
Y-23373D01*
Y-23282D01*
Y-23190D01*
Y-23099D01*
Y-23007D01*
Y-22916D01*
Y-22824D01*
Y-22733D01*
Y-22641D01*
Y-22550D01*
Y-22458D01*
Y-22367D01*
Y-22275D01*
Y-22184D01*
Y-22092D01*
Y-22001D01*
Y-21909D01*
Y-21818D01*
Y-21726D01*
Y-21635D01*
Y-21543D01*
X-200072D01*
Y-21452D01*
Y-21360D01*
Y-21269D01*
Y-21177D01*
Y-21086D01*
Y-20994D01*
Y-20903D01*
Y-20811D01*
Y-20720D01*
Y-20628D01*
Y-20537D01*
Y-20445D01*
Y-20354D01*
Y-20262D01*
Y-20171D01*
Y-20079D01*
Y-19988D01*
Y-19896D01*
Y-19805D01*
Y-19713D01*
Y-19622D01*
Y-19530D01*
Y-19439D01*
Y-19347D01*
Y-19256D01*
Y-19164D01*
Y-19073D01*
Y-18981D01*
Y-18890D01*
Y-18798D01*
Y-18707D01*
Y-18615D01*
Y-18524D01*
Y-18432D01*
X-185340D01*
Y-18524D01*
D02*
G37*
%LPC*%
G36*
X-295233Y-681D02*
X-297703D01*
Y-772D01*
X-298984D01*
Y-864D01*
X-299716D01*
Y-955D01*
X-301180D01*
Y-864D01*
X-301821D01*
Y-772D01*
X-304657D01*
Y-681D01*
X-305847D01*
Y-772D01*
X-307585D01*
Y-864D01*
X-308592D01*
Y-955D01*
X-309324D01*
Y-1047D01*
X-309873D01*
Y-1138D01*
X-310422D01*
Y-1230D01*
X-310879D01*
Y-1321D01*
X-311337D01*
Y-1413D01*
X-311794D01*
Y-1505D01*
X-312160D01*
Y-1596D01*
X-312526D01*
Y-1687D01*
X-312892D01*
Y-1779D01*
X-313258D01*
Y-1870D01*
X-313533D01*
Y-1962D01*
X-313807D01*
Y-2053D01*
X-314173D01*
Y-2145D01*
X-314448D01*
Y-2236D01*
X-314722D01*
Y-2328D01*
X-314997D01*
Y-2420D01*
X-315180D01*
Y-2511D01*
X-315454D01*
Y-2603D01*
X-315729D01*
Y-2694D01*
X-315912D01*
Y-2785D01*
X-316186D01*
Y-2877D01*
X-316369D01*
Y-2968D01*
X-316644D01*
Y-3060D01*
X-316827D01*
Y-3151D01*
X-317010D01*
Y-3243D01*
X-317284D01*
Y-3334D01*
X-317467D01*
Y-3426D01*
X-317650D01*
Y-3517D01*
X-317833D01*
Y-3609D01*
X-318016D01*
Y-3701D01*
X-318199D01*
Y-3792D01*
X-318382D01*
Y-3884D01*
X-318565D01*
Y-3975D01*
X-318748D01*
Y-4067D01*
X-318931D01*
Y-4158D01*
X-319114D01*
Y-4250D01*
X-319298D01*
Y-4341D01*
X-319480D01*
Y-4433D01*
X-319572D01*
Y-4524D01*
X-319755D01*
Y-4615D01*
X-319938D01*
Y-4707D01*
X-320121D01*
Y-4798D01*
X-320212D01*
Y-4890D01*
X-320395D01*
Y-4981D01*
X-320578D01*
Y-5073D01*
X-320670D01*
Y-5164D01*
X-320853D01*
Y-5256D01*
X-320944D01*
Y-5347D01*
X-321127D01*
Y-5439D01*
X-321219D01*
Y-5530D01*
X-321402D01*
Y-5622D01*
X-321493D01*
Y-5713D01*
X-321676D01*
Y-5805D01*
X-321768D01*
Y-5896D01*
X-321951D01*
Y-5988D01*
X-322042D01*
Y-6079D01*
X-322225D01*
Y-6171D01*
X-322317D01*
Y-6263D01*
X-322500D01*
Y-6354D01*
X-322592D01*
Y-6446D01*
X-322683D01*
Y-6537D01*
X-322866D01*
Y-6629D01*
X-322957D01*
Y-6720D01*
X-323049D01*
Y-6812D01*
X-323232D01*
Y-6903D01*
X-323324D01*
Y-6995D01*
X-323415D01*
Y-7086D01*
X-323506D01*
Y-7178D01*
X-323689D01*
Y-7269D01*
X-323781D01*
Y-7361D01*
X-323872D01*
Y-7452D01*
X-323964D01*
Y-7544D01*
X-324055D01*
Y-7635D01*
X-324238D01*
Y-7727D01*
X-324330D01*
Y-7818D01*
X-324422D01*
Y-7910D01*
X-324513D01*
Y-8001D01*
X-324604D01*
Y-8092D01*
X-324696D01*
Y-8184D01*
X-324879D01*
Y-8275D01*
X-324971D01*
Y-8367D01*
X-325062D01*
Y-8458D01*
X-325154D01*
Y-8550D01*
X-325245D01*
Y-8641D01*
X-325336D01*
Y-8733D01*
X-325428D01*
Y-8824D01*
X-325519D01*
Y-8916D01*
X-325611D01*
Y-9008D01*
X-325703D01*
Y-9099D01*
X-325794D01*
Y-9190D01*
X-325886D01*
Y-9282D01*
X-325977D01*
Y-9373D01*
X-326068D01*
Y-9465D01*
X-326160D01*
Y-9556D01*
X-326251D01*
Y-9648D01*
X-326343D01*
Y-9740D01*
X-326435D01*
Y-9831D01*
X-326526D01*
Y-9923D01*
X-326618D01*
Y-10014D01*
X-326709D01*
Y-10106D01*
X-326800D01*
Y-10197D01*
X-326892D01*
Y-10289D01*
X-326983D01*
Y-10380D01*
X-327075D01*
Y-10472D01*
X-327166D01*
Y-10563D01*
Y-10655D01*
X-327258D01*
Y-10746D01*
X-327350D01*
Y-10838D01*
X-327441D01*
Y-10929D01*
X-327533D01*
Y-11021D01*
X-327624D01*
Y-11112D01*
X-327715D01*
Y-11204D01*
Y-11295D01*
X-327807D01*
Y-11387D01*
X-327898D01*
Y-11478D01*
X-327990D01*
Y-11570D01*
X-328082D01*
Y-11661D01*
X-328173D01*
Y-11753D01*
Y-11844D01*
X-328265D01*
Y-11936D01*
X-328356D01*
Y-12027D01*
X-328447D01*
Y-12119D01*
X-328539D01*
Y-12210D01*
Y-12302D01*
X-328630D01*
Y-12393D01*
X-328722D01*
Y-12485D01*
X-328814D01*
Y-12576D01*
Y-12668D01*
X-328905D01*
Y-12759D01*
X-328997D01*
Y-12851D01*
X-329088D01*
Y-12942D01*
Y-13034D01*
X-329179D01*
Y-13125D01*
X-329271D01*
Y-13217D01*
Y-13308D01*
X-329362D01*
Y-13400D01*
X-329454D01*
Y-13491D01*
X-329546D01*
Y-13583D01*
Y-13674D01*
X-329637D01*
Y-13766D01*
X-329729D01*
Y-13857D01*
Y-13949D01*
X-329820D01*
Y-14040D01*
X-329911D01*
Y-14132D01*
Y-14223D01*
X-330003D01*
Y-14315D01*
Y-14406D01*
X-330095D01*
Y-14498D01*
X-330186D01*
Y-14589D01*
Y-14681D01*
X-330277D01*
Y-14772D01*
X-330369D01*
Y-14864D01*
Y-14955D01*
X-330461D01*
Y-15047D01*
Y-15138D01*
X-330552D01*
Y-15230D01*
X-330644D01*
Y-15321D01*
Y-15413D01*
X-330735D01*
Y-15504D01*
Y-15596D01*
X-330826D01*
Y-15687D01*
Y-15779D01*
X-330918D01*
Y-15870D01*
X-331009D01*
Y-15962D01*
Y-16053D01*
X-331101D01*
Y-16145D01*
Y-16236D01*
X-331193D01*
Y-16328D01*
Y-16419D01*
X-331284D01*
Y-16511D01*
Y-16602D01*
X-331376D01*
Y-16694D01*
Y-16785D01*
X-331467D01*
Y-16877D01*
Y-16968D01*
X-331558D01*
Y-17060D01*
Y-17151D01*
X-331650D01*
Y-17243D01*
Y-17334D01*
X-331742D01*
Y-17426D01*
Y-17517D01*
X-331833D01*
Y-17609D01*
Y-17700D01*
X-331925D01*
Y-17792D01*
Y-17883D01*
X-332016D01*
Y-17975D01*
Y-18066D01*
X-332108D01*
Y-18158D01*
Y-18249D01*
X-332199D01*
Y-18341D01*
Y-18432D01*
Y-18524D01*
X-332291D01*
Y-18615D01*
Y-18707D01*
X-332382D01*
Y-18798D01*
Y-18890D01*
X-332474D01*
Y-18981D01*
Y-19073D01*
Y-19164D01*
X-332565D01*
Y-19256D01*
Y-19347D01*
X-332657D01*
Y-19439D01*
Y-19530D01*
Y-19622D01*
X-332748D01*
Y-19713D01*
Y-19805D01*
Y-19896D01*
X-332840D01*
Y-19988D01*
Y-20079D01*
X-332931D01*
Y-20171D01*
Y-20262D01*
Y-20354D01*
X-333023D01*
Y-20445D01*
Y-20537D01*
Y-20628D01*
X-333114D01*
Y-20720D01*
Y-20811D01*
Y-20903D01*
X-333206D01*
Y-20994D01*
Y-21086D01*
Y-21177D01*
X-333297D01*
Y-21269D01*
Y-21360D01*
Y-21452D01*
X-333389D01*
Y-21543D01*
Y-21635D01*
Y-21726D01*
X-333480D01*
Y-21818D01*
Y-21909D01*
Y-22001D01*
Y-22092D01*
X-333572D01*
Y-22184D01*
Y-22275D01*
Y-22367D01*
X-333663D01*
Y-22458D01*
Y-22550D01*
Y-22641D01*
Y-22733D01*
X-333755D01*
Y-22824D01*
Y-22916D01*
Y-23007D01*
Y-23099D01*
X-333846D01*
Y-23190D01*
Y-23282D01*
Y-23373D01*
Y-23465D01*
X-333938D01*
Y-23556D01*
Y-23648D01*
Y-23739D01*
Y-23831D01*
Y-23922D01*
X-334029D01*
Y-24014D01*
Y-24105D01*
Y-24197D01*
Y-24288D01*
X-334121D01*
Y-24380D01*
Y-24471D01*
Y-24563D01*
Y-24654D01*
Y-24746D01*
Y-24837D01*
X-334212D01*
Y-24929D01*
Y-25020D01*
Y-25112D01*
Y-25203D01*
Y-25295D01*
X-334304D01*
Y-25386D01*
Y-25478D01*
Y-25569D01*
Y-25661D01*
Y-25752D01*
Y-25844D01*
Y-25935D01*
X-334395D01*
Y-26027D01*
Y-26118D01*
Y-26210D01*
Y-26301D01*
Y-26393D01*
Y-26484D01*
Y-26576D01*
X-334487D01*
Y-26667D01*
Y-26759D01*
Y-26850D01*
Y-26942D01*
Y-27033D01*
Y-27125D01*
Y-27216D01*
Y-27308D01*
Y-27399D01*
Y-27491D01*
X-334578D01*
Y-27582D01*
Y-27674D01*
Y-27765D01*
Y-27857D01*
Y-27948D01*
Y-28040D01*
Y-28131D01*
Y-28223D01*
Y-28314D01*
Y-28406D01*
Y-28497D01*
Y-28589D01*
Y-28680D01*
Y-28772D01*
Y-28863D01*
X-334670D01*
Y-28955D01*
Y-29046D01*
Y-29138D01*
Y-29229D01*
Y-29321D01*
Y-29412D01*
Y-29504D01*
Y-29595D01*
Y-29687D01*
Y-29778D01*
Y-29870D01*
Y-29961D01*
Y-30053D01*
Y-30144D01*
Y-30236D01*
Y-30327D01*
Y-30419D01*
Y-30510D01*
Y-30602D01*
Y-30693D01*
Y-30785D01*
Y-30876D01*
Y-30968D01*
Y-31059D01*
Y-31151D01*
Y-31242D01*
Y-31334D01*
Y-31425D01*
X-334578D01*
Y-31517D01*
Y-31608D01*
Y-31700D01*
Y-31791D01*
Y-31883D01*
Y-31974D01*
Y-32066D01*
Y-32157D01*
Y-32249D01*
Y-32340D01*
Y-32432D01*
Y-32523D01*
Y-32615D01*
Y-32706D01*
X-334487D01*
Y-32798D01*
Y-32889D01*
Y-32981D01*
Y-33072D01*
Y-33164D01*
Y-33255D01*
Y-33347D01*
Y-33438D01*
Y-33530D01*
Y-33621D01*
X-334395D01*
Y-33713D01*
Y-33804D01*
Y-33896D01*
Y-33987D01*
Y-34079D01*
Y-34170D01*
Y-34262D01*
Y-34353D01*
X-334304D01*
Y-34445D01*
Y-34536D01*
Y-34628D01*
Y-34719D01*
Y-34811D01*
Y-34902D01*
X-334212D01*
Y-34994D01*
Y-35085D01*
Y-35177D01*
Y-35268D01*
Y-35360D01*
Y-35451D01*
X-334121D01*
Y-35543D01*
Y-35634D01*
Y-35726D01*
Y-35817D01*
Y-35909D01*
X-334029D01*
Y-36000D01*
Y-36092D01*
Y-36183D01*
Y-36275D01*
Y-36366D01*
X-333938D01*
Y-36458D01*
Y-36549D01*
Y-36641D01*
Y-36732D01*
X-333846D01*
Y-36824D01*
Y-36915D01*
Y-37007D01*
Y-37098D01*
X-333755D01*
Y-37190D01*
Y-37281D01*
Y-37373D01*
Y-37464D01*
X-333663D01*
Y-37556D01*
Y-37647D01*
Y-37739D01*
Y-37830D01*
X-333572D01*
Y-37922D01*
Y-38013D01*
Y-38105D01*
Y-38196D01*
X-333480D01*
Y-38288D01*
Y-38379D01*
Y-38471D01*
X-333389D01*
Y-38562D01*
Y-38654D01*
Y-38745D01*
X-333297D01*
Y-38837D01*
Y-38928D01*
Y-39020D01*
Y-39111D01*
X-333206D01*
Y-39203D01*
Y-39295D01*
Y-39386D01*
X-333114D01*
Y-39477D01*
Y-39569D01*
Y-39660D01*
X-333023D01*
Y-39752D01*
Y-39843D01*
X-332931D01*
Y-39935D01*
Y-40026D01*
Y-40118D01*
X-332840D01*
Y-40209D01*
Y-40301D01*
Y-40392D01*
X-332748D01*
Y-40484D01*
Y-40575D01*
Y-40667D01*
X-332657D01*
Y-40758D01*
Y-40850D01*
X-332565D01*
Y-40941D01*
Y-41033D01*
Y-41124D01*
X-332474D01*
Y-41216D01*
Y-41308D01*
X-332382D01*
Y-41399D01*
Y-41490D01*
X-332291D01*
Y-41582D01*
Y-41673D01*
Y-41765D01*
X-332199D01*
Y-41856D01*
Y-41948D01*
X-332108D01*
Y-42039D01*
Y-42131D01*
X-332016D01*
Y-42222D01*
Y-42314D01*
Y-42406D01*
X-331925D01*
Y-42497D01*
Y-42589D01*
X-331833D01*
Y-42680D01*
Y-42771D01*
X-331742D01*
Y-42863D01*
Y-42954D01*
X-331650D01*
Y-43046D01*
Y-43137D01*
X-331558D01*
Y-43229D01*
Y-43320D01*
X-331467D01*
Y-43412D01*
Y-43503D01*
X-331376D01*
Y-43595D01*
Y-43686D01*
X-331284D01*
Y-43778D01*
Y-43870D01*
X-331193D01*
Y-43961D01*
Y-44052D01*
X-331101D01*
Y-44144D01*
X-331009D01*
Y-44235D01*
Y-44327D01*
X-330918D01*
Y-44419D01*
Y-44510D01*
X-330826D01*
Y-44601D01*
Y-44693D01*
X-330735D01*
Y-44784D01*
X-330644D01*
Y-44876D01*
Y-44967D01*
X-330552D01*
Y-45059D01*
Y-45150D01*
X-330461D01*
Y-45242D01*
Y-45333D01*
X-330369D01*
Y-45425D01*
X-330277D01*
Y-45516D01*
Y-45608D01*
X-330186D01*
Y-45700D01*
X-330095D01*
Y-45791D01*
Y-45883D01*
X-330003D01*
Y-45974D01*
Y-46066D01*
X-329911D01*
Y-46157D01*
X-329820D01*
Y-46248D01*
Y-46340D01*
X-329729D01*
Y-46431D01*
X-329637D01*
Y-46523D01*
Y-46614D01*
X-329546D01*
Y-46706D01*
X-329454D01*
Y-46797D01*
X-329362D01*
Y-46889D01*
Y-46981D01*
X-329271D01*
Y-47072D01*
X-329179D01*
Y-47164D01*
Y-47255D01*
X-329088D01*
Y-47347D01*
X-328997D01*
Y-47438D01*
X-328905D01*
Y-47530D01*
Y-47621D01*
X-328814D01*
Y-47712D01*
X-328722D01*
Y-47804D01*
X-328630D01*
Y-47895D01*
Y-47987D01*
X-328539D01*
Y-48078D01*
X-328447D01*
Y-48170D01*
X-328356D01*
Y-48261D01*
Y-48353D01*
X-328265D01*
Y-48444D01*
X-328173D01*
Y-48536D01*
X-328082D01*
Y-48628D01*
X-327990D01*
Y-48719D01*
Y-48811D01*
X-327898D01*
Y-48902D01*
X-327807D01*
Y-48994D01*
X-327715D01*
Y-49085D01*
X-327624D01*
Y-49177D01*
X-327533D01*
Y-49268D01*
X-327441D01*
Y-49359D01*
Y-49451D01*
X-327350D01*
Y-49542D01*
X-327258D01*
Y-49634D01*
X-327166D01*
Y-49725D01*
X-327075D01*
Y-49817D01*
X-326983D01*
Y-49908D01*
X-326892D01*
Y-50000D01*
X-326800D01*
Y-50092D01*
X-326709D01*
Y-50183D01*
X-326618D01*
Y-50275D01*
Y-50366D01*
X-326526D01*
Y-50458D01*
X-326435D01*
Y-50549D01*
X-326343D01*
Y-50641D01*
X-326251D01*
Y-50732D01*
X-326160D01*
Y-50824D01*
X-326068D01*
Y-50915D01*
X-325977D01*
Y-51006D01*
X-325886D01*
Y-51098D01*
X-325794D01*
Y-51189D01*
X-325703D01*
Y-51281D01*
X-325611D01*
Y-51373D01*
X-325519D01*
Y-51464D01*
X-325336D01*
Y-51556D01*
X-325245D01*
Y-51647D01*
X-325154D01*
Y-51739D01*
X-325062D01*
Y-51830D01*
X-324971D01*
Y-51922D01*
X-324879D01*
Y-52013D01*
X-324787D01*
Y-52105D01*
X-324696D01*
Y-52196D01*
X-324604D01*
Y-52288D01*
X-324513D01*
Y-52379D01*
X-324330D01*
Y-52470D01*
X-324238D01*
Y-52562D01*
X-324147D01*
Y-52654D01*
X-324055D01*
Y-52745D01*
X-323964D01*
Y-52836D01*
X-323781D01*
Y-52928D01*
X-323689D01*
Y-53020D01*
X-323598D01*
Y-53111D01*
X-323506D01*
Y-53203D01*
X-323324D01*
Y-53294D01*
X-323232D01*
Y-53386D01*
X-323140D01*
Y-53477D01*
X-323049D01*
Y-53569D01*
X-322866D01*
Y-53660D01*
X-322774D01*
Y-53752D01*
X-322683D01*
Y-53843D01*
X-322500D01*
Y-53935D01*
X-322408D01*
Y-54026D01*
X-322225D01*
Y-54118D01*
X-322134D01*
Y-54209D01*
X-322042D01*
Y-54301D01*
X-321860D01*
Y-54392D01*
X-321768D01*
Y-54484D01*
X-321585D01*
Y-54575D01*
X-321493D01*
Y-54667D01*
X-321311D01*
Y-54758D01*
X-321219D01*
Y-54850D01*
X-321036D01*
Y-54941D01*
X-320944D01*
Y-55033D01*
X-320761D01*
Y-55124D01*
X-320578D01*
Y-55216D01*
X-320487D01*
Y-55307D01*
X-320304D01*
Y-55399D01*
X-320121D01*
Y-55490D01*
X-320029D01*
Y-55582D01*
X-319846D01*
Y-55673D01*
X-319663D01*
Y-55765D01*
X-319480D01*
Y-55856D01*
X-319389D01*
Y-55948D01*
X-319206D01*
Y-56039D01*
X-319023D01*
Y-56131D01*
X-318840D01*
Y-56222D01*
X-318657D01*
Y-56314D01*
X-318474D01*
Y-56405D01*
X-318291D01*
Y-56497D01*
X-318108D01*
Y-56588D01*
X-317925D01*
Y-56680D01*
X-317742D01*
Y-56771D01*
X-317559D01*
Y-56863D01*
X-317376D01*
Y-56954D01*
X-317101D01*
Y-57046D01*
X-316918D01*
Y-57137D01*
X-316735D01*
Y-57229D01*
X-316461D01*
Y-57320D01*
X-316278D01*
Y-57412D01*
X-316095D01*
Y-57503D01*
X-315820D01*
Y-57595D01*
X-315546D01*
Y-57686D01*
X-315363D01*
Y-57778D01*
X-315088D01*
Y-57869D01*
X-314814D01*
Y-57961D01*
X-314539D01*
Y-58052D01*
X-314265D01*
Y-58144D01*
X-313990D01*
Y-58235D01*
X-313716D01*
Y-58327D01*
X-313350D01*
Y-58418D01*
X-313075D01*
Y-58510D01*
X-312709D01*
Y-58601D01*
X-312343D01*
Y-58693D01*
X-311977D01*
Y-58784D01*
X-311611D01*
Y-58876D01*
X-311154D01*
Y-58967D01*
X-310696D01*
Y-59059D01*
X-310147D01*
Y-59150D01*
X-309598D01*
Y-59242D01*
X-308958D01*
Y-59333D01*
X-308134D01*
Y-59425D01*
X-307036D01*
Y-59516D01*
X-302553D01*
Y-59425D01*
X-301455D01*
Y-59333D01*
X-300723D01*
Y-59242D01*
X-300357D01*
Y-59333D01*
X-299533D01*
Y-59425D01*
X-298710D01*
Y-59516D01*
X-294409D01*
Y-59425D01*
X-293403D01*
Y-59333D01*
X-292579D01*
Y-59242D01*
X-292030D01*
Y-59150D01*
X-291481D01*
Y-59059D01*
X-290932D01*
Y-58967D01*
X-290475D01*
Y-58876D01*
X-290109D01*
Y-58784D01*
X-289651D01*
Y-58693D01*
X-289285D01*
Y-58601D01*
X-288919D01*
Y-58510D01*
X-288645D01*
Y-58418D01*
X-288279D01*
Y-58327D01*
X-288004D01*
Y-58235D01*
X-287729D01*
Y-58144D01*
X-287363D01*
Y-58052D01*
X-287089D01*
Y-57961D01*
X-286906D01*
Y-57869D01*
X-286632D01*
Y-57778D01*
X-286357D01*
Y-57686D01*
X-286082D01*
Y-57595D01*
X-285900D01*
Y-57503D01*
X-285625D01*
Y-57412D01*
X-285442D01*
Y-57320D01*
X-285168D01*
Y-57229D01*
X-284984D01*
Y-57137D01*
X-284802D01*
Y-57046D01*
X-284527D01*
Y-56954D01*
X-284344D01*
Y-56863D01*
X-284161D01*
Y-56771D01*
X-283978D01*
Y-56680D01*
X-283795D01*
Y-56588D01*
X-283612D01*
Y-56497D01*
X-283429D01*
Y-56405D01*
X-283246D01*
Y-56314D01*
X-283063D01*
Y-56222D01*
X-282880D01*
Y-56131D01*
X-282697D01*
Y-56039D01*
X-282514D01*
Y-55948D01*
X-282331D01*
Y-55856D01*
X-282148D01*
Y-55765D01*
X-282057D01*
Y-55673D01*
X-281873D01*
Y-55582D01*
X-281691D01*
Y-55490D01*
X-281599D01*
Y-55399D01*
X-281416D01*
Y-55307D01*
X-281233D01*
Y-55216D01*
X-281141D01*
Y-55124D01*
X-280958D01*
Y-55033D01*
X-280776D01*
Y-54941D01*
X-280684D01*
Y-54850D01*
X-280501D01*
Y-54758D01*
X-280409D01*
Y-54667D01*
X-280226D01*
Y-54575D01*
X-280135D01*
Y-54484D01*
X-279952D01*
Y-54392D01*
X-279860D01*
Y-54301D01*
X-279677D01*
Y-54209D01*
X-279586D01*
Y-54118D01*
X-279494D01*
Y-54026D01*
X-279312D01*
Y-53935D01*
X-279220D01*
Y-53843D01*
X-279037D01*
Y-53752D01*
X-278946D01*
Y-53660D01*
X-278854D01*
Y-53569D01*
X-278671D01*
Y-53477D01*
X-278579D01*
Y-53386D01*
X-278488D01*
Y-53294D01*
X-278396D01*
Y-53203D01*
X-278213D01*
Y-53111D01*
X-278122D01*
Y-53020D01*
X-278030D01*
Y-52928D01*
X-277939D01*
Y-52836D01*
X-277756D01*
Y-52745D01*
X-277664D01*
Y-52654D01*
X-277573D01*
Y-52562D01*
X-277481D01*
Y-52470D01*
X-277390D01*
Y-52379D01*
X-277298D01*
Y-52288D01*
X-277115D01*
Y-52196D01*
X-277024D01*
Y-52105D01*
X-276932D01*
Y-52013D01*
X-276841D01*
Y-51922D01*
X-276749D01*
Y-51830D01*
X-276658D01*
Y-51739D01*
X-276566D01*
Y-51647D01*
X-276475D01*
Y-51556D01*
X-276383D01*
Y-51464D01*
X-276292D01*
Y-51373D01*
X-276200D01*
Y-51281D01*
X-276109D01*
Y-51189D01*
X-276017D01*
Y-51098D01*
X-275926D01*
Y-51006D01*
X-275834D01*
Y-50915D01*
X-275743D01*
Y-50824D01*
X-275651D01*
Y-50732D01*
X-275560D01*
Y-50641D01*
X-275377D01*
Y-50549D01*
X-275285D01*
Y-50458D01*
X-275194D01*
Y-50366D01*
X-275102D01*
Y-50275D01*
X-275011D01*
Y-50183D01*
X-274919D01*
Y-50092D01*
X-274828D01*
Y-50000D01*
X-274736D01*
Y-49908D01*
X-274645D01*
Y-49817D01*
X-274553D01*
Y-49725D01*
X-274462D01*
Y-49634D01*
X-274370D01*
Y-49542D01*
X-274279D01*
Y-49451D01*
X-274187D01*
Y-49359D01*
X-274096D01*
Y-49268D01*
X-274004D01*
Y-49177D01*
X-273913D01*
Y-49085D01*
X-273821D01*
Y-48994D01*
X-273730D01*
Y-48902D01*
X-273638D01*
Y-48811D01*
X-273547D01*
Y-48719D01*
X-273455D01*
Y-48628D01*
X-273364D01*
Y-48536D01*
X-273272D01*
Y-48444D01*
X-273181D01*
Y-48353D01*
X-273089D01*
Y-48261D01*
X-272906D01*
Y-48170D01*
X-272815D01*
Y-48078D01*
X-272723D01*
Y-47987D01*
X-272632D01*
Y-47895D01*
X-272540D01*
Y-47804D01*
X-272449D01*
Y-47712D01*
X-272357D01*
Y-47621D01*
X-272266D01*
Y-47530D01*
X-272174D01*
Y-47438D01*
X-272083D01*
Y-47347D01*
X-271991D01*
Y-47255D01*
X-271900D01*
Y-47164D01*
X-271808D01*
Y-47072D01*
X-271717D01*
Y-46981D01*
X-271625D01*
Y-46889D01*
X-271534D01*
Y-46797D01*
X-271442D01*
Y-46706D01*
X-271351D01*
Y-46614D01*
X-271259D01*
Y-46523D01*
X-271168D01*
Y-46431D01*
X-271076D01*
Y-46340D01*
X-270985D01*
Y-46248D01*
X-270893D01*
Y-46157D01*
X-270802D01*
Y-46066D01*
X-270710D01*
Y-45974D01*
X-270619D01*
Y-45883D01*
X-270527D01*
Y-45791D01*
X-270436D01*
Y-45700D01*
X-270344D01*
Y-45608D01*
X-270253D01*
Y-45516D01*
X-270161D01*
Y-45425D01*
X-270070D01*
Y-45333D01*
X-269978D01*
Y-45242D01*
X-269887D01*
Y-45150D01*
X-269795D01*
Y-45059D01*
X-269704D01*
Y-44967D01*
X-269612D01*
Y-44876D01*
X-269521D01*
Y-44784D01*
X-269429D01*
Y-44693D01*
X-269338D01*
Y-44601D01*
X-269246D01*
Y-44510D01*
X-269155D01*
Y-44419D01*
X-269063D01*
Y-44327D01*
X-268972D01*
Y-44235D01*
X-268880D01*
Y-44144D01*
X-268789D01*
Y-44052D01*
X-268697D01*
Y-43961D01*
X-268606D01*
Y-43870D01*
X-268514D01*
Y-43778D01*
X-268423D01*
Y-43686D01*
X-268331D01*
Y-43595D01*
X-268240D01*
Y-43503D01*
X-268148D01*
Y-43412D01*
X-268057D01*
Y-43320D01*
X-267965D01*
Y-43229D01*
X-267874D01*
Y-43137D01*
X-267782D01*
Y-43046D01*
X-267691D01*
Y-42954D01*
Y-42863D01*
X-267599D01*
Y-42771D01*
X-267508D01*
Y-42680D01*
X-267416D01*
Y-42589D01*
X-267325D01*
Y-42497D01*
X-267233D01*
Y-42406D01*
X-267142D01*
Y-42314D01*
X-267050D01*
Y-42222D01*
X-266959D01*
Y-42131D01*
Y-42039D01*
X-266867D01*
Y-41948D01*
X-266776D01*
Y-41856D01*
X-266684D01*
Y-41765D01*
X-266593D01*
Y-41673D01*
X-266501D01*
Y-41582D01*
X-266410D01*
Y-41490D01*
Y-41399D01*
X-266318D01*
Y-41308D01*
X-266227D01*
Y-41216D01*
X-266135D01*
Y-41124D01*
X-266044D01*
Y-41033D01*
X-265952D01*
Y-40941D01*
Y-40850D01*
X-265861D01*
Y-40758D01*
X-265769D01*
Y-40667D01*
X-265678D01*
Y-40575D01*
X-265586D01*
Y-40484D01*
Y-40392D01*
X-265495D01*
Y-40301D01*
X-265403D01*
Y-40209D01*
X-265312D01*
Y-40118D01*
X-265220D01*
Y-40026D01*
Y-39935D01*
X-265129D01*
Y-39843D01*
X-265037D01*
Y-39752D01*
X-264946D01*
Y-39660D01*
Y-39569D01*
X-264854D01*
Y-39477D01*
X-264763D01*
Y-39386D01*
X-264671D01*
Y-39295D01*
Y-39203D01*
X-264580D01*
Y-39111D01*
X-264488D01*
Y-39020D01*
Y-38928D01*
X-264397D01*
Y-38837D01*
X-264305D01*
Y-38745D01*
Y-38654D01*
X-264214D01*
Y-38562D01*
X-264122D01*
Y-38471D01*
Y-38379D01*
X-264031D01*
Y-38288D01*
X-263939D01*
Y-38196D01*
Y-38105D01*
X-263848D01*
Y-38013D01*
X-263756D01*
Y-37922D01*
Y-37830D01*
X-263665D01*
Y-37739D01*
X-263573D01*
Y-37647D01*
Y-37556D01*
X-263482D01*
Y-37464D01*
Y-37373D01*
X-263390D01*
Y-37281D01*
X-263299D01*
Y-37190D01*
Y-37098D01*
X-263207D01*
Y-37007D01*
Y-36915D01*
X-263116D01*
Y-36824D01*
X-263024D01*
Y-36732D01*
Y-36641D01*
X-262933D01*
Y-36549D01*
Y-36458D01*
X-262841D01*
Y-36366D01*
Y-36275D01*
X-262750D01*
Y-36183D01*
Y-36092D01*
X-262658D01*
Y-36000D01*
Y-35909D01*
X-262567D01*
Y-35817D01*
Y-35726D01*
X-262475D01*
Y-35634D01*
Y-35543D01*
X-262384D01*
Y-35451D01*
Y-35360D01*
X-262292D01*
Y-35268D01*
Y-35177D01*
Y-35085D01*
X-262201D01*
Y-34994D01*
Y-34902D01*
X-262109D01*
Y-34811D01*
Y-34719D01*
X-262018D01*
Y-34628D01*
Y-34536D01*
Y-34445D01*
X-261926D01*
Y-34353D01*
Y-34262D01*
Y-34170D01*
X-261835D01*
Y-34079D01*
Y-33987D01*
X-261743D01*
Y-33896D01*
Y-33804D01*
Y-33713D01*
X-261652D01*
Y-33621D01*
Y-33530D01*
Y-33438D01*
Y-33347D01*
X-261560D01*
Y-33255D01*
Y-33164D01*
Y-33072D01*
X-261469D01*
Y-32981D01*
Y-32889D01*
Y-32798D01*
Y-32706D01*
X-261377D01*
Y-32615D01*
Y-32523D01*
Y-32432D01*
Y-32340D01*
Y-32249D01*
X-261286D01*
Y-32157D01*
Y-32066D01*
Y-31974D01*
Y-31883D01*
Y-31791D01*
X-261194D01*
Y-31700D01*
Y-31608D01*
Y-31517D01*
Y-31425D01*
Y-31334D01*
Y-31242D01*
Y-31151D01*
Y-31059D01*
X-261103D01*
Y-30968D01*
Y-30876D01*
Y-30785D01*
Y-30693D01*
Y-30602D01*
Y-30510D01*
Y-30419D01*
Y-30327D01*
Y-30236D01*
Y-30144D01*
Y-30053D01*
Y-29961D01*
Y-29870D01*
Y-29778D01*
Y-29687D01*
Y-29595D01*
Y-29504D01*
Y-29412D01*
Y-29321D01*
Y-29229D01*
Y-29138D01*
X-261194D01*
Y-29046D01*
Y-28955D01*
Y-28863D01*
Y-28772D01*
Y-28680D01*
Y-28589D01*
Y-28497D01*
Y-28406D01*
X-261286D01*
Y-28314D01*
Y-28223D01*
Y-28131D01*
Y-28040D01*
Y-27948D01*
X-261377D01*
Y-27857D01*
Y-27765D01*
Y-27674D01*
Y-27582D01*
Y-27491D01*
X-261469D01*
Y-27399D01*
Y-27308D01*
Y-27216D01*
Y-27125D01*
X-261560D01*
Y-27033D01*
Y-26942D01*
Y-26850D01*
X-261652D01*
Y-26759D01*
Y-26667D01*
Y-26576D01*
Y-26484D01*
X-261743D01*
Y-26393D01*
Y-26301D01*
Y-26210D01*
X-261835D01*
Y-26118D01*
Y-26027D01*
X-261926D01*
Y-25935D01*
Y-25844D01*
Y-25752D01*
X-262018D01*
Y-25661D01*
Y-25569D01*
Y-25478D01*
X-262109D01*
Y-25386D01*
Y-25295D01*
X-262201D01*
Y-25203D01*
Y-25112D01*
X-262292D01*
Y-25020D01*
Y-24929D01*
Y-24837D01*
X-262384D01*
Y-24746D01*
Y-24654D01*
X-262475D01*
Y-24563D01*
Y-24471D01*
X-262567D01*
Y-24380D01*
Y-24288D01*
X-262658D01*
Y-24197D01*
Y-24105D01*
X-262750D01*
Y-24014D01*
Y-23922D01*
X-262841D01*
Y-23831D01*
Y-23739D01*
X-262933D01*
Y-23648D01*
Y-23556D01*
X-263024D01*
Y-23465D01*
X-263116D01*
Y-23373D01*
Y-23282D01*
X-263207D01*
Y-23190D01*
Y-23099D01*
X-263299D01*
Y-23007D01*
Y-22916D01*
X-263390D01*
Y-22824D01*
X-263482D01*
Y-22733D01*
Y-22641D01*
X-263573D01*
Y-22550D01*
Y-22458D01*
X-263665D01*
Y-22367D01*
X-263756D01*
Y-22275D01*
Y-22184D01*
X-263848D01*
Y-22092D01*
X-263939D01*
Y-22001D01*
Y-21909D01*
X-264031D01*
Y-21818D01*
X-264122D01*
Y-21726D01*
Y-21635D01*
X-264214D01*
Y-21543D01*
X-264305D01*
Y-21452D01*
Y-21360D01*
X-264397D01*
Y-21269D01*
X-264488D01*
Y-21177D01*
Y-21086D01*
X-264580D01*
Y-20994D01*
X-264671D01*
Y-20903D01*
X-264763D01*
Y-20811D01*
Y-20720D01*
X-264854D01*
Y-20628D01*
X-264946D01*
Y-20537D01*
X-265037D01*
Y-20445D01*
Y-20354D01*
X-265129D01*
Y-20262D01*
X-265220D01*
Y-20171D01*
X-265312D01*
Y-20079D01*
Y-19988D01*
X-265403D01*
Y-19896D01*
X-265495D01*
Y-19805D01*
X-265586D01*
Y-19713D01*
X-265678D01*
Y-19622D01*
Y-19530D01*
X-265769D01*
Y-19439D01*
X-265861D01*
Y-19347D01*
X-265952D01*
Y-19256D01*
X-266044D01*
Y-19164D01*
Y-19073D01*
X-266135D01*
Y-18981D01*
X-266227D01*
Y-18890D01*
X-266318D01*
Y-18798D01*
X-266410D01*
Y-18707D01*
X-266501D01*
Y-18615D01*
X-266593D01*
Y-18524D01*
Y-18432D01*
X-266684D01*
Y-18341D01*
X-266776D01*
Y-18249D01*
X-266867D01*
Y-18158D01*
X-266959D01*
Y-18066D01*
X-267050D01*
Y-17975D01*
X-267142D01*
Y-17883D01*
X-267233D01*
Y-17792D01*
Y-17700D01*
X-267325D01*
Y-17609D01*
X-267416D01*
Y-17517D01*
X-267508D01*
Y-17426D01*
X-267599D01*
Y-17334D01*
X-267691D01*
Y-17243D01*
X-267782D01*
Y-17151D01*
X-267874D01*
Y-17060D01*
X-267965D01*
Y-16968D01*
X-268057D01*
Y-16877D01*
X-268148D01*
Y-16785D01*
X-268240D01*
Y-16694D01*
X-268331D01*
Y-16602D01*
Y-16511D01*
X-268423D01*
Y-16419D01*
X-268514D01*
Y-16328D01*
X-268606D01*
Y-16236D01*
X-268697D01*
Y-16145D01*
X-268789D01*
Y-16053D01*
X-268880D01*
Y-15962D01*
X-268972D01*
Y-15870D01*
X-269063D01*
Y-15779D01*
X-269155D01*
Y-15687D01*
X-269246D01*
Y-15596D01*
X-269338D01*
Y-15504D01*
X-269429D01*
Y-15413D01*
X-269521D01*
Y-15321D01*
X-269612D01*
Y-15230D01*
X-269704D01*
Y-15138D01*
X-269795D01*
Y-15047D01*
X-269887D01*
Y-14955D01*
X-269978D01*
Y-14864D01*
X-270070D01*
Y-14772D01*
X-270161D01*
Y-14681D01*
X-270253D01*
Y-14589D01*
X-270344D01*
Y-14498D01*
X-270436D01*
Y-14406D01*
X-270527D01*
Y-14315D01*
X-270619D01*
Y-14223D01*
X-270710D01*
Y-14132D01*
X-270802D01*
Y-14040D01*
X-270893D01*
Y-13949D01*
X-270985D01*
Y-13857D01*
X-271076D01*
Y-13766D01*
X-271168D01*
Y-13674D01*
X-271259D01*
Y-13583D01*
X-271351D01*
Y-13491D01*
X-271442D01*
Y-13400D01*
X-271625D01*
Y-13308D01*
X-271717D01*
Y-13217D01*
X-271808D01*
Y-13125D01*
X-271900D01*
Y-13034D01*
X-271991D01*
Y-12942D01*
X-272083D01*
Y-12851D01*
X-272174D01*
Y-12759D01*
X-272266D01*
Y-12668D01*
X-272357D01*
Y-12576D01*
X-272449D01*
Y-12485D01*
X-272540D01*
Y-12393D01*
X-272632D01*
Y-12302D01*
X-272723D01*
Y-12210D01*
X-272815D01*
Y-12119D01*
X-272906D01*
Y-12027D01*
X-272998D01*
Y-11936D01*
X-273089D01*
Y-11844D01*
X-273181D01*
Y-11753D01*
X-273272D01*
Y-11661D01*
X-273364D01*
Y-11570D01*
X-273455D01*
Y-11478D01*
X-273547D01*
Y-11387D01*
X-273638D01*
Y-11295D01*
X-273821D01*
Y-11204D01*
X-273913D01*
Y-11112D01*
X-274004D01*
Y-11021D01*
X-274096D01*
Y-10929D01*
X-274187D01*
Y-10838D01*
X-274279D01*
Y-10746D01*
X-274370D01*
Y-10655D01*
X-274462D01*
Y-10563D01*
X-274553D01*
Y-10472D01*
X-274645D01*
Y-10380D01*
X-274736D01*
Y-10289D01*
X-274828D01*
Y-10197D01*
X-274919D01*
Y-10106D01*
X-275011D01*
Y-10014D01*
X-275102D01*
Y-9923D01*
X-275194D01*
Y-9831D01*
X-275285D01*
Y-9740D01*
X-275377D01*
Y-9648D01*
X-275468D01*
Y-9556D01*
X-275560D01*
Y-9465D01*
X-275651D01*
Y-9373D01*
X-275743D01*
Y-9282D01*
X-275834D01*
Y-9190D01*
X-275926D01*
Y-9099D01*
X-276017D01*
Y-9008D01*
X-276109D01*
Y-8916D01*
X-276200D01*
Y-8824D01*
X-276292D01*
Y-8733D01*
X-276383D01*
Y-8641D01*
X-276475D01*
Y-8550D01*
X-276566D01*
Y-8458D01*
X-276658D01*
Y-8367D01*
X-276841D01*
Y-8275D01*
X-276932D01*
Y-8184D01*
X-277024D01*
Y-8092D01*
X-277115D01*
Y-8001D01*
X-277207D01*
Y-7910D01*
X-277298D01*
Y-7818D01*
X-277390D01*
Y-7727D01*
X-277481D01*
Y-7635D01*
X-277664D01*
Y-7544D01*
X-277756D01*
Y-7452D01*
X-277847D01*
Y-7361D01*
X-277939D01*
Y-7269D01*
X-278122D01*
Y-7178D01*
X-278213D01*
Y-7086D01*
X-278305D01*
Y-6995D01*
X-278396D01*
Y-6903D01*
X-278579D01*
Y-6812D01*
X-278671D01*
Y-6720D01*
X-278762D01*
Y-6629D01*
X-278854D01*
Y-6537D01*
X-279037D01*
Y-6446D01*
X-279128D01*
Y-6354D01*
X-279312D01*
Y-6263D01*
X-279403D01*
Y-6171D01*
X-279494D01*
Y-6079D01*
X-279677D01*
Y-5988D01*
X-279769D01*
Y-5896D01*
X-279952D01*
Y-5805D01*
X-280043D01*
Y-5713D01*
X-280226D01*
Y-5622D01*
X-280318D01*
Y-5530D01*
X-280501D01*
Y-5439D01*
X-280592D01*
Y-5347D01*
X-280776D01*
Y-5256D01*
X-280867D01*
Y-5164D01*
X-281050D01*
Y-5073D01*
X-281141D01*
Y-4981D01*
X-281325D01*
Y-4890D01*
X-281507D01*
Y-4798D01*
X-281599D01*
Y-4707D01*
X-281782D01*
Y-4615D01*
X-281965D01*
Y-4524D01*
X-282148D01*
Y-4433D01*
X-282239D01*
Y-4341D01*
X-282423D01*
Y-4250D01*
X-282605D01*
Y-4158D01*
X-282789D01*
Y-4067D01*
X-282971D01*
Y-3975D01*
X-283155D01*
Y-3884D01*
X-283337D01*
Y-3792D01*
X-283521D01*
Y-3701D01*
X-283703D01*
Y-3609D01*
X-283887D01*
Y-3517D01*
X-284069D01*
Y-3426D01*
X-284252D01*
Y-3334D01*
X-284436D01*
Y-3243D01*
X-284710D01*
Y-3151D01*
X-284893D01*
Y-3060D01*
X-285076D01*
Y-2968D01*
X-285350D01*
Y-2877D01*
X-285534D01*
Y-2785D01*
X-285808D01*
Y-2694D01*
X-285991D01*
Y-2603D01*
X-286266D01*
Y-2511D01*
X-286540D01*
Y-2420D01*
X-286723D01*
Y-2328D01*
X-286998D01*
Y-2236D01*
X-287272D01*
Y-2145D01*
X-287547D01*
Y-2053D01*
X-287821D01*
Y-1962D01*
X-288187D01*
Y-1870D01*
X-288461D01*
Y-1779D01*
X-288828D01*
Y-1687D01*
X-289102D01*
Y-1596D01*
X-289468D01*
Y-1505D01*
X-289926D01*
Y-1413D01*
X-290292D01*
Y-1321D01*
X-290749D01*
Y-1230D01*
X-291207D01*
Y-1138D01*
X-291756D01*
Y-1047D01*
X-292305D01*
Y-955D01*
X-293037D01*
Y-864D01*
X-293860D01*
Y-772D01*
X-295233D01*
Y-681D01*
D02*
G37*
G36*
X-234933Y-21818D02*
X-236031D01*
Y-21909D01*
X-236763D01*
Y-22001D01*
X-237221D01*
Y-22092D01*
X-237587D01*
Y-22184D01*
X-237861D01*
Y-22275D01*
X-238136D01*
Y-22367D01*
X-238410D01*
Y-22458D01*
X-238594D01*
Y-22550D01*
X-238776D01*
Y-22641D01*
X-238960D01*
Y-22733D01*
X-239142D01*
Y-22824D01*
X-239326D01*
Y-22916D01*
X-239508D01*
Y-23007D01*
X-239600D01*
Y-23099D01*
X-239783D01*
Y-23190D01*
X-239874D01*
Y-23282D01*
X-240058D01*
Y-23373D01*
X-240149D01*
Y-23465D01*
X-240240D01*
Y-23556D01*
X-240332D01*
Y-23648D01*
X-240515D01*
Y-23739D01*
X-240606D01*
Y-23831D01*
X-240698D01*
Y-23922D01*
X-240790D01*
Y-24014D01*
X-240881D01*
Y-24105D01*
X-240972D01*
Y-24197D01*
X-241064D01*
Y-24288D01*
X-241155D01*
Y-24380D01*
X-241247D01*
Y-24471D01*
X-241339D01*
Y-24563D01*
X-241430D01*
Y-24654D01*
Y-24746D01*
X-241521D01*
Y-24837D01*
X-241613D01*
Y-24929D01*
X-241705D01*
Y-25020D01*
X-241796D01*
Y-25112D01*
Y-25203D01*
X-241887D01*
Y-25295D01*
X-241979D01*
Y-25386D01*
Y-25478D01*
X-242071D01*
Y-25569D01*
X-242162D01*
Y-25661D01*
Y-25752D01*
X-242253D01*
Y-25844D01*
Y-25935D01*
X-242345D01*
Y-26027D01*
Y-26118D01*
X-242437D01*
Y-26210D01*
Y-26301D01*
X-242528D01*
Y-26393D01*
Y-26484D01*
X-242619D01*
Y-26576D01*
Y-26667D01*
X-242711D01*
Y-26759D01*
Y-26850D01*
Y-26942D01*
X-242803D01*
Y-27033D01*
Y-27125D01*
Y-27216D01*
X-242894D01*
Y-27308D01*
Y-27399D01*
Y-27491D01*
X-242985D01*
Y-27582D01*
Y-27674D01*
Y-27765D01*
Y-27857D01*
X-243077D01*
Y-27948D01*
Y-28040D01*
Y-28131D01*
Y-28223D01*
X-243169D01*
Y-28314D01*
Y-28406D01*
Y-28497D01*
Y-28589D01*
Y-28680D01*
Y-28772D01*
Y-28863D01*
Y-28955D01*
X-243260D01*
Y-29046D01*
Y-29138D01*
Y-29229D01*
Y-29321D01*
Y-29412D01*
Y-29504D01*
Y-29595D01*
Y-29687D01*
Y-29778D01*
Y-29870D01*
Y-29961D01*
Y-30053D01*
Y-30144D01*
Y-30236D01*
Y-30327D01*
Y-30419D01*
Y-30510D01*
Y-30602D01*
Y-30693D01*
Y-30785D01*
X-243169D01*
Y-30876D01*
Y-30968D01*
Y-31059D01*
Y-31151D01*
Y-31242D01*
Y-31334D01*
Y-31425D01*
X-243077D01*
Y-31517D01*
Y-31608D01*
Y-31700D01*
Y-31791D01*
Y-31883D01*
X-242985D01*
Y-31974D01*
Y-32066D01*
Y-32157D01*
X-242894D01*
Y-32249D01*
Y-32340D01*
Y-32432D01*
X-242803D01*
Y-32523D01*
Y-32615D01*
Y-32706D01*
X-242711D01*
Y-32798D01*
Y-32889D01*
Y-32981D01*
X-242619D01*
Y-33072D01*
Y-33164D01*
X-242528D01*
Y-33255D01*
Y-33347D01*
X-242437D01*
Y-33438D01*
Y-33530D01*
X-242345D01*
Y-33621D01*
Y-33713D01*
X-242253D01*
Y-33804D01*
Y-33896D01*
X-242162D01*
Y-33987D01*
Y-34079D01*
X-242071D01*
Y-34170D01*
X-241979D01*
Y-34262D01*
Y-34353D01*
X-241887D01*
Y-34445D01*
Y-34536D01*
X-241796D01*
Y-34628D01*
X-241705D01*
Y-34719D01*
X-241613D01*
Y-34811D01*
Y-34902D01*
X-241521D01*
Y-34994D01*
X-241430D01*
Y-35085D01*
X-241339D01*
Y-35177D01*
X-241247D01*
Y-35268D01*
X-241155D01*
Y-35360D01*
X-241064D01*
Y-35451D01*
Y-35543D01*
X-240972D01*
Y-35634D01*
X-240881D01*
Y-35726D01*
X-240790D01*
Y-35817D01*
X-240606D01*
Y-35909D01*
X-240515D01*
Y-36000D01*
X-240424D01*
Y-36092D01*
X-240332D01*
Y-36183D01*
X-240240D01*
Y-36275D01*
X-240149D01*
Y-36366D01*
X-239966D01*
Y-36458D01*
X-239874D01*
Y-36549D01*
X-239783D01*
Y-36641D01*
X-239600D01*
Y-36732D01*
X-239417D01*
Y-36824D01*
X-239326D01*
Y-36915D01*
X-239142D01*
Y-37007D01*
X-238960D01*
Y-37098D01*
X-238776D01*
Y-37190D01*
X-238594D01*
Y-37281D01*
X-238410D01*
Y-37373D01*
X-238228D01*
Y-37464D01*
X-237953D01*
Y-37556D01*
X-237679D01*
Y-37647D01*
X-237404D01*
Y-37739D01*
X-237038D01*
Y-37830D01*
X-236580D01*
Y-37922D01*
X-235940D01*
Y-38013D01*
X-235025D01*
Y-37922D01*
X-234384D01*
Y-37830D01*
X-233927D01*
Y-37739D01*
X-233561D01*
Y-37647D01*
X-233286D01*
Y-37556D01*
X-233012D01*
Y-37464D01*
X-232829D01*
Y-37373D01*
X-232554D01*
Y-37281D01*
X-232371D01*
Y-37190D01*
X-232188D01*
Y-37098D01*
X-232005D01*
Y-37007D01*
X-231822D01*
Y-36915D01*
X-231731D01*
Y-36824D01*
X-231548D01*
Y-36732D01*
X-231365D01*
Y-36641D01*
X-231273D01*
Y-36549D01*
X-231090D01*
Y-36458D01*
X-230999D01*
Y-36366D01*
X-230907D01*
Y-36275D01*
X-230724D01*
Y-36183D01*
X-230633D01*
Y-36092D01*
X-230541D01*
Y-36000D01*
X-230450D01*
Y-35909D01*
X-230358D01*
Y-35817D01*
X-230267D01*
Y-35726D01*
X-230175D01*
Y-35634D01*
X-230084D01*
Y-35543D01*
X-229992D01*
Y-35451D01*
X-229901D01*
Y-35360D01*
X-229809D01*
Y-35268D01*
X-229718D01*
Y-35177D01*
X-229626D01*
Y-35085D01*
X-229535D01*
Y-34994D01*
Y-34902D01*
X-229443D01*
Y-34811D01*
X-229352D01*
Y-34719D01*
X-229260D01*
Y-34628D01*
Y-34536D01*
X-229169D01*
Y-34445D01*
X-229077D01*
Y-34353D01*
X-228986D01*
Y-34262D01*
Y-34170D01*
X-228894D01*
Y-34079D01*
Y-33987D01*
X-228803D01*
Y-33896D01*
X-228711D01*
Y-33804D01*
Y-33713D01*
X-228620D01*
Y-33621D01*
Y-33530D01*
X-228528D01*
Y-33438D01*
Y-33347D01*
X-228437D01*
Y-33255D01*
Y-33164D01*
Y-33072D01*
X-228345D01*
Y-32981D01*
Y-32889D01*
X-228254D01*
Y-32798D01*
Y-32706D01*
Y-32615D01*
X-228162D01*
Y-32523D01*
Y-32432D01*
Y-32340D01*
X-228071D01*
Y-32249D01*
Y-32157D01*
Y-32066D01*
X-227979D01*
Y-31974D01*
Y-31883D01*
Y-31791D01*
Y-31700D01*
X-227888D01*
Y-31608D01*
Y-31517D01*
Y-31425D01*
Y-31334D01*
Y-31242D01*
X-227796D01*
Y-31151D01*
Y-31059D01*
Y-30968D01*
Y-30876D01*
Y-30785D01*
Y-30693D01*
Y-30602D01*
Y-30510D01*
Y-30419D01*
Y-30327D01*
X-227705D01*
Y-30236D01*
Y-30144D01*
Y-30053D01*
Y-29961D01*
Y-29870D01*
Y-29778D01*
Y-29687D01*
X-227796D01*
Y-29595D01*
Y-29504D01*
Y-29412D01*
Y-29321D01*
Y-29229D01*
Y-29138D01*
Y-29046D01*
Y-28955D01*
Y-28863D01*
Y-28772D01*
Y-28680D01*
Y-28589D01*
Y-28497D01*
Y-28406D01*
X-227888D01*
Y-28314D01*
Y-28223D01*
Y-28131D01*
Y-28040D01*
Y-27948D01*
X-227979D01*
Y-27857D01*
Y-27765D01*
Y-27674D01*
Y-27582D01*
X-228071D01*
Y-27491D01*
Y-27399D01*
Y-27308D01*
X-228162D01*
Y-27216D01*
Y-27125D01*
Y-27033D01*
X-228254D01*
Y-26942D01*
Y-26850D01*
Y-26759D01*
X-228345D01*
Y-26667D01*
Y-26576D01*
X-228437D01*
Y-26484D01*
Y-26393D01*
Y-26301D01*
X-228528D01*
Y-26210D01*
Y-26118D01*
X-228620D01*
Y-26027D01*
Y-25935D01*
X-228711D01*
Y-25844D01*
X-228803D01*
Y-25752D01*
Y-25661D01*
X-228894D01*
Y-25569D01*
Y-25478D01*
X-228986D01*
Y-25386D01*
X-229077D01*
Y-25295D01*
Y-25203D01*
X-229169D01*
Y-25112D01*
X-229260D01*
Y-25020D01*
X-229352D01*
Y-24929D01*
Y-24837D01*
X-229443D01*
Y-24746D01*
X-229535D01*
Y-24654D01*
X-229626D01*
Y-24563D01*
X-229718D01*
Y-24471D01*
Y-24380D01*
X-229809D01*
Y-24288D01*
X-229901D01*
Y-24197D01*
X-229992D01*
Y-24105D01*
X-230084D01*
Y-24014D01*
X-230175D01*
Y-23922D01*
X-230267D01*
Y-23831D01*
X-230450D01*
Y-23739D01*
X-230541D01*
Y-23648D01*
X-230633D01*
Y-23556D01*
X-230724D01*
Y-23465D01*
X-230816D01*
Y-23373D01*
X-230999D01*
Y-23282D01*
X-231090D01*
Y-23190D01*
X-231273D01*
Y-23099D01*
X-231365D01*
Y-23007D01*
X-231548D01*
Y-22916D01*
X-231639D01*
Y-22824D01*
X-231822D01*
Y-22733D01*
X-232005D01*
Y-22641D01*
X-232188D01*
Y-22550D01*
X-232371D01*
Y-22458D01*
X-232646D01*
Y-22367D01*
X-232829D01*
Y-22275D01*
X-233103D01*
Y-22184D01*
X-233378D01*
Y-22092D01*
X-233744D01*
Y-22001D01*
X-234201D01*
Y-21909D01*
X-234933D01*
Y-21818D01*
D02*
G37*
%LPD*%
D10*
X137500Y-695000D02*
G03*
X137500Y-670000I0J12500D01*
G01*
X-137500D02*
G03*
X-137500Y-695000I0J-12500D01*
G01*
X520000Y-715000D02*
G03*
X555000Y-680000I0J35000D01*
G01*
Y680000D02*
G03*
X520000Y715000I-35000J0D01*
G01*
X-520000D02*
G03*
X-555000Y680000I0J-35000D01*
G01*
Y-680000D02*
G03*
X-520000Y-715000I35000J0D01*
G01*
X-137500Y-695000D02*
X137500Y-695000D01*
X-137500Y-670000D02*
X137500Y-670000D01*
X555000Y-680000D02*
X555000Y680000D01*
X0Y-715000D02*
X520000D01*
X0Y715000D02*
X520000D01*
X-520000D02*
X0D01*
X-520000Y-715000D02*
X0D01*
X-555000Y680000D02*
X-555000Y-680000D01*
D55*
X546610Y680000D02*
G03*
X546610Y680000I-26610J0D01*
G01*
X-493390D02*
G03*
X-493390Y680000I-26610J0D01*
G01*
X546610Y-680000D02*
G03*
X546610Y-680000I-26610J0D01*
G01*
X-493390D02*
G03*
X-493390Y-680000I-26610J0D01*
G01*
D56*
X280000Y305120D02*
D03*
Y289880D02*
D03*
X-280000Y-289880D02*
D03*
Y-305120D02*
D03*
X-25000Y125620D02*
D03*
Y110380D02*
D03*
X340000Y-289880D02*
D03*
Y-305120D02*
D03*
X352500Y-289880D02*
D03*
Y-305120D02*
D03*
Y350120D02*
D03*
Y334880D02*
D03*
X340000Y350120D02*
D03*
Y334880D02*
D03*
X420000Y32380D02*
D03*
Y47620D02*
D03*
Y112380D02*
D03*
Y127620D02*
D03*
Y192380D02*
D03*
Y207620D02*
D03*
Y272380D02*
D03*
Y287620D02*
D03*
Y352380D02*
D03*
Y367620D02*
D03*
Y432380D02*
D03*
Y447620D02*
D03*
Y512380D02*
D03*
Y527620D02*
D03*
Y592380D02*
D03*
Y607620D02*
D03*
X185000Y-337620D02*
D03*
Y-322380D02*
D03*
X155000Y370120D02*
D03*
Y354880D02*
D03*
X180000Y370120D02*
D03*
Y354880D02*
D03*
X167500Y370120D02*
D03*
Y354880D02*
D03*
X192500Y370120D02*
D03*
Y354880D02*
D03*
X180000Y485120D02*
D03*
Y469880D02*
D03*
X142500Y485120D02*
D03*
Y469880D02*
D03*
X205000Y370120D02*
D03*
Y354880D02*
D03*
X-352500Y-289880D02*
D03*
Y-305120D02*
D03*
Y350120D02*
D03*
Y334880D02*
D03*
X-340000Y-289880D02*
D03*
Y-305120D02*
D03*
Y350120D02*
D03*
Y334880D02*
D03*
X-420000Y-592380D02*
D03*
Y-607620D02*
D03*
Y-512380D02*
D03*
Y-527620D02*
D03*
Y-432380D02*
D03*
Y-447620D02*
D03*
Y-352380D02*
D03*
Y-367620D02*
D03*
Y-272380D02*
D03*
Y-287620D02*
D03*
Y-192380D02*
D03*
Y-207620D02*
D03*
Y-112380D02*
D03*
Y-127620D02*
D03*
Y-32380D02*
D03*
Y-47620D02*
D03*
X420000Y-607620D02*
D03*
Y-592380D02*
D03*
Y-527620D02*
D03*
Y-512380D02*
D03*
Y-447620D02*
D03*
Y-432380D02*
D03*
Y-367620D02*
D03*
Y-352380D02*
D03*
Y-287620D02*
D03*
Y-272380D02*
D03*
Y-207620D02*
D03*
Y-192380D02*
D03*
Y-127620D02*
D03*
Y-112380D02*
D03*
Y-47620D02*
D03*
Y-32380D02*
D03*
X-105000Y440380D02*
D03*
Y455620D02*
D03*
X185000Y-307620D02*
D03*
Y-292380D02*
D03*
X165000Y159880D02*
D03*
Y175120D02*
D03*
X140000Y159880D02*
D03*
Y175120D02*
D03*
X175000Y87620D02*
D03*
Y72380D02*
D03*
X257500Y454880D02*
D03*
Y470120D02*
D03*
X257500Y435120D02*
D03*
Y419880D02*
D03*
X222500Y524880D02*
D03*
Y540120D02*
D03*
X218000Y452620D02*
D03*
Y437380D02*
D03*
X167500Y469880D02*
D03*
Y485120D02*
D03*
X155000Y469880D02*
D03*
Y485120D02*
D03*
X192500D02*
D03*
Y469880D02*
D03*
X130000Y485120D02*
D03*
Y469880D02*
D03*
X217500Y485120D02*
D03*
Y469880D02*
D03*
X205000Y485120D02*
D03*
Y469880D02*
D03*
X-420000Y32380D02*
D03*
Y47620D02*
D03*
Y112380D02*
D03*
Y127620D02*
D03*
Y192380D02*
D03*
Y207620D02*
D03*
Y272380D02*
D03*
Y287620D02*
D03*
Y352380D02*
D03*
Y367620D02*
D03*
Y432380D02*
D03*
Y447620D02*
D03*
Y512380D02*
D03*
Y527620D02*
D03*
Y592380D02*
D03*
Y607620D02*
D03*
D57*
X435500Y-607500D02*
D03*
X-469500D02*
D03*
X435500Y32500D02*
D03*
X154500Y-222500D02*
D03*
X-469500Y32500D02*
D03*
X460500Y-47500D02*
D03*
X469500D02*
D03*
X460500Y-32500D02*
D03*
X469500D02*
D03*
X435500Y-47500D02*
D03*
X444500D02*
D03*
X435500Y-32500D02*
D03*
X444500D02*
D03*
X-469500Y432500D02*
D03*
X-460500D02*
D03*
X-469500Y447500D02*
D03*
X-460500D02*
D03*
X-444500Y432500D02*
D03*
X-435500D02*
D03*
X-444500Y447500D02*
D03*
X-435500D02*
D03*
X145500Y-222500D02*
D03*
X154500Y-237500D02*
D03*
X145500D02*
D03*
X469500Y-657500D02*
D03*
X460500D02*
D03*
X469500Y-672500D02*
D03*
X460500D02*
D03*
X435500Y592500D02*
D03*
X444500D02*
D03*
X435500Y607500D02*
D03*
X444500D02*
D03*
X460500Y592500D02*
D03*
X469500D02*
D03*
X460500Y607500D02*
D03*
X469500D02*
D03*
X-460500Y-607500D02*
D03*
X-469500Y-592500D02*
D03*
X-460500D02*
D03*
X-444500Y-607500D02*
D03*
X-435500D02*
D03*
X-444500Y-592500D02*
D03*
X-435500D02*
D03*
X-469500Y-527500D02*
D03*
X-460500D02*
D03*
X-469500Y-512500D02*
D03*
X-460500D02*
D03*
X-444500Y-527500D02*
D03*
X-435500D02*
D03*
X-444500Y-512500D02*
D03*
X-435500D02*
D03*
X-469500Y-447500D02*
D03*
X-460500D02*
D03*
X-469500Y-432500D02*
D03*
X-460500D02*
D03*
X-444500Y-447500D02*
D03*
X-435500D02*
D03*
X-444500Y-432500D02*
D03*
X-435500D02*
D03*
X-469500Y-367500D02*
D03*
X-460500D02*
D03*
X-469500Y-352500D02*
D03*
X-460500D02*
D03*
X-444500Y-367500D02*
D03*
X-435500D02*
D03*
X-444500Y-352500D02*
D03*
X-435500D02*
D03*
X-469500Y-287500D02*
D03*
X-460500D02*
D03*
X-469500Y-272500D02*
D03*
X-460500D02*
D03*
X-444500Y-287500D02*
D03*
X-435500D02*
D03*
X-444500Y-272500D02*
D03*
X-435500D02*
D03*
X-469500Y-207500D02*
D03*
X-460500D02*
D03*
X-469500Y-192500D02*
D03*
X-460500D02*
D03*
X-444500Y-207500D02*
D03*
X-435500D02*
D03*
X-444500Y-192500D02*
D03*
X-435500D02*
D03*
X-469500Y-127500D02*
D03*
X-460500D02*
D03*
X-469500Y-112500D02*
D03*
X-460500D02*
D03*
X-444500Y-127500D02*
D03*
X-435500D02*
D03*
X-444500Y-112500D02*
D03*
X-435500D02*
D03*
X-469500Y-47500D02*
D03*
X-460500D02*
D03*
X-469500Y-32500D02*
D03*
X-460500D02*
D03*
X-444500Y-47500D02*
D03*
X-435500D02*
D03*
X-444500Y-32500D02*
D03*
X-435500D02*
D03*
X444500Y-272500D02*
D03*
X435500D02*
D03*
X444500Y-287500D02*
D03*
X435500D02*
D03*
X469500Y-272500D02*
D03*
X460500D02*
D03*
X469500Y-287500D02*
D03*
X460500D02*
D03*
X444500Y-192500D02*
D03*
X435500D02*
D03*
X444500Y-207500D02*
D03*
X435500D02*
D03*
X469500Y-192500D02*
D03*
X460500D02*
D03*
X469500Y-207500D02*
D03*
X460500D02*
D03*
X444500Y-112500D02*
D03*
X435500D02*
D03*
X444500Y-127500D02*
D03*
X435500D02*
D03*
X469500Y-112500D02*
D03*
X460500D02*
D03*
X469500Y-127500D02*
D03*
X460500D02*
D03*
X444500Y-592500D02*
D03*
X435500D02*
D03*
X444500Y-607500D02*
D03*
X469500Y-592500D02*
D03*
X460500D02*
D03*
X469500Y-607500D02*
D03*
X460500D02*
D03*
X444500Y-512500D02*
D03*
X435500D02*
D03*
X444500Y-527500D02*
D03*
X435500D02*
D03*
X469500Y-512500D02*
D03*
X460500D02*
D03*
X469500Y-527500D02*
D03*
X460500D02*
D03*
X444500Y-432500D02*
D03*
X435500D02*
D03*
X444500Y-447500D02*
D03*
X435500D02*
D03*
X469500Y-432500D02*
D03*
X460500D02*
D03*
X469500Y-447500D02*
D03*
X460500D02*
D03*
X444500Y-352500D02*
D03*
X435500D02*
D03*
X444500Y-367500D02*
D03*
X435500D02*
D03*
X469500Y-352500D02*
D03*
X460500D02*
D03*
X469500Y-367500D02*
D03*
X460500D02*
D03*
X444500Y47500D02*
D03*
X435500D02*
D03*
X444500Y32500D02*
D03*
X-460500Y47500D02*
D03*
X-469500D02*
D03*
X-460500Y32500D02*
D03*
X469500Y47500D02*
D03*
X460500D02*
D03*
X469500Y32500D02*
D03*
X460500D02*
D03*
X-435500Y47500D02*
D03*
X-444500D02*
D03*
X-435500Y32500D02*
D03*
X-444500D02*
D03*
X444500Y127500D02*
D03*
X435500D02*
D03*
X444500Y112500D02*
D03*
X435500D02*
D03*
X-460500Y127500D02*
D03*
X-469500D02*
D03*
X-460500Y112500D02*
D03*
X-469500D02*
D03*
X469500Y127500D02*
D03*
X460500D02*
D03*
X469500Y112500D02*
D03*
X460500D02*
D03*
X-435500Y127500D02*
D03*
X-444500D02*
D03*
X-435500Y112500D02*
D03*
X-444500D02*
D03*
X444500Y207500D02*
D03*
X435500D02*
D03*
X444500Y192500D02*
D03*
X435500D02*
D03*
X-460500Y207500D02*
D03*
X-469500D02*
D03*
X-460500Y192500D02*
D03*
X-469500D02*
D03*
X469500Y207500D02*
D03*
X460500D02*
D03*
X469500Y192500D02*
D03*
X460500D02*
D03*
X-435500Y207500D02*
D03*
X-444500D02*
D03*
X-435500Y192500D02*
D03*
X-444500D02*
D03*
X444500Y287500D02*
D03*
X435500D02*
D03*
X444500Y272500D02*
D03*
X435500D02*
D03*
X-460500Y287500D02*
D03*
X-469500D02*
D03*
X-460500Y272500D02*
D03*
X-469500D02*
D03*
X469500Y287500D02*
D03*
X460500D02*
D03*
X469500Y272500D02*
D03*
X460500D02*
D03*
X-435500Y287500D02*
D03*
X-444500D02*
D03*
X-435500Y272500D02*
D03*
X-444500D02*
D03*
X444500Y367500D02*
D03*
X435500D02*
D03*
X444500Y352500D02*
D03*
X435500D02*
D03*
X-460500Y367500D02*
D03*
X-469500D02*
D03*
X-460500Y352500D02*
D03*
X-469500D02*
D03*
X469500Y367500D02*
D03*
X460500D02*
D03*
X469500Y352500D02*
D03*
X460500D02*
D03*
X-435500Y367500D02*
D03*
X-444500D02*
D03*
X-435500Y352500D02*
D03*
X-444500D02*
D03*
X444500Y447500D02*
D03*
X435500D02*
D03*
X444500Y432500D02*
D03*
X435500D02*
D03*
X469500Y447500D02*
D03*
X460500D02*
D03*
X469500Y432500D02*
D03*
X460500D02*
D03*
X444500Y527500D02*
D03*
X435500D02*
D03*
X444500Y512500D02*
D03*
X435500D02*
D03*
X-460500Y527500D02*
D03*
X-469500D02*
D03*
X-460500Y512500D02*
D03*
X-469500D02*
D03*
X469500Y527500D02*
D03*
X460500D02*
D03*
X469500Y512500D02*
D03*
X460500D02*
D03*
X-435500Y527500D02*
D03*
X-444500D02*
D03*
X-435500Y512500D02*
D03*
X-444500D02*
D03*
X-460500Y607500D02*
D03*
X-469500D02*
D03*
X-460500Y592500D02*
D03*
X-469500D02*
D03*
X-435500Y607500D02*
D03*
X-444500D02*
D03*
X-435500Y592500D02*
D03*
X-444500D02*
D03*
D58*
X-297500Y312500D02*
D03*
Y317500D02*
D03*
Y322500D02*
D03*
Y327500D02*
D03*
Y-327500D02*
D03*
Y-322500D02*
D03*
Y-317500D02*
D03*
Y-312500D02*
D03*
X297500Y327500D02*
D03*
Y322500D02*
D03*
Y317500D02*
D03*
Y312500D02*
D03*
Y-312500D02*
D03*
Y-317500D02*
D03*
Y-322500D02*
D03*
Y-327500D02*
D03*
X327500Y-312500D02*
D03*
Y-317500D02*
D03*
Y-327500D02*
D03*
Y-322500D02*
D03*
Y327500D02*
D03*
Y322500D02*
D03*
Y312500D02*
D03*
Y317500D02*
D03*
X-327500Y-327500D02*
D03*
Y-322500D02*
D03*
Y-312500D02*
D03*
Y-317500D02*
D03*
Y312500D02*
D03*
Y317500D02*
D03*
Y327500D02*
D03*
Y322500D02*
D03*
D59*
X-25000Y144000D02*
D03*
X-15500Y168000D02*
D03*
X-34500D02*
D03*
X247500Y544500D02*
D03*
X238000Y520500D02*
D03*
X257000D02*
D03*
D60*
X-146500Y-60000D02*
D03*
X146500D02*
D03*
D61*
X405500Y-332750D02*
D03*
Y-307250D02*
D03*
X419500Y-332750D02*
D03*
Y-307250D02*
D03*
X405500Y307250D02*
D03*
Y332750D02*
D03*
X419500Y307250D02*
D03*
Y332750D02*
D03*
X-405500Y-332750D02*
D03*
Y-307250D02*
D03*
X-419500Y-332750D02*
D03*
Y-307250D02*
D03*
X-42000Y308850D02*
D03*
Y283350D02*
D03*
X-28000Y308850D02*
D03*
Y283350D02*
D03*
X-419500Y332750D02*
D03*
Y307250D02*
D03*
X-405500Y332750D02*
D03*
Y307250D02*
D03*
D62*
X405500Y-316000D02*
D03*
Y-324000D02*
D03*
X419500Y-316000D02*
D03*
Y-324000D02*
D03*
X405500Y324000D02*
D03*
Y316000D02*
D03*
X419500Y324000D02*
D03*
Y316000D02*
D03*
X-405500Y-316000D02*
D03*
Y-324000D02*
D03*
X-419500Y-316000D02*
D03*
Y-324000D02*
D03*
X-42000Y292100D02*
D03*
Y300100D02*
D03*
X-28000Y292100D02*
D03*
Y300100D02*
D03*
X-419500Y316000D02*
D03*
Y324000D02*
D03*
X-405500Y316000D02*
D03*
Y324000D02*
D03*
D63*
X304880Y-350000D02*
D03*
X320120D02*
D03*
X304880Y-362500D02*
D03*
X320120D02*
D03*
X304880Y290000D02*
D03*
X320120D02*
D03*
X304880Y277500D02*
D03*
X320120D02*
D03*
X-82620Y690000D02*
D03*
X-67380D02*
D03*
X267620Y617500D02*
D03*
X252380D02*
D03*
X252380Y-617500D02*
D03*
X267620D02*
D03*
X40120Y620000D02*
D03*
X24880D02*
D03*
X-40120Y620000D02*
D03*
X-24880D02*
D03*
X-304880Y-290000D02*
D03*
X-320120D02*
D03*
X-304880Y-277500D02*
D03*
X-320120D02*
D03*
X-304880Y350000D02*
D03*
X-320120D02*
D03*
X-304880Y362500D02*
D03*
X-320120D02*
D03*
X-215120Y490000D02*
D03*
X-199880D02*
D03*
X-234880Y490000D02*
D03*
X-250120D02*
D03*
X142380Y-255000D02*
D03*
X157620D02*
D03*
X457380Y-642500D02*
D03*
X472620D02*
D03*
X245120Y370000D02*
D03*
X229880D02*
D03*
X245120Y382500D02*
D03*
X229880D02*
D03*
Y470000D02*
D03*
X245120D02*
D03*
X229880Y420000D02*
D03*
X245120D02*
D03*
X130120Y420000D02*
D03*
X114880D02*
D03*
X239880Y505000D02*
D03*
X255120D02*
D03*
X245120Y432500D02*
D03*
X229880D02*
D03*
X245120Y445000D02*
D03*
X229880D02*
D03*
X245120Y457500D02*
D03*
X229880D02*
D03*
X245120Y395000D02*
D03*
X229880D02*
D03*
X245120Y407500D02*
D03*
X229880D02*
D03*
X114880Y395000D02*
D03*
X130120D02*
D03*
X114880Y407500D02*
D03*
X130120D02*
D03*
X177380Y497500D02*
D03*
X192620D02*
D03*
X145120Y497500D02*
D03*
X129880D02*
D03*
X114880Y432500D02*
D03*
X130120D02*
D03*
X114880Y445000D02*
D03*
X130120D02*
D03*
D64*
X312500Y-320000D02*
D03*
Y320000D02*
D03*
X-312500Y-320000D02*
D03*
Y320000D02*
D03*
D65*
X315000Y-305000D02*
D03*
X320000D02*
D03*
X310000D02*
D03*
X305000D02*
D03*
X310000Y-335000D02*
D03*
X305000D02*
D03*
X315000D02*
D03*
X320000D02*
D03*
X315000Y335000D02*
D03*
X320000D02*
D03*
X310000D02*
D03*
X305000D02*
D03*
X310000Y305000D02*
D03*
X305000D02*
D03*
X315000D02*
D03*
X320000D02*
D03*
X-315000Y-335000D02*
D03*
X-320000D02*
D03*
X-310000D02*
D03*
X-305000D02*
D03*
X-310000Y-305000D02*
D03*
X-305000D02*
D03*
X-315000D02*
D03*
X-320000D02*
D03*
X-315000Y305000D02*
D03*
X-320000D02*
D03*
X-310000D02*
D03*
X-305000D02*
D03*
X-310000Y335000D02*
D03*
X-305000D02*
D03*
X-315000D02*
D03*
X-320000D02*
D03*
D66*
X-501000Y-595000D02*
D03*
Y-585000D02*
D03*
Y-605000D02*
D03*
Y-615000D02*
D03*
Y-275000D02*
D03*
Y-265000D02*
D03*
Y-285000D02*
D03*
Y-295000D02*
D03*
Y-515000D02*
D03*
Y-505000D02*
D03*
Y-525000D02*
D03*
Y-535000D02*
D03*
Y-195000D02*
D03*
Y-185000D02*
D03*
Y-205000D02*
D03*
Y-215000D02*
D03*
Y-435000D02*
D03*
Y-425000D02*
D03*
Y-445000D02*
D03*
Y-455000D02*
D03*
Y-115000D02*
D03*
Y-105000D02*
D03*
Y-125000D02*
D03*
Y-135000D02*
D03*
Y-355000D02*
D03*
Y-345000D02*
D03*
Y-365000D02*
D03*
Y-375000D02*
D03*
Y-35000D02*
D03*
Y-25000D02*
D03*
Y-45000D02*
D03*
Y-55000D02*
D03*
X501000Y-345000D02*
D03*
Y-355000D02*
D03*
Y-375000D02*
D03*
Y-365000D02*
D03*
Y-25000D02*
D03*
Y-35000D02*
D03*
Y-55000D02*
D03*
Y-45000D02*
D03*
Y-425000D02*
D03*
Y-435000D02*
D03*
Y-455000D02*
D03*
Y-445000D02*
D03*
Y-105000D02*
D03*
Y-115000D02*
D03*
Y-135000D02*
D03*
Y-125000D02*
D03*
Y-505000D02*
D03*
Y-515000D02*
D03*
Y-535000D02*
D03*
Y-525000D02*
D03*
Y-185000D02*
D03*
Y-195000D02*
D03*
Y-215000D02*
D03*
Y-205000D02*
D03*
Y-585000D02*
D03*
Y-595000D02*
D03*
Y-615000D02*
D03*
Y-605000D02*
D03*
Y-265000D02*
D03*
Y-275000D02*
D03*
Y-295000D02*
D03*
Y-285000D02*
D03*
Y55000D02*
D03*
Y45000D02*
D03*
Y25000D02*
D03*
Y35000D02*
D03*
X-501000Y25000D02*
D03*
Y35000D02*
D03*
Y55000D02*
D03*
Y45000D02*
D03*
X501000Y375000D02*
D03*
Y365000D02*
D03*
Y345000D02*
D03*
Y355000D02*
D03*
X-501000Y345000D02*
D03*
Y355000D02*
D03*
Y375000D02*
D03*
Y365000D02*
D03*
X501000Y135000D02*
D03*
Y125000D02*
D03*
Y105000D02*
D03*
Y115000D02*
D03*
X-501000Y105000D02*
D03*
Y115000D02*
D03*
Y135000D02*
D03*
Y125000D02*
D03*
X501000Y455000D02*
D03*
Y445000D02*
D03*
Y425000D02*
D03*
Y435000D02*
D03*
X-501000Y425000D02*
D03*
Y435000D02*
D03*
Y455000D02*
D03*
Y445000D02*
D03*
X501000Y215000D02*
D03*
Y205000D02*
D03*
Y185000D02*
D03*
Y195000D02*
D03*
X-501000Y185000D02*
D03*
Y195000D02*
D03*
Y215000D02*
D03*
Y205000D02*
D03*
X501000Y535000D02*
D03*
Y525000D02*
D03*
Y505000D02*
D03*
Y515000D02*
D03*
X-501000Y505000D02*
D03*
Y515000D02*
D03*
Y535000D02*
D03*
Y525000D02*
D03*
X501000Y295000D02*
D03*
Y285000D02*
D03*
Y265000D02*
D03*
Y275000D02*
D03*
X-501000Y265000D02*
D03*
Y275000D02*
D03*
Y295000D02*
D03*
Y285000D02*
D03*
X501000Y615000D02*
D03*
Y605000D02*
D03*
Y585000D02*
D03*
Y595000D02*
D03*
X-501000Y585000D02*
D03*
Y595000D02*
D03*
Y615000D02*
D03*
Y605000D02*
D03*
D67*
X-542000Y-572000D02*
D03*
Y-628000D02*
D03*
Y-252000D02*
D03*
Y-308000D02*
D03*
Y-492000D02*
D03*
Y-548000D02*
D03*
Y-172000D02*
D03*
Y-228000D02*
D03*
Y-412000D02*
D03*
Y-468000D02*
D03*
Y-92000D02*
D03*
Y-148000D02*
D03*
Y-332000D02*
D03*
Y-388000D02*
D03*
Y-12000D02*
D03*
Y-68000D02*
D03*
X542000Y-332000D02*
D03*
Y-388000D02*
D03*
Y-12000D02*
D03*
Y-68000D02*
D03*
Y-412000D02*
D03*
Y-468000D02*
D03*
Y-92000D02*
D03*
Y-148000D02*
D03*
Y-492000D02*
D03*
Y-548000D02*
D03*
Y-172000D02*
D03*
Y-228000D02*
D03*
Y-572000D02*
D03*
Y-628000D02*
D03*
Y-252000D02*
D03*
Y-308000D02*
D03*
Y68000D02*
D03*
Y12000D02*
D03*
X-542000Y12000D02*
D03*
Y68000D02*
D03*
X542000Y388000D02*
D03*
Y332000D02*
D03*
X-542000Y332000D02*
D03*
Y388000D02*
D03*
X542000Y148000D02*
D03*
Y92000D02*
D03*
X-542000D02*
D03*
Y148000D02*
D03*
X542000Y468000D02*
D03*
Y412000D02*
D03*
X-542000D02*
D03*
Y468000D02*
D03*
X542000Y228000D02*
D03*
Y172000D02*
D03*
X-542000Y172000D02*
D03*
Y228000D02*
D03*
X542000Y548000D02*
D03*
Y492000D02*
D03*
X-542000Y492000D02*
D03*
Y548000D02*
D03*
X542000Y308000D02*
D03*
Y252000D02*
D03*
X-542000Y252000D02*
D03*
Y308000D02*
D03*
X542000Y628000D02*
D03*
Y572000D02*
D03*
X-542000Y572000D02*
D03*
Y628000D02*
D03*
D68*
X240000Y694000D02*
D03*
X280000D02*
D03*
X240000Y636000D02*
D03*
X280000D02*
D03*
X280000Y-694000D02*
D03*
X240000D02*
D03*
X280000Y-636000D02*
D03*
X240000D02*
D03*
D69*
X50240Y210000D02*
D03*
X19760D02*
D03*
X50240Y115000D02*
D03*
X19760D02*
D03*
X232260Y487500D02*
D03*
X262740D02*
D03*
D70*
X50240Y180000D02*
D03*
X19760D02*
D03*
X50240Y145000D02*
D03*
X19760D02*
D03*
D71*
X32000Y640500D02*
D03*
X24000D02*
D03*
X-24000D02*
D03*
X-32000D02*
D03*
D72*
X17500D02*
D03*
X12500D02*
D03*
X7500D02*
D03*
X2500D02*
D03*
X-2500D02*
D03*
X-7500D02*
D03*
X-12500D02*
D03*
X-17500D02*
D03*
D73*
X-280000Y-570000D02*
D03*
X-300000D02*
D03*
X-320000D02*
D03*
X-260000D02*
D03*
X-340000D02*
D03*
D74*
X-239000Y-685000D02*
D03*
X-361000D02*
D03*
D75*
X-82500Y702500D02*
D03*
X-67500D02*
D03*
D76*
X146350Y107000D02*
D03*
X120950D02*
D03*
X159050Y53000D02*
D03*
X146350D02*
D03*
X133650D02*
D03*
X159050Y107000D02*
D03*
X133650D02*
D03*
X120950Y53000D02*
D03*
D77*
X165000Y140000D02*
D03*
X140000D02*
D03*
D78*
X180000Y420000D02*
D03*
D79*
X166000Y439500D02*
D03*
X170000D02*
D03*
X174000D02*
D03*
X178000D02*
D03*
X186000D02*
D03*
X190000D02*
D03*
X194000D02*
D03*
X182000D02*
D03*
X166000Y400500D02*
D03*
X170000D02*
D03*
X174000D02*
D03*
X178000D02*
D03*
X182000D02*
D03*
X186000D02*
D03*
X190000D02*
D03*
X194000D02*
D03*
D80*
X160500Y406000D02*
D03*
Y410000D02*
D03*
Y414000D02*
D03*
Y418000D02*
D03*
Y422000D02*
D03*
Y426000D02*
D03*
Y430000D02*
D03*
Y434000D02*
D03*
X199500Y410000D02*
D03*
Y414000D02*
D03*
Y418000D02*
D03*
Y422000D02*
D03*
Y426000D02*
D03*
Y430000D02*
D03*
Y406000D02*
D03*
Y434000D02*
D03*
D81*
X120000Y679500D02*
D03*
X190000Y658500D02*
D03*
D82*
X120000Y706500D02*
D03*
X190000Y687500D02*
D03*
D83*
X120000Y584500D02*
D03*
D84*
X163000Y545000D02*
D03*
D85*
X12700Y85300D02*
D03*
X-12700D02*
D03*
D86*
X-11700Y209900D02*
D03*
X-31700D02*
D03*
X-51700D02*
D03*
X-11700Y229900D02*
D03*
X-31700D02*
D03*
X-51700D02*
D03*
D87*
X-50800Y105600D02*
D03*
X50800Y537400D02*
D03*
X25400D02*
D03*
X0D02*
D03*
X-50800D02*
D03*
X-25400D02*
D03*
X-76200Y410400D02*
D03*
Y385000D02*
D03*
Y359600D02*
D03*
Y334200D02*
D03*
Y308800D02*
D03*
Y283400D02*
D03*
Y258000D02*
D03*
Y232600D02*
D03*
Y207200D02*
D03*
Y181800D02*
D03*
Y156400D02*
D03*
Y131000D02*
D03*
Y105600D02*
D03*
Y80200D02*
D03*
X76200Y410400D02*
D03*
Y385000D02*
D03*
Y359600D02*
D03*
Y334200D02*
D03*
Y308800D02*
D03*
Y283400D02*
D03*
Y258000D02*
D03*
Y232600D02*
D03*
Y207200D02*
D03*
Y181800D02*
D03*
Y156400D02*
D03*
Y131000D02*
D03*
Y105600D02*
D03*
Y435800D02*
D03*
Y461200D02*
D03*
Y486600D02*
D03*
Y512000D02*
D03*
Y537400D02*
D03*
Y562800D02*
D03*
Y588200D02*
D03*
Y613600D02*
D03*
Y639000D02*
D03*
Y664400D02*
D03*
X-76200D02*
D03*
Y639000D02*
D03*
Y613600D02*
D03*
Y588200D02*
D03*
Y562800D02*
D03*
Y537400D02*
D03*
Y512000D02*
D03*
Y486600D02*
D03*
Y461200D02*
D03*
Y435800D02*
D03*
X-205950Y544000D02*
D03*
X-231350D02*
D03*
X-256750D02*
D03*
X-193250Y518600D02*
D03*
X-218650D02*
D03*
X-244050D02*
D03*
X-269450D02*
D03*
D88*
X76200Y80200D02*
D03*
X-180550Y544000D02*
D03*
D89*
X-105000Y664250D02*
D03*
X105000Y355000D02*
D03*
Y340000D02*
D03*
Y310000D02*
D03*
Y325000D02*
D03*
D90*
X375000Y-281900D02*
D03*
Y-307300D02*
D03*
Y-332700D02*
D03*
Y-358100D02*
D03*
Y-383500D02*
D03*
Y-231100D02*
D03*
Y-256500D02*
D03*
Y358100D02*
D03*
Y332700D02*
D03*
Y307300D02*
D03*
Y281900D02*
D03*
Y256500D02*
D03*
Y408900D02*
D03*
Y383500D02*
D03*
X-375000Y-256500D02*
D03*
Y-231100D02*
D03*
Y-383500D02*
D03*
Y-358100D02*
D03*
Y-332700D02*
D03*
Y-307300D02*
D03*
Y-281900D02*
D03*
Y358100D02*
D03*
Y332700D02*
D03*
Y307300D02*
D03*
Y281900D02*
D03*
Y256500D02*
D03*
Y408900D02*
D03*
Y383500D02*
D03*
D91*
X375000Y-408900D02*
D03*
Y231100D02*
D03*
X-375000Y-408900D02*
D03*
Y231100D02*
D03*
D92*
X-475000Y700000D02*
D03*
X475000D02*
D03*
X-475000Y-700000D02*
D03*
X475000D02*
D03*
D93*
X-28900Y652200D02*
D03*
X28900D02*
D03*
X-282150Y607500D02*
D03*
X-167850D02*
D03*
X155000Y667500D02*
D03*
Y597500D02*
D03*
X520000Y680000D02*
D03*
X-520000D02*
D03*
X520000Y-680000D02*
D03*
X-520000D02*
D03*
D94*
X43200Y689000D02*
D03*
X-43200D02*
D03*
D95*
X43200Y647200D02*
D03*
X-43200D02*
D03*
D96*
X-440000Y-675000D02*
D03*
D97*
X-303750Y577000D02*
D03*
X-146250D02*
D03*
D98*
X-161750Y658300D02*
D03*
X-187150Y641300D02*
D03*
X-262850Y658300D02*
D03*
X-288250Y641300D02*
D03*
D99*
X-300000Y-620500D02*
D03*
Y-699500D02*
D03*
M02*
