M48
;Layer_Color=9474304
;FILE_FORMAT=4:4
METRIC,LZ
;TYPE=PLATED
T1F00S00C0.3000
T2F00S00C3.5000
T3F00S00C4.2200
%
T01
X-00075002Y00009999
X-00045002
X-00015002
X-00000002Y00039999
X-00030002
X-0003Y00095
Y001025
Y0011
Y001175
Y00125
Y001325
Y0014
X-00030002Y00159999
X-00060002
X-00090002
X-00075002Y00189999
X-00045002
X-00015002
X-00030002Y00219999
X-00060002
X-00090002
X-00075002Y00129999
X-00045002
X-00015002
X-00015Y00095
X-00060002Y00099999
X-00090002
X-00075002Y00069999
X00029998Y00039999
X00044998Y00009999
X00074998
Y00069999
X00089998Y00099999
X00074998Y00129999
X00044998
X0001476Y00125
X00025Y001875
X0003Y002
X00035Y002125
X00089998Y00219999
X00074998Y00189999
X00089998Y00159999
X00014998Y00009999
X00074998Y00249999
X00089998Y00279999
X00059998Y00339999
X00029998
X00044998Y00369999
X00074998
X00059998Y00399999
X00029998
X00044998Y00429999
X00059998Y00459999
X00029998
X00044998Y00489999
X00014998
X00029998Y00519999
X00014998Y00549999
Y00609999
X-00015002
X-00045002
X-00062003Y00607886
X-00058506Y00570848
X-00075002Y00549999
X-00060002Y00519999
X-00045002Y00489999
X-00030002Y00459999
X-00015002Y00429999
X-00075002
X-00105002
X-00090002Y00459999
X-00120002
X-00105002Y00489999
X-00120002Y00519999
X-00135002Y00549999
X-00150002Y00579999
X-00165002Y00609999
X-00105002
X-00090002Y00579999
X-00030002
X-00000002
X-00015002Y00549999
X-00000002Y00519999
X-00060002Y00399999
X-00090002
X-00075002Y00369999
X-00045002
X-00030002Y00339999
X-00060002
X-00090002
Y00279999
X-00075002Y00249999
X-00045002
X-00390001Y00939999
X-00405001Y00969999
X-00420001Y00999999
X-00410206Y01010529
X-00450001Y00999999
X-00360001
X-00330001
X-00319116Y00981534
X-00311655Y00986519
X-00302852Y0098827
X-00294051Y00986519
X-00286589Y00981533
X-00281604Y00974071
X-00279853Y0096527
X-00281604Y00956468
X-00286589Y00949006
X-00294052Y0094402
X-00302853Y0094227
X-00311655Y00944021
X-00319116Y00949007
X-00324103Y00956468
X-00325853Y0096527
X-00324102Y00974072
X-00345001Y00969999
X-00255002
X-00225002
X-00195002
X-00180002Y00939999
X-00210002
X-00195002Y00909999
X-00165002
X-00150002Y00879999
X-00180002
X-00210002
X-00240002
X-00270002
X-00255002Y00909999
X-00225002
X-00285002
X-00270002Y00939999
Y00999999
X-00255002Y00849999
X-00240002Y00819999
X-00225002Y00789999
X-00285002
X-00300002Y00819999
X-00315002Y00849999
X-00330001Y00879999
X-00375001Y00909999
X-00198882Y00859778
X-00165002Y00849999
X-00135002
X-00105002
X-00090002Y00819999
X-00120002
X-00150002
X-00191576Y008233
X-00135002Y00789999
X-00105002
X-00075002
X-00060002Y00759999
X-00090002
X-00120002
X-00105002Y00729999
X-00075002
X-00045002
X-00030002Y00699999
X-00060002
X-00090002
X-00075002Y00669999
X-00045002
X-00015002
X-00000002Y00639999
X-00030002
X-00060002
X-00120002
X-00135002Y00669999
X-00150002Y00699999
X-00210002
X-00195002Y00669999
X-00180002Y00639999
X-00285002Y01029999
X-00315002
X-00345001
X-00375001
X-00356655Y01063277
X-00330001Y01059999
X-00345001Y01089999
X-00330001Y01119999
X-00270002Y01059999
X-00393475Y01082822
X-00402414Y01074084
X-00405001Y01089999
X-00435001
X-00420001Y01119999
X-00390001
X-00405001Y01149999
X-00435001
X-0046119Y0115136
X-00462941Y01142559
X-00467926Y01135097
X-00475389Y01130111
X-0048419Y01128361
X-00492992Y01130112
X-00500453Y01135098
X-0050544Y01142559
X-0050719Y01151361
X-00505439Y01160163
X-00500453Y01167625
X-00492992Y0117261
X-0048419Y01174361
X-00475388Y0117261
X-00467926Y01167624
X-00462941Y01160162
X-00450001Y01179999
X-00390001
X-00450001Y01239999
X-00480001
X-00510001
X-00540001
X-00559636Y01223211
X-00585001Y01209999
X-00615001
X-00630001Y01239999
X-00660001
X-00675001Y01269999
X-00705001
X-00720001Y01299999
Y01359999
X-00690001
X-00660001
X-00630001
X-00600001
X-00585001Y01329999
X-00615001
X-00645002
X-00675001
Y01389999
X-00645002
X-00705001
X-00735001
X-00761603Y01369741
X-00765001Y01329999
Y01269999
X-00630001Y01299999
X-00600001
X-00570001
X-00540001
X-00525001Y01269999
X-00495001
X-00555001
X-00585001
X-00580198Y01254215
X-00570001Y01179999
X-00540001
X-00510001
X-00525001Y01149999
Y01089999
X-00510001Y01059999
X-00480001
X-00465001Y01029999
X-00427602Y01035477
X-00420001Y01059999
X-0039924Y01042346
X-00450001Y01119999
X-00570001
X-00615001Y01149999
X-00660001Y01179999
X-00810001Y01299999
Y01359999
X-00825001Y01389999
X-00855001
Y01329999
X-00900001Y01359999
X-00945001Y01389999
X-00975001
X-00783023Y01400158
X-02775001Y01809999
X-02745001
X-02715001
X-02705571Y0179786
X-02704433Y01785412
X-02730001Y01779999
X-02760001
X-02745001Y01749999
X-02715001
X-02690377Y0174151
X-02700001Y01719999
X-02670001
X-0265959Y01734283
X-02640001Y01719999
X-02610001
X-02580001
X-02550001
X-02520001
X-02490001
X-02460001
X-02430001
X-02400001
Y01779999
X-02430001
X-02460001
X-02490001
X-02520001
X-02541118Y0178056
X-02536132Y01788022
X-02534381Y01796824
X-02536132Y01805626
X-02505001Y01809999
X-02475001
X-02445001
X-02415001
X-02578631Y01805626
X-02580381Y01796824
X-02578631Y01788022
X-02573645Y01780561
X-02566183Y01775575
X-02557381Y01773824
X-0254858Y01775575
X-02610001Y01779999
X-02640001
X-02625001Y01809999
X-02595001
X-02677808Y01767847
X-02730001Y01719999
X-02370001
X-02340001
X-02310001
X-02280001
X-02250001
X-02220001
Y01779999
X-02190001
X-02160001
X-02130001
X-02063341Y0180054
X-02055001Y01809999
X-02025001
X-01995001
Y01749999
X-02025001
X-02055001
X-02250001Y01779999
X-02280001
X-02310001
X-02340001
X-02370001
X-02366485Y01809218
X-01935001Y01809999
X-01922716Y01795803
X-01915255Y01800789
X-01906453Y01802539
X-01897651Y01800788
X-01890189Y01795803
X-01885204Y01788341
X-01883453Y01779539
X-01885204Y01770737
X-01890189Y01763276
X-01897652Y0175829
X-01906453Y01756539
X-01915255Y0175829
X-01922717Y01763276
X-01927702Y01770737
X-01929453Y01779539
X-01927702Y01788341
X-01950001Y01779999
X-01935001Y01749999
X-01965001
X-01875001
X-01845001
X-01815001
X-01795085Y01763591
X-01793022Y0177592
X-01800001Y01779999
X-01830001
X-01860001
X-01845001Y01809999
X-01815001
X-01785001
X-01755001
X-01725001
X-01710001Y01779999
X-01680001
X-01650001
X-01650155Y01759198
X-01641353Y01757447
X-01633891Y01752461
X-01628906Y01744999
X-01627155Y01736197
X-01628906Y01727396
X-01633892Y01719934
X-01641354Y01714948
X-01650155Y01713198
X-01658958Y01714948
X-01666419Y01719935
X-01671405Y01727396
X-01673155Y01736198
X-01671405Y01744999
X-01666419Y01752461
X-01658957Y01757447
X-01695001Y01749999
X-01725001
X-01710001Y01719999
Y01659999
X-01680001
X-01650001
X-01605001Y01689999
X-01590001Y01719999
X-01605001Y01749999
X-01590001Y01779999
X-01605001Y01809999
X-01740001Y01779999
X-0175176Y01781857
X-01773799Y01739836
X-01792649Y01717558
X-01785001Y01689999
X-01755001
X-01764711Y01702744
X-01815001Y01689999
X-01845001
X-01875001
X-01905001
X-01875001Y01809999
X-01575001
X-01560001Y01779999
X-01530001
X-01500001
X-01470001
X-01455001Y01749999
X-01425001
X-01395001
X-01365001
X-01350001Y01719999
X-01320001
X-01290001
X-01275001Y01689999
X-01245001
X-01215001
X-01185001
X-01200001Y01659999
X-01230001
X-01260001
X-01258018Y01638634
X-01260001Y01599999
X-01290001
X-01320001
X-01335001Y01629999
X-01365001
X-01395001
X-01425001
X-01440001Y01659999
X-01470001
X-01500001
X-01530001
X-01545001Y01689999
X-01575001
Y01749999
X-01545001
X-01515001
X-01485001
X-01470001Y01719999
X-01440001
X-01410001
X-01380001
X-01365001Y01689999
X-01335001
X-01305001
X-01290001Y01659999
X-01320001
X-01395001Y01689999
X-01425001
X-01490179Y0170151
X-01519936Y0172384
X-01575001Y01629999
X-01470001Y01599999
X-01365001Y01569999
X-01290001Y01539999
X-01245001Y01569999
X-01215001
X-01185001
Y01629999
X-01215001
X-01229115Y0161521
X-01215001Y01509999
X-01185001
X-01140001Y01479999
X-01110001
X-01095001Y01449999
X-01065001
X-01035001
X-01022408Y01465634
X-00997597Y01480997
X-00998107Y01447347
X-00990001Y01419999
X-01020001
X-010105Y01510167
X-01004728Y01521255
X-01020001Y01539999
X-01050001
X-01080001
X-01095533Y01542861
X-01090547Y01550323
X-01088796Y01559124
X-01090547Y01567926
X-01095532Y01575388
X-01102994Y01580374
X-01111796Y01582125
X-01120598Y01580374
X-01128059Y01575388
X-01133046Y01567926
X-01134796Y01559125
X-01133046Y01550323
X-0112806Y01542861
X-01120598Y01537875
X-01111796Y01536124
X-01102995Y01537875
X-01065001Y01509999
X-01035001
Y01569999
X-01005001
X-00990001Y01599999
X-00945001Y01569999
X-00960001Y01539999
X-00963651Y01514151
X-00945001Y01509999
X-00915001
X-00885001
X-00870001Y01479999
X-00872457Y01460343
X-00881258Y01462094
X-0089006Y01460343
X-00897522Y01455358
X-00902508Y01447896
X-00904258Y01439094
X-00902508Y01430292
X-00897522Y01422831
X-00890061Y01417845
X-00881258Y01416094
X-00872457Y01417845
X-00864995Y01422831
X-00860009Y01430292
X-00858258Y01439094
X-00860009Y01447896
X-00864995Y01455357
X-00900001Y01479999
X-00930001
X-00960001
X-00945001Y01449999
X-00840001Y01419999
X-00795001Y01449999
X-00810001Y01479999
X-00825001Y01509999
X-01065001Y01569999
X-01080001Y01599999
X-01110001
X-01125001Y01629999
X-01155001
X-01140001Y01659999
X-01170001
X-01155001Y01569999
X-01065001Y01629999
X-00780001Y01479999
X-00765001Y01449999
X-00735001
X-00720001Y01419999
X-00690001
X-00750001
X-00780001
X-01710001Y01839999
X-01740001
X-01770001
X-01905001Y01869999
X-01935001
X-01965001
X-01950001Y01839999
X-01980001
X-02010001
X-02040001
X-02070001
X-02100001
X-02097855Y01814427
X-02130001Y01839999
X-02160001
X-02190001
X-02220001
X-02250001
X-02280001
X-02310001
X-02340001
X-02370001
X-02355001Y01869999
X-02325001
X-02295001
X-02265001
X-02235001
X-02205001
X-02175001
X-02145001
X-02115001
X-02085001
X-02055001
X-02025001
X-01995001
X-02385001
X-02415001
X-02445001
X-02475001
X-02505001
X-02535001
X-02565001
X-02595001
X-02625001
X-02655001
X-02685001
X-02715001
X-02700001Y01839999
X-02670001
X-02667174Y0181409
X-02640001Y01839999
X-02610001
X-02580001
X-02550001
X-0254858Y01818073
X-02557381Y01819824
X-02566183Y01818073
X-02573645Y01813088
X-02541118Y01813087
X-02520001Y01839999
X-02490001
X-02460001
X-02430001
X-02400001
X-02401256Y01822448
X-02730001Y01839999
X-02760001
T02
X-00302853Y0096527
X-0048419Y01151361
X-02557381Y01796824
X-01906453Y01779539
X-01650155Y01736198
X-01111796Y01559124
X-00881258Y01439094
T03
X0005Y003
X-0005
M30
