G04*
G04 #@! TF.GenerationSoftware,Altium Limited,Altium Designer,22.2.1 (43)*
G04*
G04 Layer_Physical_Order=2*
G04 Layer_Color=16711680*
%FSLAX44Y44*%
%MOMM*%
G71*
G04*
G04 #@! TF.SameCoordinates,C81B6E68-797F-42A2-B6C5-F614A2D79E64*
G04*
G04*
G04 #@! TF.FilePolarity,Positive*
G04*
G01*
G75*
%ADD10C,0.2540*%
%ADD11C,0.1524*%
%ADD87C,0.3810*%
%ADD89C,6.2000*%
%ADD90C,0.5500*%
%ADD91C,0.6200*%
%ADD92C,0.7620*%
G36*
X-2281411Y1898941D02*
X-2254632Y1898567D01*
X-2227860Y1897998D01*
X-2201107Y1897233D01*
X-2174366Y1896269D01*
X-2147642Y1895105D01*
X-2120933Y1893738D01*
X-2094243Y1892166D01*
X-2067574Y1890387D01*
X-2040925Y1888399D01*
X-2014299Y1886200D01*
X-1987698Y1883788D01*
X-1961116Y1881160D01*
X-1934569Y1878316D01*
X-1904253Y1874796D01*
X-1873982Y1870988D01*
X-1843747Y1866887D01*
X-1813551Y1862490D01*
X-1783402Y1857796D01*
X-1753295Y1852800D01*
X-1719481Y1846815D01*
X-1685724Y1840440D01*
X-1652034Y1833671D01*
X-1618409Y1826504D01*
X-1584854Y1818934D01*
X-1547652Y1810044D01*
X-1510545Y1800646D01*
X-1466115Y1788681D01*
X-1460128Y1787015D01*
X-1448125Y1783618D01*
X-1436138Y1780167D01*
X-1424167Y1776662D01*
X-1418192Y1774883D01*
X-1411743Y1772963D01*
X-1398870Y1769061D01*
X-1386011Y1765095D01*
X-1373170Y1761065D01*
X-1366761Y1759019D01*
X-1366761Y1759019D01*
X-1359418Y1756674D01*
X-1344765Y1751904D01*
X-1330139Y1747051D01*
X-1315540Y1742114D01*
X-1308255Y1739604D01*
X-1301407Y1737244D01*
X-1287742Y1732453D01*
X-1274095Y1727586D01*
X-1260482Y1722648D01*
X-1253684Y1720140D01*
X-1248232Y1718129D01*
X-1237357Y1714063D01*
X-1226493Y1709946D01*
X-1215644Y1705782D01*
X-1210231Y1703676D01*
X-1203443Y1701036D01*
X-1189902Y1695683D01*
X-1176383Y1690251D01*
X-1162899Y1684747D01*
X-1156175Y1681958D01*
X-1156175Y1681958D01*
X-1156175Y1681958D01*
X-1139463Y1675028D01*
X-1106233Y1660701D01*
X-1073210Y1645912D01*
X-1040395Y1630661D01*
X-1024110Y1622813D01*
X-992258Y1607192D01*
X-953500Y1587453D01*
X-946924Y1584035D01*
X-933777Y1577108D01*
X-920668Y1570106D01*
X-907594Y1563030D01*
X-901082Y1559458D01*
X-886717Y1551575D01*
X-858177Y1535459D01*
X-829837Y1518999D01*
X-801701Y1502197D01*
X-773768Y1485053D01*
X-746046Y1467570D01*
X-718541Y1449753D01*
X-691251Y1431601D01*
X-677719Y1422361D01*
X-677719Y1422361D01*
X-677719Y1422361D01*
X-672417Y1418741D01*
X-661854Y1411456D01*
X-651325Y1404119D01*
X-640832Y1396732D01*
X-635612Y1393020D01*
X-606886Y1372302D01*
X-591114Y1360676D01*
X-575457Y1348952D01*
X-563027Y1339511D01*
X-550684Y1330016D01*
X-538427Y1320468D01*
X-526259Y1310866D01*
X-514181Y1301211D01*
X-502199Y1291509D01*
X-490310Y1281754D01*
X-481460Y1274409D01*
X-472663Y1267035D01*
X-463924Y1259636D01*
X-455244Y1252213D01*
X-446619Y1244761D01*
X-438052Y1237284D01*
X-429549Y1229786D01*
X-421105Y1222261D01*
X-409942Y1212193D01*
X-398891Y1202085D01*
X-387954Y1191939D01*
X-377129Y1181754D01*
X-366420Y1171533D01*
X-355828Y1161277D01*
X-345358Y1150992D01*
X-335005Y1140673D01*
X-327323Y1132917D01*
X-319711Y1125145D01*
X-312163Y1117352D01*
X-304691Y1109550D01*
X-297291Y1101734D01*
X-289961Y1093903D01*
X-282704Y1086060D01*
X-275521Y1078206D01*
X-268411Y1070338D01*
X-261377Y1062463D01*
X-252120Y1051951D01*
X-236226Y1033498D01*
X-220745Y1015005D01*
X-205666Y996471D01*
X-190989Y977902D01*
X-176708Y959301D01*
X-162819Y940674D01*
X-147422Y919358D01*
X-132526Y898019D01*
X-121686Y882012D01*
X-112864Y868667D01*
X-104235Y855322D01*
X-95798Y841976D01*
X-87556Y828637D01*
X-79501Y815296D01*
X-71639Y801966D01*
X-63967Y788644D01*
X-56485Y775331D01*
X-49192Y762032D01*
X-42085Y748743D01*
X-35169Y735473D01*
X-28440Y722221D01*
X-21897Y708987D01*
X-15539Y695772D01*
X-9367Y682582D01*
X-3381Y669419D01*
X2424Y656277D01*
X8043Y643169D01*
X13482Y630084D01*
X18738Y617035D01*
X23815Y604013D01*
X27743Y593631D01*
X31560Y583263D01*
X35261Y572922D01*
X38847Y562607D01*
X42320Y552314D01*
X45679Y542050D01*
X48925Y531816D01*
X52058Y521608D01*
X55079Y511427D01*
X57986Y501281D01*
X60781Y491163D01*
X63465Y481074D01*
X66037Y471019D01*
X68498Y460998D01*
X70847Y451011D01*
X73087Y441056D01*
X75214Y431142D01*
X77232Y421262D01*
X79140Y411420D01*
X80939Y401612D01*
X82215Y394293D01*
X83430Y386986D01*
X84583Y379709D01*
X85676Y372449D01*
X86706Y365213D01*
X87676Y358003D01*
X88584Y350810D01*
X89431Y343643D01*
X90217Y336498D01*
X90941Y329383D01*
X91813Y319922D01*
X92577Y310500D01*
X93078Y303475D01*
X93519Y296479D01*
X93899Y289512D01*
X94118Y284896D01*
X94311Y280277D01*
X94320Y280239D01*
X94315Y280200D01*
X94902Y269855D01*
Y15000D01*
X94902Y14025D01*
X94522Y12112D01*
X93775Y10309D01*
X92691Y8688D01*
X91312Y7308D01*
X89690Y6225D01*
X87888Y5478D01*
X85975Y5098D01*
X-85975D01*
X-87888Y5478D01*
X-89691Y6225D01*
X-91312Y7308D01*
X-92691Y8688D01*
X-93775Y10310D01*
X-94522Y12112D01*
X-94902Y14025D01*
Y15000D01*
Y270000D01*
X-94940Y270188D01*
X-94916Y270378D01*
X-95747Y281535D01*
X-95921Y284680D01*
X-95924Y284695D01*
X-95922Y284709D01*
X-96167Y288728D01*
X-96172Y288745D01*
X-96169Y288763D01*
X-96499Y293623D01*
X-96505Y293647D01*
X-96502Y293671D01*
X-97070Y301028D01*
X-97078Y301056D01*
X-97075Y301085D01*
X-97732Y308512D01*
X-97738Y308533D01*
X-97736Y308556D01*
X-98140Y312708D01*
X-98145Y312724D01*
X-98143Y312740D01*
X-98575Y316911D01*
X-98579Y316925D01*
X-98578Y316939D01*
X-98943Y320290D01*
X-98947Y320303D01*
X-98946Y320315D01*
X-99330Y323679D01*
X-99333Y323691D01*
X-99332Y323704D01*
X-99734Y327080D01*
X-99738Y327092D01*
X-99737Y327105D01*
X-100156Y330494D01*
X-100160Y330506D01*
X-100160Y330519D01*
X-100597Y333922D01*
X-100602Y333935D01*
X-100601Y333949D01*
X-101174Y338221D01*
X-101179Y338236D01*
X-101178Y338251D01*
X-101779Y342544D01*
X-101785Y342560D01*
X-101784Y342577D01*
X-102544Y347755D01*
X-102550Y347772D01*
X-102549Y347791D01*
X-103351Y352998D01*
X-103357Y353015D01*
X-103356Y353033D01*
X-104200Y358269D01*
X-104206Y358285D01*
X-104205Y358304D01*
X-105091Y363567D01*
X-105097Y363583D01*
X-105097Y363601D01*
X-106024Y368891D01*
X-106030Y368907D01*
X-106030Y368923D01*
X-106835Y373351D01*
X-106841Y373367D01*
X-106841Y373383D01*
X-107847Y378721D01*
X-107853Y378737D01*
X-107853Y378755D01*
X-108902Y384119D01*
X-108908Y384136D01*
X-108908Y384153D01*
X-110000Y389543D01*
X-110006Y389559D01*
X-110006Y389576D01*
X-111141Y394991D01*
X-111148Y395007D01*
X-111148Y395025D01*
X-112326Y400464D01*
X-112333Y400480D01*
X-112333Y400497D01*
X-113554Y405961D01*
X-113561Y405977D01*
X-113562Y405994D01*
X-114827Y411483D01*
X-114834Y411498D01*
X-114834Y411516D01*
X-116143Y417028D01*
X-116151Y417043D01*
X-116151Y417060D01*
X-117504Y422596D01*
X-117511Y422611D01*
X-117512Y422628D01*
X-118910Y428187D01*
X-118917Y428202D01*
X-118918Y428219D01*
X-120359Y433801D01*
X-120367Y433816D01*
X-120368Y433833D01*
X-121854Y439437D01*
X-121862Y439452D01*
X-121863Y439468D01*
X-123394Y445095D01*
X-123401Y445110D01*
X-123403Y445126D01*
X-124979Y450774D01*
X-124987Y450790D01*
X-124988Y450808D01*
X-126884Y457425D01*
X-126893Y457442D01*
X-126895Y457461D01*
X-128853Y464106D01*
X-128861Y464123D01*
X-128863Y464142D01*
X-130883Y470815D01*
X-130892Y470832D01*
X-130894Y470851D01*
X-132976Y477551D01*
X-132985Y477568D01*
X-132987Y477587D01*
X-135131Y484314D01*
X-135140Y484331D01*
X-135143Y484350D01*
X-137350Y491104D01*
X-137359Y491120D01*
X-137361Y491139D01*
X-139631Y497918D01*
X-139641Y497935D01*
X-139643Y497953D01*
X-141977Y504758D01*
X-141986Y504774D01*
X-141989Y504793D01*
X-144386Y511622D01*
X-144395Y511638D01*
X-144398Y511657D01*
X-146859Y518511D01*
X-146868Y518526D01*
X-146871Y518545D01*
X-149396Y525422D01*
X-149406Y525439D01*
X-149409Y525459D01*
X-152374Y533347D01*
X-152385Y533365D01*
X-152388Y533386D01*
X-155437Y541303D01*
X-155448Y541321D01*
X-155452Y541342D01*
X-158585Y549288D01*
X-158596Y549306D01*
X-158600Y549326D01*
X-161819Y557300D01*
X-161830Y557318D01*
X-161834Y557338D01*
X-165138Y565340D01*
X-165149Y565357D01*
X-165154Y565377D01*
X-168543Y573405D01*
X-168555Y573422D01*
X-168559Y573442D01*
X-172035Y581496D01*
X-172047Y581512D01*
X-172051Y581532D01*
X-175613Y589610D01*
X-175625Y589627D01*
X-175630Y589647D01*
X-179279Y597749D01*
X-179291Y597766D01*
X-179296Y597786D01*
X-183032Y605911D01*
X-183045Y605929D01*
X-183050Y605950D01*
X-187358Y615117D01*
X-187372Y615136D01*
X-187378Y615158D01*
X-191797Y624353D01*
X-191811Y624371D01*
X-191817Y624393D01*
X-196348Y633614D01*
X-196362Y633632D01*
X-196368Y633654D01*
X-201012Y642900D01*
X-201026Y642918D01*
X-201032Y642940D01*
X-205788Y652210D01*
X-205802Y652227D01*
X-205809Y652249D01*
X-210679Y661543D01*
X-210693Y661560D01*
X-210699Y661581D01*
X-215683Y670897D01*
X-215697Y670914D01*
X-215704Y670935D01*
X-220802Y680271D01*
X-220816Y680288D01*
X-220823Y680309D01*
X-226036Y689665D01*
X-226051Y689682D01*
X-226057Y689703D01*
X-231386Y699078D01*
X-231401Y699096D01*
X-231409Y699118D01*
X-237465Y709555D01*
X-237481Y709573D01*
X-237489Y709596D01*
X-243690Y720054D01*
X-243706Y720073D01*
X-243714Y720095D01*
X-250059Y730573D01*
X-250075Y730591D01*
X-250083Y730613D01*
X-256573Y741108D01*
X-256590Y741126D01*
X-256598Y741148D01*
X-263234Y751660D01*
X-263250Y751677D01*
X-263259Y751699D01*
X-270041Y762226D01*
X-270058Y762243D01*
X-270067Y762265D01*
X-276996Y772805D01*
X-277013Y772822D01*
X-277022Y772844D01*
X-284099Y783396D01*
X-284116Y783412D01*
X-284125Y783434D01*
X-291351Y793997D01*
X-291368Y794013D01*
X-291377Y794035D01*
X-298752Y804607D01*
X-298770Y804624D01*
X-298780Y804647D01*
X-307065Y816284D01*
X-307084Y816302D01*
X-307095Y816326D01*
X-315562Y827970D01*
X-315581Y827988D01*
X-315592Y828011D01*
X-324243Y839661D01*
X-324262Y839679D01*
X-324273Y839702D01*
X-333107Y851356D01*
X-333126Y851373D01*
X-333137Y851396D01*
X-342156Y863051D01*
X-342175Y863067D01*
X-342187Y863090D01*
X-351390Y874744D01*
X-351410Y874761D01*
X-351422Y874784D01*
X-360811Y886435D01*
X-360831Y886452D01*
X-360843Y886474D01*
X-370419Y898121D01*
X-370439Y898137D01*
X-370451Y898160D01*
X-380215Y909800D01*
X-380236Y909817D01*
X-380249Y909840D01*
X-391116Y922529D01*
X-391137Y922545D01*
X-391150Y922568D01*
X-401309Y934188D01*
X-401329Y934203D01*
X-401341Y934224D01*
X-410742Y944777D01*
X-410760Y944791D01*
X-410772Y944810D01*
X-420331Y955353D01*
X-420349Y955366D01*
X-420360Y955384D01*
X-429100Y964863D01*
X-429117Y964875D01*
X-429128Y964892D01*
X-437999Y974362D01*
X-438016Y974374D01*
X-438026Y974391D01*
X-447029Y983851D01*
X-447046Y983863D01*
X-447057Y983880D01*
X-456192Y993330D01*
X-456209Y993341D01*
X-456220Y993358D01*
X-465489Y1002799D01*
X-465503Y1002808D01*
X-465512Y1002822D01*
X-471767Y1009110D01*
X-471777Y1009117D01*
X-471783Y1009127D01*
X-477041Y1014363D01*
X-477050Y1014369D01*
X-477056Y1014379D01*
X-482355Y1019611D01*
X-482364Y1019617D01*
X-482370Y1019626D01*
X-487710Y1024855D01*
X-487719Y1024861D01*
X-487725Y1024870D01*
X-493105Y1030094D01*
X-493114Y1030100D01*
X-493120Y1030109D01*
X-498540Y1035329D01*
X-498549Y1035334D01*
X-498555Y1035343D01*
X-504015Y1040558D01*
X-504023Y1040564D01*
X-504030Y1040572D01*
X-509528Y1045782D01*
X-509537Y1045788D01*
X-509543Y1045796D01*
X-515081Y1051000D01*
X-515089Y1051006D01*
X-515096Y1051014D01*
X-520672Y1056212D01*
X-520680Y1056218D01*
X-520686Y1056226D01*
X-526300Y1061418D01*
X-526310Y1061424D01*
X-526317Y1061433D01*
X-533103Y1067655D01*
X-533114Y1067661D01*
X-533121Y1067671D01*
X-539961Y1073883D01*
X-539972Y1073889D01*
X-539979Y1073899D01*
X-546872Y1080100D01*
X-546881Y1080106D01*
X-546888Y1080114D01*
X-552672Y1085274D01*
X-552681Y1085279D01*
X-552688Y1085288D01*
X-559676Y1091469D01*
X-559687Y1091475D01*
X-559694Y1091484D01*
X-566733Y1097653D01*
X-566743Y1097658D01*
X-566750Y1097668D01*
X-573840Y1103824D01*
X-573850Y1103829D01*
X-573857Y1103839D01*
X-580996Y1109982D01*
X-581006Y1109987D01*
X-581013Y1109996D01*
X-588201Y1116126D01*
X-588211Y1116132D01*
X-588218Y1116141D01*
X-595454Y1122256D01*
X-595465Y1122262D01*
X-595472Y1122272D01*
X-603974Y1129388D01*
X-603986Y1129394D01*
X-603994Y1129404D01*
X-612559Y1136500D01*
X-612570Y1136506D01*
X-612579Y1136516D01*
X-621206Y1143590D01*
X-621218Y1143596D01*
X-621226Y1143606D01*
X-629914Y1150658D01*
X-629927Y1150665D01*
X-629935Y1150675D01*
X-639939Y1158706D01*
X-639952Y1158713D01*
X-639961Y1158724D01*
X-650041Y1166723D01*
X-650055Y1166730D01*
X-650065Y1166742D01*
X-661494Y1175703D01*
X-661509Y1175710D01*
X-661519Y1175722D01*
X-673041Y1184639D01*
X-673056Y1184647D01*
X-673068Y1184660D01*
X-685975Y1194515D01*
X-685992Y1194523D01*
X-686005Y1194537D01*
X-700328Y1205311D01*
X-700346Y1205320D01*
X-700360Y1205335D01*
X-716130Y1217006D01*
X-716150Y1217015D01*
X-716165Y1217032D01*
X-734746Y1230532D01*
X-734770Y1230543D01*
X-734788Y1230562D01*
X-756252Y1245831D01*
X-756283Y1245845D01*
X-756306Y1245869D01*
X-787564Y1267500D01*
X-787599Y1267515D01*
X-787626Y1267542D01*
X-806751Y1280369D01*
X-806778Y1280380D01*
X-806800Y1280401D01*
X-839808Y1301992D01*
X-839838Y1302005D01*
X-839863Y1302028D01*
X-857904Y1313500D01*
X-857924Y1313508D01*
X-857940Y1313523D01*
X-873567Y1323278D01*
X-873584Y1323285D01*
X-873597Y1323297D01*
X-886742Y1331375D01*
X-886756Y1331380D01*
X-886767Y1331390D01*
X-897366Y1337821D01*
X-897378Y1337825D01*
X-897388Y1337834D01*
X-908065Y1344238D01*
X-908077Y1344243D01*
X-908086Y1344251D01*
X-918823Y1350619D01*
X-943604Y1365590D01*
X-943658Y1365610D01*
X-943700Y1365647D01*
X-956397Y1372943D01*
X-956420Y1372950D01*
X-956439Y1372967D01*
X-985125Y1389085D01*
X-985154Y1389095D01*
X-985178Y1389115D01*
X-1007590Y1401359D01*
X-1007613Y1401366D01*
X-1007631Y1401381D01*
X-1024188Y1410233D01*
X-1024218Y1410242D01*
X-1024241Y1410261D01*
X-1057561Y1427575D01*
X-1057600Y1427586D01*
X-1057632Y1427611D01*
X-1091219Y1444403D01*
X-1091258Y1444413D01*
X-1091290Y1444438D01*
X-1125135Y1460703D01*
X-1125164Y1460710D01*
X-1125189Y1460728D01*
X-1142205Y1468662D01*
X-1142221Y1468666D01*
X-1142235Y1468676D01*
X-1152827Y1473533D01*
X-1152846Y1473537D01*
X-1152861Y1473548D01*
X-1174116Y1483107D01*
X-1174140Y1483113D01*
X-1174161Y1483127D01*
X-1195508Y1492481D01*
X-1195532Y1492487D01*
X-1195553Y1492501D01*
X-1216988Y1501648D01*
X-1217007Y1501652D01*
X-1217022Y1501662D01*
X-1227773Y1506158D01*
X-1227784Y1506160D01*
X-1227792Y1506166D01*
X-1235213Y1509234D01*
X-1235226Y1509237D01*
X-1235236Y1509244D01*
X-1250108Y1515306D01*
X-1250124Y1515309D01*
X-1250139Y1515319D01*
X-1265050Y1521283D01*
X-1265067Y1521286D01*
X-1265081Y1521296D01*
X-1280031Y1527162D01*
X-1280044Y1527164D01*
X-1280054Y1527171D01*
X-1287544Y1530067D01*
X-1287552Y1530068D01*
X-1287558Y1530072D01*
X-1293997Y1532540D01*
X-1294008Y1532542D01*
X-1294017Y1532547D01*
X-1306914Y1537428D01*
X-1306929Y1537430D01*
X-1306941Y1537438D01*
X-1319866Y1542245D01*
X-1319880Y1542248D01*
X-1319892Y1542255D01*
X-1332844Y1546991D01*
X-1332854Y1546993D01*
X-1332864Y1546998D01*
X-1339349Y1549339D01*
X-1339356Y1549340D01*
X-1339362Y1549343D01*
X-1345423Y1551512D01*
X-1345433Y1551514D01*
X-1345441Y1551519D01*
X-1357579Y1555809D01*
X-1357592Y1555811D01*
X-1357604Y1555818D01*
X-1369764Y1560045D01*
X-1369777Y1560047D01*
X-1369789Y1560054D01*
X-1381970Y1564218D01*
X-1381980Y1564220D01*
X-1381989Y1564225D01*
X-1388087Y1566283D01*
X-1388094Y1566284D01*
X-1388099Y1566287D01*
X-1393563Y1568117D01*
X-1393572Y1568118D01*
X-1393580Y1568122D01*
X-1404521Y1571744D01*
X-1404532Y1571745D01*
X-1404543Y1571751D01*
X-1415500Y1575323D01*
X-1415512Y1575324D01*
X-1415522Y1575330D01*
X-1426496Y1578851D01*
X-1426504Y1578852D01*
X-1426512Y1578856D01*
X-1432005Y1580598D01*
X-1432030Y1580600D01*
X-1432051Y1580612D01*
X-1472689Y1593073D01*
X-1472730Y1593077D01*
X-1472767Y1593096D01*
X-1510168Y1603915D01*
X-1510206Y1603918D01*
X-1510239Y1603935D01*
X-1544362Y1613275D01*
X-1544397Y1613277D01*
X-1544429Y1613293D01*
X-1578665Y1622166D01*
X-1578699Y1622168D01*
X-1578730Y1622182D01*
X-1611358Y1630184D01*
X-1611390Y1630185D01*
X-1611419Y1630198D01*
X-1642420Y1637398D01*
X-1642450Y1637399D01*
X-1642477Y1637411D01*
X-1671836Y1643873D01*
X-1671865Y1643874D01*
X-1671891Y1643885D01*
X-1701325Y1650023D01*
X-1701353Y1650023D01*
X-1701378Y1650034D01*
X-1729149Y1655517D01*
X-1729175Y1655517D01*
X-1729200Y1655527D01*
X-1757035Y1660728D01*
X-1757061Y1660728D01*
X-1757084Y1660737D01*
X-1783237Y1665359D01*
X-1783261Y1665359D01*
X-1783284Y1665367D01*
X-1809491Y1669746D01*
X-1809515Y1669745D01*
X-1809538Y1669753D01*
X-1835799Y1673889D01*
X-1835822Y1673889D01*
X-1835845Y1673897D01*
X-1862158Y1677793D01*
X-1862180Y1677792D01*
X-1862202Y1677799D01*
X-1886806Y1681222D01*
X-1886828Y1681220D01*
X-1886849Y1681227D01*
X-1911497Y1684444D01*
X-1911519Y1684442D01*
X-1911539Y1684449D01*
X-1936230Y1687462D01*
X-1936251Y1687460D01*
X-1936272Y1687467D01*
X-1961003Y1690277D01*
X-1961024Y1690275D01*
X-1961044Y1690281D01*
X-1984045Y1692711D01*
X-1984065Y1692710D01*
X-1984084Y1692715D01*
X-2007119Y1694973D01*
X-2007139Y1694971D01*
X-2007157Y1694977D01*
X-2030227Y1697065D01*
X-2030246Y1697063D01*
X-2030264Y1697068D01*
X-2053367Y1698987D01*
X-2053386Y1698984D01*
X-2053404Y1698990D01*
X-2076539Y1700740D01*
X-2076557Y1700738D01*
X-2076575Y1700743D01*
X-2099741Y1702327D01*
X-2099760Y1702325D01*
X-2099778Y1702330D01*
X-2122974Y1703749D01*
X-2122992Y1703746D01*
X-2123009Y1703751D01*
X-2144448Y1704915D01*
X-2144465Y1704913D01*
X-2144481Y1704917D01*
X-2165944Y1705943D01*
X-2165961Y1705940D01*
X-2165977Y1705944D01*
X-2187465Y1706832D01*
X-2187481Y1706830D01*
X-2187498Y1706833D01*
X-2209009Y1707585D01*
X-2209025Y1707582D01*
X-2209041Y1707586D01*
X-2230576Y1708202D01*
X-2230592Y1708199D01*
X-2230608Y1708203D01*
X-2252165Y1708684D01*
X-2252181Y1708681D01*
X-2252197Y1708685D01*
X-2273775Y1709033D01*
X-2273791Y1709030D01*
X-2273807Y1709033D01*
X-2295406Y1709249D01*
X-2295422Y1709246D01*
X-2295437Y1709249D01*
X-2317056Y1709333D01*
X-2317072Y1709330D01*
X-2317087Y1709333D01*
X-2338725Y1709287D01*
X-2338741Y1709284D01*
X-2338756Y1709287D01*
X-2360412Y1709111D01*
X-2360427Y1709108D01*
X-2360443Y1709111D01*
X-2382116Y1708808D01*
X-2382131Y1708804D01*
X-2382146Y1708807D01*
X-2403836Y1708376D01*
X-2403851Y1708373D01*
X-2403866Y1708376D01*
X-2425572Y1707819D01*
X-2425586Y1707816D01*
X-2425601Y1707818D01*
X-2447322Y1707136D01*
X-2447336Y1707133D01*
X-2447351Y1707135D01*
X-2469086Y1706329D01*
X-2469100Y1706326D01*
X-2469114Y1706328D01*
X-2490864Y1705399D01*
X-2490878Y1705396D01*
X-2490892Y1705398D01*
X-2510844Y1704440D01*
X-2510856Y1704436D01*
X-2510869Y1704438D01*
X-2530836Y1703377D01*
X-2530849Y1703374D01*
X-2530862Y1703376D01*
X-2550845Y1702214D01*
X-2550856Y1702211D01*
X-2550869Y1702212D01*
X-2569049Y1701069D01*
X-2569060Y1701066D01*
X-2569071Y1701067D01*
X-2585444Y1699967D01*
X-2585454Y1699964D01*
X-2585465Y1699966D01*
X-2603665Y1698666D01*
X-2603676Y1698663D01*
X-2603688Y1698664D01*
X-2623712Y1697141D01*
X-2623724Y1697138D01*
X-2623738Y1697139D01*
X-2647397Y1695216D01*
X-2647414Y1695211D01*
X-2647430Y1695213D01*
X-2678346Y1692500D01*
X-2678355Y1692497D01*
X-2678364Y1692498D01*
X-2683007Y1692073D01*
X-2692332Y1692139D01*
X-2701604Y1693117D01*
X-2710737Y1695000D01*
X-2719641Y1697769D01*
X-2728230Y1701398D01*
X-2736423Y1705851D01*
X-2744139Y1711085D01*
X-2751306Y1717051D01*
X-2757853Y1723690D01*
X-2763718Y1730940D01*
X-2768844Y1738728D01*
X-2773182Y1746983D01*
X-2776690Y1755622D01*
X-2779334Y1764564D01*
X-2781089Y1773721D01*
X-2781938Y1783007D01*
X-2781873Y1792331D01*
X-2780894Y1801604D01*
X-2779011Y1810737D01*
X-2776242Y1819641D01*
X-2772614Y1828230D01*
X-2768161Y1836423D01*
X-2762926Y1844139D01*
X-2756960Y1851306D01*
X-2750321Y1857853D01*
X-2743072Y1863718D01*
X-2735283Y1868844D01*
X-2727029Y1873182D01*
X-2718390Y1876690D01*
X-2709448Y1879334D01*
X-2700290Y1881089D01*
X-2695649Y1881514D01*
X-2691820Y1881862D01*
X-2664998Y1884210D01*
X-2638154Y1886396D01*
X-2611299Y1888416D01*
X-2588268Y1890016D01*
X-2565227Y1891491D01*
X-2542193Y1892841D01*
X-2519149Y1894064D01*
X-2496107Y1895159D01*
X-2473074Y1896123D01*
X-2450039Y1896957D01*
X-2427018Y1897658D01*
X-2404006Y1898226D01*
X-2380995Y1898658D01*
X-2358002Y1898954D01*
X-2335016Y1899113D01*
X-2308204Y1899122D01*
X-2281411Y1898941D01*
D02*
G37*
%LPC*%
G36*
X-2554742Y1830364D02*
X-2560021D01*
X-2565235Y1829538D01*
X-2570256Y1827907D01*
X-2574960Y1825510D01*
X-2579231Y1822407D01*
X-2582964Y1818674D01*
X-2586067Y1814403D01*
X-2588464Y1809699D01*
X-2590096Y1804678D01*
X-2590921Y1799464D01*
Y1794184D01*
X-2590096Y1788970D01*
X-2588464Y1783949D01*
X-2586067Y1779245D01*
X-2582964Y1774974D01*
X-2579231Y1771241D01*
X-2574960Y1768138D01*
X-2570256Y1765741D01*
X-2565235Y1764110D01*
X-2560021Y1763284D01*
X-2554742D01*
X-2549527Y1764110D01*
X-2544507Y1765741D01*
X-2539803Y1768138D01*
X-2535531Y1771241D01*
X-2531799Y1774974D01*
X-2528695Y1779245D01*
X-2526299Y1783949D01*
X-2524667Y1788970D01*
X-2523841Y1794184D01*
Y1799464D01*
X-2524667Y1804678D01*
X-2526299Y1809699D01*
X-2528695Y1814403D01*
X-2531799Y1818674D01*
X-2535531Y1822407D01*
X-2539803Y1825510D01*
X-2544507Y1827907D01*
X-2549527Y1829538D01*
X-2554742Y1830364D01*
D02*
G37*
G36*
X-1903813Y1813079D02*
X-1909093D01*
X-1914307Y1812253D01*
X-1919328Y1810622D01*
X-1924032Y1808225D01*
X-1928303Y1805122D01*
X-1932036Y1801389D01*
X-1935139Y1797118D01*
X-1937536Y1792414D01*
X-1939167Y1787393D01*
X-1939993Y1782179D01*
Y1776900D01*
X-1939167Y1771685D01*
X-1937536Y1766664D01*
X-1935139Y1761960D01*
X-1932036Y1757689D01*
X-1928303Y1753956D01*
X-1924032Y1750853D01*
X-1919328Y1748456D01*
X-1914307Y1746825D01*
X-1909093Y1745999D01*
X-1903813D01*
X-1898599Y1746825D01*
X-1893578Y1748456D01*
X-1888874Y1750853D01*
X-1884603Y1753956D01*
X-1880870Y1757689D01*
X-1877767Y1761960D01*
X-1875370Y1766664D01*
X-1873739Y1771685D01*
X-1872913Y1776900D01*
Y1782179D01*
X-1873739Y1787393D01*
X-1875370Y1792414D01*
X-1877767Y1797118D01*
X-1880870Y1801389D01*
X-1884603Y1805122D01*
X-1888874Y1808225D01*
X-1893578Y1810622D01*
X-1898599Y1812253D01*
X-1903813Y1813079D01*
D02*
G37*
G36*
X-1647516Y1769738D02*
X-1652795D01*
X-1658009Y1768912D01*
X-1663030Y1767280D01*
X-1667734Y1764884D01*
X-1672005Y1761781D01*
X-1675738Y1758047D01*
X-1678841Y1753776D01*
X-1681238Y1749073D01*
X-1682869Y1744052D01*
X-1683695Y1738837D01*
Y1733558D01*
X-1682869Y1728344D01*
X-1681238Y1723323D01*
X-1678841Y1718619D01*
X-1675738Y1714348D01*
X-1672005Y1710615D01*
X-1667734Y1707512D01*
X-1663030Y1705115D01*
X-1658009Y1703483D01*
X-1652795Y1702658D01*
X-1647516D01*
X-1642301Y1703483D01*
X-1637280Y1705115D01*
X-1632576Y1707512D01*
X-1628305Y1710615D01*
X-1624572Y1714348D01*
X-1621469Y1718619D01*
X-1619073Y1723323D01*
X-1617441Y1728344D01*
X-1616615Y1733558D01*
Y1738837D01*
X-1617441Y1744052D01*
X-1619073Y1749073D01*
X-1621469Y1753776D01*
X-1624572Y1758047D01*
X-1628305Y1761781D01*
X-1632576Y1764884D01*
X-1637280Y1767280D01*
X-1642301Y1768912D01*
X-1647516Y1769738D01*
D02*
G37*
G36*
X-1109156Y1592664D02*
X-1114436D01*
X-1119650Y1591839D01*
X-1124671Y1590207D01*
X-1129375Y1587810D01*
X-1133646Y1584707D01*
X-1137379Y1580974D01*
X-1140482Y1576703D01*
X-1142879Y1571999D01*
X-1144510Y1566978D01*
X-1145336Y1561764D01*
Y1556485D01*
X-1144510Y1551270D01*
X-1142879Y1546250D01*
X-1140482Y1541546D01*
X-1137379Y1537275D01*
X-1133646Y1533542D01*
X-1129375Y1530438D01*
X-1124671Y1528042D01*
X-1119650Y1526410D01*
X-1114436Y1525584D01*
X-1109156D01*
X-1103942Y1526410D01*
X-1098921Y1528042D01*
X-1094217Y1530438D01*
X-1089946Y1533542D01*
X-1086213Y1537275D01*
X-1083110Y1541546D01*
X-1080713Y1546250D01*
X-1079082Y1551270D01*
X-1078256Y1556485D01*
Y1561764D01*
X-1079082Y1566978D01*
X-1080713Y1571999D01*
X-1083110Y1576703D01*
X-1086213Y1580974D01*
X-1089946Y1584707D01*
X-1094217Y1587810D01*
X-1098921Y1590207D01*
X-1103942Y1591839D01*
X-1109156Y1592664D01*
D02*
G37*
G36*
X-878619Y1472634D02*
X-883898D01*
X-889112Y1471808D01*
X-894133Y1470177D01*
X-898837Y1467780D01*
X-903108Y1464677D01*
X-906841Y1460944D01*
X-909944Y1456673D01*
X-912341Y1451969D01*
X-913972Y1446948D01*
X-914798Y1441734D01*
Y1436454D01*
X-913972Y1431240D01*
X-912341Y1426219D01*
X-909944Y1421515D01*
X-906841Y1417244D01*
X-903108Y1413511D01*
X-898837Y1410408D01*
X-894133Y1408011D01*
X-889112Y1406380D01*
X-883898Y1405554D01*
X-878619D01*
X-873404Y1406380D01*
X-868383Y1408011D01*
X-863680Y1410408D01*
X-859409Y1413511D01*
X-855676Y1417244D01*
X-852572Y1421515D01*
X-850176Y1426219D01*
X-848544Y1431240D01*
X-847718Y1436454D01*
Y1441734D01*
X-848544Y1446948D01*
X-850176Y1451969D01*
X-852572Y1456673D01*
X-855676Y1460944D01*
X-859409Y1464677D01*
X-863680Y1467780D01*
X-868383Y1470177D01*
X-873404Y1471808D01*
X-878619Y1472634D01*
D02*
G37*
G36*
X-481550Y1184901D02*
X-486829D01*
X-492044Y1184075D01*
X-497065Y1182443D01*
X-501769Y1180047D01*
X-506040Y1176944D01*
X-509773Y1173211D01*
X-512876Y1168940D01*
X-515273Y1164236D01*
X-516904Y1159215D01*
X-517730Y1154000D01*
Y1148721D01*
X-516904Y1143507D01*
X-515273Y1138486D01*
X-512876Y1133782D01*
X-509773Y1129511D01*
X-506040Y1125778D01*
X-501769Y1122675D01*
X-497065Y1120278D01*
X-492044Y1118647D01*
X-486829Y1117821D01*
X-481550D01*
X-476336Y1118647D01*
X-471315Y1120278D01*
X-466611Y1122675D01*
X-462340Y1125778D01*
X-458607Y1129511D01*
X-455504Y1133782D01*
X-453107Y1138486D01*
X-451476Y1143507D01*
X-450650Y1148721D01*
Y1154000D01*
X-451476Y1159215D01*
X-453107Y1164236D01*
X-455504Y1168940D01*
X-458607Y1173211D01*
X-462340Y1176944D01*
X-466611Y1180047D01*
X-471315Y1182443D01*
X-476336Y1184075D01*
X-481550Y1184901D01*
D02*
G37*
G36*
X-300213Y998810D02*
X-305492D01*
X-310707Y997984D01*
X-315728Y996353D01*
X-320432Y993956D01*
X-324703Y990853D01*
X-328436Y987120D01*
X-331539Y982849D01*
X-333936Y978145D01*
X-335567Y973124D01*
X-336393Y967909D01*
Y962630D01*
X-335567Y957416D01*
X-333936Y952395D01*
X-331539Y947691D01*
X-328436Y943420D01*
X-324703Y939687D01*
X-320432Y936584D01*
X-315728Y934187D01*
X-310707Y932556D01*
X-305492Y931730D01*
X-300213D01*
X-294999Y932556D01*
X-289978Y934187D01*
X-285274Y936584D01*
X-281003Y939687D01*
X-277270Y943420D01*
X-274167Y947691D01*
X-271770Y952395D01*
X-270139Y957416D01*
X-269313Y962630D01*
Y967909D01*
X-270139Y973124D01*
X-271770Y978145D01*
X-274167Y982849D01*
X-277270Y987120D01*
X-281003Y990853D01*
X-285274Y993956D01*
X-289978Y996353D01*
X-294999Y997984D01*
X-300213Y998810D01*
D02*
G37*
G36*
X-1908682Y1858299D02*
X-1911192Y1858014D01*
X-1913402Y1856790D01*
X-1975207Y1804494D01*
X-2063156Y1807012D01*
X-2366300Y1815690D01*
X-2368791Y1815268D01*
X-2370930Y1813925D01*
X-2372393Y1811866D01*
X-2372957Y1809403D01*
X-2372535Y1806913D01*
X-2371192Y1804773D01*
X-2369133Y1803310D01*
X-2366671Y1802746D01*
X-2063526Y1794068D01*
X-1973102Y1791480D01*
X-1972027Y1791662D01*
X-1970944Y1791785D01*
X-1970788Y1791872D01*
X-1970611Y1791902D01*
X-1969688Y1792481D01*
X-1968734Y1793009D01*
X-1907413Y1844895D01*
X-1633275Y1802212D01*
X-1575387Y1722972D01*
X-1574812Y1722444D01*
X-1574324Y1721835D01*
X-1573891Y1721597D01*
X-1573528Y1721263D01*
X-1572795Y1720994D01*
X-1572110Y1720618D01*
X-1492170Y1695349D01*
X-1231147Y1609062D01*
X-1174367Y1590293D01*
X-1173359Y1590168D01*
X-1172365Y1589966D01*
X-1172114Y1590014D01*
X-1171860Y1589983D01*
X-1170881Y1590253D01*
X-1169885Y1590447D01*
X-1092205Y1622204D01*
X-844675Y1496896D01*
X-812452Y1398600D01*
X-812044Y1397876D01*
X-811738Y1397103D01*
X-811430Y1396785D01*
X-811212Y1396399D01*
X-810558Y1395886D01*
X-809980Y1395289D01*
X-765355Y1364464D01*
X-765355Y1364464D01*
X-765354Y1364463D01*
X-765343Y1364456D01*
X-563438Y1217971D01*
X-539723Y1200765D01*
X-538825Y1200352D01*
X-537966Y1199863D01*
X-537685Y1199827D01*
X-537428Y1199709D01*
X-536440Y1199671D01*
X-535459Y1199548D01*
X-445154Y1205998D01*
X-248974Y1009818D01*
Y910406D01*
X-248888Y909969D01*
X-248914Y909526D01*
X-248643Y908742D01*
X-248482Y907928D01*
X-248235Y907558D01*
X-248089Y907138D01*
X-197250Y820177D01*
X-197249Y820177D01*
X-197249Y820176D01*
X-197236Y820155D01*
X-64234Y567829D01*
X6026Y434537D01*
Y354496D01*
X4783Y354234D01*
X-111152Y616246D01*
X-111387Y616581D01*
X-111547Y616959D01*
X-369517Y996746D01*
X-369804Y997029D01*
X-370024Y997366D01*
X-393080Y1020964D01*
X-355535Y1058015D01*
X-353659Y1058792D01*
X-352171Y1060280D01*
X-351365Y1062224D01*
Y1064329D01*
X-352171Y1066273D01*
X-353659Y1067761D01*
X-355603Y1068567D01*
X-357708D01*
X-359652Y1067761D01*
X-361140Y1066273D01*
X-361879Y1064489D01*
X-398773Y1028080D01*
X-400043Y1028091D01*
X-453889Y1083204D01*
X-454208Y1083422D01*
X-454470Y1083705D01*
X-955256Y1447005D01*
X-955562Y1447146D01*
X-955824Y1447356D01*
X-985085Y1462593D01*
X-960918Y1509557D01*
X-960655Y1509666D01*
X-959166Y1511155D01*
X-958361Y1513099D01*
Y1515203D01*
X-959166Y1517148D01*
X-960655Y1518636D01*
X-962599Y1519441D01*
X-964032D01*
X-986398Y1530926D01*
X-986406Y1530928D01*
X-986412Y1530933D01*
X-986429Y1530942D01*
X-986935Y1531084D01*
X-988054Y1531548D01*
X-990209Y1531832D01*
X-992364Y1531548D01*
X-993100Y1531243D01*
X-993581Y1531136D01*
X-1003969Y1526545D01*
X-1005780D01*
X-1007724Y1525740D01*
X-1009212Y1524252D01*
X-1010018Y1522307D01*
Y1520203D01*
X-1009212Y1518259D01*
X-1007724Y1516770D01*
X-1005780Y1515965D01*
X-1003676D01*
X-1001731Y1516770D01*
X-1000243Y1518259D01*
X-1000231Y1518287D01*
X-990250Y1522698D01*
X-990209Y1522681D01*
X-990195Y1522686D01*
X-970556Y1512602D01*
X-970167Y1511393D01*
X-992712Y1467579D01*
X-993923Y1467195D01*
X-1062261Y1502780D01*
X-1062615Y1502883D01*
X-1062936Y1503064D01*
X-1723006Y1720584D01*
X-1723351Y1720627D01*
X-1723676Y1720750D01*
X-1756213Y1726195D01*
X-1747729Y1778407D01*
X-1747276Y1778860D01*
X-1746470Y1780805D01*
Y1782909D01*
X-1747276Y1784853D01*
X-1748764Y1786342D01*
X-1750708Y1787147D01*
X-1752812D01*
X-1754757Y1786342D01*
X-1756245Y1784853D01*
X-1757050Y1782909D01*
Y1780805D01*
X-1756671Y1779890D01*
X-1765009Y1728579D01*
X-1766041Y1727839D01*
X-1842030Y1740556D01*
X-1842346Y1740546D01*
X-1842654Y1740616D01*
X-2587598Y1761120D01*
X-2596424Y1761363D01*
X-2662168Y1815828D01*
X-2662690Y1817087D01*
X-2664178Y1818575D01*
X-2666122Y1819380D01*
X-2668227D01*
X-2670171Y1818575D01*
X-2670417Y1818329D01*
X-2695380Y1815905D01*
X-2695867Y1815758D01*
X-2696729Y1815645D01*
X-2698737Y1814813D01*
X-2700461Y1813490D01*
X-2700851Y1812983D01*
X-2700952Y1812914D01*
X-2701201Y1812541D01*
X-2701519Y1812224D01*
X-2701520Y1812222D01*
X-2701524Y1812212D01*
X-2701531Y1812205D01*
X-2707843Y1802645D01*
X-2708568Y1802345D01*
X-2710056Y1800857D01*
X-2710862Y1798912D01*
Y1796808D01*
X-2710056Y1794864D01*
X-2708568Y1793376D01*
X-2706624Y1792570D01*
X-2704519D01*
X-2702575Y1793376D01*
X-2701087Y1794864D01*
X-2700281Y1796808D01*
Y1797647D01*
X-2694161Y1806917D01*
X-2669467Y1809314D01*
X-2668227Y1808800D01*
X-2667893D01*
X-2601003Y1753386D01*
X-2600462Y1753094D01*
X-2599960Y1752738D01*
X-2599690Y1752677D01*
X-2599447Y1752545D01*
X-2598835Y1752482D01*
X-2598236Y1752345D01*
X-2587848Y1752059D01*
X-1843217Y1731564D01*
X-1795325Y1723550D01*
X-1795188Y1722347D01*
X-1795465Y1722117D01*
X-1795646Y1722042D01*
X-1796097Y1721591D01*
X-1796140Y1721555D01*
X-1843873Y1729543D01*
X-1844108Y1729536D01*
X-1844336Y1729588D01*
X-2623064Y1751022D01*
X-2623263Y1750988D01*
X-2623464Y1751010D01*
X-2686620Y1745234D01*
X-2687380Y1745994D01*
X-2689324Y1746800D01*
X-2691429D01*
X-2693373Y1745994D01*
X-2694861Y1744506D01*
X-2695667Y1742562D01*
Y1740457D01*
X-2694861Y1738513D01*
X-2693373Y1737025D01*
X-2691429Y1736220D01*
X-2689324D01*
X-2687380Y1737025D01*
X-2685892Y1738513D01*
X-2685881Y1738540D01*
X-2623050Y1744286D01*
X-1844755Y1722864D01*
X-1797282Y1714920D01*
X-1797134Y1714561D01*
X-1795646Y1713073D01*
X-1794941Y1712781D01*
X-1794745Y1711325D01*
X-1794895Y1711208D01*
X-1794895D01*
X-1845524Y1719680D01*
X-1845758Y1719673D01*
X-1845987Y1719725D01*
X-2622154Y1741064D01*
X-2622353Y1741030D01*
X-2622553Y1741051D01*
X-2655834Y1738008D01*
X-2656594Y1738768D01*
X-2658538Y1739573D01*
X-2660643D01*
X-2662587Y1738768D01*
X-2664075Y1737280D01*
X-2664880Y1735336D01*
Y1733231D01*
X-2664075Y1731287D01*
X-2662587Y1729799D01*
X-2660643Y1728993D01*
X-2658538D01*
X-2656594Y1729799D01*
X-2655106Y1731287D01*
X-2655095Y1731314D01*
X-2622139Y1734327D01*
X-1846405Y1713001D01*
X-1769344Y1700105D01*
X-1769196Y1699747D01*
X-1767707Y1698259D01*
X-1765763Y1697453D01*
X-1763659D01*
X-1761714Y1698259D01*
X-1761226Y1698747D01*
X-1728535Y1693276D01*
X-1074906Y1477894D01*
X-968928Y1422725D01*
X-475581Y1064864D01*
X-474821Y1064313D01*
X-474022Y1063536D01*
X-473910Y1063412D01*
X-473122Y1062860D01*
X-472684Y1062472D01*
X-472002Y1061774D01*
X-390185Y978079D01*
X-132607Y598869D01*
X-18385Y340729D01*
Y227519D01*
X-18129Y226230D01*
X-17399Y225138D01*
X19710Y188029D01*
Y186448D01*
X20515Y184503D01*
X22004Y183015D01*
X23948Y182210D01*
X26052D01*
X27996Y183015D01*
X29485Y184503D01*
X30290Y186448D01*
Y188552D01*
X29485Y190497D01*
X27996Y191985D01*
X26052Y192790D01*
X24471D01*
X-11652Y228913D01*
Y235231D01*
X-10479Y235717D01*
X24710Y200529D01*
Y198948D01*
X25515Y197003D01*
X27004Y195515D01*
X28948Y194710D01*
X31052D01*
X32996Y195515D01*
X34485Y197003D01*
X35290Y198948D01*
Y201052D01*
X34485Y202997D01*
X32996Y204485D01*
X31052Y205290D01*
X29471D01*
X-6652Y241413D01*
Y247731D01*
X-5479Y248217D01*
X29710Y213029D01*
Y211448D01*
X30515Y209503D01*
X32004Y208015D01*
X33948Y207210D01*
X36052D01*
X37996Y208015D01*
X39198Y209217D01*
X40468Y208811D01*
Y157117D01*
X13593Y130243D01*
X11763Y129485D01*
X10275Y127997D01*
X9470Y126052D01*
Y125879D01*
X-16167Y100243D01*
X-17996Y99485D01*
X-19485Y97997D01*
X-20290Y96052D01*
Y93948D01*
X-19485Y92003D01*
X-17996Y90515D01*
X-16052Y89710D01*
X-13948D01*
X-12004Y90515D01*
X-10515Y92003D01*
X-9758Y93833D01*
X16336Y119927D01*
X17757Y120515D01*
X19245Y122003D01*
X20003Y123833D01*
X48205Y152035D01*
X48205Y152035D01*
X49187Y153506D01*
X49532Y155240D01*
X49532Y155240D01*
Y220000D01*
X49187Y221734D01*
X48205Y223205D01*
X7032Y264377D01*
Y269516D01*
X8302Y270042D01*
X53526Y224818D01*
Y90182D01*
X47318Y83974D01*
X-17318D01*
X-23526Y90182D01*
Y102500D01*
Y110000D01*
Y117500D01*
Y125000D01*
Y132500D01*
Y140000D01*
X-24018Y142478D01*
X-25422Y144578D01*
X-27522Y145982D01*
X-30000Y146475D01*
X-32478Y145982D01*
X-34578Y144578D01*
X-35982Y142478D01*
X-36474Y140000D01*
Y132500D01*
Y125000D01*
Y117500D01*
Y110000D01*
Y102500D01*
Y87500D01*
X-35982Y85022D01*
X-34578Y82922D01*
X-24578Y72922D01*
X-22478Y71518D01*
X-20000Y71026D01*
X50000D01*
X52478Y71518D01*
X54578Y72922D01*
X64578Y82922D01*
X65982Y85022D01*
X66474Y87500D01*
Y227500D01*
X65982Y229978D01*
X64578Y232078D01*
X18974Y277682D01*
Y436139D01*
X18915Y436436D01*
X18947Y436737D01*
X18671Y437666D01*
X18482Y438617D01*
X18314Y438868D01*
X18227Y439158D01*
X-52779Y573867D01*
X-185848Y826319D01*
X-185939Y826431D01*
X-185986Y826568D01*
X-186071Y826712D01*
X-236026Y912159D01*
Y1011869D01*
X-236518Y1014346D01*
X-236843Y1014833D01*
X-236960Y1015419D01*
X-238364Y1017520D01*
X-437780Y1216936D01*
X-438272Y1217570D01*
X-440467Y1218820D01*
X-442974Y1219136D01*
X-534028Y1212632D01*
X-555834Y1228452D01*
X-757801Y1374981D01*
X-757870Y1375013D01*
X-757924Y1375068D01*
X-757997Y1375119D01*
X-800827Y1404705D01*
X-833206Y1503478D01*
X-834446Y1505679D01*
X-836434Y1507238D01*
X-1088605Y1634894D01*
X-1089271Y1635344D01*
X-1091746Y1635848D01*
X-1094226Y1635367D01*
X-1172572Y1603337D01*
X-1227083Y1621357D01*
X-1488147Y1707657D01*
X-1488190Y1707663D01*
X-1488228Y1707684D01*
X-1566184Y1732325D01*
X-1624029Y1811506D01*
X-1625889Y1813216D01*
X-1626438Y1813417D01*
X-1626878Y1813822D01*
X-1629251Y1814690D01*
X-1907910Y1858078D01*
X-1908682Y1858299D01*
D02*
G37*
G36*
X52328Y323640D02*
X47672D01*
X43105Y322732D01*
X38802Y320950D01*
X34930Y318362D01*
X31638Y315070D01*
X29051Y311198D01*
X27269Y306896D01*
X26360Y302328D01*
Y297672D01*
X27269Y293104D01*
X29051Y288802D01*
X31638Y284930D01*
X34930Y281638D01*
X38802Y279051D01*
X43105Y277269D01*
X47672Y276360D01*
X52328D01*
X56895Y277269D01*
X61198Y279051D01*
X65070Y281638D01*
X68362Y284930D01*
X70950Y288802D01*
X72731Y293104D01*
X73640Y297672D01*
Y302328D01*
X72731Y306896D01*
X70950Y311198D01*
X68362Y315070D01*
X65070Y318362D01*
X61198Y320950D01*
X56895Y322732D01*
X52328Y323640D01*
D02*
G37*
G36*
X-47672D02*
X-52328D01*
X-56895Y322732D01*
X-61198Y320950D01*
X-65070Y318362D01*
X-68362Y315070D01*
X-70950Y311198D01*
X-72731Y306896D01*
X-73640Y302328D01*
Y297672D01*
X-72731Y293104D01*
X-70950Y288802D01*
X-68362Y284930D01*
X-65070Y281638D01*
X-61198Y279051D01*
X-56895Y277269D01*
X-52328Y276360D01*
X-47672D01*
X-43105Y277269D01*
X-38802Y279051D01*
X-34930Y281638D01*
X-31638Y284930D01*
X-29051Y288802D01*
X-27269Y293104D01*
X-26360Y297672D01*
Y302328D01*
X-27269Y306896D01*
X-29051Y311198D01*
X-31638Y315070D01*
X-34930Y318362D01*
X-38802Y320950D01*
X-43105Y322732D01*
X-47672Y323640D01*
D02*
G37*
%LPD*%
D10*
X-100000Y15000D02*
G03*
X-85000Y0I15000J0D01*
G01*
X85000Y0D02*
G03*
X100000Y15000I0J15000D01*
G01*
X-674845Y1426571D02*
G03*
X-898629Y1563927I-1523375J-2230964D01*
G01*
X-632646Y1397166D02*
G03*
X-674845Y1426571I-1557904J-2190748D01*
G01*
X-1010034Y1396885D02*
G03*
X-1144359Y1464042I-1141677J-2115645D01*
G01*
X-1021883Y1627399D02*
G03*
X-1154222Y1686667I-1124285J-2333025D01*
G01*
X-1208383Y1708427D02*
G03*
X-1251920Y1724923I-963187J-2476442D01*
G01*
X-1154222Y1686667D02*
G03*
X-1208383Y1708427I-1007155J-2428516D01*
G01*
X-898629Y1563927D02*
G03*
X-951167Y1591986I-1279453J-2332428D01*
G01*
X-1289382Y1525312D02*
G03*
X-1341080Y1544544I-884497J-2298581D01*
G01*
X-1229740Y1501455D02*
G03*
X-1289382Y1525312I-935076J-2251194D01*
G01*
X-1144359Y1464042D02*
G03*
X-1229740Y1501455I-1010830J-2190686D01*
G01*
X-1251920Y1724923D02*
G03*
X-1306594Y1744424I-929595J-2519915D01*
G01*
X-1389718Y1561453D02*
G03*
X-1433546Y1575738I-800709J-2382297D01*
G01*
X-1341080Y1544544D02*
G03*
X-1389718Y1561453I-841246J-2341300D01*
G01*
X-1416737Y1779769D02*
G03*
X-1464769Y1793598I-790041J-2653687D01*
G01*
X-1365211Y1763875D02*
G03*
X-1416737Y1779769I-833606J-2611069D01*
G01*
X-1306594Y1744424D02*
G03*
X-1365211Y1763875I-883569J-2564546D01*
G01*
X-2696111Y1886590D02*
G03*
X-2677900Y1687421I9106J-99585D01*
G01*
X99404Y280489D02*
X100000Y270000D01*
X-100834Y281206D02*
X-100000Y270000D01*
X89622Y380485D02*
X90720Y373187D01*
X-113905Y383142D02*
X-112856Y377777D01*
X-100000Y15000D02*
Y270000D01*
X-85000Y-0D02*
X85000Y0D01*
X100000Y15000D02*
Y270000D01*
X-921443Y1346246D02*
X-910687Y1339866D01*
X-987622Y1384641D02*
X-958936Y1368522D01*
X-946240Y1361227D01*
X-921443Y1346246D01*
X-1010034Y1396885D02*
X-987622Y1384641D01*
X-876266Y1318954D02*
X-860639Y1309199D01*
X-842598Y1297726D02*
X-809590Y1276135D01*
X-910687Y1339866D02*
X-900010Y1333462D01*
X-889411Y1327032D01*
X-876266Y1318954D01*
X-860639Y1309199D02*
X-842598Y1297726D01*
X-790465Y1263308D02*
X-759207Y1241677D01*
X-719162Y1212908D02*
X-703393Y1201237D01*
X-737742Y1226408D02*
X-719162Y1212908D01*
X-759207Y1241677D02*
X-737742Y1226408D01*
X-809590Y1276135D02*
X-790465Y1263308D01*
X-703393Y1201237D02*
X-689069Y1190463D01*
X-550281Y1076310D02*
X-543388Y1070109D01*
X-563054Y1087650D02*
X-556065Y1081469D01*
X-550281Y1076310D01*
X-570093Y1093819D02*
X-563054Y1087650D01*
X-584321Y1106118D02*
X-577182Y1099975D01*
X-591509Y1112247D02*
X-584321Y1106118D01*
X-577182Y1099975D02*
X-570093Y1093819D01*
X-598745Y1118363D02*
X-591509Y1112247D01*
X-607246Y1125479D02*
X-598745Y1118363D01*
X-624439Y1139648D02*
X-615811Y1132574D01*
X-607246Y1125479D01*
X-633127Y1146700D02*
X-624439Y1139648D01*
X-643130Y1154731D02*
X-633127Y1146700D01*
X-653210Y1162730D02*
X-643130Y1154731D01*
X-664639Y1171691D02*
X-653210Y1162730D01*
X-676161Y1180608D02*
X-664639Y1171691D01*
X-689069Y1190463D02*
X-676161Y1180608D01*
X-523089Y1314858D02*
X-510987Y1305185D01*
X-478195Y1278324D02*
X-469379Y1270935D01*
X-498979Y1295460D02*
X-487066Y1285686D01*
X-478195Y1278324D01*
X-434691Y1241117D02*
X-426167Y1233600D01*
X-469379Y1270935D02*
X-460620Y1263519D01*
X-443276Y1248610D02*
X-434691Y1241117D01*
X-451919Y1256077D02*
X-443276Y1248610D01*
X-460620Y1263519D02*
X-451919Y1256077D01*
X-510987Y1305185D02*
X-498979Y1295460D01*
X-588072Y1364767D02*
X-572387Y1353022D01*
X-559933Y1343562D02*
X-547564Y1334048D01*
X-535282Y1324479D01*
X-632646Y1397166D02*
X-603882Y1376421D01*
X-572387Y1353022D02*
X-559933Y1343562D01*
X-603882Y1376421D02*
X-588072Y1364767D01*
X-535282Y1324479D02*
X-523089Y1314858D01*
X-1021883Y1627399D02*
X-989978Y1611752D01*
X-951167Y1591986D01*
X-1757971Y1655717D02*
X-1730136Y1650516D01*
X-1936847Y1682401D02*
X-1912157Y1679389D01*
X-1984581Y1687642D02*
X-1961579Y1685212D01*
X-2007617Y1689900D02*
X-1984581Y1687642D01*
X-1961579Y1685212D02*
X-1936847Y1682401D01*
X-1862904Y1672750D02*
X-1836592Y1668854D01*
X-1887509Y1676172D02*
X-1862904Y1672750D01*
X-1784124Y1660339D02*
X-1757971Y1655717D01*
X-1810331Y1664717D02*
X-1784124Y1660339D01*
X-1836592Y1668854D02*
X-1810331Y1664717D01*
X-1702366Y1645033D02*
X-1672932Y1638894D01*
X-1912157Y1679389D02*
X-1887509Y1676172D01*
X-2030686Y1691988D02*
X-2007617Y1689900D01*
X-1612572Y1625233D02*
X-1579944Y1617231D01*
X-1672932Y1638894D02*
X-1643573Y1632432D01*
X-1612572Y1625233D01*
X-1474184Y1588199D02*
X-1433546Y1575738D01*
X-1511585Y1599018D02*
X-1474184Y1588199D01*
X-1545708Y1608358D02*
X-1511585Y1599018D01*
X-1579944Y1617231D02*
X-1545708Y1608358D01*
X-1718562Y1851829D02*
X-1684750Y1845444D01*
X-1617317Y1831483D02*
X-1583701Y1823900D01*
X-1546434Y1814994D02*
X-1509257Y1805579D01*
X-1651001Y1838663D02*
X-1617317Y1831483D01*
X-1509257Y1805579D02*
X-1464769Y1793598D01*
X-1583701Y1823900D02*
X-1546434Y1814994D01*
X-1684750Y1845444D02*
X-1651001Y1838663D01*
X-1730136Y1650516D02*
X-1702366Y1645033D01*
X-1843036Y1871935D02*
X-1812793Y1867532D01*
X-1873320Y1876043D02*
X-1843036Y1871935D01*
X-1903643Y1879858D02*
X-1873320Y1876043D01*
X-1934002Y1883383D02*
X-1903643Y1879858D01*
X-1960596Y1886232D02*
X-1934002Y1883383D01*
X-2013859Y1891279D02*
X-1987215Y1888863D01*
X-1752435Y1857824D02*
X-1718562Y1851829D01*
X-1782592Y1862829D02*
X-1752435Y1857824D01*
X-1812793Y1867532D02*
X-1782592Y1862829D01*
X-1987215Y1888863D02*
X-1960596Y1886232D01*
X-2040526Y1893481D02*
X-2013859Y1891279D01*
X-2519405Y1899155D02*
X-2496336Y1900251D01*
X-2067215Y1895472D02*
X-2040526Y1893481D01*
X-2542475Y1897931D02*
X-2519405Y1899155D01*
X-2565543Y1896579D02*
X-2542475Y1897931D01*
X-2496336Y1900251D02*
X-2473271Y1901217D01*
X-2611664Y1893501D02*
X-2588607Y1895102D01*
X-2638553Y1891478D02*
X-2611664Y1893501D01*
X-2665425Y1889290D02*
X-2638553Y1891478D01*
X-2588607Y1895102D02*
X-2565543Y1896579D01*
X-2120653Y1898828D02*
X-2093924Y1897253D01*
X-2067215Y1895472D01*
X-2174163Y1901363D02*
X-2147400Y1900197D01*
X-2120653Y1898828D01*
X-2473271Y1901217D02*
X-2450211Y1902052D01*
X-2187676Y1701739D02*
X-2166188Y1700851D01*
X-2209187Y1702490D02*
X-2187676Y1701739D01*
X-2252279Y1703588D02*
X-2230722Y1703106D01*
X-2295457Y1704151D02*
X-2273858Y1703936D01*
X-2317076Y1704235D02*
X-2295457Y1704151D01*
X-2338715Y1704189D02*
X-2317076Y1704235D01*
X-2360371Y1704014D02*
X-2338715Y1704189D01*
X-2382045Y1703710D02*
X-2360371Y1704014D01*
X-2403735Y1703280D02*
X-2382045Y1703710D01*
X-2273858Y1703936D02*
X-2252279Y1703588D01*
X-2230722Y1703106D02*
X-2209187Y1702490D01*
X-2166188Y1700851D02*
X-2144724Y1699825D01*
X-2447162Y1702041D02*
X-2425441Y1702723D01*
X-2490647Y1700306D02*
X-2468897Y1701235D01*
X-2447162Y1702041D01*
X-2425441Y1702723D02*
X-2403735Y1703280D01*
X-2200941Y1902328D02*
X-2174163Y1901363D01*
X-2227734Y1903095D02*
X-2200941Y1902328D01*
X-2254540Y1903664D02*
X-2227734Y1903095D01*
X-2404115Y1903322D02*
X-2381079Y1903755D01*
X-2281358Y1904039D02*
X-2254540Y1903664D01*
X-2427159Y1902754D02*
X-2404115Y1903322D01*
X-2381079Y1903755D02*
X-2358052Y1904052D01*
X-2100089Y1697241D02*
X-2076923Y1695657D01*
X-2123286Y1698660D02*
X-2100089Y1697241D01*
X-2053789Y1693906D02*
X-2030686Y1691988D01*
X-2144724Y1699825D02*
X-2123286Y1698660D01*
X-2076923Y1695657D02*
X-2053789Y1693906D01*
X-2510599Y1699348D02*
X-2490647Y1700306D01*
X-2530566Y1698287D02*
X-2510599Y1699348D01*
X-2550549Y1697124D02*
X-2530566Y1698287D01*
X-2568729Y1695981D02*
X-2550549Y1697124D01*
X-2696111Y1886590D02*
X-2692277Y1886939D01*
X-2677900Y1687421D02*
X-2646985Y1690135D01*
X-2603302Y1693581D02*
X-2585102Y1694881D01*
X-2646985Y1690135D02*
X-2623325Y1692058D01*
X-2603302Y1693581D01*
X-2585102Y1694881D02*
X-2568729Y1695981D01*
X-2692277Y1886939D02*
X-2665425Y1889290D01*
X-2450211Y1902052D02*
X-2427159Y1902754D01*
X-2308190Y1904220D02*
X-2281358Y1904039D01*
X-2358052Y1904052D02*
X-2335033Y1904210D01*
X-2308190Y1904220D01*
X-149196Y509934D02*
X-146799Y503104D01*
X-151657Y516788D02*
X-149196Y509934D01*
X-154181Y523665D02*
X-151657Y516788D01*
X-157146Y531554D02*
X-154181Y523665D01*
X-180278Y587554D02*
X-176716Y579475D01*
X-187664Y603781D02*
X-183927Y595656D01*
X-180278Y587554D01*
X-176716Y579475D02*
X-173240Y571422D01*
X-163328Y547418D02*
X-160194Y539472D01*
X-169850Y563394D02*
X-166546Y555392D01*
X-173240Y571422D02*
X-169850Y563394D01*
X-166546Y555392D02*
X-163328Y547418D01*
X-160194Y539472D02*
X-157146Y531554D01*
X-496656Y1026437D02*
X-491277Y1021213D01*
X-524148Y1052483D02*
X-518572Y1047285D01*
X-536548Y1063897D02*
X-529762Y1057675D01*
X-524148Y1052483D01*
X-513034Y1042081D02*
X-507536Y1036872D01*
X-502076Y1031657D01*
X-518572Y1047285D02*
X-513034Y1042081D01*
X-502076Y1031657D02*
X-496656Y1026437D01*
X-543388Y1070109D02*
X-536548Y1063897D01*
X-260909Y738427D02*
X-254419Y727932D01*
X-267544Y748938D02*
X-260909Y738427D01*
X-319685Y824972D02*
X-311218Y813328D01*
X-274326Y759465D02*
X-267544Y748938D01*
X-311218Y813328D02*
X-302933Y801690D01*
X-288333Y780556D02*
X-281256Y770004D01*
X-295558Y791118D02*
X-288333Y780556D01*
X-281256Y770004D02*
X-274326Y759465D01*
X-302933Y801690D02*
X-295558Y791118D01*
X-254419Y727932D02*
X-248075Y717455D01*
X-191972Y612949D02*
X-187664Y603781D01*
X-196392Y622144D02*
X-191972Y612949D01*
X-200923Y631366D02*
X-196392Y622144D01*
X-230490Y687184D02*
X-225276Y677828D01*
X-220178Y668492D02*
X-215194Y659176D01*
X-210324Y649883D01*
X-225276Y677828D02*
X-220178Y668492D01*
X-241875Y706997D02*
X-235818Y696559D01*
X-230490Y687184D01*
X-210324Y649883D02*
X-205567Y640612D01*
X-200923Y631366D01*
X-248075Y717455D02*
X-241875Y706997D01*
X-341772Y1154616D02*
X-331394Y1144271D01*
X-323691Y1136494D02*
X-316057Y1128700D01*
X-308494Y1120891D01*
X-331394Y1144271D02*
X-323691Y1136494D01*
X-395437Y1205834D02*
X-384472Y1195663D01*
X-373622Y1185453D01*
X-362887Y1175208D02*
X-352270Y1164928D01*
X-373622Y1185453D02*
X-362887Y1175208D01*
X-417703Y1226059D02*
X-406515Y1215967D01*
X-395437Y1205834D01*
X-352270Y1164928D02*
X-341772Y1154616D01*
X-426167Y1233600D02*
X-417703Y1226059D01*
X-432848Y961407D02*
X-424108Y951928D01*
X-414548Y941386D01*
X-405147Y930833D01*
X-384121Y906524D02*
X-374357Y894884D01*
X-337169Y848276D02*
X-328335Y836622D01*
X-346187Y859931D02*
X-337169Y848276D01*
X-394988Y919213D02*
X-384121Y906524D01*
X-364780Y883237D02*
X-355391Y871585D01*
X-374357Y894884D02*
X-364780Y883237D01*
X-355391Y871585D02*
X-346187Y859931D01*
X-328335Y836622D02*
X-319685Y824972D01*
X-405147Y930833D02*
X-394988Y919213D01*
X-491277Y1021213D02*
X-485937Y1015984D01*
X-480638Y1010751D01*
X-469127Y999227D02*
X-459857Y989787D01*
X-450722Y980336D02*
X-441719Y970876D01*
X-459857Y989787D02*
X-450722Y980336D01*
X-475381Y1005515D02*
X-469127Y999227D01*
X-480638Y1010751D02*
X-475381Y1005515D01*
X-441719Y970876D02*
X-432848Y961407D01*
X-59536Y791165D02*
X-52028Y777806D01*
X-67235Y804533D02*
X-59536Y791165D01*
X-75124Y817910D02*
X-67235Y804533D01*
X-83204Y831292D02*
X-75124Y817910D01*
X-44708Y764458D02*
X-37578Y751124D01*
X-117448Y884846D02*
X-108598Y871457D01*
X-99940Y858068D01*
X-91476Y844679D01*
X-83204Y831292D01*
X-52028Y777806D02*
X-44708Y764458D01*
X-37578Y751124D02*
X-30636Y737806D01*
X-257564Y1065847D02*
X-248275Y1055298D01*
X-232341Y1036798D01*
X-216814Y1018251D01*
X-308494Y1120891D02*
X-301001Y1113066D01*
X-293579Y1105228D02*
X-286229Y1097376D01*
X-301001Y1113066D02*
X-293579Y1105228D01*
X-278952Y1089512D02*
X-271749Y1081635D01*
X-286229Y1097376D02*
X-278952Y1089512D01*
X-271749Y1081635D02*
X-264619Y1073746D01*
X-257564Y1065847D01*
X-30636Y737806D02*
X-23882Y724504D01*
X-17314Y711221D02*
X-10934Y697959D01*
X-23882Y724504D02*
X-17314Y711221D01*
X-10934Y697959D02*
X-4738Y684719D01*
X1272Y671503D01*
X7098Y658312D02*
X12740Y645150D01*
X-201691Y999662D02*
X-186968Y981036D01*
X-158710Y943691D02*
X-143265Y922310D01*
X-172642Y962377D02*
X-158710Y943691D01*
X-186968Y981036D02*
X-172642Y962377D01*
X1272Y671503D02*
X7098Y658312D01*
X-143265Y922310D02*
X-128325Y900907D01*
X-117448Y884846D01*
X-216814Y1018251D02*
X-201691Y999662D01*
X56938Y523081D02*
X59972Y512856D01*
X53791Y533334D02*
X56938Y523081D01*
X50531Y543615D02*
X53791Y533334D01*
X47157Y553924D02*
X50531Y543615D01*
X43670Y564258D02*
X47157Y553924D01*
X18200Y632016D02*
X23477Y618913D01*
X36351Y585003D02*
X40068Y574618D01*
X32520Y595412D02*
X36351Y585003D01*
X28573Y605843D02*
X32520Y595412D01*
X23477Y618913D02*
X28573Y605843D01*
X40068Y574618D02*
X43670Y564258D01*
X12740Y645150D02*
X18200Y632016D01*
X-123854Y426944D02*
X-122456Y421385D01*
X-121103Y415850D01*
X-119794Y410338D01*
X-118529Y404850D01*
X-117308Y399385D02*
X-116130Y393946D01*
X-114996Y388531D02*
X-113905Y383142D01*
X-116130Y393946D02*
X-114996Y388531D01*
X-118529Y404850D02*
X-117308Y399385D01*
X-125295Y432526D02*
X-123854Y426944D01*
X87240Y395147D02*
X88462Y387805D01*
X89622Y380485D01*
X85957Y402511D02*
X87240Y395147D01*
X82232Y422257D02*
X84150Y412365D01*
X85957Y402511D01*
X80204Y432186D02*
X82232Y422257D01*
X70982Y472259D02*
X73454Y462190D01*
X75816Y452154D01*
X78065Y442152D02*
X80204Y432186D01*
X62893Y502661D02*
X65701Y492496D01*
X68398Y482362D01*
X70982Y472259D01*
X75816Y452154D02*
X78065Y442152D01*
X59972Y512856D02*
X62893Y502661D01*
X-146799Y503104D02*
X-144466Y496300D01*
X-142195Y489520D01*
X-139988Y482766D01*
X-137844Y476039D02*
X-135762Y469338D01*
X-133743Y462665D01*
X-139988Y482766D02*
X-137844Y476039D01*
X-131785Y456020D02*
X-129889Y449404D01*
X-128313Y443756D02*
X-126782Y438130D01*
X-125295Y432526D01*
X-129889Y449404D02*
X-128313Y443756D01*
X-133743Y462665D02*
X-131785Y456020D01*
X-111046Y368011D02*
X-110118Y362721D01*
X-109233Y357458D02*
X-108389Y352223D01*
X-112856Y377777D02*
X-111851Y372439D01*
X-108389Y352223D02*
X-107588Y347015D01*
X-111851Y372439D02*
X-111046Y368011D01*
X-110118Y362721D02*
X-109233Y357458D01*
X-107588Y347015D02*
X-106828Y341837D01*
X-106227Y337543D01*
X-105653Y333271D02*
X-105216Y329868D01*
X-104011Y319738D02*
X-103646Y316386D01*
X-105216Y329868D02*
X-104796Y326478D01*
X-104395Y323102D01*
X-104011Y319738D01*
X-103214Y312215D02*
X-102810Y308062D01*
X-103646Y316386D02*
X-103214Y312215D01*
X-102810Y308062D02*
X-102153Y300636D01*
X-101585Y293278D02*
X-101256Y288418D01*
X-101011Y284399D01*
X-102153Y300636D02*
X-101585Y293278D01*
X-106227Y337543D02*
X-105653Y333271D01*
X-101011Y284399D02*
X-100834Y281206D01*
X96015Y329875D02*
X96892Y320360D01*
X97660Y310888D01*
X98165Y303817D01*
X98608Y296777D02*
X98990Y289772D01*
X98165Y303817D02*
X98608Y296777D01*
X98990Y289772D02*
X99211Y285123D01*
X99404Y280489D01*
X90720Y373187D02*
X91756Y365913D01*
X92731Y358660D01*
X93644Y351430D01*
X95286Y337037D02*
X96015Y329875D01*
X94496Y344222D02*
X95286Y337037D01*
X93644Y351430D02*
X94496Y344222D01*
D11*
X-471362Y1065936D02*
G03*
X-471557Y1066104I-1090J-1065D01*
G01*
X-122447Y607422D02*
X-5000Y341992D01*
X-10019Y240019D02*
Y341716D01*
Y240019D02*
X30000Y200000D01*
X-5000Y252500D02*
X35000Y212500D01*
X-5000Y252500D02*
Y341992D01*
X-129651Y600510D02*
X-15019Y341441D01*
Y227519D02*
X25000Y187500D01*
X-126075Y604005D02*
X-10019Y341716D01*
X-15019Y227519D02*
Y341441D01*
X-962535Y1434466D02*
X-464302Y1073019D01*
X-427602Y1035477D01*
X-1068976Y1489876D02*
X-1022408Y1465634D01*
X-1726075Y1706417D02*
X-1068976Y1489876D01*
X-967152Y1425596D02*
X-471557Y1066104D01*
X-471362Y1065936D02*
X-387568Y980218D01*
X-471557Y1066104D02*
X-471557Y1066104D01*
X-380417Y987209D02*
X-122447Y607422D01*
X-387568Y980218D02*
X-129651Y600510D01*
X-383992Y983714D02*
X-126075Y604005D01*
X-410206Y1010529D02*
X-383992Y983714D01*
X-1727725Y1696554D02*
X-1073711Y1481045D01*
X-1073594Y1481006D01*
X-967152Y1425596D01*
X-1022408Y1465634D02*
X-962535Y1434466D01*
X-2622246Y1737698D02*
X-1846080Y1716360D01*
X-2623157Y1747657D02*
X-1844429Y1726223D01*
X-2659590Y1734283D02*
X-2622246Y1737698D01*
X-1764711Y1702744D02*
X-1727725Y1696554D01*
X-1792649Y1717558D02*
X-1726075Y1706417D01*
X-1846080Y1716360D02*
X-1764711Y1702744D01*
X-1844429Y1726223D02*
X-1792649Y1717558D01*
X-2690377Y1741510D02*
X-2623157Y1747657D01*
X-964844Y1430031D02*
X-467877Y1069524D01*
X-427602Y1035477D02*
X-380417Y987209D01*
X-467877Y1069524D02*
X-410206Y1010529D01*
X-998107Y1447347D02*
X-964844Y1430031D01*
X-1795085Y1763591D02*
X-1773799Y1739836D01*
X-1010500Y1510167D02*
X-997597Y1480997D01*
X-402414Y1074084D02*
X-401890Y1074597D01*
X-393475Y1082822D01*
X-402414Y1074084D02*
X-399240Y1042346D01*
X-2704433Y1785412D02*
X-2677808Y1767847D01*
X-1795085Y1763591D02*
X-1793022Y1775920D01*
D87*
X-988485Y1526903D02*
G03*
X-991749Y1526990I-1724J-3398D01*
G01*
X-2694942Y1811395D02*
G03*
X-2697747Y1809710I368J-3792D01*
G01*
D02*
G03*
X-2697749Y1809708I3174J-2107D01*
G01*
X2500Y262500D02*
Y348193D01*
X-115296Y614412D02*
X2500Y348193D01*
Y262500D02*
X45000Y220000D01*
X-988485Y1526903D02*
X-988468Y1526895D01*
X-2694942Y1811395D02*
X-2667174Y1814090D01*
X-2697749Y1809708D02*
X-2697747Y1809710D01*
X-2705571Y1797860D02*
X-2697749Y1809708D01*
X-1004728Y1521255D02*
X-991749Y1526990D01*
X45000Y155240D02*
Y220000D01*
X14760Y125000D02*
X45000Y155240D01*
X14760Y124760D02*
Y125000D01*
X-15000Y95000D02*
X14760Y124760D01*
X-373266Y994199D02*
X-115296Y614412D01*
X-457131Y1080037D02*
X-399473Y1021022D01*
X-373266Y994199D01*
X-399473Y1021022D02*
X-356655Y1063277D01*
X-957917Y1443336D02*
X-457131Y1080037D01*
X-988468Y1526895D02*
X-963651Y1514151D01*
X-991178Y1460656D02*
X-957917Y1443336D01*
X-1064354Y1498760D02*
X-991178Y1460656D01*
X-963651Y1514151D01*
X-1724424Y1716280D02*
X-1064354Y1498760D01*
X-2587723Y1756590D02*
X-1842778Y1736086D01*
X-2598111Y1756876D02*
X-2587723Y1756590D01*
X-2667174Y1814090D02*
X-2598111Y1756876D01*
X-1761410Y1722469D02*
X-1724424Y1716280D01*
X-1842778Y1736086D02*
X-1761410Y1722469D01*
X-1751760Y1781857D01*
D89*
X-302853Y965270D02*
D03*
X-484190Y1151361D02*
D03*
X-881258Y1439094D02*
D03*
X-1111796Y1559124D02*
D03*
X-1650155Y1736198D02*
D03*
X-1906453Y1779539D02*
D03*
X-2557381Y1796824D02*
D03*
D90*
X74998Y369999D02*
D03*
X89998Y279999D02*
D03*
X74998Y249999D02*
D03*
X89998Y219999D02*
D03*
X74998Y189999D02*
D03*
X89998Y159999D02*
D03*
X74998Y129999D02*
D03*
X89998Y99999D02*
D03*
X74998Y69999D02*
D03*
Y9999D02*
D03*
X44998Y489999D02*
D03*
X59998Y459999D02*
D03*
X44998Y429999D02*
D03*
X59998Y399999D02*
D03*
X44998Y369999D02*
D03*
X59998Y339999D02*
D03*
X44998Y129999D02*
D03*
Y9999D02*
D03*
X14998Y609999D02*
D03*
Y549999D02*
D03*
X29998Y519999D02*
D03*
X14998Y489999D02*
D03*
X29998Y459999D02*
D03*
Y399999D02*
D03*
Y339999D02*
D03*
Y39999D02*
D03*
X14998Y9999D02*
D03*
X-15002Y669999D02*
D03*
X-2Y639999D02*
D03*
X-15002Y609999D02*
D03*
X-2Y579999D02*
D03*
X-15002Y549999D02*
D03*
X-2Y519999D02*
D03*
X-15002Y429999D02*
D03*
Y189999D02*
D03*
Y129999D02*
D03*
X-2Y39999D02*
D03*
X-15002Y9999D02*
D03*
X-45002Y729999D02*
D03*
X-30002Y699999D02*
D03*
X-45002Y669999D02*
D03*
X-30002Y639999D02*
D03*
X-45002Y609999D02*
D03*
X-30002Y579999D02*
D03*
X-45002Y489999D02*
D03*
X-30002Y459999D02*
D03*
X-45002Y369999D02*
D03*
X-30002Y339999D02*
D03*
X-45002Y249999D02*
D03*
X-30002Y219999D02*
D03*
X-45002Y189999D02*
D03*
X-30002Y159999D02*
D03*
X-45002Y129999D02*
D03*
X-30002Y39999D02*
D03*
X-45002Y9999D02*
D03*
X-75002Y789999D02*
D03*
X-60002Y759999D02*
D03*
X-75002Y729999D02*
D03*
X-60002Y699999D02*
D03*
X-75002Y669999D02*
D03*
X-60002Y639999D02*
D03*
X-75002Y549999D02*
D03*
X-60002Y519999D02*
D03*
X-75002Y429999D02*
D03*
X-60002Y399999D02*
D03*
X-75002Y369999D02*
D03*
X-60002Y339999D02*
D03*
X-75002Y249999D02*
D03*
X-60002Y219999D02*
D03*
X-75002Y189999D02*
D03*
X-60002Y159999D02*
D03*
X-75002Y129999D02*
D03*
X-60002Y99999D02*
D03*
X-75002Y69999D02*
D03*
Y9999D02*
D03*
X-105002Y849999D02*
D03*
X-90002Y819999D02*
D03*
X-105002Y789999D02*
D03*
X-90002Y759999D02*
D03*
X-105002Y729999D02*
D03*
X-90002Y699999D02*
D03*
X-105002Y609999D02*
D03*
X-90002Y579999D02*
D03*
X-105002Y489999D02*
D03*
X-90002Y459999D02*
D03*
X-105002Y429999D02*
D03*
X-90002Y399999D02*
D03*
Y339999D02*
D03*
Y279999D02*
D03*
Y219999D02*
D03*
Y159999D02*
D03*
Y99999D02*
D03*
X-135002Y849999D02*
D03*
X-120002Y819999D02*
D03*
X-135002Y789999D02*
D03*
X-120002Y759999D02*
D03*
X-135002Y669999D02*
D03*
X-120002Y639999D02*
D03*
X-135002Y549999D02*
D03*
X-120002Y519999D02*
D03*
Y459999D02*
D03*
X-165002Y909999D02*
D03*
X-150002Y879999D02*
D03*
X-165002Y849999D02*
D03*
X-150002Y819999D02*
D03*
Y699999D02*
D03*
X-165002Y609999D02*
D03*
X-150002Y579999D02*
D03*
X-195002Y969999D02*
D03*
X-180002Y939999D02*
D03*
X-195002Y909999D02*
D03*
X-180002Y879999D02*
D03*
X-195002Y669999D02*
D03*
X-180002Y639999D02*
D03*
X-225002Y969999D02*
D03*
X-210002Y939999D02*
D03*
X-225002Y909999D02*
D03*
X-210002Y879999D02*
D03*
X-225002Y789999D02*
D03*
X-210002Y699999D02*
D03*
X-255002Y969999D02*
D03*
Y909999D02*
D03*
X-240002Y879999D02*
D03*
X-255002Y849999D02*
D03*
X-240002Y819999D02*
D03*
X-270002Y1059999D02*
D03*
X-285002Y1029999D02*
D03*
X-270002Y999999D02*
D03*
Y939999D02*
D03*
X-285002Y909999D02*
D03*
X-270002Y879999D02*
D03*
X-285002Y789999D02*
D03*
X-315002Y1029999D02*
D03*
Y849999D02*
D03*
X-300002Y819999D02*
D03*
X-330001Y1119999D02*
D03*
X-345001Y1089999D02*
D03*
X-330001Y1059999D02*
D03*
X-345001Y1029999D02*
D03*
X-330001Y999999D02*
D03*
X-345001Y969999D02*
D03*
X-330001Y879999D02*
D03*
X-375001Y1029999D02*
D03*
X-360001Y999999D02*
D03*
X-375001Y909999D02*
D03*
X-390001Y1179999D02*
D03*
X-405001Y1149999D02*
D03*
X-390001Y1119999D02*
D03*
X-405001Y1089999D02*
D03*
Y969999D02*
D03*
X-390001Y939999D02*
D03*
X-435001Y1149999D02*
D03*
X-420001Y1119999D02*
D03*
X-435001Y1089999D02*
D03*
X-420001Y1059999D02*
D03*
Y999999D02*
D03*
X-450001Y1239999D02*
D03*
Y1179999D02*
D03*
Y1119999D02*
D03*
X-465001Y1029999D02*
D03*
X-450001Y999999D02*
D03*
X-495001Y1269999D02*
D03*
X-480001Y1239999D02*
D03*
Y1059999D02*
D03*
X-525001Y1269999D02*
D03*
X-510001Y1239999D02*
D03*
Y1179999D02*
D03*
X-525001Y1149999D02*
D03*
Y1089999D02*
D03*
X-510001Y1059999D02*
D03*
X-540001Y1299999D02*
D03*
X-555001Y1269999D02*
D03*
X-540001Y1239999D02*
D03*
Y1179999D02*
D03*
X-585001Y1329999D02*
D03*
X-570001Y1299999D02*
D03*
X-585001Y1269999D02*
D03*
Y1209999D02*
D03*
X-570001Y1179999D02*
D03*
Y1119999D02*
D03*
X-600001Y1359999D02*
D03*
X-615001Y1329999D02*
D03*
X-600001Y1299999D02*
D03*
X-615001Y1209999D02*
D03*
Y1149999D02*
D03*
X-645002Y1389999D02*
D03*
X-630001Y1359999D02*
D03*
X-645002Y1329999D02*
D03*
X-630001Y1299999D02*
D03*
Y1239999D02*
D03*
X-675001Y1389999D02*
D03*
X-660001Y1359999D02*
D03*
X-675001Y1329999D02*
D03*
Y1269999D02*
D03*
X-660001Y1239999D02*
D03*
Y1179999D02*
D03*
X-690001Y1419999D02*
D03*
X-705001Y1389999D02*
D03*
X-690001Y1359999D02*
D03*
X-705001Y1269999D02*
D03*
X-735001Y1449999D02*
D03*
X-720001Y1419999D02*
D03*
X-735001Y1389999D02*
D03*
X-720001Y1359999D02*
D03*
Y1299999D02*
D03*
X-765001Y1449999D02*
D03*
X-750001Y1419999D02*
D03*
X-765001Y1329999D02*
D03*
Y1269999D02*
D03*
X-780001Y1479999D02*
D03*
X-795001Y1449999D02*
D03*
X-780001Y1419999D02*
D03*
X-825001Y1509999D02*
D03*
X-810001Y1479999D02*
D03*
X-825001Y1389999D02*
D03*
X-810001Y1359999D02*
D03*
Y1299999D02*
D03*
X-840001Y1419999D02*
D03*
X-855001Y1389999D02*
D03*
Y1329999D02*
D03*
X-885001Y1509999D02*
D03*
X-870001Y1479999D02*
D03*
X-915001Y1509999D02*
D03*
X-900001Y1479999D02*
D03*
Y1359999D02*
D03*
X-945001Y1569999D02*
D03*
Y1509999D02*
D03*
X-930001Y1479999D02*
D03*
X-945001Y1449999D02*
D03*
Y1389999D02*
D03*
X-960001Y1539999D02*
D03*
Y1479999D02*
D03*
X-975001Y1389999D02*
D03*
X-990001Y1599999D02*
D03*
X-1005001Y1569999D02*
D03*
X-990001Y1419999D02*
D03*
X-1035001Y1569999D02*
D03*
X-1020001Y1539999D02*
D03*
X-1035001Y1509999D02*
D03*
Y1449999D02*
D03*
X-1020001Y1419999D02*
D03*
X-1065001Y1629999D02*
D03*
Y1569999D02*
D03*
X-1050001Y1539999D02*
D03*
X-1065001Y1509999D02*
D03*
Y1449999D02*
D03*
X-1080001Y1599999D02*
D03*
Y1539999D02*
D03*
X-1095001Y1449999D02*
D03*
X-1125001Y1629999D02*
D03*
X-1110001Y1599999D02*
D03*
Y1479999D02*
D03*
X-1140001Y1659999D02*
D03*
X-1155001Y1629999D02*
D03*
Y1569999D02*
D03*
X-1140001Y1479999D02*
D03*
X-1185001Y1689999D02*
D03*
X-1170001Y1659999D02*
D03*
X-1185001Y1629999D02*
D03*
Y1569999D02*
D03*
Y1509999D02*
D03*
X-1215001Y1689999D02*
D03*
X-1200001Y1659999D02*
D03*
X-1215001Y1629999D02*
D03*
Y1569999D02*
D03*
Y1509999D02*
D03*
X-1245001Y1689999D02*
D03*
X-1230001Y1659999D02*
D03*
X-1245001Y1569999D02*
D03*
X-1275001Y1689999D02*
D03*
X-1260001Y1659999D02*
D03*
Y1599999D02*
D03*
X-1290001Y1719999D02*
D03*
X-1305001Y1689999D02*
D03*
X-1290001Y1659999D02*
D03*
Y1599999D02*
D03*
Y1539999D02*
D03*
X-1320001Y1719999D02*
D03*
X-1335001Y1689999D02*
D03*
X-1320001Y1659999D02*
D03*
X-1335001Y1629999D02*
D03*
X-1320001Y1599999D02*
D03*
X-1365001Y1749999D02*
D03*
X-1350001Y1719999D02*
D03*
X-1365001Y1689999D02*
D03*
Y1629999D02*
D03*
Y1569999D02*
D03*
X-1395001Y1749999D02*
D03*
X-1380001Y1719999D02*
D03*
X-1395001Y1689999D02*
D03*
Y1629999D02*
D03*
X-1425001Y1749999D02*
D03*
X-1410001Y1719999D02*
D03*
X-1425001Y1689999D02*
D03*
Y1629999D02*
D03*
X-1455001Y1749999D02*
D03*
X-1440001Y1719999D02*
D03*
Y1659999D02*
D03*
X-1470001Y1779999D02*
D03*
X-1485001Y1749999D02*
D03*
X-1470001Y1719999D02*
D03*
Y1659999D02*
D03*
Y1599999D02*
D03*
X-1500001Y1779999D02*
D03*
X-1515001Y1749999D02*
D03*
X-1500001Y1659999D02*
D03*
X-1530001Y1779999D02*
D03*
X-1545001Y1749999D02*
D03*
Y1689999D02*
D03*
X-1530001Y1659999D02*
D03*
X-1575001Y1809999D02*
D03*
X-1560001Y1779999D02*
D03*
X-1575001Y1749999D02*
D03*
Y1689999D02*
D03*
Y1629999D02*
D03*
X-1605001Y1809999D02*
D03*
X-1590001Y1779999D02*
D03*
X-1605001Y1749999D02*
D03*
X-1590001Y1719999D02*
D03*
X-1605001Y1689999D02*
D03*
X-1650001Y1779999D02*
D03*
Y1659999D02*
D03*
X-1680001Y1779999D02*
D03*
X-1695001Y1749999D02*
D03*
X-1680001Y1659999D02*
D03*
X-1710001Y1839999D02*
D03*
X-1725001Y1809999D02*
D03*
X-1710001Y1779999D02*
D03*
X-1725001Y1749999D02*
D03*
X-1710001Y1719999D02*
D03*
Y1659999D02*
D03*
X-1740001Y1839999D02*
D03*
X-1755001Y1809999D02*
D03*
X-1740001Y1779999D02*
D03*
X-1755001Y1689999D02*
D03*
X-1770001Y1839999D02*
D03*
X-1785001Y1809999D02*
D03*
Y1689999D02*
D03*
X-1815001Y1809999D02*
D03*
X-1800001Y1779999D02*
D03*
X-1815001Y1749999D02*
D03*
Y1689999D02*
D03*
X-1845001Y1809999D02*
D03*
X-1830001Y1779999D02*
D03*
X-1845001Y1749999D02*
D03*
Y1689999D02*
D03*
X-1875001Y1809999D02*
D03*
X-1860001Y1779999D02*
D03*
X-1875001Y1749999D02*
D03*
Y1689999D02*
D03*
X-1905001Y1869999D02*
D03*
Y1689999D02*
D03*
X-1935001Y1869999D02*
D03*
Y1809999D02*
D03*
Y1749999D02*
D03*
X-1965001Y1869999D02*
D03*
X-1950001Y1839999D02*
D03*
Y1779999D02*
D03*
X-1965001Y1749999D02*
D03*
X-1995001Y1869999D02*
D03*
X-1980001Y1839999D02*
D03*
X-1995001Y1809999D02*
D03*
Y1749999D02*
D03*
X-2025001Y1869999D02*
D03*
X-2010001Y1839999D02*
D03*
X-2025001Y1809999D02*
D03*
Y1749999D02*
D03*
X-2055001Y1869999D02*
D03*
X-2040001Y1839999D02*
D03*
X-2055001Y1809999D02*
D03*
Y1749999D02*
D03*
X-2085001Y1869999D02*
D03*
X-2070001Y1839999D02*
D03*
X-2115001Y1869999D02*
D03*
X-2100001Y1839999D02*
D03*
X-2145001Y1869999D02*
D03*
X-2130001Y1839999D02*
D03*
Y1779999D02*
D03*
X-2175001Y1869999D02*
D03*
X-2160001Y1839999D02*
D03*
Y1779999D02*
D03*
X-2205001Y1869999D02*
D03*
X-2190001Y1839999D02*
D03*
Y1779999D02*
D03*
X-2235001Y1869999D02*
D03*
X-2220001Y1839999D02*
D03*
Y1779999D02*
D03*
Y1719999D02*
D03*
X-2265001Y1869999D02*
D03*
X-2250001Y1839999D02*
D03*
Y1779999D02*
D03*
Y1719999D02*
D03*
X-2295001Y1869999D02*
D03*
X-2280001Y1839999D02*
D03*
Y1779999D02*
D03*
Y1719999D02*
D03*
X-2325001Y1869999D02*
D03*
X-2310001Y1839999D02*
D03*
Y1779999D02*
D03*
Y1719999D02*
D03*
X-2355001Y1869999D02*
D03*
X-2340001Y1839999D02*
D03*
Y1779999D02*
D03*
Y1719999D02*
D03*
X-2385001Y1869999D02*
D03*
X-2370001Y1839999D02*
D03*
Y1779999D02*
D03*
Y1719999D02*
D03*
X-2415001Y1869999D02*
D03*
X-2400001Y1839999D02*
D03*
X-2415001Y1809999D02*
D03*
X-2400001Y1779999D02*
D03*
Y1719999D02*
D03*
X-2445001Y1869999D02*
D03*
X-2430001Y1839999D02*
D03*
X-2445001Y1809999D02*
D03*
X-2430001Y1779999D02*
D03*
Y1719999D02*
D03*
X-2475001Y1869999D02*
D03*
X-2460001Y1839999D02*
D03*
X-2475001Y1809999D02*
D03*
X-2460001Y1779999D02*
D03*
Y1719999D02*
D03*
X-2505001Y1869999D02*
D03*
X-2490001Y1839999D02*
D03*
X-2505001Y1809999D02*
D03*
X-2490001Y1779999D02*
D03*
Y1719999D02*
D03*
X-2535001Y1869999D02*
D03*
X-2520001Y1839999D02*
D03*
Y1779999D02*
D03*
Y1719999D02*
D03*
X-2565001Y1869999D02*
D03*
X-2550001Y1839999D02*
D03*
Y1719999D02*
D03*
X-2595001Y1869999D02*
D03*
X-2580001Y1839999D02*
D03*
X-2595001Y1809999D02*
D03*
X-2580001Y1719999D02*
D03*
X-2625001Y1869999D02*
D03*
X-2610001Y1839999D02*
D03*
X-2625001Y1809999D02*
D03*
X-2610001Y1779999D02*
D03*
Y1719999D02*
D03*
X-2655001Y1869999D02*
D03*
X-2640001Y1839999D02*
D03*
Y1779999D02*
D03*
Y1719999D02*
D03*
X-2685001Y1869999D02*
D03*
X-2670001Y1839999D02*
D03*
Y1719999D02*
D03*
X-2715001Y1869999D02*
D03*
X-2700001Y1839999D02*
D03*
X-2715001Y1809999D02*
D03*
Y1749999D02*
D03*
X-2700001Y1719999D02*
D03*
X-2730001Y1839999D02*
D03*
X-2745001Y1809999D02*
D03*
X-2730001Y1779999D02*
D03*
X-2745001Y1749999D02*
D03*
X-2730001Y1719999D02*
D03*
X-2760001Y1839999D02*
D03*
X-2775001Y1809999D02*
D03*
X-2760001Y1779999D02*
D03*
X35000Y212500D02*
D03*
X25000Y187500D02*
D03*
X-62003Y607886D02*
D03*
X-1751760Y1781857D02*
D03*
X-2659590Y1734283D02*
D03*
X-1764711Y1702744D02*
D03*
X-1792649Y1717558D02*
D03*
X-2690377Y1741510D02*
D03*
X-1022408Y1465634D02*
D03*
X-998107Y1447347D02*
D03*
X-427602Y1035477D02*
D03*
X-410206Y1010529D02*
D03*
X-1773799Y1739836D02*
D03*
X-997597Y1480997D02*
D03*
X-1010500Y1510167D02*
D03*
X30000Y200000D02*
D03*
X14760Y125000D02*
D03*
X-15000Y95000D02*
D03*
X-30000Y95000D02*
D03*
Y102500D02*
D03*
Y110000D02*
D03*
Y117500D02*
D03*
Y125000D02*
D03*
Y132500D02*
D03*
Y140000D02*
D03*
X-2097855Y1814427D02*
D03*
X-2063341Y1800540D02*
D03*
X-1519936Y1723840D02*
D03*
X-1490179Y1701510D02*
D03*
X-1258018Y1638634D02*
D03*
X-1229115Y1615210D02*
D03*
X-783023Y1400158D02*
D03*
X-761603Y1369741D02*
D03*
X-580198Y1254215D02*
D03*
X-559636Y1223211D02*
D03*
X-2366485Y1809218D02*
D03*
X-2401256Y1822448D02*
D03*
X-191576Y823300D02*
D03*
X-198882Y859778D02*
D03*
X-58506Y570848D02*
D03*
X-2704433Y1785412D02*
D03*
X-2667174Y1814090D02*
D03*
X-2677808Y1767847D02*
D03*
X-2705571Y1797860D02*
D03*
X-1795085Y1763591D02*
D03*
X-1793022Y1775920D02*
D03*
X-1004728Y1521255D02*
D03*
X-963651Y1514151D02*
D03*
X-356655Y1063277D02*
D03*
X-402414Y1074084D02*
D03*
X-399240Y1042346D02*
D03*
X-393475Y1082822D02*
D03*
D91*
X-324103Y956468D02*
D03*
X-302853Y942270D02*
D03*
X-281604Y974071D02*
D03*
X-294052Y944020D02*
D03*
X-294051Y986519D02*
D03*
X-311655Y944021D02*
D03*
X-281604Y956468D02*
D03*
X-319116Y949007D02*
D03*
X-286589Y949006D02*
D03*
X-286589Y981533D02*
D03*
X-279853Y965270D02*
D03*
X-302852Y988270D02*
D03*
X-325853Y965270D02*
D03*
X-311655Y986519D02*
D03*
X-324102Y974072D02*
D03*
X-319116Y981534D02*
D03*
X-505440Y1142559D02*
D03*
X-484190Y1128361D02*
D03*
X-462941Y1160162D02*
D03*
X-475389Y1130111D02*
D03*
X-475388Y1172610D02*
D03*
X-492992Y1130112D02*
D03*
X-462941Y1142559D02*
D03*
X-500453Y1135098D02*
D03*
X-467926Y1135097D02*
D03*
X-467926Y1167624D02*
D03*
X-461190Y1151360D02*
D03*
X-484190Y1174361D02*
D03*
X-507190Y1151361D02*
D03*
X-492992Y1172610D02*
D03*
X-505439Y1160163D02*
D03*
X-500453Y1167625D02*
D03*
X-902508Y1430292D02*
D03*
X-881258Y1416094D02*
D03*
X-860009Y1447896D02*
D03*
X-872457Y1417845D02*
D03*
X-872457Y1460343D02*
D03*
X-890061Y1417845D02*
D03*
X-860009Y1430292D02*
D03*
X-897522Y1422831D02*
D03*
X-864995Y1422831D02*
D03*
X-864995Y1455357D02*
D03*
X-858258Y1439094D02*
D03*
X-881258Y1462094D02*
D03*
X-904258Y1439094D02*
D03*
X-890060Y1460343D02*
D03*
X-902508Y1447896D02*
D03*
X-897522Y1455358D02*
D03*
X-1133046Y1550323D02*
D03*
X-1111796Y1536124D02*
D03*
X-1090547Y1567926D02*
D03*
X-1102995Y1537875D02*
D03*
X-1102994Y1580374D02*
D03*
X-1120598Y1537875D02*
D03*
X-1090547Y1550323D02*
D03*
X-1128060Y1542861D02*
D03*
X-1095533Y1542861D02*
D03*
X-1095532Y1575388D02*
D03*
X-1088796Y1559124D02*
D03*
X-1111796Y1582125D02*
D03*
X-1134796Y1559125D02*
D03*
X-1120598Y1580374D02*
D03*
X-1133046Y1567926D02*
D03*
X-1128059Y1575388D02*
D03*
X-1671405Y1727396D02*
D03*
X-1650155Y1713198D02*
D03*
X-1628906Y1744999D02*
D03*
X-1641354Y1714948D02*
D03*
X-1641353Y1757447D02*
D03*
X-1658958Y1714948D02*
D03*
X-1628906Y1727396D02*
D03*
X-1666419Y1719935D02*
D03*
X-1633892Y1719934D02*
D03*
X-1633891Y1752461D02*
D03*
X-1627155Y1736197D02*
D03*
X-1650155Y1759198D02*
D03*
X-1673155Y1736198D02*
D03*
X-1658957Y1757447D02*
D03*
X-1671405Y1744999D02*
D03*
X-1666419Y1752461D02*
D03*
X-1927702Y1770737D02*
D03*
X-1906453Y1756539D02*
D03*
X-1885204Y1788341D02*
D03*
X-1897652Y1758290D02*
D03*
X-1897651Y1800788D02*
D03*
X-1915255Y1758290D02*
D03*
X-1885204Y1770737D02*
D03*
X-1922717Y1763276D02*
D03*
X-1890189Y1763276D02*
D03*
X-1890189Y1795803D02*
D03*
X-1883453Y1779539D02*
D03*
X-1906453Y1802539D02*
D03*
X-1929453Y1779539D02*
D03*
X-1915255Y1800789D02*
D03*
X-1927702Y1788341D02*
D03*
X-1922716Y1795803D02*
D03*
X-2578631Y1788022D02*
D03*
X-2557381Y1773824D02*
D03*
X-2536132Y1805626D02*
D03*
X-2548580Y1775575D02*
D03*
X-2548580Y1818073D02*
D03*
X-2566183Y1775575D02*
D03*
X-2536132Y1788022D02*
D03*
X-2573645Y1780561D02*
D03*
X-2541118Y1780560D02*
D03*
X-2541118Y1813087D02*
D03*
X-2534381Y1796824D02*
D03*
X-2557381Y1819824D02*
D03*
X-2580381Y1796824D02*
D03*
X-2566183Y1818073D02*
D03*
X-2578631Y1805626D02*
D03*
X-2573645Y1813088D02*
D03*
D92*
X50000Y77500D02*
X60000Y87500D01*
X-20000Y77500D02*
X50000D01*
X60000Y87500D02*
Y227500D01*
X12500Y275000D02*
X60000Y227500D01*
X12500Y275000D02*
Y436139D01*
X-30000Y87500D02*
Y102500D01*
Y87500D02*
X-20000Y77500D01*
X-30000Y132500D02*
Y140000D01*
Y125000D02*
Y132500D01*
Y117500D02*
Y125000D01*
Y110000D02*
Y117500D01*
Y102500D02*
Y110000D01*
X-58506Y570848D02*
X12500Y436139D01*
X-242500Y910406D02*
X-191660Y823444D01*
X-191576Y823300D01*
X-58506Y570848D01*
X-535920Y1206006D02*
X-442513Y1212678D01*
X-559636Y1223211D02*
X-535920Y1206006D01*
X-242500Y910406D02*
Y1011869D01*
X-442595Y1212595D02*
X-242942Y1012942D01*
X-806300Y1400616D02*
X-761675Y1369791D01*
X-761603Y1369741D01*
X-559636Y1223211D01*
X-1172335Y1596440D02*
X-1091776Y1629374D01*
X-1229115Y1615210D02*
X-1172335Y1596440D01*
X-839359Y1501461D02*
X-806300Y1400616D01*
X-1091829Y1629270D02*
X-839359Y1501461D01*
X-1490179Y1701510D02*
X-1229115Y1615210D01*
X-1570159Y1726792D02*
X-1490179Y1701510D01*
X-1972916Y1797952D02*
X-1909220Y1851847D01*
X-2063341Y1800540D02*
X-1972916Y1797952D01*
X-1629257Y1807687D02*
X-1570159Y1726792D01*
X-1909238Y1851732D02*
X-1630247Y1808293D01*
X-2366485Y1809218D02*
X-2063341Y1800540D01*
M02*
