G04*
G04 #@! TF.GenerationSoftware,Altium Limited,Altium Designer,22.2.1 (43)*
G04*
G04 Layer_Physical_Order=3*
G04 Layer_Color=16440176*
%FSLAX44Y44*%
%MOMM*%
G71*
G04*
G04 #@! TF.SameCoordinates,2D810589-119A-40C1-8923-BCE66BF163E0*
G04*
G04*
G04 #@! TF.FilePolarity,Positive*
G04*
G01*
G75*
%ADD10C,0.2540*%
%ADD15C,0.1524*%
%ADD107C,0.3810*%
%ADD108C,0.5080*%
%ADD109C,0.6350*%
%ADD112O,2.2000X1.0500*%
%ADD113O,0.6500X0.8500*%
G04:AMPARAMS|DCode=114|XSize=1.7mm|YSize=2.2mm|CornerRadius=0mm|HoleSize=0mm|Usage=FLASHONLY|Rotation=202.500|XOffset=0mm|YOffset=0mm|HoleType=Round|Shape=Rectangle|*
%AMROTATEDRECTD114*
4,1,4,0.3644,1.3416,1.2063,-0.6910,-0.3644,-1.3416,-1.2063,0.6910,0.3644,1.3416,0.0*
%
%ADD114ROTATEDRECTD114*%

%ADD117O,2.2000X2.2000*%
%ADD120C,1.0000*%
%ADD121O,2.1000X1.5000*%
%ADD123C,1.4000*%
%ADD124C,1.6000*%
%ADD125R,1.6000X1.6000*%
%ADD126C,0.5500*%
G36*
X-148249Y-327714D02*
X-147062Y-327950D01*
X-146003Y-328389D01*
X-144996Y-329061D01*
X-144570Y-329447D01*
X-133259Y-340759D01*
X-132410Y-341608D01*
X-132197Y-341750D01*
X-132017Y-341930D01*
X-131698Y-342143D01*
X-87339Y-386468D01*
X-87053Y-386609D01*
X-82831Y-390831D01*
X-81999Y-391664D01*
X-81787Y-391805D01*
X-81607Y-391986D01*
X-79649Y-393293D01*
X-79414Y-393391D01*
X-79202Y-393533D01*
X-77027Y-394433D01*
X-76777Y-394483D01*
X-76541Y-394581D01*
X-74232Y-395040D01*
X-73977D01*
X-73727Y-395090D01*
X-52893D01*
X-51676Y-395250D01*
X362250D01*
Y-435530D01*
X361811Y-437735D01*
X360790Y-440201D01*
X359272Y-442473D01*
X358480Y-443347D01*
X347181Y-452189D01*
X333729Y-462154D01*
X326013Y-467630D01*
X313819Y-476091D01*
X301635Y-483799D01*
X290178Y-490773D01*
X280722Y-496247D01*
X269522Y-502470D01*
X263802Y-505454D01*
X263723Y-505518D01*
X263627Y-505554D01*
X261627Y-506804D01*
X261413Y-507005D01*
X261169Y-507169D01*
X259919Y-508419D01*
X259853Y-508517D01*
X259760Y-508592D01*
X258510Y-510092D01*
X258394Y-510306D01*
X258236Y-510492D01*
X257832Y-511219D01*
D01*
D01*
X256986Y-512742D01*
X256895Y-513025D01*
X256760Y-513288D01*
X256260Y-515038D01*
X256245Y-515216D01*
X256186Y-515384D01*
X255936Y-517134D01*
X255946Y-517318D01*
X255910Y-517500D01*
Y-518750D01*
X255933Y-518866D01*
X255921Y-518984D01*
X256171Y-521735D01*
X256245Y-521984D01*
X256269Y-522244D01*
X257020Y-524744D01*
X257124Y-524942D01*
X257184Y-525158D01*
X257934Y-526658D01*
X258136Y-526919D01*
X258301Y-527205D01*
X260051Y-529205D01*
X260234Y-529346D01*
X260382Y-529522D01*
X262882Y-531522D01*
X263125Y-531648D01*
X263342Y-531816D01*
X264842Y-532566D01*
X264974Y-532603D01*
X265091Y-532675D01*
X265843Y-532957D01*
X267912Y-535716D01*
X267632Y-536955D01*
X263250Y-539250D01*
X243468Y-548587D01*
X208750Y-562500D01*
X192000Y-568500D01*
X173750Y-574500D01*
X153250Y-580000D01*
X134000Y-585000D01*
X113250Y-589250D01*
X95677Y-592337D01*
X94672Y-591562D01*
X94480Y-589260D01*
X95572Y-587804D01*
X95673Y-587593D01*
X95816Y-587408D01*
X97066Y-584908D01*
X97126Y-584692D01*
X97231Y-584494D01*
X97981Y-581994D01*
X98003Y-581760D01*
X98074Y-581536D01*
X98324Y-579286D01*
X98288Y-578863D01*
X98278Y-578438D01*
X97278Y-573938D01*
X97111Y-573558D01*
X96971Y-573168D01*
X95471Y-570668D01*
X95315Y-570496D01*
X95199Y-570295D01*
X93449Y-568295D01*
X93287Y-568170D01*
X93158Y-568010D01*
X91658Y-566760D01*
X91395Y-566617D01*
X91158Y-566434D01*
X89628Y-565669D01*
X89158Y-565434D01*
X89069Y-565409D01*
D01*
X88980Y-565385D01*
X88819Y-565293D01*
X88819Y-565293D01*
X86569Y-564543D01*
X86297Y-564509D01*
X86036Y-564426D01*
X83786Y-564176D01*
X83500Y-564201D01*
X83214Y-564176D01*
X80964Y-564426D01*
X80947Y-564431D01*
X80929Y-564430D01*
X72929Y-565430D01*
X62711Y-566676D01*
X53000Y-567672D01*
X44766Y-568421D01*
X44672Y-568448D01*
X44574Y-568446D01*
X42515Y-568789D01*
X42500Y-568750D01*
X9295Y-570689D01*
X8621Y-570015D01*
X5419Y-568167D01*
X1848Y-567210D01*
X-1848D01*
X-5419Y-568167D01*
X-8621Y-570015D01*
X-9269Y-570664D01*
X-42852Y-568758D01*
X-44537Y-568452D01*
X-44660Y-568454D01*
X-44779Y-568420D01*
X-53510Y-567671D01*
X-63464Y-566676D01*
X-75655Y-565183D01*
X-87582Y-563444D01*
X-98537Y-561452D01*
X-98566Y-561452D01*
X-98593Y-561442D01*
X-109584Y-559694D01*
X-112359Y-559231D01*
X-129583Y-556283D01*
X-129710Y-556052D01*
Y-553948D01*
X-130515Y-552004D01*
X-132003Y-550515D01*
X-133948Y-549710D01*
X-136052D01*
X-137997Y-550515D01*
X-138750Y-551269D01*
X-139503Y-550515D01*
X-141448Y-549710D01*
X-143552D01*
X-145497Y-550515D01*
X-146250Y-551269D01*
X-147003Y-550515D01*
X-148948Y-549710D01*
X-151052D01*
X-152997Y-550515D01*
X-153967Y-550370D01*
X-155370Y-548966D01*
X-157090Y-547974D01*
X-159007Y-547460D01*
X-160993D01*
X-162910Y-547974D01*
X-163645Y-548398D01*
X-171000Y-546500D01*
X-205250Y-532750D01*
X-242398Y-516050D01*
X-283079Y-495332D01*
X-286495Y-492893D01*
X-286594Y-492848D01*
X-286675Y-492775D01*
X-297154Y-486538D01*
X-308355Y-479568D01*
X-317063Y-473846D01*
X-324763Y-468629D01*
X-334730Y-461403D01*
X-334736Y-461400D01*
X-334740Y-461396D01*
X-346017Y-453306D01*
X-346772Y-452473D01*
X-348290Y-450201D01*
X-349311Y-447735D01*
X-349845Y-445054D01*
X-349910Y-443719D01*
Y-393813D01*
X-349885Y-393299D01*
X-349672Y-392228D01*
X-349278Y-391278D01*
X-348672Y-390370D01*
X-348326Y-389988D01*
X-336669Y-378331D01*
X-336669Y-378331D01*
X-335837Y-377499D01*
X-335695Y-377287D01*
X-335514Y-377107D01*
X-335364Y-376882D01*
X-300523Y-341957D01*
X-300483Y-341930D01*
X-300303Y-341750D01*
X-300091Y-341608D01*
X-299241Y-340759D01*
X-287929Y-329447D01*
X-287504Y-329061D01*
X-286497Y-328389D01*
X-285438Y-327950D01*
X-284251Y-327714D01*
X-283678Y-327686D01*
X-148822D01*
X-148249Y-327714D01*
D02*
G37*
G36*
X26553Y743462D02*
X53072Y742040D01*
X79523Y739673D01*
X105873Y736363D01*
X132088Y732115D01*
X158135Y726934D01*
X183980Y720827D01*
X209591Y713801D01*
X234935Y705865D01*
X259979Y697030D01*
X284692Y687307D01*
X309042Y676708D01*
X332998Y665246D01*
X356530Y652937D01*
X379608Y639795D01*
X402202Y625838D01*
X424283Y611084D01*
X445824Y595551D01*
X466796Y579259D01*
X487174Y562229D01*
X506931Y544482D01*
X526042Y526042D01*
X544482Y506931D01*
X562229Y487174D01*
X579259Y466796D01*
X595551Y445824D01*
X611084Y424283D01*
X625838Y402202D01*
X639795Y379608D01*
X652937Y356530D01*
X665246Y332998D01*
X676708Y309042D01*
X687307Y284692D01*
X697030Y259979D01*
X705865Y234935D01*
X713801Y209591D01*
X720827Y183980D01*
X726934Y158135D01*
X732115Y132088D01*
X736363Y105873D01*
X739673Y79523D01*
X742040Y53072D01*
X743462Y26553D01*
X743935Y0D01*
X743462Y-26553D01*
X742040Y-53072D01*
X739673Y-79523D01*
X736363Y-105873D01*
X732115Y-132088D01*
X726934Y-158135D01*
X720827Y-183980D01*
X713801Y-209591D01*
X705865Y-234935D01*
X697030Y-259979D01*
X687307Y-284692D01*
X676708Y-309042D01*
X665246Y-332998D01*
X652937Y-356530D01*
X639795Y-379608D01*
X625838Y-402202D01*
X611084Y-424283D01*
X595551Y-445824D01*
X579259Y-466796D01*
X562229Y-487174D01*
X544482Y-506931D01*
X526042Y-526042D01*
X506931Y-544482D01*
X487174Y-562229D01*
X466796Y-579259D01*
X445824Y-595551D01*
X424283Y-611084D01*
X402202Y-625838D01*
X379608Y-639795D01*
X356530Y-652937D01*
X332998Y-665246D01*
X309042Y-676708D01*
X284692Y-687307D01*
X259979Y-697030D01*
X234935Y-705865D01*
X209591Y-713801D01*
X183980Y-720827D01*
X158135Y-726934D01*
X132088Y-732115D01*
X105873Y-736363D01*
X79523Y-739673D01*
X53072Y-742040D01*
X26553Y-743462D01*
X906Y-743919D01*
X0Y-743029D01*
Y-741876D01*
Y-698640D01*
X2328Y-698640D01*
X6895Y-697731D01*
X11198Y-695949D01*
X15070Y-693362D01*
X18362Y-690070D01*
X20949Y-686198D01*
X22731Y-681895D01*
X23640Y-677328D01*
Y-672672D01*
X22731Y-668104D01*
X20949Y-663802D01*
X18362Y-659930D01*
X15070Y-656637D01*
X11198Y-654050D01*
X6895Y-652268D01*
X2328Y-651360D01*
X0Y-651360D01*
Y-620000D01*
X12175D01*
X36507Y-619044D01*
X60782Y-617133D01*
X84964Y-614271D01*
X109015Y-610462D01*
X132897Y-605712D01*
X156575Y-600027D01*
X180011Y-593417D01*
X203170Y-585893D01*
X226015Y-577465D01*
X248512Y-568146D01*
X270626Y-557952D01*
X292322Y-546897D01*
X313568Y-534999D01*
X334330Y-522275D01*
X354577Y-508747D01*
X374277Y-494434D01*
X392684Y-479923D01*
X392684Y-455168D01*
X392684Y-447548D01*
X392684Y-389890D01*
X392684Y-389890D01*
X392684Y-389890D01*
X392563Y-387425D01*
X391601Y-382590D01*
X389715Y-378036D01*
X386976Y-373937D01*
X383491Y-370452D01*
X379392Y-367713D01*
X374837Y-365826D01*
X370003Y-364865D01*
X367538Y-364744D01*
X359410Y-364744D01*
X-33128D01*
X-33469Y-363474D01*
X-31321Y-362234D01*
X-29266Y-360179D01*
X-27812Y-357661D01*
X-27060Y-354853D01*
Y-351947D01*
X-27812Y-349139D01*
X-29266Y-346621D01*
X-31321Y-344566D01*
X-33839Y-343112D01*
X-36647Y-342360D01*
X-39553D01*
X-42361Y-343112D01*
X-44879Y-344566D01*
X-46934Y-346621D01*
X-48388Y-349139D01*
X-49140Y-351947D01*
Y-354853D01*
X-48388Y-357661D01*
X-46934Y-360179D01*
X-44879Y-362234D01*
X-42731Y-363474D01*
X-43072Y-364744D01*
X-64910D01*
X-65272Y-364672D01*
X-66222Y-364278D01*
X-67076Y-363708D01*
X-126492Y-304292D01*
X-129537Y-301801D01*
X-129636Y-301702D01*
X-129636Y-301702D01*
X-130476Y-300862D01*
X-130688Y-300720D01*
X-130868Y-300540D01*
X-132013Y-299775D01*
X-132080Y-299720D01*
X-132094Y-299720D01*
X-132844Y-299220D01*
X-133080Y-299122D01*
X-133292Y-298980D01*
X-135487Y-298071D01*
X-135737Y-298021D01*
X-135973Y-297924D01*
X-138303Y-297460D01*
X-138558D01*
X-138809Y-297410D01*
X-293692D01*
X-293942Y-297460D01*
X-294197D01*
X-296527Y-297924D01*
X-296763Y-298021D01*
X-297013Y-298071D01*
X-299208Y-298980D01*
X-299421Y-299122D01*
X-299656Y-299220D01*
X-301632Y-300540D01*
X-301714Y-300622D01*
X-304711Y-302597D01*
X-363801Y-362638D01*
X-375831Y-374669D01*
X-375831Y-374669D01*
X-376664Y-375501D01*
X-376805Y-375713D01*
X-376986Y-375894D01*
X-378293Y-377851D01*
X-378391Y-378086D01*
X-378533Y-378298D01*
X-379433Y-380473D01*
X-379483Y-380723D01*
X-379581Y-380959D01*
X-380040Y-383268D01*
Y-383523D01*
X-380090Y-383773D01*
Y-384950D01*
Y-457500D01*
Y-458689D01*
X-380040Y-458939D01*
Y-459194D01*
X-379984Y-459476D01*
Y-461264D01*
Y-489935D01*
X-374277Y-494434D01*
X-354577Y-508747D01*
X-334330Y-522275D01*
X-313568Y-534999D01*
X-292322Y-546897D01*
X-270626Y-557952D01*
X-248512Y-568146D01*
X-226015Y-577465D01*
X-203170Y-585893D01*
X-180011Y-593417D01*
X-156575Y-600027D01*
X-132897Y-605712D01*
X-109015Y-610462D01*
X-84964Y-614271D01*
X-60782Y-617133D01*
X-36507Y-619044D01*
X-12175Y-620000D01*
X-0Y-620000D01*
Y-651360D01*
X-2328Y-651360D01*
X-6895Y-652268D01*
X-11198Y-654050D01*
X-15070Y-656637D01*
X-18362Y-659930D01*
X-20949Y-663802D01*
X-22731Y-668104D01*
X-23640Y-672672D01*
Y-677328D01*
X-22731Y-681895D01*
X-20949Y-686198D01*
X-18362Y-690070D01*
X-15070Y-693362D01*
X-11198Y-695949D01*
X-6895Y-697731D01*
X-2328Y-698640D01*
X-0Y-698640D01*
Y-740725D01*
Y-741877D01*
X-84Y-743111D01*
X-906Y-743919D01*
X-26553Y-743462D01*
X-53072Y-742040D01*
X-79523Y-739673D01*
X-105873Y-736363D01*
X-132088Y-732115D01*
X-158135Y-726934D01*
X-183980Y-720827D01*
X-209591Y-713801D01*
X-234935Y-705865D01*
X-259979Y-697030D01*
X-284692Y-687307D01*
X-309042Y-676708D01*
X-332998Y-665246D01*
X-356530Y-652937D01*
X-379608Y-639795D01*
X-402202Y-625838D01*
X-424283Y-611084D01*
X-445824Y-595551D01*
X-466796Y-579259D01*
X-487174Y-562229D01*
X-506931Y-544482D01*
X-526042Y-526042D01*
X-544482Y-506931D01*
X-562229Y-487174D01*
X-579259Y-466796D01*
X-595551Y-445824D01*
X-611084Y-424283D01*
X-625838Y-402202D01*
X-639795Y-379608D01*
X-652937Y-356530D01*
X-665246Y-332998D01*
X-676708Y-309042D01*
X-687307Y-284692D01*
X-697030Y-259979D01*
X-705865Y-234935D01*
X-713801Y-209591D01*
X-720827Y-183980D01*
X-726934Y-158135D01*
X-732115Y-132088D01*
X-736363Y-105873D01*
X-739673Y-79523D01*
X-742040Y-53072D01*
X-743462Y-26553D01*
X-743935Y0D01*
X-743462Y26553D01*
X-742040Y53072D01*
X-739673Y79523D01*
X-736363Y105873D01*
X-732115Y132088D01*
X-726934Y158135D01*
X-720827Y183980D01*
X-713801Y209591D01*
X-705865Y234935D01*
X-697030Y259979D01*
X-687307Y284692D01*
X-676708Y309042D01*
X-665246Y332998D01*
X-652937Y356530D01*
X-639795Y379608D01*
X-625838Y402202D01*
X-611084Y424283D01*
X-595551Y445824D01*
X-579259Y466796D01*
X-562229Y487174D01*
X-544482Y506931D01*
X-526042Y526042D01*
X-506931Y544482D01*
X-487174Y562229D01*
X-466796Y579259D01*
X-445824Y595551D01*
X-424283Y611084D01*
X-402202Y625838D01*
X-379608Y639795D01*
X-356530Y652937D01*
X-332998Y665246D01*
X-309042Y676708D01*
X-284692Y687307D01*
X-259979Y697030D01*
X-234935Y705865D01*
X-209591Y713801D01*
X-183980Y720827D01*
X-158135Y726934D01*
X-132088Y732115D01*
X-105873Y736363D01*
X-79523Y739673D01*
X-53072Y742040D01*
X-26553Y743462D01*
X0Y743935D01*
X26553Y743462D01*
D02*
G37*
%LPC*%
G36*
X-156998Y-363310D02*
X-159102D01*
X-161047Y-364115D01*
X-162535Y-365603D01*
X-163340Y-367548D01*
Y-369652D01*
X-162535Y-371596D01*
X-161047Y-373084D01*
X-159102Y-373890D01*
X-156998D01*
X-155054Y-373084D01*
X-153566Y-371596D01*
X-152760Y-369652D01*
Y-367548D01*
X-153566Y-365603D01*
X-155054Y-364115D01*
X-156998Y-363310D01*
D02*
G37*
G36*
X-182398D02*
X-184502D01*
X-186447Y-364115D01*
X-187935Y-365603D01*
X-188740Y-367548D01*
Y-369652D01*
X-187935Y-371596D01*
X-186447Y-373084D01*
X-184502Y-373890D01*
X-182398D01*
X-180454Y-373084D01*
X-178965Y-371596D01*
X-178160Y-369652D01*
Y-367548D01*
X-178965Y-365603D01*
X-180454Y-364115D01*
X-182398Y-363310D01*
D02*
G37*
G36*
X-220498D02*
X-222602D01*
X-224547Y-364115D01*
X-226035Y-365603D01*
X-226840Y-367548D01*
Y-369652D01*
X-226035Y-371596D01*
X-224547Y-373084D01*
X-222602Y-373890D01*
X-220498D01*
X-218554Y-373084D01*
X-217066Y-371596D01*
X-216260Y-369652D01*
Y-367548D01*
X-217066Y-365603D01*
X-218554Y-364115D01*
X-220498Y-363310D01*
D02*
G37*
G36*
X-245898D02*
X-248002D01*
X-249947Y-364115D01*
X-251435Y-365603D01*
X-252240Y-367548D01*
Y-369652D01*
X-251435Y-371596D01*
X-249947Y-373084D01*
X-248002Y-373890D01*
X-245898D01*
X-243954Y-373084D01*
X-242465Y-371596D01*
X-241660Y-369652D01*
Y-367548D01*
X-242465Y-365603D01*
X-243954Y-364115D01*
X-245898Y-363310D01*
D02*
G37*
G36*
X-281448Y-375710D02*
X-283552D01*
X-285497Y-376515D01*
X-286250Y-377269D01*
X-287003Y-376515D01*
X-288948Y-375710D01*
X-291052D01*
X-292997Y-376515D01*
X-293750Y-377269D01*
X-294503Y-376515D01*
X-296448Y-375710D01*
X-298552D01*
X-300497Y-376515D01*
X-301985Y-378003D01*
X-302790Y-379948D01*
Y-382052D01*
X-301985Y-383997D01*
X-300497Y-385485D01*
X-298552Y-386290D01*
X-296448D01*
X-294503Y-385485D01*
X-293750Y-384731D01*
X-292997Y-385485D01*
X-291052Y-386290D01*
X-288948D01*
X-287003Y-385485D01*
X-286250Y-384731D01*
X-285497Y-385485D01*
X-283552Y-386290D01*
X-281448D01*
X-279503Y-385485D01*
X-278015Y-383997D01*
X-277210Y-382052D01*
Y-379948D01*
X-278015Y-378003D01*
X-279503Y-376515D01*
X-281448Y-375710D01*
D02*
G37*
G36*
X-230948Y-402210D02*
X-233052D01*
X-234996Y-403015D01*
X-236485Y-404504D01*
X-237290Y-406448D01*
Y-408552D01*
X-236485Y-410496D01*
X-234996Y-411985D01*
X-233052Y-412790D01*
X-230948D01*
X-229004Y-411985D01*
X-227515Y-410496D01*
X-226710Y-408552D01*
Y-406448D01*
X-227515Y-404504D01*
X-229004Y-403015D01*
X-230948Y-402210D01*
D02*
G37*
G36*
X288493Y-417460D02*
X286507D01*
X284590Y-417974D01*
X282870Y-418966D01*
X281467Y-420370D01*
X280474Y-422090D01*
X279960Y-424007D01*
Y-425993D01*
X280474Y-427910D01*
X281467Y-429630D01*
X282870Y-431034D01*
X284590Y-432026D01*
X286507Y-432540D01*
X288493D01*
X290410Y-432026D01*
X292130Y-431034D01*
X293533Y-429630D01*
X294526Y-427910D01*
X295040Y-425993D01*
Y-424007D01*
X294526Y-422090D01*
X293533Y-420370D01*
X292130Y-418966D01*
X290410Y-417974D01*
X288493Y-417460D01*
D02*
G37*
G36*
X-109402Y-415560D02*
X-113098D01*
X-116669Y-416517D01*
X-119871Y-418365D01*
X-122485Y-420979D01*
X-124333Y-424181D01*
X-125290Y-427752D01*
Y-431448D01*
X-124333Y-435019D01*
X-122485Y-438221D01*
X-119871Y-440835D01*
X-116669Y-442683D01*
X-113098Y-443640D01*
X-109402D01*
X-105831Y-442683D01*
X-102629Y-440835D01*
X-100015Y-438221D01*
X-98167Y-435019D01*
X-97210Y-431448D01*
Y-427752D01*
X-98167Y-424181D01*
X-100015Y-420979D01*
X-102629Y-418365D01*
X-105831Y-416517D01*
X-109402Y-415560D01*
D02*
G37*
G36*
X318552Y-439710D02*
X316448D01*
X314503Y-440515D01*
X313015Y-442004D01*
X312210Y-443948D01*
Y-446052D01*
X313015Y-447996D01*
X314503Y-449485D01*
X316448Y-450290D01*
X318552D01*
X320496Y-449485D01*
X321985Y-447996D01*
X322790Y-446052D01*
Y-443948D01*
X321985Y-442004D01*
X320496Y-440515D01*
X318552Y-439710D01*
D02*
G37*
G36*
X33203Y-431260D02*
X30297D01*
X27489Y-432012D01*
X24971Y-433466D01*
X22916Y-435521D01*
X21462Y-438039D01*
X20710Y-440847D01*
Y-443753D01*
X21462Y-446561D01*
X22916Y-449079D01*
X24971Y-451134D01*
X27489Y-452588D01*
X30297Y-453340D01*
X33203D01*
X36011Y-452588D01*
X38529Y-451134D01*
X40584Y-449079D01*
X42038Y-446561D01*
X42790Y-443753D01*
Y-440847D01*
X42038Y-438039D01*
X40584Y-435521D01*
X38529Y-433466D01*
X36011Y-432012D01*
X33203Y-431260D01*
D02*
G37*
G36*
X7803D02*
X4897D01*
X2089Y-432012D01*
X-429Y-433466D01*
X-2484Y-435521D01*
X-3938Y-438039D01*
X-4690Y-440847D01*
Y-443753D01*
X-3938Y-446561D01*
X-2484Y-449079D01*
X-429Y-451134D01*
X2089Y-452588D01*
X4897Y-453340D01*
X7803D01*
X10611Y-452588D01*
X13129Y-451134D01*
X15184Y-449079D01*
X16638Y-446561D01*
X17390Y-443753D01*
Y-440847D01*
X16638Y-438039D01*
X15184Y-435521D01*
X13129Y-433466D01*
X10611Y-432012D01*
X7803Y-431260D01*
D02*
G37*
G36*
X-17597D02*
X-20503D01*
X-23311Y-432012D01*
X-25829Y-433466D01*
X-27884Y-435521D01*
X-29338Y-438039D01*
X-30090Y-440847D01*
Y-443753D01*
X-29338Y-446561D01*
X-27884Y-449079D01*
X-25829Y-451134D01*
X-23311Y-452588D01*
X-20503Y-453340D01*
X-17597D01*
X-14789Y-452588D01*
X-12271Y-451134D01*
X-10216Y-449079D01*
X-8762Y-446561D01*
X-8010Y-443753D01*
Y-440847D01*
X-8762Y-438039D01*
X-10216Y-435521D01*
X-12271Y-433466D01*
X-14789Y-432012D01*
X-17597Y-431260D01*
D02*
G37*
G36*
X-42997D02*
X-45903D01*
X-48711Y-432012D01*
X-51229Y-433466D01*
X-53284Y-435521D01*
X-54738Y-438039D01*
X-55490Y-440847D01*
Y-443753D01*
X-54738Y-446561D01*
X-53284Y-449079D01*
X-51229Y-451134D01*
X-48711Y-452588D01*
X-45903Y-453340D01*
X-42997D01*
X-40189Y-452588D01*
X-37671Y-451134D01*
X-35616Y-449079D01*
X-34162Y-446561D01*
X-33410Y-443753D01*
Y-440847D01*
X-34162Y-438039D01*
X-35616Y-435521D01*
X-37671Y-433466D01*
X-40189Y-432012D01*
X-42997Y-431260D01*
D02*
G37*
G36*
X-230948Y-447210D02*
X-233052D01*
X-234997Y-448015D01*
X-236485Y-449504D01*
X-237290Y-451448D01*
Y-453552D01*
X-236485Y-455497D01*
X-234997Y-456985D01*
X-233052Y-457790D01*
X-230948D01*
X-229004Y-456985D01*
X-227515Y-455497D01*
X-226710Y-453552D01*
Y-451448D01*
X-227515Y-449504D01*
X-229004Y-448015D01*
X-230948Y-447210D01*
D02*
G37*
G36*
X78048Y-440960D02*
X74352D01*
X70781Y-441917D01*
X67579Y-443765D01*
X64965Y-446379D01*
X63117Y-449581D01*
X62160Y-453152D01*
Y-456848D01*
X63117Y-460419D01*
X64965Y-463621D01*
X67579Y-466235D01*
X70781Y-468083D01*
X74352Y-469040D01*
X78048D01*
X81619Y-468083D01*
X84821Y-466235D01*
X87435Y-463621D01*
X89283Y-460419D01*
X90240Y-456848D01*
Y-453152D01*
X89283Y-449581D01*
X87435Y-446379D01*
X84821Y-443765D01*
X81619Y-441917D01*
X78048Y-440960D01*
D02*
G37*
G36*
X211052Y-469710D02*
X208948D01*
X207003Y-470515D01*
X206250Y-471269D01*
X205497Y-470515D01*
X203552Y-469710D01*
X201448D01*
X199503Y-470515D01*
X198750Y-471269D01*
X197997Y-470515D01*
X196052Y-469710D01*
X193948D01*
X192003Y-470515D01*
X190515Y-472004D01*
X189710Y-473948D01*
Y-476052D01*
X190515Y-477996D01*
X192003Y-479485D01*
X193948Y-480290D01*
X196052D01*
X197997Y-479485D01*
X198750Y-478731D01*
X199503Y-479485D01*
X201448Y-480290D01*
X203552D01*
X205497Y-479485D01*
X206250Y-478731D01*
X207003Y-479485D01*
X208948Y-480290D01*
X211052D01*
X212996Y-479485D01*
X214485Y-477996D01*
X215290Y-476052D01*
Y-473948D01*
X214485Y-472004D01*
X212996Y-470515D01*
X211052Y-469710D01*
D02*
G37*
G36*
X45903Y-456660D02*
X42997D01*
X40189Y-457412D01*
X37671Y-458866D01*
X35616Y-460921D01*
X34162Y-463439D01*
X33410Y-466247D01*
Y-469153D01*
X34162Y-471961D01*
X35616Y-474479D01*
X37671Y-476534D01*
X40189Y-477988D01*
X42997Y-478740D01*
X45903D01*
X48711Y-477988D01*
X51229Y-476534D01*
X53284Y-474479D01*
X54738Y-471961D01*
X55490Y-469153D01*
Y-466247D01*
X54738Y-463439D01*
X53284Y-460921D01*
X51229Y-458866D01*
X48711Y-457412D01*
X45903Y-456660D01*
D02*
G37*
G36*
X20503D02*
X17597D01*
X14789Y-457412D01*
X12271Y-458866D01*
X10216Y-460921D01*
X8762Y-463439D01*
X8010Y-466247D01*
Y-469153D01*
X8762Y-471961D01*
X10216Y-474479D01*
X12271Y-476534D01*
X14789Y-477988D01*
X17597Y-478740D01*
X20503D01*
X23311Y-477988D01*
X25829Y-476534D01*
X27884Y-474479D01*
X29338Y-471961D01*
X30090Y-469153D01*
Y-466247D01*
X29338Y-463439D01*
X27884Y-460921D01*
X25829Y-458866D01*
X23311Y-457412D01*
X20503Y-456660D01*
D02*
G37*
G36*
X-4897D02*
X-7803D01*
X-10611Y-457412D01*
X-13129Y-458866D01*
X-15184Y-460921D01*
X-16638Y-463439D01*
X-17390Y-466247D01*
Y-469153D01*
X-16638Y-471961D01*
X-15184Y-474479D01*
X-13129Y-476534D01*
X-10611Y-477988D01*
X-7803Y-478740D01*
X-4897D01*
X-2089Y-477988D01*
X429Y-476534D01*
X2484Y-474479D01*
X3938Y-471961D01*
X4690Y-469153D01*
Y-466247D01*
X3938Y-463439D01*
X2484Y-460921D01*
X429Y-458866D01*
X-2089Y-457412D01*
X-4897Y-456660D01*
D02*
G37*
G36*
X-30297D02*
X-33203D01*
X-36011Y-457412D01*
X-38529Y-458866D01*
X-40584Y-460921D01*
X-42038Y-463439D01*
X-42790Y-466247D01*
Y-469153D01*
X-42038Y-471961D01*
X-40584Y-474479D01*
X-38529Y-476534D01*
X-36011Y-477988D01*
X-33203Y-478740D01*
X-30297D01*
X-27489Y-477988D01*
X-24971Y-476534D01*
X-22916Y-474479D01*
X-21462Y-471961D01*
X-20710Y-469153D01*
Y-466247D01*
X-21462Y-463439D01*
X-22916Y-460921D01*
X-24971Y-458866D01*
X-27489Y-457412D01*
X-30297Y-456660D01*
D02*
G37*
G36*
X160993Y-474960D02*
X159007D01*
X157090Y-475474D01*
X155370Y-476466D01*
X153967Y-477870D01*
X153202Y-479195D01*
X153016Y-479257D01*
X151984D01*
X151798Y-479195D01*
X151033Y-477870D01*
X149630Y-476466D01*
X147910Y-475474D01*
X146270Y-475034D01*
Y-482500D01*
Y-489966D01*
X147910Y-489526D01*
X149630Y-488534D01*
X151033Y-487130D01*
X151798Y-485805D01*
X151984Y-485743D01*
X153016D01*
X153202Y-485805D01*
X153967Y-487130D01*
X155370Y-488534D01*
X157090Y-489526D01*
X159007Y-490040D01*
X160993D01*
X162910Y-489526D01*
X164630Y-488534D01*
X166033Y-487130D01*
X167026Y-485410D01*
X167540Y-483493D01*
Y-481507D01*
X167026Y-479590D01*
X166033Y-477870D01*
X164630Y-476466D01*
X162910Y-475474D01*
X160993Y-474960D01*
D02*
G37*
G36*
X228552Y-469710D02*
X226448D01*
X224503Y-470515D01*
X223015Y-472004D01*
X222210Y-473948D01*
Y-476052D01*
X223015Y-477996D01*
X224503Y-479485D01*
X226448Y-480290D01*
X228552D01*
X230497Y-479485D01*
X231985Y-477996D01*
X232790Y-476052D01*
Y-473948D01*
X231985Y-472004D01*
X230497Y-470515D01*
X228552Y-469710D01*
D02*
G37*
G36*
X143730Y-475034D02*
X142090Y-475474D01*
X140370Y-476466D01*
X138967Y-477870D01*
X137974Y-479590D01*
X137534Y-481230D01*
X143730D01*
Y-475034D01*
D02*
G37*
G36*
Y-483770D02*
X137534D01*
X137974Y-485410D01*
X138967Y-487130D01*
X140370Y-488534D01*
X142090Y-489526D01*
X143730Y-489966D01*
Y-483770D01*
D02*
G37*
G36*
X-158948Y-474710D02*
X-161052D01*
X-162997Y-475515D01*
X-164485Y-477004D01*
X-165290Y-478948D01*
Y-481052D01*
X-164485Y-482996D01*
X-163731Y-483750D01*
X-164485Y-484504D01*
X-165290Y-486448D01*
Y-488552D01*
X-164485Y-490496D01*
X-162997Y-491985D01*
X-161052Y-492790D01*
X-158948D01*
X-157003Y-491985D01*
X-155515Y-490496D01*
X-154710Y-488552D01*
Y-486448D01*
X-155515Y-484504D01*
X-156269Y-483750D01*
X-155515Y-482996D01*
X-154710Y-481052D01*
Y-478948D01*
X-155515Y-477004D01*
X-157003Y-475515D01*
X-158948Y-474710D01*
D02*
G37*
G36*
X113098Y-466360D02*
X109402D01*
X105831Y-467317D01*
X102629Y-469165D01*
X100015Y-471779D01*
X98167Y-474981D01*
X97210Y-478552D01*
Y-482248D01*
X98167Y-485819D01*
X100015Y-489021D01*
X102629Y-491635D01*
X105831Y-493483D01*
X109402Y-494440D01*
X113098D01*
X116669Y-493483D01*
X119871Y-491635D01*
X122485Y-489021D01*
X124333Y-485819D01*
X125290Y-482248D01*
Y-478552D01*
X124333Y-474981D01*
X122485Y-471779D01*
X119871Y-469165D01*
X116669Y-467317D01*
X113098Y-466360D01*
D02*
G37*
G36*
X138552Y-499710D02*
X136448D01*
X134503Y-500515D01*
X133015Y-502004D01*
X132210Y-503948D01*
Y-506052D01*
X133015Y-507996D01*
X134503Y-509485D01*
X136448Y-510290D01*
X138552D01*
X140497Y-509485D01*
X141985Y-507996D01*
X142790Y-506052D01*
Y-503948D01*
X141985Y-502004D01*
X140497Y-500515D01*
X138552Y-499710D01*
D02*
G37*
G36*
X223493Y-507460D02*
X221507D01*
X219590Y-507974D01*
X217870Y-508966D01*
X216467Y-510370D01*
X215474Y-512090D01*
X214960Y-514007D01*
Y-515993D01*
X215474Y-517910D01*
X216467Y-519630D01*
X217325Y-520489D01*
X217870Y-521034D01*
X219590Y-522026D01*
X221507Y-522540D01*
X223493D01*
X225410Y-522026D01*
X227130Y-521034D01*
X228533Y-519630D01*
X229526Y-517910D01*
X230040Y-515993D01*
Y-514007D01*
X229526Y-512090D01*
X228533Y-510370D01*
X227130Y-508966D01*
X225410Y-507974D01*
X223493Y-507460D01*
D02*
G37*
G36*
X138552Y-514710D02*
X136448D01*
X134503Y-515515D01*
X133015Y-517004D01*
X132210Y-518948D01*
Y-521052D01*
X133015Y-522996D01*
X134503Y-524485D01*
X136448Y-525290D01*
X138552D01*
X140497Y-524485D01*
X141985Y-522996D01*
X142790Y-521052D01*
Y-518948D01*
X141985Y-517004D01*
X140497Y-515515D01*
X138552Y-514710D01*
D02*
G37*
G36*
X-158948Y-514710D02*
X-161052D01*
X-162997Y-515515D01*
X-164485Y-517003D01*
X-165290Y-518948D01*
Y-521052D01*
X-164485Y-522996D01*
X-163731Y-523750D01*
X-164485Y-524504D01*
X-165290Y-526448D01*
Y-528552D01*
X-164485Y-530497D01*
X-162997Y-531985D01*
X-161052Y-532790D01*
X-158948D01*
X-157003Y-531985D01*
X-155515Y-530497D01*
X-154710Y-528552D01*
Y-526448D01*
X-155515Y-524504D01*
X-156269Y-523750D01*
X-155515Y-522996D01*
X-154710Y-521052D01*
Y-518948D01*
X-155515Y-517003D01*
X-157003Y-515515D01*
X-158948Y-514710D01*
D02*
G37*
G36*
X78552Y-532210D02*
X76448D01*
X74503Y-533015D01*
X73750Y-533769D01*
X72997Y-533015D01*
X71052Y-532210D01*
X68948D01*
X67003Y-533015D01*
X66250Y-533769D01*
X65497Y-533015D01*
X63552Y-532210D01*
X61448D01*
X59503Y-533015D01*
X58015Y-534504D01*
X57210Y-536448D01*
Y-538552D01*
X58015Y-540496D01*
X59503Y-541985D01*
X61448Y-542790D01*
X63552D01*
X65497Y-541985D01*
X66250Y-541231D01*
X67003Y-541985D01*
X68948Y-542790D01*
X71052D01*
X72997Y-541985D01*
X73750Y-541231D01*
X74503Y-541985D01*
X76448Y-542790D01*
X78552D01*
X80497Y-541985D01*
X81985Y-540496D01*
X82790Y-538552D01*
Y-536448D01*
X81985Y-534504D01*
X80497Y-533015D01*
X78552Y-532210D01*
D02*
G37*
G36*
X123552Y-524710D02*
X121448D01*
X119503Y-525515D01*
X118015Y-527004D01*
X117210Y-528948D01*
Y-531052D01*
X118015Y-532996D01*
X119503Y-534485D01*
X121448Y-535290D01*
X123552D01*
X125497Y-534485D01*
X126985Y-532996D01*
X127790Y-531052D01*
Y-528948D01*
X126985Y-527004D01*
X125497Y-525515D01*
X123552Y-524710D01*
D02*
G37*
G36*
X-88948Y-529710D02*
X-91052D01*
X-92997Y-530515D01*
X-94485Y-532004D01*
X-95290Y-533948D01*
Y-536052D01*
X-94485Y-537996D01*
X-92997Y-539485D01*
X-91052Y-540290D01*
X-88948D01*
X-87003Y-539485D01*
X-85515Y-537996D01*
X-84710Y-536052D01*
Y-533948D01*
X-85515Y-532004D01*
X-87003Y-530515D01*
X-88948Y-529710D01*
D02*
G37*
G36*
X118552Y-547210D02*
X116448D01*
X114503Y-548015D01*
X113750Y-548769D01*
X112997Y-548015D01*
X111052Y-547210D01*
X108948D01*
X107003Y-548015D01*
X106250Y-548769D01*
X105497Y-548015D01*
X103552Y-547210D01*
X101448D01*
X99503Y-548015D01*
X98015Y-549504D01*
X97210Y-551448D01*
Y-553552D01*
X98015Y-555497D01*
X99503Y-556985D01*
X101138Y-557662D01*
X101448Y-557790D01*
X103552D01*
X105497Y-556985D01*
X106250Y-556231D01*
X107003Y-556985D01*
X108948Y-557790D01*
X111052D01*
X112997Y-556985D01*
X113750Y-556231D01*
X114503Y-556985D01*
X116448Y-557790D01*
X118552D01*
X120497Y-556985D01*
X121985Y-555497D01*
X122790Y-553552D01*
Y-551448D01*
Y-551448D01*
X121985Y-549504D01*
X120497Y-548015D01*
X118552Y-547210D01*
D02*
G37*
G36*
X26853Y-532860D02*
X23947D01*
X21139Y-533612D01*
X18621Y-535066D01*
X16566Y-537121D01*
X15112Y-539639D01*
X14360Y-542447D01*
Y-545353D01*
X15112Y-548161D01*
X16566Y-550679D01*
X18621Y-552734D01*
X21139Y-554188D01*
X23947Y-554940D01*
X26853D01*
X29661Y-554188D01*
X32179Y-552734D01*
X34234Y-550679D01*
X35688Y-548161D01*
X36440Y-545353D01*
Y-542447D01*
X35688Y-539639D01*
X34234Y-537121D01*
X32179Y-535066D01*
X29661Y-533612D01*
X26853Y-532860D01*
D02*
G37*
G36*
X176052Y-544710D02*
X173948D01*
X172003Y-545515D01*
X170515Y-547004D01*
X169710Y-548948D01*
Y-551052D01*
X170515Y-552996D01*
X172003Y-554485D01*
X173948Y-555290D01*
X176052D01*
X177997Y-554485D01*
X179485Y-552996D01*
X180290Y-551052D01*
Y-548948D01*
X179485Y-547004D01*
X177997Y-545515D01*
X176052Y-544710D01*
D02*
G37*
G36*
X113552Y-564710D02*
X111447D01*
X109503Y-565515D01*
X108015Y-567003D01*
X107210Y-568947D01*
Y-571052D01*
X108015Y-572996D01*
X109503Y-574484D01*
X111447Y-575290D01*
X113552D01*
X115496Y-574484D01*
X116984Y-572996D01*
X117790Y-571052D01*
Y-568947D01*
X116984Y-567003D01*
X115496Y-565515D01*
X113552Y-564710D01*
D02*
G37*
G36*
X136052Y-570710D02*
X133948D01*
X132003Y-571515D01*
X130515Y-573004D01*
X129710Y-574948D01*
Y-577052D01*
X130515Y-578997D01*
X132003Y-580485D01*
X133948Y-581290D01*
X136052D01*
X137997Y-580485D01*
X139485Y-578997D01*
X140290Y-577052D01*
Y-574948D01*
X139485Y-573004D01*
X137997Y-571515D01*
X136052Y-570710D01*
D02*
G37*
G36*
X-48948Y715290D02*
X-51052D01*
X-52997Y714485D01*
X-54485Y712997D01*
X-55290Y711052D01*
Y708948D01*
X-54485Y707003D01*
X-52997Y705515D01*
X-51052Y704710D01*
X-48948D01*
X-47003Y705515D01*
X-45515Y707003D01*
X-44710Y708948D01*
Y711052D01*
X-45515Y712997D01*
X-47003Y714485D01*
X-48948Y715290D01*
D02*
G37*
G36*
X236199Y670975D02*
X234094D01*
X232150Y670170D01*
X230662Y668682D01*
X229856Y666738D01*
Y664633D01*
X230662Y662689D01*
X232150Y661201D01*
X234094Y660396D01*
X236199D01*
X238143Y661201D01*
X239631Y662689D01*
X240436Y664633D01*
Y666738D01*
X239631Y668682D01*
X238143Y670170D01*
X236199Y670975D01*
D02*
G37*
G36*
X-231632Y658475D02*
X-233736D01*
X-235681Y657670D01*
X-237169Y656182D01*
X-237843Y654555D01*
X-238488Y654131D01*
X-239244Y653975D01*
X-240871Y654648D01*
X-242975D01*
X-244919Y653843D01*
X-246408Y652355D01*
X-247081Y650728D01*
X-247727Y650304D01*
X-248483Y650148D01*
X-250110Y650822D01*
X-252214D01*
X-254158Y650016D01*
X-255646Y648528D01*
X-256452Y646584D01*
Y644480D01*
X-255646Y642535D01*
X-254158Y641047D01*
X-252214Y640242D01*
X-250110D01*
X-248165Y641047D01*
X-246677Y642535D01*
X-246003Y644162D01*
X-245358Y644586D01*
X-244602Y644742D01*
X-242975Y644068D01*
X-240871D01*
X-238926Y644874D01*
X-237438Y646362D01*
X-236765Y647988D01*
X-236119Y648412D01*
X-235363Y648569D01*
X-233736Y647895D01*
X-231632D01*
X-229688Y648700D01*
X-228200Y650189D01*
X-227394Y652133D01*
Y654237D01*
X-228200Y656182D01*
X-229688Y657670D01*
X-231632Y658475D01*
D02*
G37*
G36*
X-276229Y661641D02*
X-278334D01*
X-280278Y660835D01*
X-281766Y659347D01*
X-282571Y657403D01*
Y655299D01*
X-281766Y653354D01*
X-280278Y651866D01*
X-278334Y651061D01*
X-276229D01*
X-274285Y651866D01*
X-272797Y653354D01*
X-271992Y655299D01*
Y657403D01*
X-272797Y659347D01*
X-274285Y660835D01*
X-276229Y661641D01*
D02*
G37*
G36*
X269095Y665467D02*
X266990D01*
X265046Y664662D01*
X263558Y663174D01*
X262752Y661230D01*
Y659125D01*
X263558Y657181D01*
X265046Y655693D01*
X266990Y654887D01*
X269095D01*
X270721Y655561D01*
X271478Y655405D01*
X272123Y654981D01*
X272797Y653354D01*
X274285Y651866D01*
X276229Y651061D01*
X278334D01*
X280278Y651866D01*
X281766Y653354D01*
X282571Y655298D01*
Y657403D01*
X281766Y659347D01*
X280278Y660835D01*
X278334Y661641D01*
X276229D01*
X274603Y660967D01*
X273846Y661123D01*
X273201Y661547D01*
X272527Y663174D01*
X271039Y664662D01*
X269095Y665467D01*
D02*
G37*
G36*
X329311Y654055D02*
X327207D01*
X325262Y653250D01*
X323774Y651761D01*
X323483Y651057D01*
X322778Y651349D01*
X320674D01*
X318729Y650544D01*
X317241Y649055D01*
X316436Y647111D01*
Y645007D01*
X317241Y643062D01*
X318729Y641574D01*
X320674Y640769D01*
X322778D01*
X324723Y641574D01*
X326211Y643062D01*
X326502Y643767D01*
X327207Y643475D01*
X329311D01*
X331255Y644280D01*
X332743Y645768D01*
X333549Y647713D01*
Y649817D01*
X332743Y651761D01*
X331255Y653250D01*
X329311Y654055D01*
D02*
G37*
G36*
X251806Y656393D02*
X249701D01*
X247757Y655587D01*
X246269Y654099D01*
X245464Y652155D01*
Y650051D01*
X246269Y648106D01*
X247757Y646618D01*
X249701Y645813D01*
X251806D01*
X253750Y646618D01*
X255238Y648106D01*
X256044Y650051D01*
Y652155D01*
X255238Y654099D01*
X253750Y655587D01*
X251806Y656393D01*
D02*
G37*
G36*
X187762Y658567D02*
X185657D01*
X183713Y657762D01*
X182225Y656274D01*
X181419Y654329D01*
Y652225D01*
X182225Y650281D01*
X183713Y648792D01*
X185657Y647987D01*
X187762D01*
X188747Y648395D01*
X189155Y647410D01*
X190643Y645922D01*
X192587Y645116D01*
X194692D01*
X195677Y645525D01*
X196085Y644539D01*
X197574Y643051D01*
X199518Y642246D01*
X201622D01*
X203567Y643051D01*
X205055Y644539D01*
X205860Y646484D01*
Y647073D01*
Y648588D01*
X205055Y650532D01*
X203567Y652020D01*
X201622Y652826D01*
X199518D01*
X198533Y652418D01*
X198124Y653403D01*
X196636Y654891D01*
X194692Y655696D01*
X192587D01*
X191602Y655288D01*
X191194Y656274D01*
X189706Y657762D01*
X187762Y658567D01*
D02*
G37*
G36*
X0Y716183D02*
X-6442Y715676D01*
X-12726Y714167D01*
X-18697Y711694D01*
X-24207Y708318D01*
X-29121Y704121D01*
X-33318Y699207D01*
X-36694Y693697D01*
X-39167Y687726D01*
X-40676Y681442D01*
X-40959Y677842D01*
D01*
X-41183Y675000D01*
X-40676Y668557D01*
X-39167Y662274D01*
X-36694Y656303D01*
X-33318Y650793D01*
X-29121Y645879D01*
X-24207Y641682D01*
X-18697Y638306D01*
X-12726Y635832D01*
X-6442Y634324D01*
X0Y633817D01*
X6442Y634324D01*
X12726Y635832D01*
X18697Y638306D01*
X24207Y641682D01*
X29121Y645879D01*
X33318Y650793D01*
X36694Y656303D01*
X39167Y662274D01*
X40676Y668557D01*
X41183Y675000D01*
X41049Y676708D01*
X40676Y681442D01*
X39167Y687726D01*
X36694Y693697D01*
X33318Y699207D01*
X29121Y704121D01*
X24207Y708318D01*
X18697Y711694D01*
X12726Y714167D01*
X6442Y715676D01*
X0Y716183D01*
D02*
G37*
G36*
X-16448Y635290D02*
X-18552D01*
X-20496Y634485D01*
X-21985Y632996D01*
X-22790Y631052D01*
Y628948D01*
X-21985Y627004D01*
X-20496Y625515D01*
X-18552Y624710D01*
X-16448D01*
X-14504Y625515D01*
X-13015Y627004D01*
X-12210Y628948D01*
Y631052D01*
X-13015Y632996D01*
X-14504Y634485D01*
X-16448Y635290D01*
D02*
G37*
G36*
X279919Y639336D02*
X277814D01*
X275870Y638531D01*
X274382Y637043D01*
X273577Y635099D01*
Y632994D01*
X274382Y631050D01*
X275870Y629562D01*
X277814Y628756D01*
X279919D01*
X281545Y629430D01*
X282302Y629273D01*
X282947Y628849D01*
X283621Y627223D01*
X285109Y625735D01*
X287053Y624929D01*
X289158D01*
X290784Y625603D01*
X291540Y625447D01*
X292186Y625023D01*
X292859Y623396D01*
X294347Y621908D01*
X296292Y621102D01*
X298396D01*
X300340Y621908D01*
X301829Y623396D01*
X302634Y625340D01*
Y627445D01*
X301829Y629389D01*
X300340Y630877D01*
X298396Y631683D01*
X296292D01*
X294665Y631009D01*
X293909Y631165D01*
X293264Y631589D01*
X292590Y633216D01*
X291102Y634704D01*
X289158Y635509D01*
X287053D01*
X285427Y634836D01*
X284670Y634992D01*
X284025Y635416D01*
X283351Y637043D01*
X281863Y638531D01*
X279919Y639336D01*
D02*
G37*
G36*
X217064Y624781D02*
X214960D01*
X213016Y623976D01*
X211528Y622488D01*
X210722Y620544D01*
Y618439D01*
X211528Y616495D01*
X213016Y615007D01*
X214960Y614202D01*
X217064D01*
X219009Y615007D01*
X220497Y616495D01*
X221302Y618439D01*
Y620544D01*
X220497Y622488D01*
X219009Y623976D01*
X217064Y624781D01*
D02*
G37*
G36*
X-172410Y620736D02*
X-174515D01*
X-176459Y619931D01*
X-177947Y618443D01*
X-178752Y616499D01*
Y614394D01*
X-177947Y612450D01*
X-176459Y610962D01*
X-174515Y610156D01*
X-172410D01*
X-171389Y610579D01*
X-169773Y609996D01*
X-169613Y609609D01*
X-168125Y608121D01*
X-166180Y607316D01*
X-164076D01*
X-163045Y607743D01*
X-161430Y607163D01*
X-161235Y606692D01*
X-159747Y605204D01*
X-157803Y604398D01*
X-155698D01*
X-153754Y605204D01*
X-152266Y606692D01*
X-151461Y608636D01*
Y610741D01*
X-152266Y612685D01*
X-153754Y614173D01*
X-155698Y614978D01*
X-157803D01*
X-158833Y614552D01*
X-160448Y615131D01*
X-160643Y615602D01*
X-162131Y617090D01*
X-164076Y617896D01*
X-166180D01*
X-167201Y617473D01*
X-168818Y618057D01*
X-168978Y618443D01*
X-170466Y619931D01*
X-172410Y620736D01*
D02*
G37*
G36*
X-315012Y604996D02*
X-317116D01*
X-319061Y604191D01*
X-320549Y602703D01*
X-320957Y601717D01*
X-321942Y602126D01*
X-324047D01*
X-325991Y601320D01*
X-327479Y599832D01*
X-327887Y598847D01*
X-328873Y599255D01*
X-330977D01*
X-332921Y598450D01*
X-334410Y596962D01*
X-335215Y595017D01*
Y592913D01*
X-334410Y590968D01*
X-332921Y589480D01*
X-330977Y588675D01*
X-328873D01*
X-326928Y589480D01*
X-325440Y590968D01*
X-325032Y591954D01*
X-324047Y591546D01*
X-321942D01*
X-319998Y592351D01*
X-318510Y593839D01*
X-318102Y594824D01*
X-317116Y594416D01*
X-315012D01*
X-313068Y595221D01*
X-311580Y596710D01*
X-310774Y598654D01*
Y600758D01*
X-311580Y602703D01*
X-311989Y603112D01*
X-313068Y604191D01*
X-315012Y604996D01*
D02*
G37*
G36*
X212677Y607657D02*
X210573D01*
X208628Y606852D01*
X207140Y605364D01*
X206335Y603419D01*
Y601315D01*
X207140Y599370D01*
X208628Y597882D01*
X210573Y597077D01*
X212677D01*
X213661Y597485D01*
X214069Y596500D01*
X215557Y595012D01*
X217502Y594207D01*
X219606D01*
X220591Y594615D01*
D01*
X220912Y593839D01*
X220998Y593630D01*
X222486Y592142D01*
X224431Y591337D01*
X226535D01*
X228480Y592142D01*
X229968Y593630D01*
X230773Y595574D01*
Y597679D01*
X229968Y599623D01*
X228480Y601111D01*
X226535Y601917D01*
X224431D01*
X223446Y601509D01*
X223039Y602493D01*
X221551Y603982D01*
X219606Y604787D01*
X217502D01*
X216517Y604379D01*
X216110Y605364D01*
X214621Y606852D01*
X212677Y607657D01*
D02*
G37*
G36*
X-284263Y596085D02*
X-286367D01*
X-288311Y595280D01*
X-289799Y593792D01*
X-290605Y591847D01*
Y589743D01*
X-289799Y587799D01*
X-288311Y586311D01*
X-286367Y585505D01*
X-284263D01*
X-282318Y586311D01*
X-280830Y587799D01*
X-280025Y589743D01*
Y591847D01*
X-280830Y593792D01*
X-282318Y595280D01*
X-284263Y596085D01*
D02*
G37*
G36*
X277513Y594331D02*
X275408D01*
X273464Y593526D01*
X271976Y592038D01*
X271171Y590093D01*
Y587989D01*
X271578Y587004D01*
X270594Y586597D01*
X269106Y585108D01*
X268300Y583164D01*
Y581060D01*
X268701Y580092D01*
X267710Y579681D01*
X266222Y578193D01*
X265417Y576249D01*
Y574144D01*
X266222Y572200D01*
X267710Y570712D01*
X269655Y569907D01*
X271759D01*
X273703Y570712D01*
X275191Y572200D01*
X275997Y574144D01*
Y576249D01*
X275596Y577217D01*
X276587Y577627D01*
X278075Y579115D01*
X278880Y581060D01*
Y583164D01*
X278473Y584149D01*
X279457Y584557D01*
X280945Y586045D01*
X281751Y587989D01*
Y590093D01*
X280945Y592038D01*
X279457Y593526D01*
X277513Y594331D01*
D02*
G37*
G36*
X115352Y540610D02*
X113248D01*
X111303Y539805D01*
X109815Y538317D01*
X109010Y536372D01*
Y534268D01*
X109815Y532323D01*
X111303Y530835D01*
X113248Y530030D01*
X115352D01*
X117296Y530835D01*
X118785Y532323D01*
X119590Y534268D01*
Y536372D01*
X118785Y538317D01*
X117296Y539805D01*
X115352Y540610D01*
D02*
G37*
G36*
X-29007Y557540D02*
X-30993D01*
X-32910Y557026D01*
X-34630Y556034D01*
X-36033Y554630D01*
X-37026Y552910D01*
X-37540Y550993D01*
Y549007D01*
X-37026Y547090D01*
X-36033Y545370D01*
X-34630Y543966D01*
X-33305Y543202D01*
X-33243Y543016D01*
Y541984D01*
X-33305Y541798D01*
X-34630Y541034D01*
X-36033Y539630D01*
X-37026Y537910D01*
X-37540Y535993D01*
Y534007D01*
X-37026Y532090D01*
X-36033Y530370D01*
X-34630Y528966D01*
X-33305Y528202D01*
X-33243Y528016D01*
Y526984D01*
X-33305Y526798D01*
X-34630Y526034D01*
X-36033Y524630D01*
X-37026Y522910D01*
X-37540Y520993D01*
Y519007D01*
X-37026Y517090D01*
X-36033Y515370D01*
X-34630Y513966D01*
X-32910Y512974D01*
X-30993Y512460D01*
X-29007D01*
X-27090Y512974D01*
X-25370Y513966D01*
X-23967Y515370D01*
X-22974Y517090D01*
X-22460Y519007D01*
Y520993D01*
X-22974Y522910D01*
X-23967Y524630D01*
X-25370Y526034D01*
X-26695Y526798D01*
X-26757Y526984D01*
Y528016D01*
X-26695Y528202D01*
X-25370Y528966D01*
X-23967Y530370D01*
X-22974Y532090D01*
X-22460Y534007D01*
Y535993D01*
X-22974Y537910D01*
X-23967Y539630D01*
X-25370Y541034D01*
X-26695Y541798D01*
X-26757Y541984D01*
Y543016D01*
X-26695Y543202D01*
X-25370Y543966D01*
X-23967Y545370D01*
X-22974Y547090D01*
X-22460Y549007D01*
Y550993D01*
X-22974Y552910D01*
X-23967Y554630D01*
X-25370Y556034D01*
X-27090Y557026D01*
X-29007Y557540D01*
D02*
G37*
G36*
X-281560Y496740D02*
X-290830D01*
Y487470D01*
X-281560D01*
Y496740D01*
D02*
G37*
G36*
X-293370D02*
X-302640D01*
Y487470D01*
X-293370D01*
Y496740D01*
D02*
G37*
G36*
X293488D02*
X290712D01*
X288032Y496022D01*
X285628Y494634D01*
X283666Y492672D01*
X282278Y490268D01*
X281560Y487588D01*
Y484812D01*
X282278Y482132D01*
X283666Y479728D01*
X285628Y477766D01*
X288032Y476378D01*
X290712Y475660D01*
X293488D01*
X296168Y476378D01*
X298572Y477766D01*
X300534Y479728D01*
X301922Y482132D01*
X302640Y484812D01*
Y487588D01*
X301922Y490268D01*
X300534Y492672D01*
X298572Y494634D01*
X296168Y496022D01*
X293488Y496740D01*
D02*
G37*
G36*
X268088D02*
X265312D01*
X262632Y496022D01*
X260228Y494634D01*
X258266Y492672D01*
X256878Y490268D01*
X256160Y487588D01*
Y484812D01*
X256878Y482132D01*
X258266Y479728D01*
X260228Y477766D01*
X262632Y476378D01*
X265312Y475660D01*
X268088D01*
X270768Y476378D01*
X273172Y477766D01*
X275134Y479728D01*
X276522Y482132D01*
X277240Y484812D01*
Y487588D01*
X276522Y490268D01*
X275134Y492672D01*
X273172Y494634D01*
X270768Y496022D01*
X268088Y496740D01*
D02*
G37*
G36*
X242688D02*
X239912D01*
X237232Y496022D01*
X234828Y494634D01*
X232866Y492672D01*
X231478Y490268D01*
X230760Y487588D01*
Y484812D01*
X231478Y482132D01*
X232866Y479728D01*
X234828Y477766D01*
X237232Y476378D01*
X239912Y475660D01*
X242688D01*
X245368Y476378D01*
X247772Y477766D01*
X249734Y479728D01*
X251122Y482132D01*
X251840Y484812D01*
Y487588D01*
X251122Y490268D01*
X249734Y492672D01*
X247772Y494634D01*
X245368Y496022D01*
X242688Y496740D01*
D02*
G37*
G36*
X217288D02*
X214512D01*
X211832Y496022D01*
X209428Y494634D01*
X207466Y492672D01*
X206078Y490268D01*
X205360Y487588D01*
Y484812D01*
X206078Y482132D01*
X207466Y479728D01*
X209428Y477766D01*
X211832Y476378D01*
X214512Y475660D01*
X217288D01*
X219968Y476378D01*
X222372Y477766D01*
X224334Y479728D01*
X225722Y482132D01*
X226440Y484812D01*
Y487588D01*
X225722Y490268D01*
X224334Y492672D01*
X222372Y494634D01*
X219968Y496022D01*
X217288Y496740D01*
D02*
G37*
G36*
X191888D02*
X189112D01*
X186432Y496022D01*
X184028Y494634D01*
X182066Y492672D01*
X180678Y490268D01*
X179960Y487588D01*
Y484812D01*
X180678Y482132D01*
X182066Y479728D01*
X184028Y477766D01*
X186432Y476378D01*
X189112Y475660D01*
X191888D01*
X194568Y476378D01*
X196972Y477766D01*
X198934Y479728D01*
X200322Y482132D01*
X201040Y484812D01*
Y487588D01*
X200322Y490268D01*
X198934Y492672D01*
X196972Y494634D01*
X194568Y496022D01*
X191888Y496740D01*
D02*
G37*
G36*
X166488D02*
X163712D01*
X161032Y496022D01*
X158628Y494634D01*
X156666Y492672D01*
X155278Y490268D01*
X154560Y487588D01*
Y484812D01*
X155278Y482132D01*
X156666Y479728D01*
X158628Y477766D01*
X161032Y476378D01*
X163712Y475660D01*
X166488D01*
X169168Y476378D01*
X171572Y477766D01*
X173534Y479728D01*
X174922Y482132D01*
X175640Y484812D01*
Y487588D01*
X174922Y490268D01*
X173534Y492672D01*
X171572Y494634D01*
X169168Y496022D01*
X166488Y496740D01*
D02*
G37*
G36*
X141088D02*
X138312D01*
X135632Y496022D01*
X133228Y494634D01*
X131266Y492672D01*
X129878Y490268D01*
X129160Y487588D01*
Y484812D01*
X129878Y482132D01*
X131266Y479728D01*
X133228Y477766D01*
X135632Y476378D01*
X138312Y475660D01*
X141088D01*
X143768Y476378D01*
X146172Y477766D01*
X148134Y479728D01*
X149522Y482132D01*
X150240Y484812D01*
Y487588D01*
X149522Y490268D01*
X148134Y492672D01*
X146172Y494634D01*
X143768Y496022D01*
X141088Y496740D01*
D02*
G37*
G36*
X115688D02*
X112912D01*
X110232Y496022D01*
X107828Y494634D01*
X105866Y492672D01*
X104478Y490268D01*
X103760Y487588D01*
Y484812D01*
X104478Y482132D01*
X105866Y479728D01*
X107828Y477766D01*
X110232Y476378D01*
X112912Y475660D01*
X115688D01*
X118368Y476378D01*
X120772Y477766D01*
X122734Y479728D01*
X124122Y482132D01*
X124840Y484812D01*
Y487588D01*
X124122Y490268D01*
X122734Y492672D01*
X120772Y494634D01*
X118368Y496022D01*
X115688Y496740D01*
D02*
G37*
G36*
X90288D02*
X87512D01*
X84832Y496022D01*
X82428Y494634D01*
X80466Y492672D01*
X79078Y490268D01*
X78360Y487588D01*
Y484812D01*
X79078Y482132D01*
X80466Y479728D01*
X82428Y477766D01*
X84832Y476378D01*
X87512Y475660D01*
X90288D01*
X92968Y476378D01*
X95372Y477766D01*
X97334Y479728D01*
X98722Y482132D01*
X99440Y484812D01*
Y487588D01*
X98722Y490268D01*
X97334Y492672D01*
X95372Y494634D01*
X92968Y496022D01*
X90288Y496740D01*
D02*
G37*
G36*
X64888D02*
X62112D01*
X59432Y496022D01*
X57028Y494634D01*
X55066Y492672D01*
X53678Y490268D01*
X52960Y487588D01*
Y484812D01*
X53678Y482132D01*
X55066Y479728D01*
X57028Y477766D01*
X59432Y476378D01*
X62112Y475660D01*
X64888D01*
X67568Y476378D01*
X69972Y477766D01*
X71934Y479728D01*
X73322Y482132D01*
X74040Y484812D01*
Y487588D01*
X73322Y490268D01*
X71934Y492672D01*
X69972Y494634D01*
X67568Y496022D01*
X64888Y496740D01*
D02*
G37*
G36*
X39488D02*
X36712D01*
X34032Y496022D01*
X31628Y494634D01*
X29666Y492672D01*
X28278Y490268D01*
X27560Y487588D01*
Y484812D01*
X28278Y482132D01*
X29666Y479728D01*
X31628Y477766D01*
X34032Y476378D01*
X36712Y475660D01*
X39488D01*
X42168Y476378D01*
X44572Y477766D01*
X46534Y479728D01*
X47922Y482132D01*
X48640Y484812D01*
Y487588D01*
X47922Y490268D01*
X46534Y492672D01*
X44572Y494634D01*
X42168Y496022D01*
X39488Y496740D01*
D02*
G37*
G36*
X14088D02*
X11312D01*
X8632Y496022D01*
X6228Y494634D01*
X4266Y492672D01*
X2878Y490268D01*
X2160Y487588D01*
Y484812D01*
X2878Y482132D01*
X4266Y479728D01*
X6228Y477766D01*
X8632Y476378D01*
X11312Y475660D01*
X14088D01*
X16768Y476378D01*
X19172Y477766D01*
X21134Y479728D01*
X22522Y482132D01*
X23240Y484812D01*
Y487588D01*
X22522Y490268D01*
X21134Y492672D01*
X19172Y494634D01*
X16768Y496022D01*
X14088Y496740D01*
D02*
G37*
G36*
X-11312D02*
X-14088D01*
X-16768Y496022D01*
X-19172Y494634D01*
X-21134Y492672D01*
X-22522Y490268D01*
X-23240Y487588D01*
Y484812D01*
X-22522Y482132D01*
X-21134Y479728D01*
X-19172Y477766D01*
X-16768Y476378D01*
X-14088Y475660D01*
X-11312D01*
X-8632Y476378D01*
X-6228Y477766D01*
X-4266Y479728D01*
X-2878Y482132D01*
X-2160Y484812D01*
Y487588D01*
X-2878Y490268D01*
X-4266Y492672D01*
X-6228Y494634D01*
X-8632Y496022D01*
X-11312Y496740D01*
D02*
G37*
G36*
X-36712D02*
X-39488D01*
X-42168Y496022D01*
X-44572Y494634D01*
X-46534Y492672D01*
X-47922Y490268D01*
X-48640Y487588D01*
Y484812D01*
X-47922Y482132D01*
X-46534Y479728D01*
X-44572Y477766D01*
X-42168Y476378D01*
X-39488Y475660D01*
X-36712D01*
X-34032Y476378D01*
X-31628Y477766D01*
X-29666Y479728D01*
X-28278Y482132D01*
X-27560Y484812D01*
Y487588D01*
X-28278Y490268D01*
X-29666Y492672D01*
X-31628Y494634D01*
X-34032Y496022D01*
X-36712Y496740D01*
D02*
G37*
G36*
X-62112D02*
X-64888D01*
X-67568Y496022D01*
X-69972Y494634D01*
X-71934Y492672D01*
X-73322Y490268D01*
X-74040Y487588D01*
Y484812D01*
X-73322Y482132D01*
X-71934Y479728D01*
X-69972Y477766D01*
X-67568Y476378D01*
X-64888Y475660D01*
X-62112D01*
X-59432Y476378D01*
X-57028Y477766D01*
X-55066Y479728D01*
X-53678Y482132D01*
X-52960Y484812D01*
Y487588D01*
X-53678Y490268D01*
X-55066Y492672D01*
X-57028Y494634D01*
X-59432Y496022D01*
X-62112Y496740D01*
D02*
G37*
G36*
X-87512D02*
X-90288D01*
X-92968Y496022D01*
X-95372Y494634D01*
X-97334Y492672D01*
X-98722Y490268D01*
X-99440Y487588D01*
Y484812D01*
X-98722Y482132D01*
X-97334Y479728D01*
X-95372Y477766D01*
X-92968Y476378D01*
X-90288Y475660D01*
X-87512D01*
X-84832Y476378D01*
X-82428Y477766D01*
X-80466Y479728D01*
X-79078Y482132D01*
X-78360Y484812D01*
Y487588D01*
X-79078Y490268D01*
X-80466Y492672D01*
X-82428Y494634D01*
X-84832Y496022D01*
X-87512Y496740D01*
D02*
G37*
G36*
X-112912D02*
X-115688D01*
X-118368Y496022D01*
X-120772Y494634D01*
X-122734Y492672D01*
X-124122Y490268D01*
X-124840Y487588D01*
Y484812D01*
X-124122Y482132D01*
X-122734Y479728D01*
X-120772Y477766D01*
X-118368Y476378D01*
X-115688Y475660D01*
X-112912D01*
X-110232Y476378D01*
X-107828Y477766D01*
X-105866Y479728D01*
X-104478Y482132D01*
X-103760Y484812D01*
Y487588D01*
X-104478Y490268D01*
X-105866Y492672D01*
X-107828Y494634D01*
X-110232Y496022D01*
X-112912Y496740D01*
D02*
G37*
G36*
X-138312D02*
X-141088D01*
X-143768Y496022D01*
X-146172Y494634D01*
X-148134Y492672D01*
X-149522Y490268D01*
X-150240Y487588D01*
Y484812D01*
X-149522Y482132D01*
X-148134Y479728D01*
X-146172Y477766D01*
X-143768Y476378D01*
X-141088Y475660D01*
X-138312D01*
X-135632Y476378D01*
X-133228Y477766D01*
X-131266Y479728D01*
X-129878Y482132D01*
X-129160Y484812D01*
Y487588D01*
X-129878Y490268D01*
X-131266Y492672D01*
X-133228Y494634D01*
X-135632Y496022D01*
X-138312Y496740D01*
D02*
G37*
G36*
X-163712D02*
X-166488D01*
X-169168Y496022D01*
X-171572Y494634D01*
X-173534Y492672D01*
X-174922Y490268D01*
X-175640Y487588D01*
Y484812D01*
X-174922Y482132D01*
X-173534Y479728D01*
X-171572Y477766D01*
X-169168Y476378D01*
X-166488Y475660D01*
X-163712D01*
X-161032Y476378D01*
X-158628Y477766D01*
X-156666Y479728D01*
X-155278Y482132D01*
X-154560Y484812D01*
Y487588D01*
X-155278Y490268D01*
X-156666Y492672D01*
X-158628Y494634D01*
X-161032Y496022D01*
X-163712Y496740D01*
D02*
G37*
G36*
X-189112D02*
X-191888D01*
X-194568Y496022D01*
X-196972Y494634D01*
X-198934Y492672D01*
X-200322Y490268D01*
X-201040Y487588D01*
Y484812D01*
X-200322Y482132D01*
X-198934Y479728D01*
X-196972Y477766D01*
X-194568Y476378D01*
X-191888Y475660D01*
X-189112D01*
X-186432Y476378D01*
X-184028Y477766D01*
X-182066Y479728D01*
X-180678Y482132D01*
X-179960Y484812D01*
Y487588D01*
X-180678Y490268D01*
X-182066Y492672D01*
X-184028Y494634D01*
X-186432Y496022D01*
X-189112Y496740D01*
D02*
G37*
G36*
X-214512D02*
X-217288D01*
X-219968Y496022D01*
X-222372Y494634D01*
X-224334Y492672D01*
X-225722Y490268D01*
X-226440Y487588D01*
Y484812D01*
X-225722Y482132D01*
X-224334Y479728D01*
X-222372Y477766D01*
X-219968Y476378D01*
X-217288Y475660D01*
X-214512D01*
X-211832Y476378D01*
X-209428Y477766D01*
X-207466Y479728D01*
X-206078Y482132D01*
X-205360Y484812D01*
Y487588D01*
X-206078Y490268D01*
X-207466Y492672D01*
X-209428Y494634D01*
X-211832Y496022D01*
X-214512Y496740D01*
D02*
G37*
G36*
X-239912D02*
X-242688D01*
X-245368Y496022D01*
X-247772Y494634D01*
X-249734Y492672D01*
X-251122Y490268D01*
X-251840Y487588D01*
Y484812D01*
X-251122Y482132D01*
X-249734Y479728D01*
X-247772Y477766D01*
X-245368Y476378D01*
X-242688Y475660D01*
X-239912D01*
X-237232Y476378D01*
X-234828Y477766D01*
X-232866Y479728D01*
X-231478Y482132D01*
X-230760Y484812D01*
Y487588D01*
X-231478Y490268D01*
X-232866Y492672D01*
X-234828Y494634D01*
X-237232Y496022D01*
X-239912Y496740D01*
D02*
G37*
G36*
X-265312D02*
X-268088D01*
X-270768Y496022D01*
X-273172Y494634D01*
X-275134Y492672D01*
X-276522Y490268D01*
X-277240Y487588D01*
Y484812D01*
X-276522Y482132D01*
X-275134Y479728D01*
X-273172Y477766D01*
X-270768Y476378D01*
X-268088Y475660D01*
X-265312D01*
X-262632Y476378D01*
X-260228Y477766D01*
X-258266Y479728D01*
X-256878Y482132D01*
X-256160Y484812D01*
Y487588D01*
X-256878Y490268D01*
X-258266Y492672D01*
X-260228Y494634D01*
X-262632Y496022D01*
X-265312Y496740D01*
D02*
G37*
G36*
X-281560Y484930D02*
X-290830D01*
Y475660D01*
X-281560D01*
Y484930D01*
D02*
G37*
G36*
X-293370D02*
X-302640D01*
Y475660D01*
X-293370D01*
Y484930D01*
D02*
G37*
G36*
X479625Y500937D02*
X474969D01*
X470401Y500028D01*
X466099Y498246D01*
X462227Y495659D01*
X458935Y492367D01*
X456348Y488495D01*
X454566Y484193D01*
X453657Y479625D01*
Y474969D01*
X454566Y470401D01*
X456348Y466099D01*
X458935Y462227D01*
X462227Y458935D01*
X466099Y456348D01*
X470401Y454566D01*
X474969Y453657D01*
X479625D01*
X484193Y454566D01*
X488495Y456348D01*
X492367Y458935D01*
X495659Y462227D01*
X496381Y463307D01*
D01*
X498246Y466099D01*
X500028Y470401D01*
X500937Y474969D01*
Y479625D01*
X500028Y484193D01*
X498246Y488495D01*
X495659Y492367D01*
X492367Y495659D01*
X488495Y498246D01*
X484193Y500028D01*
X479625Y500937D01*
D02*
G37*
G36*
X-474969D02*
X-479625D01*
X-484193Y500028D01*
X-488495Y498246D01*
X-492367Y495659D01*
X-495659Y492367D01*
X-498246Y488495D01*
X-500028Y484193D01*
X-500937Y479625D01*
Y474969D01*
X-500028Y470401D01*
X-498246Y466099D01*
X-496381Y463307D01*
D01*
X-495732Y462337D01*
X-495659Y462227D01*
X-492367Y458935D01*
X-488495Y456348D01*
X-484193Y454566D01*
X-479625Y453657D01*
X-474969D01*
X-470401Y454566D01*
X-466099Y456348D01*
X-462227Y458935D01*
X-458935Y462227D01*
X-456348Y466099D01*
X-454566Y470401D01*
X-453657Y474969D01*
Y479625D01*
X-454566Y484193D01*
X-456348Y488495D01*
X-458935Y492367D01*
X-462227Y495659D01*
X-463307Y496381D01*
X-466099Y498246D01*
X-470401Y500028D01*
X-474969Y500937D01*
D02*
G37*
G36*
X434156Y463142D02*
X432051D01*
X430107Y462337D01*
X428619Y460848D01*
X427813Y458904D01*
Y456800D01*
X428619Y454855D01*
X430107Y453367D01*
X432051Y452562D01*
X434156D01*
X436100Y453367D01*
X437588Y454855D01*
X438393Y456800D01*
Y458904D01*
X437588Y460848D01*
X436100Y462337D01*
X434156Y463142D01*
D02*
G37*
G36*
X-456800Y438393D02*
X-458904D01*
X-460849Y437588D01*
X-462337Y436100D01*
X-463142Y434156D01*
Y432051D01*
X-462337Y430107D01*
X-460849Y428619D01*
X-458904Y427813D01*
X-456800D01*
X-454855Y428619D01*
X-453367Y430107D01*
X-452562Y432051D01*
Y434156D01*
X-453367Y436100D01*
X-454855Y437588D01*
X-456800Y438393D01*
D02*
G37*
G36*
X-16448Y435290D02*
X-18552D01*
X-20496Y434485D01*
X-21985Y432996D01*
X-22790Y431052D01*
Y428948D01*
X-21985Y427004D01*
X-20496Y425515D01*
X-18552Y424710D01*
X-16448D01*
X-14504Y425515D01*
X-13015Y427004D01*
X-12210Y428948D01*
Y431052D01*
X-13015Y432996D01*
X-14504Y434485D01*
X-16448Y435290D01*
D02*
G37*
G36*
X-140885Y413682D02*
X-143915D01*
X-146887Y413091D01*
X-149686Y411931D01*
X-152205Y410248D01*
X-152400Y410053D01*
X-152595Y410248D01*
X-155114Y411931D01*
X-157913Y413091D01*
X-160885Y413682D01*
X-163915D01*
X-166887Y413091D01*
X-169686Y411931D01*
X-172205Y410248D01*
X-174348Y408105D01*
X-176031Y405586D01*
X-177191Y402787D01*
X-177782Y399815D01*
Y396785D01*
X-177191Y393813D01*
X-176031Y391014D01*
X-174348Y388494D01*
X-172205Y386352D01*
X-170665Y385323D01*
X-170034Y384158D01*
X-171290Y381982D01*
X-171940Y379556D01*
Y377044D01*
X-171290Y374618D01*
X-170034Y372442D01*
X-170665Y371277D01*
X-172205Y370248D01*
X-174348Y368105D01*
X-176031Y365586D01*
X-177191Y362787D01*
X-177782Y359815D01*
Y356785D01*
X-177191Y353813D01*
X-176031Y351014D01*
X-174348Y348495D01*
X-172205Y346352D01*
X-169771Y344726D01*
X-169693Y344360D01*
X-169715Y343306D01*
X-171572Y342234D01*
X-173534Y340272D01*
X-174922Y337868D01*
X-175640Y335188D01*
Y332412D01*
X-174922Y329732D01*
X-173534Y327328D01*
X-171572Y325366D01*
X-169168Y323978D01*
X-166488Y323260D01*
X-163712D01*
X-161032Y323978D01*
X-158628Y325366D01*
X-156666Y327328D01*
X-155278Y329732D01*
X-154560Y332412D01*
Y335188D01*
X-155278Y337868D01*
X-156666Y340272D01*
X-158493Y342099D01*
X-158405Y343411D01*
X-157913Y343509D01*
X-155114Y344669D01*
X-152595Y346352D01*
X-152400Y346547D01*
X-152205Y346352D01*
X-149686Y344669D01*
X-146887Y343509D01*
X-146396Y343411D01*
X-146307Y342099D01*
X-148134Y340272D01*
X-149522Y337868D01*
X-150240Y335188D01*
Y332412D01*
X-149522Y329732D01*
X-148134Y327328D01*
X-146172Y325366D01*
X-143768Y323978D01*
X-141088Y323260D01*
X-138312D01*
X-135632Y323978D01*
X-133228Y325366D01*
X-131266Y327328D01*
X-129878Y329732D01*
X-129160Y332412D01*
Y335188D01*
X-129878Y337868D01*
X-131266Y340272D01*
X-133228Y342234D01*
X-135085Y343306D01*
X-135107Y344360D01*
X-135028Y344726D01*
X-132595Y346352D01*
X-130452Y348495D01*
X-128769Y351014D01*
X-127609Y353813D01*
X-127018Y356785D01*
Y359815D01*
X-127609Y362787D01*
X-128769Y365586D01*
X-130452Y368105D01*
X-132595Y370248D01*
X-134135Y371277D01*
X-134766Y372442D01*
X-133510Y374618D01*
X-132864Y377030D01*
X-142400D01*
Y379570D01*
X-132864D01*
X-133510Y381982D01*
X-134766Y384158D01*
X-134135Y385323D01*
X-132595Y386352D01*
X-130452Y388494D01*
X-128769Y391014D01*
X-127609Y393813D01*
X-127018Y396785D01*
Y399815D01*
X-127609Y402787D01*
X-128769Y405586D01*
X-130452Y408105D01*
X-132595Y410248D01*
X-135114Y411931D01*
X-137913Y413091D01*
X-140885Y413682D01*
D02*
G37*
G36*
X-16448Y419790D02*
X-18552D01*
X-20496Y418985D01*
X-21985Y417496D01*
X-22790Y415552D01*
Y413448D01*
X-21985Y411503D01*
X-20496Y410015D01*
X-18552Y409210D01*
X-16448D01*
X-14504Y410015D01*
X-13015Y411503D01*
X-12210Y413448D01*
Y415552D01*
X-13015Y417496D01*
X-14504Y418985D01*
X-16448Y419790D01*
D02*
G37*
G36*
X-285140Y441582D02*
X-288860D01*
X-292508Y440856D01*
X-295944Y439433D01*
X-299037Y437367D01*
X-301667Y434737D01*
X-303733Y431644D01*
X-305156Y428208D01*
X-305882Y424560D01*
Y420840D01*
X-305156Y417192D01*
X-303733Y413756D01*
X-301667Y410663D01*
X-301003Y410000D01*
X-301667Y409337D01*
X-303733Y406244D01*
X-305156Y402808D01*
X-305882Y399160D01*
Y395440D01*
X-305156Y391792D01*
X-303733Y388356D01*
X-301667Y385263D01*
X-299037Y382633D01*
X-295944Y380567D01*
X-292508Y379144D01*
X-288860Y378418D01*
X-285140D01*
X-281492Y379144D01*
X-278056Y380567D01*
X-274963Y382633D01*
X-272333Y385263D01*
X-270267Y388356D01*
X-269023Y391359D01*
X-268474Y391398D01*
X-267701Y391233D01*
X-266985Y389504D01*
X-265497Y388015D01*
X-263552Y387210D01*
X-261448D01*
X-259503Y388015D01*
X-258015Y389504D01*
X-257210Y391448D01*
Y393552D01*
X-258015Y395497D01*
X-259394Y396875D01*
X-258015Y398254D01*
X-257210Y400198D01*
Y402302D01*
X-258015Y404247D01*
X-259394Y405625D01*
X-258015Y407004D01*
X-257210Y408948D01*
Y411052D01*
X-258015Y412997D01*
X-259394Y414375D01*
X-258015Y415754D01*
X-257210Y417698D01*
Y419802D01*
X-258015Y421747D01*
X-259394Y423125D01*
X-258015Y424504D01*
X-257210Y426448D01*
Y428552D01*
X-258015Y430496D01*
X-259503Y431985D01*
X-261448Y432790D01*
X-263552D01*
X-265497Y431985D01*
X-266985Y430496D01*
X-267701Y428767D01*
X-268474Y428602D01*
X-269023Y428641D01*
X-270267Y431644D01*
X-272333Y434737D01*
X-274963Y437367D01*
X-278056Y439433D01*
X-281492Y440856D01*
X-285140Y441582D01*
D02*
G37*
G36*
X-100548Y387790D02*
X-102652D01*
X-104597Y386985D01*
X-106085Y385496D01*
X-106890Y383552D01*
Y381448D01*
X-106085Y379504D01*
X-104597Y378015D01*
X-102652Y377210D01*
X-100548D01*
X-98603Y378015D01*
X-97115Y379504D01*
X-96310Y381448D01*
Y383552D01*
X-97115Y385496D01*
X-98603Y386985D01*
X-100548Y387790D01*
D02*
G37*
G36*
X470318Y370038D02*
Y357818D01*
X482538D01*
X482240Y360083D01*
X480876Y363377D01*
X478705Y366205D01*
X475877Y368376D01*
X472583Y369740D01*
X470318Y370038D01*
D02*
G37*
G36*
X467778Y370038D02*
X465514Y369740D01*
X462220Y368376D01*
X459392Y366205D01*
X457221Y363377D01*
X455857Y360083D01*
X455559Y357818D01*
X467778D01*
Y370038D01*
D02*
G37*
G36*
X419318Y370038D02*
Y357818D01*
X431538D01*
X431240Y360083D01*
X429875Y363377D01*
X427705Y366205D01*
X424877Y368376D01*
X421583Y369740D01*
X419318Y370038D01*
D02*
G37*
G36*
X416778Y370038D02*
X414514Y369740D01*
X411220Y368376D01*
X408391Y366205D01*
X406221Y363377D01*
X404857Y360083D01*
X404559Y357818D01*
X416778D01*
Y370038D01*
D02*
G37*
G36*
X-265312Y369740D02*
X-268088D01*
X-270768Y369022D01*
X-273172Y367634D01*
X-275134Y365672D01*
X-276522Y363268D01*
X-277240Y360588D01*
Y357812D01*
X-276522Y355132D01*
X-275134Y352728D01*
X-273172Y350766D01*
X-270768Y349378D01*
X-268088Y348660D01*
X-265312D01*
X-262632Y349378D01*
X-260228Y350766D01*
X-258266Y352728D01*
X-256878Y355132D01*
X-256160Y357812D01*
Y360588D01*
X-256878Y363268D01*
X-258266Y365672D01*
X-260228Y367634D01*
X-262632Y369022D01*
X-265312Y369740D01*
D02*
G37*
G36*
X467778Y355278D02*
X455559D01*
X455857Y353014D01*
X457221Y349720D01*
X459392Y346892D01*
X462220Y344721D01*
X465514Y343357D01*
X467778Y343059D01*
Y355278D01*
D02*
G37*
G36*
X416778Y355278D02*
X404559D01*
X404857Y353014D01*
X406221Y349720D01*
X408391Y346892D01*
X411220Y344721D01*
X414514Y343357D01*
X416778Y343059D01*
Y355278D01*
D02*
G37*
G36*
X431538D02*
X419318D01*
Y343059D01*
X421583Y343357D01*
X424877Y344721D01*
X427705Y346892D01*
X429875Y349720D01*
X431240Y353014D01*
X431538Y355278D01*
D02*
G37*
G36*
X482538Y355278D02*
X470318D01*
Y343059D01*
X472583Y343357D01*
X475877Y344721D01*
X478705Y346892D01*
X480876Y349720D01*
X482240Y353014D01*
X482538Y355278D01*
D02*
G37*
G36*
X64888Y344340D02*
X64770D01*
Y335070D01*
X74040D01*
Y335188D01*
X73322Y337868D01*
X71934Y340272D01*
X69972Y342234D01*
X67568Y343622D01*
X64888Y344340D01*
D02*
G37*
G36*
X62230D02*
X62112D01*
X59432Y343622D01*
X57028Y342234D01*
X55066Y340272D01*
X53678Y337868D01*
X52960Y335188D01*
Y335070D01*
X62230D01*
Y344340D01*
D02*
G37*
G36*
X-265312D02*
X-265430D01*
Y335070D01*
X-256160D01*
Y335188D01*
X-256878Y337868D01*
X-258266Y340272D01*
X-260228Y342234D01*
X-262632Y343622D01*
X-265312Y344340D01*
D02*
G37*
G36*
X-267970D02*
X-268088D01*
X-270768Y343622D01*
X-273172Y342234D01*
X-275134Y340272D01*
X-276522Y337868D01*
X-277240Y335188D01*
Y335070D01*
X-267970D01*
Y344340D01*
D02*
G37*
G36*
X-87512Y344340D02*
X-90288D01*
X-92968Y343622D01*
X-95372Y342234D01*
X-97334Y340272D01*
X-98722Y337868D01*
X-99440Y335188D01*
Y332412D01*
X-98722Y329732D01*
X-97334Y327328D01*
X-95372Y325366D01*
X-92968Y323978D01*
X-90288Y323260D01*
X-87512D01*
X-84832Y323978D01*
X-82428Y325366D01*
X-80466Y327328D01*
X-79078Y329732D01*
X-78360Y332412D01*
Y335188D01*
X-79078Y337868D01*
X-80466Y340272D01*
X-82428Y342234D01*
X-84832Y343622D01*
X-87512Y344340D01*
D02*
G37*
G36*
X293488Y344340D02*
X290712D01*
X288032Y343622D01*
X285628Y342234D01*
X283666Y340272D01*
X282278Y337868D01*
X281560Y335188D01*
Y332412D01*
X282278Y329732D01*
X283666Y327328D01*
X285628Y325366D01*
X288032Y323978D01*
X290712Y323260D01*
X293488D01*
X296168Y323978D01*
X298572Y325366D01*
X300534Y327328D01*
X301922Y329732D01*
X302640Y332412D01*
Y335188D01*
X301922Y337868D01*
X300534Y340272D01*
X298572Y342234D01*
X296168Y343622D01*
X293488Y344340D01*
D02*
G37*
G36*
X268088D02*
X265312D01*
X262632Y343622D01*
X260228Y342234D01*
X258266Y340272D01*
X256878Y337868D01*
X256160Y335188D01*
Y332412D01*
X256878Y329732D01*
X258266Y327328D01*
X260228Y325366D01*
X262632Y323978D01*
X265312Y323260D01*
X268088D01*
X270768Y323978D01*
X273172Y325366D01*
X275134Y327328D01*
X276522Y329732D01*
X277240Y332412D01*
Y335188D01*
X276522Y337868D01*
X275134Y340272D01*
X273172Y342234D01*
X270768Y343622D01*
X268088Y344340D01*
D02*
G37*
G36*
X242688D02*
X239912D01*
X237232Y343622D01*
X234828Y342234D01*
X232866Y340272D01*
X231478Y337868D01*
X230760Y335188D01*
Y332412D01*
X231478Y329732D01*
X232866Y327328D01*
X234828Y325366D01*
X237232Y323978D01*
X239912Y323260D01*
X242688D01*
X245368Y323978D01*
X247772Y325366D01*
X249734Y327328D01*
X251122Y329732D01*
X251840Y332412D01*
Y335188D01*
X251122Y337868D01*
X249734Y340272D01*
X247772Y342234D01*
X245368Y343622D01*
X242688Y344340D01*
D02*
G37*
G36*
X217288D02*
X214512D01*
X211832Y343622D01*
X209428Y342234D01*
X207466Y340272D01*
X206078Y337868D01*
X205360Y335188D01*
Y332412D01*
X206078Y329732D01*
X207466Y327328D01*
X209428Y325366D01*
X211832Y323978D01*
X214512Y323260D01*
X217288D01*
X219968Y323978D01*
X222372Y325366D01*
X224334Y327328D01*
X225722Y329732D01*
X226440Y332412D01*
Y335188D01*
X225722Y337868D01*
X224334Y340272D01*
X222372Y342234D01*
X219968Y343622D01*
X217288Y344340D01*
D02*
G37*
G36*
X191888D02*
X189112D01*
X186432Y343622D01*
X184028Y342234D01*
X182066Y340272D01*
X180678Y337868D01*
X179960Y335188D01*
Y332412D01*
X180678Y329732D01*
X182066Y327328D01*
X184028Y325366D01*
X186432Y323978D01*
X189112Y323260D01*
X191888D01*
X194568Y323978D01*
X196972Y325366D01*
X198934Y327328D01*
X200322Y329732D01*
X201040Y332412D01*
Y335188D01*
X200322Y337868D01*
X198934Y340272D01*
X196972Y342234D01*
X194568Y343622D01*
X191888Y344340D01*
D02*
G37*
G36*
X166488D02*
X163712D01*
X161032Y343622D01*
X158628Y342234D01*
X156666Y340272D01*
X155278Y337868D01*
X154560Y335188D01*
Y332412D01*
X155278Y329732D01*
X156666Y327328D01*
X158628Y325366D01*
X161032Y323978D01*
X163712Y323260D01*
X166488D01*
X169168Y323978D01*
X171572Y325366D01*
X173534Y327328D01*
X174922Y329732D01*
X175640Y332412D01*
Y335188D01*
X174922Y337868D01*
X173534Y340272D01*
X171572Y342234D01*
X169168Y343622D01*
X166488Y344340D01*
D02*
G37*
G36*
X141088D02*
X138312D01*
X135632Y343622D01*
X133228Y342234D01*
X131266Y340272D01*
X129878Y337868D01*
X129160Y335188D01*
Y332412D01*
X129878Y329732D01*
X131266Y327328D01*
X133228Y325366D01*
X135632Y323978D01*
X138312Y323260D01*
X141088D01*
X143768Y323978D01*
X146172Y325366D01*
X148134Y327328D01*
X149522Y329732D01*
X150240Y332412D01*
Y335188D01*
X149522Y337868D01*
X148134Y340272D01*
X146172Y342234D01*
X143768Y343622D01*
X141088Y344340D01*
D02*
G37*
G36*
X115688D02*
X112912D01*
X110232Y343622D01*
X107828Y342234D01*
X105866Y340272D01*
X104478Y337868D01*
X103760Y335188D01*
Y332412D01*
X104478Y329732D01*
X105866Y327328D01*
X107828Y325366D01*
X110232Y323978D01*
X112912Y323260D01*
X115688D01*
X118368Y323978D01*
X120772Y325366D01*
X122734Y327328D01*
X124122Y329732D01*
X124840Y332412D01*
Y335188D01*
X124122Y337868D01*
X122734Y340272D01*
X120772Y342234D01*
X118368Y343622D01*
X115688Y344340D01*
D02*
G37*
G36*
X90288D02*
X87512D01*
X84832Y343622D01*
X82428Y342234D01*
X80466Y340272D01*
X79078Y337868D01*
X78360Y335188D01*
Y332412D01*
X79078Y329732D01*
X80466Y327328D01*
X82428Y325366D01*
X84832Y323978D01*
X87512Y323260D01*
X90288D01*
X92968Y323978D01*
X95372Y325366D01*
X97334Y327328D01*
X98722Y329732D01*
X99440Y332412D01*
Y335188D01*
X98722Y337868D01*
X97334Y340272D01*
X95372Y342234D01*
X92968Y343622D01*
X90288Y344340D01*
D02*
G37*
G36*
X74040Y332530D02*
X64770D01*
Y323260D01*
X64888D01*
X67568Y323978D01*
X69972Y325366D01*
X71934Y327328D01*
X73322Y329732D01*
X74040Y332412D01*
Y332530D01*
D02*
G37*
G36*
X62230D02*
X52960D01*
Y332412D01*
X53678Y329732D01*
X55066Y327328D01*
X57028Y325366D01*
X59432Y323978D01*
X62112Y323260D01*
X62230D01*
Y332530D01*
D02*
G37*
G36*
X39488Y344340D02*
X36712D01*
X34032Y343622D01*
X31628Y342234D01*
X29666Y340272D01*
X28278Y337868D01*
X27560Y335188D01*
Y332412D01*
X28278Y329732D01*
X29666Y327328D01*
X31628Y325366D01*
X34032Y323978D01*
X36712Y323260D01*
X39488D01*
X42168Y323978D01*
X44572Y325366D01*
X46534Y327328D01*
X47922Y329732D01*
X48640Y332412D01*
Y335188D01*
X47922Y337868D01*
X46534Y340272D01*
X44572Y342234D01*
X42168Y343622D01*
X39488Y344340D01*
D02*
G37*
G36*
X14088D02*
X11312D01*
X8632Y343622D01*
X6228Y342234D01*
X4266Y340272D01*
X2878Y337868D01*
X2160Y335188D01*
Y332412D01*
X2878Y329732D01*
X4266Y327328D01*
X6228Y325366D01*
X8632Y323978D01*
X11312Y323260D01*
X14088D01*
X16768Y323978D01*
X19172Y325366D01*
X21134Y327328D01*
X22522Y329732D01*
X23240Y332412D01*
Y335188D01*
X22522Y337868D01*
X21134Y340272D01*
X19172Y342234D01*
X16768Y343622D01*
X14088Y344340D01*
D02*
G37*
G36*
X-11312D02*
X-14088D01*
X-16768Y343622D01*
X-19172Y342234D01*
X-21134Y340272D01*
X-22522Y337868D01*
X-23240Y335188D01*
Y332412D01*
X-22522Y329732D01*
X-21134Y327328D01*
X-19172Y325366D01*
X-16768Y323978D01*
X-14088Y323260D01*
X-11312D01*
X-8632Y323978D01*
X-6228Y325366D01*
X-4266Y327328D01*
X-2878Y329732D01*
X-2160Y332412D01*
Y335188D01*
X-2878Y337868D01*
X-4266Y340272D01*
X-6228Y342234D01*
X-8632Y343622D01*
X-11312Y344340D01*
D02*
G37*
G36*
X-36712D02*
X-39488D01*
X-42168Y343622D01*
X-44572Y342234D01*
X-46534Y340272D01*
X-47922Y337868D01*
X-48640Y335188D01*
Y332412D01*
X-47922Y329732D01*
X-46534Y327328D01*
X-44572Y325366D01*
X-42168Y323978D01*
X-39488Y323260D01*
X-36712D01*
X-34032Y323978D01*
X-31628Y325366D01*
X-29666Y327328D01*
X-28278Y329732D01*
X-27560Y332412D01*
Y335188D01*
X-28278Y337868D01*
X-29666Y340272D01*
X-31628Y342234D01*
X-34032Y343622D01*
X-36712Y344340D01*
D02*
G37*
G36*
X-62112D02*
X-64888D01*
X-67568Y343622D01*
X-69972Y342234D01*
X-71934Y340272D01*
X-73322Y337868D01*
X-74040Y335188D01*
Y332412D01*
X-73322Y329732D01*
X-71934Y327328D01*
X-69972Y325366D01*
X-67568Y323978D01*
X-64888Y323260D01*
X-62112D01*
X-59432Y323978D01*
X-57028Y325366D01*
X-55066Y327328D01*
X-53678Y329732D01*
X-52960Y332412D01*
Y335188D01*
X-53678Y337868D01*
X-55066Y340272D01*
X-57028Y342234D01*
X-59432Y343622D01*
X-62112Y344340D01*
D02*
G37*
G36*
X-112912D02*
X-115688D01*
X-118368Y343622D01*
X-120772Y342234D01*
X-122734Y340272D01*
X-124122Y337868D01*
X-124840Y335188D01*
Y332412D01*
X-124122Y329732D01*
X-122734Y327328D01*
X-120772Y325366D01*
X-118368Y323978D01*
X-115688Y323260D01*
X-112912D01*
X-110232Y323978D01*
X-107828Y325366D01*
X-105866Y327328D01*
X-104478Y329732D01*
X-103760Y332412D01*
Y335188D01*
X-104478Y337868D01*
X-105866Y340272D01*
X-107828Y342234D01*
X-110232Y343622D01*
X-112912Y344340D01*
D02*
G37*
G36*
X-189112D02*
X-191888D01*
X-194568Y343622D01*
X-196972Y342234D01*
X-198934Y340272D01*
X-200322Y337868D01*
X-201040Y335188D01*
Y332412D01*
X-200322Y329732D01*
X-198934Y327328D01*
X-196972Y325366D01*
X-194568Y323978D01*
X-191888Y323260D01*
X-189112D01*
X-186432Y323978D01*
X-184028Y325366D01*
X-182066Y327328D01*
X-180678Y329732D01*
X-179960Y332412D01*
Y335188D01*
X-180678Y337868D01*
X-182066Y340272D01*
X-184028Y342234D01*
X-186432Y343622D01*
X-189112Y344340D01*
D02*
G37*
G36*
X-239912D02*
X-242688D01*
X-245368Y343622D01*
X-247772Y342234D01*
X-249734Y340272D01*
X-251122Y337868D01*
X-251840Y335188D01*
Y332412D01*
X-251122Y329732D01*
X-249734Y327328D01*
X-247772Y325366D01*
X-245368Y323978D01*
X-242688Y323260D01*
X-239912D01*
X-237232Y323978D01*
X-234828Y325366D01*
X-232866Y327328D01*
X-231478Y329732D01*
X-230760Y332412D01*
Y335188D01*
X-231478Y337868D01*
X-232866Y340272D01*
X-234828Y342234D01*
X-237232Y343622D01*
X-239912Y344340D01*
D02*
G37*
G36*
X-256160Y332530D02*
X-265430D01*
Y323260D01*
X-265312D01*
X-262632Y323978D01*
X-260228Y325366D01*
X-258266Y327328D01*
X-256878Y329732D01*
X-256160Y332412D01*
Y332530D01*
D02*
G37*
G36*
X-267970D02*
X-277240D01*
Y332412D01*
X-276522Y329732D01*
X-275134Y327328D01*
X-273172Y325366D01*
X-270768Y323978D01*
X-268088Y323260D01*
X-267970D01*
Y332530D01*
D02*
G37*
G36*
X-290712Y344340D02*
X-293488D01*
X-296168Y343622D01*
X-298572Y342234D01*
X-300534Y340272D01*
X-301922Y337868D01*
X-302640Y335188D01*
Y332412D01*
X-301922Y329732D01*
X-300534Y327328D01*
X-298572Y325366D01*
X-296168Y323978D01*
X-293488Y323260D01*
X-290712D01*
X-288032Y323978D01*
X-285628Y325366D01*
X-283666Y327328D01*
X-282278Y329732D01*
X-281560Y332412D01*
Y335188D01*
X-282278Y337868D01*
X-283666Y340272D01*
X-285628Y342234D01*
X-288032Y343622D01*
X-290712Y344340D01*
D02*
G37*
G36*
X-214512Y344340D02*
X-217288D01*
X-219968Y343622D01*
X-222372Y342234D01*
X-224334Y340272D01*
X-225722Y337868D01*
X-226440Y335188D01*
Y332412D01*
X-225722Y329732D01*
X-224334Y327328D01*
X-222372Y325366D01*
X-219968Y323978D01*
X-217288Y323260D01*
X-214512D01*
X-211832Y323978D01*
X-209428Y325366D01*
X-207466Y327328D01*
X-206078Y329732D01*
X-205360Y332412D01*
Y335188D01*
X-206078Y337868D01*
X-207466Y340272D01*
X-209428Y342234D01*
X-211832Y343622D01*
X-214512Y344340D01*
D02*
G37*
G36*
X-647713Y333549D02*
X-649817D01*
X-651761Y332743D01*
X-653250Y331255D01*
X-654055Y329311D01*
Y327207D01*
X-653250Y325262D01*
X-651761Y323774D01*
X-651057Y323483D01*
X-651349Y322778D01*
Y320674D01*
X-650544Y318729D01*
X-649055Y317241D01*
X-647111Y316436D01*
X-645007D01*
X-643062Y317241D01*
X-641574Y318729D01*
X-640769Y320674D01*
Y322778D01*
X-641574Y324723D01*
X-643062Y326211D01*
X-643767Y326502D01*
X-643475Y327207D01*
Y329311D01*
X-644280Y331255D01*
X-645768Y332743D01*
X-647713Y333549D01*
D02*
G37*
G36*
X445375Y349597D02*
X441721D01*
X438138Y348884D01*
X434762Y347486D01*
X431724Y345456D01*
X429141Y342872D01*
X427111Y339834D01*
X425713Y336459D01*
X425000Y332875D01*
Y329221D01*
X425713Y325638D01*
X427111Y322262D01*
X429141Y319224D01*
X431724Y316641D01*
X434762Y314611D01*
X438138Y313213D01*
X441721Y312500D01*
X445375D01*
X448959Y313213D01*
X452334Y314611D01*
X455372Y316641D01*
X457956Y319224D01*
X459986Y322262D01*
X461384Y325638D01*
X462097Y329221D01*
Y332875D01*
X461384Y336459D01*
X459986Y339834D01*
X457956Y342872D01*
X455372Y345456D01*
X452334Y347486D01*
X448959Y348884D01*
X445375Y349597D01*
D02*
G37*
G36*
X595017Y335215D02*
X592913D01*
X590968Y334410D01*
X589480Y332921D01*
X588675Y330977D01*
Y328873D01*
X589480Y326928D01*
X590968Y325440D01*
X591954Y325032D01*
X591546Y324047D01*
Y321942D01*
X592351Y319998D01*
X593839Y318510D01*
X594824Y318102D01*
X594416Y317116D01*
Y315012D01*
X595221Y313068D01*
X596710Y311580D01*
X598654Y310774D01*
X600758D01*
X602703Y311580D01*
X604191Y313068D01*
X604996Y315012D01*
Y317116D01*
X604191Y319061D01*
X602703Y320549D01*
X601717Y320957D01*
X602126Y321942D01*
Y324047D01*
X601320Y325991D01*
X599832Y327479D01*
X598847Y327887D01*
X599255Y328873D01*
Y330977D01*
X598450Y332921D01*
X596962Y334410D01*
X595017Y335215D01*
D02*
G37*
G36*
X470318Y319038D02*
Y306819D01*
X482538D01*
X482240Y309083D01*
X480876Y312377D01*
X478705Y315205D01*
X475877Y317376D01*
X472583Y318740D01*
X470318Y319038D01*
D02*
G37*
G36*
X467778Y319038D02*
X465514Y318740D01*
X462220Y317376D01*
X459392Y315205D01*
X457221Y312377D01*
X455857Y309083D01*
X455559Y306819D01*
X467778D01*
Y319038D01*
D02*
G37*
G36*
X419318D02*
Y306818D01*
X431538D01*
X431240Y309083D01*
X429875Y312377D01*
X427705Y315205D01*
X424877Y317376D01*
X421583Y318740D01*
X419318Y319038D01*
D02*
G37*
G36*
X416778D02*
X414514Y318740D01*
X411220Y317376D01*
X408391Y315205D01*
X406221Y312377D01*
X404857Y309083D01*
X404559Y306818D01*
X416778D01*
Y319038D01*
D02*
G37*
G36*
X257592Y312790D02*
X255488D01*
X253544Y311985D01*
X252055Y310497D01*
X251250Y308552D01*
Y306448D01*
X252055Y304503D01*
X253544Y303015D01*
X255488Y302210D01*
X257592D01*
X259537Y303015D01*
X261025Y304503D01*
X261830Y306448D01*
Y308552D01*
X261025Y310497D01*
X259537Y311985D01*
X257592Y312790D01*
D02*
G37*
G36*
X212372Y306850D02*
X210268D01*
X208324Y306045D01*
X206835Y304557D01*
X206030Y302612D01*
Y300508D01*
X206835Y298563D01*
X208324Y297075D01*
X210268Y296270D01*
X212372D01*
X214317Y297075D01*
X215805Y298563D01*
X216610Y300508D01*
Y302612D01*
X215805Y304557D01*
X214317Y306045D01*
X212372Y306850D01*
D02*
G37*
G36*
X467778Y304279D02*
X455559D01*
X455857Y302014D01*
X457221Y298720D01*
X459392Y295891D01*
X462220Y293721D01*
X465514Y292357D01*
X467778Y292059D01*
Y304279D01*
D02*
G37*
G36*
X431538Y304278D02*
X419318D01*
Y292059D01*
X421583Y292357D01*
X424877Y293721D01*
X427705Y295891D01*
X429875Y298720D01*
X431240Y302014D01*
X431538Y304278D01*
D02*
G37*
G36*
X416778D02*
X404559D01*
X404857Y302014D01*
X406221Y298720D01*
X408391Y295891D01*
X411220Y293721D01*
X414514Y292357D01*
X416778Y292059D01*
Y304278D01*
D02*
G37*
G36*
X482538Y304279D02*
X470318D01*
Y292059D01*
X472583Y292357D01*
X475877Y293721D01*
X478705Y295891D01*
X480876Y298720D01*
X482240Y302014D01*
X482538Y304279D01*
D02*
G37*
G36*
X591847Y290605D02*
X589743D01*
X587799Y289799D01*
X586311Y288311D01*
X585505Y286367D01*
Y284263D01*
X586311Y282318D01*
X587799Y280830D01*
X589743Y280025D01*
X591847D01*
X593792Y280830D01*
X595280Y282318D01*
X596085Y284263D01*
Y286367D01*
X595280Y288311D01*
X593792Y289799D01*
X591847Y290605D01*
D02*
G37*
G36*
X-625340Y302634D02*
X-627445D01*
X-629389Y301829D01*
X-630877Y300340D01*
X-631683Y298396D01*
Y296292D01*
X-631009Y294665D01*
X-631165Y293909D01*
X-631589Y293264D01*
X-633216Y292590D01*
X-634704Y291102D01*
X-635509Y289158D01*
Y287053D01*
X-634836Y285427D01*
X-634992Y284670D01*
X-635416Y284025D01*
X-637043Y283351D01*
X-638531Y281863D01*
X-639336Y279919D01*
Y277814D01*
X-638531Y275870D01*
X-637043Y274382D01*
X-635099Y273577D01*
X-632994D01*
X-631050Y274382D01*
X-629562Y275870D01*
X-628756Y277814D01*
Y279919D01*
X-629430Y281545D01*
X-629273Y282302D01*
X-628849Y282947D01*
X-627223Y283621D01*
X-625735Y285109D01*
X-624929Y287053D01*
Y289158D01*
X-625603Y290784D01*
X-625447Y291540D01*
X-625023Y292186D01*
X-623396Y292859D01*
X-621908Y294347D01*
X-621102Y296292D01*
Y298396D01*
X-621908Y300340D01*
X-623396Y301829D01*
X-625340Y302634D01*
D02*
G37*
G36*
X-655298Y282571D02*
X-657403D01*
X-659347Y281766D01*
X-660835Y280278D01*
X-661641Y278334D01*
Y276229D01*
X-660835Y274285D01*
X-659347Y272797D01*
X-657403Y271991D01*
X-655298D01*
X-653354Y272797D01*
X-651866Y274285D01*
X-651061Y276229D01*
Y278334D01*
X-651866Y280278D01*
X-653354Y281766D01*
X-655298Y282571D01*
D02*
G37*
G36*
X-587989Y281751D02*
X-590093D01*
X-592038Y280945D01*
X-593526Y279457D01*
X-594331Y277513D01*
Y275408D01*
X-593526Y273464D01*
X-592038Y271976D01*
X-590093Y271171D01*
X-587989D01*
X-587004Y271578D01*
X-586597Y270594D01*
X-585108Y269106D01*
X-583164Y268300D01*
X-581060D01*
X-580092Y268701D01*
X-579681Y267710D01*
X-578193Y266222D01*
X-576249Y265417D01*
X-574144D01*
X-572200Y266222D01*
X-570712Y267710D01*
X-569907Y269655D01*
Y271759D01*
X-570712Y273703D01*
X-572200Y275191D01*
X-574144Y275997D01*
X-576249D01*
X-577217Y275596D01*
X-577627Y276587D01*
X-579115Y278075D01*
X-581060Y278880D01*
X-583164D01*
X-584149Y278473D01*
X-584557Y279457D01*
X-586045Y280945D01*
X-587989Y281751D01*
D02*
G37*
G36*
X657403Y282571D02*
X655299D01*
X653354Y281766D01*
X651866Y280278D01*
X651061Y278334D01*
Y276229D01*
X651866Y274285D01*
X653354Y272797D01*
X654981Y272123D01*
X655405Y271477D01*
X655561Y270721D01*
X654887Y269095D01*
Y266990D01*
X655693Y265046D01*
X657181Y263558D01*
X659125Y262752D01*
X661230D01*
X663174Y263558D01*
X664662Y265046D01*
X665467Y266990D01*
Y269095D01*
X664662Y271039D01*
X663174Y272527D01*
X661547Y273201D01*
X661123Y273847D01*
X660967Y274603D01*
X661641Y276229D01*
Y278334D01*
X660835Y280278D01*
X659347Y281766D01*
X657403Y282571D01*
D02*
G37*
G36*
X373224Y270618D02*
X371119D01*
X369175Y269813D01*
X367687Y268325D01*
X366882Y266381D01*
Y264276D01*
X367687Y262332D01*
X369175Y260844D01*
X371119Y260038D01*
X373224D01*
X375168Y260844D01*
X376656Y262332D01*
X377462Y264276D01*
Y266381D01*
X376656Y268325D01*
X375168Y269813D01*
X373224Y270618D01*
D02*
G37*
G36*
X-650051Y256044D02*
X-652155D01*
X-654099Y255238D01*
X-655587Y253750D01*
X-656393Y251806D01*
Y249701D01*
X-655587Y247757D01*
X-654099Y246269D01*
X-652155Y245464D01*
X-650051D01*
X-648106Y246269D01*
X-646618Y247757D01*
X-645813Y249701D01*
Y251806D01*
X-646618Y253750D01*
X-648106Y255238D01*
X-650051Y256044D01*
D02*
G37*
G36*
X394437Y249405D02*
X392332D01*
X390388Y248600D01*
X388900Y247112D01*
X388095Y245168D01*
Y243063D01*
X388900Y241119D01*
X390388Y239631D01*
X392332Y238825D01*
X394437D01*
X396381Y239631D01*
X397869Y241119D01*
X398675Y243063D01*
Y245168D01*
X397869Y247112D01*
X396381Y248600D01*
X394437Y249405D01*
D02*
G37*
G36*
X-664633Y240436D02*
X-666738D01*
X-668682Y239631D01*
X-670170Y238143D01*
X-670975Y236199D01*
Y234094D01*
X-670170Y232150D01*
X-668682Y230662D01*
X-666738Y229856D01*
X-664633D01*
X-662689Y230662D01*
X-661201Y232150D01*
X-660396Y234094D01*
Y236199D01*
X-661201Y238143D01*
X-662689Y239631D01*
X-664633Y240436D01*
D02*
G37*
G36*
X646584Y256452D02*
X644480D01*
X642535Y255646D01*
X641047Y254158D01*
X640242Y252214D01*
Y250110D01*
X641047Y248165D01*
X642535Y246677D01*
X644162Y246003D01*
X644586Y245358D01*
X644742Y244602D01*
X644068Y242975D01*
Y240871D01*
X644874Y238926D01*
X646362Y237438D01*
X647988Y236765D01*
X648412Y236119D01*
X648569Y235363D01*
X647895Y233736D01*
Y231632D01*
X648700Y229688D01*
X650189Y228200D01*
X652133Y227394D01*
X654237D01*
X656182Y228200D01*
X657670Y229688D01*
X658475Y231632D01*
Y233736D01*
X657670Y235681D01*
X656182Y237169D01*
X654555Y237843D01*
X654131Y238488D01*
X653975Y239244D01*
X654648Y240871D01*
Y242975D01*
X653843Y244919D01*
X652355Y246408D01*
X650728Y247081D01*
X650304Y247727D01*
X650148Y248483D01*
X650822Y250110D01*
Y252214D01*
X650016Y254158D01*
X648528Y255646D01*
X646584Y256452D01*
D02*
G37*
G36*
X277305Y236925D02*
X275201D01*
X273257Y236120D01*
X271768Y234632D01*
X270963Y232688D01*
Y230583D01*
X271768Y228639D01*
X273257Y227151D01*
X275201Y226345D01*
X277305D01*
X279250Y227151D01*
X280738Y228639D01*
X281543Y230583D01*
Y232688D01*
X280738Y234632D01*
X279250Y236120D01*
X277305Y236925D01*
D02*
G37*
G36*
X-618439Y221302D02*
X-620544D01*
X-622488Y220497D01*
X-623976Y219009D01*
X-624781Y217064D01*
Y214960D01*
X-623976Y213016D01*
X-622488Y211528D01*
X-620544Y210722D01*
X-618439D01*
X-616495Y211528D01*
X-615007Y213016D01*
X-614202Y214960D01*
Y217064D01*
X-615007Y219009D01*
X-616495Y220497D01*
X-618439Y221302D01*
D02*
G37*
G36*
X-595574Y230773D02*
X-597679D01*
X-599623Y229968D01*
X-601111Y228480D01*
X-601917Y226535D01*
Y224431D01*
X-601509Y223446D01*
X-602493Y223039D01*
X-603982Y221551D01*
X-604787Y219606D01*
Y217502D01*
X-604379Y216517D01*
X-605364Y216110D01*
X-606852Y214621D01*
X-607657Y212677D01*
Y210573D01*
X-606852Y208628D01*
X-605364Y207140D01*
X-603419Y206335D01*
X-601315D01*
X-599370Y207140D01*
X-597882Y208628D01*
X-597077Y210573D01*
Y212677D01*
X-597485Y213661D01*
X-596500Y214069D01*
X-595012Y215557D01*
X-594207Y217502D01*
Y219606D01*
X-594615Y220591D01*
X-593630Y220998D01*
X-592142Y222486D01*
X-591337Y224431D01*
Y226535D01*
X-592142Y228480D01*
X-593630Y229968D01*
X-595574Y230773D01*
D02*
G37*
G36*
X338552Y200290D02*
X336448D01*
X334504Y199485D01*
X333015Y197997D01*
X332210Y196052D01*
Y193948D01*
X333015Y192003D01*
X334504Y190515D01*
X336448Y189710D01*
X338552D01*
X340497Y190515D01*
X341985Y192003D01*
X342790Y193948D01*
Y196052D01*
X341985Y197997D01*
X340497Y199485D01*
X338552Y200290D01*
D02*
G37*
G36*
X-646484Y205860D02*
X-648588D01*
X-650532Y205055D01*
X-652020Y203567D01*
X-652826Y201622D01*
Y199518D01*
X-652418Y198533D01*
X-653403Y198124D01*
X-654891Y196636D01*
X-655696Y194692D01*
Y192587D01*
X-655288Y191602D01*
X-656274Y191194D01*
X-657762Y189706D01*
X-658567Y187762D01*
Y185657D01*
X-657762Y183713D01*
X-656274Y182225D01*
X-654440Y181465D01*
X-654329Y181419D01*
X-652225D01*
X-650281Y182225D01*
X-648792Y183713D01*
X-647987Y185657D01*
Y187762D01*
X-648395Y188747D01*
X-647410Y189155D01*
X-645922Y190643D01*
X-645116Y192587D01*
Y194692D01*
X-645525Y195677D01*
X-644539Y196085D01*
X-643051Y197574D01*
X-642246Y199518D01*
Y201622D01*
X-643051Y203567D01*
X-644539Y205055D01*
X-646484Y205860D01*
D02*
G37*
G36*
X2269Y217350D02*
X-2269D01*
X-6720Y216465D01*
X-10913Y214728D01*
X-14687Y212206D01*
X-17896Y208997D01*
X-20418Y205224D01*
X-22155Y201031D01*
X-23040Y196579D01*
Y192041D01*
X-22155Y187589D01*
X-20418Y183396D01*
X-17896Y179623D01*
X-14687Y176414D01*
X-10913Y173892D01*
X-6720Y172155D01*
X-2269Y171270D01*
X2269D01*
X6720Y172155D01*
X10913Y173892D01*
X14687Y176414D01*
X17896Y179623D01*
X20418Y183396D01*
X22155Y187589D01*
X23040Y192041D01*
Y196579D01*
X22155Y201031D01*
X20418Y205224D01*
X17896Y208997D01*
X14687Y212206D01*
X10913Y214728D01*
X6720Y216465D01*
X2269Y217350D01*
D02*
G37*
G36*
X301052Y177790D02*
X298948D01*
X297003Y176985D01*
X295515Y175497D01*
X294710Y173552D01*
Y171448D01*
X295515Y169503D01*
X297003Y168015D01*
X298948Y167210D01*
X301052D01*
X302997Y168015D01*
X304485Y169503D01*
X305290Y171448D01*
Y173552D01*
X304485Y175497D01*
X302997Y176985D01*
X301052Y177790D01*
D02*
G37*
G36*
X263552D02*
X261448D01*
X259503Y176985D01*
X258015Y175497D01*
X257210Y173552D01*
Y171448D01*
X258015Y169503D01*
X259503Y168015D01*
X261448Y167210D01*
X263552D01*
X265497Y168015D01*
X266985Y169503D01*
X267790Y171448D01*
Y173552D01*
X266985Y175497D01*
X265497Y176985D01*
X263552Y177790D01*
D02*
G37*
G36*
X345188Y169043D02*
X343083D01*
X341139Y168238D01*
X339651Y166750D01*
X338845Y164805D01*
Y162701D01*
X339651Y160757D01*
X341139Y159269D01*
X343083Y158463D01*
X345188D01*
X347132Y159269D01*
X348620Y160757D01*
X349425Y162701D01*
Y164805D01*
X348620Y166750D01*
X347132Y168238D01*
X345188Y169043D01*
D02*
G37*
G36*
X153452Y136890D02*
X151348D01*
X149403Y136084D01*
X147915Y134596D01*
X147110Y132652D01*
Y130548D01*
X147915Y128603D01*
X149403Y127115D01*
X151348Y126310D01*
X153452D01*
X155396Y127115D01*
X156884Y128603D01*
X157690Y130548D01*
Y132652D01*
X156884Y134596D01*
X155396Y136084D01*
X153452Y136890D01*
D02*
G37*
G36*
X102652D02*
X100548D01*
X98603Y136084D01*
X97115Y134596D01*
X96310Y132652D01*
Y130548D01*
X97115Y128603D01*
X98603Y127115D01*
X100548Y126310D01*
X102652D01*
X104596Y127115D01*
X106084Y128603D01*
X106890Y130548D01*
Y132652D01*
X106084Y134596D01*
X104596Y136084D01*
X102652Y136890D01*
D02*
G37*
G36*
X391052Y122790D02*
X388948D01*
X387004Y121985D01*
X385515Y120497D01*
X384710Y118552D01*
Y116448D01*
X385515Y114503D01*
X387004Y113015D01*
X388948Y112210D01*
X391052D01*
X392996Y113015D01*
X394485Y114503D01*
X395290Y116448D01*
Y118552D01*
X394485Y120497D01*
X392996Y121985D01*
X391052Y122790D01*
D02*
G37*
G36*
X413552Y100290D02*
X411448D01*
X409503Y99485D01*
X408015Y97997D01*
X407210Y96052D01*
Y93948D01*
X408015Y92003D01*
X409503Y90515D01*
X411448Y89710D01*
X413552D01*
X415496Y90515D01*
X416985Y92003D01*
X417790Y93948D01*
Y96052D01*
X416985Y97997D01*
X415496Y99485D01*
X413552Y100290D01*
D02*
G37*
G36*
X436052Y77790D02*
X433948D01*
X432004Y76985D01*
X430515Y75497D01*
X429710Y73552D01*
Y71448D01*
X430515Y69503D01*
X432004Y68015D01*
X433948Y67210D01*
X436052D01*
X437996Y68015D01*
X439485Y69503D01*
X440290Y71448D01*
Y73552D01*
X439485Y75497D01*
X437996Y76985D01*
X436052Y77790D01*
D02*
G37*
G36*
X676052Y55290D02*
X673948D01*
X672003Y54485D01*
X670515Y52997D01*
X669710Y51052D01*
Y48948D01*
X670515Y47003D01*
X672003Y45515D01*
X673948Y44710D01*
X676052D01*
X677997Y45515D01*
X679485Y47003D01*
X680290Y48948D01*
Y51052D01*
X679485Y52997D01*
X677997Y54485D01*
X676719Y55014D01*
X676052Y55290D01*
D02*
G37*
G36*
X-476520Y62497D02*
X-479426D01*
X-482234Y61744D01*
X-484752Y60291D01*
X-486807Y58236D01*
X-488261Y55718D01*
X-489013Y52910D01*
Y50003D01*
X-488261Y47196D01*
X-486347Y42576D01*
X-484894Y40059D01*
X-482838Y38003D01*
X-480321Y36550D01*
X-477513Y35797D01*
X-474606D01*
X-471798Y36550D01*
X-469281Y38003D01*
X-467225Y40059D01*
X-465772Y42576D01*
X-465019Y45384D01*
Y48291D01*
X-465772Y51099D01*
X-467685Y55718D01*
X-469139Y58236D01*
X-471194Y60291D01*
X-473712Y61744D01*
X-476520Y62497D01*
D02*
G37*
G36*
X-499986Y52777D02*
X-502893D01*
X-505701Y52024D01*
X-508218Y50571D01*
X-510274Y48515D01*
X-511727Y45998D01*
X-512480Y43190D01*
Y40283D01*
X-511727Y37475D01*
X-509814Y32856D01*
X-508360Y30338D01*
X-506305Y28283D01*
X-503787Y26830D01*
X-500979Y26077D01*
X-498073D01*
X-495265Y26830D01*
X-492747Y28283D01*
X-490692Y30338D01*
X-489238Y32856D01*
X-488486Y35664D01*
Y38571D01*
X-489238Y41378D01*
X-491152Y45998D01*
X-492605Y48515D01*
X-494661Y50571D01*
X-497178Y52024D01*
X-499986Y52777D01*
D02*
G37*
G36*
X-542398Y36721D02*
X-551424Y32982D01*
X-546729Y21646D01*
X-537702Y25385D01*
X-542398Y36721D01*
D02*
G37*
G36*
X328730Y27157D02*
X324250D01*
X322216Y26890D01*
X320321Y26105D01*
X318694Y24856D01*
X317446Y23229D01*
X316660Y21334D01*
X316560Y20570D01*
X328730D01*
Y27157D01*
D02*
G37*
G36*
X375750D02*
X371270D01*
Y20570D01*
X383440D01*
X383340Y21334D01*
X382555Y23229D01*
X381306Y24856D01*
X379679Y26105D01*
X377784Y26890D01*
X375750Y27157D01*
D02*
G37*
G36*
X-324250D02*
X-328730D01*
Y20570D01*
X-316560D01*
X-316660Y21334D01*
X-317446Y23229D01*
X-318694Y24856D01*
X-320321Y26105D01*
X-322216Y26890D01*
X-324250Y27157D01*
D02*
G37*
G36*
X-371270Y27157D02*
X-375750D01*
X-377784Y26890D01*
X-379679Y26105D01*
X-381306Y24856D01*
X-382555Y23229D01*
X-383340Y21334D01*
X-383440Y20570D01*
X-371270D01*
Y27157D01*
D02*
G37*
G36*
X368730Y27157D02*
X364250D01*
X362216Y26890D01*
X360321Y26105D01*
X358694Y24856D01*
X357445Y23229D01*
X356660Y21334D01*
X356534Y20370D01*
X355526Y19597D01*
X354500Y19732D01*
X351463Y19333D01*
X350000Y18727D01*
X348537Y19333D01*
X345500Y19732D01*
X344474Y19597D01*
X343466Y20370D01*
X343340Y21334D01*
X342555Y23229D01*
X341306Y24856D01*
X339679Y26105D01*
X337784Y26890D01*
X335750Y27157D01*
X331270D01*
Y19300D01*
X330000D01*
Y18030D01*
X316560D01*
X316660Y17266D01*
X317446Y15371D01*
X317633Y15126D01*
X317612Y14927D01*
X317041Y13812D01*
X315241Y13454D01*
X313326Y12174D01*
X312046Y10259D01*
X311650Y8270D01*
X317500D01*
Y5730D01*
X311650D01*
X312046Y3741D01*
X313326Y1826D01*
X315007Y702D01*
X315120Y96D01*
Y-96D01*
X315007Y-702D01*
X313326Y-1826D01*
X312046Y-3741D01*
X311650Y-5730D01*
X317500D01*
Y-8270D01*
X311650D01*
X312046Y-10259D01*
X313326Y-12174D01*
X315241Y-13454D01*
X317041Y-13812D01*
X317612Y-14927D01*
X317633Y-15126D01*
X317446Y-15371D01*
X316660Y-17266D01*
X316560Y-18030D01*
X330000D01*
Y-19300D01*
X331270D01*
Y-27157D01*
X335750D01*
X337784Y-26890D01*
X339679Y-26105D01*
X341306Y-24856D01*
X342555Y-23229D01*
X343340Y-21334D01*
X343466Y-20370D01*
X344474Y-19597D01*
X345500Y-19732D01*
X348537Y-19333D01*
X350000Y-18727D01*
X351463Y-19333D01*
X354500Y-19732D01*
X355526Y-19597D01*
X356534Y-20370D01*
X356660Y-21334D01*
X357445Y-23229D01*
X358694Y-24856D01*
X360321Y-26105D01*
X362216Y-26890D01*
X364250Y-27157D01*
X368730D01*
Y-19300D01*
X370000D01*
Y-18030D01*
X383440D01*
X383340Y-17266D01*
X382555Y-15371D01*
X382366Y-15126D01*
X382388Y-14927D01*
X382959Y-13812D01*
X384759Y-13454D01*
X386674Y-12174D01*
X387954Y-10259D01*
X388350Y-8270D01*
X382500D01*
Y-5730D01*
X388350D01*
X387954Y-3741D01*
X386674Y-1826D01*
X384993Y-702D01*
X384880Y-96D01*
Y96D01*
X384993Y702D01*
X386674Y1826D01*
X387954Y3741D01*
X388350Y5730D01*
X382500D01*
Y8270D01*
X388350D01*
X387954Y10259D01*
X386674Y12174D01*
X384759Y13454D01*
X382959Y13812D01*
X382388Y14927D01*
X382366Y15126D01*
X382555Y15371D01*
X383340Y17266D01*
X383440Y18030D01*
X370000D01*
Y19300D01*
X368730D01*
Y27157D01*
D02*
G37*
G36*
X-706448Y20290D02*
X-708552D01*
X-710497Y19485D01*
X-711250Y18731D01*
X-712004Y19484D01*
X-713948Y20290D01*
X-716053D01*
X-717997Y19484D01*
X-719485Y17996D01*
X-720291Y16052D01*
Y13947D01*
X-719485Y12003D01*
X-717997Y10515D01*
X-716053Y9710D01*
X-713948D01*
X-712004Y10515D01*
X-711250Y11269D01*
X-710497Y10515D01*
X-708552Y9710D01*
X-706448D01*
X-704503Y10515D01*
X-703015Y12004D01*
X-702210Y13948D01*
Y16052D01*
X-703015Y17996D01*
X-704503Y19485D01*
X-706448Y20290D01*
D02*
G37*
G36*
X523552Y27790D02*
X521448D01*
X519504Y26985D01*
X518015Y25496D01*
X517210Y23552D01*
Y21448D01*
X518015Y19504D01*
X519504Y18015D01*
X521448Y17210D01*
X523552D01*
X525496Y18015D01*
X526985Y19504D01*
X527790Y21448D01*
Y23552D01*
X526985Y25496D01*
X525496Y26985D01*
X523552Y27790D01*
D02*
G37*
G36*
X-553771Y32010D02*
X-562797Y28271D01*
X-558102Y16935D01*
X-549075Y20674D01*
X-553771Y32010D01*
D02*
G37*
G36*
X-523453Y43057D02*
X-526359D01*
X-529167Y42304D01*
X-531685Y40851D01*
X-533740Y38795D01*
X-535194Y36278D01*
X-535946Y33470D01*
Y30563D01*
X-535194Y27755D01*
X-533280Y23136D01*
X-531827Y20618D01*
X-529771Y18563D01*
X-527254Y17109D01*
X-524446Y16357D01*
X-521539D01*
X-518731Y17109D01*
X-516214Y18563D01*
X-514158Y20618D01*
X-512705Y23136D01*
X-511953Y25944D01*
Y28851D01*
X-512705Y31658D01*
X-514618Y36278D01*
X-516072Y38795D01*
X-518127Y40851D01*
X-520645Y42304D01*
X-523453Y43057D01*
D02*
G37*
G36*
X631052Y22790D02*
X628948D01*
X627004Y21985D01*
X625515Y20496D01*
X624710Y18552D01*
Y16448D01*
X625515Y14504D01*
X627004Y13015D01*
X628948Y12210D01*
X631052D01*
X632996Y13015D01*
X634485Y14504D01*
X635290Y16448D01*
Y18552D01*
X634485Y20496D01*
X632996Y21985D01*
X631052Y22790D01*
D02*
G37*
G36*
X593552Y12790D02*
X591447D01*
X589503Y11985D01*
X588750Y11231D01*
X587996Y11985D01*
X586052Y12790D01*
X583948D01*
X582004Y11985D01*
X581250Y11231D01*
X580496Y11985D01*
X578552Y12790D01*
X576448D01*
X574503Y11985D01*
X573015Y10497D01*
X572210Y8552D01*
Y6448D01*
X573015Y4503D01*
X574503Y3015D01*
X576448Y2210D01*
X578552D01*
X580496Y3015D01*
X581250Y3769D01*
X582004Y3015D01*
X583948Y2210D01*
X586052D01*
X587996Y3015D01*
X588750Y3769D01*
X589503Y3016D01*
X591447Y2210D01*
X593552D01*
X595496Y3016D01*
X596984Y4504D01*
X597790Y6448D01*
Y8553D01*
X596984Y10497D01*
X595496Y11985D01*
X593552Y12790D01*
D02*
G37*
G36*
X-576448Y12790D02*
X-578552D01*
X-580496Y11985D01*
X-581250Y11231D01*
X-582004Y11985D01*
X-583948Y12790D01*
X-586052D01*
X-587996Y11985D01*
X-588750Y11231D01*
X-589504Y11985D01*
X-591448Y12790D01*
X-593552D01*
X-595496Y11985D01*
X-596985Y10497D01*
X-597790Y8552D01*
Y6448D01*
X-596985Y4503D01*
X-595496Y3015D01*
X-593552Y2210D01*
X-591448D01*
X-589504Y3015D01*
X-588750Y3769D01*
X-587996Y3015D01*
X-586052Y2210D01*
X-583948D01*
X-582004Y3015D01*
X-581250Y3769D01*
X-580496Y3015D01*
X-578552Y2210D01*
X-576448D01*
X-574503Y3015D01*
X-573015Y4503D01*
X-572210Y6448D01*
Y8552D01*
X-573015Y10497D01*
X-574503Y11985D01*
X-576448Y12790D01*
D02*
G37*
G36*
X716052Y20290D02*
X713948D01*
X712003Y19485D01*
X710515Y17996D01*
X709710Y16052D01*
Y13948D01*
X710515Y12004D01*
X712003Y10515D01*
X713948Y9710D01*
X716052D01*
X717997Y10515D01*
X719485Y12004D01*
X720290Y13948D01*
Y16052D01*
X719485Y17996D01*
X717997Y19485D01*
X716052Y20290D01*
D02*
G37*
G36*
X661052D02*
X658948D01*
X657003Y19485D01*
X655515Y17996D01*
X654710Y16052D01*
Y13948D01*
X655515Y12004D01*
X657003Y10515D01*
X658948Y9710D01*
X661052D01*
X662997Y10515D01*
X664485Y12004D01*
X665290Y13948D01*
Y16052D01*
X664485Y17996D01*
X662997Y19485D01*
X661052Y20290D01*
D02*
G37*
G36*
X-536730Y23038D02*
X-545757Y19299D01*
X-541061Y7963D01*
X-532035Y11702D01*
X-536730Y23038D01*
D02*
G37*
G36*
X-548103Y18327D02*
X-557130Y14589D01*
X-552434Y3252D01*
X-543408Y6991D01*
X-548103Y18327D01*
D02*
G37*
G36*
X593552Y-2210D02*
X591447D01*
X589503Y-3015D01*
X588750Y-3769D01*
X587996Y-3015D01*
X586052Y-2210D01*
X583948D01*
X582004Y-3015D01*
X581250Y-3769D01*
X580496Y-3015D01*
X578552Y-2210D01*
X576448D01*
X574503Y-3015D01*
X573015Y-4503D01*
X572210Y-6448D01*
Y-8552D01*
X573015Y-10497D01*
X574503Y-11985D01*
X576448Y-12790D01*
X578552D01*
X580496Y-11985D01*
X581250Y-11231D01*
X582004Y-11985D01*
X583948Y-12790D01*
X586052D01*
X587996Y-11985D01*
X588750Y-11231D01*
X589503Y-11984D01*
X591447Y-12790D01*
X593552D01*
X595496Y-11984D01*
X596984Y-10496D01*
X597790Y-8552D01*
Y-6447D01*
X596984Y-4503D01*
X595496Y-3015D01*
X593552Y-2210D01*
D02*
G37*
G36*
X-576448Y-2210D02*
X-578552D01*
X-580496Y-3015D01*
X-581250Y-3769D01*
X-582004Y-3015D01*
X-583948Y-2210D01*
X-586052D01*
X-587996Y-3015D01*
X-588750Y-3769D01*
X-589504Y-3015D01*
X-591448Y-2210D01*
X-593552D01*
X-595496Y-3015D01*
X-596985Y-4503D01*
X-597790Y-6448D01*
Y-8552D01*
X-596985Y-10497D01*
X-595496Y-11985D01*
X-593552Y-12790D01*
X-591448D01*
X-589504Y-11985D01*
X-588750Y-11231D01*
X-587996Y-11985D01*
X-586052Y-12790D01*
X-583948D01*
X-582004Y-11985D01*
X-581250Y-11231D01*
X-580496Y-11985D01*
X-578552Y-12790D01*
X-576448D01*
X-574503Y-11985D01*
X-573015Y-10497D01*
X-572210Y-8552D01*
Y-6448D01*
X-573015Y-4503D01*
X-574503Y-3015D01*
X-576448Y-2210D01*
D02*
G37*
G36*
X523552Y-9950D02*
X521447D01*
X519503Y-10755D01*
X518015Y-12243D01*
X517210Y-14188D01*
Y-16292D01*
X518015Y-18237D01*
X519503Y-19725D01*
X521447Y-20530D01*
X523552D01*
X525496Y-19725D01*
X526984Y-18237D01*
X527790Y-16292D01*
Y-14188D01*
X526984Y-12243D01*
X525496Y-10755D01*
X523552Y-9950D01*
D02*
G37*
G36*
X-628948Y-12210D02*
X-631052D01*
X-632996Y-13015D01*
X-634485Y-14504D01*
X-635290Y-16448D01*
Y-18552D01*
X-634485Y-20496D01*
X-632996Y-21985D01*
X-631052Y-22790D01*
X-628948D01*
X-627004Y-21985D01*
X-625515Y-20496D01*
X-624710Y-18552D01*
Y-16448D01*
X-625515Y-14504D01*
X-627004Y-13015D01*
X-628948Y-12210D01*
D02*
G37*
G36*
X383440Y-20570D02*
X371270D01*
Y-27157D01*
X375750D01*
X377784Y-26890D01*
X379679Y-26105D01*
X381306Y-24856D01*
X382555Y-23229D01*
X383340Y-21334D01*
X383440Y-20570D01*
D02*
G37*
G36*
X328730Y-20570D02*
X316560D01*
X316660Y-21334D01*
X317446Y-23229D01*
X318694Y-24856D01*
X320321Y-26105D01*
X322216Y-26890D01*
X324250Y-27157D01*
X328730D01*
Y-20570D01*
D02*
G37*
G36*
X-371270Y-20570D02*
X-383440D01*
X-383340Y-21334D01*
X-382555Y-23229D01*
X-381306Y-24856D01*
X-379679Y-26105D01*
X-377784Y-26890D01*
X-375750Y-27157D01*
X-371270D01*
Y-20570D01*
D02*
G37*
G36*
X-316560D02*
X-328730D01*
Y-27157D01*
X-324250D01*
X-322216Y-26890D01*
X-320321Y-26105D01*
X-318694Y-24856D01*
X-317446Y-23229D01*
X-316660Y-21334D01*
X-316560Y-20570D01*
D02*
G37*
G36*
X-364250Y27157D02*
X-368730D01*
Y19300D01*
X-370000D01*
Y18030D01*
X-383440D01*
X-383340Y17266D01*
X-382555Y15371D01*
X-382366Y15126D01*
X-382388Y14927D01*
X-382959Y13812D01*
X-384759Y13454D01*
X-386674Y12174D01*
X-387954Y10259D01*
X-388350Y8270D01*
X-382500D01*
Y5730D01*
X-388350D01*
X-387954Y3741D01*
X-386674Y1826D01*
X-384993Y702D01*
X-384880Y96D01*
Y-96D01*
X-384993Y-702D01*
X-386674Y-1826D01*
X-387954Y-3741D01*
X-388350Y-5730D01*
X-382500D01*
Y-8270D01*
X-388350D01*
X-387954Y-10259D01*
X-386674Y-12174D01*
X-384759Y-13454D01*
X-382959Y-13812D01*
X-382388Y-14927D01*
X-382366Y-15126D01*
X-382555Y-15371D01*
X-383340Y-17266D01*
X-383440Y-18030D01*
X-370000D01*
Y-19300D01*
X-368730D01*
Y-27157D01*
X-364250D01*
X-362216Y-26890D01*
X-360321Y-26105D01*
X-358694Y-24856D01*
X-357445Y-23229D01*
X-356660Y-21334D01*
X-356534Y-20370D01*
X-355526Y-19597D01*
X-354500Y-19732D01*
X-351463Y-19333D01*
X-350000Y-18727D01*
X-348537Y-19333D01*
X-345500Y-19732D01*
X-344474Y-19597D01*
X-343466Y-20370D01*
X-343340Y-21334D01*
X-342555Y-23229D01*
X-341306Y-24856D01*
X-339679Y-26105D01*
X-337784Y-26890D01*
X-335750Y-27157D01*
X-331270D01*
Y-19300D01*
X-330000D01*
Y-18030D01*
X-316560D01*
X-316660Y-17266D01*
X-317446Y-15371D01*
X-317633Y-15126D01*
X-317612Y-14927D01*
X-317041Y-13812D01*
X-315241Y-13454D01*
X-313326Y-12174D01*
X-312046Y-10259D01*
X-311650Y-8270D01*
X-317500D01*
Y-5730D01*
X-311650D01*
X-312046Y-3741D01*
X-313326Y-1826D01*
X-315007Y-702D01*
X-315121Y-96D01*
Y96D01*
X-315007Y702D01*
X-313326Y1826D01*
X-312046Y3741D01*
X-311650Y5730D01*
X-317500D01*
Y8270D01*
X-311650D01*
X-312046Y10259D01*
X-313326Y12174D01*
X-315241Y13454D01*
X-317041Y13812D01*
X-317612Y14927D01*
X-317633Y15126D01*
X-317446Y15371D01*
X-316660Y17266D01*
X-316560Y18030D01*
X-330000D01*
Y19300D01*
X-331270D01*
Y27157D01*
X-335750D01*
X-337784Y26890D01*
X-339679Y26105D01*
X-341306Y24856D01*
X-342555Y23229D01*
X-343340Y21334D01*
X-343466Y20370D01*
X-344474Y19597D01*
X-345500Y19732D01*
X-348537Y19333D01*
X-350000Y18727D01*
X-351463Y19333D01*
X-354500Y19732D01*
X-355526Y19597D01*
X-356534Y20370D01*
X-356660Y21334D01*
X-357445Y23229D01*
X-358694Y24856D01*
X-360321Y26105D01*
X-362216Y26890D01*
X-364250Y27157D01*
D02*
G37*
G36*
X658552Y-19710D02*
X656448D01*
X654504Y-20515D01*
X653016Y-22003D01*
X652210Y-23948D01*
Y-26052D01*
X653016Y-27996D01*
X654504Y-29484D01*
X656448Y-30290D01*
X658552D01*
X660497Y-29484D01*
X661985Y-27996D01*
X662790Y-26052D01*
Y-23948D01*
X661985Y-22003D01*
X660497Y-20515D01*
X658552Y-19710D01*
D02*
G37*
G36*
X128052Y-32210D02*
X125948D01*
X124003Y-33015D01*
X122515Y-34504D01*
X121710Y-36448D01*
Y-38552D01*
X122515Y-40497D01*
X124003Y-41985D01*
X125948Y-42790D01*
X128052D01*
X129997Y-41985D01*
X131485Y-40497D01*
X132290Y-38552D01*
Y-36448D01*
X131485Y-34504D01*
X129997Y-33015D01*
X128052Y-32210D01*
D02*
G37*
G36*
X-6448D02*
X-8552D01*
X-10497Y-33015D01*
X-11985Y-34504D01*
X-12790Y-36448D01*
Y-38552D01*
X-11985Y-40497D01*
X-10497Y-41985D01*
X-8552Y-42790D01*
X-6448D01*
X-4503Y-41985D01*
X-3015Y-40497D01*
X-2210Y-38552D01*
Y-36448D01*
X-3015Y-34504D01*
X-4503Y-33015D01*
X-6448Y-32210D01*
D02*
G37*
G36*
X298552Y-47210D02*
X296448D01*
X294503Y-48015D01*
X293258Y-49260D01*
X292500Y-49405D01*
X291741Y-49260D01*
X290497Y-48015D01*
X288552Y-47210D01*
X286448D01*
X284503Y-48015D01*
X283258Y-49260D01*
X282500Y-49405D01*
X281741Y-49260D01*
X280497Y-48015D01*
X278552Y-47210D01*
X276448D01*
X274503Y-48015D01*
X273015Y-49503D01*
X272210Y-51448D01*
Y-53552D01*
X273015Y-55497D01*
X274503Y-56985D01*
X276448Y-57790D01*
X278552D01*
X280497Y-56985D01*
X281741Y-55740D01*
X282500Y-55595D01*
X283258Y-55740D01*
X284503Y-56985D01*
X286448Y-57790D01*
X288552D01*
X290497Y-56985D01*
X291741Y-55740D01*
X292500Y-55595D01*
X293258Y-55740D01*
X294503Y-56985D01*
X296448Y-57790D01*
X298552D01*
X300497Y-56985D01*
X301985Y-55497D01*
X302790Y-53552D01*
Y-51448D01*
X301985Y-49503D01*
X300497Y-48015D01*
X298552Y-47210D01*
D02*
G37*
G36*
X-276448D02*
X-278552D01*
X-280497Y-48015D01*
X-281741Y-49260D01*
X-282500Y-49405D01*
X-283258Y-49260D01*
X-284503Y-48015D01*
X-286448Y-47210D01*
X-288552D01*
X-290497Y-48015D01*
X-291741Y-49260D01*
X-292500Y-49405D01*
X-293258Y-49260D01*
X-294503Y-48015D01*
X-296448Y-47210D01*
X-298552D01*
X-300497Y-48015D01*
X-301985Y-49503D01*
X-302790Y-51448D01*
Y-53552D01*
X-301985Y-55497D01*
X-300497Y-56985D01*
X-298552Y-57790D01*
X-296448D01*
X-294503Y-56985D01*
X-293258Y-55740D01*
X-292500Y-55595D01*
X-291741Y-55740D01*
X-290497Y-56985D01*
X-288552Y-57790D01*
X-286448D01*
X-284503Y-56985D01*
X-283258Y-55740D01*
X-282500Y-55595D01*
X-281741Y-55740D01*
X-280497Y-56985D01*
X-278552Y-57790D01*
X-276448D01*
X-274503Y-56985D01*
X-273015Y-55497D01*
X-272210Y-53552D01*
Y-51448D01*
X-273015Y-49503D01*
X-274503Y-48015D01*
X-276448Y-47210D01*
D02*
G37*
G36*
X-396448Y-37210D02*
X-398552D01*
X-400496Y-38015D01*
X-401985Y-39504D01*
X-402790Y-41448D01*
Y-43552D01*
X-401985Y-45497D01*
X-400740Y-46741D01*
X-400595Y-47500D01*
X-400740Y-48259D01*
X-401985Y-49503D01*
X-402790Y-51448D01*
Y-53552D01*
X-401985Y-55497D01*
X-400740Y-56741D01*
X-400595Y-57500D01*
X-400740Y-58259D01*
X-401985Y-59503D01*
X-402790Y-61448D01*
Y-63552D01*
X-401985Y-65497D01*
X-400496Y-66985D01*
X-398552Y-67790D01*
X-396448D01*
X-394504Y-66985D01*
X-393015Y-65497D01*
X-392210Y-63552D01*
Y-61448D01*
X-393015Y-59503D01*
X-394260Y-58259D01*
X-394405Y-57500D01*
X-394260Y-56741D01*
X-393015Y-55497D01*
X-392210Y-53552D01*
Y-51448D01*
X-393015Y-49503D01*
X-394260Y-48259D01*
X-394405Y-47500D01*
X-394260Y-46741D01*
X-393015Y-45497D01*
X-392210Y-43552D01*
Y-41448D01*
X-393015Y-39504D01*
X-394504Y-38015D01*
X-396448Y-37210D01*
D02*
G37*
G36*
X398552D02*
X396448D01*
X394504Y-38015D01*
X393015Y-39504D01*
X392210Y-41448D01*
Y-43552D01*
X393015Y-45497D01*
X394260Y-46741D01*
X394405Y-47500D01*
X394260Y-48259D01*
X393015Y-49503D01*
X392210Y-51448D01*
Y-53552D01*
X393015Y-55497D01*
X394260Y-56741D01*
X394405Y-57500D01*
X394260Y-58259D01*
X393015Y-59503D01*
X392210Y-61448D01*
Y-63552D01*
X393015Y-65497D01*
X394504Y-66985D01*
X396448Y-67790D01*
X398552D01*
X400496Y-66985D01*
X401985Y-65497D01*
X402790Y-63552D01*
Y-61448D01*
X401985Y-59503D01*
X400740Y-58259D01*
X400595Y-57500D01*
X400740Y-56741D01*
X401985Y-55497D01*
X402790Y-53552D01*
Y-51448D01*
X401985Y-49503D01*
X400740Y-48259D01*
X400595Y-47500D01*
X400740Y-46741D01*
X401985Y-45497D01*
X402790Y-43552D01*
Y-41448D01*
X401985Y-39504D01*
X400496Y-38015D01*
X398552Y-37210D01*
D02*
G37*
G36*
X-534448Y-82210D02*
X-536552D01*
X-538497Y-83015D01*
X-539985Y-84503D01*
X-540790Y-86448D01*
Y-88552D01*
X-539985Y-90497D01*
X-538497Y-91985D01*
X-536552Y-92790D01*
X-534448D01*
X-532504Y-91985D01*
X-531015Y-90497D01*
X-530210Y-88552D01*
Y-86448D01*
X-531015Y-84503D01*
X-532504Y-83015D01*
X-534448Y-82210D01*
D02*
G37*
G36*
X503000Y-89873D02*
X501270D01*
Y-98730D01*
X512960D01*
X512782Y-97379D01*
X511770Y-94937D01*
X510161Y-92839D01*
X508063Y-91230D01*
X505621Y-90218D01*
X503000Y-89873D01*
D02*
G37*
G36*
X498730D02*
X497000D01*
X494379Y-90218D01*
X491937Y-91230D01*
X489839Y-92839D01*
X488230Y-94937D01*
X487218Y-97379D01*
X487040Y-98730D01*
X498730D01*
Y-89873D01*
D02*
G37*
G36*
X512959Y-101270D02*
X501270D01*
Y-110127D01*
X503000D01*
X505621Y-109782D01*
X508063Y-108770D01*
X510161Y-107161D01*
X511770Y-105063D01*
X512782Y-102621D01*
X512959Y-101270D01*
D02*
G37*
G36*
X498730D02*
X487041D01*
X487218Y-102621D01*
X488230Y-105063D01*
X489839Y-107161D01*
X491937Y-108770D01*
X494379Y-109782D01*
X497000Y-110127D01*
X498730D01*
Y-101270D01*
D02*
G37*
G36*
X-383948Y-101970D02*
X-386052D01*
X-387996Y-102775D01*
X-389485Y-104263D01*
X-390290Y-106208D01*
Y-108312D01*
X-389485Y-110257D01*
X-387996Y-111745D01*
X-386052Y-112550D01*
X-383948D01*
X-382004Y-111745D01*
X-380515Y-110257D01*
X-379710Y-108312D01*
Y-106208D01*
X-380515Y-104263D01*
X-382004Y-102775D01*
X-383948Y-101970D01*
D02*
G37*
G36*
X120379Y-133170D02*
X115841D01*
X111390Y-134055D01*
X107197Y-135792D01*
X103423Y-138314D01*
X100214Y-141523D01*
X97692Y-145296D01*
X95955Y-149489D01*
X95070Y-153941D01*
Y-158479D01*
X95955Y-162931D01*
X97692Y-167124D01*
X100214Y-170897D01*
X103423Y-174106D01*
X107197Y-176628D01*
X111390Y-178365D01*
X115841Y-179250D01*
X120379D01*
X124831Y-178365D01*
X129024Y-176628D01*
X132797Y-174106D01*
X136006Y-170897D01*
X138528Y-167124D01*
X140265Y-162931D01*
X141150Y-158479D01*
Y-153941D01*
X140265Y-149489D01*
X138528Y-145296D01*
X136006Y-141523D01*
X132797Y-138314D01*
X129024Y-135792D01*
X124831Y-134055D01*
X120379Y-133170D01*
D02*
G37*
G36*
X-115841D02*
X-120379D01*
X-124831Y-134055D01*
X-129024Y-135792D01*
X-132797Y-138314D01*
X-136006Y-141523D01*
X-138528Y-145296D01*
X-140265Y-149489D01*
X-141150Y-153941D01*
Y-158479D01*
X-140265Y-162931D01*
X-138528Y-167124D01*
X-136006Y-170897D01*
X-132797Y-174106D01*
X-129024Y-176628D01*
X-124831Y-178365D01*
X-120379Y-179250D01*
X-115841D01*
X-111390Y-178365D01*
X-107197Y-176628D01*
X-103423Y-174106D01*
X-100214Y-170897D01*
X-97692Y-167124D01*
X-95955Y-162931D01*
X-95070Y-158479D01*
Y-153941D01*
X-95955Y-149489D01*
X-97692Y-145296D01*
X-100214Y-141523D01*
X-103423Y-138314D01*
X-107197Y-135792D01*
X-111390Y-134055D01*
X-115841Y-133170D01*
D02*
G37*
G36*
X654329Y-181419D02*
X652225D01*
X650281Y-182225D01*
X648792Y-183713D01*
X647987Y-185657D01*
Y-187762D01*
X648395Y-188747D01*
X647410Y-189155D01*
X645922Y-190643D01*
X645116Y-192587D01*
Y-194692D01*
X645525Y-195677D01*
X644539Y-196085D01*
X643051Y-197574D01*
X642246Y-199518D01*
Y-201622D01*
X643051Y-203567D01*
X644539Y-205055D01*
X646484Y-205860D01*
X648588D01*
X650532Y-205055D01*
X652020Y-203567D01*
X652826Y-201622D01*
Y-199518D01*
X652418Y-198533D01*
X653403Y-198124D01*
X654891Y-196636D01*
X655696Y-194692D01*
Y-192587D01*
X655288Y-191602D01*
X656274Y-191194D01*
X657762Y-189706D01*
X658567Y-187762D01*
Y-185657D01*
X657762Y-183713D01*
X656274Y-182225D01*
X654329Y-181419D01*
D02*
G37*
G36*
X169802Y-213210D02*
X167698D01*
X165753Y-214015D01*
X165000Y-214769D01*
X164247Y-214015D01*
X162302Y-213210D01*
X160198D01*
X158253Y-214015D01*
X157500Y-214769D01*
X156747Y-214015D01*
X154802Y-213210D01*
X152698D01*
X150753Y-214015D01*
X150000Y-214769D01*
X149247Y-214015D01*
X147302Y-213210D01*
X145198D01*
X143253Y-214015D01*
X142500Y-214769D01*
X141747Y-214015D01*
X139802Y-213210D01*
X137698D01*
X135753Y-214015D01*
X135000Y-214769D01*
X134247Y-214015D01*
X132302Y-213210D01*
X130198D01*
X128253Y-214015D01*
X127500Y-214769D01*
X126747Y-214015D01*
X124802Y-213210D01*
X122698D01*
X120753Y-214015D01*
X119265Y-215503D01*
X118460Y-217448D01*
Y-219552D01*
X119265Y-221497D01*
X120753Y-222985D01*
X122698Y-223790D01*
X124802D01*
X126747Y-222985D01*
X127500Y-222231D01*
X128253Y-222985D01*
X130198Y-223790D01*
X132302D01*
X134247Y-222985D01*
X135000Y-222231D01*
X135753Y-222985D01*
X137698Y-223790D01*
X139802D01*
X141747Y-222985D01*
X142500Y-222231D01*
X143253Y-222985D01*
X145198Y-223790D01*
X147302D01*
X149247Y-222985D01*
X150000Y-222231D01*
X150753Y-222985D01*
X152698Y-223790D01*
X154802D01*
X156747Y-222985D01*
X157500Y-222231D01*
X158253Y-222985D01*
X160198Y-223790D01*
X162302D01*
X164247Y-222985D01*
X165000Y-222231D01*
X165753Y-222985D01*
X167698Y-223790D01*
X169802D01*
X171747Y-222985D01*
X173235Y-221497D01*
X174040Y-219552D01*
Y-217448D01*
X173235Y-215503D01*
X171747Y-214015D01*
X169802Y-213210D01*
D02*
G37*
G36*
X620544Y-210722D02*
X618439D01*
X616495Y-211528D01*
X615007Y-213016D01*
X614202Y-214960D01*
Y-217064D01*
X615007Y-219009D01*
X616495Y-220497D01*
X618439Y-221302D01*
X620544D01*
X622488Y-220497D01*
X623976Y-219009D01*
X624781Y-217064D01*
Y-214960D01*
X623976Y-213016D01*
X622488Y-211528D01*
X620544Y-210722D01*
D02*
G37*
G36*
X603437Y-206333D02*
X601332D01*
X599388Y-207138D01*
X597900Y-208626D01*
X597094Y-210571D01*
Y-212675D01*
X597502Y-213660D01*
X596518Y-214067D01*
X595030Y-215555D01*
X594224Y-217500D01*
Y-219604D01*
X594632Y-220589D01*
X593648Y-220996D01*
X592160Y-222484D01*
X591354Y-224429D01*
Y-226533D01*
X592160Y-228478D01*
X593648Y-229966D01*
X595592Y-230771D01*
X597696D01*
X599641Y-229966D01*
X601129Y-228478D01*
X601934Y-226533D01*
Y-224429D01*
X601526Y-223444D01*
X602511Y-223037D01*
X603999Y-221549D01*
X604804Y-219604D01*
Y-217500D01*
X604397Y-216515D01*
X605381Y-216108D01*
X606869Y-214619D01*
X607674Y-212675D01*
Y-210571D01*
X606869Y-208626D01*
X605381Y-207138D01*
X603437Y-206333D01*
D02*
G37*
G36*
X666738Y-229856D02*
X664633D01*
X662689Y-230662D01*
X661201Y-232150D01*
X660396Y-234094D01*
Y-236199D01*
X661201Y-238143D01*
X662689Y-239631D01*
X664633Y-240436D01*
X666738D01*
X668682Y-239631D01*
X670170Y-238143D01*
X670975Y-236199D01*
Y-234094D01*
X670170Y-232150D01*
X668682Y-230662D01*
X666738Y-229856D01*
D02*
G37*
G36*
X652155Y-245464D02*
X650051D01*
X648106Y-246269D01*
X646618Y-247757D01*
X645813Y-249701D01*
Y-251806D01*
X646618Y-253750D01*
X648106Y-255238D01*
X650051Y-256044D01*
X652155D01*
X654099Y-255238D01*
X655587Y-253750D01*
X656393Y-251806D01*
Y-249701D01*
X655587Y-247757D01*
X654099Y-246269D01*
X652155Y-245464D01*
D02*
G37*
G36*
X-652133Y-227394D02*
X-654237D01*
X-656182Y-228200D01*
X-657670Y-229688D01*
X-658475Y-231632D01*
Y-233736D01*
X-657670Y-235681D01*
X-656182Y-237169D01*
X-654555Y-237843D01*
X-654131Y-238488D01*
X-653975Y-239244D01*
X-654648Y-240871D01*
Y-242975D01*
X-653843Y-244919D01*
X-652355Y-246408D01*
X-650728Y-247081D01*
X-650304Y-247727D01*
X-650148Y-248483D01*
X-650822Y-250110D01*
Y-252214D01*
X-650016Y-254158D01*
X-648528Y-255646D01*
X-646584Y-256452D01*
X-644480D01*
X-642535Y-255646D01*
X-641047Y-254158D01*
X-640242Y-252214D01*
Y-250110D01*
X-641047Y-248165D01*
X-642535Y-246677D01*
X-644162Y-246003D01*
X-644586Y-245358D01*
X-644742Y-244602D01*
X-644068Y-242975D01*
Y-240871D01*
X-644874Y-238926D01*
X-646362Y-237438D01*
X-647988Y-236765D01*
X-648412Y-236119D01*
X-648569Y-235363D01*
X-647895Y-233736D01*
Y-231632D01*
X-648700Y-229688D01*
X-650189Y-228200D01*
X-652133Y-227394D01*
D02*
G37*
G36*
X-156585Y-245268D02*
X-159516D01*
X-162347Y-246026D01*
X-164885Y-247492D01*
X-166958Y-249565D01*
X-168424Y-252103D01*
X-169182Y-254934D01*
Y-257865D01*
X-168424Y-260697D01*
X-166958Y-263235D01*
X-164885Y-265308D01*
X-162347Y-266773D01*
X-159516Y-267532D01*
X-156585D01*
X-153753Y-266773D01*
X-151215Y-265308D01*
X-149142Y-263235D01*
X-147677Y-260697D01*
X-146918Y-257865D01*
Y-254934D01*
X-147677Y-252103D01*
X-149142Y-249565D01*
X-151215Y-247492D01*
X-153753Y-246026D01*
X-156585Y-245268D01*
D02*
G37*
G36*
X-181985D02*
X-184916D01*
X-187747Y-246026D01*
X-190285Y-247492D01*
X-192358Y-249565D01*
X-193824Y-252103D01*
X-194582Y-254934D01*
Y-257865D01*
X-193824Y-260697D01*
X-192358Y-263235D01*
X-190285Y-265308D01*
X-187747Y-266773D01*
X-184916Y-267532D01*
X-181985D01*
X-179153Y-266773D01*
X-176615Y-265308D01*
X-174542Y-263235D01*
X-173077Y-260697D01*
X-172318Y-257865D01*
Y-254934D01*
X-173077Y-252103D01*
X-174542Y-249565D01*
X-176615Y-247492D01*
X-179153Y-246026D01*
X-181985Y-245268D01*
D02*
G37*
G36*
X-220085D02*
X-223016D01*
X-225847Y-246026D01*
X-228385Y-247492D01*
X-230458Y-249565D01*
X-231924Y-252103D01*
X-232682Y-254934D01*
Y-257865D01*
X-231924Y-260697D01*
X-230458Y-263235D01*
X-228385Y-265308D01*
X-225847Y-266773D01*
X-223016Y-267532D01*
X-220085D01*
X-217253Y-266773D01*
X-214715Y-265308D01*
X-212642Y-263235D01*
X-211177Y-260697D01*
X-210418Y-257865D01*
Y-254934D01*
X-211177Y-252103D01*
X-212642Y-249565D01*
X-214715Y-247492D01*
X-217253Y-246026D01*
X-220085Y-245268D01*
D02*
G37*
G36*
X-245485D02*
X-248416D01*
X-251247Y-246026D01*
X-253785Y-247492D01*
X-255858Y-249565D01*
X-257323Y-252103D01*
X-258082Y-254934D01*
Y-257865D01*
X-257323Y-260697D01*
X-255858Y-263235D01*
X-253785Y-265308D01*
X-251247Y-266773D01*
X-248416Y-267532D01*
X-245485D01*
X-242653Y-266773D01*
X-240115Y-265308D01*
X-238042Y-263235D01*
X-236577Y-260697D01*
X-235818Y-257865D01*
Y-254934D01*
X-236577Y-252103D01*
X-238042Y-249565D01*
X-240115Y-247492D01*
X-242653Y-246026D01*
X-245485Y-245268D01*
D02*
G37*
G36*
X303493Y-262460D02*
X301507D01*
X299590Y-262974D01*
X297870Y-263967D01*
X296467Y-265370D01*
X295474Y-267090D01*
X294960Y-269007D01*
Y-270993D01*
X295474Y-272910D01*
X296467Y-274630D01*
X297870Y-276033D01*
X299590Y-277026D01*
X301507Y-277540D01*
X303493D01*
X305410Y-277026D01*
X307130Y-276033D01*
X308533Y-274630D01*
X309526Y-272910D01*
X310040Y-270993D01*
Y-269007D01*
X309526Y-267090D01*
X308533Y-265370D01*
X307130Y-263967D01*
X305410Y-262974D01*
X303493Y-262460D01*
D02*
G37*
G36*
X576266Y-265415D02*
X574162D01*
X572217Y-266220D01*
X570729Y-267708D01*
X569924Y-269653D01*
Y-271757D01*
X570729Y-273701D01*
X572217Y-275189D01*
X574162Y-275995D01*
X576266D01*
X577234Y-275594D01*
X577645Y-276585D01*
X579133Y-278073D01*
X581077Y-278878D01*
X583182D01*
X584166Y-278471D01*
X584574Y-279455D01*
X586062Y-280943D01*
X588006Y-281749D01*
X590111D01*
X592055Y-280943D01*
X593543Y-279455D01*
X594348Y-277511D01*
Y-275406D01*
X593543Y-273462D01*
X592055Y-271974D01*
X590111Y-271169D01*
X588006D01*
X587022Y-271576D01*
X586614Y-270592D01*
X585126Y-269104D01*
X583182Y-268298D01*
X581077D01*
X580109Y-268699D01*
X579698Y-267708D01*
X578210Y-266220D01*
X576266Y-265415D01*
D02*
G37*
G36*
X661230Y-262752D02*
X659125D01*
X657181Y-263558D01*
X655693Y-265046D01*
X654887Y-266990D01*
Y-269095D01*
X655561Y-270721D01*
X655405Y-271478D01*
X654981Y-272123D01*
X653354Y-272797D01*
X651866Y-274285D01*
X651061Y-276229D01*
Y-278334D01*
X651866Y-280278D01*
X653354Y-281766D01*
X655298Y-282571D01*
X657403D01*
X659347Y-281766D01*
X660835Y-280278D01*
X661641Y-278334D01*
Y-276229D01*
X660967Y-274603D01*
X661123Y-273846D01*
X661547Y-273201D01*
X663174Y-272527D01*
X664662Y-271039D01*
X665467Y-269095D01*
Y-266990D01*
X664662Y-265046D01*
X663174Y-263558D01*
X661230Y-262752D01*
D02*
G37*
G36*
X-659125D02*
X-661230D01*
X-663174Y-263558D01*
X-664662Y-265046D01*
X-665467Y-266990D01*
Y-269095D01*
X-664662Y-271039D01*
X-663174Y-272527D01*
X-661547Y-273201D01*
X-661123Y-273847D01*
X-660967Y-274603D01*
X-661641Y-276229D01*
Y-278334D01*
X-660835Y-280278D01*
X-659347Y-281766D01*
X-657403Y-282571D01*
X-655299D01*
X-653354Y-281766D01*
X-651866Y-280278D01*
X-651061Y-278334D01*
Y-276229D01*
X-651866Y-274285D01*
X-653354Y-272797D01*
X-654981Y-272123D01*
X-655405Y-271477D01*
X-655561Y-270721D01*
X-654887Y-269095D01*
Y-266990D01*
X-655693Y-265046D01*
X-657181Y-263558D01*
X-659125Y-262752D01*
D02*
G37*
G36*
X-589743Y-280025D02*
X-591847D01*
X-593792Y-280830D01*
X-595280Y-282318D01*
X-596085Y-284263D01*
Y-286367D01*
X-595280Y-288311D01*
X-593792Y-289799D01*
X-591847Y-290605D01*
X-589743D01*
X-587799Y-289799D01*
X-586311Y-288311D01*
X-585505Y-286367D01*
Y-284263D01*
X-586311Y-282318D01*
X-587799Y-280830D01*
X-589743Y-280025D01*
D02*
G37*
G36*
X-68948Y-289210D02*
X-71052D01*
X-72997Y-290015D01*
X-74485Y-291503D01*
X-75290Y-293448D01*
Y-295552D01*
X-74485Y-297496D01*
X-72997Y-298985D01*
X-71052Y-299790D01*
X-68948D01*
X-67003Y-298985D01*
X-65515Y-297496D01*
X-64710Y-295552D01*
Y-293448D01*
X-65515Y-291503D01*
X-67003Y-290015D01*
X-68948Y-289210D01*
D02*
G37*
G36*
X635099Y-273577D02*
X632994D01*
X631050Y-274382D01*
X629562Y-275870D01*
X628756Y-277814D01*
Y-279919D01*
X629430Y-281545D01*
X629273Y-282302D01*
X628849Y-282947D01*
X627223Y-283621D01*
X625735Y-285109D01*
X624929Y-287053D01*
Y-289158D01*
X625603Y-290784D01*
X625447Y-291540D01*
X625023Y-292186D01*
X623396Y-292859D01*
X621908Y-294347D01*
X621102Y-296292D01*
Y-298396D01*
X621908Y-300340D01*
X623396Y-301829D01*
X625340Y-302634D01*
X627445D01*
X629389Y-301829D01*
X630877Y-300340D01*
X631683Y-298396D01*
Y-296292D01*
X631009Y-294665D01*
X631165Y-293909D01*
X631589Y-293264D01*
X633216Y-292590D01*
X634704Y-291102D01*
X635509Y-289158D01*
Y-287053D01*
X634836Y-285427D01*
X634992Y-284670D01*
X635416Y-284025D01*
X637043Y-283351D01*
X638531Y-281863D01*
X639336Y-279919D01*
Y-277814D01*
X638531Y-275870D01*
X638015Y-275354D01*
X637043Y-274382D01*
X635099Y-273577D01*
D02*
G37*
G36*
X27248Y-277710D02*
X23552D01*
X19981Y-278667D01*
X16779Y-280515D01*
X14165Y-283129D01*
X12317Y-286331D01*
X11360Y-289902D01*
Y-293598D01*
X12317Y-297169D01*
X14165Y-300371D01*
X16779Y-302985D01*
X19981Y-304833D01*
X23552Y-305790D01*
X27248D01*
X30819Y-304833D01*
X34021Y-302985D01*
X36635Y-300371D01*
X38483Y-297169D01*
X39440Y-293598D01*
Y-289902D01*
X38483Y-286331D01*
X36635Y-283129D01*
X34021Y-280515D01*
X30819Y-278667D01*
X27248Y-277710D01*
D02*
G37*
G36*
X647129Y-316434D02*
X645024D01*
X645021Y-316436D01*
X645007D01*
X643062Y-317241D01*
X641574Y-318729D01*
X640769Y-320674D01*
Y-322778D01*
X641574Y-324723D01*
X643062Y-326211D01*
X643767Y-326502D01*
X643475Y-327207D01*
Y-329311D01*
X644280Y-331255D01*
X645768Y-332743D01*
X647713Y-333549D01*
X649817D01*
X649821Y-333547D01*
X649835D01*
X651779Y-332742D01*
X653267Y-331254D01*
X654073Y-329309D01*
Y-327205D01*
X653267Y-325261D01*
X651779Y-323773D01*
X651075Y-323481D01*
X651367Y-322777D01*
Y-320672D01*
X650561Y-318728D01*
X649073Y-317240D01*
X647129Y-316434D01*
D02*
G37*
G36*
X-598654Y-310774D02*
X-600758D01*
X-602703Y-311580D01*
X-604191Y-313068D01*
X-604996Y-315012D01*
Y-317116D01*
X-604191Y-319061D01*
X-602703Y-320549D01*
X-601717Y-320957D01*
X-602126Y-321942D01*
Y-324047D01*
X-601320Y-325991D01*
X-599832Y-327479D01*
X-598847Y-327887D01*
X-599255Y-328873D01*
Y-330977D01*
X-598450Y-332921D01*
X-596962Y-334410D01*
X-595017Y-335215D01*
X-592913D01*
X-590968Y-334410D01*
X-589480Y-332921D01*
X-588675Y-330977D01*
Y-328873D01*
X-589480Y-326928D01*
X-590968Y-325440D01*
X-591954Y-325032D01*
X-591546Y-324047D01*
Y-321942D01*
X-592351Y-319998D01*
X-593839Y-318510D01*
X-594824Y-318102D01*
X-594416Y-317116D01*
Y-315012D01*
X-595221Y-313068D01*
X-596710Y-311580D01*
X-598654Y-310774D01*
D02*
G37*
G36*
X458904Y-427813D02*
X456800D01*
X454855Y-428619D01*
X453367Y-430107D01*
X452562Y-432051D01*
Y-434155D01*
X453367Y-436100D01*
X454855Y-437588D01*
X456800Y-438393D01*
X458904D01*
X460848Y-437588D01*
X462337Y-436100D01*
X463142Y-434155D01*
Y-432051D01*
X462337Y-430107D01*
X460848Y-428619D01*
X458904Y-427813D01*
D02*
G37*
G36*
X-432052Y-452562D02*
X-434156D01*
X-436100Y-453367D01*
X-437588Y-454855D01*
X-438394Y-456799D01*
Y-458904D01*
X-437588Y-460848D01*
X-436100Y-462336D01*
X-434156Y-463142D01*
X-432052D01*
X-430107Y-462336D01*
X-428619Y-460848D01*
X-427814Y-458904D01*
Y-456799D01*
X-428619Y-454855D01*
X-430107Y-453367D01*
X-432052Y-452562D01*
D02*
G37*
G36*
X-474969Y-453657D02*
X-479625D01*
X-484193Y-454566D01*
X-488495Y-456348D01*
X-492367Y-458935D01*
X-495659Y-462227D01*
X-498246Y-466099D01*
X-500028Y-470401D01*
X-500937Y-474969D01*
Y-479625D01*
X-500028Y-484193D01*
X-498246Y-488495D01*
X-495659Y-492367D01*
X-492367Y-495659D01*
X-488495Y-498246D01*
X-484193Y-500028D01*
X-479625Y-500937D01*
X-474969D01*
X-470401Y-500028D01*
X-466099Y-498246D01*
X-462227Y-495659D01*
X-458935Y-492367D01*
X-456348Y-488495D01*
X-454566Y-484193D01*
X-453657Y-479625D01*
Y-474969D01*
X-454566Y-470401D01*
X-456348Y-466099D01*
X-458935Y-462227D01*
X-462227Y-458935D01*
X-466099Y-456348D01*
X-470401Y-454566D01*
X-474969Y-453657D01*
D02*
G37*
G36*
X483161Y-457192D02*
X478504D01*
X473937Y-458101D01*
X469635Y-459883D01*
X465763Y-462470D01*
X462470Y-465763D01*
X459883Y-469635D01*
X458101Y-473937D01*
X457192Y-478504D01*
Y-483161D01*
X458101Y-487728D01*
X459883Y-492030D01*
X462470Y-495902D01*
X465763Y-499195D01*
X469635Y-501782D01*
X473937Y-503564D01*
X478504Y-504473D01*
X483161D01*
X487728Y-503564D01*
X492030Y-501782D01*
X495902Y-499195D01*
X499195Y-495902D01*
X501782Y-492030D01*
X503564Y-487728D01*
X504473Y-483161D01*
Y-478504D01*
X503564Y-473937D01*
X501782Y-469635D01*
X499195Y-465763D01*
X495902Y-462470D01*
X492030Y-459883D01*
X487728Y-458101D01*
X483161Y-457192D01*
D02*
G37*
G36*
X330977Y-588675D02*
X328873D01*
X326928Y-589480D01*
X325440Y-590968D01*
X325032Y-591954D01*
X324047Y-591546D01*
X321942D01*
X319998Y-592351D01*
X318510Y-593839D01*
X318102Y-594824D01*
X317116Y-594416D01*
X315012D01*
X313068Y-595221D01*
X311580Y-596710D01*
X310774Y-598654D01*
Y-600758D01*
X311580Y-602703D01*
X313068Y-604191D01*
X315012Y-604996D01*
X317116D01*
X319061Y-604191D01*
X320549Y-602703D01*
X320957Y-601717D01*
X321942Y-602126D01*
X324047D01*
X325991Y-601320D01*
X327479Y-599832D01*
X327887Y-598847D01*
X328873Y-599255D01*
X330977D01*
X332921Y-598450D01*
X334410Y-596962D01*
X335215Y-595017D01*
Y-592913D01*
X334410Y-590968D01*
X332921Y-589480D01*
X330977Y-588675D01*
D02*
G37*
G36*
X286367Y-585505D02*
X284263D01*
X282318Y-586311D01*
X280830Y-587799D01*
X280025Y-589743D01*
Y-591847D01*
X280830Y-593792D01*
X282318Y-595280D01*
X284263Y-596085D01*
X286367D01*
X288311Y-595280D01*
X289799Y-593792D01*
X290605Y-591847D01*
Y-589743D01*
X289799Y-587799D01*
X288311Y-586311D01*
X286367Y-585505D01*
D02*
G37*
G36*
X-214960Y-614202D02*
X-217064D01*
X-219009Y-615007D01*
X-220497Y-616495D01*
X-221302Y-618439D01*
Y-620544D01*
X-220497Y-622488D01*
X-219009Y-623976D01*
X-217064Y-624781D01*
X-214960D01*
X-213016Y-623976D01*
X-211528Y-622488D01*
X-210722Y-620544D01*
Y-618439D01*
X-211528Y-616495D01*
X-213016Y-615007D01*
X-214960Y-614202D01*
D02*
G37*
G36*
X18552Y-624710D02*
X16448D01*
X14504Y-625515D01*
X13015Y-627004D01*
X12210Y-628948D01*
Y-631052D01*
X13015Y-632996D01*
X14504Y-634485D01*
X16448Y-635290D01*
X18552D01*
X20496Y-634485D01*
X21985Y-632996D01*
X22790Y-631052D01*
Y-628948D01*
X21985Y-627004D01*
X20496Y-625515D01*
X18552Y-624710D01*
D02*
G37*
G36*
X-296292Y-621102D02*
X-298396D01*
X-300340Y-621908D01*
X-301829Y-623396D01*
X-302634Y-625340D01*
Y-627445D01*
X-301829Y-629389D01*
X-300340Y-630877D01*
X-298396Y-631683D01*
X-296292D01*
X-294665Y-631009D01*
X-293909Y-631165D01*
X-293264Y-631589D01*
X-292590Y-633216D01*
X-291102Y-634704D01*
X-289158Y-635509D01*
X-287053D01*
X-285427Y-634836D01*
X-284670Y-634992D01*
X-284025Y-635416D01*
X-283351Y-637043D01*
X-281863Y-638531D01*
X-279919Y-639336D01*
X-277814D01*
X-275870Y-638531D01*
X-274382Y-637043D01*
X-273577Y-635099D01*
Y-632994D01*
X-274382Y-631050D01*
X-275870Y-629562D01*
X-277814Y-628756D01*
X-279919D01*
X-281545Y-629430D01*
X-282302Y-629273D01*
X-282947Y-628849D01*
X-283621Y-627223D01*
X-285109Y-625735D01*
X-287053Y-624929D01*
X-289158D01*
X-290784Y-625603D01*
X-291540Y-625447D01*
X-292186Y-625023D01*
X-292859Y-623396D01*
X-294347Y-621908D01*
X-296292Y-621102D01*
D02*
G37*
G36*
X-320674Y-640769D02*
X-322778D01*
X-324723Y-641574D01*
X-326211Y-643062D01*
X-326502Y-643767D01*
X-327207Y-643475D01*
X-329311D01*
X-331255Y-644280D01*
X-332743Y-645768D01*
X-333549Y-647713D01*
Y-649817D01*
X-332743Y-651761D01*
X-331255Y-653250D01*
X-329311Y-654055D01*
X-327207D01*
X-325262Y-653250D01*
X-323774Y-651761D01*
X-323483Y-651057D01*
X-322778Y-651349D01*
X-320674D01*
X-318729Y-650544D01*
X-317241Y-649055D01*
X-316436Y-647111D01*
Y-645007D01*
X-317241Y-643062D01*
X-318729Y-641574D01*
X-320674Y-640769D01*
D02*
G37*
G36*
X252214Y-640242D02*
X250110D01*
X248165Y-641047D01*
X246677Y-642535D01*
X246003Y-644162D01*
X245358Y-644586D01*
X244602Y-644742D01*
X242975Y-644068D01*
X240871D01*
X238926Y-644874D01*
X237438Y-646362D01*
X236765Y-647988D01*
X236119Y-648412D01*
X235363Y-648569D01*
X233736Y-647895D01*
X231632D01*
X229688Y-648700D01*
X228200Y-650189D01*
X227394Y-652133D01*
Y-654237D01*
X228200Y-656182D01*
X229688Y-657670D01*
X231632Y-658475D01*
X233736D01*
X235681Y-657670D01*
X237169Y-656182D01*
X237843Y-654555D01*
X238488Y-654131D01*
X239244Y-653975D01*
X240871Y-654648D01*
X242975D01*
X244919Y-653843D01*
X246408Y-652355D01*
X247081Y-650728D01*
X247727Y-650304D01*
X248483Y-650148D01*
X250110Y-650822D01*
X252214D01*
X254158Y-650016D01*
X255646Y-648528D01*
X256452Y-646584D01*
Y-644480D01*
X255646Y-642535D01*
X254158Y-641047D01*
X252214Y-640242D01*
D02*
G37*
G36*
X278334Y-651061D02*
X276229D01*
X274285Y-651866D01*
X272797Y-653354D01*
X272123Y-654981D01*
X271477Y-655405D01*
X270721Y-655561D01*
X269095Y-654887D01*
X266990D01*
X265046Y-655693D01*
X263558Y-657181D01*
X262752Y-659125D01*
Y-661230D01*
X263558Y-663174D01*
X265046Y-664662D01*
X266990Y-665467D01*
X269095D01*
X271039Y-664662D01*
X272527Y-663174D01*
X273201Y-661547D01*
X273847Y-661123D01*
X274603Y-660967D01*
X276229Y-661641D01*
X278334D01*
X280278Y-660835D01*
X281766Y-659347D01*
X282571Y-657403D01*
Y-655299D01*
X281766Y-653354D01*
X280278Y-651866D01*
X278334Y-651061D01*
D02*
G37*
G36*
X-249701Y-645813D02*
X-251806D01*
X-253750Y-646618D01*
X-255238Y-648106D01*
X-256044Y-650051D01*
Y-652155D01*
X-255238Y-654099D01*
X-253750Y-655587D01*
X-251806Y-656393D01*
X-249701D01*
X-247757Y-655587D01*
X-246269Y-654099D01*
X-245464Y-652155D01*
Y-650051D01*
X-246269Y-648106D01*
X-247757Y-646618D01*
X-249701Y-645813D01*
D02*
G37*
G36*
X-199518Y-642246D02*
X-201622D01*
X-203567Y-643051D01*
X-205055Y-644539D01*
X-205860Y-646484D01*
Y-648588D01*
X-205055Y-650532D01*
X-203567Y-652020D01*
X-201622Y-652826D01*
X-199518D01*
X-198533Y-652418D01*
X-198124Y-653403D01*
X-196636Y-654891D01*
X-194692Y-655696D01*
X-192587D01*
X-191602Y-655288D01*
X-191194Y-656274D01*
X-189706Y-657762D01*
X-187762Y-658567D01*
X-185657D01*
X-183713Y-657762D01*
X-182225Y-656274D01*
X-181419Y-654329D01*
Y-652225D01*
X-182225Y-650281D01*
X-183713Y-648792D01*
X-185657Y-647987D01*
X-187762D01*
X-188747Y-648395D01*
X-189155Y-647410D01*
X-190643Y-645922D01*
X-192587Y-645116D01*
X-194692D01*
X-195677Y-645525D01*
X-196085Y-644539D01*
X-197574Y-643051D01*
X-199518Y-642246D01*
D02*
G37*
G36*
X-276229Y-651061D02*
X-278334D01*
X-280278Y-651866D01*
X-281766Y-653354D01*
X-282571Y-655298D01*
Y-657403D01*
X-281766Y-659347D01*
X-280278Y-660835D01*
X-278334Y-661641D01*
X-276229D01*
X-274603Y-660967D01*
X-273846Y-661123D01*
X-273201Y-661547D01*
X-272527Y-663174D01*
X-271039Y-664662D01*
X-269095Y-665467D01*
X-266990D01*
X-265046Y-664662D01*
X-263558Y-663174D01*
X-262752Y-661230D01*
Y-659125D01*
X-263558Y-657181D01*
X-265046Y-655693D01*
X-266990Y-654887D01*
X-269095D01*
X-270721Y-655561D01*
X-271478Y-655405D01*
X-272123Y-654981D01*
X-272797Y-653354D01*
X-274285Y-651866D01*
X-276229Y-651061D01*
D02*
G37*
G36*
X-234094Y-660396D02*
X-236199D01*
X-238143Y-661201D01*
X-239631Y-662689D01*
X-240436Y-664633D01*
Y-666738D01*
X-239631Y-668682D01*
X-238143Y-670170D01*
X-236199Y-670975D01*
X-234094D01*
X-232150Y-670170D01*
X-230662Y-668682D01*
X-229856Y-666738D01*
Y-664633D01*
X-230662Y-662689D01*
X-232150Y-661201D01*
X-234094Y-660396D01*
D02*
G37*
%LPD*%
D10*
X-109924Y-562113D02*
G03*
X-114724Y-586648I-2400J-12268D01*
G01*
X-47045Y-595906D02*
G03*
X-45078Y-570983I984J12461D01*
G01*
X-109924Y-562113D02*
G03*
X-45078Y-570983I109924J562113D01*
G01*
X-114724Y-586648D02*
G03*
X-47045Y-595906I114724J586648D01*
G01*
X-345493Y-456824D02*
G03*
X-291590Y-492980I345493J456824D01*
G01*
X360236Y-445291D02*
G03*
X365000Y-433789I-11502J11502D01*
G01*
X384651Y-457559D02*
G03*
X390000Y-444646I-12913J12913D01*
G01*
X377500Y-415000D02*
G03*
X365000Y-427500I0J-12500D01*
G01*
X390000D02*
G03*
X377500Y-415000I-12500J0D01*
G01*
X265110Y-507711D02*
G03*
X276681Y-529872I5785J-11081D01*
G01*
X47045Y-595906D02*
G03*
X84886Y-591702I-47045J595906D01*
G01*
X45078Y-570983D02*
G03*
X81336Y-566955I-45078J570983D01*
G01*
X84886Y-591702D02*
G03*
X81336Y-566955I-1775J12373D01*
G01*
X265110Y-507711D02*
G03*
X360236Y-445291I-265110J507711D01*
G01*
X276681Y-529872D02*
G03*
X384651Y-457559I-276681J529872D01*
G01*
X45078Y-570983D02*
G03*
X47045Y-595906I984J-12461D01*
G01*
X-372571Y-467472D02*
G03*
X-299807Y-517161I372559J467458D01*
G01*
D02*
G03*
X-288036Y-495107I6017J10956D01*
G01*
X-352404Y-445290D02*
G03*
X-347540Y-455262I12655J-0D01*
G01*
X-377435Y-457500D02*
G03*
X-372571Y-467472I12655J-0D01*
G01*
X-373965Y-376465D02*
G03*
X-377500Y-385000I8536J-8536D01*
G01*
X-338572Y-376428D02*
G03*
X-338572Y-358750I-8839J8839D01*
G01*
D02*
G03*
X-356250Y-358750I-8839J-8839D01*
G01*
X-349929Y-387784D02*
G03*
X-352404Y-393759I5975J-5975D01*
G01*
X357500Y-392500D02*
G03*
X370000Y-380000I0J12500D01*
G01*
D02*
G03*
X357500Y-367500I-12500J0D01*
G01*
X135000D02*
G03*
X122500Y-380000I0J-12500D01*
G01*
D02*
G03*
X135000Y-392500I12500J0D01*
G01*
X-283741Y-325096D02*
G03*
X-289716Y-327571I0J-8449D01*
G01*
X-318750Y-321250D02*
G03*
X-318750Y-338928I8839J-8839D01*
G01*
D02*
G03*
X-301072Y-338928I8839J8839D01*
G01*
X-292500Y-300000D02*
G03*
X-301035Y-303535I0J-12071D01*
G01*
X-131465D02*
G03*
X-140000Y-300000I-8536J-8536D01*
G01*
X-131428Y-338928D02*
G03*
X-113750Y-338928I8839J8839D01*
G01*
D02*
G03*
X-113750Y-321250I-8839J8839D01*
G01*
X-142784Y-327571D02*
G03*
X-148759Y-325096I-5975J-5975D01*
G01*
X-69716Y-364929D02*
G03*
X-63741Y-367404I5975J5975D01*
G01*
X87500Y-392500D02*
G03*
X100000Y-380000I0J12500D01*
G01*
D02*
G03*
X87500Y-367500I-12500J0D01*
G01*
X-98750Y-353572D02*
G03*
X-98750Y-371250I8839J-8839D01*
G01*
X-81072Y-353572D02*
G03*
X-98750Y-353572I-8839J-8839D01*
G01*
X-81035Y-388965D02*
G03*
X-72500Y-392500I8536J8536D01*
G01*
X750000Y0D02*
G03*
X750000Y0I-750000J0D01*
G01*
X-347540Y-455262D02*
X-345493Y-456824D01*
X-291590Y-492980D02*
X-288036Y-495107D01*
X365000Y-433789D02*
Y-427500D01*
X390000Y-444646D02*
Y-427500D01*
X135000Y-367500D02*
X357500D01*
X-352404Y-445290D02*
Y-393759D01*
X-377500Y-385000D02*
X-377435Y-457500D01*
X-373965Y-376465D02*
X-356250Y-358750D01*
X-349929Y-387784D02*
X-338572Y-376428D01*
X135000Y-392500D02*
X357500D01*
X-301072Y-338928D02*
X-289716Y-327571D01*
X-318750Y-321250D02*
X-301035Y-303535D01*
X-283741Y-325010D02*
X-148759Y-325096D01*
X-131465Y-303535D02*
X-113750Y-321250D01*
X-292500Y-300000D02*
X-140000Y-300000D01*
X-142784Y-327571D02*
X-131428Y-338928D01*
X-81072Y-353572D02*
X-69716Y-364929D01*
X-72500Y-392500D02*
X87500D01*
X-98750Y-371250D02*
X-81035Y-388965D01*
X-63741Y-367404D02*
X87500Y-367500D01*
D15*
X382500Y-7000D02*
Y7000D01*
X330000Y19300D02*
X370000D01*
X330000Y-19300D02*
X370000D01*
X-382500Y-7000D02*
Y7000D01*
D107*
X621546Y276404D02*
X621546Y276404D01*
X578766Y288285D02*
X606602Y299815D01*
X-276404Y621546D02*
X-276404Y621546D01*
X-244069Y634940D02*
X-224934Y588746D01*
X-276404Y621546D02*
X-223281Y643550D01*
X-224934Y588746D02*
X-224934Y588746D01*
X-657012Y-223445D02*
X-650083Y-220575D01*
X-643550Y-223281D01*
X-612935Y-297192D02*
X-606602Y-299815D01*
X-578766Y-288285D01*
X-621546Y-276404D02*
X-621546Y-276404D01*
X-643550Y-223281D02*
X-621546Y-276404D01*
X-612935Y-297192D01*
X-588746Y-224934D02*
X-588746Y-224934D01*
X-634940Y-244069D02*
X-588746Y-224934D01*
X-621541Y276393D02*
X-575347Y257258D01*
X-643545Y223270D02*
X-634935Y244057D01*
X-640922Y216936D02*
X-613086Y205406D01*
X-643545Y223270D02*
X-640922Y216936D01*
X-615637Y303713D02*
X-612931Y297180D01*
X-622566Y306583D02*
X-615637Y303713D01*
X-633978Y246367D02*
X-621541Y276393D01*
X-634935Y244057D02*
X-633978Y246367D01*
X-621541Y276393D02*
X-612931Y297180D01*
X-643217Y250194D02*
X-640907Y249237D01*
X-575347Y257258D02*
X-575347Y257258D01*
X-640907Y249237D02*
X-633978Y246367D01*
X-223445Y657012D02*
X-220575Y650083D01*
X-223281Y643550D02*
X-220575Y650083D01*
X-299815Y606602D02*
X-297192Y612935D01*
X-299815Y606602D02*
X-288285Y578766D01*
X-297192Y612935D02*
X-276404Y621546D01*
X257258Y575347D02*
X276393Y621541D01*
X223270Y643545D02*
X244057Y634935D01*
X205406Y613086D02*
X216936Y640922D01*
X223270Y643545D01*
X297180Y612931D02*
X303713Y615637D01*
X306583Y622566D01*
X246367Y633978D02*
X276393Y621541D01*
X244057Y634935D02*
X246367Y633978D01*
X276393Y621541D02*
X297180Y612931D01*
X249237Y640907D02*
X250194Y643217D01*
X257258Y575347D02*
X257258Y575347D01*
X246367Y633978D02*
X249237Y640907D01*
X650083Y220575D02*
X657012Y223445D01*
X643550Y223281D02*
X650083Y220575D01*
X606602Y299815D02*
X612935Y297192D01*
X621546Y276404D02*
X643550Y223281D01*
X612935Y297192D02*
X621546Y276404D01*
X588746Y224934D02*
X588746Y224934D01*
X634940Y244069D01*
X575347Y-257258D02*
X621541Y-276393D01*
X634935Y-244057D02*
X643545Y-223270D01*
X613086Y-205406D02*
X640922Y-216936D01*
X643545Y-223270D01*
X612931Y-297180D02*
X615637Y-303713D01*
X622566Y-306583D01*
X621541Y-276393D02*
X633978Y-246367D01*
X634935Y-244057D01*
X612931Y-297180D02*
X621541Y-276393D01*
X640907Y-249237D02*
X643217Y-250194D01*
X575347Y-257258D02*
X575347Y-257258D01*
X633978Y-246367D02*
X640907Y-249237D01*
X-249237Y-640907D02*
X-246367Y-633978D01*
X-257258Y-575347D02*
X-257258Y-575347D01*
X-250194Y-643217D02*
X-249237Y-640907D01*
X-297180Y-612931D02*
X-276393Y-621541D01*
X-246367Y-633978D02*
X-244057Y-634935D01*
X-276393Y-621541D02*
X-246367Y-633978D01*
X-306583Y-622566D02*
X-303713Y-615637D01*
X-297180Y-612931D01*
X-223270Y-643545D02*
X-216936Y-640922D01*
X-205406Y-613086D01*
X-244057Y-634935D02*
X-223270Y-643545D01*
X-276393Y-621541D02*
X-257258Y-575347D01*
X224934Y-588746D02*
X244069Y-634940D01*
X224934Y-588746D02*
X224934Y-588746D01*
X276404Y-621546D02*
X297192Y-612935D01*
X223281Y-643550D02*
X276404Y-621546D01*
X276404Y-621546D02*
X276404Y-621546D01*
X288285Y-578766D02*
X299815Y-606602D01*
X297192Y-612935D02*
X299815Y-606602D01*
X220575Y-650083D02*
X223281Y-643550D01*
X220575Y-650083D02*
X223445Y-657012D01*
D108*
X127500Y-576000D02*
Y-560000D01*
X145000Y-542500D02*
Y-512500D01*
X127500Y-560000D02*
X145000Y-542500D01*
X262500Y-457500D02*
X330000D01*
X207500Y-512500D02*
X262500Y-457500D01*
X330000D02*
X342500Y-445000D01*
X145000Y-512500D02*
X207500D01*
X102500D02*
X145000D01*
X207500Y-532500D02*
Y-512500D01*
X102500Y-545000D02*
Y-512500D01*
X-156000Y-429000D02*
X-72500Y-512500D01*
X102500D01*
X227500Y-545000D02*
X235000D01*
X220000D02*
X227500D01*
X207500Y-532500D02*
X220000Y-545000D01*
X145000Y-512500D02*
Y-482500D01*
X-297500Y-429000D02*
X-290000D01*
X-282500D02*
X-156000D01*
X-290000D02*
X-282500D01*
D109*
X-192500Y418750D02*
Y427500D01*
Y410000D02*
Y418750D01*
Y401250D02*
Y410000D01*
Y392500D02*
Y401250D01*
X-130000Y427500D02*
X-122500Y420000D01*
X-192500Y427500D02*
X-130000D01*
X-122500Y385000D02*
Y420000D01*
X-142400Y378300D02*
X-129200D01*
X-122500Y385000D01*
X-266700Y333800D02*
X-208000Y392500D01*
X-192500D01*
X-292100Y486200D02*
X-233400Y427500D01*
X-192500D01*
X-70000Y-332500D02*
X70000D01*
Y-320250D02*
X123750Y-266500D01*
X70000Y-332500D02*
Y-320250D01*
X168750Y-266500D02*
X169000D01*
X161250D02*
X168750D01*
X153750D02*
X161250D01*
X146250D02*
X153750D01*
X138750D02*
X146250D01*
X131250D02*
X138750D01*
X123750D02*
X131250D01*
X202500Y-300000D02*
X317500D01*
X169000Y-266500D02*
X202500Y-300000D01*
D112*
X-330000Y-19300D02*
D03*
X-370000Y-19300D02*
D03*
Y19300D02*
D03*
X-330000Y19300D02*
D03*
X330000Y-19300D02*
D03*
X370000D02*
D03*
Y19300D02*
D03*
X330000D02*
D03*
D113*
X-382500Y7000D02*
D03*
X-317500Y7000D02*
D03*
Y-7000D02*
D03*
X-382500Y-7000D02*
D03*
X382500Y7000D02*
D03*
X317500D02*
D03*
Y-7000D02*
D03*
X382500D02*
D03*
D114*
X-547416Y19987D02*
D03*
D117*
X469048Y356548D02*
D03*
X418048D02*
D03*
Y305548D02*
D03*
X469048D02*
D03*
D120*
X145000Y-482500D02*
D03*
D121*
X500000Y-100000D02*
D03*
D123*
X-142400Y378300D02*
D03*
D124*
X-266700Y333800D02*
D03*
X63500D02*
D03*
D125*
X-292100Y486200D02*
D03*
D126*
X-500000Y-250000D02*
D03*
X-423000Y-200000D02*
D03*
X-90000Y450000D02*
D03*
X675000Y100000D02*
D03*
X700000Y50000D02*
D03*
X675000Y0D02*
D03*
Y-100000D02*
D03*
X625000Y200000D02*
D03*
X650000Y150000D02*
D03*
X625000Y100000D02*
D03*
X650000Y-50000D02*
D03*
X625000Y-100000D02*
D03*
X650000Y-150000D02*
D03*
X575000Y400000D02*
D03*
X600000Y350000D02*
D03*
Y250000D02*
D03*
X575000Y100000D02*
D03*
Y-100000D02*
D03*
Y-300000D02*
D03*
X600000Y-350000D02*
D03*
X575000Y-400000D02*
D03*
X550000Y450000D02*
D03*
X525000Y400000D02*
D03*
X550000Y350000D02*
D03*
X525000Y200000D02*
D03*
X550000Y150000D02*
D03*
X525000Y100000D02*
D03*
X550000Y50000D02*
D03*
Y-50000D02*
D03*
X525000Y-100000D02*
D03*
X550000Y-150000D02*
D03*
X525000Y-200000D02*
D03*
X550000Y-350000D02*
D03*
X525000Y-400000D02*
D03*
X550000Y-450000D02*
D03*
X500000Y250000D02*
D03*
X475000Y200000D02*
D03*
X500000Y150000D02*
D03*
X475000Y100000D02*
D03*
X500000Y50000D02*
D03*
Y-50000D02*
D03*
X475000Y-100000D02*
D03*
Y-200000D02*
D03*
X500000Y-250000D02*
D03*
X475000Y-300000D02*
D03*
X450000Y550000D02*
D03*
X425000Y500000D02*
D03*
Y400000D02*
D03*
Y200000D02*
D03*
X450000Y150000D02*
D03*
Y50000D02*
D03*
Y-50000D02*
D03*
X425000Y-100000D02*
D03*
X450000Y-150000D02*
D03*
X425000Y-200000D02*
D03*
X450000Y-250000D02*
D03*
X425000Y-300000D02*
D03*
X450000Y-350000D02*
D03*
X425000Y-400000D02*
D03*
Y-500000D02*
D03*
X450000Y-550000D02*
D03*
X375000Y600000D02*
D03*
X400000Y550000D02*
D03*
X375000Y400000D02*
D03*
X400000Y350000D02*
D03*
X375000Y200000D02*
D03*
X400000Y150000D02*
D03*
X375000Y100000D02*
D03*
X400000Y50000D02*
D03*
X375000Y-100000D02*
D03*
X400000Y-250000D02*
D03*
X375000Y-300000D02*
D03*
X400000Y-350000D02*
D03*
Y-550000D02*
D03*
X375000Y-600000D02*
D03*
X350000Y550000D02*
D03*
X325000Y500000D02*
D03*
X350000Y450000D02*
D03*
Y350000D02*
D03*
X325000Y300000D02*
D03*
Y100000D02*
D03*
Y-100000D02*
D03*
X350000Y-150000D02*
D03*
Y-250000D02*
D03*
Y-550000D02*
D03*
X275000Y500000D02*
D03*
X300000Y450000D02*
D03*
X275000Y400000D02*
D03*
X300000Y350000D02*
D03*
X275000Y300000D02*
D03*
X300000Y150000D02*
D03*
X275000Y100000D02*
D03*
X300000Y50000D02*
D03*
X275000Y0D02*
D03*
Y-100000D02*
D03*
X300000Y-150000D02*
D03*
X275000Y-200000D02*
D03*
X300000Y-250000D02*
D03*
Y-650000D02*
D03*
X225000Y500000D02*
D03*
X250000Y450000D02*
D03*
Y350000D02*
D03*
Y250000D02*
D03*
Y150000D02*
D03*
X225000Y100000D02*
D03*
X250000Y50000D02*
D03*
X225000Y0D02*
D03*
Y-100000D02*
D03*
X250000Y-150000D02*
D03*
Y-350000D02*
D03*
X200000Y550000D02*
D03*
X175000Y500000D02*
D03*
Y400000D02*
D03*
X200000Y250000D02*
D03*
X175000Y200000D02*
D03*
X200000Y150000D02*
D03*
X175000Y100000D02*
D03*
X200000Y50000D02*
D03*
X175000Y0D02*
D03*
Y-100000D02*
D03*
X200000Y-150000D02*
D03*
Y-250000D02*
D03*
Y-350000D02*
D03*
X125000Y700000D02*
D03*
X150000Y650000D02*
D03*
Y550000D02*
D03*
X125000Y500000D02*
D03*
X150000Y250000D02*
D03*
X125000Y200000D02*
D03*
Y100000D02*
D03*
Y0D02*
D03*
Y-100000D02*
D03*
Y-200000D02*
D03*
X150000Y-250000D02*
D03*
X125000Y-300000D02*
D03*
X150000Y-350000D02*
D03*
Y-650000D02*
D03*
X125000Y-700000D02*
D03*
X75000Y700000D02*
D03*
X100000Y650000D02*
D03*
Y550000D02*
D03*
X75000Y500000D02*
D03*
Y400000D02*
D03*
X100000Y150000D02*
D03*
Y50000D02*
D03*
X75000Y0D02*
D03*
Y-100000D02*
D03*
Y-200000D02*
D03*
X100000Y-350000D02*
D03*
Y-650000D02*
D03*
X75000Y-700000D02*
D03*
X50000Y650000D02*
D03*
X25000Y600000D02*
D03*
Y500000D02*
D03*
X50000Y450000D02*
D03*
Y150000D02*
D03*
X25000Y0D02*
D03*
X50000Y-150000D02*
D03*
X25000Y-200000D02*
D03*
X50000Y-350000D02*
D03*
Y-650000D02*
D03*
X0Y450000D02*
D03*
Y250000D02*
D03*
Y150000D02*
D03*
X-25000Y100000D02*
D03*
X0Y50000D02*
D03*
Y-150000D02*
D03*
X-25000Y-200000D02*
D03*
X0Y-250000D02*
D03*
X-25000Y-300000D02*
D03*
X0Y-350000D02*
D03*
X-75000Y700000D02*
D03*
X-50000Y450000D02*
D03*
X-75000Y400000D02*
D03*
X-50000Y350000D02*
D03*
Y250000D02*
D03*
X-75000Y200000D02*
D03*
X-50000Y150000D02*
D03*
X-75000Y100000D02*
D03*
X-50000Y50000D02*
D03*
X-75000Y0D02*
D03*
Y-100000D02*
D03*
X-50000Y-150000D02*
D03*
Y-250000D02*
D03*
Y-650000D02*
D03*
X-75000Y-700000D02*
D03*
X-125000Y700000D02*
D03*
X-100000Y650000D02*
D03*
Y550000D02*
D03*
X-125000Y500000D02*
D03*
Y200000D02*
D03*
Y100000D02*
D03*
Y0D02*
D03*
Y-100000D02*
D03*
Y-200000D02*
D03*
X-100000Y-250000D02*
D03*
X-125000Y-300000D02*
D03*
X-100000Y-650000D02*
D03*
X-125000Y-700000D02*
D03*
X-150000Y650000D02*
D03*
Y550000D02*
D03*
Y450000D02*
D03*
X-175000Y-100000D02*
D03*
X-150000Y-150000D02*
D03*
X-175000Y-200000D02*
D03*
X-150000Y-650000D02*
D03*
X-225000Y600000D02*
D03*
X-200000Y550000D02*
D03*
X-225000Y500000D02*
D03*
Y400000D02*
D03*
Y300000D02*
D03*
X-200000Y250000D02*
D03*
X-225000Y200000D02*
D03*
X-200000Y150000D02*
D03*
X-225000Y100000D02*
D03*
X-200000Y50000D02*
D03*
X-225000Y0D02*
D03*
X-200000Y-250000D02*
D03*
X-225000Y-600000D02*
D03*
X-275000Y500000D02*
D03*
X-250000Y450000D02*
D03*
X-275000Y300000D02*
D03*
X-250000Y250000D02*
D03*
X-275000Y200000D02*
D03*
X-250000Y150000D02*
D03*
X-275000Y100000D02*
D03*
X-250000Y50000D02*
D03*
X-275000Y0D02*
D03*
Y-100000D02*
D03*
X-250000Y-150000D02*
D03*
X-275000Y-200000D02*
D03*
X-300000Y650000D02*
D03*
X-325000Y500000D02*
D03*
X-300000Y450000D02*
D03*
X-325000Y400000D02*
D03*
Y300000D02*
D03*
X-300000Y250000D02*
D03*
X-325000Y200000D02*
D03*
X-300000Y150000D02*
D03*
X-325000Y100000D02*
D03*
Y-100000D02*
D03*
X-300000Y-150000D02*
D03*
X-325000Y-200000D02*
D03*
X-300000Y-250000D02*
D03*
X-325000Y-300000D02*
D03*
X-300000Y-650000D02*
D03*
X-375000Y600000D02*
D03*
X-350000Y550000D02*
D03*
Y450000D02*
D03*
X-375000Y400000D02*
D03*
X-350000Y350000D02*
D03*
X-375000Y300000D02*
D03*
Y100000D02*
D03*
Y-100000D02*
D03*
X-350000Y-150000D02*
D03*
X-375000Y-200000D02*
D03*
X-350000Y-250000D02*
D03*
X-375000Y-300000D02*
D03*
X-350000Y-550000D02*
D03*
X-375000Y-600000D02*
D03*
X-400000Y550000D02*
D03*
X-425000Y500000D02*
D03*
Y400000D02*
D03*
X-400000Y350000D02*
D03*
X-425000Y300000D02*
D03*
X-400000Y250000D02*
D03*
X-425000Y200000D02*
D03*
X-400000Y150000D02*
D03*
X-425000Y100000D02*
D03*
X-400000Y50000D02*
D03*
X-425000Y0D02*
D03*
Y-100000D02*
D03*
X-400000Y-150000D02*
D03*
Y-250000D02*
D03*
X-425000Y-300000D02*
D03*
X-400000Y-350000D02*
D03*
X-425000Y-400000D02*
D03*
Y-500000D02*
D03*
X-400000Y-550000D02*
D03*
X-450000Y550000D02*
D03*
Y350000D02*
D03*
X-475000Y300000D02*
D03*
X-450000Y250000D02*
D03*
X-475000Y200000D02*
D03*
X-450000Y150000D02*
D03*
Y50000D02*
D03*
X-475000Y0D02*
D03*
X-450000Y-50000D02*
D03*
Y-250000D02*
D03*
X-475000Y-300000D02*
D03*
X-450000Y-350000D02*
D03*
Y-550000D02*
D03*
X-525000Y400000D02*
D03*
X-500000Y250000D02*
D03*
X-525000Y200000D02*
D03*
X-500000Y150000D02*
D03*
X-525000Y100000D02*
D03*
X-500000Y-50000D02*
D03*
X-525000Y-400000D02*
D03*
X-550000Y450000D02*
D03*
X-575000Y400000D02*
D03*
X-550000Y350000D02*
D03*
X-575000Y300000D02*
D03*
X-550000Y150000D02*
D03*
X-575000Y100000D02*
D03*
X-550000Y50000D02*
D03*
Y-50000D02*
D03*
X-575000Y-100000D02*
D03*
X-550000Y-150000D02*
D03*
Y-350000D02*
D03*
X-575000Y-400000D02*
D03*
X-550000Y-450000D02*
D03*
X-600000Y350000D02*
D03*
X-625000Y100000D02*
D03*
Y-100000D02*
D03*
Y-200000D02*
D03*
X-600000Y-250000D02*
D03*
Y-350000D02*
D03*
X-650000Y150000D02*
D03*
X-675000Y100000D02*
D03*
X-650000Y50000D02*
D03*
Y-50000D02*
D03*
X-675000Y-100000D02*
D03*
X-650000Y-150000D02*
D03*
X-700000Y50000D02*
D03*
Y-50000D02*
D03*
X432500Y300000D02*
D03*
X454597Y300000D02*
D03*
X426976Y246593D02*
D03*
X440471Y228976D02*
D03*
X445774Y234279D02*
D03*
X451078Y239583D02*
D03*
X454597Y247500D02*
D03*
X432500Y277500D02*
D03*
Y270000D02*
D03*
Y262500D02*
D03*
X431000Y254000D02*
D03*
X454597Y255000D02*
D03*
Y262500D02*
D03*
Y270000D02*
D03*
Y277500D02*
D03*
Y285000D02*
D03*
Y292500D02*
D03*
X432500Y292500D02*
D03*
X469048Y331048D02*
D03*
Y338548D02*
D03*
Y323548D02*
D03*
X418048Y331048D02*
D03*
Y323548D02*
D03*
Y338548D02*
D03*
X443548Y356548D02*
D03*
X436048D02*
D03*
X451048D02*
D03*
X-179549Y-675185D02*
D03*
X215900Y535320D02*
D03*
X-192500Y427500D02*
D03*
X542500Y0D02*
D03*
X630000Y-17500D02*
D03*
X578766Y288285D02*
D03*
X-192500Y392500D02*
D03*
Y401250D02*
D03*
Y418750D02*
D03*
Y410000D02*
D03*
X17500Y630000D02*
D03*
X-433103Y457852D02*
D03*
X-224923Y588741D02*
D03*
X17500Y430000D02*
D03*
X127000Y119380D02*
D03*
X47500Y550000D02*
D03*
X682620Y-45000D02*
D03*
X485000Y5000D02*
D03*
X-385120Y-122620D02*
D03*
X342473Y130978D02*
D03*
X445000Y127500D02*
D03*
X265000Y202500D02*
D03*
X227500Y235000D02*
D03*
X146250Y-266500D02*
D03*
X153750D02*
D03*
X161250D02*
D03*
X138750D02*
D03*
X131250D02*
D03*
X123750D02*
D03*
X168750D02*
D03*
X317500Y-300000D02*
D03*
X-155000Y-235000D02*
D03*
X-70000Y-332500D02*
D03*
X70000D02*
D03*
X342500Y-445000D02*
D03*
X235000Y-545000D02*
D03*
X227500D02*
D03*
X220000D02*
D03*
X102500D02*
D03*
X127500Y-576000D02*
D03*
X-282500Y-429000D02*
D03*
X-290000D02*
D03*
X-297500D02*
D03*
X-457852Y-433103D02*
D03*
X457852Y433103D02*
D03*
X433103Y-457852D02*
D03*
X-17500Y-630000D02*
D03*
X-622566Y306583D02*
D03*
X-657012Y-223445D02*
D03*
X-578766Y-288285D02*
D03*
X-613086Y205406D02*
D03*
X-630000Y17500D02*
D03*
X-588741Y-224923D02*
D03*
X-575347Y257258D02*
D03*
X-643217Y250193D02*
D03*
X306583Y622566D02*
D03*
X-223445Y657012D02*
D03*
X-288285Y578766D02*
D03*
X205406Y613086D02*
D03*
X257258Y575347D02*
D03*
X250193Y643217D02*
D03*
X622566Y-306583D02*
D03*
X657012Y223445D02*
D03*
X613086Y-205406D02*
D03*
X588741Y224923D02*
D03*
X575347Y-257258D02*
D03*
X643217Y-250193D02*
D03*
X-250193Y-643217D02*
D03*
X-257258Y-575347D02*
D03*
X-205406Y-613086D02*
D03*
X288285Y-578766D02*
D03*
X223445Y-657012D02*
D03*
X-306583Y-622566D02*
D03*
M02*
