G04*
G04 #@! TF.GenerationSoftware,Altium Limited,Altium Designer,22.2.1 (43)*
G04*
G04 Layer_Color=32896*
%FSLAX44Y44*%
%MOMM*%
G71*
G04*
G04 #@! TF.SameCoordinates,2D810589-119A-40C1-8923-BCE66BF163E0*
G04*
G04*
G04 #@! TF.FilePolarity,Positive*
G04*
G01*
G75*
%ADD10C,0.2540*%
%ADD14C,0.1270*%
%ADD243C,0.2800*%
%ADD244C,0.6000*%
%ADD245C,0.3700*%
%ADD246C,0.4000*%
%ADD247C,1.0000*%
%ADD248C,0.2500*%
%ADD249C,0.1800*%
%ADD250C,0.5000*%
%ADD251C,0.3000*%
%ADD252C,0.2032*%
%ADD253C,0.1000*%
%ADD254C,0.2000*%
%ADD255R,1.3000X4.0500*%
%ADD256R,4.0500X1.3000*%
%ADD257R,1.7750X0.6250*%
%ADD258R,0.6250X1.7750*%
%ADD259R,1.0160X2.5400*%
G36*
X-62856Y138392D02*
X-63163Y138290D01*
X-63573Y138187D01*
X-64854Y138034D01*
X-65264Y137931D01*
X-65931Y137675D01*
X-66340Y137572D01*
X-66955Y137470D01*
X-67878Y137060D01*
X-68288Y136958D01*
X-69005Y136650D01*
X-69671Y136394D01*
X-69825Y136240D01*
X-70235Y136138D01*
X-70748Y135830D01*
X-72695Y134805D01*
X-72900Y134600D01*
X-73617Y134190D01*
X-74335Y133678D01*
X-74899Y133216D01*
X-75462Y132858D01*
X-75667Y132653D01*
X-75872Y132550D01*
X-76282Y132140D01*
X-76487Y132038D01*
X-77000Y131525D01*
X-77153Y131474D01*
X-77205Y131320D01*
X-77410Y131218D01*
X-79511Y129117D01*
X-79613Y128912D01*
X-80331Y128194D01*
X-80638Y127682D01*
X-80843Y127477D01*
X-81253Y126760D01*
X-81919Y125786D01*
X-82227Y125478D01*
X-82944Y125273D01*
X-83354Y125171D01*
X-83662Y124863D01*
X-84328Y124710D01*
X-84584Y124453D01*
X-85250Y124197D01*
X-85916Y123839D01*
X-86429Y123531D01*
X-86634Y123326D01*
X-87146Y123224D01*
X-87556Y122814D01*
X-88889Y122096D01*
X-89811Y121584D01*
X-90119Y121276D01*
X-90426Y121174D01*
X-90939Y120866D01*
X-91144Y120764D01*
X-91656Y120456D01*
X-92373Y120046D01*
X-92578Y119841D01*
X-92988Y119739D01*
X-93296Y119431D01*
X-94833Y118611D01*
X-95038Y118406D01*
X-95551Y118304D01*
X-95961Y117894D01*
X-96371Y117792D01*
X-96986Y117381D01*
X-99343Y116152D01*
X-107235Y112154D01*
X-107747Y111949D01*
X-107952Y111847D01*
X-108465Y111539D01*
X-108875Y111437D01*
X-109182Y111130D01*
X-109592Y111027D01*
X-109797Y110925D01*
X-110412Y110514D01*
X-110822Y110412D01*
X-111130Y110105D01*
X-111796Y109848D01*
X-112052Y109592D01*
X-112718Y109336D01*
X-112974Y109080D01*
X-113487Y108875D01*
X-113692Y108670D01*
X-114358Y108413D01*
X-114614Y108157D01*
X-115024Y108055D01*
X-115229Y107952D01*
X-115537Y107645D01*
X-116664Y107030D01*
X-117279Y106620D01*
X-117843Y106364D01*
X-117945Y106159D01*
X-118509Y105800D01*
X-119226Y105390D01*
X-119534Y105082D01*
X-119739Y104980D01*
X-120046Y104672D01*
X-120251Y104570D01*
X-120456Y104365D01*
X-120610Y104314D01*
X-120712Y104109D01*
X-121122Y103699D01*
X-121225Y103289D01*
X-121071Y103033D01*
X-120251Y102828D01*
X-116562Y102930D01*
X-116254Y103033D01*
X-114512Y103135D01*
X-114204Y103238D01*
X-113538Y103391D01*
X-112513Y103494D01*
X-111386Y103596D01*
X-110566Y103801D01*
X-109951Y103904D01*
X-108567Y104058D01*
X-108157Y104160D01*
X-107850Y104263D01*
X-107030Y104467D01*
X-105697Y104570D01*
X-105185Y104775D01*
X-104467Y104878D01*
X-104058Y104980D01*
X-103084Y105134D01*
X-102213Y105390D01*
X-101495Y105492D01*
X-100726Y105646D01*
X-99855Y105902D01*
X-98882Y106056D01*
X-97703Y106415D01*
X-96627Y106671D01*
X-95756Y106927D01*
X-94987Y107081D01*
X-93808Y107440D01*
X-93091Y107542D01*
X-92373Y107850D01*
X-91297Y108106D01*
X-90785Y108311D01*
X-90375Y108413D01*
X-89760Y108516D01*
X-89196Y108772D01*
X-88786Y108875D01*
X-88120Y109028D01*
X-87607Y109233D01*
X-87044Y109387D01*
X-86326Y109490D01*
X-85609Y109797D01*
X-85199Y109900D01*
X-84430Y110053D01*
X-83764Y110309D01*
X-83354Y110412D01*
X-82637Y110514D01*
X-82124Y110719D01*
X-81714Y110822D01*
X-80997Y110925D01*
X-80433Y111078D01*
X-79767Y111334D01*
X-78639Y111437D01*
X-78127Y111642D01*
X-77410Y111744D01*
X-77000Y111847D01*
X-75975Y111949D01*
X-75462Y112154D01*
X-74489Y112308D01*
X-73259Y112411D01*
X-72644Y112513D01*
X-72234Y112616D01*
X-71619Y112718D01*
X-70799Y112821D01*
X-69467Y112923D01*
X-68339Y113128D01*
X-67724Y113231D01*
X-66494Y113333D01*
X-63932Y113538D01*
X-62907Y113640D01*
X-61728Y113692D01*
X-61421Y113589D01*
X-60242Y113435D01*
X-59217Y113333D01*
X-58602Y113231D01*
X-57424Y112872D01*
X-57014Y112769D01*
X-56706Y112462D01*
X-56501Y112359D01*
X-55322Y111181D01*
X-55220Y110976D01*
X-55066Y110822D01*
X-54913Y110771D01*
X-54810Y110566D01*
X-54400Y110156D01*
X-54093Y109643D01*
X-53683Y108926D01*
X-53478Y108823D01*
X-52658Y107286D01*
X-52453Y107081D01*
X-52299Y106517D01*
X-51940Y105646D01*
X-51428Y104314D01*
X-51325Y103494D01*
X-51120Y102981D01*
X-51018Y101956D01*
X-51120Y98882D01*
X-51325Y98369D01*
X-51582Y97293D01*
X-51838Y96729D01*
X-52094Y96063D01*
X-52248Y95909D01*
X-53068Y94372D01*
X-53478Y93962D01*
X-53580Y93757D01*
X-53785Y93552D01*
X-54093Y93040D01*
X-54554Y92373D01*
X-54759Y92271D01*
X-55271Y91656D01*
X-55528Y91297D01*
X-55835Y90990D01*
X-55938Y90785D01*
X-56347Y90375D01*
X-56450Y90170D01*
X-56962Y89657D01*
X-57065Y89452D01*
X-57885Y88632D01*
X-57987Y88427D01*
X-58192Y88325D01*
X-58295Y88120D01*
X-58807Y87607D01*
X-58910Y87403D01*
X-59115Y87198D01*
X-59217Y86993D01*
X-59679Y86429D01*
X-59832Y86275D01*
X-59935Y86070D01*
X-60242Y85763D01*
X-60345Y85558D01*
X-60755Y85148D01*
X-60857Y84738D01*
X-61165Y84430D01*
X-61985Y82893D01*
X-62804Y81151D01*
X-62907Y80946D01*
X-63214Y80228D01*
X-63419Y79716D01*
X-63624Y79511D01*
X-63829Y78588D01*
X-64239Y77666D01*
X-64342Y77153D01*
X-64649Y76436D01*
X-64752Y76026D01*
X-65008Y75360D01*
X-65264Y74489D01*
X-65367Y73874D01*
X-65572Y73669D01*
X-65674Y72951D01*
X-65828Y72080D01*
X-66084Y71209D01*
X-66187Y70799D01*
X-66340Y69620D01*
X-66545Y69108D01*
X-66648Y68595D01*
X-66750Y67468D01*
X-67058Y66238D01*
X-67212Y64854D01*
X-67519Y63112D01*
X-67622Y62702D01*
X-67775Y60703D01*
X-68134Y57782D01*
X-68288Y52504D01*
X-68339Y49583D01*
X-68236Y49275D01*
X-68134Y43229D01*
X-68032Y42921D01*
X-67929Y41589D01*
X-67827Y41281D01*
X-67673Y39488D01*
X-67519Y37284D01*
X-67417Y36976D01*
X-67314Y36567D01*
X-67212Y35542D01*
X-67058Y34363D01*
X-66904Y33799D01*
X-66802Y33389D01*
X-66699Y32672D01*
X-66597Y31749D01*
X-66392Y31237D01*
X-66238Y30571D01*
X-66033Y29443D01*
X-65777Y28572D01*
X-65674Y28162D01*
X-65572Y22013D01*
X-65418Y21654D01*
X-65264Y21705D01*
X-65162Y23242D01*
X-65059Y23550D01*
X-65162Y24882D01*
X-64957Y25395D01*
X-64906Y25446D01*
X-64752Y25292D01*
X-64598Y24729D01*
X-64393Y24216D01*
X-64239Y23755D01*
X-64137Y23038D01*
X-64239Y22730D01*
X-64137Y12276D01*
X-64034Y11968D01*
X-63881Y10687D01*
X-63778Y10277D01*
X-63522Y9611D01*
X-63471Y9560D01*
X-63317Y9714D01*
X-63214Y10533D01*
X-63112Y10841D01*
X-63009Y12993D01*
X-62907Y13301D01*
X-62753Y14480D01*
X-62651Y15299D01*
X-62548Y15402D01*
X-62292Y15146D01*
X-62189Y12891D01*
X-62087Y10124D01*
X-61985Y9816D01*
X-61831Y8330D01*
X-61677Y7766D01*
X-61575Y6536D01*
X-61421Y6485D01*
X-61318Y7613D01*
X-61216Y8842D01*
X-61165Y9304D01*
X-61267Y9611D01*
X-61165Y11251D01*
X-61113Y15504D01*
X-61165Y15556D01*
X-60960Y16171D01*
X-60703Y16222D01*
X-60345Y15863D01*
X-60088Y15197D01*
X-59832Y14736D01*
X-59781Y12942D01*
X-59832Y12071D01*
X-59730Y11763D01*
X-59832Y11353D01*
X-59730Y9099D01*
X-59576Y6998D01*
X-59474Y6793D01*
X-59320Y6946D01*
X-59217Y10431D01*
X-59166Y11200D01*
X-59268Y13250D01*
X-59064Y13455D01*
X-58807Y13301D01*
X-58090Y11763D01*
X-57987Y10431D01*
X-57885Y9509D01*
X-57987Y9201D01*
X-57885Y8484D01*
X-57782Y3052D01*
X-57680Y2744D01*
X-57577Y1822D01*
X-57526Y1770D01*
X-57372Y1924D01*
X-57219Y3410D01*
X-57167Y5511D01*
X-57270Y5819D01*
X-57321Y9252D01*
X-57270Y9406D01*
X-57372Y9714D01*
X-57475Y10226D01*
X-57321Y10380D01*
X-56860Y10329D01*
X-56655Y9509D01*
X-56706Y7715D01*
X-56604Y7203D01*
X-56399Y2078D01*
X-56296Y-1407D01*
X-56194Y-2739D01*
X-56091Y-2944D01*
X-55938Y-2893D01*
X-55835Y-2175D01*
X-55732Y79D01*
X-55835Y4897D01*
X-55938Y5204D01*
X-56091Y7818D01*
X-56143Y8381D01*
X-55989Y8535D01*
X-55579Y8432D01*
X-55425Y8279D01*
X-55220Y7766D01*
X-54913Y7459D01*
X-54810Y7254D01*
X-54400Y6844D01*
X-54298Y6639D01*
X-53888Y6024D01*
X-53785Y4897D01*
X-53683Y4589D01*
X-53478Y3154D01*
X-53375Y1822D01*
X-53222Y1053D01*
X-53119Y438D01*
X-52965Y-946D01*
X-52811Y-2637D01*
X-52658Y-3200D01*
X-52555Y-4225D01*
X-52453Y-4943D01*
X-52350Y-7710D01*
X-52248Y-8018D01*
X-52145Y-9042D01*
X-51940Y-9350D01*
X-51838Y-8633D01*
X-51735Y-6378D01*
X-51838Y-2585D01*
X-51940Y-2278D01*
X-52043Y-1868D01*
X-52145Y-536D01*
X-52248Y-228D01*
X-52350Y1719D01*
X-52555Y2232D01*
X-52760Y4076D01*
X-52607Y4230D01*
X-52299Y4128D01*
X-51940Y3769D01*
X-51838Y3564D01*
X-51120Y2642D01*
X-50403Y1924D01*
X-50096Y1207D01*
X-49993Y-433D01*
X-49839Y-2432D01*
X-49686Y-2995D01*
X-49583Y-3405D01*
X-49481Y-5045D01*
X-49378Y-7300D01*
X-49275Y-7608D01*
X-49173Y-8018D01*
X-49122Y-11963D01*
X-49019Y-11349D01*
X-48814Y-10016D01*
X-48712Y-9504D01*
X-48661Y-6993D01*
X-48763Y-6685D01*
X-48866Y-2790D01*
X-49071Y-2278D01*
X-49275Y-536D01*
X-49173Y387D01*
X-49122Y438D01*
X-48558Y-23D01*
X-48097Y-587D01*
X-47841Y-946D01*
X-47687Y-1099D01*
X-47482Y-1202D01*
X-47123Y-1663D01*
X-47072Y-2329D01*
X-47123Y-7198D01*
X-47021Y-7505D01*
X-47123Y-19702D01*
X-47226Y-20009D01*
X-47379Y-21598D01*
X-47431Y-22469D01*
X-47328Y-22776D01*
X-47277Y-23340D01*
X-47123Y-23289D01*
X-47021Y-22879D01*
X-46918Y-21854D01*
X-46816Y-20727D01*
X-46611Y-20214D01*
X-46508Y-19804D01*
X-46406Y-19087D01*
X-46252Y-16883D01*
X-46150Y-15961D01*
X-46047Y-15346D01*
X-45944Y-13706D01*
X-45893Y-7915D01*
X-45996Y-7812D01*
X-45893Y-7505D01*
X-45996Y-7198D01*
X-46098Y-4020D01*
X-45996Y-3303D01*
X-45842Y-3252D01*
X-45688Y-3405D01*
X-45586Y-4430D01*
X-45483Y-5148D01*
X-45381Y-6378D01*
X-45278Y-6685D01*
X-45125Y-7659D01*
X-45022Y-9401D01*
X-44920Y-10426D01*
X-44817Y-10939D01*
X-44715Y-11553D01*
X-44561Y-12937D01*
X-44458Y-14577D01*
X-44356Y-14885D01*
X-44202Y-15858D01*
X-44100Y-16883D01*
X-43997Y-19445D01*
X-43895Y-20675D01*
X-43792Y-22008D01*
X-43690Y-24570D01*
X-43639Y-25031D01*
X-43741Y-25339D01*
X-43639Y-26569D01*
X-43741Y-26876D01*
X-43843Y-31078D01*
X-43690Y-31130D01*
X-43536Y-30668D01*
X-43382Y-29285D01*
X-43280Y-28875D01*
X-43024Y-28208D01*
X-42921Y-26876D01*
X-42767Y-23238D01*
X-42716Y-19292D01*
X-42818Y-18984D01*
X-42716Y-17037D01*
X-42562Y-16986D01*
X-42409Y-17139D01*
X-42255Y-17806D01*
X-42152Y-18318D01*
X-42050Y-19445D01*
X-41947Y-20060D01*
X-41742Y-20880D01*
X-41486Y-23186D01*
X-41384Y-23494D01*
X-41281Y-23904D01*
X-41179Y-24621D01*
X-41076Y-25954D01*
X-40922Y-27132D01*
X-40820Y-27747D01*
X-40666Y-29131D01*
X-40461Y-31488D01*
X-40359Y-31796D01*
X-40256Y-34153D01*
X-40154Y-34460D01*
X-40051Y-37023D01*
X-39795Y-37381D01*
X-39641Y-36920D01*
X-39539Y-34973D01*
X-39641Y-27696D01*
X-39744Y-27389D01*
X-39846Y-25749D01*
X-39949Y-25441D01*
X-40000Y-22315D01*
X-39846Y-22366D01*
X-39641Y-23084D01*
X-39488Y-23648D01*
X-39283Y-24467D01*
X-39180Y-24980D01*
X-39077Y-25902D01*
X-38975Y-26415D01*
X-38821Y-26978D01*
X-38616Y-28414D01*
X-38463Y-28977D01*
X-38258Y-30002D01*
X-38155Y-31232D01*
X-38053Y-31847D01*
X-37950Y-32257D01*
X-37796Y-32821D01*
X-37694Y-33538D01*
X-37591Y-35485D01*
X-37489Y-35793D01*
X-37233Y-36254D01*
X-37079Y-36100D01*
X-36976Y-35383D01*
X-37130Y-32667D01*
X-37233Y-32257D01*
X-37335Y-31744D01*
X-37438Y-30719D01*
X-37591Y-28618D01*
X-37694Y-28311D01*
X-37796Y-27594D01*
X-37899Y-27183D01*
X-38104Y-25134D01*
X-38206Y-24826D01*
X-38360Y-23853D01*
X-38463Y-23238D01*
X-38565Y-22213D01*
X-38668Y-21700D01*
X-38770Y-21290D01*
X-38924Y-20727D01*
X-39077Y-19445D01*
X-39180Y-19035D01*
X-39334Y-18472D01*
X-39436Y-18062D01*
X-39590Y-16883D01*
X-39846Y-16217D01*
X-39949Y-15499D01*
X-40103Y-14833D01*
X-40461Y-13655D01*
X-40564Y-12937D01*
X-40871Y-12220D01*
X-41127Y-11143D01*
X-41384Y-10580D01*
X-41486Y-9862D01*
X-41589Y-9555D01*
X-41896Y-8837D01*
X-42101Y-7403D01*
X-41742Y-7351D01*
X-41589Y-7505D01*
X-39949Y-10682D01*
X-39641Y-11400D01*
X-39488Y-11963D01*
X-39334Y-12117D01*
X-39129Y-12630D01*
X-39026Y-13245D01*
X-38719Y-13757D01*
X-38565Y-14423D01*
X-38206Y-15295D01*
X-38104Y-15704D01*
X-37694Y-16627D01*
X-37540Y-17395D01*
X-37181Y-18062D01*
X-37028Y-18728D01*
X-36772Y-19292D01*
X-36669Y-19702D01*
X-36413Y-20368D01*
X-36156Y-21239D01*
X-35900Y-21905D01*
X-35644Y-22776D01*
X-35490Y-23340D01*
X-35234Y-24006D01*
X-35080Y-24775D01*
X-34927Y-24929D01*
X-34824Y-25339D01*
X-34568Y-26415D01*
X-34312Y-26978D01*
X-34209Y-27696D01*
X-34107Y-28208D01*
X-33799Y-28721D01*
X-33646Y-29900D01*
X-33287Y-30771D01*
X-33133Y-31847D01*
X-32877Y-32206D01*
X-32723Y-32257D01*
X-32621Y-31847D01*
X-32569Y-31078D01*
X-32672Y-30771D01*
X-33082Y-29848D01*
X-33184Y-28414D01*
X-33492Y-27696D01*
X-33697Y-26261D01*
X-33902Y-26056D01*
X-34004Y-25339D01*
X-34158Y-24673D01*
X-34517Y-23494D01*
X-34722Y-22571D01*
X-34927Y-22059D01*
X-35029Y-21649D01*
X-35183Y-20880D01*
X-35439Y-20214D01*
X-35542Y-19804D01*
X-35695Y-19240D01*
X-36054Y-18062D01*
X-36156Y-17652D01*
X-36464Y-16934D01*
X-36567Y-16524D01*
X-36669Y-16012D01*
X-37079Y-15089D01*
X-37233Y-14526D01*
X-37489Y-14065D01*
X-37591Y-13450D01*
X-38001Y-12527D01*
X-37950Y-12169D01*
X-37796Y-12220D01*
X-37694Y-12425D01*
X-37387Y-12732D01*
X-37130Y-13398D01*
X-36976Y-13552D01*
X-36874Y-13757D01*
X-36669Y-14269D01*
X-36567Y-14475D01*
X-35234Y-17242D01*
X-34107Y-19599D01*
X-34004Y-19804D01*
X-33697Y-20522D01*
X-33389Y-21034D01*
X-33287Y-21342D01*
X-33082Y-21854D01*
X-32877Y-22059D01*
X-32774Y-22469D01*
X-32262Y-23596D01*
X-32159Y-24211D01*
X-31749Y-24621D01*
X-31647Y-25441D01*
X-31391Y-25697D01*
X-31186Y-25595D01*
X-31134Y-24826D01*
X-31544Y-24109D01*
X-31698Y-23340D01*
X-31852Y-22981D01*
X-32057Y-22469D01*
X-32211Y-21905D01*
X-32467Y-21649D01*
X-32621Y-20983D01*
X-32979Y-20317D01*
X-33082Y-19907D01*
X-33287Y-19394D01*
X-33492Y-19189D01*
X-33646Y-18523D01*
X-33902Y-18267D01*
X-34209Y-17447D01*
X-34517Y-16934D01*
X-34619Y-16524D01*
X-35029Y-15909D01*
X-35132Y-15499D01*
X-35439Y-14987D01*
X-36772Y-12425D01*
X-36976Y-11912D01*
X-36720Y-11861D01*
X-36156Y-12322D01*
X-35900Y-12578D01*
X-35747Y-12630D01*
X-35644Y-12835D01*
X-35490Y-12988D01*
X-35285Y-13091D01*
X-34722Y-13655D01*
X-34619Y-13860D01*
X-34209Y-14475D01*
X-33389Y-16012D01*
X-32877Y-16832D01*
X-31954Y-18574D01*
X-31749Y-19087D01*
X-31647Y-19292D01*
X-31339Y-19599D01*
X-31186Y-20163D01*
X-31083Y-20368D01*
X-30930Y-20419D01*
X-30724Y-20931D01*
X-30622Y-21137D01*
X-30315Y-21444D01*
X-30212Y-22059D01*
X-29956Y-22315D01*
X-29751Y-22418D01*
X-29648Y-22930D01*
X-29546Y-23238D01*
X-29290Y-23186D01*
X-29392Y-22571D01*
X-29700Y-22264D01*
X-29802Y-21342D01*
X-30110Y-21034D01*
X-30212Y-20419D01*
X-30519Y-20112D01*
X-30622Y-19702D01*
X-30930Y-19189D01*
X-31134Y-18677D01*
X-31237Y-18472D01*
X-31442Y-18267D01*
X-31749Y-17447D01*
X-31954Y-17242D01*
X-32211Y-16576D01*
X-32569Y-16114D01*
X-32979Y-15192D01*
X-32826Y-15038D01*
X-32621Y-15141D01*
X-31698Y-15858D01*
X-30571Y-16576D01*
X-30366Y-16678D01*
X-30058Y-16986D01*
X-28931Y-17601D01*
X-28623Y-17908D01*
X-28111Y-18113D01*
X-27906Y-18318D01*
X-26471Y-19138D01*
X-26266Y-19343D01*
X-25754Y-19548D01*
X-25139Y-19958D01*
X-24934Y-20060D01*
X-24626Y-20368D01*
X-24114Y-20573D01*
X-23806Y-20880D01*
X-23601Y-20983D01*
X-23447Y-21137D01*
X-23294Y-21700D01*
X-23140Y-21854D01*
X-23038Y-22059D01*
X-22935Y-22366D01*
X-22730Y-22879D01*
X-22423Y-23186D01*
X-22320Y-23801D01*
X-22013Y-24109D01*
X-21859Y-24673D01*
X-21500Y-25339D01*
X-21295Y-25851D01*
X-20475Y-27696D01*
X-20219Y-28362D01*
X-19963Y-28618D01*
X-19860Y-29233D01*
X-19553Y-29746D01*
X-19194Y-30719D01*
X-18938Y-31386D01*
X-18835Y-31796D01*
X-18528Y-32513D01*
X-18374Y-33179D01*
X-18220Y-33333D01*
X-18015Y-33846D01*
X-17913Y-34563D01*
X-17503Y-35485D01*
X-17400Y-36100D01*
X-17093Y-36818D01*
X-16990Y-37228D01*
X-16888Y-37843D01*
X-16581Y-38560D01*
X-16478Y-38970D01*
X-16376Y-39688D01*
X-16171Y-40200D01*
X-16068Y-40918D01*
X-15966Y-41328D01*
X-15658Y-42455D01*
X-15556Y-43172D01*
X-15402Y-44146D01*
X-15248Y-44710D01*
X-15146Y-45120D01*
X-14941Y-47169D01*
X-14838Y-47477D01*
X-14736Y-47887D01*
X-14633Y-48604D01*
X-14531Y-49937D01*
X-14172Y-52243D01*
X-14069Y-53370D01*
X-13967Y-54805D01*
X-13762Y-56035D01*
X-13659Y-57060D01*
X-13506Y-60083D01*
X-13403Y-60493D01*
X-13198Y-62543D01*
X-13096Y-63261D01*
X-12993Y-71050D01*
X-12891Y-77917D01*
X-12788Y-78225D01*
X-12635Y-80428D01*
X-12532Y-82786D01*
X-12327Y-84425D01*
X-12173Y-85809D01*
X-12071Y-88986D01*
X-11917Y-92317D01*
X-11866Y-93188D01*
X-11968Y-93496D01*
X-11866Y-94828D01*
X-11763Y-97083D01*
X-11661Y-105487D01*
X-11558Y-105795D01*
X-11661Y-124141D01*
X-11763Y-124448D01*
X-11917Y-125627D01*
X-12020Y-126140D01*
X-12122Y-127062D01*
X-12225Y-127575D01*
X-12481Y-128138D01*
X-12583Y-128548D01*
X-12686Y-129368D01*
X-13147Y-129932D01*
X-13967Y-130444D01*
X-14377Y-130547D01*
X-14992Y-130957D01*
X-15607Y-131059D01*
X-15812Y-131264D01*
X-16529Y-131469D01*
X-17657Y-131572D01*
X-17964Y-131674D01*
X-18938Y-131828D01*
X-27188Y-131879D01*
X-27496Y-131777D01*
X-28418Y-131674D01*
X-29956Y-130957D01*
X-30776Y-130854D01*
X-31083Y-130752D01*
X-32108Y-130854D01*
X-32672Y-131110D01*
X-32877Y-131623D01*
X-33082Y-131828D01*
X-33031Y-132187D01*
X-32774Y-132135D01*
X-32518Y-131674D01*
X-31801Y-131572D01*
X-30981Y-131674D01*
X-30827Y-131828D01*
X-30724Y-132033D01*
X-30315Y-132648D01*
X-30007Y-133160D01*
X-29495Y-134083D01*
X-29392Y-134288D01*
X-29546Y-134441D01*
X-31852Y-134288D01*
X-34158Y-134236D01*
X-34465Y-134339D01*
X-35490Y-134441D01*
X-36413Y-134851D01*
X-37335Y-135056D01*
X-38053Y-135364D01*
X-38565Y-135671D01*
X-38873Y-135979D01*
X-39026Y-136030D01*
X-39231Y-136850D01*
X-39129Y-137260D01*
X-39077Y-137311D01*
X-38616Y-136952D01*
X-38309Y-136440D01*
X-37745Y-136184D01*
X-37233Y-136389D01*
X-36515Y-136799D01*
X-35798Y-137311D01*
X-35285Y-137516D01*
X-34875Y-137619D01*
X-34363Y-137824D01*
X-34209Y-137977D01*
X-34363Y-138336D01*
X-35132Y-138490D01*
X-35388Y-138746D01*
X-35593Y-138849D01*
X-35798Y-139054D01*
X-35952Y-139105D01*
X-36054Y-139310D01*
X-36567Y-140437D01*
X-36669Y-141155D01*
X-36054Y-142282D01*
X-35593Y-142333D01*
X-35542Y-141667D01*
X-35644Y-141360D01*
X-35542Y-140540D01*
X-34824Y-139617D01*
X-34670Y-139464D01*
X-34260Y-139566D01*
X-34004Y-139925D01*
X-33646Y-140283D01*
X-32211Y-141103D01*
X-31903Y-141411D01*
X-31391Y-141513D01*
X-31186Y-141718D01*
X-30468Y-141923D01*
X-28521Y-142026D01*
X-28213Y-141923D01*
X-26983Y-141821D01*
X-26471Y-141616D01*
X-25651Y-141411D01*
X-25087Y-141257D01*
X-24524Y-141001D01*
X-23806Y-140899D01*
X-23140Y-140642D01*
X-22576Y-140489D01*
X-21603Y-140335D01*
X-20731Y-140078D01*
X-20014Y-139976D01*
X-18784Y-139874D01*
X-18477Y-139771D01*
X-17657Y-139669D01*
X-17349Y-139566D01*
X-15146Y-139412D01*
X-14736Y-139310D01*
X-13198Y-139002D01*
X-12071Y-138797D01*
X-11200Y-138541D01*
X-10533Y-138387D01*
X-9355Y-138029D01*
X-8637Y-137926D01*
X-8125Y-137721D01*
X-7305Y-137516D01*
X-5973Y-137414D01*
X-5665Y-137311D01*
X-4333Y-137209D01*
X-1258Y-137311D01*
X-950Y-137414D01*
X1663Y-137568D01*
X2585Y-137670D01*
X2944Y-137619D01*
X3303Y-137875D01*
X3200Y-138182D01*
X3047Y-138336D01*
X2842Y-138439D01*
X2432Y-138849D01*
X2227Y-138951D01*
X1919Y-139259D01*
X1714Y-139361D01*
X997Y-139874D01*
X689Y-139976D01*
X484Y-140181D01*
X-182Y-140437D01*
X-643Y-140694D01*
X-1053Y-140796D01*
X-1668Y-140899D01*
X-2385Y-141206D01*
X-3103Y-141308D01*
X-4025Y-141411D01*
X-4333Y-141513D01*
X-5563Y-141718D01*
X-8432Y-141821D01*
X-15094Y-141718D01*
X-15402Y-141616D01*
X-17042Y-141513D01*
X-18477Y-141308D01*
X-21654Y-141411D01*
X-22166Y-141616D01*
X-22884Y-141718D01*
X-24626Y-141821D01*
X-25702Y-142487D01*
X-26112Y-143204D01*
X-26317Y-143717D01*
X-26266Y-144076D01*
X-25856Y-143973D01*
X-25600Y-143717D01*
X-25497Y-143512D01*
X-24882Y-143102D01*
X-24421Y-142846D01*
X-23704Y-142641D01*
X-23191Y-142948D01*
X-22679Y-143461D01*
X-22474Y-143563D01*
X-22371Y-143768D01*
X-21551Y-144076D01*
X-21039Y-144281D01*
X-20629Y-144383D01*
X-18374Y-144486D01*
X-15914Y-144588D01*
X-15607Y-144691D01*
X-11968Y-144844D01*
X-10533Y-144947D01*
X-10124Y-145254D01*
X-10380Y-145511D01*
X-11712Y-145613D01*
X-13967Y-145716D01*
X-15709Y-145818D01*
X-16017Y-145921D01*
X-18169Y-146023D01*
X-18477Y-146126D01*
X-20783Y-146279D01*
X-21295Y-146484D01*
X-21705Y-146587D01*
X-22833Y-146689D01*
X-24165Y-146792D01*
X-24524Y-146945D01*
X-25241Y-147355D01*
X-25907Y-148022D01*
X-26010Y-148227D01*
X-26215Y-148432D01*
X-26420Y-148944D01*
X-26830Y-149867D01*
X-26727Y-150379D01*
X-26574Y-150430D01*
X-26317Y-150276D01*
X-25907Y-149559D01*
X-25344Y-148790D01*
X-25139Y-148688D01*
X-24524Y-148278D01*
X-24011Y-148073D01*
X-23704Y-148175D01*
X-23447Y-148432D01*
X-23345Y-148637D01*
X-22679Y-149303D01*
X-22115Y-149457D01*
X-21551Y-149713D01*
X-20219Y-149815D01*
X-19809Y-149918D01*
X-18169Y-150020D01*
X-13659Y-149918D01*
X-13352Y-149815D01*
X-10175Y-149713D01*
X-9867Y-149610D01*
X-8484Y-149457D01*
X-7459Y-149354D01*
X-5716Y-149252D01*
X-5101Y-149149D01*
X-4692Y-149047D01*
X-4179Y-148944D01*
X-2795Y-148790D01*
X-1975Y-148688D01*
X-1668Y-148585D01*
X-950Y-148380D01*
X-233Y-148278D01*
X382Y-148175D01*
X894Y-147970D01*
X2329Y-147663D01*
X3047Y-147355D01*
X3815Y-147202D01*
X4328Y-146997D01*
X4891Y-146843D01*
X5712Y-146741D01*
X5916Y-146536D01*
X6326Y-146433D01*
X7351Y-146330D01*
X8018Y-146177D01*
X8581Y-146023D01*
X8991Y-145921D01*
X15038Y-146023D01*
X15346Y-146126D01*
X15807Y-146074D01*
X17191Y-146228D01*
X20368Y-146330D01*
X21085Y-146433D01*
X23238Y-146536D01*
X23545Y-146638D01*
X26517Y-146741D01*
X26825Y-146638D01*
X27747Y-146536D01*
X28055Y-146433D01*
X29131Y-146177D01*
X29592Y-145921D01*
X30105Y-145716D01*
X30515Y-145306D01*
X30719Y-145203D01*
X31130Y-144486D01*
X31539Y-144383D01*
X32154Y-144486D01*
X33077Y-144998D01*
X33384Y-145306D01*
X33538Y-145357D01*
X33640Y-145562D01*
X34153Y-146074D01*
X34255Y-146382D01*
X34512Y-146638D01*
X34666Y-146587D01*
X34768Y-146177D01*
X34666Y-145767D01*
X34358Y-145459D01*
X34153Y-144947D01*
X33640Y-144434D01*
X33538Y-144229D01*
X33077Y-143768D01*
X32872Y-143666D01*
X32564Y-143358D01*
X32154Y-143256D01*
X30822Y-142846D01*
X30258Y-142692D01*
X29490Y-142231D01*
X28772Y-142128D01*
X28260Y-141923D01*
X27850Y-141821D01*
X25595Y-141718D01*
X24878Y-141616D01*
X18882Y-141462D01*
X18062Y-141360D01*
X16114Y-141257D01*
X15499Y-141155D01*
X14987Y-141052D01*
X14577Y-140950D01*
X13962Y-140642D01*
X13142Y-139822D01*
X13040Y-139617D01*
X12630Y-139207D01*
X12322Y-138695D01*
X12117Y-138490D01*
X11195Y-136543D01*
X11041Y-135979D01*
X10785Y-135313D01*
X10682Y-134595D01*
X10529Y-132597D01*
X10477Y-131623D01*
X10580Y-131315D01*
X10734Y-128804D01*
X10939Y-127472D01*
X11041Y-127062D01*
X11143Y-126447D01*
X11246Y-125012D01*
X11349Y-124192D01*
X11451Y-123680D01*
X11553Y-123270D01*
X11656Y-121835D01*
X11759Y-120605D01*
X11861Y-119785D01*
X12066Y-118555D01*
X12169Y-116608D01*
X12373Y-114250D01*
X12476Y-113636D01*
X12578Y-112508D01*
X12681Y-110458D01*
X12783Y-109126D01*
X12886Y-108511D01*
X13091Y-106871D01*
X13193Y-104616D01*
X13296Y-103386D01*
X13398Y-102566D01*
X13501Y-101542D01*
X13603Y-100312D01*
X13706Y-97749D01*
X13808Y-96622D01*
X13911Y-95392D01*
X14065Y-94008D01*
X14218Y-90985D01*
X14321Y-89857D01*
X14423Y-89447D01*
X14577Y-88064D01*
X14731Y-86168D01*
X14833Y-85553D01*
X14936Y-85143D01*
X15038Y-84323D01*
X15141Y-82991D01*
X15243Y-82170D01*
X15346Y-81761D01*
X15551Y-80531D01*
X15653Y-78788D01*
X15704Y-76277D01*
X15602Y-75970D01*
X15499Y-74432D01*
X15192Y-73715D01*
X14987Y-72793D01*
X14577Y-71870D01*
X14475Y-71460D01*
X14269Y-71255D01*
X13911Y-70281D01*
X13296Y-69051D01*
X13142Y-68590D01*
X12937Y-68078D01*
X12732Y-67873D01*
X12578Y-67207D01*
X12117Y-66438D01*
X12015Y-65925D01*
X11707Y-65208D01*
X11451Y-64542D01*
X11195Y-64286D01*
X11092Y-63671D01*
X10682Y-62748D01*
X10580Y-62236D01*
X10272Y-61723D01*
X10067Y-60801D01*
X9760Y-60083D01*
X9657Y-59674D01*
X9401Y-59007D01*
X9247Y-58546D01*
X9043Y-57726D01*
X8735Y-57009D01*
X8633Y-56291D01*
X8325Y-55574D01*
X8223Y-55164D01*
X8069Y-54600D01*
X7813Y-54036D01*
X7556Y-52960D01*
X7300Y-52397D01*
X7146Y-51423D01*
X6890Y-50859D01*
X6788Y-50449D01*
X6531Y-49373D01*
X6326Y-48861D01*
X6121Y-47733D01*
X5865Y-46862D01*
X5763Y-46145D01*
X5660Y-45325D01*
X5558Y-45017D01*
X5404Y-44248D01*
X5301Y-43019D01*
X5250Y-40200D01*
X5814Y-39636D01*
X6941Y-39124D01*
X7761Y-39226D01*
X8274Y-39534D01*
X8684Y-39636D01*
X8889Y-39739D01*
X9196Y-40046D01*
X9760Y-40200D01*
X9914Y-40354D01*
X10119Y-40456D01*
X10836Y-40866D01*
X11553Y-41379D01*
X12066Y-41584D01*
X12271Y-41686D01*
X12476Y-41891D01*
X12988Y-42096D01*
X13296Y-42199D01*
X13501Y-42404D01*
X14218Y-42609D01*
X14936Y-42916D01*
X15346Y-43019D01*
X16678Y-43531D01*
X17498Y-43633D01*
X17806Y-43736D01*
X18933Y-44043D01*
X22418Y-44146D01*
X22828Y-44043D01*
X23750Y-43941D01*
X24673Y-43531D01*
X24878Y-43429D01*
X25082Y-43224D01*
X25287Y-43121D01*
X26005Y-42609D01*
X26210Y-42711D01*
X27030Y-43531D01*
X27235Y-43633D01*
X27542Y-43941D01*
X27747Y-44043D01*
X28055Y-44351D01*
X28260Y-44454D01*
X28670Y-44863D01*
X28875Y-44966D01*
X29285Y-45376D01*
X29490Y-45478D01*
X30002Y-45991D01*
X30515Y-46298D01*
X31232Y-46811D01*
X31796Y-47272D01*
X31949Y-47426D01*
X32667Y-47836D01*
X33179Y-48143D01*
X34102Y-48656D01*
X34307Y-48861D01*
X34717Y-48963D01*
X35639Y-49373D01*
X36049Y-49476D01*
X36920Y-49629D01*
X37843Y-49732D01*
X38406Y-50090D01*
X38560Y-50244D01*
X38970Y-50962D01*
X39688Y-52089D01*
X39790Y-52294D01*
X39995Y-52499D01*
X40097Y-52704D01*
X40610Y-53422D01*
X40712Y-53626D01*
X41635Y-54959D01*
X41737Y-55164D01*
X41942Y-55369D01*
X42045Y-55574D01*
X43070Y-57009D01*
X43172Y-57214D01*
X43480Y-57521D01*
X43582Y-57726D01*
X43992Y-58341D01*
X44095Y-58546D01*
X44248Y-58802D01*
X44402Y-58854D01*
X44505Y-59059D01*
X45017Y-59776D01*
X45325Y-60289D01*
X46042Y-61313D01*
X46145Y-61518D01*
X46452Y-61826D01*
X46760Y-62338D01*
X47067Y-62646D01*
X47169Y-62851D01*
X47785Y-63466D01*
X47887Y-63671D01*
X48963Y-64747D01*
X49168Y-64849D01*
X49475Y-65157D01*
X49681Y-65259D01*
X50090Y-65669D01*
X52243Y-66694D01*
X53575Y-66797D01*
X53883Y-66694D01*
X54498Y-66592D01*
X55420Y-65874D01*
X55625Y-65669D01*
X55779Y-65618D01*
X55881Y-65413D01*
X56394Y-64696D01*
X56650Y-64029D01*
X56855Y-63722D01*
X57367Y-63824D01*
X57726Y-64183D01*
X57829Y-64388D01*
X58085Y-64644D01*
X58290Y-64747D01*
X59212Y-65669D01*
X59417Y-65772D01*
X60852Y-67207D01*
X61057Y-67309D01*
X61262Y-67617D01*
X61467Y-67719D01*
X62800Y-69051D01*
X63004Y-69154D01*
X63261Y-69410D01*
X63312Y-69564D01*
X63517Y-69667D01*
X64439Y-70589D01*
X64593Y-70640D01*
X64696Y-70845D01*
X64849Y-70999D01*
X65054Y-71101D01*
X65464Y-71511D01*
X65669Y-71614D01*
X65977Y-71921D01*
X66182Y-72024D01*
X66592Y-72434D01*
X66797Y-72536D01*
X67207Y-72946D01*
X67412Y-73049D01*
X67822Y-73459D01*
X68539Y-73869D01*
X69103Y-74330D01*
X69257Y-74484D01*
X69667Y-74586D01*
X69974Y-74894D01*
X71409Y-75714D01*
X71614Y-75918D01*
X72024Y-76021D01*
X72229Y-76123D01*
X72844Y-76533D01*
X73356Y-76636D01*
X73664Y-76943D01*
X74535Y-77097D01*
X75406Y-77456D01*
X77148Y-77353D01*
X77763Y-76943D01*
X77968Y-76841D01*
X78173Y-76329D01*
X78327Y-76175D01*
X78532Y-75662D01*
X78430Y-72280D01*
X78327Y-71973D01*
X78173Y-71306D01*
X78071Y-70794D01*
X77917Y-69923D01*
X77610Y-69205D01*
X77507Y-68590D01*
X77097Y-67770D01*
X77610Y-66848D01*
X78020Y-66438D01*
X78122Y-65823D01*
X78430Y-65106D01*
X78532Y-64081D01*
X78430Y-61723D01*
X78327Y-61416D01*
X78173Y-60750D01*
X78071Y-59930D01*
X77917Y-58956D01*
X77712Y-58444D01*
X77507Y-57009D01*
X77251Y-56343D01*
X77148Y-55830D01*
X77046Y-55010D01*
X76943Y-54600D01*
X76790Y-54036D01*
X76585Y-53217D01*
X76482Y-52192D01*
X76277Y-51679D01*
X76175Y-51269D01*
X76072Y-50552D01*
X75918Y-49783D01*
X75765Y-49322D01*
X75662Y-48912D01*
X75560Y-48194D01*
X75457Y-47682D01*
X75150Y-46965D01*
X75047Y-45940D01*
X74740Y-45222D01*
X74637Y-44505D01*
X74535Y-44095D01*
X74227Y-43377D01*
X74125Y-42967D01*
X74022Y-42352D01*
X73715Y-41840D01*
X73459Y-40764D01*
X73305Y-40610D01*
X73100Y-39790D01*
X72690Y-38868D01*
X72536Y-38201D01*
X72178Y-37535D01*
X72024Y-36971D01*
X71768Y-36510D01*
X71409Y-35537D01*
X71255Y-35383D01*
X71101Y-34717D01*
X70743Y-34255D01*
X70589Y-33692D01*
X70128Y-32923D01*
X70025Y-32513D01*
X69820Y-32308D01*
X69564Y-31642D01*
X69205Y-30976D01*
X68898Y-30463D01*
X67873Y-28618D01*
X66950Y-27081D01*
X66746Y-26876D01*
X66540Y-26364D01*
X66336Y-26159D01*
X66028Y-25646D01*
X65567Y-24775D01*
X65362Y-24673D01*
X65106Y-24006D01*
X64952Y-22930D01*
X64849Y-22110D01*
X64747Y-20675D01*
X64644Y-20060D01*
X64491Y-19497D01*
X64388Y-18779D01*
X64286Y-18369D01*
X64183Y-17447D01*
X63978Y-16934D01*
X63876Y-16524D01*
X63773Y-15807D01*
X63671Y-15397D01*
X63363Y-14679D01*
X63210Y-14013D01*
X63004Y-13501D01*
X62851Y-13040D01*
X62748Y-12630D01*
X62646Y-12425D01*
X62338Y-11707D01*
X61006Y-9145D01*
X60493Y-8223D01*
X60083Y-7505D01*
X59879Y-7300D01*
X59776Y-6890D01*
X59468Y-6583D01*
X59059Y-5865D01*
X58854Y-5660D01*
X58751Y-5250D01*
X58341Y-4840D01*
X58034Y-4328D01*
X57829Y-4123D01*
X57521Y-3610D01*
X57009Y-2893D01*
X56394Y-1971D01*
X56291Y-1766D01*
X55881Y-1356D01*
X55779Y-1151D01*
X55369Y-741D01*
X55061Y-228D01*
X54549Y489D01*
X54344Y694D01*
X54241Y899D01*
X53934Y1207D01*
X53832Y1412D01*
X53524Y1719D01*
X53217Y2232D01*
X52909Y2539D01*
X52807Y2744D01*
X52499Y3052D01*
X52397Y3257D01*
X51987Y3667D01*
X51884Y3871D01*
X51167Y4794D01*
X50962Y4999D01*
X50859Y5204D01*
X50449Y5614D01*
X50347Y5819D01*
X50039Y6126D01*
X49937Y6331D01*
X49219Y7254D01*
X48912Y7561D01*
X48809Y7766D01*
X48092Y8484D01*
X47989Y8689D01*
X47272Y9611D01*
X47067Y9816D01*
X46965Y10021D01*
X46554Y10431D01*
X46452Y10636D01*
X46042Y11046D01*
X45940Y11251D01*
X45530Y11661D01*
X45427Y11866D01*
X45120Y12173D01*
X44863Y12635D01*
X44658Y12737D01*
X44402Y13096D01*
X43685Y13813D01*
X43582Y14018D01*
X43275Y14326D01*
X43172Y14531D01*
X42660Y15043D01*
X42557Y15248D01*
X42096Y15812D01*
X41635Y16273D01*
X41532Y16478D01*
X40712Y17298D01*
X40610Y17503D01*
X40200Y17913D01*
X40097Y18118D01*
X39688Y18528D01*
X39585Y18733D01*
X39278Y19040D01*
X39175Y19245D01*
X38560Y19860D01*
X38509Y20014D01*
X38304Y20117D01*
X38048Y20475D01*
X37330Y21193D01*
X37228Y21398D01*
X36613Y22013D01*
X36510Y22218D01*
X36100Y22628D01*
X35998Y22833D01*
X35280Y23550D01*
X35178Y23755D01*
X34153Y24780D01*
X34102Y24934D01*
X33897Y25036D01*
X33384Y25651D01*
X32821Y26215D01*
X32718Y26420D01*
X31591Y27547D01*
X31539Y27701D01*
X31386Y27752D01*
X31283Y27957D01*
X30771Y28470D01*
X30668Y28675D01*
X30258Y28982D01*
X30156Y29187D01*
X29746Y29597D01*
X29643Y29802D01*
X29438Y29904D01*
X29336Y30110D01*
X29080Y30366D01*
X28926Y30417D01*
X28823Y30622D01*
X28567Y30878D01*
X28413Y30930D01*
X28311Y31134D01*
X27132Y32313D01*
X26927Y32416D01*
X26671Y32774D01*
X26466Y32877D01*
X26364Y33082D01*
X26107Y33338D01*
X25954Y33389D01*
X25851Y33594D01*
X25595Y33851D01*
X25441Y33902D01*
X25339Y34107D01*
X25082Y34363D01*
X24929Y34414D01*
X24826Y34619D01*
X24673Y34773D01*
X24467Y34875D01*
X24211Y35234D01*
X23904Y35439D01*
X23801Y35644D01*
X23186Y36156D01*
X23033Y36310D01*
X22828Y36413D01*
X21598Y37643D01*
X21393Y37745D01*
X20470Y38668D01*
X20265Y38770D01*
X19343Y39692D01*
X19138Y39795D01*
X18984Y39949D01*
X18933Y40103D01*
X18728Y40205D01*
X18216Y40717D01*
X18010Y40820D01*
X17601Y41230D01*
X17395Y41332D01*
X16678Y42050D01*
X16473Y42152D01*
X16268Y42357D01*
X16114Y42409D01*
X16063Y42562D01*
X15858Y42665D01*
X15448Y43075D01*
X15243Y43177D01*
X14833Y43587D01*
X14628Y43690D01*
X14321Y43997D01*
X14116Y44100D01*
X13911Y44305D01*
X13706Y44407D01*
X13501Y44612D01*
X13296Y44715D01*
X12886Y45125D01*
X12681Y45227D01*
X12476Y45535D01*
X11963Y45842D01*
X10682Y46816D01*
X10426Y47072D01*
X9914Y47379D01*
X9196Y47892D01*
X8633Y48353D01*
X8479Y48507D01*
X7761Y48917D01*
X7198Y49378D01*
X6378Y49890D01*
X5814Y50249D01*
X5609Y50454D01*
X4891Y50864D01*
X4174Y51377D01*
X3457Y51787D01*
X2739Y52299D01*
X1817Y52811D01*
X279Y53631D01*
X74Y53836D01*
X-438Y54041D01*
X-1053Y54451D01*
X-1463Y54554D01*
X-1770Y54861D01*
X-2180Y54964D01*
X-2693Y55271D01*
X-3000Y55374D01*
X-4333Y55989D01*
X-5460Y56501D01*
X-5768Y56604D01*
X-6485Y56911D01*
X-7818Y57424D01*
X-8432Y57526D01*
X-9150Y57834D01*
X-9560Y57936D01*
X-10329Y58090D01*
X-11200Y58346D01*
X-13301Y58602D01*
X-14223Y58705D01*
X-16529Y58756D01*
X-16837Y58654D01*
X-18374Y58551D01*
X-18682Y58449D01*
X-20475Y58295D01*
X-21039Y58141D01*
X-21859Y57936D01*
X-22833Y57782D01*
X-23704Y57424D01*
X-24319Y57321D01*
X-25036Y57014D01*
X-25446Y56911D01*
X-25959Y56706D01*
X-26676Y56399D01*
X-27188Y56194D01*
X-27906Y55886D01*
X-28418Y55579D01*
X-29341Y55066D01*
X-30776Y54246D01*
X-31083Y53939D01*
X-31288Y53836D01*
X-31596Y53529D01*
X-32108Y53222D01*
X-32313Y53017D01*
X-32518Y52914D01*
X-33031Y52401D01*
X-33235Y52299D01*
X-33440Y51992D01*
X-33646Y51889D01*
X-33799Y51735D01*
X-33851Y51582D01*
X-34056Y51479D01*
X-34209Y51325D01*
X-34312Y51120D01*
X-35644Y49788D01*
X-36054Y49071D01*
X-36515Y48507D01*
X-37540Y46764D01*
X-37745Y46252D01*
X-38206Y45176D01*
X-38616Y44253D01*
X-38770Y43690D01*
X-39026Y43229D01*
X-39231Y42409D01*
X-39539Y41691D01*
X-39641Y40974D01*
X-40000Y40000D01*
X-40307Y39692D01*
X-43075Y39795D01*
X-43280Y40000D01*
X-44202Y40512D01*
X-44407Y40717D01*
X-44612Y40820D01*
X-44868Y41076D01*
X-44971Y41281D01*
X-45381Y41691D01*
X-45483Y41896D01*
X-45637Y42152D01*
X-45791Y42204D01*
X-45893Y42409D01*
X-46406Y43126D01*
X-46508Y43536D01*
X-46713Y43741D01*
X-47072Y44715D01*
X-47328Y45381D01*
X-47482Y46560D01*
X-47636Y47123D01*
X-47738Y47533D01*
X-47841Y50096D01*
X-47943Y52453D01*
X-48046Y52760D01*
X-48148Y55528D01*
X-48251Y55835D01*
X-48148Y60652D01*
X-48046Y60960D01*
X-47892Y62548D01*
X-47789Y63881D01*
X-47687Y64496D01*
X-47431Y65367D01*
X-47328Y65777D01*
X-47226Y66494D01*
X-46918Y67212D01*
X-46764Y67878D01*
X-46508Y68442D01*
X-46098Y69467D01*
X-45791Y70184D01*
X-45688Y70389D01*
X-45073Y71516D01*
X-44561Y72439D01*
X-44100Y73002D01*
X-43741Y73771D01*
X-43536Y73976D01*
X-43229Y74489D01*
X-42921Y74796D01*
X-42614Y75308D01*
X-42101Y76026D01*
X-41640Y76590D01*
X-41127Y77410D01*
X-40871Y77768D01*
X-40564Y78076D01*
X-40051Y78998D01*
X-39590Y79562D01*
X-39231Y80126D01*
X-38821Y80843D01*
X-38514Y81151D01*
X-38411Y81560D01*
X-38104Y81868D01*
X-37284Y83303D01*
X-37079Y83508D01*
X-36925Y84072D01*
X-36669Y84328D01*
X-36361Y85148D01*
X-36156Y85353D01*
X-36054Y85763D01*
X-35644Y86685D01*
X-35542Y87095D01*
X-35337Y87607D01*
X-35029Y88325D01*
X-34927Y88940D01*
X-34619Y89657D01*
X-34312Y91092D01*
X-34107Y91605D01*
X-34004Y92835D01*
X-33902Y93142D01*
X-33697Y93962D01*
X-33594Y94987D01*
X-33440Y96678D01*
X-33184Y98779D01*
X-33082Y101034D01*
X-33184Y104519D01*
X-33287Y104826D01*
X-33440Y106312D01*
X-33543Y107440D01*
X-33646Y109080D01*
X-33748Y109592D01*
X-33851Y110002D01*
X-33953Y110514D01*
X-34056Y111130D01*
X-34158Y111949D01*
X-34414Y112821D01*
X-34517Y113231D01*
X-34773Y114307D01*
X-34978Y114819D01*
X-35183Y115844D01*
X-35439Y116305D01*
X-35542Y116715D01*
X-35695Y117279D01*
X-36054Y117945D01*
X-36156Y118458D01*
X-36669Y119585D01*
X-36772Y119790D01*
X-37079Y120507D01*
X-37387Y121020D01*
X-37591Y121532D01*
X-37694Y121737D01*
X-38001Y122045D01*
X-38719Y123377D01*
X-38924Y123582D01*
X-39334Y124300D01*
X-39539Y124505D01*
X-39641Y124710D01*
X-39846Y124915D01*
X-39949Y125120D01*
X-40615Y126093D01*
X-40974Y126452D01*
X-41076Y126657D01*
X-41281Y127170D01*
X-41025Y127221D01*
X-40461Y126760D01*
X-39641Y126247D01*
X-39283Y125991D01*
X-38975Y125683D01*
X-38463Y125376D01*
X-38258Y125171D01*
X-38053Y125068D01*
X-37540Y124556D01*
X-37335Y124453D01*
X-35439Y122557D01*
X-35337Y122352D01*
X-34824Y121840D01*
X-34517Y121327D01*
X-34209Y121020D01*
X-34107Y120815D01*
X-33594Y120098D01*
X-33492Y119893D01*
X-33287Y119688D01*
X-32979Y119175D01*
X-32467Y118253D01*
X-32262Y118048D01*
X-32159Y117638D01*
X-31749Y117023D01*
X-31647Y116613D01*
X-31339Y116100D01*
X-31237Y115690D01*
X-30724Y114563D01*
X-30622Y114153D01*
X-30315Y113435D01*
X-30161Y112872D01*
X-29904Y112308D01*
X-29802Y111898D01*
X-29700Y111283D01*
X-29290Y110361D01*
X-29187Y109541D01*
X-28982Y109028D01*
X-28880Y108618D01*
X-28777Y107901D01*
X-28675Y107286D01*
X-28470Y106774D01*
X-28367Y105749D01*
X-28162Y104006D01*
X-27701Y102930D01*
X-27547Y103494D01*
X-27599Y104263D01*
X-27547Y105031D01*
X-27650Y105339D01*
X-27752Y107696D01*
X-27855Y108004D01*
X-28008Y109080D01*
X-28111Y109695D01*
X-28213Y110617D01*
X-28316Y111232D01*
X-28572Y112103D01*
X-28777Y113538D01*
X-29085Y114256D01*
X-29187Y114973D01*
X-29290Y115383D01*
X-29495Y115588D01*
X-29597Y115998D01*
X-29802Y116715D01*
X-29700Y116920D01*
X-29648Y116972D01*
X-29290Y116613D01*
X-29187Y116408D01*
X-28982Y116203D01*
X-28777Y115690D01*
X-28675Y115485D01*
X-28470Y115280D01*
X-28367Y115075D01*
X-27650Y113743D01*
X-27342Y113231D01*
X-26830Y112103D01*
X-26727Y111898D01*
X-26420Y111386D01*
X-26163Y110719D01*
X-26010Y110566D01*
X-25651Y109592D01*
X-25395Y109028D01*
X-25241Y108465D01*
X-25087Y108311D01*
X-24882Y107799D01*
X-24780Y107184D01*
X-24370Y106261D01*
X-24216Y105595D01*
X-23960Y105031D01*
X-23858Y104314D01*
X-23550Y103596D01*
X-23447Y103186D01*
X-23345Y102469D01*
X-23242Y101956D01*
X-23038Y101444D01*
X-22935Y100419D01*
X-22833Y100009D01*
X-22679Y99445D01*
X-22576Y98933D01*
X-22474Y98113D01*
X-22371Y95346D01*
X-22269Y93706D01*
X-22064Y93193D01*
X-21961Y93091D01*
X-21808Y93655D01*
X-21705Y94679D01*
X-21808Y99907D01*
X-21910Y100214D01*
X-22013Y100624D01*
X-22166Y101598D01*
X-22269Y102213D01*
X-22371Y103135D01*
X-22525Y103699D01*
X-22730Y104519D01*
X-22833Y105236D01*
X-23242Y106569D01*
X-23396Y107235D01*
X-23550Y107593D01*
X-23755Y108106D01*
X-23858Y108823D01*
X-24267Y109746D01*
X-24421Y110309D01*
X-24677Y110771D01*
X-24831Y111437D01*
X-24985Y111591D01*
X-25087Y111796D01*
X-25190Y112103D01*
X-25702Y113231D01*
X-25959Y113897D01*
X-26112Y114051D01*
X-26317Y114563D01*
X-26420Y114768D01*
X-27957Y117535D01*
X-28162Y117740D01*
X-28572Y118458D01*
X-29187Y119483D01*
X-29290Y119688D01*
X-29700Y120098D01*
X-29802Y120302D01*
X-30007Y120507D01*
X-30110Y120712D01*
X-30776Y121686D01*
X-31134Y122045D01*
X-31237Y122250D01*
X-31544Y122557D01*
X-31647Y122762D01*
X-32057Y123172D01*
X-32364Y123685D01*
X-32672Y123992D01*
X-32774Y124197D01*
X-32928Y124351D01*
X-33082Y124402D01*
X-33184Y124607D01*
X-36720Y128143D01*
X-36925Y128246D01*
X-37335Y128656D01*
X-37848Y128963D01*
X-38053Y129168D01*
X-38258Y129271D01*
X-38565Y129578D01*
X-38770Y129681D01*
X-39283Y130193D01*
X-39692Y130295D01*
X-40000Y130603D01*
X-40461Y130859D01*
X-40564Y131064D01*
X-40922Y131320D01*
X-41332Y131730D01*
X-41537Y131833D01*
X-41845Y132140D01*
X-42050Y132243D01*
X-42357Y132550D01*
X-42870Y132858D01*
X-43177Y133165D01*
X-43382Y133268D01*
X-43997Y133678D01*
X-44202Y133780D01*
X-44407Y133985D01*
X-45944Y134805D01*
X-47687Y135625D01*
X-48814Y136138D01*
X-49327Y136240D01*
X-49532Y136445D01*
X-50608Y136701D01*
X-51120Y136906D01*
X-51582Y137060D01*
X-52350Y137214D01*
X-53017Y137470D01*
X-53426Y137572D01*
X-54298Y137726D01*
X-54759Y137880D01*
X-54861D01*
X-55169Y137982D01*
X-55886Y138085D01*
X-57167Y138239D01*
X-57680Y138341D01*
X-59064Y138495D01*
X-62856Y138392D01*
D02*
G37*
G36*
X-76385Y424464D02*
X-75830Y423881D01*
X-75274Y423298D01*
X-74691Y422771D01*
X-74081Y422271D01*
X-73498Y421799D01*
X-72887Y421355D01*
X-72332Y420966D01*
X-71804Y420577D01*
X-71304Y420272D01*
X-70860Y419994D01*
X-70472Y419772D01*
X-70138Y419578D01*
X-69889Y419439D01*
X-69750Y419356D01*
X-69694Y419328D01*
Y416357D01*
X-70305Y416718D01*
X-70916Y417107D01*
X-72110Y417912D01*
X-72665Y418329D01*
X-73192Y418745D01*
X-73720Y419161D01*
X-74192Y419578D01*
X-74608Y419967D01*
X-74997Y420300D01*
X-75330Y420633D01*
X-75635Y420910D01*
X-75858Y421133D01*
X-76024Y421299D01*
X-76135Y421410D01*
X-76163Y421438D01*
Y403309D01*
X-69111D01*
Y401116D01*
X-85602D01*
Y403309D01*
X-78995D01*
Y425075D01*
X-76885D01*
X-76385Y424464D01*
D02*
G37*
G36*
X-19084Y401421D02*
X-18917Y400922D01*
X-18751Y400477D01*
X-18612Y400061D01*
X-18445Y399700D01*
X-18306Y399367D01*
X-18140Y399062D01*
X-18029Y398812D01*
X-17890Y398618D01*
X-17779Y398423D01*
X-17668Y398284D01*
X-17557Y398145D01*
X-17501Y398062D01*
X-17363Y397923D01*
X-17335Y397896D01*
X-17002Y397646D01*
X-16641Y397452D01*
X-16280Y397340D01*
X-15947Y397229D01*
X-15641Y397174D01*
X-15419Y397146D01*
X-15197D01*
X-14586Y397174D01*
X-14281Y397229D01*
X-14003Y397257D01*
X-13753Y397313D01*
X-13559Y397340D01*
X-13448Y397368D01*
X-13392D01*
Y395258D01*
X-13865Y395147D01*
X-14281Y395064D01*
X-14670Y394981D01*
X-15003Y394953D01*
X-15308Y394925D01*
X-15502Y394897D01*
X-15697D01*
X-16307Y394953D01*
X-16863Y395092D01*
X-17390Y395286D01*
X-17862Y395564D01*
X-18306Y395869D01*
X-18695Y396230D01*
X-19056Y396591D01*
X-19389Y397007D01*
X-19667Y397396D01*
X-19889Y397757D01*
X-20111Y398118D01*
X-20278Y398423D01*
X-20389Y398701D01*
X-20472Y398923D01*
X-20527Y399034D01*
X-20555Y399089D01*
X-27524Y418495D01*
X-25219D01*
X-20500Y405391D01*
X-15836Y418495D01*
X-13059D01*
X-19084Y401421D01*
D02*
G37*
G36*
X50544Y418939D02*
X51127Y418856D01*
X51710Y418717D01*
X52265Y418578D01*
X52765Y418356D01*
X53237Y418162D01*
X53681Y417912D01*
X54070Y417690D01*
X54430Y417440D01*
X54736Y417190D01*
X55014Y416996D01*
X55236Y416802D01*
X55402Y416635D01*
X55541Y416496D01*
X55624Y416413D01*
X55652Y416385D01*
X56041Y415886D01*
X56402Y415358D01*
X56707Y414831D01*
X56957Y414275D01*
X57179Y413692D01*
X57373Y413137D01*
X57512Y412610D01*
X57651Y412082D01*
X57734Y411582D01*
X57818Y411138D01*
X57845Y410722D01*
X57901Y410389D01*
Y410083D01*
X57929Y409889D01*
Y409750D01*
Y409695D01*
X57901Y408945D01*
X57845Y408251D01*
X57734Y407585D01*
X57595Y406974D01*
X57429Y406391D01*
X57235Y405836D01*
X57040Y405336D01*
X56818Y404892D01*
X56624Y404503D01*
X56429Y404142D01*
X56235Y403837D01*
X56069Y403587D01*
X55930Y403393D01*
X55819Y403254D01*
X55763Y403171D01*
X55735Y403143D01*
X55319Y402699D01*
X54847Y402310D01*
X54375Y401977D01*
X53903Y401699D01*
X53431Y401449D01*
X52931Y401255D01*
X52487Y401088D01*
X52015Y400950D01*
X51599Y400866D01*
X51210Y400783D01*
X50849Y400727D01*
X50544Y400672D01*
X50294D01*
X50127Y400644D01*
X49961D01*
X49461Y400672D01*
X48989Y400700D01*
X48101Y400866D01*
X47296Y401088D01*
X46935Y401227D01*
X46602Y401366D01*
X46296Y401505D01*
X46046Y401644D01*
X45824Y401755D01*
X45630Y401866D01*
X45463Y401949D01*
X45352Y402032D01*
X45297Y402060D01*
X45269Y402088D01*
X44908Y402365D01*
X44575Y402671D01*
X44270Y402976D01*
X43992Y403282D01*
X43548Y403892D01*
X43159Y404475D01*
X42909Y405003D01*
X42798Y405225D01*
X42715Y405419D01*
X42659Y405558D01*
X42604Y405669D01*
X42576Y405752D01*
Y405780D01*
X45102Y406308D01*
X45380Y405697D01*
X45686Y405169D01*
X46046Y404725D01*
X46407Y404337D01*
X46796Y404003D01*
X47185Y403726D01*
X47573Y403504D01*
X47962Y403309D01*
X48323Y403171D01*
X48656Y403087D01*
X48989Y403004D01*
X49239Y402948D01*
X49489Y402921D01*
X49655Y402893D01*
X49794D01*
X50127Y402921D01*
X50461Y402948D01*
X51099Y403115D01*
X51710Y403337D01*
X52210Y403587D01*
X52654Y403837D01*
X52820Y403948D01*
X52987Y404031D01*
X53098Y404142D01*
X53181Y404198D01*
X53237Y404226D01*
X53264Y404253D01*
X53542Y404531D01*
X53792Y404892D01*
X54014Y405253D01*
X54208Y405669D01*
X54375Y406113D01*
X54514Y406558D01*
X54708Y407446D01*
X54764Y407862D01*
X54819Y408251D01*
X54847Y408640D01*
X54875Y408945D01*
X54903Y409223D01*
Y409417D01*
Y409528D01*
Y409584D01*
X42271D01*
X42298Y410444D01*
X42382Y411222D01*
X42493Y411971D01*
X42632Y412637D01*
X42798Y413276D01*
X42965Y413859D01*
X43159Y414386D01*
X43353Y414858D01*
X43548Y415247D01*
X43742Y415608D01*
X43936Y415913D01*
X44075Y416163D01*
X44214Y416357D01*
X44325Y416496D01*
X44381Y416580D01*
X44408Y416607D01*
X44825Y417024D01*
X45241Y417385D01*
X45686Y417690D01*
X46157Y417968D01*
X46602Y418190D01*
X47074Y418384D01*
X47518Y418551D01*
X47934Y418662D01*
X48351Y418773D01*
X48712Y418856D01*
X49045Y418884D01*
X49350Y418939D01*
X49572D01*
X49767Y418967D01*
X49905D01*
X50544Y418939D01*
D02*
G37*
G36*
X32193D02*
X32776Y418856D01*
X33359Y418717D01*
X33914Y418578D01*
X34414Y418356D01*
X34886Y418162D01*
X35330Y417912D01*
X35719Y417690D01*
X36080Y417440D01*
X36385Y417190D01*
X36663Y416996D01*
X36885Y416802D01*
X37051Y416635D01*
X37190Y416496D01*
X37273Y416413D01*
X37301Y416385D01*
X37690Y415886D01*
X38051Y415358D01*
X38356Y414831D01*
X38606Y414275D01*
X38828Y413692D01*
X39023Y413137D01*
X39161Y412610D01*
X39300Y412082D01*
X39383Y411582D01*
X39467Y411138D01*
X39495Y410722D01*
X39550Y410389D01*
Y410083D01*
X39578Y409889D01*
Y409750D01*
Y409695D01*
X39550Y408945D01*
X39495Y408251D01*
X39383Y407585D01*
X39245Y406974D01*
X39078Y406391D01*
X38884Y405836D01*
X38689Y405336D01*
X38467Y404892D01*
X38273Y404503D01*
X38079Y404142D01*
X37884Y403837D01*
X37718Y403587D01*
X37579Y403393D01*
X37468Y403254D01*
X37412Y403171D01*
X37385Y403143D01*
X36968Y402699D01*
X36496Y402310D01*
X36024Y401977D01*
X35552Y401699D01*
X35080Y401449D01*
X34581Y401255D01*
X34136Y401088D01*
X33664Y400950D01*
X33248Y400866D01*
X32859Y400783D01*
X32498Y400727D01*
X32193Y400672D01*
X31943D01*
X31777Y400644D01*
X31610D01*
X31110Y400672D01*
X30638Y400700D01*
X29750Y400866D01*
X28945Y401088D01*
X28584Y401227D01*
X28251Y401366D01*
X27945Y401505D01*
X27696Y401644D01*
X27473Y401755D01*
X27279Y401866D01*
X27113Y401949D01*
X27002Y402032D01*
X26946Y402060D01*
X26918Y402088D01*
X26557Y402365D01*
X26224Y402671D01*
X25919Y402976D01*
X25641Y403282D01*
X25197Y403892D01*
X24808Y404475D01*
X24558Y405003D01*
X24447Y405225D01*
X24364Y405419D01*
X24309Y405558D01*
X24253Y405669D01*
X24225Y405752D01*
Y405780D01*
X26752Y406308D01*
X27029Y405697D01*
X27335Y405169D01*
X27696Y404725D01*
X28056Y404337D01*
X28445Y404003D01*
X28834Y403726D01*
X29223Y403504D01*
X29611Y403309D01*
X29972Y403171D01*
X30305Y403087D01*
X30638Y403004D01*
X30888Y402948D01*
X31138Y402921D01*
X31305Y402893D01*
X31443D01*
X31777Y402921D01*
X32110Y402948D01*
X32748Y403115D01*
X33359Y403337D01*
X33859Y403587D01*
X34303Y403837D01*
X34469Y403948D01*
X34636Y404031D01*
X34747Y404142D01*
X34830Y404198D01*
X34886Y404226D01*
X34914Y404253D01*
X35191Y404531D01*
X35441Y404892D01*
X35663Y405253D01*
X35858Y405669D01*
X36024Y406113D01*
X36163Y406558D01*
X36357Y407446D01*
X36413Y407862D01*
X36468Y408251D01*
X36496Y408640D01*
X36524Y408945D01*
X36552Y409223D01*
Y409417D01*
Y409528D01*
Y409584D01*
X23920D01*
X23948Y410444D01*
X24031Y411222D01*
X24142Y411971D01*
X24281Y412637D01*
X24447Y413276D01*
X24614Y413859D01*
X24808Y414386D01*
X25003Y414858D01*
X25197Y415247D01*
X25391Y415608D01*
X25586Y415913D01*
X25724Y416163D01*
X25863Y416357D01*
X25974Y416496D01*
X26030Y416580D01*
X26058Y416607D01*
X26474Y417024D01*
X26890Y417385D01*
X27335Y417690D01*
X27807Y417968D01*
X28251Y418190D01*
X28723Y418384D01*
X29167Y418551D01*
X29583Y418662D01*
X30000Y418773D01*
X30361Y418856D01*
X30694Y418884D01*
X30999Y418939D01*
X31221D01*
X31416Y418967D01*
X31555D01*
X32193Y418939D01*
D02*
G37*
G36*
X76002Y422021D02*
X69283D01*
Y401116D01*
X66340D01*
Y422021D01*
X59594D01*
Y424603D01*
X76002D01*
Y422021D01*
D02*
G37*
G36*
X12482Y418939D02*
X13065Y418801D01*
X13620Y418634D01*
X14148Y418384D01*
X14620Y418107D01*
X15064Y417801D01*
X15480Y417468D01*
X15869Y417135D01*
X16202Y416802D01*
X16507Y416469D01*
X16757Y416163D01*
X16952Y415886D01*
X17118Y415636D01*
X17229Y415469D01*
X17313Y415358D01*
X17340Y415303D01*
Y418495D01*
X19867D01*
Y401116D01*
X17201D01*
Y410639D01*
X17174Y411138D01*
X17146Y411610D01*
X17063Y412027D01*
X16979Y412443D01*
X16868Y412832D01*
X16757Y413193D01*
X16646Y413526D01*
X16507Y413803D01*
X16369Y414081D01*
X16257Y414303D01*
X16147Y414497D01*
X16035Y414664D01*
X15952Y414803D01*
X15869Y414886D01*
X15841Y414942D01*
X15813Y414969D01*
X15536Y415275D01*
X15258Y415525D01*
X14953Y415747D01*
X14675Y415941D01*
X14370Y416108D01*
X14092Y416219D01*
X13537Y416441D01*
X13037Y416552D01*
X12843Y416580D01*
X12648Y416607D01*
X12510Y416635D01*
X12315D01*
X11788Y416580D01*
X11288Y416469D01*
X10844Y416330D01*
X10483Y416135D01*
X10178Y415941D01*
X9955Y415802D01*
X9817Y415691D01*
X9761Y415636D01*
X9567Y415441D01*
X9400Y415219D01*
X9123Y414692D01*
X8928Y414137D01*
X8817Y413581D01*
X8734Y413054D01*
X8706Y412832D01*
Y412637D01*
X8678Y412471D01*
Y412360D01*
Y412276D01*
Y412249D01*
Y401116D01*
X6152D01*
Y411138D01*
Y411721D01*
X6180Y412276D01*
X6208Y412776D01*
X6235Y413248D01*
X6263Y413665D01*
X6319Y414025D01*
X6374Y414359D01*
X6402Y414664D01*
X6457Y414914D01*
X6513Y415136D01*
X6568Y415303D01*
X6596Y415441D01*
X6624Y415552D01*
X6652Y415636D01*
X6680Y415663D01*
Y415691D01*
X6902Y416135D01*
X7179Y416580D01*
X7485Y416940D01*
X7818Y417274D01*
X8095Y417551D01*
X8345Y417773D01*
X8512Y417884D01*
X8540Y417940D01*
X8567D01*
X9095Y418273D01*
X9650Y418523D01*
X10205Y418717D01*
X10733Y418828D01*
X11177Y418912D01*
X11371Y418939D01*
X11538D01*
X11677Y418967D01*
X11871D01*
X12482Y418939D01*
D02*
G37*
G36*
X-37435Y408667D02*
Y406696D01*
X-49067D01*
Y401116D01*
X-51899D01*
Y406696D01*
X-55702D01*
Y409028D01*
X-51899D01*
Y425103D01*
X-48206D01*
X-37435Y408667D01*
D02*
G37*
G36*
X-59533Y401116D02*
X-63392D01*
Y404975D01*
X-59533D01*
Y401116D01*
D02*
G37*
G36*
X-3481Y418939D02*
X-2954Y418912D01*
X-2482Y418828D01*
X-2038Y418745D01*
X-1621Y418634D01*
X-1233Y418495D01*
X-872Y418356D01*
X-566Y418245D01*
X-289Y418106D01*
X-39Y417968D01*
X183Y417829D01*
X350Y417718D01*
X489Y417635D01*
X600Y417551D01*
X655Y417523D01*
X683Y417496D01*
X988Y417218D01*
X1238Y416913D01*
X1488Y416607D01*
X1682Y416302D01*
X1849Y415997D01*
X1988Y415691D01*
X2182Y415108D01*
X2321Y414608D01*
X2349Y414386D01*
X2376Y414192D01*
X2404Y414053D01*
Y413942D01*
Y413859D01*
Y413831D01*
X2376Y413470D01*
X2349Y413137D01*
X2210Y412499D01*
X2016Y411943D01*
X1766Y411499D01*
X1544Y411138D01*
X1349Y410861D01*
X1210Y410694D01*
X1155Y410666D01*
Y410639D01*
X627Y410222D01*
X72Y409889D01*
X-483Y409611D01*
X-1038Y409389D01*
X-1538Y409223D01*
X-1760Y409167D01*
X-1927Y409112D01*
X-2093Y409084D01*
X-2204Y409056D01*
X-2260Y409028D01*
X-2288D01*
X-5952Y408334D01*
X-6480Y408223D01*
X-6952Y408057D01*
X-7340Y407890D01*
X-7674Y407696D01*
X-7979Y407501D01*
X-8229Y407279D01*
X-8423Y407057D01*
X-8590Y406835D01*
X-8701Y406613D01*
X-8784Y406419D01*
X-8895Y406086D01*
X-8923Y405947D01*
X-8951Y405836D01*
Y405780D01*
Y405752D01*
Y405503D01*
X-8895Y405280D01*
X-8756Y404836D01*
X-8562Y404475D01*
X-8367Y404198D01*
X-8145Y403948D01*
X-7951Y403781D01*
X-7812Y403670D01*
X-7785Y403642D01*
X-7757D01*
X-7313Y403393D01*
X-6813Y403198D01*
X-6341Y403087D01*
X-5897Y402976D01*
X-5508Y402921D01*
X-5175Y402893D01*
X-4897D01*
X-4092Y402921D01*
X-3370Y403032D01*
X-2704Y403198D01*
X-2121Y403393D01*
X-1621Y403642D01*
X-1177Y403920D01*
X-816Y404225D01*
X-483Y404531D01*
X-205Y404836D01*
X17Y405142D01*
X183Y405419D01*
X322Y405669D01*
X405Y405863D01*
X461Y406030D01*
X516Y406141D01*
Y406169D01*
X3098Y405614D01*
X2959Y405169D01*
X2765Y404753D01*
X2349Y403976D01*
X1849Y403309D01*
X1294Y402754D01*
X683Y402254D01*
X44Y401866D01*
X-594Y401533D01*
X-1260Y401255D01*
X-1899Y401060D01*
X-2510Y400894D01*
X-3065Y400783D01*
X-3537Y400727D01*
X-3953Y400672D01*
X-4120D01*
X-4259Y400644D01*
X-4536D01*
X-5147Y400672D01*
X-5702Y400700D01*
X-6230Y400783D01*
X-6730Y400866D01*
X-7201Y400977D01*
X-7646Y401116D01*
X-8034Y401255D01*
X-8395Y401394D01*
X-8701Y401505D01*
X-8978Y401643D01*
X-9228Y401782D01*
X-9423Y401893D01*
X-9589Y401977D01*
X-9700Y402060D01*
X-9756Y402088D01*
X-9783Y402116D01*
X-10144Y402393D01*
X-10450Y402699D01*
X-10700Y403032D01*
X-10949Y403337D01*
X-11144Y403670D01*
X-11283Y403976D01*
X-11421Y404309D01*
X-11532Y404586D01*
X-11671Y405142D01*
X-11727Y405364D01*
X-11754Y405586D01*
X-11782Y405752D01*
Y405863D01*
Y405947D01*
Y405974D01*
X-11754Y406363D01*
X-11727Y406724D01*
X-11560Y407390D01*
X-11283Y408001D01*
X-10949Y408529D01*
X-10561Y409001D01*
X-10089Y409417D01*
X-9617Y409806D01*
X-9117Y410111D01*
X-8617Y410361D01*
X-8145Y410583D01*
X-7701Y410750D01*
X-7285Y410888D01*
X-6952Y410999D01*
X-6674Y411055D01*
X-6507Y411110D01*
X-6452D01*
X-3065Y411721D01*
X-2593Y411832D01*
X-2177Y411971D01*
X-1816Y412138D01*
X-1510Y412304D01*
X-1260Y412499D01*
X-1038Y412693D01*
X-844Y412915D01*
X-705Y413109D01*
X-594Y413304D01*
X-511Y413498D01*
X-428Y413831D01*
X-400Y413970D01*
X-372Y414053D01*
Y414109D01*
Y414137D01*
X-428Y414581D01*
X-539Y414942D01*
X-705Y415275D01*
X-900Y415552D01*
X-1094Y415747D01*
X-1260Y415913D01*
X-1372Y415997D01*
X-1427Y416024D01*
X-1843Y416246D01*
X-2288Y416413D01*
X-2760Y416552D01*
X-3176Y416635D01*
X-3565Y416691D01*
X-3870Y416718D01*
X-4148D01*
X-4758Y416691D01*
X-5286Y416607D01*
X-5786Y416469D01*
X-6258Y416302D01*
X-6646Y416080D01*
X-7007Y415858D01*
X-7340Y415608D01*
X-7618Y415358D01*
X-7840Y415108D01*
X-8034Y414858D01*
X-8201Y414636D01*
X-8340Y414414D01*
X-8451Y414248D01*
X-8506Y414109D01*
X-8562Y414025D01*
Y413998D01*
X-11005Y414525D01*
X-10700Y415303D01*
X-10311Y415997D01*
X-9867Y416580D01*
X-9339Y417107D01*
X-8784Y417523D01*
X-8201Y417884D01*
X-7618Y418190D01*
X-7007Y418412D01*
X-6424Y418606D01*
X-5869Y418745D01*
X-5369Y418828D01*
X-4925Y418912D01*
X-4536Y418939D01*
X-4259Y418967D01*
X-4009D01*
X-3481Y418939D01*
D02*
G37*
%LPC*%
G36*
X-63266Y20629D02*
X-62907Y20578D01*
X-62394Y19450D01*
X-62497Y18733D01*
X-62600Y18425D01*
X-62702Y18016D01*
X-62856Y16119D01*
X-63009Y15556D01*
Y15453D01*
X-63112Y15146D01*
X-63214Y14941D01*
X-63368Y14890D01*
X-63419Y20373D01*
X-63266Y20629D01*
D02*
G37*
G36*
X-6998Y-34512D02*
X-6639Y-34768D01*
X-6485Y-35332D01*
X-6229Y-35895D01*
X-5973Y-36562D01*
X-5819Y-36715D01*
X-5614Y-37535D01*
X-5306Y-37843D01*
X-5204Y-38253D01*
X-4948Y-38919D01*
X-4794Y-39073D01*
X-4640Y-39636D01*
X-4179Y-40712D01*
X-3667Y-41840D01*
X-3564Y-42045D01*
X-2847Y-43582D01*
X-2642Y-44095D01*
X-2232Y-45017D01*
X-2129Y-45427D01*
X-1822Y-45735D01*
X-1668Y-46401D01*
X-1412Y-46657D01*
X-1309Y-47067D01*
X-284Y-49219D01*
X-131Y-49783D01*
X23Y-49937D01*
X228Y-50449D01*
X331Y-50859D01*
X741Y-51474D01*
X843Y-52089D01*
X1151Y-52602D01*
X1304Y-53268D01*
X1560Y-53524D01*
X1766Y-54344D01*
X2175Y-55266D01*
X2278Y-55779D01*
X2483Y-55984D01*
X2688Y-56496D01*
X2790Y-57111D01*
X3098Y-57624D01*
X3252Y-58290D01*
X3508Y-58854D01*
X3610Y-59264D01*
X3969Y-60237D01*
X4277Y-61365D01*
X4533Y-62031D01*
X4635Y-62441D01*
X4789Y-63107D01*
X5045Y-63671D01*
X5199Y-64542D01*
X5404Y-65054D01*
X5558Y-65618D01*
X5660Y-66336D01*
X5763Y-66746D01*
X5968Y-67258D01*
X6070Y-67975D01*
X6173Y-68385D01*
X6275Y-69000D01*
X6480Y-69513D01*
X6583Y-70230D01*
X6685Y-71050D01*
X6890Y-71563D01*
X7044Y-72331D01*
X7146Y-73356D01*
X7249Y-73766D01*
X7403Y-74330D01*
X7505Y-74740D01*
X7608Y-75765D01*
X7761Y-76431D01*
X7915Y-76995D01*
X8223Y-79147D01*
X8325Y-79454D01*
X8530Y-80274D01*
X8684Y-81863D01*
X8889Y-82683D01*
X8991Y-83195D01*
X9094Y-84630D01*
X9401Y-86475D01*
X9504Y-87603D01*
X9555Y-87654D01*
X9452Y-99543D01*
X9350Y-99850D01*
X9247Y-101798D01*
X9145Y-102105D01*
X9043Y-105282D01*
X8940Y-105692D01*
X8838Y-107127D01*
X8735Y-107435D01*
X8633Y-108460D01*
X8530Y-110407D01*
X8428Y-110817D01*
X8325Y-111740D01*
X8223Y-112047D01*
X8120Y-112764D01*
X8018Y-114712D01*
X7915Y-115019D01*
X7761Y-115890D01*
X7659Y-116403D01*
X7454Y-118863D01*
X7249Y-120093D01*
X7146Y-120503D01*
X6941Y-122962D01*
X6788Y-123936D01*
X6685Y-124243D01*
X6583Y-124961D01*
X6480Y-126908D01*
X6378Y-127216D01*
X6224Y-127882D01*
X6121Y-128907D01*
X6019Y-129727D01*
X5916Y-130137D01*
X5660Y-131008D01*
X5507Y-131982D01*
X5148Y-133160D01*
X4994Y-133929D01*
X4584Y-134646D01*
X4174Y-134544D01*
X2842Y-133929D01*
X2432Y-133827D01*
X1509Y-133417D01*
X689Y-133314D01*
X484Y-133109D01*
X-28Y-132904D01*
X-438Y-132802D01*
X-950Y-132494D01*
X-1361Y-132392D01*
X-1668Y-132084D01*
X-2385Y-131674D01*
X-2590Y-131469D01*
X-2795Y-131367D01*
X-3667Y-130496D01*
X-3769Y-130290D01*
X-4076Y-129983D01*
X-4384Y-129471D01*
X-4692Y-129163D01*
X-4794Y-128958D01*
X-5614Y-127216D01*
X-5716Y-126806D01*
X-6024Y-126088D01*
X-6178Y-125115D01*
X-6434Y-124448D01*
X-6639Y-121784D01*
X-6741Y-121476D01*
X-6690Y-116505D01*
X-6741Y-116044D01*
X-6639Y-115737D01*
X-6536Y-115327D01*
X-6434Y-110817D01*
X-6331Y-110510D01*
X-6229Y-108152D01*
X-6126Y-107845D01*
X-6024Y-102208D01*
X-5973Y-91600D01*
X-6024Y-85707D01*
X-5921Y-85399D01*
X-5819Y-81812D01*
X-5716Y-81504D01*
X-5614Y-80172D01*
X-5511Y-79454D01*
X-5409Y-77815D01*
X-5306Y-77507D01*
X-5101Y-76072D01*
X-5204Y-73100D01*
X-5409Y-72587D01*
X-5614Y-71153D01*
X-5819Y-70640D01*
X-6024Y-69820D01*
X-6126Y-69000D01*
X-6434Y-68283D01*
X-6536Y-67258D01*
X-6690Y-66592D01*
X-6844Y-66028D01*
X-7049Y-64798D01*
X-7151Y-63671D01*
X-7254Y-63363D01*
X-7459Y-62543D01*
X-7613Y-60647D01*
X-7920Y-58802D01*
X-8125Y-56137D01*
X-8330Y-54805D01*
X-8432Y-53473D01*
X-8535Y-51628D01*
X-8637Y-50193D01*
X-8791Y-48809D01*
X-8894Y-45940D01*
X-8996Y-43992D01*
X-8894Y-43582D01*
X-8791Y-41430D01*
X-8689Y-41122D01*
X-8484Y-39380D01*
X-8330Y-38611D01*
X-8074Y-37740D01*
X-7920Y-36869D01*
X-7613Y-36049D01*
X-7510Y-35639D01*
X-7408Y-35127D01*
X-7254Y-34768D01*
X-6998Y-34512D01*
D02*
G37*
G36*
X50016Y416913D02*
X49822D01*
X49295Y416885D01*
X48795Y416802D01*
X48351Y416663D01*
X47990Y416524D01*
X47684Y416357D01*
X47462Y416246D01*
X47323Y416135D01*
X47268Y416108D01*
X46879Y415802D01*
X46574Y415469D01*
X46296Y415136D01*
X46102Y414831D01*
X45935Y414581D01*
X45824Y414359D01*
X45769Y414220D01*
X45741Y414164D01*
X45602Y413748D01*
X45463Y413304D01*
X45380Y412859D01*
X45325Y412471D01*
X45269Y412138D01*
Y411860D01*
X45241Y411749D01*
Y411666D01*
Y411638D01*
Y411610D01*
X54791D01*
X54736Y412054D01*
X54680Y412471D01*
X54486Y413220D01*
X54236Y413887D01*
X54097Y414192D01*
X53959Y414442D01*
X53820Y414692D01*
X53681Y414886D01*
X53570Y415053D01*
X53459Y415219D01*
X53376Y415330D01*
X53292Y415414D01*
X53264Y415441D01*
X53237Y415469D01*
X52959Y415719D01*
X52681Y415941D01*
X52404Y416135D01*
X52098Y416302D01*
X51543Y416552D01*
X50988Y416746D01*
X50516Y416829D01*
X50322Y416857D01*
X50155Y416885D01*
X50016Y416913D01*
D02*
G37*
G36*
X31665D02*
X31471D01*
X30944Y416885D01*
X30444Y416802D01*
X30000Y416663D01*
X29639Y416524D01*
X29334Y416357D01*
X29111Y416246D01*
X28973Y416135D01*
X28917Y416108D01*
X28528Y415802D01*
X28223Y415469D01*
X27945Y415136D01*
X27751Y414831D01*
X27585Y414581D01*
X27473Y414359D01*
X27418Y414220D01*
X27390Y414164D01*
X27251Y413748D01*
X27113Y413304D01*
X27029Y412859D01*
X26974Y412471D01*
X26918Y412138D01*
Y411860D01*
X26890Y411749D01*
Y411666D01*
Y411638D01*
Y411610D01*
X36441D01*
X36385Y412054D01*
X36330Y412471D01*
X36135Y413220D01*
X35885Y413887D01*
X35747Y414192D01*
X35608Y414442D01*
X35469Y414692D01*
X35330Y414886D01*
X35219Y415053D01*
X35108Y415219D01*
X35025Y415330D01*
X34941Y415414D01*
X34914Y415441D01*
X34886Y415469D01*
X34608Y415719D01*
X34331Y415941D01*
X34053Y416135D01*
X33748Y416302D01*
X33193Y416552D01*
X32637Y416746D01*
X32165Y416829D01*
X31971Y416857D01*
X31804Y416885D01*
X31665Y416913D01*
D02*
G37*
G36*
X-49123Y422743D02*
Y422715D01*
X-49121Y422714D01*
X-49095Y422215D01*
Y421743D01*
Y421299D01*
X-49067Y420910D01*
Y420577D01*
Y420355D01*
Y420189D01*
Y420161D01*
Y420133D01*
Y409028D01*
X-40488D01*
X-47845Y420522D01*
X-48040Y420855D01*
X-48262Y421244D01*
X-48484Y421605D01*
X-48678Y421965D01*
X-48845Y422271D01*
X-49011Y422521D01*
X-49095Y422687D01*
X-49121Y422714D01*
X-49123Y422743D01*
D02*
G37*
%LPD*%
D10*
X-308000Y14000D02*
G03*
X-313000Y19000I-5000J0D01*
G01*
X-320000Y-15000D02*
G03*
X-320000Y15000I0J15000D01*
G01*
X-313000Y-19000D02*
G03*
X-308000Y-14000I0J5000D01*
G01*
X-387000Y19000D02*
G03*
X-392000Y14000I0J-5000D01*
G01*
X-380000Y15000D02*
G03*
X-380000Y-15000I0J-15000D01*
G01*
X-392000Y-14000D02*
G03*
X-387000Y-19000I5000J0D01*
G01*
X-315000Y3000D02*
G03*
X-317000Y5000I-2000J0D01*
G01*
X-383000Y5000D02*
G03*
X-385000Y3000I0J-2000D01*
G01*
X-317000Y-5000D02*
G03*
X-315000Y-3000I0J2000D01*
G01*
X-385000Y-3000D02*
G03*
X-383000Y-5000I2000J0D01*
G01*
X278033Y53033D02*
G03*
X278033Y-53033I53033J-53033D01*
G01*
X114272Y193822D02*
G03*
X205396Y205396I38091J64607D01*
G01*
X553704Y231110D02*
G03*
X472206Y247207I-46142J-19259D01*
G01*
X387298Y387298D02*
G03*
X383938Y461077I-35355J35355D01*
G01*
X553704Y-231110D02*
G03*
X553704Y231110I-553704J231110D01*
G01*
X-205396Y205396D02*
G03*
X-114272Y193822I53033J53033D01*
G01*
X114272D02*
G03*
X-114272Y193822I-114272J-193822D01*
G01*
X-472206Y247207D02*
G03*
X-553704Y231110I-35355J-35355D01*
G01*
X-383938Y461077D02*
G03*
X-387298Y387298I31995J-38423D01*
G01*
X383938Y461077D02*
G03*
X-383938Y461077I-383938J-461077D01*
G01*
X383938Y-461077D02*
G03*
X387298Y-387298I-31995J38423D01*
G01*
X472206Y-247207D02*
G03*
X553704Y-231110I35355J35355D01*
G01*
X205396Y-205396D02*
G03*
X114272Y-193822I-53033J-53033D01*
G01*
X-114272D02*
G03*
X114272Y-193822I114272J193822D01*
G01*
X-114272D02*
G03*
X-205396Y-205396I-38091J-64607D01*
G01*
X-278033Y-53033D02*
G03*
X-278033Y53033I-53033J53033D01*
G01*
X-553704Y231110D02*
G03*
X-553704Y-231110I553704J-231110D01*
G01*
D02*
G03*
X-472206Y-247207I46142J19259D01*
G01*
X-387298Y-387298D02*
G03*
X-383938Y-461077I35355J-35355D01*
G01*
D02*
G03*
X383938Y-461077I383938J461077D01*
G01*
X-111000Y-554000D02*
G03*
X-87000Y-554000I12000J0D01*
G01*
X0Y-357500D02*
G03*
X0Y-552500I0J-97500D01*
G01*
X-70000Y-302000D02*
G03*
X-70000Y-325000I0J-11500D01*
G01*
X70000Y-302000D02*
G03*
X70000Y-325000I0J-11500D01*
G01*
X-57300Y-313500D02*
G03*
X-57300Y-313500I-12700J0D01*
G01*
X82700D02*
G03*
X82700Y-313500I-12700J0D01*
G01*
X23199Y-346248D02*
G03*
X23271Y-346564I9404J1971D01*
G01*
D02*
G03*
X23350Y-346865I9427J2311D01*
G01*
X23350Y-346865D02*
G03*
X23439Y-347164I9443J2638D01*
G01*
X23439D02*
G03*
X23540Y-347468I9450J2967D01*
G01*
Y-347468D02*
G03*
X23659Y-347793I9444J3304D01*
G01*
X-23704Y-347906D02*
G03*
X-23523Y-347420I-9280J3741D01*
G01*
Y-347420D02*
G03*
X-23417Y-347094I-9363J3221D01*
G01*
Y-347094D02*
G03*
X-23337Y-346818I-9373J2866D01*
G01*
X-23337D02*
G03*
X-23272Y-346566I-9359J2564D01*
G01*
D02*
G03*
X-23216Y-346326I-9330J2289D01*
G01*
X30000Y-342906D02*
G03*
X25000Y-347906I0J-5000D01*
G01*
X30000Y-340906D02*
G03*
X23199Y-346248I0J-7000D01*
G01*
X25000Y-355906D02*
G03*
X-25000Y-355906I-25000J-99094D01*
G01*
X23199Y-346248D02*
G03*
X-23199Y-346248I-23199J-108752D01*
G01*
X-23199D02*
G03*
X-30000Y-340906I-6801J-1658D01*
G01*
X-25000Y-347906D02*
G03*
X-30000Y-342906I-5000J0D01*
G01*
X36750Y-298057D02*
G03*
X-36750Y-298057I-36750J-90848D01*
G01*
X37500Y-296203D02*
G03*
X-37500Y-296203I-37500J-92703D01*
G01*
X48000Y-314744D02*
G03*
X36750Y-298057I-18000J0D01*
G01*
X50000Y-314744D02*
G03*
X37500Y-296203I-20000J0D01*
G01*
X30000Y-340906D02*
G03*
X48000Y-322906I-0J18000D01*
G01*
X30000Y-342906D02*
G03*
X50000Y-322906I0J20000D01*
G01*
X-48000D02*
G03*
X-30000Y-340906I18000J0D01*
G01*
X-50000Y-322906D02*
G03*
X-30000Y-342906I20000J0D01*
G01*
X-36750Y-298057D02*
G03*
X-48000Y-314744I6750J-16687D01*
G01*
X-37500Y-296203D02*
G03*
X-50000Y-314744I7500J-18541D01*
G01*
X48241Y-391908D02*
G03*
X48884Y-398780I3924J-3099D01*
G01*
X37467Y-390607D02*
G03*
X44180Y-389001I2515J4322D01*
G01*
X-44180D02*
G03*
X-37467Y-390607I4198J2716D01*
G01*
X-48884Y-398780D02*
G03*
X-48241Y-391908I-3281J3773D01*
G01*
X-25000Y-347879D02*
G03*
X25000Y-347879I25000J-107121D01*
G01*
X0Y-552500D02*
G03*
X0Y-357500I0J97500D01*
G01*
X48241Y-391908D02*
G03*
X44180Y-389001I-1962J1550D01*
G01*
X52164Y-395007D02*
G03*
X39981Y-386285I-5885J4649D01*
G01*
X39981D02*
G03*
X-39981Y-386285I-39981J-68715D01*
G01*
X37467Y-390607D02*
G03*
X-37467Y-390607I-37467J-64393D01*
G01*
X-48884Y-398780D02*
G03*
X48884Y-398780I48884J-56220D01*
G01*
X-52164Y-395007D02*
G03*
X52164Y-395007I52164J-59993D01*
G01*
X-44180Y-389001D02*
G03*
X-48241Y-391908I-2099J-1358D01*
G01*
X-39981Y-386285D02*
G03*
X-52164Y-395007I-6297J-4073D01*
G01*
X70000Y-325000D02*
G03*
X70000Y-302000I0J11500D01*
G01*
X-70000Y-325000D02*
G03*
X-70000Y-302000I0J11500D01*
G01*
X108483Y-298725D02*
G03*
X96736Y-290500I-11746J-4275D01*
G01*
X-88000D02*
G03*
X-100500Y-303000I0J-12500D01*
G01*
X-101505Y-377295D02*
G03*
X-100500Y-373545I-6495J3750D01*
G01*
X-110825Y-393438D02*
G03*
X-112500Y-399688I10825J-6250D01*
G01*
X-115743Y-529712D02*
G03*
X-112500Y-523537I-4257J6175D01*
G01*
X-115743Y-529712D02*
G03*
X-128500Y-554000I16743J-24288D01*
G01*
X97505Y-534600D02*
G03*
X96500Y-538350I6495J-3750D01*
G01*
X-87000Y-554000D02*
G03*
X-111000Y-554000I-12000J0D01*
G01*
X111000Y-356000D02*
G03*
X87000Y-356000I-12000J0D01*
G01*
X115625Y-379149D02*
G03*
X112500Y-385240I4375J-6092D01*
G01*
X115625Y-379149D02*
G03*
X125781Y-346252I-16625J23149D01*
G01*
X92000Y-582500D02*
G03*
X96500Y-578000I0J4500D01*
G01*
X-128500Y-570000D02*
G03*
X-116000Y-582500I12500J0D01*
G01*
X110825Y-511528D02*
G03*
X112500Y-505278I-10825J6250D01*
G01*
X31268Y-290500D02*
G03*
X19532Y-290500I-5868J-1250D01*
G01*
X-112500Y-423732D02*
G03*
X-112500Y-435468I1250J-5868D01*
G01*
X-5868Y-582500D02*
G03*
X5868Y-582500I5868J1250D01*
G01*
X112500Y-486268D02*
G03*
X112500Y-474532I-1250J5868D01*
G01*
X87000Y-356000D02*
G03*
X111000Y-356000I12000J0D01*
G01*
X385000Y3000D02*
G03*
X383000Y5000I-2000J0D01*
G01*
X317000Y5000D02*
G03*
X315000Y3000I0J-2000D01*
G01*
X383000Y-5000D02*
G03*
X385000Y-3000I0J2000D01*
G01*
X315000Y-3000D02*
G03*
X317000Y-5000I2000J0D01*
G01*
X392000Y14000D02*
G03*
X387000Y19000I-5000J0D01*
G01*
X380000Y-15000D02*
G03*
X380000Y15000I0J15000D01*
G01*
X387000Y-19000D02*
G03*
X392000Y-14000I0J5000D01*
G01*
X313000Y19000D02*
G03*
X308000Y14000I0J-5000D01*
G01*
X320000Y15000D02*
G03*
X320000Y-15000I0J-15000D01*
G01*
X308000Y-14000D02*
G03*
X313000Y-19000I5000J0D01*
G01*
X-345500Y-436000D02*
G03*
X-343500Y-438000I2000J0D01*
G01*
X-281500D02*
G03*
X-279500Y-436000I0J2000D01*
G01*
X77000Y-273500D02*
G03*
X79000Y-275500I2000J0D01*
G01*
X141000D02*
G03*
X143000Y-273500I0J2000D01*
G01*
X149500Y-273500D02*
G03*
X151500Y-275500I2000J0D01*
G01*
X213500Y-275500D02*
G03*
X215500Y-273500I0J2000D01*
G01*
X-514840Y-125000D02*
G03*
X-514840Y-125000I-10160J0D01*
G01*
X512000Y-100000D02*
G03*
X512000Y-100000I-12000J0D01*
G01*
X-277000Y422700D02*
G03*
X-277000Y422700I-10000J0D01*
G01*
Y397300D02*
G03*
X-277000Y397300I-10000J0D01*
G01*
X-136500Y-544840D02*
X-136500Y-565160D01*
X-148500Y-565160D02*
X-136500Y-565160D01*
X-148500Y-544840D02*
X-136500Y-544840D01*
X-148500Y-544840D02*
X-148500Y-565160D01*
X-200321Y-666826D02*
X-188656Y-638666D01*
X-202736Y-632834D02*
X-188656Y-638666D01*
X-214401Y-660993D02*
X-202736Y-632834D01*
X-214401Y-660993D02*
X-200321Y-666826D01*
X661010Y-214398D02*
X666842Y-200318D01*
X632850Y-202733D02*
X661010Y-214398D01*
X632850Y-202733D02*
X638682Y-188653D01*
X666842Y-200318D01*
X613174Y329883D02*
X619007Y315802D01*
X590847Y304138D02*
X619007Y315802D01*
X585015Y318218D02*
X590847Y304138D01*
X585015Y318218D02*
X613174Y329883D01*
X200318Y666842D02*
X214398Y661010D01*
X202733Y632850D02*
X214398Y661010D01*
X188653Y638682D02*
X202733Y632850D01*
X188653Y638682D02*
X200318Y666842D01*
X-329883Y613174D02*
X-315803Y619007D01*
X-304138Y590847D01*
X-318218Y585015D02*
X-304138Y590847D01*
X-329883Y613174D02*
X-318218Y585015D01*
X-666842Y200318D02*
X-638682Y188654D01*
X-632850Y202733D01*
X-661010Y214398D02*
X-632850Y202733D01*
X-666842Y200318D02*
X-661010Y214398D01*
X-613174Y-329883D02*
X-585014Y-318218D01*
X-590847Y-304138D02*
X-585014Y-318218D01*
X-619006Y-315803D02*
X-590847Y-304138D01*
X-619006Y-315803D02*
X-613174Y-329883D01*
X-467519Y83440D02*
X-461400Y68671D01*
X-317000Y19000D02*
X-313000D01*
X-308000Y9000D02*
Y14000D01*
X-317000Y15000D02*
Y19000D01*
Y-19000D02*
X-313000D01*
X-308000Y-14000D02*
Y-9000D01*
X-317000Y-15000D02*
X-317000Y-19000D01*
X-387000Y19000D02*
X-383000D01*
X-392000Y9000D02*
Y14000D01*
X-383000Y19000D02*
X-383000Y15000D01*
X-387000Y-19000D02*
X-383000D01*
X-392000Y-14000D02*
Y-9000D01*
X-383000Y-19000D02*
Y-15000D01*
X-380000Y15000D02*
X-320000D01*
X-380000Y-15000D02*
X-320000D01*
X-323000Y15000D02*
Y21000D01*
X-337000Y15000D02*
Y21000D01*
X-323000Y21000D01*
X-377000Y15000D02*
X-377000Y21000D01*
X-363000Y15000D02*
Y21000D01*
X-377000Y21000D02*
X-363000Y21000D01*
X-323000Y-21000D02*
X-323000Y-15000D01*
X-337000Y-21000D02*
Y-15000D01*
Y-21000D02*
X-323000Y-21000D01*
X-377000Y-21000D02*
Y-15000D01*
X-363000Y-21000D02*
Y-15000D01*
X-377000Y-21000D02*
X-363000Y-21000D01*
X-315000Y0D02*
Y3000D01*
X-350000Y5000D02*
X-317000D01*
X-385000Y0D02*
Y3000D01*
X-383000Y5000D02*
X-350000D01*
X-315000Y-3000D02*
Y0D01*
X-350000Y-5000D02*
X-317000D01*
X-385000Y-3000D02*
Y0D01*
X-383000Y-5000D02*
X-350000D01*
X-330000Y0D02*
X-315000D01*
X-385000D02*
X-370000D01*
X318217Y-585010D02*
X329881Y-613170D01*
X304137Y-590842D02*
X318217Y-585010D01*
X304137Y-590842D02*
X315801Y-619002D01*
X329881Y-613170D01*
X278033Y-53033D02*
X472206Y-247206D01*
X278033Y53033D02*
X472206Y247206D01*
X205396Y205396D02*
X387298Y387298D01*
X-472206Y247206D02*
X-278033Y53033D01*
X-387298Y387298D02*
X-205396Y205396D01*
X205396Y-205396D02*
X387298Y-387298D01*
X-387298D02*
X-205396Y-205396D01*
X-472206Y-247206D02*
X-278033Y-53033D01*
X307140Y-353330D02*
X352860D01*
X307140Y-346980D02*
X352860D01*
X307140Y-413020D02*
X352860D01*
X307140D02*
Y-346980D01*
X352860Y-413020D02*
Y-346980D01*
X-562551Y23340D02*
X-555747Y6913D01*
X-562551Y23340D02*
X-560489Y28318D01*
X-562551Y23340D02*
X-562065Y22167D01*
X-555747Y6913D01*
X-544063Y35122D02*
X-539085Y33060D01*
X-532281Y16633D01*
X-560489Y28318D02*
X-544063Y35122D01*
X-555747Y6913D02*
X-550769Y4851D01*
X-534342Y11655D02*
X-532281Y16633D01*
X-550769Y4851D02*
X-534342Y11655D01*
X-539085Y33060D02*
X-537023Y38038D01*
X-539085Y33060D02*
X-538599Y31887D01*
X-532281Y16633D01*
X-520596Y44842D02*
X-515618Y42780D01*
X-508814Y26354D01*
X-537023Y38038D02*
X-520596Y44842D01*
X-532281Y16633D02*
X-527303Y14571D01*
X-510876Y21376D02*
X-508814Y26354D01*
X-527303Y14571D02*
X-510876Y21376D01*
X-515618Y42780D02*
X-513556Y47758D01*
X-515618Y42780D02*
X-515132Y41607D01*
X-508814Y26354D01*
X-497130Y54562D02*
X-492152Y52500D01*
X-485347Y36074D01*
X-513556Y47758D02*
X-497130Y54562D01*
X-508814Y26354D02*
X-503836Y24292D01*
X-487409Y31096D02*
X-485347Y36074D01*
X-503836Y24292D02*
X-487409Y31096D01*
X-492152Y52500D02*
X-490090Y57478D01*
X-492152Y52500D02*
X-491665Y51327D01*
X-485347Y36074D01*
X-473663Y64282D02*
X-468685Y62221D01*
X-490090Y57478D02*
X-473663Y64282D01*
X-485347Y36074D02*
X-480369Y34012D01*
X-463943Y40816D02*
X-461881Y45794D01*
X-480369Y34012D02*
X-463943Y40816D01*
X-468685Y62221D02*
X-461881Y45794D01*
X-468685Y62221D02*
X-468199Y61047D01*
X-461881Y45794D01*
X-749264Y-33289D02*
X-578381Y37509D01*
X-748147Y-50130D02*
X-572262Y22740D01*
X-578381Y37509D02*
X-572262Y22740D01*
X-578381Y37509D02*
X-467519Y83440D01*
X-572262Y22740D02*
X-461400Y68671D01*
X23659Y-347793D02*
X23704Y-347906D01*
X-25000Y-355906D02*
Y-352461D01*
X25000Y-355906D02*
Y-352461D01*
X23704Y-347906D02*
X23708Y-347915D01*
X23710Y-347920D01*
X23712Y-347925D01*
X23714Y-347929D01*
X23716Y-347934D01*
X23717Y-347939D01*
X23719Y-347944D01*
X23721Y-347948D01*
X23723Y-347953D01*
X23725Y-347958D01*
X23727Y-347963D01*
X23729Y-347967D01*
X23730Y-347972D01*
X23732Y-347977D01*
X23734Y-347982D01*
X23736Y-347986D01*
X23738Y-347991D01*
X23740Y-347996D01*
X23742Y-348001D01*
X23744Y-348005D01*
X23746Y-348010D01*
X23747Y-348015D01*
X23749Y-348019D01*
X23751Y-348024D01*
X23753Y-348029D01*
X23755Y-348034D01*
X23757Y-348038D01*
X23759Y-348043D01*
X23760Y-348048D01*
X23762Y-348053D01*
X23764Y-348058D01*
X23766Y-348062D01*
X23768Y-348067D01*
X23770Y-348072D01*
X23772Y-348076D01*
X23774Y-348081D01*
X23775Y-348086D01*
X23777Y-348091D01*
X23779Y-348095D01*
X23781Y-348100D01*
X23783Y-348105D01*
X23785Y-348110D01*
X23787Y-348114D01*
X23789Y-348119D01*
X23791Y-348124D01*
X23792Y-348129D01*
X23794Y-348133D01*
X23796Y-348138D01*
X23798Y-348143D01*
X23800Y-348148D01*
X23802Y-348152D01*
X23804Y-348157D01*
X23805Y-348162D01*
X23807Y-348167D01*
X23809Y-348171D01*
X23811Y-348176D01*
X23813Y-348181D01*
X23815Y-348186D01*
X23817Y-348190D01*
X23819Y-348195D01*
X23821Y-348200D01*
X23822Y-348204D01*
X23824Y-348209D01*
X23826Y-348214D01*
X23828Y-348219D01*
X23830Y-348223D01*
X23832Y-348228D01*
X23834Y-348233D01*
X23835Y-348238D01*
X23837Y-348242D01*
X23839Y-348247D01*
X23841Y-348252D01*
X23843Y-348257D01*
X23845Y-348261D01*
X23847Y-348266D01*
X23849Y-348271D01*
X23850Y-348276D01*
X23852Y-348280D01*
X23854Y-348285D01*
X23856Y-348290D01*
X23858Y-348294D01*
X23860Y-348299D01*
X23862Y-348304D01*
X23863Y-348309D01*
X23865Y-348313D01*
X23867Y-348318D01*
X23869Y-348323D01*
X23871Y-348328D01*
X23873Y-348332D01*
X23875Y-348337D01*
X23877Y-348342D01*
X23878Y-348347D01*
X23880Y-348351D01*
X23882Y-348356D01*
X23884Y-348361D01*
X23886Y-348366D01*
X23888Y-348370D01*
X23890Y-348375D01*
X23891Y-348380D01*
X23893Y-348385D01*
X23895Y-348389D01*
X23899Y-348399D01*
X23902Y-348408D01*
X23906Y-348418D01*
X23910Y-348427D01*
X23914Y-348437D01*
X23917Y-348446D01*
X23921Y-348456D01*
X23925Y-348465D01*
X23928Y-348475D01*
X23932Y-348484D01*
X23936Y-348493D01*
X23939Y-348503D01*
X23943Y-348512D01*
X23947Y-348522D01*
X23951Y-348531D01*
X23954Y-348541D01*
X23958Y-348550D01*
X23962Y-348560D01*
X23965Y-348569D01*
X23969Y-348579D01*
X23972Y-348588D01*
X23976Y-348598D01*
X23980Y-348607D01*
X23984Y-348616D01*
X23987Y-348626D01*
X23991Y-348635D01*
X23995Y-348645D01*
X23998Y-348654D01*
X24002Y-348664D01*
X24005Y-348673D01*
X24009Y-348683D01*
X24013Y-348692D01*
X24016Y-348702D01*
X24020Y-348711D01*
X24024Y-348721D01*
X24027Y-348730D01*
X24031Y-348739D01*
X24035Y-348749D01*
X24038Y-348758D01*
X24042Y-348768D01*
X24045Y-348777D01*
X24049Y-348787D01*
X24053Y-348796D01*
X24056Y-348806D01*
X24060Y-348815D01*
X24063Y-348824D01*
X24067Y-348834D01*
X24071Y-348843D01*
X24074Y-348853D01*
X24078Y-348862D01*
X24081Y-348872D01*
X24085Y-348881D01*
X24088Y-348890D01*
X24092Y-348900D01*
X24103Y-348928D01*
X24113Y-348956D01*
X24124Y-348985D01*
X24135Y-349013D01*
X24145Y-349041D01*
X24156Y-349070D01*
X24166Y-349098D01*
X24177Y-349126D01*
X24187Y-349154D01*
X24197Y-349182D01*
X24208Y-349211D01*
X24218Y-349239D01*
X24228Y-349267D01*
X24239Y-349295D01*
X24249Y-349323D01*
X24259Y-349351D01*
X24269Y-349380D01*
X24279Y-349408D01*
X24289Y-349436D01*
X24299Y-349464D01*
X24309Y-349492D01*
X24319Y-349520D01*
X24329Y-349548D01*
X24339Y-349576D01*
X24349Y-349604D01*
X24358Y-349632D01*
X24368Y-349660D01*
X24378Y-349688D01*
X24388Y-349716D01*
X24397Y-349744D01*
X24407Y-349772D01*
X24416Y-349800D01*
X24426Y-349828D01*
X24435Y-349855D01*
X24445Y-349883D01*
X24454Y-349911D01*
X24463Y-349939D01*
X24472Y-349967D01*
X24482Y-349995D01*
X24492Y-350027D01*
X24503Y-350060D01*
X24514Y-350092D01*
X24524Y-350124D01*
X24534Y-350157D01*
X24545Y-350189D01*
X24555Y-350221D01*
X24565Y-350254D01*
X24576Y-350286D01*
X24586Y-350318D01*
X24596Y-350351D01*
X24606Y-350383D01*
X24616Y-350415D01*
X24626Y-350447D01*
X24629Y-350457D01*
X24631Y-350466D01*
X24634Y-350475D01*
X24637Y-350484D01*
X24640Y-350493D01*
X24642Y-350503D01*
X24645Y-350512D01*
X24648Y-350521D01*
X24651Y-350530D01*
X24653Y-350539D01*
X24656Y-350549D01*
X24659Y-350558D01*
X24662Y-350567D01*
X24664Y-350576D01*
X24667Y-350585D01*
X24670Y-350594D01*
X24673Y-350604D01*
X24675Y-350613D01*
X24678Y-350622D01*
X24681Y-350631D01*
X24683Y-350640D01*
X24686Y-350649D01*
X24689Y-350659D01*
X24691Y-350668D01*
X24694Y-350677D01*
X24697Y-350686D01*
X24699Y-350695D01*
X24702Y-350704D01*
X24704Y-350714D01*
X24707Y-350723D01*
X24710Y-350732D01*
X24712Y-350741D01*
X24715Y-350750D01*
X24718Y-350759D01*
X24720Y-350769D01*
X24723Y-350778D01*
X24725Y-350787D01*
X24728Y-350796D01*
X24730Y-350805D01*
X24733Y-350814D01*
X24735Y-350823D01*
X24738Y-350832D01*
X24740Y-350841D01*
X24743Y-350851D01*
X24745Y-350860D01*
X24748Y-350869D01*
X24750Y-350878D01*
X24753Y-350887D01*
X24755Y-350896D01*
X24758Y-350905D01*
X24760Y-350914D01*
X24762Y-350924D01*
X24765Y-350933D01*
X24767Y-350942D01*
X24770Y-350951D01*
X24772Y-350960D01*
X24774Y-350969D01*
X24777Y-350978D01*
X24780Y-350992D01*
X24784Y-351005D01*
X24787Y-351019D01*
X24791Y-351032D01*
X24794Y-351046D01*
X24798Y-351059D01*
X24801Y-351073D01*
X24804Y-351087D01*
X24808Y-351100D01*
X24811Y-351114D01*
X24814Y-351127D01*
X24817Y-351141D01*
X24821Y-351154D01*
X24824Y-351167D01*
X24827Y-351181D01*
X24830Y-351194D01*
X24833Y-351208D01*
X24836Y-351221D01*
X24839Y-351235D01*
X24842Y-351248D01*
X24845Y-351262D01*
X24848Y-351275D01*
X24851Y-351288D01*
X24854Y-351302D01*
X24857Y-351315D01*
X24860Y-351329D01*
X24863Y-351342D01*
X24865Y-351355D01*
X24868Y-351368D01*
X24871Y-351382D01*
X24873Y-351395D01*
X24876Y-351408D01*
X24879Y-351422D01*
X24881Y-351435D01*
X24884Y-351448D01*
X24886Y-351461D01*
X24889Y-351475D01*
X24891Y-351488D01*
X24894Y-351501D01*
X24896Y-351514D01*
X24899Y-351527D01*
X24901Y-351540D01*
X24903Y-351554D01*
X24905Y-351567D01*
X24908Y-351580D01*
X24910Y-351593D01*
X24912Y-351606D01*
X24914Y-351619D01*
X24916Y-351632D01*
X24918Y-351645D01*
X24920Y-351658D01*
X24922Y-351671D01*
X24924Y-351684D01*
X24926Y-351697D01*
X24928Y-351710D01*
X24929Y-351723D01*
X24931Y-351736D01*
X24933Y-351749D01*
X24935Y-351762D01*
X24936Y-351775D01*
X24938Y-351783D01*
X24939Y-351792D01*
X24940Y-351801D01*
X24941Y-351809D01*
X24942Y-351818D01*
X24943Y-351827D01*
X24944Y-351835D01*
X24945Y-351844D01*
X24946Y-351852D01*
X24947Y-351861D01*
X24948Y-351869D01*
X24949Y-351878D01*
X24950Y-351886D01*
X24951Y-351895D01*
X24952Y-351903D01*
X24953Y-351912D01*
X24954Y-351921D01*
X24955Y-351929D01*
X24956Y-351938D01*
X24957Y-351946D01*
X24957Y-351955D01*
X24958Y-351963D01*
X24959Y-351972D01*
X24960Y-351980D01*
X24961Y-351989D01*
X24962Y-351997D01*
X24963Y-352006D01*
X24964Y-352014D01*
X24964Y-352023D01*
X24965Y-352031D01*
X24966Y-352040D01*
X24967Y-352048D01*
X24968Y-352057D01*
X24969Y-352065D01*
X24969Y-352069D01*
X24969Y-352074D01*
X24970Y-352078D01*
X24970Y-352082D01*
X24970Y-352086D01*
X24971Y-352091D01*
X24971Y-352095D01*
X24971Y-352099D01*
X24972Y-352103D01*
X24972Y-352108D01*
X24973Y-352112D01*
X24973Y-352116D01*
X24973Y-352120D01*
X24974Y-352124D01*
X24974Y-352129D01*
X24975Y-352133D01*
X24975Y-352137D01*
X24975Y-352141D01*
X24976Y-352146D01*
X24976Y-352150D01*
X24976Y-352154D01*
X24977Y-352158D01*
X24977Y-352162D01*
X24977Y-352167D01*
X24978Y-352171D01*
X24978Y-352175D01*
X24978Y-352179D01*
X24979Y-352183D01*
X24979Y-352188D01*
X24980Y-352192D01*
X24980Y-352196D01*
X24980Y-352200D01*
X24980Y-352205D01*
X24981Y-352209D01*
X24981Y-352213D01*
X24982Y-352217D01*
X24982Y-352221D01*
X24982Y-352226D01*
X24983Y-352230D01*
X24983Y-352234D01*
X24983Y-352238D01*
X24984Y-352243D01*
X24984Y-352247D01*
X24984Y-352251D01*
X24985Y-352255D01*
X24985Y-352259D01*
X24985Y-352264D01*
X24986Y-352268D01*
X24986Y-352272D01*
X24986Y-352276D01*
X24987Y-352280D01*
X24987Y-352285D01*
X24987Y-352289D01*
X24987Y-352293D01*
X24988Y-352297D01*
X24988Y-352301D01*
X24989Y-352306D01*
X24989Y-352310D01*
X24989Y-352314D01*
X24989Y-352318D01*
X24990Y-352323D01*
X24990Y-352327D01*
X24990Y-352331D01*
X24991Y-352335D01*
X24991Y-352339D01*
X24991Y-352344D01*
X24992Y-352348D01*
X24992Y-352352D01*
X24992Y-352356D01*
X24993Y-352360D01*
X24993Y-352365D01*
X24993Y-352369D01*
X24994Y-352373D01*
X24994Y-352377D01*
X24994Y-352381D01*
X24994Y-352386D01*
X24995Y-352390D01*
X24995Y-352394D01*
X24995Y-352398D01*
X24996Y-352402D01*
X24996Y-352407D01*
X24996Y-352411D01*
X24997Y-352415D01*
X24997Y-352419D01*
X24997Y-352424D01*
X24997Y-352428D01*
X24998Y-352432D01*
X24998Y-352436D01*
X24999Y-352440D01*
X24999Y-352444D01*
X24999Y-352449D01*
X24999Y-352453D01*
X25000Y-352457D01*
X25000Y-352461D01*
X-23216Y-346326D02*
X-23199Y-346248D01*
X-25000Y-352461D02*
X-25000Y-352453D01*
X-24999Y-352449D01*
X-24999Y-352445D01*
X-24999Y-352441D01*
X-24999Y-352436D01*
X-24999Y-352432D01*
X-24999Y-352428D01*
X-24999Y-352424D01*
X-24999Y-352420D01*
X-24998Y-352416D01*
X-24998Y-352412D01*
X-24998Y-352408D01*
X-24998Y-352403D01*
X-24998Y-352399D01*
X-24998Y-352395D01*
X-24997Y-352391D01*
X-24997Y-352387D01*
X-24997Y-352383D01*
X-24997Y-352379D01*
X-24997Y-352374D01*
X-24997Y-352370D01*
X-24997Y-352366D01*
X-24996Y-352362D01*
X-24996Y-352358D01*
X-24996Y-352354D01*
X-24996Y-352350D01*
X-24996Y-352346D01*
X-24996Y-352341D01*
X-24995Y-352337D01*
X-24995Y-352333D01*
X-24995Y-352329D01*
X-24995Y-352325D01*
X-24995Y-352321D01*
X-24994Y-352317D01*
X-24994Y-352312D01*
X-24994Y-352308D01*
X-24994Y-352304D01*
X-24994Y-352300D01*
X-24994Y-352296D01*
X-24993Y-352292D01*
X-24993Y-352287D01*
X-24993Y-352283D01*
X-24993Y-352279D01*
X-24992Y-352275D01*
X-24992Y-352271D01*
X-24992Y-352267D01*
X-24992Y-352262D01*
X-24992Y-352258D01*
X-24992Y-352254D01*
X-24991Y-352250D01*
X-24991Y-352246D01*
X-24991Y-352242D01*
X-24991Y-352238D01*
X-24990Y-352233D01*
X-24990Y-352229D01*
X-24990Y-352225D01*
X-24990Y-352221D01*
X-24989Y-352217D01*
X-24989Y-352213D01*
X-24989Y-352208D01*
X-24989Y-352204D01*
X-24988Y-352200D01*
X-24988Y-352196D01*
X-24988Y-352192D01*
X-24988Y-352188D01*
X-24987Y-352183D01*
X-24987Y-352179D01*
X-24987Y-352175D01*
X-24987Y-352171D01*
X-24986Y-352167D01*
X-24986Y-352162D01*
X-24986Y-352158D01*
X-24985Y-352154D01*
X-24985Y-352150D01*
X-24985Y-352146D01*
X-24985Y-352141D01*
X-24984Y-352137D01*
X-24984Y-352133D01*
X-24984Y-352129D01*
X-24983Y-352125D01*
X-24983Y-352120D01*
X-24983Y-352116D01*
X-24982Y-352112D01*
X-24982Y-352108D01*
X-24982Y-352104D01*
X-24981Y-352099D01*
X-24981Y-352091D01*
X-24980Y-352082D01*
X-24979Y-352074D01*
X-24978Y-352066D01*
X-24978Y-352057D01*
X-24977Y-352049D01*
X-24976Y-352040D01*
X-24975Y-352032D01*
X-24974Y-352023D01*
X-24973Y-352015D01*
X-24972Y-352006D01*
X-24971Y-351998D01*
X-24971Y-351989D01*
X-24970Y-351981D01*
X-24969Y-351972D01*
X-24968Y-351964D01*
X-24967Y-351955D01*
X-24966Y-351946D01*
X-24964Y-351938D01*
X-24963Y-351929D01*
X-24962Y-351921D01*
X-24961Y-351912D01*
X-24960Y-351903D01*
X-24959Y-351895D01*
X-24958Y-351886D01*
X-24957Y-351878D01*
X-24955Y-351869D01*
X-24954Y-351860D01*
X-24953Y-351852D01*
X-24952Y-351843D01*
X-24950Y-351834D01*
X-24949Y-351826D01*
X-24948Y-351817D01*
X-24947Y-351808D01*
X-24945Y-351800D01*
X-24944Y-351791D01*
X-24943Y-351782D01*
X-24941Y-351773D01*
X-24940Y-351765D01*
X-24938Y-351756D01*
X-24937Y-351747D01*
X-24936Y-351739D01*
X-24934Y-351730D01*
X-24933Y-351721D01*
X-24931Y-351712D01*
X-24930Y-351704D01*
X-24928Y-351695D01*
X-24927Y-351686D01*
X-24925Y-351678D01*
X-24924Y-351669D01*
X-24922Y-351660D01*
X-24921Y-351651D01*
X-24919Y-351642D01*
X-24917Y-351634D01*
X-24916Y-351625D01*
X-24914Y-351616D01*
X-24913Y-351607D01*
X-24911Y-351599D01*
X-24909Y-351590D01*
X-24908Y-351581D01*
X-24904Y-351563D01*
X-24899Y-351537D01*
X-24894Y-351510D01*
X-24889Y-351484D01*
X-24884Y-351457D01*
X-24878Y-351431D01*
X-24873Y-351404D01*
X-24867Y-351377D01*
X-24861Y-351351D01*
X-24856Y-351324D01*
X-24850Y-351297D01*
X-24844Y-351270D01*
X-24838Y-351244D01*
X-24832Y-351217D01*
X-24825Y-351190D01*
X-24819Y-351163D01*
X-24813Y-351136D01*
X-24806Y-351109D01*
X-24800Y-351082D01*
X-24793Y-351055D01*
X-24787Y-351032D01*
X-24783Y-351014D01*
X-24778Y-350996D01*
X-24774Y-350978D01*
X-24769Y-350960D01*
X-24764Y-350942D01*
X-24760Y-350924D01*
X-24755Y-350906D01*
X-24750Y-350887D01*
X-24745Y-350869D01*
X-24741Y-350851D01*
X-24736Y-350833D01*
X-24731Y-350815D01*
X-24726Y-350797D01*
X-24721Y-350778D01*
X-24716Y-350760D01*
X-24711Y-350742D01*
X-24706Y-350724D01*
X-24701Y-350705D01*
X-24696Y-350687D01*
X-24690Y-350669D01*
X-24685Y-350651D01*
X-24680Y-350632D01*
X-24675Y-350614D01*
X-24669Y-350596D01*
X-24664Y-350578D01*
X-24659Y-350559D01*
X-24653Y-350541D01*
X-24648Y-350522D01*
X-24643Y-350504D01*
X-24637Y-350486D01*
X-24632Y-350467D01*
X-24626Y-350449D01*
X-24619Y-350426D01*
X-24612Y-350403D01*
X-24605Y-350380D01*
X-24598Y-350357D01*
X-24591Y-350334D01*
X-24584Y-350311D01*
X-24577Y-350288D01*
X-24570Y-350265D01*
X-24562Y-350242D01*
X-24555Y-350219D01*
X-24548Y-350196D01*
X-24540Y-350172D01*
X-24533Y-350149D01*
X-24525Y-350126D01*
X-24518Y-350103D01*
X-24511Y-350080D01*
X-24503Y-350057D01*
X-24495Y-350033D01*
X-24488Y-350010D01*
X-24480Y-349987D01*
X-24474Y-349969D01*
X-24468Y-349950D01*
X-24462Y-349931D01*
X-24455Y-349913D01*
X-24449Y-349894D01*
X-24443Y-349876D01*
X-24437Y-349857D01*
X-24430Y-349838D01*
X-24424Y-349820D01*
X-24417Y-349801D01*
X-24411Y-349782D01*
X-24405Y-349764D01*
X-24398Y-349745D01*
X-24392Y-349727D01*
X-24385Y-349708D01*
X-24379Y-349689D01*
X-24372Y-349671D01*
X-24366Y-349652D01*
X-24359Y-349633D01*
X-24353Y-349614D01*
X-24346Y-349596D01*
X-24340Y-349577D01*
X-24333Y-349558D01*
X-24326Y-349540D01*
X-24320Y-349521D01*
X-24313Y-349502D01*
X-24306Y-349484D01*
X-24300Y-349465D01*
X-24293Y-349446D01*
X-24286Y-349427D01*
X-24279Y-349409D01*
X-24272Y-349390D01*
X-24266Y-349371D01*
X-24259Y-349352D01*
X-24252Y-349333D01*
X-24247Y-349319D01*
X-24242Y-349305D01*
X-24237Y-349291D01*
X-24232Y-349277D01*
X-24226Y-349263D01*
X-24221Y-349249D01*
X-24216Y-349235D01*
X-24211Y-349221D01*
X-24206Y-349207D01*
X-24200Y-349193D01*
X-24195Y-349178D01*
X-24190Y-349164D01*
X-24185Y-349150D01*
X-24179Y-349136D01*
X-24174Y-349122D01*
X-24169Y-349108D01*
X-24164Y-349094D01*
X-24158Y-349080D01*
X-24153Y-349065D01*
X-24148Y-349051D01*
X-24142Y-349037D01*
X-24137Y-349023D01*
X-24132Y-349009D01*
X-24127Y-348995D01*
X-24121Y-348981D01*
X-24116Y-348966D01*
X-24111Y-348952D01*
X-24105Y-348938D01*
X-24100Y-348924D01*
X-24094Y-348910D01*
X-24089Y-348896D01*
X-24086Y-348886D01*
X-24082Y-348877D01*
X-24078Y-348867D01*
X-24075Y-348858D01*
X-24071Y-348848D01*
X-24067Y-348839D01*
X-24064Y-348830D01*
X-24060Y-348820D01*
X-24057Y-348811D01*
X-24053Y-348801D01*
X-24049Y-348792D01*
X-24046Y-348782D01*
X-24042Y-348773D01*
X-24039Y-348763D01*
X-24035Y-348754D01*
X-24031Y-348745D01*
X-24028Y-348735D01*
X-24024Y-348726D01*
X-24021Y-348716D01*
X-24017Y-348707D01*
X-24013Y-348697D01*
X-24010Y-348688D01*
X-24006Y-348678D01*
X-24002Y-348669D01*
X-23999Y-348659D01*
X-23995Y-348650D01*
X-23991Y-348640D01*
X-23988Y-348631D01*
X-23984Y-348621D01*
X-23980Y-348612D01*
X-23977Y-348603D01*
X-23973Y-348593D01*
X-23969Y-348584D01*
X-23966Y-348574D01*
X-23962Y-348565D01*
X-23958Y-348555D01*
X-23955Y-348546D01*
X-23951Y-348536D01*
X-23947Y-348527D01*
X-23944Y-348517D01*
X-23940Y-348508D01*
X-23936Y-348498D01*
X-23933Y-348489D01*
X-23929Y-348479D01*
X-23925Y-348470D01*
X-23922Y-348461D01*
X-23918Y-348451D01*
X-23914Y-348442D01*
X-23911Y-348432D01*
X-23907Y-348423D01*
X-23903Y-348413D01*
X-23900Y-348404D01*
X-23896Y-348394D01*
X-23892Y-348385D01*
X-23890Y-348380D01*
X-23888Y-348375D01*
X-23887Y-348371D01*
X-23885Y-348366D01*
X-23883Y-348361D01*
X-23881Y-348356D01*
X-23879Y-348352D01*
X-23877Y-348347D01*
X-23876Y-348342D01*
X-23874Y-348337D01*
X-23872Y-348333D01*
X-23870Y-348328D01*
X-23868Y-348323D01*
X-23866Y-348318D01*
X-23864Y-348314D01*
X-23863Y-348309D01*
X-23861Y-348304D01*
X-23859Y-348299D01*
X-23857Y-348295D01*
X-23855Y-348290D01*
X-23853Y-348285D01*
X-23851Y-348280D01*
X-23849Y-348276D01*
X-23848Y-348271D01*
X-23846Y-348266D01*
X-23844Y-348261D01*
X-23842Y-348257D01*
X-23840Y-348252D01*
X-23838Y-348247D01*
X-23837Y-348242D01*
X-23835Y-348238D01*
X-23833Y-348233D01*
X-23831Y-348228D01*
X-23829Y-348223D01*
X-23827Y-348219D01*
X-23825Y-348214D01*
X-23823Y-348209D01*
X-23822Y-348205D01*
X-23820Y-348200D01*
X-23818Y-348195D01*
X-23816Y-348190D01*
X-23814Y-348186D01*
X-23812Y-348181D01*
X-23811Y-348176D01*
X-23809Y-348171D01*
X-23807Y-348167D01*
X-23805Y-348162D01*
X-23803Y-348157D01*
X-23801Y-348152D01*
X-23799Y-348148D01*
X-23798Y-348143D01*
X-23796Y-348138D01*
X-23794Y-348133D01*
X-23792Y-348129D01*
X-23790Y-348124D01*
X-23788Y-348119D01*
X-23786Y-348114D01*
X-23784Y-348110D01*
X-23783Y-348105D01*
X-23781Y-348100D01*
X-23779Y-348096D01*
X-23777Y-348091D01*
X-23775Y-348086D01*
X-23773Y-348081D01*
X-23771Y-348077D01*
X-23770Y-348072D01*
X-23768Y-348067D01*
X-23766Y-348062D01*
X-23764Y-348058D01*
X-23762Y-348053D01*
X-23760Y-348048D01*
X-23758Y-348043D01*
X-23756Y-348038D01*
X-23755Y-348034D01*
X-23753Y-348029D01*
X-23751Y-348024D01*
X-23749Y-348020D01*
X-23747Y-348015D01*
X-23745Y-348010D01*
X-23743Y-348005D01*
X-23742Y-348001D01*
X-23740Y-347996D01*
X-23738Y-347991D01*
X-23736Y-347986D01*
X-23734Y-347982D01*
X-23732Y-347977D01*
X-23730Y-347972D01*
X-23728Y-347967D01*
X-23727Y-347963D01*
X-23725Y-347958D01*
X-23723Y-347953D01*
X-23721Y-347948D01*
X-23719Y-347944D01*
X-23717Y-347939D01*
X-23715Y-347934D01*
X-23714Y-347929D01*
X-23712Y-347925D01*
X-23710Y-347920D01*
X-23708Y-347915D01*
X-23706Y-347910D01*
X-23704Y-347906D01*
X30000Y-342906D02*
Y-340906D01*
X23704Y-347906D02*
X25000Y-347906D01*
X-30000Y-342906D02*
Y-340906D01*
X-25000Y-347906D02*
X-23704D01*
X36750Y-298057D02*
X37500Y-296203D01*
X-37500D02*
X-36750Y-298057D01*
X48000Y-314744D02*
X50000D01*
X48000Y-322906D02*
X50000D01*
X48000D02*
X48000Y-314744D01*
X50000Y-322906D02*
X50000Y-314744D01*
X-50000Y-322906D02*
X-48000D01*
Y-314744D01*
X-50000Y-314744D02*
X-48000Y-314744D01*
X-50000Y-314744D02*
X-50000Y-322906D01*
X-25000Y-352461D02*
Y-347906D01*
X25000Y-352461D02*
Y-347906D01*
X48884Y-398780D02*
X52164Y-395007D01*
X37467Y-390607D02*
X39981Y-386285D01*
X-59000Y-418500D02*
X-59000Y-486500D01*
X-59000Y-418500D02*
X59000D01*
Y-486500D02*
Y-418500D01*
X33000Y-486500D02*
X59000D01*
X33000Y-506500D02*
Y-486500D01*
X-33000Y-506500D02*
Y-486500D01*
X-59000D02*
X-33000D01*
X18500Y-519500D02*
Y-506500D01*
X-18500Y-519500D02*
X18500D01*
X-18500D02*
Y-506500D01*
X-33000D02*
X-18500D01*
X18500D02*
X33000D01*
X108483Y-298725D02*
X125781Y-346252D01*
X-88000Y-290500D02*
X-17785Y-290500D01*
X17785D02*
X96736D01*
X-100500Y-303000D02*
X-100500Y-373545D01*
X-110825Y-393438D02*
X-101505Y-377295D01*
X-112500Y-523537D02*
Y-399688D01*
X-128500Y-570000D02*
Y-554000D01*
X97505Y-534600D02*
X110825Y-511528D01*
X112500Y-505278D02*
Y-385240D01*
X-116000Y-582500D02*
X92000D01*
X96500Y-578000D02*
Y-538350D01*
X259558Y183927D02*
X273927Y169558D01*
X265442Y161073D02*
X273927Y169558D01*
X251073Y175442D02*
X259558Y183927D01*
X251073Y175442D02*
X265442Y161073D01*
X218836Y205388D02*
X240388Y183836D01*
X251164Y194612D01*
X229612Y216164D02*
X251164Y194612D01*
X218836Y205388D02*
X229612Y216164D01*
X534880Y-15240D02*
Y15240D01*
Y-15240D02*
X550120Y-15240D01*
Y15240D01*
X534880D02*
X550120D01*
X667260Y-37380D02*
X697740D01*
X667260Y-52620D02*
Y-37380D01*
Y-52620D02*
X697740D01*
Y-37380D01*
X370000Y0D02*
X385000D01*
X315000D02*
X330000D01*
X350000Y5000D02*
X383000D01*
X385000Y0D02*
Y3000D01*
X317000Y5000D02*
X350000D01*
X315000Y0D02*
Y3000D01*
X350000Y-5000D02*
X383000D01*
X385000Y-3000D02*
Y0D01*
X317000Y-5000D02*
X350000D01*
X315000Y-3000D02*
Y0D01*
X363000Y21000D02*
X377000Y21000D01*
X363000Y15000D02*
Y21000D01*
X377000Y15000D02*
X377000Y21000D01*
X323000Y21000D02*
X337000D01*
Y15000D02*
Y21000D01*
X323000Y15000D02*
Y21000D01*
X363000Y-21000D02*
X377000D01*
X363000D02*
Y-15000D01*
X377000Y-21000D02*
Y-15000D01*
X323000Y-21000D02*
X337000Y-21000D01*
Y-15000D01*
X323000Y-21000D02*
X323000Y-15000D01*
X320000Y15000D02*
X380000D01*
X320000Y-15000D02*
X380000D01*
X383000Y15000D02*
Y19000D01*
X392000Y9000D02*
Y14000D01*
X383000Y19000D02*
X387000D01*
X383000Y-19000D02*
Y-15000D01*
X392000Y-14000D02*
Y-9000D01*
X383000Y-19000D02*
X387000D01*
X317000Y15000D02*
Y19000D01*
X308000Y9000D02*
Y14000D01*
X313000Y19000D02*
X317000D01*
Y-19000D02*
Y-15000D01*
X308000Y-14000D02*
Y-9000D01*
X313000Y-19000D02*
X317000D01*
X250120Y-560240D02*
Y-529760D01*
X234880D02*
X250120D01*
X234880Y-560240D02*
Y-529760D01*
Y-560240D02*
X250120D01*
X227620D02*
Y-529760D01*
X212380D02*
X227620D01*
X212380Y-560240D02*
Y-529760D01*
Y-560240D02*
X227620D01*
X67620Y-267740D02*
Y-237260D01*
X52380D02*
X67620D01*
X52380Y-267740D02*
Y-237260D01*
Y-267740D02*
X67620D01*
X-345500Y-405000D02*
X-345500Y-436000D01*
X-312500Y-372000D02*
X-295500Y-372000D01*
X-279500Y-388000D01*
Y-405000D02*
Y-388000D01*
X-329500Y-372000D02*
X-312500Y-372000D01*
X-345500Y-388000D02*
X-329500Y-372000D01*
X-345500Y-405000D02*
X-345500Y-388000D01*
X-282500Y-378000D02*
Y-368000D01*
X-287500Y-373000D02*
X-277500Y-373000D01*
X-343500Y-438000D02*
X-312500D01*
X-279500Y-436000D02*
Y-405000D01*
X-312500Y-438000D02*
X-281500Y-438000D01*
X-297660Y-349000D02*
X-277340Y-349000D01*
X-277340Y-361000D01*
X-297660Y-361000D02*
Y-349000D01*
Y-361000D02*
X-277340Y-361000D01*
X276500Y-404130D02*
X298500D01*
X276500D02*
Y-355870D01*
X298500D01*
Y-404130D02*
Y-355870D01*
X77000Y-273500D02*
Y-242500D01*
X110000Y-209500D02*
X127000D01*
X143000Y-225500D01*
Y-242500D02*
Y-225500D01*
X93000Y-209500D02*
X110000D01*
X77000Y-225500D02*
X93000Y-209500D01*
X77000Y-242500D02*
Y-225500D01*
X140000Y-215500D02*
Y-205500D01*
X135000Y-210500D02*
X145000D01*
X79000Y-275500D02*
X110000D01*
X143000Y-273500D02*
Y-242500D01*
X110000Y-275500D02*
X141000D01*
X182340Y-572380D02*
X202660D01*
Y-587620D02*
Y-572380D01*
X182340Y-587620D02*
Y-572380D01*
Y-587620D02*
X202660D01*
X149500Y-273500D02*
X149500Y-242500D01*
X182500Y-209500D02*
X199500D01*
X215500Y-225500D01*
X215500Y-242500D02*
X215500Y-225500D01*
X165500Y-209500D02*
X182500D01*
X149500Y-225500D02*
X165500Y-209500D01*
X149500Y-242500D02*
Y-225500D01*
X212500Y-205500D02*
X212500Y-215500D01*
X207500Y-210500D02*
X217500D01*
X151500Y-275500D02*
X182500D01*
X215500Y-273500D02*
Y-242500D01*
X182500Y-275500D02*
X213500D01*
X-101000Y-549130D02*
X-79000D01*
X-101000D02*
X-101000Y-500870D01*
X-79000Y-500870D01*
Y-549130D02*
Y-500870D01*
X39880Y534760D02*
Y565240D01*
Y534760D02*
X55120Y534760D01*
Y565240D01*
X39880Y565240D02*
X55120Y565240D01*
X-240240Y370120D02*
X-209760D01*
X-240240Y354880D02*
Y370120D01*
Y354880D02*
X-209760D01*
Y370120D01*
Y379800D02*
Y405200D01*
X-240240Y379800D02*
Y405200D01*
X-209760D01*
X-240240Y379800D02*
X-209760D01*
X-240240Y465120D02*
X-209760D01*
X-240240Y449880D02*
Y465120D01*
Y449880D02*
X-209760D01*
Y465120D01*
Y414800D02*
Y440200D01*
X-240240Y414800D02*
Y440200D01*
X-209760D01*
X-240240Y414800D02*
X-209760D01*
X-507500Y-165000D02*
X-500000Y-177500D01*
X-492500Y-165000D01*
X-507500D02*
X-492500D01*
X-457500Y-150000D02*
Y-122500D01*
X-472500Y-107500D02*
X-457500Y-122500D01*
X-500000Y-107500D02*
X-472500D01*
X-457500Y-177500D02*
Y-150000D01*
X-472500Y-192500D02*
X-457500Y-177500D01*
X-500000Y-192500D02*
X-472500D01*
X-542500Y-177500D02*
Y-150000D01*
Y-177500D02*
X-527500Y-192500D01*
X-500000D01*
X-542500Y-150000D02*
Y-122500D01*
X-527500Y-107500D01*
X-500000D01*
X-550000D02*
X-535000D01*
X-542500Y-115000D02*
Y-100000D01*
X-313800Y370000D02*
X-304800D01*
X-313800D02*
Y412000D01*
Y450000D01*
X-304800D01*
Y499000D02*
X50950D01*
X-304800Y321100D02*
Y499000D01*
X50950D02*
X304700D01*
X304800Y498900D01*
Y321100D02*
Y498900D01*
X50800Y321100D02*
X304800D01*
X-304800D02*
X50950D01*
X-304800Y473400D02*
X50950D01*
X-304800Y346600D02*
X50950D01*
Y473400D02*
X304700D01*
X50950Y346600D02*
X304700D01*
X177900D02*
X177900Y473400D01*
X152300D02*
X152300Y346600D01*
X-173200Y378300D02*
Y410000D01*
Y346600D02*
Y378300D01*
X-131600D02*
Y410000D01*
Y346600D02*
Y378300D01*
X-173200Y410000D02*
X-131600Y410000D01*
X-279500Y346600D02*
Y372000D01*
X-279300D02*
X-253900D01*
Y346750D02*
Y371800D01*
X-109924Y-562113D02*
G03*
X-114724Y-586648I-2400J-12268D01*
G01*
X-47045Y-595906D02*
G03*
X-45078Y-570983I984J12461D01*
G01*
X-109924Y-562113D02*
G03*
X-45078Y-570983I109924J562113D01*
G01*
X-114724Y-586648D02*
G03*
X-47045Y-595906I114724J586648D01*
G01*
X-345493Y-456824D02*
G03*
X-291590Y-492980I345493J456824D01*
G01*
X360236Y-445291D02*
G03*
X365000Y-433789I-11502J11502D01*
G01*
X384651Y-457559D02*
G03*
X390000Y-444646I-12913J12913D01*
G01*
X377500Y-415000D02*
G03*
X365000Y-427500I0J-12500D01*
G01*
X390000D02*
G03*
X377500Y-415000I-12500J0D01*
G01*
X265110Y-507711D02*
G03*
X276681Y-529872I5785J-11081D01*
G01*
X47045Y-595906D02*
G03*
X84886Y-591702I-47045J595906D01*
G01*
X45078Y-570983D02*
G03*
X81336Y-566955I-45078J570983D01*
G01*
X84886Y-591702D02*
G03*
X81336Y-566955I-1775J12373D01*
G01*
X265110Y-507711D02*
G03*
X360236Y-445291I-265110J507711D01*
G01*
X276681Y-529872D02*
G03*
X384651Y-457559I-276681J529872D01*
G01*
X45078Y-570983D02*
G03*
X47045Y-595906I984J-12461D01*
G01*
X-372571Y-467472D02*
G03*
X-299807Y-517161I372559J467458D01*
G01*
D02*
G03*
X-288036Y-495107I6017J10956D01*
G01*
X-352404Y-445290D02*
G03*
X-347540Y-455262I12655J-0D01*
G01*
X-377435Y-457500D02*
G03*
X-372571Y-467472I12655J-0D01*
G01*
X-373965Y-376465D02*
G03*
X-377500Y-385000I8536J-8536D01*
G01*
X-338572Y-376428D02*
G03*
X-338572Y-358750I-8839J8839D01*
G01*
D02*
G03*
X-356250Y-358750I-8839J-8839D01*
G01*
X-349929Y-387784D02*
G03*
X-352404Y-393759I5975J-5975D01*
G01*
X357500Y-392500D02*
G03*
X370000Y-380000I0J12500D01*
G01*
D02*
G03*
X357500Y-367500I-12500J0D01*
G01*
X135000D02*
G03*
X122500Y-380000I0J-12500D01*
G01*
D02*
G03*
X135000Y-392500I12500J0D01*
G01*
X-283741Y-325096D02*
G03*
X-289716Y-327571I0J-8449D01*
G01*
X-318750Y-321250D02*
G03*
X-318750Y-338928I8839J-8839D01*
G01*
D02*
G03*
X-301072Y-338928I8839J8839D01*
G01*
X-292500Y-300000D02*
G03*
X-301035Y-303535I0J-12071D01*
G01*
X-131465D02*
G03*
X-140000Y-300000I-8536J-8536D01*
G01*
X-131428Y-338928D02*
G03*
X-113750Y-338928I8839J8839D01*
G01*
D02*
G03*
X-113750Y-321250I-8839J8839D01*
G01*
X-142784Y-327571D02*
G03*
X-148759Y-325096I-5975J-5975D01*
G01*
X-69716Y-364929D02*
G03*
X-63741Y-367404I5975J5975D01*
G01*
X87500Y-392500D02*
G03*
X100000Y-380000I0J12500D01*
G01*
D02*
G03*
X87500Y-367500I-12500J0D01*
G01*
X-98750Y-353572D02*
G03*
X-98750Y-371250I8839J-8839D01*
G01*
X-81072Y-353572D02*
G03*
X-98750Y-353572I-8839J-8839D01*
G01*
X-81035Y-388965D02*
G03*
X-72500Y-392500I8536J8536D01*
G01*
X750000Y0D02*
G03*
X750000Y0I-750000J0D01*
G01*
X-347540Y-455262D02*
X-345493Y-456824D01*
X-291590Y-492980D02*
X-288036Y-495107D01*
X365000Y-433789D02*
Y-427500D01*
X390000Y-444646D02*
Y-427500D01*
X135000Y-367500D02*
X357500D01*
X-352404Y-445290D02*
Y-393759D01*
X-377500Y-385000D02*
X-377435Y-457500D01*
X-373965Y-376465D02*
X-356250Y-358750D01*
X-349929Y-387784D02*
X-338572Y-376428D01*
X135000Y-392500D02*
X357500D01*
X-301072Y-338928D02*
X-289716Y-327571D01*
X-318750Y-321250D02*
X-301035Y-303535D01*
X-283741Y-325010D02*
X-148759Y-325096D01*
X-131465Y-303535D02*
X-113750Y-321250D01*
X-292500Y-300000D02*
X-140000Y-300000D01*
X-142784Y-327571D02*
X-131428Y-338928D01*
X-81072Y-353572D02*
X-69716Y-364929D01*
X-72500Y-392500D02*
X87500D01*
X-98750Y-371250D02*
X-81035Y-388965D01*
X-63741Y-367404D02*
X87500Y-367500D01*
D14*
X634375Y-300781D02*
X640207Y-286700D01*
X634375Y-300781D02*
X641415Y-303696D01*
X640207Y-286700D02*
X647247Y-289617D01*
X641415Y-303696D02*
X647247Y-289617D01*
X659250Y-240728D02*
X665082Y-226648D01*
X659250Y-240728D02*
X666290Y-243644D01*
X665082Y-226648D02*
X672122Y-229564D01*
X666290Y-243644D02*
X672122Y-229564D01*
X647701Y-235945D02*
X653533Y-221865D01*
X647701Y-235945D02*
X654741Y-238861D01*
X653533Y-221865D02*
X660573Y-224781D01*
X654741Y-238861D02*
X660573Y-224781D01*
X630548Y310019D02*
X636380Y295939D01*
X643420Y298855D01*
X630548Y310019D02*
X637588Y312935D01*
X643420Y298855D01*
X636152Y-231161D02*
X641984Y-217081D01*
X636152Y-231161D02*
X643192Y-234077D01*
X641984Y-217081D02*
X649024Y-219997D01*
X643192Y-234077D02*
X649024Y-219997D01*
X624604Y-226378D02*
X630436Y-212298D01*
X624604Y-226378D02*
X631643Y-229294D01*
X630436Y-212298D02*
X637476Y-215214D01*
X631643Y-229294D02*
X637476Y-215214D01*
X286701Y640207D02*
X300781Y634375D01*
X303696Y641415D01*
X286701Y640207D02*
X289617Y647247D01*
X303696Y641415D01*
X226648Y665082D02*
X240728Y659250D01*
X243644Y666290D01*
X226648Y665082D02*
X229564Y672122D01*
X243644Y666290D01*
X221865Y653533D02*
X235945Y647701D01*
X238861Y654741D01*
X221865Y653533D02*
X224781Y660573D01*
X238861Y654741D01*
X-310019Y630548D02*
X-295939Y636380D01*
X-298855Y643420D02*
X-295939Y636380D01*
X-312935Y637588D02*
X-310019Y630548D01*
X-312935Y637588D02*
X-298855Y643420D01*
X217081Y641984D02*
X231161Y636152D01*
X234077Y643192D01*
X217081Y641984D02*
X219997Y649024D01*
X234077Y643192D01*
X212298Y630436D02*
X226378Y624604D01*
X229294Y631644D01*
X212298Y630436D02*
X215214Y637476D01*
X229294Y631644D01*
X-647247Y289617D02*
X-641415Y303696D01*
X-647247Y289617D02*
X-640207Y286700D01*
X-641415Y303696D02*
X-634375Y300781D01*
X-640207Y286700D02*
X-634375Y300781D01*
X-672122Y229564D02*
X-666290Y243644D01*
X-672122Y229564D02*
X-665082Y226648D01*
X-666290Y243644D02*
X-659250Y240728D01*
X-665082Y226648D02*
X-659250Y240728D01*
X-660573Y224781D02*
X-654741Y238861D01*
X-660573Y224781D02*
X-653533Y221865D01*
X-654741Y238861D02*
X-647701Y235945D01*
X-653533Y221865D02*
X-647701Y235945D01*
X-643420Y-298855D02*
X-637588Y-312935D01*
X-630548Y-310019D01*
X-643420Y-298855D02*
X-636380Y-295939D01*
X-630548Y-310019D01*
X-649024Y219997D02*
X-643192Y234077D01*
X-649024Y219997D02*
X-641984Y217081D01*
X-643192Y234077D02*
X-636152Y231161D01*
X-641984Y217081D02*
X-636152Y231161D01*
X-637476Y215214D02*
X-631644Y229294D01*
X-637476Y215214D02*
X-630436Y212298D01*
X-631644Y229294D02*
X-624604Y226378D01*
X-630436Y212298D02*
X-624604Y226378D01*
X-235947Y-647684D02*
X-221867Y-653516D01*
X-238863Y-654724D02*
X-235947Y-647684D01*
X-224784Y-660556D02*
X-221867Y-653516D01*
X-238863Y-654724D02*
X-224784Y-660556D01*
X403690Y-7620D02*
Y7620D01*
Y-7620D02*
X411310D01*
X403690Y7620D02*
X411310D01*
Y-7620D02*
Y7620D01*
X296310Y-7620D02*
Y7620D01*
X288690D02*
X296310D01*
X288690Y-7620D02*
X296310D01*
X288690D02*
Y7620D01*
X387306Y109418D02*
X398082Y120194D01*
X392694Y125582D02*
X398082Y120194D01*
X381918Y114806D02*
X387306Y109418D01*
X381918Y114806D02*
X392694Y125582D01*
X92710Y510540D02*
Y525780D01*
X85090D02*
X92710D01*
X85090Y510540D02*
X92710D01*
X85090D02*
Y525780D01*
X118110Y510540D02*
Y525780D01*
X110490D02*
X118110D01*
X110490Y510540D02*
X118110D01*
X110490D02*
Y525780D01*
X409806Y86918D02*
X420582Y97694D01*
X415194Y103082D02*
X420582Y97694D01*
X404418Y92306D02*
X409806Y86918D01*
X404418Y92306D02*
X415194Y103082D01*
X406190Y269880D02*
Y285120D01*
Y269880D02*
X413810D01*
X406190Y285120D02*
X413810D01*
Y269880D02*
Y285120D01*
X426310Y269880D02*
Y285120D01*
X418690D02*
X426310D01*
X418690Y269880D02*
X426310D01*
X418690D02*
Y285120D01*
X-110490Y372960D02*
X-110490Y357720D01*
X-118110Y372960D02*
X-110490D01*
X-118110Y357720D02*
X-110490Y357720D01*
X-118110Y357720D02*
Y372960D01*
X239418Y217694D02*
X250194Y206918D01*
X255582Y212306D01*
X239418Y217694D02*
X244806Y223083D01*
X255582Y212306D01*
X401310Y284880D02*
Y300120D01*
X393690D02*
X401310D01*
X393690Y284880D02*
X401310D01*
X393690D02*
Y300120D01*
X266918Y187694D02*
X277694Y176918D01*
X283082Y182306D01*
X266918Y187694D02*
X272306Y193083D01*
X283082Y182306D01*
X678690Y24880D02*
Y40120D01*
Y24880D02*
X686310D01*
X678690Y40120D02*
X686310D01*
Y24880D02*
Y40120D01*
X663690Y24880D02*
Y40120D01*
Y24880D02*
X671310D01*
X663690Y40120D02*
X671310D01*
Y24880D02*
Y40120D01*
X492380Y26310D02*
X507620D01*
X492380Y18690D02*
Y26310D01*
X507620D02*
X507620Y18690D01*
X492380D02*
X507620D01*
X-85090Y357720D02*
Y372960D01*
X-92710D02*
X-85090D01*
X-92710Y357720D02*
X-85090D01*
X-92710D02*
Y372960D01*
X526310Y-7620D02*
X526310Y7620D01*
X518690D02*
X526310D01*
X518690Y-7620D02*
X526310Y-7620D01*
X518690Y-7620D02*
Y7620D01*
X284806Y151918D02*
X295582Y162694D01*
X290194Y168082D02*
X295582Y162694D01*
X279418Y157306D02*
X284806Y151918D01*
X279418Y157306D02*
X290194Y168082D01*
X667380Y-28810D02*
X682620D01*
Y-21190D01*
X667380Y-28810D02*
Y-21190D01*
X682620D01*
X696190Y-7620D02*
Y7620D01*
Y-7620D02*
X703810D01*
X696190Y7620D02*
X703810D01*
Y-7620D02*
Y7620D01*
X433670Y282460D02*
X443830D01*
Y287540D01*
X433670Y282460D02*
Y287540D01*
X443830D01*
X432306Y64418D02*
X443082Y75194D01*
X437694Y80582D02*
X443082Y75194D01*
X426918Y69806D02*
X432306Y64418D01*
X426918Y69806D02*
X437694Y80582D01*
X127380Y-588810D02*
X142620D01*
Y-581190D01*
X127380Y-588810D02*
Y-581190D01*
X142620D01*
X184880Y-563810D02*
X200120D01*
Y-556190D01*
X184880Y-563810D02*
Y-556190D01*
X200120Y-556190D01*
X126190Y-512620D02*
Y-497380D01*
Y-512620D02*
X133810D01*
X126190Y-497380D02*
X133810D01*
X133810Y-512620D02*
X133810Y-497380D01*
X306310Y-300120D02*
X306310Y-284880D01*
X298690D02*
X306310D01*
X298690Y-300120D02*
X306310D01*
X298690Y-284880D02*
X298690Y-300120D01*
X184880Y-533810D02*
X200120D01*
Y-526190D01*
X184880Y-533810D02*
Y-526190D01*
X200120Y-526190D01*
X-222620Y-411310D02*
X-207380D01*
Y-403690D01*
X-222620Y-411310D02*
Y-403690D01*
X-207380Y-403690D01*
X283810Y-462620D02*
Y-447380D01*
X276190D02*
X283810D01*
X276190Y-462620D02*
X283810D01*
X276190D02*
Y-447380D01*
X276310Y-240120D02*
X276310Y-224880D01*
X268690Y-224880D02*
X276310Y-224880D01*
X268690Y-240120D02*
X276310D01*
X268690D02*
Y-224880D01*
X298810Y-462620D02*
Y-447380D01*
X291190D02*
X298810D01*
X291190Y-462620D02*
X298810D01*
X291190D02*
Y-447380D01*
X-222620Y-456310D02*
X-207380Y-456310D01*
Y-448690D01*
X-222620Y-448690D02*
X-222620Y-456310D01*
X-222620Y-448690D02*
X-207380Y-448690D01*
X276310Y-252380D02*
X276310Y-267620D01*
X268690Y-252380D02*
X276310Y-252380D01*
X268690Y-267620D02*
X276310Y-267620D01*
X268690Y-267620D02*
Y-252380D01*
X-222620Y-546310D02*
X-207380Y-546310D01*
Y-538690D01*
X-222620Y-546310D02*
X-222620Y-538690D01*
X-207380Y-538690D01*
X-222620Y-501310D02*
X-207380D01*
X-207380Y-493690D01*
X-222620D02*
X-222620Y-501310D01*
X-222620Y-493690D02*
X-207380D01*
X322380Y-266190D02*
X337620D01*
X322380Y-273810D02*
Y-266190D01*
X337620Y-273810D02*
Y-266190D01*
X322380Y-273810D02*
X337620Y-273810D01*
X-195120Y-411310D02*
X-179880D01*
X-179880Y-403690D02*
X-179880Y-411310D01*
X-195120D02*
X-195120Y-403690D01*
X-179880Y-403690D01*
X-195120Y-456310D02*
X-179880Y-456310D01*
Y-448690D01*
X-195120D02*
X-195120Y-456310D01*
X-195120Y-448690D02*
X-179880D01*
X-195120Y-501310D02*
X-179880Y-501310D01*
Y-493690D01*
X-195120Y-501310D02*
Y-493690D01*
X-179880Y-493690D01*
X-195120Y-546310D02*
X-179880Y-546310D01*
X-179880Y-538690D01*
X-195120Y-546310D02*
X-195120Y-538690D01*
X-179880Y-538690D01*
X-173810Y-250120D02*
Y-234880D01*
Y-250120D02*
X-166190D01*
X-173810Y-234880D02*
X-166190D01*
X-166190Y-250120D02*
X-166190Y-234880D01*
X43810Y-267620D02*
Y-252380D01*
X36190D02*
X43810D01*
X36190Y-267620D02*
X43810D01*
X36190Y-252380D02*
X36190Y-267620D01*
X283690Y-300120D02*
Y-284880D01*
Y-300120D02*
X291310Y-300120D01*
X283690Y-284880D02*
X291310Y-284880D01*
Y-300120D02*
Y-284880D01*
X287380Y-316310D02*
X302620Y-316310D01*
Y-308690D01*
X287380Y-316310D02*
Y-308690D01*
X302620D01*
X116310Y-560120D02*
Y-544880D01*
X108690D02*
X116310D01*
X108690Y-560120D02*
X116310D01*
X108690Y-544880D02*
X108690Y-560120D01*
X144880Y-501310D02*
X160120D01*
Y-493690D01*
X144880Y-501310D02*
Y-493690D01*
X160120D01*
X152380Y-588810D02*
X167620Y-588810D01*
X167620Y-581190D01*
X152380Y-588810D02*
Y-581190D01*
X167620D01*
X184880Y-548810D02*
X200120D01*
Y-541190D01*
X184880Y-548810D02*
Y-541190D01*
X200120Y-541190D01*
X283690Y-340120D02*
Y-324880D01*
Y-340120D02*
X291310D01*
X283690Y-324880D02*
X291310D01*
Y-340120D02*
Y-324880D01*
X194880Y-511190D02*
X210120D01*
X194880Y-518810D02*
Y-511190D01*
X210120Y-518810D02*
Y-511190D01*
X194880Y-518810D02*
X210120Y-518810D01*
X144880Y-508690D02*
X160120D01*
X144880Y-516310D02*
Y-508690D01*
X160120Y-516310D02*
Y-508690D01*
X144880Y-516310D02*
X160120Y-516310D01*
X-401310Y-122620D02*
Y-107380D01*
Y-122620D02*
X-393690D01*
X-401310Y-107380D02*
X-393690D01*
Y-122620D02*
Y-107380D01*
X31310Y542380D02*
Y557620D01*
X23690D02*
X31310D01*
X23690Y542380D02*
X31310D01*
X23690D02*
Y557620D01*
X-7620Y573690D02*
X7620D01*
Y581310D01*
X-7620Y573690D02*
Y581310D01*
X7620D01*
X-250146Y376752D02*
X-245066D01*
X-247606Y374212D02*
Y379292D01*
X-250146Y411752D02*
X-245066D01*
X-247606Y414292D02*
X-247606Y409212D01*
X-296310Y-7620D02*
Y7620D01*
Y-7620D02*
X-288690D01*
X-296310Y7620D02*
X-288690D01*
Y-7620D02*
Y7620D01*
X-403690Y-7620D02*
Y7620D01*
X-411310D02*
X-403690D01*
X-411310Y-7620D02*
X-403690D01*
X-411310D02*
Y7620D01*
X186690Y510540D02*
Y525780D01*
Y510540D02*
X194310D01*
X186690Y525780D02*
X194310D01*
Y510540D02*
Y525780D01*
X219710Y510540D02*
Y525780D01*
X212090D02*
X219710D01*
X212090Y510540D02*
X219710D01*
X212090D02*
Y525780D01*
X252730Y281940D02*
Y297180D01*
Y281940D02*
X260350D01*
X252730Y297180D02*
X260350D01*
Y281940D02*
Y297180D01*
X620095Y-224510D02*
X625928Y-210430D01*
X618887Y-207514D02*
X625928Y-210430D01*
X613055Y-221594D02*
X620095Y-224510D01*
X613055Y-221594D02*
X618887Y-207514D01*
X-221594Y-613056D02*
X-207514Y-618888D01*
X-224510Y-620096D02*
X-221594Y-613056D01*
X-210430Y-625928D02*
X-207514Y-618888D01*
X-224510Y-620096D02*
X-210430Y-625928D01*
X295937Y-636375D02*
X310017Y-630543D01*
X295937Y-636375D02*
X298853Y-643415D01*
X310017Y-630543D02*
X312933Y-637583D01*
X298853Y-643415D02*
X312933Y-637583D01*
X-300780Y-634375D02*
X-286700Y-640207D01*
X-303696Y-641415D02*
X-300780Y-634375D01*
X-289617Y-647247D02*
X-286700Y-640207D01*
X-303696Y-641415D02*
X-289617Y-647247D01*
X-231164Y-636135D02*
X-217084Y-641968D01*
X-234080Y-643175D02*
X-231164Y-636135D01*
X-220000Y-649008D02*
X-217084Y-641968D01*
X-234080Y-643175D02*
X-220000Y-649008D01*
X-226377Y-624604D02*
X-212298Y-630436D01*
X-229294Y-631643D02*
X-226377Y-624604D01*
X-215214Y-637476D02*
X-212298Y-630436D01*
X-229294Y-631643D02*
X-215214Y-637476D01*
X-240728Y-659249D02*
X-226648Y-665082D01*
X-243644Y-666289D02*
X-240728Y-659249D01*
X-229564Y-672122D02*
X-226648Y-665082D01*
X-243644Y-666289D02*
X-229564Y-672122D01*
D243*
X645774Y-249652D02*
G03*
X645774Y-249652I-1250J0D01*
G01*
X250902Y644523D02*
G03*
X250902Y644523I-1250J0D01*
G01*
X-643273Y249652D02*
G03*
X-643273Y249652I-1250J0D01*
G01*
X127750Y-529000D02*
G03*
X127750Y-529000I-1250J0D01*
G01*
X-248405Y-644506D02*
G03*
X-248405Y-644506I-1250J0D01*
G01*
D244*
X318830Y-362220D02*
G03*
X318830Y-362220I-2800J0D01*
G01*
D245*
X358000Y55500D02*
G03*
X358000Y55500I-1000J0D01*
G01*
D246*
X330255Y332628D02*
G03*
X330255Y332628I-1800J0D01*
G01*
D247*
X326720Y300808D02*
G03*
X326720Y300808I-1800J0D01*
G01*
X150750Y-406500D02*
G03*
X150750Y-406500I-1250J0D01*
G01*
D248*
X513200Y-12000D02*
G03*
X513200Y-12000I-1200J0D01*
G01*
X664200Y12000D02*
G03*
X664200Y12000I-1200J0D01*
G01*
D249*
X504300Y-3500D02*
G03*
X504300Y-3500I-800J0D01*
G01*
D250*
X140750Y-460500D02*
G03*
X140750Y-460500I-1250J0D01*
G01*
D251*
X-245750Y-255800D02*
G03*
X-245750Y-255800I-1250J0D01*
G01*
D252*
X604020Y-266429D02*
X631736Y-277910D01*
X604020Y-266429D02*
X615501Y-238713D01*
X631736Y-277910D02*
X641304Y-254813D01*
X638598Y-248280D02*
X641304Y-254813D01*
X615501Y-238713D02*
X638598Y-248280D01*
X266429Y604020D02*
X277910Y631736D01*
X238713Y615501D02*
X266429Y604020D01*
X254813Y641304D02*
X277910Y631736D01*
X248280Y638598D02*
X254813Y641304D01*
X238713Y615501D02*
X248280Y638598D01*
X-638598Y248280D02*
X-615501Y238713D01*
X-641303Y254813D02*
X-638598Y248280D01*
X-641303Y254813D02*
X-631736Y277910D01*
X-615501Y238713D02*
X-604020Y266429D01*
X-631736Y277910D02*
X-604020Y266429D01*
X356250Y49250D02*
X356250Y32000D01*
X352500Y53000D02*
X356250Y49250D01*
X343750Y53000D02*
X352500Y53000D01*
X343750Y32000D02*
X356250D01*
X343750D02*
Y53000D01*
X356032Y130395D02*
X442299Y216662D01*
X242895Y243532D02*
X356032Y130395D01*
X332698Y326264D02*
X442299Y216662D01*
X325627Y326264D02*
X332698D01*
X242895Y243532D02*
X325627Y326264D01*
X510000Y-7000D02*
Y10000D01*
X507000Y-10000D02*
X510000Y-7000D01*
X490000Y-10000D02*
X507000D01*
X490000Y10000D02*
X510000D01*
X490000Y-10000D02*
Y10000D01*
X323000Y-32250D02*
X376500D01*
X323000Y-72750D02*
X376500D01*
Y-32250D01*
X323000Y-72750D02*
Y-32250D01*
X665000Y-10000D02*
X685000D01*
Y10000D01*
X665000Y-10000D02*
Y7000D01*
X668000Y10000D01*
X685000D01*
X127500Y-535000D02*
X127500Y-570000D01*
X127500Y-535000D02*
X132500Y-530000D01*
X167500Y-530000D01*
X127500Y-570000D02*
X167500D01*
Y-530000D01*
X262750Y-213000D02*
X262750Y-266500D01*
X222250D02*
Y-213000D01*
Y-266500D02*
X262750D01*
X222250Y-213000D02*
X262750D01*
X315000Y-305500D02*
Y-289500D01*
X345000D01*
X345000Y-305500D01*
X315000Y-305500D02*
X345000Y-305500D01*
X169000Y-483500D02*
X186000Y-483500D01*
X169000Y-511500D02*
X186000D01*
X-486000Y-96000D02*
Y-79000D01*
X-514000Y-96000D02*
Y-79000D01*
X-433000Y-100000D02*
X-417000D01*
Y-130000D02*
Y-100000D01*
X-433000Y-130000D02*
X-417000D01*
X-433000D02*
Y-100000D01*
X-8000Y565000D02*
X8000D01*
Y535000D02*
Y565000D01*
X-8000Y535000D02*
X8000D01*
X-8000D02*
Y565000D01*
X-376500Y-72750D02*
X-323000D01*
X-376500Y-32250D02*
X-323000D01*
X-376500Y-72750D02*
Y-32250D01*
X-323000Y-72750D02*
Y-32250D01*
X216140Y281560D02*
X216140Y297560D01*
X246140D01*
X246140Y281560D01*
X216140D02*
X246140D01*
X-277912Y-631719D02*
X-266431Y-604002D01*
X-238715Y-615484D01*
X-277912Y-631719D02*
X-254815Y-641286D01*
X-248282Y-638580D01*
X-238715Y-615484D01*
X459812Y14288D02*
X461928Y16404D01*
X466160D01*
X468276Y14288D01*
Y5824D01*
X466160Y3708D01*
X461928D01*
X459812Y5824D01*
Y10056D01*
X464044D01*
X455580Y3708D02*
Y16404D01*
X447116Y3708D01*
Y16404D01*
X434420Y14288D02*
X436536Y16404D01*
X440768D01*
X442884Y14288D01*
Y12172D01*
X440768Y10056D01*
X436536D01*
X434420Y7940D01*
Y5824D01*
X436536Y3708D01*
X440768D01*
X442884Y5824D01*
X421724Y14288D02*
X423840Y16404D01*
X428072D01*
X430188Y14288D01*
Y12172D01*
X428072Y10056D01*
X423840D01*
X421724Y7940D01*
Y5824D01*
X423840Y3708D01*
X428072D01*
X430188Y5824D01*
X461928Y-3708D02*
Y-14288D01*
X459812Y-16404D01*
X455580D01*
X453464Y-14288D01*
Y-3708D01*
X440768Y-5824D02*
X442884Y-3708D01*
X447116D01*
X449232Y-5824D01*
Y-7940D01*
X447116Y-10056D01*
X442884D01*
X440768Y-12172D01*
Y-14288D01*
X442884Y-16404D01*
X447116D01*
X449232Y-14288D01*
X436536Y-3708D02*
Y-16404D01*
X430188D01*
X428072Y-14288D01*
Y-12172D01*
X430188Y-10056D01*
X436536D01*
X430188D01*
X428072Y-7940D01*
Y-5824D01*
X430188Y-3708D01*
X436536D01*
X-333072Y56208D02*
Y68904D01*
X-337304Y64672D01*
X-341536Y68904D01*
Y56208D01*
X-354232Y66788D02*
X-352116Y68904D01*
X-347884D01*
X-345768Y66788D01*
Y58324D01*
X-347884Y56208D01*
X-352116D01*
X-354232Y58324D01*
X-358464Y68904D02*
Y58324D01*
X-360580Y56208D01*
X-364812D01*
X-366928Y58324D01*
Y68904D01*
X-333072Y48792D02*
Y38212D01*
X-335188Y36096D01*
X-339420D01*
X-341536Y38212D01*
Y48792D01*
X-354232Y46676D02*
X-352116Y48792D01*
X-347884D01*
X-345768Y46676D01*
Y44560D01*
X-347884Y42444D01*
X-352116D01*
X-354232Y40328D01*
Y38212D01*
X-352116Y36096D01*
X-347884D01*
X-345768Y38212D01*
X-358464Y48792D02*
Y36096D01*
X-364812D01*
X-366928Y38212D01*
Y40328D01*
X-364812Y42444D01*
X-358464D01*
X-364812D01*
X-366928Y44560D01*
Y46676D01*
X-364812Y48792D01*
X-358464D01*
X22968Y-256152D02*
X18736D01*
X20852D01*
Y-268848D01*
X22968D01*
X18736D01*
X3924Y-256152D02*
X12388D01*
Y-268848D01*
X3924D01*
X12388Y-262500D02*
X8156D01*
X-8772Y-256152D02*
X-308D01*
Y-268848D01*
X-8772D01*
X-308Y-262500D02*
X-4540D01*
X-21468Y-256152D02*
X-13004D01*
Y-268848D01*
X-21468D01*
X-13004Y-262500D02*
X-17236D01*
X-38396Y-258268D02*
X-40511Y-256152D01*
X-44743D01*
X-46859Y-258268D01*
Y-260384D01*
X-44743Y-262500D01*
X-46859Y-264616D01*
Y-266732D01*
X-44743Y-268848D01*
X-40511D01*
X-38396Y-266732D01*
Y-264616D01*
X-40511Y-262500D01*
X-38396Y-260384D01*
Y-258268D01*
X-40511Y-262500D02*
X-44743D01*
X-51091Y-258268D02*
X-53207Y-256152D01*
X-57439D01*
X-59555Y-258268D01*
Y-266732D01*
X-57439Y-268848D01*
X-53207D01*
X-51091Y-266732D01*
Y-258268D01*
X-72251Y-268848D02*
X-63787D01*
X-72251Y-260384D01*
Y-258268D01*
X-70135Y-256152D01*
X-65903D01*
X-63787Y-258268D01*
X-76483Y-268848D02*
Y-266732D01*
X-78599D01*
Y-268848D01*
X-76483D01*
X-87063Y-258268D02*
X-89179Y-256152D01*
X-93411D01*
X-95527Y-258268D01*
Y-260384D01*
X-93411Y-262500D01*
X-91295D01*
X-93411D01*
X-95527Y-264616D01*
Y-266732D01*
X-93411Y-268848D01*
X-89179D01*
X-87063Y-266732D01*
X-101875Y-260384D02*
X-106107D01*
X-108223Y-262500D01*
Y-268848D01*
X-101875D01*
X-99759Y-266732D01*
X-101875Y-264616D01*
X-108223D01*
X-114571Y-258268D02*
Y-260384D01*
X-112455D01*
X-116687D01*
X-114571D01*
Y-266732D01*
X-116687Y-268848D01*
X22968Y-248848D02*
Y-236152D01*
X16620D01*
X14504Y-238268D01*
Y-242500D01*
X16620Y-244616D01*
X22968D01*
X8156Y-248848D02*
X3924D01*
X1808Y-246732D01*
Y-242500D01*
X3924Y-240384D01*
X8156D01*
X10272Y-242500D01*
Y-246732D01*
X8156Y-248848D01*
X-10888Y-236152D02*
X-2424D01*
Y-248848D01*
X-10888D01*
X-2424Y-242500D02*
X-6656D01*
X-32048Y-248848D02*
X-27815Y-244616D01*
Y-240384D01*
X-32048Y-236152D01*
X-38396Y-248848D02*
X-42627D01*
X-40511D01*
Y-236152D01*
X-38396Y-238268D01*
X-57439Y-248848D02*
X-48975D01*
X-57439Y-240384D01*
Y-238268D01*
X-55323Y-236152D01*
X-51091D01*
X-48975Y-238268D01*
X-61671Y-248848D02*
Y-246732D01*
X-63787D01*
Y-248848D01*
X-61671D01*
X-72251Y-246732D02*
X-74367Y-248848D01*
X-78599D01*
X-80715Y-246732D01*
Y-238268D01*
X-78599Y-236152D01*
X-74367D01*
X-72251Y-238268D01*
Y-240384D01*
X-74367Y-242500D01*
X-80715D01*
X-93411Y-236152D02*
X-84947D01*
Y-242500D01*
X-89179Y-240384D01*
X-91295D01*
X-93411Y-242500D01*
Y-246732D01*
X-91295Y-248848D01*
X-87063D01*
X-84947Y-246732D01*
X-97643Y-236152D02*
Y-248848D01*
X-101875Y-244616D01*
X-106107Y-248848D01*
Y-236152D01*
X-110339Y-248848D02*
X-114571Y-244616D01*
Y-240384D01*
X-110339Y-236152D01*
X508464Y-123268D02*
X510580Y-121152D01*
X514812D01*
X516928Y-123268D01*
Y-131732D01*
X514812Y-133848D01*
X510580D01*
X508464Y-131732D01*
Y-127500D01*
X512696D01*
X504232Y-133848D02*
Y-121152D01*
X495768Y-133848D01*
Y-121152D01*
X491536D02*
Y-133848D01*
X485188D01*
X483072Y-131732D01*
Y-123268D01*
X485188Y-121152D01*
X491536D01*
X470977Y189499D02*
X461999Y198477D01*
X457511Y193988D01*
X457511Y190996D01*
X460503Y188003D01*
X463495Y188003D01*
X467984Y192492D01*
X453022Y189499D02*
X460503Y182018D01*
Y179026D01*
X457511Y176033D01*
X454518Y176033D01*
X447037Y183514D01*
X444045Y180522D02*
X453022Y171545D01*
X447037Y165560D01*
X430578Y164063D02*
Y167056D01*
X433571Y170048D01*
X436563D01*
X438060Y168552D01*
X438060Y165560D01*
X435067Y162567D01*
X435067Y159575D01*
X436563Y158079D01*
X439556Y158079D01*
X442548Y161071D01*
Y164063D01*
X420105Y156582D02*
X426090Y162567D01*
X435067Y153590D01*
X429082Y147605D01*
X430578Y158079D02*
X427586Y155086D01*
X520409Y193931D02*
X511431Y202909D01*
X506943Y198420D01*
X506943Y195427D01*
X509935Y192435D01*
X512928Y192435D01*
X517416Y196924D01*
X514424Y193931D02*
Y187946D01*
X502454Y193931D02*
X496469Y187946D01*
X499462Y190939D01*
X508439Y181961D01*
X493477Y184954D02*
X502454Y175977D01*
X499462Y178969D01*
X487492Y178969D01*
X496469Y178969D01*
X496469Y169992D01*
X488988Y171488D02*
X483003Y165503D01*
X471033Y159518D02*
Y162511D01*
X474026Y165503D01*
X477018D01*
X478514Y164007D01*
X478514Y161014D01*
X475522Y158022D01*
X475522Y155029D01*
X477018Y153533D01*
X480010D01*
X483003Y156526D01*
Y159518D01*
X466544Y158022D02*
X460560Y152037D01*
X463552Y155029D01*
X472529Y146052D01*
X466544Y140067D02*
X460560Y146052D01*
X454575D01*
X454575Y140067D01*
X460560Y134082D01*
X456071Y138571D01*
X462056Y144556D01*
X448590Y140067D02*
X442605Y134082D01*
X445597Y137075D01*
X454575Y128097D01*
X515977Y144499D02*
X506999Y153477D01*
X502511Y148988D01*
X502511Y145996D01*
X505503Y143003D01*
X508495Y143003D01*
X512984Y147492D01*
X493533Y140011D02*
X496526Y143003D01*
X499518D01*
X505503Y137018D01*
Y134026D01*
X502511Y131033D01*
X499518Y131033D01*
X493533Y137018D01*
X493533Y140011D01*
X489045Y135522D02*
X498022Y126545D01*
X492037D01*
Y120560D01*
X483060Y129537D01*
X474082Y120560D02*
X480067Y126545D01*
X489045Y117567D01*
X483060Y111582D01*
X484556Y122056D02*
X481563Y119064D01*
X480067Y108590D02*
X471090Y117567D01*
X466601Y113079D01*
Y110086D01*
X469594Y107094D01*
X472586D01*
X477075Y111582D01*
X474082Y108590D02*
Y102605D01*
X-450708Y-3542D02*
X-449562Y-777D01*
X-451182Y3133D01*
X-453946Y4278D01*
X-455901Y3468D01*
X-457047Y703D01*
X-456237Y-1252D01*
X-457047Y703D01*
X-459811Y1849D01*
X-461766Y1039D01*
X-462911Y-1726D01*
X-461292Y-5636D01*
X-458527Y-6781D01*
X-453611Y8997D02*
X-461431Y5758D01*
X-466960Y8049D01*
X-464670Y13578D01*
X-456850Y16817D01*
X-460424Y19917D02*
X-459279Y22682D01*
X-460899Y26591D01*
X-463663Y27737D01*
X-465618Y26927D01*
X-466764Y24162D01*
X-465954Y22207D01*
X-466764Y24162D01*
X-469528Y25307D01*
X-471483Y24498D01*
X-472628Y21733D01*
X-471009Y17823D01*
X-468244Y16678D01*
X-477413Y-5442D02*
X-474648Y-6588D01*
X-473029Y-10497D01*
X-474174Y-13262D01*
X-476129Y-14072D01*
X-478894Y-12927D01*
X-480513Y-9017D01*
X-483278Y-7872D01*
X-485233Y-8681D01*
X-486378Y-11446D01*
X-484758Y-15356D01*
X-481994Y-16501D01*
X-477078Y-723D02*
X-488807Y-5581D01*
X-491236Y283D01*
X-490091Y3048D01*
X-482272Y6287D01*
X-479507Y5142D01*
X-477078Y-723D01*
X-493666Y6148D02*
X-485846Y9387D01*
X-483556Y14916D01*
X-489085Y17207D01*
X-496905Y13968D01*
X-491040Y16397D01*
X-487801Y8577D01*
X-500880Y-15163D02*
X-498115Y-16308D01*
X-496495Y-20218D01*
X-497640Y-22982D01*
X-499595Y-23792D01*
X-502360Y-22647D01*
X-503980Y-18737D01*
X-506744Y-17592D01*
X-508699Y-18402D01*
X-509844Y-21166D01*
X-508225Y-25076D01*
X-505460Y-26221D01*
X-505738Y-3433D02*
X-502973Y-4578D01*
X-501354Y-8488D01*
X-502499Y-11253D01*
X-510319Y-14492D01*
X-513083Y-13347D01*
X-514703Y-9437D01*
X-513558Y-6672D01*
X-505403Y1286D02*
X-517132Y-3572D01*
X-520371Y4248D01*
X-524346Y-24883D02*
X-521581Y-26028D01*
X-519962Y-29938D01*
X-521107Y-32702D01*
X-528927Y-35941D01*
X-531691Y-34796D01*
X-533311Y-30886D01*
X-532166Y-28122D01*
X-528256Y-26502D01*
X-526636Y-30412D01*
X-535740Y-25022D02*
X-524011Y-20163D01*
X-538979Y-17202D01*
X-527250Y-12343D01*
X-528869Y-8434D02*
X-540599Y-13292D01*
X-543028Y-7427D01*
X-541883Y-4663D01*
X-534063Y-1424D01*
X-531298Y-2569D01*
X-528869Y-8434D01*
D253*
X408939Y136439D02*
X411414Y138914D01*
X406111Y139268D02*
X411768Y133611D01*
X401515Y134672D02*
X412828Y145985D01*
X401515Y134672D02*
X407172Y129015D01*
X412828Y145985D02*
X418485Y140328D01*
X407172Y129015D02*
X418485Y140328D01*
X431439Y113939D02*
X433914Y116414D01*
X428611Y116768D02*
X434268Y111111D01*
X424015Y112172D02*
X435328Y123485D01*
X424015Y112172D02*
X429672Y106515D01*
X435328Y123485D02*
X440985Y117828D01*
X429672Y106515D02*
X440985Y117828D01*
X453939Y91439D02*
X456414Y93914D01*
X451111Y94268D02*
X456768Y88611D01*
X446515Y89672D02*
X457828Y100985D01*
X446515Y89672D02*
X452172Y84015D01*
X457828Y100985D02*
X463485Y95328D01*
X452172Y84015D02*
X463485Y95328D01*
X70000Y-312000D02*
X70000Y-315500D01*
X66000Y-312000D02*
X74000Y-312000D01*
X74000Y-305500D02*
X74000Y-321500D01*
X66000Y-305500D02*
X74000D01*
X66000Y-321500D02*
X74000Y-321500D01*
X66000Y-305500D02*
X66000Y-321500D01*
X-70000Y-315500D02*
Y-312000D01*
X-74000Y-312000D02*
X-66000Y-312000D01*
Y-305500D02*
X-66000Y-321500D01*
X-74000Y-305500D02*
X-66000Y-305500D01*
X-74000Y-321500D02*
X-66000Y-321500D01*
X-74000Y-305500D02*
X-74000Y-321500D01*
D254*
X202000Y-506080D02*
X248000Y-506080D01*
X202000Y-506080D02*
Y-479800D01*
X248000Y-506080D02*
Y-479800D01*
X202000D02*
X248000D01*
X233000Y-505780D02*
X233000Y-480500D01*
X234000D02*
X234000Y-505780D01*
X232000D02*
Y-480500D01*
X202500Y-447500D02*
X205500D01*
X202500Y-454500D02*
X205500Y-454500D01*
X202500Y-465500D02*
X205500D01*
X205500Y-443500D02*
X205500Y-465500D01*
X224500Y-447500D02*
X230500D01*
X224500Y-454500D02*
X230500D01*
X224500Y-465500D02*
X230500D01*
X224500D02*
Y-443500D01*
X230500Y-465500D02*
X230500Y-443500D01*
X249500Y-447500D02*
X255500D01*
X249500Y-454500D02*
X255500Y-454500D01*
X249500Y-465500D02*
X255500D01*
X249500D02*
Y-443500D01*
X255500Y-465500D02*
X255500Y-443500D01*
X270000Y-442500D02*
X270000Y-419000D01*
X202500Y-442500D02*
X270000Y-442500D01*
X249500Y-419000D02*
X270000D01*
X249500D02*
Y-416500D01*
X245500D02*
X249500D01*
X245500Y-442500D02*
Y-416500D01*
X234500Y-442500D02*
Y-416500D01*
X220500Y-442500D02*
Y-416500D01*
X234500Y-416500D01*
X209500Y-442500D02*
Y-416500D01*
X202500D02*
X209500D01*
X234500Y-422500D02*
X245500D01*
X209500Y-422500D02*
X220500Y-422500D01*
X266500Y-418500D02*
Y-377500D01*
X199500Y-447500D02*
X202500D01*
X199500Y-454500D02*
X202500D01*
X199500Y-465500D02*
X202500D01*
X199500D02*
Y-443500D01*
X174500Y-447500D02*
X180500D01*
X174500Y-454500D02*
X180500Y-454500D01*
X174500Y-465500D02*
X180500D01*
X180500Y-443500D02*
X180500Y-465500D01*
X174500Y-443500D02*
X174500Y-465500D01*
X149500Y-447500D02*
X155500D01*
X149500Y-454500D02*
X155500Y-454500D01*
X149500Y-465500D02*
X155500D01*
X155500Y-443500D01*
X149500D02*
X149500Y-465500D01*
X135000Y-419000D02*
X135000Y-442500D01*
X202500Y-442500D01*
X135000Y-419000D02*
X155500D01*
Y-416500D01*
X159500Y-416500D01*
Y-442500D02*
Y-416500D01*
X170500Y-442500D02*
Y-416500D01*
X184500Y-416500D02*
X184500Y-442500D01*
X170500Y-416500D02*
X184500Y-416500D01*
X195500Y-442500D02*
Y-416500D01*
X202500Y-416500D01*
X159500Y-422500D02*
X170500Y-422500D01*
X184500Y-422500D02*
X195500Y-422500D01*
X138500Y-418500D02*
Y-377500D01*
X202500Y-307500D02*
X205500D01*
X202500Y-300500D02*
X205500D01*
X202500Y-289500D02*
X205500D01*
Y-311500D02*
Y-289500D01*
X224500Y-307500D02*
X230500D01*
X224500Y-300500D02*
X230500Y-300500D01*
X224500Y-289500D02*
X230500D01*
X224500D02*
X224500Y-311500D01*
X230500Y-289500D02*
X230500Y-311500D01*
X249500Y-307500D02*
X255500D01*
X249500Y-300500D02*
X255500Y-300500D01*
X249500Y-289500D02*
X255500D01*
X249500Y-311500D02*
X249500Y-289500D01*
X255500D02*
X255500Y-311500D01*
X270000Y-312500D02*
X270000Y-336000D01*
X202500Y-312500D02*
X270000Y-312500D01*
X249500Y-336000D02*
X270000D01*
X249500Y-338500D02*
Y-336000D01*
X245500Y-338500D02*
X249500Y-338500D01*
X245500Y-338500D02*
Y-312500D01*
X234500Y-338500D02*
Y-312500D01*
X220500Y-312500D02*
X220500Y-338500D01*
X234500Y-338500D01*
X209500D02*
Y-312500D01*
X202500Y-338500D02*
X209500Y-338500D01*
X234500Y-332500D02*
X245500Y-332500D01*
X209500Y-332500D02*
X220500Y-332500D01*
X266500Y-377500D02*
Y-336500D01*
X199500Y-307500D02*
X202500D01*
X199500Y-300500D02*
X202500Y-300500D01*
X199500Y-289500D02*
X202500D01*
X199500D02*
X199500Y-311500D01*
X174500Y-307500D02*
X180500D01*
X174500Y-300500D02*
X180500D01*
X174500Y-289500D02*
X180500D01*
Y-311500D02*
Y-289500D01*
X174500Y-311500D02*
X174500Y-289500D01*
X149500Y-307500D02*
X155500D01*
X149500Y-300500D02*
X155500Y-300500D01*
X149500Y-289500D02*
X155500D01*
Y-311500D02*
Y-289500D01*
X149500Y-311500D02*
X149500Y-289500D01*
X135000Y-336000D02*
X135000Y-312500D01*
X202500Y-312500D01*
X135000Y-336000D02*
X155500D01*
Y-338500D02*
Y-336000D01*
Y-338500D02*
X159500D01*
Y-312500D01*
X170500Y-338500D02*
Y-312500D01*
X184500Y-338500D02*
Y-312500D01*
X170500Y-338500D02*
X184500Y-338500D01*
X195500D02*
Y-312500D01*
Y-338500D02*
X202500D01*
X159500Y-332500D02*
X170500D01*
X184500Y-332500D02*
X195500Y-332500D01*
X138500Y-377500D02*
Y-336500D01*
X-266650Y-276300D02*
X-254500D01*
X-150500D02*
X-138350D01*
X-138350Y-348700D01*
X-266650D02*
X-254500D01*
X-150500D02*
X-138350D01*
X-266650Y-276300D02*
X-266650Y-348700D01*
X-263000Y-461420D02*
X-217000Y-461420D01*
Y-487700D02*
Y-461420D01*
X-263000Y-487700D02*
Y-461420D01*
Y-487700D02*
X-217000Y-487700D01*
X-248000Y-461720D02*
X-248000Y-487000D01*
X-249000Y-487000D02*
X-249000Y-461720D01*
X-247000Y-461720D02*
X-247000Y-487000D01*
X-263000Y-416420D02*
X-217000D01*
Y-442700D02*
Y-416420D01*
X-263000Y-442700D02*
X-263000Y-416420D01*
X-263000Y-442700D02*
X-217000Y-442700D01*
X-248000Y-442000D02*
Y-416720D01*
X-249000Y-442000D02*
X-249000Y-416720D01*
X-247000Y-442000D02*
X-247000Y-416720D01*
X-263000Y-371420D02*
X-217000D01*
X-217000Y-397700D01*
X-263000Y-371420D02*
X-263000Y-397700D01*
X-217000Y-397700D01*
X-248000Y-397000D02*
Y-371720D01*
X-249000Y-371720D02*
X-249000Y-397000D01*
X-247000Y-397000D02*
X-247000Y-371720D01*
X-263000Y-506420D02*
X-217000Y-506420D01*
X-217000Y-532700D02*
X-217000Y-506420D01*
X-263000Y-506420D02*
X-263000Y-532700D01*
X-217000D01*
X-248000Y-532000D02*
X-248000Y-506720D01*
X-249000Y-532000D02*
Y-506720D01*
X-247000Y-532000D02*
Y-506720D01*
X-188000Y-461420D02*
X-142000Y-461420D01*
X-142000Y-487700D02*
X-142000Y-461420D01*
X-188000Y-487700D02*
Y-461420D01*
Y-487700D02*
X-142000Y-487700D01*
X-173000Y-461720D02*
X-173000Y-487000D01*
X-174000Y-461720D02*
X-174000Y-487000D01*
X-172000Y-461720D02*
X-172000Y-487000D01*
X-188000Y-506420D02*
X-142000Y-506420D01*
X-142000Y-532700D01*
X-188000Y-532700D02*
X-188000Y-506420D01*
X-188000Y-532700D02*
X-142000Y-532700D01*
X-173000Y-506720D02*
X-173000Y-532000D01*
X-174000Y-506720D02*
X-174000Y-532000D01*
X-172000D02*
Y-506720D01*
X186000Y-511500D02*
Y-483500D01*
X169000Y-511500D02*
Y-483500D01*
X-188000Y-416420D02*
X-142000Y-416420D01*
Y-442700D02*
Y-416420D01*
X-188000Y-442700D02*
X-188000Y-416420D01*
X-188000Y-442700D02*
X-142000D01*
X-173000Y-442000D02*
X-173000Y-416720D01*
X-174000Y-442000D02*
Y-416720D01*
X-172000D02*
X-172000Y-442000D01*
X-188000Y-371420D02*
X-142000Y-371420D01*
Y-397700D02*
Y-371420D01*
X-188000Y-397700D02*
Y-371420D01*
Y-397700D02*
X-142000Y-397700D01*
X-173000Y-397000D02*
X-173000Y-371720D01*
X-174000Y-397000D02*
Y-371720D01*
X-172000Y-397000D02*
X-172000Y-371720D01*
X-514000Y-96000D02*
X-486000D01*
X-514000Y-79000D02*
X-486000D01*
D255*
X338499Y-52500D02*
D03*
X-338500Y-52500D02*
D03*
D256*
X242502Y-228497D02*
D03*
D257*
X177376Y-501873D02*
D03*
D258*
X-504374Y-87376D02*
D03*
D259*
X-235160Y392500D02*
D03*
X-235160Y427500D02*
D03*
M02*
