G04*
G04 #@! TF.GenerationSoftware,Altium Limited,Altium Designer,22.2.1 (43)*
G04*
G04 Layer_Color=16711935*
%FSLAX44Y44*%
%MOMM*%
G71*
G04*
G04 #@! TF.SameCoordinates,2D810589-119A-40C1-8923-BCE66BF163E0*
G04*
G04*
G04 #@! TF.FilePolarity,Negative*
G04*
G01*
G75*
%ADD10C,0.2540*%
%ADD59R,0.8382X1.0922*%
G04:AMPARAMS|DCode=64|XSize=1.0922mm|YSize=0.8382mm|CornerRadius=0mm|HoleSize=0mm|Usage=FLASHONLY|Rotation=67.500|XOffset=0mm|YOffset=0mm|HoleType=Round|Shape=Rectangle|*
%AMROTATEDRECTD64*
4,1,4,0.1782,-0.6649,-0.5962,-0.3442,-0.1782,0.6649,0.5962,0.3442,0.1782,-0.6649,0.0*
%
%ADD64ROTATEDRECTD64*%

G04:AMPARAMS|DCode=65|XSize=1.0922mm|YSize=0.8382mm|CornerRadius=0mm|HoleSize=0mm|Usage=FLASHONLY|Rotation=45.000|XOffset=0mm|YOffset=0mm|HoleType=Round|Shape=Rectangle|*
%AMROTATEDRECTD65*
4,1,4,-0.0898,-0.6825,-0.6825,-0.0898,0.0898,0.6825,0.6825,0.0898,-0.0898,-0.6825,0.0*
%
%ADD65ROTATEDRECTD65*%

%ADD67R,1.0922X0.8382*%
G04:AMPARAMS|DCode=69|XSize=1.0922mm|YSize=0.8382mm|CornerRadius=0mm|HoleSize=0mm|Usage=FLASHONLY|Rotation=315.000|XOffset=0mm|YOffset=0mm|HoleType=Round|Shape=Rectangle|*
%AMROTATEDRECTD69*
4,1,4,-0.6825,0.0898,-0.0898,0.6825,0.6825,-0.0898,0.0898,-0.6825,-0.6825,0.0898,0.0*
%
%ADD69ROTATEDRECTD69*%

G04:AMPARAMS|DCode=70|XSize=1.0922mm|YSize=0.8382mm|CornerRadius=0mm|HoleSize=0mm|Usage=FLASHONLY|Rotation=292.500|XOffset=0mm|YOffset=0mm|HoleType=Round|Shape=Rectangle|*
%AMROTATEDRECTD70*
4,1,4,-0.5962,0.3442,0.1782,0.6649,0.5962,-0.3442,-0.1782,-0.6649,-0.5962,0.3442,0.0*
%
%ADD70ROTATEDRECTD70*%

G04:AMPARAMS|DCode=71|XSize=1.0922mm|YSize=0.8382mm|CornerRadius=0mm|HoleSize=0mm|Usage=FLASHONLY|Rotation=247.500|XOffset=0mm|YOffset=0mm|HoleType=Round|Shape=Rectangle|*
%AMROTATEDRECTD71*
4,1,4,-0.1782,0.6649,0.5962,0.3442,0.1782,-0.6649,-0.5962,-0.3442,-0.1782,0.6649,0.0*
%
%ADD71ROTATEDRECTD71*%

G04:AMPARAMS|DCode=74|XSize=1.0922mm|YSize=0.8382mm|CornerRadius=0mm|HoleSize=0mm|Usage=FLASHONLY|Rotation=112.500|XOffset=0mm|YOffset=0mm|HoleType=Round|Shape=Rectangle|*
%AMROTATEDRECTD74*
4,1,4,0.5962,-0.3442,-0.1782,-0.6649,-0.5962,0.3442,0.1782,0.6649,0.5962,-0.3442,0.0*
%
%ADD74ROTATEDRECTD74*%

%ADD90C,4.3032*%
%ADD91O,2.4032X1.2532*%
%ADD92O,0.8532X1.0532*%
%ADD93C,0.2032*%
G04:AMPARAMS|DCode=94|XSize=1.9032mm|YSize=2.4032mm|CornerRadius=0mm|HoleSize=0mm|Usage=FLASHONLY|Rotation=202.500|XOffset=0mm|YOffset=0mm|HoleType=Round|Shape=Rectangle|*
%AMROTATEDRECTD94*
4,1,4,0.4193,1.4743,1.3390,-0.7460,-0.4193,-1.4743,-1.3390,0.7460,0.4193,1.4743,0.0*
%
%ADD94ROTATEDRECTD94*%

G04:AMPARAMS|DCode=95|XSize=1.9032mm|YSize=2.4032mm|CornerRadius=0mm|HoleSize=0mm|Usage=FLASHONLY|Rotation=202.500|XOffset=0mm|YOffset=0mm|HoleType=Round|Shape=Round|*
%AMOVALD95*
21,1,0.5000,1.9032,0.0000,0.0000,292.5*
1,1,1.9032,-0.0957,0.2310*
1,1,1.9032,0.0957,-0.2310*
%
%ADD95OVALD95*%

%ADD96O,2.2032X2.2032*%
%ADD97O,2.4032X2.4032*%
%ADD98C,2.5032*%
%ADD99C,1.9032*%
%ADD100C,1.2032*%
%ADD101O,2.3032X1.7032*%
%ADD102C,2.3032*%
%ADD103C,1.6032*%
%ADD104C,1.8032*%
%ADD105R,1.8032X1.8032*%
%ADD190C,1.1020*%
%ADD191R,1.8542X1.0922*%
G04:AMPARAMS|DCode=192|XSize=1.3462mm|YSize=1.9812mm|CornerRadius=0mm|HoleSize=0mm|Usage=FLASHONLY|Rotation=67.499|XOffset=0mm|YOffset=0mm|HoleType=Round|Shape=Rectangle|*
%AMROTATEDRECTD192*
4,1,4,0.6576,-1.0010,-1.1728,-0.2427,-0.6576,1.0010,1.1728,0.2427,0.6576,-1.0010,0.0*
%
%ADD192ROTATEDRECTD192*%

G04:AMPARAMS|DCode=193|XSize=1.3462mm|YSize=1.9812mm|CornerRadius=0mm|HoleSize=0mm|Usage=FLASHONLY|Rotation=157.500|XOffset=0mm|YOffset=0mm|HoleType=Round|Shape=Rectangle|*
%AMROTATEDRECTD193*
4,1,4,1.0010,0.6576,0.2428,-1.1728,-1.0010,-0.6576,-0.2428,1.1728,1.0010,0.6576,0.0*
%
%ADD193ROTATEDRECTD193*%

G04:AMPARAMS|DCode=194|XSize=0.4532mm|YSize=0.9532mm|CornerRadius=0mm|HoleSize=0mm|Usage=FLASHONLY|Rotation=247.500|XOffset=0mm|YOffset=0mm|HoleType=Round|Shape=Round|*
%AMOVALD194*
21,1,0.5000,0.4532,0.0000,0.0000,337.5*
1,1,0.4532,-0.2310,0.0957*
1,1,0.4532,0.2310,-0.0957*
%
%ADD194OVALD194*%

%ADD195P,2.6208X4X202.5*%
G04:AMPARAMS|DCode=196|XSize=0.4532mm|YSize=0.9532mm|CornerRadius=0mm|HoleSize=0mm|Usage=FLASHONLY|Rotation=337.500|XOffset=0mm|YOffset=0mm|HoleType=Round|Shape=Round|*
%AMOVALD196*
21,1,0.5000,0.4532,0.0000,0.0000,67.5*
1,1,0.4532,-0.0957,-0.2310*
1,1,0.4532,0.0957,0.2310*
%
%ADD196OVALD196*%

G04:AMPARAMS|DCode=197|XSize=1.0922mm|YSize=0.8382mm|CornerRadius=0mm|HoleSize=0mm|Usage=FLASHONLY|Rotation=337.500|XOffset=0mm|YOffset=0mm|HoleType=Round|Shape=Rectangle|*
%AMROTATEDRECTD197*
4,1,4,-0.6649,-0.1782,-0.3442,0.5962,0.6649,0.1782,0.3442,-0.5962,-0.6649,-0.1782,0.0*
%
%ADD197ROTATEDRECTD197*%

G04:AMPARAMS|DCode=198|XSize=1.3462mm|YSize=1.9812mm|CornerRadius=0mm|HoleSize=0mm|Usage=FLASHONLY|Rotation=202.500|XOffset=0mm|YOffset=0mm|HoleType=Round|Shape=Rectangle|*
%AMROTATEDRECTD198*
4,1,4,0.2428,1.1728,1.0010,-0.6576,-0.2428,-1.1728,-1.0010,0.6576,0.2428,1.1728,0.0*
%
%ADD198ROTATEDRECTD198*%

G04:AMPARAMS|DCode=199|XSize=1.0922mm|YSize=0.8382mm|CornerRadius=0mm|HoleSize=0mm|Usage=FLASHONLY|Rotation=202.500|XOffset=0mm|YOffset=0mm|HoleType=Round|Shape=Rectangle|*
%AMROTATEDRECTD199*
4,1,4,0.3442,0.5962,0.6649,-0.1782,-0.3442,-0.5962,-0.6649,0.1782,0.3442,0.5962,0.0*
%
%ADD199ROTATEDRECTD199*%

%ADD200P,2.6208X4X292.5*%
G04:AMPARAMS|DCode=201|XSize=1.3462mm|YSize=1.9812mm|CornerRadius=0mm|HoleSize=0mm|Usage=FLASHONLY|Rotation=247.500|XOffset=0mm|YOffset=0mm|HoleType=Round|Shape=Rectangle|*
%AMROTATEDRECTD201*
4,1,4,-0.6576,1.0010,1.1728,0.2428,0.6576,-1.0010,-1.1728,-0.2428,-0.6576,1.0010,0.0*
%
%ADD201ROTATEDRECTD201*%

G04:AMPARAMS|DCode=202|XSize=1.3462mm|YSize=1.9812mm|CornerRadius=0mm|HoleSize=0mm|Usage=FLASHONLY|Rotation=292.500|XOffset=0mm|YOffset=0mm|HoleType=Round|Shape=Rectangle|*
%AMROTATEDRECTD202*
4,1,4,-1.1728,0.2428,0.6576,1.0010,1.1728,-0.2428,-0.6576,-1.0010,-1.1728,0.2428,0.0*
%
%ADD202ROTATEDRECTD202*%

G04:AMPARAMS|DCode=203|XSize=1.0922mm|YSize=0.8382mm|CornerRadius=0mm|HoleSize=0mm|Usage=FLASHONLY|Rotation=202.500|XOffset=0mm|YOffset=0mm|HoleType=Round|Shape=Rectangle|*
%AMROTATEDRECTD203*
4,1,4,0.3442,0.5962,0.6649,-0.1782,-0.3442,-0.5962,-0.6649,0.1782,0.3442,0.5962,0.0*
%
%ADD203ROTATEDRECTD203*%

G04:AMPARAMS|DCode=204|XSize=1.3462mm|YSize=1.9812mm|CornerRadius=0mm|HoleSize=0mm|Usage=FLASHONLY|Rotation=112.499|XOffset=0mm|YOffset=0mm|HoleType=Round|Shape=Rectangle|*
%AMROTATEDRECTD204*
4,1,4,1.1728,-0.2428,-0.6576,-1.0009,-1.1728,0.2428,0.6576,1.0009,1.1728,-0.2428,0.0*
%
%ADD204ROTATEDRECTD204*%

%ADD205O,1.8032X3.0032*%
%ADD206R,1.0032X0.6532*%
G04:AMPARAMS|DCode=207|XSize=1.0282mm|YSize=1.6032mm|CornerRadius=0mm|HoleSize=0mm|Usage=FLASHONLY|Rotation=315.000|XOffset=0mm|YOffset=0mm|HoleType=Round|Shape=Rectangle|*
%AMROTATEDRECTD207*
4,1,4,-0.9303,-0.2033,0.2033,0.9303,0.9303,0.2033,-0.2033,-0.9303,-0.9303,-0.2033,0.0*
%
%ADD207ROTATEDRECTD207*%

%ADD208R,0.5532X0.4532*%
%ADD209R,0.4532X0.5532*%
G04:AMPARAMS|DCode=210|XSize=1.0922mm|YSize=1.8542mm|CornerRadius=0mm|HoleSize=0mm|Usage=FLASHONLY|Rotation=135.000|XOffset=0mm|YOffset=0mm|HoleType=Round|Shape=Rectangle|*
%AMROTATEDRECTD210*
4,1,4,1.0417,0.2694,-0.2694,-1.0417,-1.0417,-0.2694,0.2694,1.0417,1.0417,0.2694,0.0*
%
%ADD210ROTATEDRECTD210*%

%ADD211R,1.6032X1.5932*%
%ADD212R,5.0632X3.5632*%
G04:AMPARAMS|DCode=213|XSize=1.3462mm|YSize=1.9812mm|CornerRadius=0mm|HoleSize=0mm|Usage=FLASHONLY|Rotation=315.000|XOffset=0mm|YOffset=0mm|HoleType=Round|Shape=Rectangle|*
%AMROTATEDRECTD213*
4,1,4,-1.1764,-0.2245,0.2245,1.1764,1.1764,0.2245,-0.2245,-1.1764,-1.1764,-0.2245,0.0*
%
%ADD213ROTATEDRECTD213*%

%ADD214R,0.5832X0.4532*%
%ADD215R,0.4532X0.5832*%
%ADD216R,1.9812X1.3462*%
%ADD217P,1.4187X4X360.0*%
%ADD218R,1.3462X1.9812*%
%ADD219R,0.7732X0.8232*%
%ADD220R,2.2032X2.0032*%
%ADD221O,0.9532X0.4532*%
%ADD222O,0.4532X0.9532*%
%ADD223R,2.6532X2.6532*%
%ADD224R,1.4032X3.4032*%
%ADD225R,1.4732X1.7532*%
%ADD226R,1.0922X1.8542*%
%ADD227R,0.9632X1.8532*%
%ADD228R,1.0032X1.0032*%
%ADD229R,2.5032X1.2532*%
%ADD230R,1.5932X1.6032*%
%ADD231R,3.5632X5.0632*%
%ADD232R,0.9032X1.2032*%
%ADD233R,1.4032X1.2032*%
%ADD234R,1.3462X1.8542*%
%ADD235R,1.2032X1.4032*%
%ADD236R,1.2032X0.9032*%
%ADD237R,1.3462X2.9972*%
%ADD238R,2.5032X2.5032*%
G04:AMPARAMS|DCode=239|XSize=0.4532mm|YSize=0.9532mm|CornerRadius=0mm|HoleSize=0mm|Usage=FLASHONLY|Rotation=157.499|XOffset=0mm|YOffset=0mm|HoleType=Round|Shape=Round|*
%AMOVALD239*
21,1,0.5000,0.4532,0.0000,0.0000,247.5*
1,1,0.4532,0.0957,0.2310*
1,1,0.4532,-0.0957,-0.2310*
%
%ADD239OVALD239*%

%ADD240P,2.6208X4X112.5*%
G04:AMPARAMS|DCode=241|XSize=0.4532mm|YSize=0.9532mm|CornerRadius=0mm|HoleSize=0mm|Usage=FLASHONLY|Rotation=247.499|XOffset=0mm|YOffset=0mm|HoleType=Round|Shape=Round|*
%AMOVALD241*
21,1,0.5000,0.4532,0.0000,0.0000,337.5*
1,1,0.4532,-0.2310,0.0957*
1,1,0.4532,0.2310,-0.0957*
%
%ADD241OVALD241*%

%ADD242C,0.7532*%
D10*
X-109924Y-562113D02*
G03*
X-114724Y-586648I-2400J-12268D01*
G01*
X-47045Y-595906D02*
G03*
X-45078Y-570983I984J12461D01*
G01*
X-109924Y-562113D02*
G03*
X-45078Y-570983I109924J562113D01*
G01*
X-114724Y-586648D02*
G03*
X-47045Y-595906I114724J586648D01*
G01*
X-345493Y-456824D02*
G03*
X-291590Y-492980I345493J456824D01*
G01*
X360236Y-445291D02*
G03*
X365000Y-433789I-11502J11502D01*
G01*
X384651Y-457559D02*
G03*
X390000Y-444646I-12913J12913D01*
G01*
X377500Y-415000D02*
G03*
X365000Y-427500I0J-12500D01*
G01*
X390000D02*
G03*
X377500Y-415000I-12500J0D01*
G01*
X265110Y-507711D02*
G03*
X276681Y-529872I5785J-11081D01*
G01*
X47045Y-595906D02*
G03*
X84886Y-591702I-47045J595906D01*
G01*
X45078Y-570983D02*
G03*
X81336Y-566955I-45078J570983D01*
G01*
X84886Y-591702D02*
G03*
X81336Y-566955I-1775J12373D01*
G01*
X265110Y-507711D02*
G03*
X360236Y-445291I-265110J507711D01*
G01*
X276681Y-529872D02*
G03*
X384651Y-457559I-276681J529872D01*
G01*
X45078Y-570983D02*
G03*
X47045Y-595906I984J-12461D01*
G01*
X-372571Y-467472D02*
G03*
X-299807Y-517161I372559J467458D01*
G01*
D02*
G03*
X-288036Y-495107I6017J10956D01*
G01*
X-352404Y-445290D02*
G03*
X-347540Y-455262I12655J-0D01*
G01*
X-377435Y-457500D02*
G03*
X-372571Y-467472I12655J-0D01*
G01*
X-373965Y-376465D02*
G03*
X-377500Y-385000I8536J-8536D01*
G01*
X-338572Y-376428D02*
G03*
X-338572Y-358750I-8839J8839D01*
G01*
D02*
G03*
X-356250Y-358750I-8839J-8839D01*
G01*
X-349929Y-387784D02*
G03*
X-352404Y-393759I5975J-5975D01*
G01*
X357500Y-392500D02*
G03*
X370000Y-380000I0J12500D01*
G01*
D02*
G03*
X357500Y-367500I-12500J0D01*
G01*
X135000D02*
G03*
X122500Y-380000I0J-12500D01*
G01*
D02*
G03*
X135000Y-392500I12500J0D01*
G01*
X-283741Y-325096D02*
G03*
X-289716Y-327571I0J-8449D01*
G01*
X-318750Y-321250D02*
G03*
X-318750Y-338928I8839J-8839D01*
G01*
D02*
G03*
X-301072Y-338928I8839J8839D01*
G01*
X-292500Y-300000D02*
G03*
X-301035Y-303535I0J-12071D01*
G01*
X-131465D02*
G03*
X-140000Y-300000I-8536J-8536D01*
G01*
X-131428Y-338928D02*
G03*
X-113750Y-338928I8839J8839D01*
G01*
D02*
G03*
X-113750Y-321250I-8839J8839D01*
G01*
X-142784Y-327571D02*
G03*
X-148759Y-325096I-5975J-5975D01*
G01*
X-69716Y-364929D02*
G03*
X-63741Y-367404I5975J5975D01*
G01*
X87500Y-392500D02*
G03*
X100000Y-380000I0J12500D01*
G01*
D02*
G03*
X87500Y-367500I-12500J0D01*
G01*
X-98750Y-353572D02*
G03*
X-98750Y-371250I8839J-8839D01*
G01*
X-81072Y-353572D02*
G03*
X-98750Y-353572I-8839J-8839D01*
G01*
X-81035Y-388965D02*
G03*
X-72500Y-392500I8536J8536D01*
G01*
X750000Y0D02*
G03*
X750000Y0I-750000J0D01*
G01*
X-347540Y-455262D02*
X-345493Y-456824D01*
X-291590Y-492980D02*
X-288036Y-495107D01*
X365000Y-433789D02*
Y-427500D01*
X390000Y-444646D02*
Y-427500D01*
X135000Y-367500D02*
X357500D01*
X-352404Y-445290D02*
Y-393759D01*
X-377500Y-385000D02*
X-377435Y-457500D01*
X-373965Y-376465D02*
X-356250Y-358750D01*
X-349929Y-387784D02*
X-338572Y-376428D01*
X135000Y-392500D02*
X357500D01*
X-301072Y-338928D02*
X-289716Y-327571D01*
X-318750Y-321250D02*
X-301035Y-303535D01*
X-283741Y-325010D02*
X-148759Y-325096D01*
X-131465Y-303535D02*
X-113750Y-321250D01*
X-292500Y-300000D02*
X-140000Y-300000D01*
X-142784Y-327571D02*
X-131428Y-338928D01*
X-81072Y-353572D02*
X-69716Y-364929D01*
X-72500Y-392500D02*
X87500D01*
X-98750Y-371250D02*
X-81035Y-388965D01*
X-63741Y-367404D02*
X87500Y-367500D01*
D59*
X492380Y22500D02*
D03*
X507620D02*
D03*
X667380Y-25000D02*
D03*
X682620D02*
D03*
X127380Y-585000D02*
D03*
X142620D02*
D03*
X200120Y-560000D02*
D03*
X184880D02*
D03*
X200120Y-530000D02*
D03*
X184880D02*
D03*
X-207380Y-407500D02*
D03*
X-222620Y-407500D02*
D03*
X-207380Y-452500D02*
D03*
X-222620Y-452500D02*
D03*
X-207380Y-542500D02*
D03*
X-222620Y-542500D02*
D03*
X-207380Y-497500D02*
D03*
X-222620Y-497500D02*
D03*
X337620Y-270000D02*
D03*
X322380D02*
D03*
X-195120Y-407500D02*
D03*
X-179880Y-407500D02*
D03*
X-195120Y-452500D02*
D03*
X-179880Y-452500D02*
D03*
X-195120Y-497500D02*
D03*
X-179880Y-497500D02*
D03*
X-195120Y-542500D02*
D03*
X-179880Y-542500D02*
D03*
X302620Y-312500D02*
D03*
X287380Y-312500D02*
D03*
X144880Y-497500D02*
D03*
X160120D02*
D03*
X167620Y-585000D02*
D03*
X152380Y-585000D02*
D03*
X200120Y-545000D02*
D03*
X184880Y-545000D02*
D03*
X194880Y-515000D02*
D03*
X210120D02*
D03*
X144880Y-512500D02*
D03*
X160120D02*
D03*
X-7620Y577500D02*
D03*
X7620D02*
D03*
D64*
X302239Y637895D02*
D03*
X288159Y643727D02*
D03*
X242186Y662770D02*
D03*
X228106Y668602D02*
D03*
X223323Y657053D02*
D03*
X237403Y651221D02*
D03*
X218539Y645504D02*
D03*
X232619Y639672D02*
D03*
X213756Y633956D02*
D03*
X227836Y628124D02*
D03*
X-223052Y-616576D02*
D03*
X-208972Y-622408D02*
D03*
D65*
X242112Y220388D02*
D03*
X252888Y209612D02*
D03*
X269612Y190388D02*
D03*
X280388Y179612D02*
D03*
D67*
X407500Y-7620D02*
D03*
Y7620D02*
D03*
X292500Y7620D02*
D03*
Y-7620D02*
D03*
X88900Y525780D02*
D03*
Y510540D02*
D03*
X114300Y525780D02*
D03*
Y510540D02*
D03*
X410000Y269880D02*
D03*
Y285120D02*
D03*
X422500Y269880D02*
D03*
Y285120D02*
D03*
X-114300Y372960D02*
D03*
Y357720D02*
D03*
X397500Y284880D02*
D03*
Y300120D02*
D03*
X682500Y24880D02*
D03*
Y40120D02*
D03*
X667500Y24880D02*
D03*
Y40120D02*
D03*
X-88900Y372960D02*
D03*
X-88900Y357720D02*
D03*
X522500Y-7620D02*
D03*
X522500Y7620D02*
D03*
X700000Y7620D02*
D03*
Y-7620D02*
D03*
X130000Y-512620D02*
D03*
Y-497380D02*
D03*
X302500Y-284880D02*
D03*
X302500Y-300120D02*
D03*
X280000Y-462620D02*
D03*
Y-447380D02*
D03*
X272500Y-224880D02*
D03*
X272500Y-240120D02*
D03*
X295000Y-447380D02*
D03*
Y-462620D02*
D03*
X272500Y-267620D02*
D03*
X272500Y-252380D02*
D03*
X-170000Y-234880D02*
D03*
Y-250120D02*
D03*
X40000Y-252380D02*
D03*
Y-267620D02*
D03*
X287500Y-300120D02*
D03*
X287500Y-284880D02*
D03*
X112500Y-560120D02*
D03*
X112500Y-544880D02*
D03*
X287500Y-340120D02*
D03*
X287500Y-324880D02*
D03*
X-397500Y-122620D02*
D03*
Y-107380D02*
D03*
X27500Y542380D02*
D03*
Y557620D02*
D03*
X-292500Y-7620D02*
D03*
Y7620D02*
D03*
X-407500Y7620D02*
D03*
Y-7620D02*
D03*
X190500Y510540D02*
D03*
Y525780D02*
D03*
X215900Y525780D02*
D03*
X215900Y510540D02*
D03*
X256540Y281940D02*
D03*
Y297180D02*
D03*
D69*
X395388Y122888D02*
D03*
X384612Y112112D02*
D03*
X417888Y100388D02*
D03*
X407112Y89612D02*
D03*
X292888Y165388D02*
D03*
X282112Y154612D02*
D03*
X440388Y77888D02*
D03*
X429612Y67112D02*
D03*
D70*
X311475Y-634063D02*
D03*
X297395Y-639895D02*
D03*
D71*
X-223326Y-657036D02*
D03*
X-237405Y-651204D02*
D03*
X-302239Y-637895D02*
D03*
X-288159Y-643727D02*
D03*
X-218542Y-645488D02*
D03*
X-232622Y-639655D02*
D03*
X-213756Y-633956D02*
D03*
X-227836Y-628124D02*
D03*
X-242186Y-662769D02*
D03*
X-228106Y-668602D02*
D03*
D74*
X-311477Y634068D02*
D03*
X-297397Y639900D02*
D03*
D90*
X118110Y-156210D02*
D03*
X-118110D02*
D03*
X0Y194310D02*
D03*
D91*
X-330000Y-19300D02*
D03*
X-370000Y-19300D02*
D03*
Y19300D02*
D03*
X-330000Y19300D02*
D03*
X330000Y-19300D02*
D03*
X370000D02*
D03*
Y19300D02*
D03*
X330000D02*
D03*
D92*
X-354500Y7000D02*
D03*
X-373000D02*
D03*
X-382500Y7000D02*
D03*
X-336500Y7000D02*
D03*
X-345500D02*
D03*
X-327000D02*
D03*
X-317500D02*
D03*
X-345500Y-7000D02*
D03*
X-327000D02*
D03*
X-317500Y-7000D02*
D03*
X-363500Y-7000D02*
D03*
X-354500D02*
D03*
X-373000D02*
D03*
X-382500D02*
D03*
X382500Y7000D02*
D03*
X373000D02*
D03*
X354500D02*
D03*
X363500D02*
D03*
X317500D02*
D03*
X327000D02*
D03*
X345500D02*
D03*
X317500Y-7000D02*
D03*
X327000D02*
D03*
X345500D02*
D03*
X336500D02*
D03*
X382500D02*
D03*
X373000D02*
D03*
X354500D02*
D03*
D93*
X0Y675000D02*
D03*
X480832Y-480832D02*
D03*
X0Y-675000D02*
D03*
X-477297Y-477297D02*
D03*
Y477297D02*
D03*
X477297D02*
D03*
X-38100Y-353400D02*
D03*
X25400Y-543900D02*
D03*
D94*
X-547416Y19987D02*
D03*
D95*
X-523949Y29707D02*
D03*
X-500483Y39427D02*
D03*
X-477016Y49147D02*
D03*
D96*
X443548Y331048D02*
D03*
D97*
X469048Y356548D02*
D03*
X418048D02*
D03*
Y305548D02*
D03*
X469048D02*
D03*
D98*
X25400Y-291750D02*
D03*
X76200Y-455000D02*
D03*
X111250Y-480400D02*
D03*
X-111250Y-429600D02*
D03*
X0Y-581250D02*
D03*
D99*
X31750Y-442300D02*
D03*
X6350D02*
D03*
X-19050D02*
D03*
X-44450D02*
D03*
X-31750Y-467700D02*
D03*
X-6350D02*
D03*
X19050D02*
D03*
X44450D02*
D03*
D100*
X287500Y-425000D02*
D03*
X145000Y-482500D02*
D03*
X-160000Y-555000D02*
D03*
X160000Y-482500D02*
D03*
X222500Y-515000D02*
D03*
X302500Y-270000D02*
D03*
X-30000Y520000D02*
D03*
Y535000D02*
D03*
Y550000D02*
D03*
D101*
X500000Y-100000D02*
D03*
D102*
X-287000Y422700D02*
D03*
Y397300D02*
D03*
D103*
X-162400Y398300D02*
D03*
Y378300D02*
D03*
Y358300D02*
D03*
X-142400Y398300D02*
D03*
Y378300D02*
D03*
Y358300D02*
D03*
D104*
X-266700Y359200D02*
D03*
X38100Y333800D02*
D03*
X12700D02*
D03*
X-12700D02*
D03*
X-38100D02*
D03*
X-63500D02*
D03*
X-88900Y333800D02*
D03*
X-114300Y333800D02*
D03*
X-139700D02*
D03*
X-165100D02*
D03*
X-190500D02*
D03*
X-215900Y333800D02*
D03*
X-241300Y333800D02*
D03*
X-266700D02*
D03*
X-292100D02*
D03*
X38100Y486200D02*
D03*
X12700D02*
D03*
X-12700D02*
D03*
X-38100D02*
D03*
X-63500D02*
D03*
X-88900D02*
D03*
X-114300D02*
D03*
X-139700D02*
D03*
X-165100D02*
D03*
X-190500D02*
D03*
X-215900D02*
D03*
X-241300D02*
D03*
X-266700D02*
D03*
X63500D02*
D03*
X88900D02*
D03*
X114300D02*
D03*
X139700D02*
D03*
X165100D02*
D03*
X190500D02*
D03*
X215900D02*
D03*
X241300D02*
D03*
X266700D02*
D03*
X292100D02*
D03*
Y333800D02*
D03*
X266700D02*
D03*
X241300D02*
D03*
X215900D02*
D03*
X190500D02*
D03*
X165100D02*
D03*
X139700D02*
D03*
X114300D02*
D03*
X88900D02*
D03*
X63500D02*
D03*
D105*
X-292100Y486200D02*
D03*
D190*
X507443Y-480832D02*
G03*
X507443Y-480832I-26610J0D01*
G01*
X26610Y-675000D02*
G03*
X26610Y-675000I-26610J0D01*
G01*
X-450687Y-477297D02*
G03*
X-450687Y-477297I-26610J0D01*
G01*
Y477297D02*
G03*
X-450687Y477297I-26610J0D01*
G01*
X503907D02*
G03*
X503907Y477297I-26610J0D01*
G01*
D191*
X-142500Y-565160D02*
D03*
X-142500Y-544840D02*
D03*
D192*
X-207360Y-663910D02*
D03*
X-195696Y-635750D02*
D03*
D193*
X635766Y-195693D02*
D03*
X663926Y-207358D02*
D03*
X-663926Y207358D02*
D03*
X-635766Y195693D02*
D03*
D194*
X634607Y-270981D02*
D03*
X636520Y-266361D02*
D03*
X640347Y-257122D02*
D03*
X638433Y-261742D02*
D03*
X608804Y-254881D02*
D03*
X606890Y-259500D02*
D03*
X610717Y-250261D02*
D03*
X612630Y-245642D02*
D03*
X273126Y620188D02*
D03*
X275040Y624807D02*
D03*
X271213Y615569D02*
D03*
X269299Y610949D02*
D03*
X243496Y627049D02*
D03*
X241583Y622430D02*
D03*
X245410Y631669D02*
D03*
X247323Y636288D02*
D03*
X-612630Y245642D02*
D03*
X-610717Y250261D02*
D03*
X-606890Y259500D02*
D03*
X-608804Y254881D02*
D03*
X-638433Y261742D02*
D03*
X-640347Y257122D02*
D03*
X-636520Y266361D02*
D03*
X-634607Y270981D02*
D03*
D195*
X623619Y-258311D02*
D03*
X-623619Y258311D02*
D03*
D196*
X620188Y-273126D02*
D03*
X624807Y-275040D02*
D03*
X615569Y-271213D02*
D03*
X610949Y-269299D02*
D03*
X627049Y-243496D02*
D03*
X622430Y-241583D02*
D03*
X631669Y-245410D02*
D03*
X636288Y-247323D02*
D03*
X270981Y634607D02*
D03*
X266361Y636520D02*
D03*
X257122Y640347D02*
D03*
X261742Y638433D02*
D03*
X254881Y608804D02*
D03*
X259500Y606890D02*
D03*
X250261Y610717D02*
D03*
X245642Y612631D02*
D03*
X-636288Y247323D02*
D03*
X-631669Y245410D02*
D03*
X-622430Y241583D02*
D03*
X-627049Y243496D02*
D03*
X-610949Y269299D02*
D03*
X-615569Y271213D02*
D03*
X-624807Y275040D02*
D03*
X-620188Y273126D02*
D03*
D197*
X637895Y-302238D02*
D03*
X643727Y-288159D02*
D03*
X662769Y-242186D02*
D03*
X668602Y-228106D02*
D03*
X657053Y-223323D02*
D03*
X651221Y-237403D02*
D03*
X645504Y-218539D02*
D03*
X639672Y-232619D02*
D03*
X633956Y-213756D02*
D03*
X628124Y-227836D02*
D03*
X-643727Y288159D02*
D03*
X-637895Y302239D02*
D03*
X-668602Y228106D02*
D03*
X-662770Y242186D02*
D03*
X-651221Y237403D02*
D03*
X-657053Y223323D02*
D03*
X-639672Y232619D02*
D03*
X-645504Y218539D02*
D03*
X-628124Y227836D02*
D03*
X-633956Y213756D02*
D03*
X622407Y-208972D02*
D03*
X616575Y-223052D02*
D03*
D198*
X587930Y311178D02*
D03*
X616091Y322843D02*
D03*
X-616090Y-322843D02*
D03*
X-587930Y-311178D02*
D03*
D199*
X634068Y311477D02*
D03*
X639900Y297397D02*
D03*
X-634068Y-311477D02*
D03*
D200*
X258311Y623619D02*
D03*
D201*
X195693Y635766D02*
D03*
X207358Y663926D02*
D03*
D202*
X-311178Y587931D02*
D03*
X-322843Y616091D02*
D03*
D203*
X-639900Y-297397D02*
D03*
D204*
X322841Y-616086D02*
D03*
X311177Y-587926D02*
D03*
D205*
X317300Y-335550D02*
D03*
X342700D02*
D03*
Y-424450D02*
D03*
X317300D02*
D03*
D206*
X339500Y42502D02*
D03*
X360500Y36000D02*
D03*
Y49000D02*
D03*
Y42499D02*
D03*
X339500Y36000D02*
D03*
Y49000D02*
D03*
D207*
X351082Y139587D02*
D03*
X343304Y147366D02*
D03*
X335526Y155144D02*
D03*
X327748Y162922D02*
D03*
X319970Y170700D02*
D03*
X298757Y191913D02*
D03*
X290978Y199692D02*
D03*
X283200Y207470D02*
D03*
X275422Y215248D02*
D03*
X267644Y223026D02*
D03*
X259866Y230804D02*
D03*
X252087Y238582D02*
D03*
X433107Y221612D02*
D03*
X425329Y229390D02*
D03*
X417551Y237168D02*
D03*
X409772Y244946D02*
D03*
X401994Y252725D02*
D03*
X380781Y273938D02*
D03*
X373003Y281716D02*
D03*
X365225Y289494D02*
D03*
X357446Y297272D02*
D03*
X349668Y305051D02*
D03*
X341890Y312829D02*
D03*
X334112Y320607D02*
D03*
D208*
X492000Y-5000D02*
D03*
Y5000D02*
D03*
Y-0D02*
D03*
X508000Y0D02*
D03*
X508000Y-5000D02*
D03*
Y5000D02*
D03*
D209*
X502500Y-8000D02*
D03*
X497500Y-8000D02*
D03*
X502500Y8000D02*
D03*
X497500Y8000D02*
D03*
D210*
X269684Y165316D02*
D03*
X255316Y179684D02*
D03*
D211*
X378620Y-61700D02*
D03*
Y-43300D02*
D03*
X-378620D02*
D03*
Y-61700D02*
D03*
D212*
X338800Y-52500D02*
D03*
X-338800D02*
D03*
D213*
X224224Y210776D02*
D03*
X245776Y189224D02*
D03*
D214*
X683100Y2500D02*
D03*
Y-2500D02*
D03*
X666900Y2500D02*
D03*
Y-2500D02*
D03*
D215*
X672500Y8100D02*
D03*
X667500D02*
D03*
X677500D02*
D03*
X682500D02*
D03*
X672500Y-8100D02*
D03*
X667500D02*
D03*
X677500D02*
D03*
X682500D02*
D03*
D216*
X542500Y15240D02*
D03*
X542500Y-15240D02*
D03*
X242500Y-560240D02*
D03*
Y-529760D02*
D03*
X220000Y-560240D02*
D03*
Y-529760D02*
D03*
X60000Y-267740D02*
D03*
Y-237260D02*
D03*
X47500Y565240D02*
D03*
Y534760D02*
D03*
D217*
X404697Y132197D02*
D03*
X415303Y142803D02*
D03*
X427197Y109697D02*
D03*
X437803Y120303D02*
D03*
X449697Y87197D02*
D03*
X460303Y97803D02*
D03*
D218*
X697740Y-45000D02*
D03*
X667260D02*
D03*
X-209760Y362500D02*
D03*
X-240240D02*
D03*
X-209760Y457500D02*
D03*
X-240240D02*
D03*
D219*
X443550Y285000D02*
D03*
X433950D02*
D03*
D220*
X202000Y-492500D02*
D03*
X248000Y-492500D02*
D03*
X-217000Y-475000D02*
D03*
X-263000Y-475000D02*
D03*
X-217000Y-430000D02*
D03*
X-263000Y-430000D02*
D03*
X-217000Y-385000D02*
D03*
X-263000D02*
D03*
X-217000Y-520000D02*
D03*
X-263000Y-520000D02*
D03*
X-142000Y-475000D02*
D03*
X-188000Y-475000D02*
D03*
X-142000Y-520000D02*
D03*
X-188000Y-520000D02*
D03*
X-142000Y-430000D02*
D03*
X-188000Y-430000D02*
D03*
X-142000Y-385000D02*
D03*
X-188000Y-385000D02*
D03*
D221*
X130000Y-555000D02*
D03*
Y-560000D02*
D03*
Y-550000D02*
D03*
Y-545000D02*
D03*
Y-540000D02*
D03*
X165000Y-545000D02*
D03*
Y-540000D02*
D03*
Y-550000D02*
D03*
Y-555000D02*
D03*
Y-560000D02*
D03*
D222*
X152500Y-567500D02*
D03*
X157500D02*
D03*
X147500D02*
D03*
X142500D02*
D03*
X137500D02*
D03*
X142500Y-532500D02*
D03*
X137500D02*
D03*
X147500D02*
D03*
X152500D02*
D03*
X157500D02*
D03*
D223*
X147500Y-550000D02*
D03*
D224*
X-312500Y-429000D02*
D03*
X-312500Y-381000D02*
D03*
X110000Y-266500D02*
D03*
Y-218500D02*
D03*
X182500Y-266500D02*
D03*
X182500Y-218500D02*
D03*
D225*
X252500Y-294750D02*
D03*
X227500D02*
D03*
X152500D02*
D03*
X177500D02*
D03*
X202500D02*
D03*
X252500Y-460250D02*
D03*
X227500D02*
D03*
X152500D02*
D03*
X177500D02*
D03*
X202500D02*
D03*
D226*
X-277340Y-355000D02*
D03*
X-297660Y-355000D02*
D03*
D227*
X-246950Y-269950D02*
D03*
X-234250Y-269950D02*
D03*
X-221550Y-269950D02*
D03*
X-208850Y-269950D02*
D03*
X-196150Y-269950D02*
D03*
X-183450D02*
D03*
X-170750D02*
D03*
X-158050D02*
D03*
X-158050Y-355050D02*
D03*
X-170750D02*
D03*
X-183450D02*
D03*
X-196150Y-355050D02*
D03*
X-208850Y-355050D02*
D03*
X-234250Y-355050D02*
D03*
X-246950D02*
D03*
X-221550D02*
D03*
D228*
X70000Y-306000D02*
D03*
X70000Y-321000D02*
D03*
X-70000Y-306000D02*
D03*
X-70000Y-321000D02*
D03*
D229*
X287500Y-405000D02*
D03*
X287500Y-355000D02*
D03*
X-90000Y-550000D02*
D03*
Y-500000D02*
D03*
D230*
X233300Y-268620D02*
D03*
X251700Y-268620D02*
D03*
D231*
X242500Y-228800D02*
D03*
D232*
X339500Y-285500D02*
D03*
X320500D02*
D03*
X330000Y-309500D02*
D03*
X240640Y301560D02*
D03*
X221640D02*
D03*
X231140Y277560D02*
D03*
D233*
X177500Y-481300D02*
D03*
Y-513700D02*
D03*
D234*
X202660Y-580000D02*
D03*
X182340D02*
D03*
D235*
X-483800Y-87500D02*
D03*
X-516200D02*
D03*
D236*
X-413000Y-124500D02*
D03*
Y-105500D02*
D03*
X-437000Y-115000D02*
D03*
X12000Y540500D02*
D03*
Y559500D02*
D03*
X-12000Y550000D02*
D03*
D237*
X-209760Y392500D02*
D03*
X-240240D02*
D03*
X-209760Y427500D02*
D03*
X-240240D02*
D03*
D238*
X-464500Y-185500D02*
D03*
X-535500D02*
D03*
X-464500Y-114500D02*
D03*
X-535500D02*
D03*
D239*
X-270983Y-634589D02*
D03*
X-266364Y-636502D02*
D03*
X-257125Y-640330D02*
D03*
X-261744Y-638416D02*
D03*
X-254882Y-608786D02*
D03*
X-259502Y-606873D02*
D03*
X-250263Y-610700D02*
D03*
X-245644Y-612613D02*
D03*
D240*
X-258313Y-623601D02*
D03*
D241*
X-273128Y-620170D02*
D03*
X-275042Y-624790D02*
D03*
X-271215Y-615551D02*
D03*
X-269301Y-610932D02*
D03*
X-243498Y-627032D02*
D03*
X-241585Y-622413D02*
D03*
X-245412Y-631651D02*
D03*
X-247325Y-636271D02*
D03*
D242*
X134110Y-156210D02*
D03*
X132892Y-150087D02*
D03*
X124233Y-141428D02*
D03*
X129424Y-144896D02*
D03*
X118110Y-172210D02*
D03*
X124233Y-170992D02*
D03*
X132892Y-162333D02*
D03*
X129424Y-167524D02*
D03*
X102110Y-156210D02*
D03*
X103328Y-162333D02*
D03*
X111987Y-170992D02*
D03*
X106796Y-167524D02*
D03*
X118110Y-140210D02*
D03*
X111987Y-141428D02*
D03*
X103328Y-150087D02*
D03*
X106796Y-144896D02*
D03*
X-102110Y-156210D02*
D03*
X-103328Y-150087D02*
D03*
X-111987Y-141428D02*
D03*
X-106796Y-144896D02*
D03*
X-118110Y-172210D02*
D03*
X-111987Y-170992D02*
D03*
X-103328Y-162333D02*
D03*
X-106796Y-167524D02*
D03*
X-134110Y-156210D02*
D03*
X-132892Y-162333D02*
D03*
X-124233Y-170992D02*
D03*
X-129424Y-167524D02*
D03*
X-118110Y-140210D02*
D03*
X-132892Y-150087D02*
D03*
X-129424Y-144896D02*
D03*
X-11314Y205624D02*
D03*
X-14782Y200433D02*
D03*
X-6123Y209092D02*
D03*
X0Y210310D02*
D03*
X-11314Y182996D02*
D03*
X-6123Y179528D02*
D03*
X-14782Y188187D02*
D03*
X-16000Y194310D02*
D03*
X11314Y182996D02*
D03*
X14782Y188187D02*
D03*
X6123Y179528D02*
D03*
X0Y178310D02*
D03*
X11314Y205624D02*
D03*
X6123Y209092D02*
D03*
X14782Y200433D02*
D03*
X16000Y194310D02*
D03*
X-124233Y-141428D02*
D03*
M02*
