M48
;Layer_Color=9474304
;FILE_FORMAT=4:4
METRIC,LZ
;TYPE=PLATED
T1F00S00C0.3000
T2F00S00C0.4000
T3F00S00C0.4500
T5F00S00C0.8000
T6F00S00C0.9000
T7F00S00C1.0000
T8F00S00C1.3000
T9F00S00C1.3500
T10F00S00C1.4000
T11F00S00C2.3000
T12F00S00C4.2200
T13F00S00C7.0000
;TYPE=NON_PLATED
T14F00S00C1.7000
%
T01
X0045Y-0055
X00425Y-005
X00433103Y-00457852
X00457852Y-00433103
X00425Y-004
X00525
X00575
X0055Y-0045
X003425Y-00445
X003175
X002275Y-00475
X0021
X002025
X00195
X001375Y-00505
Y-0052
X001225Y-0053
X001175Y-005525
X0011
X001025
Y-00545
X000775Y-005375
X0007
X000625
X001125Y-0057
X001275Y-00576
X00135
X00175Y-0055
X0022Y-00545
X002275
X00235
X00288285Y-00578766
X00285315Y-00590795
X00316064Y-00599706
X00322995Y-00596836
X00329925Y-00593965
X00375Y-006
X004Y-0055
X0035
X003Y-0065
X00277281Y-00656351
X00268043Y-00660177
X00251162Y-00645532
X00241923Y-00649358
X00232684Y-00653185
X00223445Y-00657012
X0015Y-0065
X001
X0005
X00075Y-007
X00125
X000175Y-0063
X-000175
X-0005Y-0065
X-001
X-0015
X-00186709Y-00653277
X-0019364Y-00650406
X-0020057Y-00647536
X-00205406Y-00613086
X-00216012Y-00619492
X-00225Y-006
X-00257258Y-00575347
X-00250193Y-00643217
X-00250754Y-00651103
X-00268043Y-00660177
X-00277281Y-00656351
X-00278867Y-00634046
X-00288105Y-00630219
X-00297344Y-00626393
X-00306583Y-00622566
X-003Y-0065
X-00321726Y-00646059
X-00328259Y-00648765
X-00375Y-006
X-0035Y-0055
X-002975Y-00429
X-0029
X-002825
X-002825Y-00381
X-0029
X-002975
X-0024695Y-003686
X-0022155
X-0018345
X-0015805
X-00232Y-004075
X-00232Y-004525
X-0016Y-0048
Y-004875
Y-0052
Y-005275
X-0015Y-00555
X-001425
X-00135
X-0009Y-00535
X-00075Y-007
X-00125
X-00179549Y-00675185
X-00235146Y-00665686
X-004Y-0055
X-0045
X-00425Y-005
X-00433104Y-00457852
X-00457852Y-00433103
X-00425Y-004
X-00525
X-00575
X-0055Y-0045
Y-0035
X-006
X-00593965Y-00329925
X-00596836Y-00322995
X-00599706Y-00316064
X-00590795Y-00285315
X-00578766Y-00288285
X-006Y-0025
X-00588741Y-00224923
X-00625Y-002
X-00657012Y-00223445
X-00653185Y-00232684
X-00649358Y-00241923
X-00645532Y-00251162
X-00660177Y-00268043
X-00656351Y-00277281
X-0065Y-0015
X-00625Y-001
X-00575
X-005355Y-000875
X-0055Y-0005
X-005
X-0045
X-003975Y-000525
Y-000625
Y-000425
X-00425Y0
X-00475
X-005775Y000075
X-00585
X-005925
Y-000075
X-00585
X-005775
X-0063Y-000175
Y000175
X-007075Y00015
X-00715001Y00015
X-007Y-0005
X-0065
X-00675Y-001
X-0055Y-0015
X-005Y-0025
X-0045
X-004
X-00423Y-002
X-004Y-0015
X-0038512Y-0012262
X-00385Y-0010726
X-00425Y-001
Y-003
X-00475
X-0045Y-0035
X-004
X-00375Y-003
X-00325
X-003Y-0025
X-0035
X-00325Y-002
X-00275
X-0025Y-0015
X-003
X-0035
X-00325Y-001
X-00275
X-002775Y-000525
X-002875
X-002975
X-00275Y0
X-00225
X-00125
X-00075
Y-001
X-00125
X-00124233Y-00141428
X-0011811Y-0014021
X-00111987Y-00141428
X-00106796Y-00144896
X-00103328Y-00150087
X-0010211Y-0015621
X-00103328Y-00162333
X-00106796Y-00167524
X-00111987Y-00170992
X-0011811Y-0017221
X-00124233Y-00170992
X-00129424Y-00167524
X-00132892Y-00162333
X-0013411Y-0015621
X-00132892Y-00150087
X-00129424Y-00144896
X-0015Y-0015
X-00125Y-002
X-00175
X-00155Y-00235
X-0015805Y-002564
X-0018345
X-002Y-0025
X-0022155Y-002564
X-0024695
X-001Y-0025
X-0005
X0
X-00025Y-002
X0Y-0015
X-0005
X-000075Y-000375
X-00175Y-001
X-00375
Y-002
X-00125Y-003
X-0007Y-002945
X-0007Y-003325
X-00025Y-003
X0Y-0035
X0005
X0007Y-003325
X001Y-0035
X0015
X002
X0025
X003175Y-003
X00375Y-003
X004Y-0025
X0035
X003
X00275Y-002
X003Y-0015
X0035
X00375Y-001
X00325
X00275
X002775Y-000525
X002875
X002975
X00275Y0
X00225
X00175
X00125
X00127Y-000375
X00125Y-001
X00124233Y-00141428
X0011811Y-0014021
X00111987Y-00141428
X00106796Y-00144896
X00103328Y-00150087
X0010211Y-0015621
X00103328Y-00162333
X00106796Y-00167524
X00111987Y-00170992
X0011811Y-0017221
X00124233Y-00170992
X00129424Y-00167524
X00132892Y-00162333
X0013411Y-0015621
X00132892Y-00150087
X00129424Y-00144896
X00125Y-002
X0012375Y-002185
X0013125
X0013875
X0014625
X0015375
X0016125
X0016875
X0016875Y-002665
X0016125
X0015375
X0014625
X0013875
X0013125
X0012375
X00125Y-003
X0015Y-0025
X002
Y-0015
X0025
X00225Y-001
X00175
X00075
X0005Y-0015
X00075Y-002
X00025
Y0
X00075
X003975Y-000425
Y-000425
Y-000525
Y-000525
Y-000625
Y-000625
X004Y-0035
X0045
X00475Y-003
X00425
X0045Y-0025
X005
X00525Y-002
X00475
X00425
X0045Y-0015
X00475Y-001
X00525
X00575
X00625
X00675
X0068262Y-00045
X0065Y-0005
X006575Y-00025
X0063Y-000175
Y000175
X0066Y00015
X00675Y0
X00715Y00015
X005925Y000075
X00585Y000075
X005775
Y-000075
X00585
X005925Y-000075
X005425Y0
X005225Y-0001524
X005225Y000225
X00485Y00005
X005Y-0005
X0055
Y-0015
X0065
X00653277Y-00186709
X00650406Y-0019364
X00647536Y-0020057
X00613086Y-00205406
X00602384Y-00211623
X00599514Y-00218552
X00596644Y-00225481
X00619492Y-00216012
X00643217Y-00250193
X00651103Y-00250754
X00660177Y-00268043
X00656351Y-00277281
X00634046Y-00278867
X00630219Y-00288105
X00626393Y-00297344
X00622566Y-00306583
X00646059Y-00321726
X00646077Y-00321724
X00648765Y-00328259
X00648783Y-00328257
X006Y-0035
X0055
X00575Y-003
X00575214Y-00270705
X00582129Y-00273588
X00589058Y-00276459
X00575347Y-00257258
X00665686Y-00235146
X00425Y-001
X0045Y-0005
Y0005
X00435Y000725
X00445Y001275
X0045Y0015
X005
X0055
X00575Y001
X00625
X00675
X00675Y0005
X007Y0005
X0065Y0015
X00625Y002
X00657012Y00223445
X00653185Y00232684
X00649358Y00241923
X00645532Y00251162
X00660177Y00268043
X00656351Y00277281
X00590795Y00285315
X00578766Y00288285
X00599706Y00316064
X00596836Y00322995
X00593965Y00329925
X006Y0035
X0055
X00575Y004
X00525
X00425
X00436048Y00356548
X00443548
X00451048
X00469048Y00338548
Y00331048
Y00323548
X00454597Y003
Y002925
Y00285
Y002775
Y0027
Y002625
Y00255
Y002475
X00451078Y00239583
X00445774Y00234279
X00440471Y00228976
X00426976Y00246593
X00431Y00254
X004325Y002625
Y0027
Y002775
Y002925
Y003
X00425Y002
X00475
X00525
X005Y0025
X006
X00588741Y00224923
X00525Y001
X00475
X005Y0005
X0055
X00457852Y00433103
X00375Y004
X004Y0035
X00418048Y00338548
Y00331048
Y00323548
X0035Y0035
X003
X0025
X0025654Y003075
X00275Y003
X00325
X00372172Y00265328
X00393385Y00244115
X00375Y002
X003375Y00195
X00344135Y00163753
X00342473Y00130978
X00325Y001
X00375
X0039Y001175
X004Y0015
X004125Y00095
X004Y0005
X003
X0025
X002
X00225Y001
X00275
X003Y0015
X003Y001725
X002625
X00265Y002025
X00276253Y00231635
X0025Y0025
X002275Y00235
X002Y0025
X0015
X00175Y002
X00125
X001Y0015
X001016Y001316
X00127Y0011938
X00125Y001
X00175
X001524Y001316
X002Y0015
X0025
X0021132Y0030156
X00175Y004
X00275
X00075
X0005Y0015
X001Y0005
X0
X-0005
X-00025Y001
X-00075
X-00125
Y002
X-00075
X-00014782Y00200433
X-00016Y0019431
X-00014782Y00188187
X-00011314Y00182996
X-00006123Y00179528
X0Y0017831
X00006123Y00179528
X00011314Y00182996
X00014782Y00188187
X00016Y0019431
X00014782Y00200433
X00011314Y00205624
X00006123Y00209092
X0Y0021031
X-00006123Y00209092
X-00011314Y00205624
X0Y0025
X-0005
Y0035
X-00075Y004
X-001016Y003825
X-001925Y003925
Y0040125
Y0041
Y0041875
Y004275
X-00225Y004
X-002625Y0040125
Y0041
Y0041875
Y004275
Y003925
X-00325Y004
X-00375
X-0035Y0035
X-00325Y003
X-00275
X-00225
X-002Y0025
X-0025
X-003
X-00275Y002
X-00225
X-002Y0015
X-0025
X-003
X-00275Y001
X-00225
X-002Y0005
X-0025
X-00325Y001
X-00375
X-00325Y002
X-00375Y003
X-000175Y004145
Y0043
X000175
X0Y0015
X-0005
X-004
X-0045
X-005
X-0055
X-00525Y002
X-00475
X-00425
X-004Y0025
X-0045
X-005
X-00475Y003
X-00425
X-004Y0035
X-0045
X-00425Y004
X-00457852Y00433103
X-00525Y004
X-00575
X-0055Y0035
X-006
X-00622566Y00306583
X-00626393Y00297344
X-00630219Y00288105
X-00634046Y00278867
X-00656351Y00277281
X-00651103Y00250754
X-00643217Y00250193
X-00665686Y00235146
X-00647536Y0020057
X-00650406Y0019364
X-00653277Y00186709
X-0065Y0015
X-00625Y001
X-00575
X-00525
X-0055Y0005
X-0045
X-004
X-00425Y001
X-00675
X-0065Y0005
X-007
X-00613086Y00205406
X-00602367Y00211625
X-00599497Y00218554
X-00596627Y00225483
X-00619492Y00216012
X-00575347Y00257258
X-00575196Y00270707
X-00582112Y0027359
X-00589041Y0027646
X-00575Y003
X-00646059Y00321726
X-00648765Y00328259
X-0055Y0045
X-00433103Y00457852
X-00425Y005
X-004Y0055
X-0045
X-0035
X-00329925Y00593965
X-00322995Y00596836
X-00316064Y00599706
X-00285315Y00590795
X-00288285Y00578766
X-00224923Y00588741
X-00225Y006
X-00223445Y00657012
X-00232684Y00653185
X-00241923Y00649358
X-00251162Y00645532
X-00277281Y00656351
X-003Y0065
X-00375Y006
X-00325Y005
X-00275
X-00225
X-002Y0055
X-0015
X-001
X-00125Y005
X-0015Y0045
X-0009Y0045
X-0005Y0045
X0
X000175Y0063
X-000175
X-001Y0065
X-0015
X-0015675Y00609688
X-00165128Y00612606
X-00173462Y00615446
X-00125Y007
X-00075
X-0005Y0071
X-0025Y0045
X-003
X-0035
X0005
X00075Y005
X00125
X001143Y0053532
X001Y0055
X0015
X002
X002159Y0053532
X00225Y005
X00275
X00325
X0035Y0055
X004
X00375Y006
X00306583Y00622566
X00297344Y00626393
X00288105Y00630219
X00278867Y00634046
X00277281Y00656351
X00268043Y00660177
X00250754Y00651103
X00250193Y00643217
X00235146Y00665686
X0020057Y00647536
X0019364Y00650406
X00186709Y00653277
X0015Y0065
X001
X0005
X00075Y007
X00125
X00205406Y00613086
X00211625Y00602367
X00218554Y00599497
X00225483Y00596627
X00216012Y00619492
X00257258Y00575347
X00270707Y00575196
X0027359Y00582112
X0027646Y00589041
X00321726Y00646059
X00328259Y00648765
X0035Y0045
X003
X0025
X00175Y005
X00025
X000475Y0055
X00025Y006
X0045Y0055
X00425Y005
X00433103Y00457852
X0055Y0045
T02
X00145Y-004825
X0016
X002225Y-00515
X002875Y-00425
X-0016Y-00555
X003025Y-0027
X-0003Y0052
Y00535
Y0055
T03
X-003825Y-00007
Y00007
X-00373Y00007
Y-00007
X-003635
X-003545
X-003455
Y00007
X-003545
X-003365
X-00327
X-003175
Y-00007
X-00327Y-00007
X003175
X00327
X003365
X003455
X003545
Y00007
X003455
X003635
X00373
X003825
Y-00007
X00373
X00327Y00007
X003175
T05
X-001624Y003583
Y003783
Y003983
X-001424
Y003783
Y003583
T06
X0004445Y-004677
X0003175Y-004423
X0000635
X-0001905
X-0004445
X-0003175Y-004677
X-0000635
X0001905
X000381Y003338
X000635
X000889
X001143
X001397
X001651
X001905
X002159
X002413
X002667
X002921
X000127
X-000127
X-000381
X-000635
X-000889Y003338
X-001143Y003338
X-001397
X-001651
X-001905
X-002159Y003338
X-002413Y003338
X-002667
X-002667Y003592
X-002921Y003338
X-002921Y004862
X-002667
X-002413
X-002159
X-001905
X-001651
X-001397
X-001143
X-000889
X-000635
X-000381
X-000127
X000127
X000381
X000635
X000889
X001143
X001397
X001651
X001905
X002159
X002413
X002667
X002921
T07
X-00547416Y00019987
X-00523949Y00029707
X005Y-001
X-00287Y003973
Y004227
X-00477016Y00049147
X-00500483Y00039427
T08
X000762Y-00455
X0011125Y-004804
X0Y-0058125
X-0011125Y-004296
X000254Y-0029175
T09
X00443548Y00331048
T10
X00469048Y00305548
Y00356548
X00418048
Y00305548
T11
X-0011811Y-0015621
X0011811
X0Y0019431
T12
X00480832Y-00480832
X0Y-00675
X-00477297Y-00477297
Y00477297
X00477297
T13
X0Y00675
T14
X000254Y-005439
X-000381Y-003534
M30
