G04*
G04 #@! TF.GenerationSoftware,Altium Limited,Altium Designer,22.2.1 (43)*
G04*
G04 Layer_Color=8388736*
%FSLAX44Y44*%
%MOMM*%
G71*
G04*
G04 #@! TF.SameCoordinates,2D810589-119A-40C1-8923-BCE66BF163E0*
G04*
G04*
G04 #@! TF.FilePolarity,Negative*
G04*
G01*
G75*
%ADD10C,0.2540*%
G04:AMPARAMS|DCode=55|XSize=0.8032mm|YSize=2.4032mm|CornerRadius=0mm|HoleSize=0mm|Usage=FLASHONLY|Rotation=337.500|XOffset=0mm|YOffset=0mm|HoleType=Round|Shape=Rectangle|*
%AMROTATEDRECTD55*
4,1,4,-0.8309,-0.9565,0.0888,1.2638,0.8309,0.9565,-0.0888,-1.2638,-0.8309,-0.9565,0.0*
%
%ADD55ROTATEDRECTD55*%

G04:AMPARAMS|DCode=56|XSize=2.7032mm|YSize=3.0032mm|CornerRadius=0mm|HoleSize=0mm|Usage=FLASHONLY|Rotation=157.500|XOffset=0mm|YOffset=0mm|HoleType=Round|Shape=Rectangle|*
%AMROTATEDRECTD56*
4,1,4,1.8234,0.8701,0.6741,-1.9045,-1.8234,-0.8701,-0.6741,1.9045,1.8234,0.8701,0.0*
%
%ADD56ROTATEDRECTD56*%

G04:AMPARAMS|DCode=57|XSize=0.8032mm|YSize=2.4032mm|CornerRadius=0mm|HoleSize=0mm|Usage=FLASHONLY|Rotation=22.500|XOffset=0mm|YOffset=0mm|HoleType=Round|Shape=Rectangle|*
%AMROTATEDRECTD57*
4,1,4,0.0888,-1.2638,-0.8309,0.9565,-0.0888,1.2638,0.8309,-0.9565,0.0888,-1.2638,0.0*
%
%ADD57ROTATEDRECTD57*%

G04:AMPARAMS|DCode=58|XSize=2.7032mm|YSize=3.0032mm|CornerRadius=0mm|HoleSize=0mm|Usage=FLASHONLY|Rotation=202.500|XOffset=0mm|YOffset=0mm|HoleType=Round|Shape=Rectangle|*
%AMROTATEDRECTD58*
4,1,4,0.6741,1.9045,1.8234,-0.8701,-0.6741,-1.9045,-1.8234,0.8701,0.6741,1.9045,0.0*
%
%ADD58ROTATEDRECTD58*%

%ADD59R,0.8382X1.0922*%
G04:AMPARAMS|DCode=60|XSize=0.8032mm|YSize=2.4032mm|CornerRadius=0mm|HoleSize=0mm|Usage=FLASHONLY|Rotation=247.500|XOffset=0mm|YOffset=0mm|HoleType=Round|Shape=Rectangle|*
%AMROTATEDRECTD60*
4,1,4,-0.9565,0.8309,1.2638,-0.0888,0.9565,-0.8309,-1.2638,0.0888,-0.9565,0.8309,0.0*
%
%ADD60ROTATEDRECTD60*%

G04:AMPARAMS|DCode=61|XSize=2.7032mm|YSize=3.0032mm|CornerRadius=0mm|HoleSize=0mm|Usage=FLASHONLY|Rotation=67.500|XOffset=0mm|YOffset=0mm|HoleType=Round|Shape=Rectangle|*
%AMROTATEDRECTD61*
4,1,4,0.8701,-1.8234,-1.9045,-0.6741,-0.8701,1.8234,1.9045,0.6741,0.8701,-1.8234,0.0*
%
%ADD61ROTATEDRECTD61*%

G04:AMPARAMS|DCode=62|XSize=0.8032mm|YSize=2.4032mm|CornerRadius=0mm|HoleSize=0mm|Usage=FLASHONLY|Rotation=292.500|XOffset=0mm|YOffset=0mm|HoleType=Round|Shape=Rectangle|*
%AMROTATEDRECTD62*
4,1,4,-1.2638,-0.0888,0.9565,0.8309,1.2638,0.0888,-0.9565,-0.8309,-1.2638,-0.0888,0.0*
%
%ADD62ROTATEDRECTD62*%

G04:AMPARAMS|DCode=63|XSize=2.7032mm|YSize=3.0032mm|CornerRadius=0mm|HoleSize=0mm|Usage=FLASHONLY|Rotation=112.500|XOffset=0mm|YOffset=0mm|HoleType=Round|Shape=Rectangle|*
%AMROTATEDRECTD63*
4,1,4,1.9045,-0.6741,-0.8701,-1.8234,-1.9045,0.6741,0.8701,1.8234,1.9045,-0.6741,0.0*
%
%ADD63ROTATEDRECTD63*%

G04:AMPARAMS|DCode=64|XSize=1.0922mm|YSize=0.8382mm|CornerRadius=0mm|HoleSize=0mm|Usage=FLASHONLY|Rotation=67.500|XOffset=0mm|YOffset=0mm|HoleType=Round|Shape=Rectangle|*
%AMROTATEDRECTD64*
4,1,4,0.1782,-0.6649,-0.5962,-0.3442,-0.1782,0.6649,0.5962,0.3442,0.1782,-0.6649,0.0*
%
%ADD64ROTATEDRECTD64*%

G04:AMPARAMS|DCode=65|XSize=1.0922mm|YSize=0.8382mm|CornerRadius=0mm|HoleSize=0mm|Usage=FLASHONLY|Rotation=45.000|XOffset=0mm|YOffset=0mm|HoleType=Round|Shape=Rectangle|*
%AMROTATEDRECTD65*
4,1,4,-0.0898,-0.6825,-0.6825,-0.0898,0.0898,0.6825,0.6825,0.0898,-0.0898,-0.6825,0.0*
%
%ADD65ROTATEDRECTD65*%

G04:AMPARAMS|DCode=66|XSize=1.0922mm|YSize=0.8382mm|CornerRadius=0mm|HoleSize=0mm|Usage=FLASHONLY|Rotation=22.500|XOffset=0mm|YOffset=0mm|HoleType=Round|Shape=Rectangle|*
%AMROTATEDRECTD66*
4,1,4,-0.3442,-0.5962,-0.6649,0.1782,0.3442,0.5962,0.6649,-0.1782,-0.3442,-0.5962,0.0*
%
%ADD66ROTATEDRECTD66*%

%ADD67R,1.0922X0.8382*%
G04:AMPARAMS|DCode=68|XSize=1.0922mm|YSize=0.8382mm|CornerRadius=0mm|HoleSize=0mm|Usage=FLASHONLY|Rotation=337.500|XOffset=0mm|YOffset=0mm|HoleType=Round|Shape=Rectangle|*
%AMROTATEDRECTD68*
4,1,4,-0.6649,-0.1782,-0.3442,0.5962,0.6649,0.1782,0.3442,-0.5962,-0.6649,-0.1782,0.0*
%
%ADD68ROTATEDRECTD68*%

G04:AMPARAMS|DCode=69|XSize=1.0922mm|YSize=0.8382mm|CornerRadius=0mm|HoleSize=0mm|Usage=FLASHONLY|Rotation=315.000|XOffset=0mm|YOffset=0mm|HoleType=Round|Shape=Rectangle|*
%AMROTATEDRECTD69*
4,1,4,-0.6825,0.0898,-0.0898,0.6825,0.6825,-0.0898,0.0898,-0.6825,-0.6825,0.0898,0.0*
%
%ADD69ROTATEDRECTD69*%

G04:AMPARAMS|DCode=70|XSize=1.0922mm|YSize=0.8382mm|CornerRadius=0mm|HoleSize=0mm|Usage=FLASHONLY|Rotation=292.500|XOffset=0mm|YOffset=0mm|HoleType=Round|Shape=Rectangle|*
%AMROTATEDRECTD70*
4,1,4,-0.5962,0.3442,0.1782,0.6649,0.5962,-0.3442,-0.1782,-0.6649,-0.5962,0.3442,0.0*
%
%ADD70ROTATEDRECTD70*%

G04:AMPARAMS|DCode=71|XSize=1.0922mm|YSize=0.8382mm|CornerRadius=0mm|HoleSize=0mm|Usage=FLASHONLY|Rotation=247.500|XOffset=0mm|YOffset=0mm|HoleType=Round|Shape=Rectangle|*
%AMROTATEDRECTD71*
4,1,4,-0.1782,0.6649,0.5962,0.3442,0.1782,-0.6649,-0.5962,-0.3442,-0.1782,0.6649,0.0*
%
%ADD71ROTATEDRECTD71*%

G04:AMPARAMS|DCode=72|XSize=1.0922mm|YSize=0.8382mm|CornerRadius=0mm|HoleSize=0mm|Usage=FLASHONLY|Rotation=22.500|XOffset=0mm|YOffset=0mm|HoleType=Round|Shape=Rectangle|*
%AMROTATEDRECTD72*
4,1,4,-0.3442,-0.5962,-0.6649,0.1782,0.3442,0.5962,0.6649,-0.1782,-0.3442,-0.5962,0.0*
%
%ADD72ROTATEDRECTD72*%

G04:AMPARAMS|DCode=73|XSize=1.0922mm|YSize=0.8382mm|CornerRadius=0mm|HoleSize=0mm|Usage=FLASHONLY|Rotation=337.500|XOffset=0mm|YOffset=0mm|HoleType=Round|Shape=Rectangle|*
%AMROTATEDRECTD73*
4,1,4,-0.6649,-0.1782,-0.3442,0.5962,0.6649,0.1782,0.3442,-0.5962,-0.6649,-0.1782,0.0*
%
%ADD73ROTATEDRECTD73*%

G04:AMPARAMS|DCode=74|XSize=1.0922mm|YSize=0.8382mm|CornerRadius=0mm|HoleSize=0mm|Usage=FLASHONLY|Rotation=112.500|XOffset=0mm|YOffset=0mm|HoleType=Round|Shape=Rectangle|*
%AMROTATEDRECTD74*
4,1,4,0.5962,-0.3442,-0.1782,-0.6649,-0.5962,0.3442,0.1782,0.6649,0.5962,-0.3442,0.0*
%
%ADD74ROTATEDRECTD74*%

%ADD75R,0.8032X0.9032*%
G04:AMPARAMS|DCode=76|XSize=0.8032mm|YSize=0.9032mm|CornerRadius=0mm|HoleSize=0mm|Usage=FLASHONLY|Rotation=157.500|XOffset=0mm|YOffset=0mm|HoleType=Round|Shape=Rectangle|*
%AMROTATEDRECTD76*
4,1,4,0.5438,0.2635,0.1982,-0.5709,-0.5438,-0.2635,-0.1982,0.5709,0.5438,0.2635,0.0*
%
%ADD76ROTATEDRECTD76*%

G04:AMPARAMS|DCode=77|XSize=0.8032mm|YSize=0.9032mm|CornerRadius=0mm|HoleSize=0mm|Usage=FLASHONLY|Rotation=135.000|XOffset=0mm|YOffset=0mm|HoleType=Round|Shape=Rectangle|*
%AMROTATEDRECTD77*
4,1,4,0.6033,0.0354,-0.0354,-0.6033,-0.6033,-0.0354,0.0354,0.6033,0.6033,0.0354,0.0*
%
%ADD77ROTATEDRECTD77*%

G04:AMPARAMS|DCode=78|XSize=0.8032mm|YSize=0.9032mm|CornerRadius=0mm|HoleSize=0mm|Usage=FLASHONLY|Rotation=112.500|XOffset=0mm|YOffset=0mm|HoleType=Round|Shape=Rectangle|*
%AMROTATEDRECTD78*
4,1,4,0.5709,-0.1982,-0.2635,-0.5438,-0.5709,0.1982,0.2635,0.5438,0.5709,-0.1982,0.0*
%
%ADD78ROTATEDRECTD78*%

%ADD79R,0.9032X0.8032*%
G04:AMPARAMS|DCode=80|XSize=0.8032mm|YSize=0.9032mm|CornerRadius=0mm|HoleSize=0mm|Usage=FLASHONLY|Rotation=67.500|XOffset=0mm|YOffset=0mm|HoleType=Round|Shape=Rectangle|*
%AMROTATEDRECTD80*
4,1,4,0.2635,-0.5438,-0.5709,-0.1982,-0.2635,0.5438,0.5709,0.1982,0.2635,-0.5438,0.0*
%
%ADD80ROTATEDRECTD80*%

G04:AMPARAMS|DCode=81|XSize=0.8032mm|YSize=0.9032mm|CornerRadius=0mm|HoleSize=0mm|Usage=FLASHONLY|Rotation=45.000|XOffset=0mm|YOffset=0mm|HoleType=Round|Shape=Rectangle|*
%AMROTATEDRECTD81*
4,1,4,0.0354,-0.6033,-0.6033,0.0354,-0.0354,0.6033,0.6033,-0.0354,0.0354,-0.6033,0.0*
%
%ADD81ROTATEDRECTD81*%

G04:AMPARAMS|DCode=82|XSize=0.8032mm|YSize=0.9032mm|CornerRadius=0mm|HoleSize=0mm|Usage=FLASHONLY|Rotation=22.500|XOffset=0mm|YOffset=0mm|HoleType=Round|Shape=Rectangle|*
%AMROTATEDRECTD82*
4,1,4,-0.1982,-0.5709,-0.5438,0.2635,0.1982,0.5709,0.5438,-0.2635,-0.1982,-0.5709,0.0*
%
%ADD82ROTATEDRECTD82*%

G04:AMPARAMS|DCode=83|XSize=0.8032mm|YSize=0.9032mm|CornerRadius=0mm|HoleSize=0mm|Usage=FLASHONLY|Rotation=337.500|XOffset=0mm|YOffset=0mm|HoleType=Round|Shape=Rectangle|*
%AMROTATEDRECTD83*
4,1,4,-0.5438,-0.2635,-0.1982,0.5709,0.5438,0.2635,0.1982,-0.5709,-0.5438,-0.2635,0.0*
%
%ADD83ROTATEDRECTD83*%

G04:AMPARAMS|DCode=84|XSize=0.8032mm|YSize=0.9032mm|CornerRadius=0mm|HoleSize=0mm|Usage=FLASHONLY|Rotation=202.500|XOffset=0mm|YOffset=0mm|HoleType=Round|Shape=Rectangle|*
%AMROTATEDRECTD84*
4,1,4,0.1982,0.5709,0.5438,-0.2635,-0.1982,-0.5709,-0.5438,0.2635,0.1982,0.5709,0.0*
%
%ADD84ROTATEDRECTD84*%

G04:AMPARAMS|DCode=85|XSize=2.7032mm|YSize=3.0032mm|CornerRadius=0mm|HoleSize=0mm|Usage=FLASHONLY|Rotation=202.499|XOffset=0mm|YOffset=0mm|HoleType=Round|Shape=Rectangle|*
%AMROTATEDRECTD85*
4,1,4,0.6741,1.9045,1.8233,-0.8701,-0.6741,-1.9045,-1.8233,0.8701,0.6741,1.9045,0.0*
%
%ADD85ROTATEDRECTD85*%

G04:AMPARAMS|DCode=86|XSize=0.8032mm|YSize=2.4032mm|CornerRadius=0mm|HoleSize=0mm|Usage=FLASHONLY|Rotation=202.499|XOffset=0mm|YOffset=0mm|HoleType=Round|Shape=Rectangle|*
%AMROTATEDRECTD86*
4,1,4,-0.0888,1.2638,0.8308,-0.9565,0.0888,-1.2638,-0.8308,0.9565,-0.0888,1.2638,0.0*
%
%ADD86ROTATEDRECTD86*%

G04:AMPARAMS|DCode=87|XSize=2.7032mm|YSize=3.0032mm|CornerRadius=0mm|HoleSize=0mm|Usage=FLASHONLY|Rotation=157.499|XOffset=0mm|YOffset=0mm|HoleType=Round|Shape=Rectangle|*
%AMROTATEDRECTD87*
4,1,4,1.8234,0.8700,0.6740,-1.9046,-1.8234,-0.8700,-0.6740,1.9046,1.8234,0.8700,0.0*
%
%ADD87ROTATEDRECTD87*%

G04:AMPARAMS|DCode=88|XSize=0.8032mm|YSize=2.4032mm|CornerRadius=0mm|HoleSize=0mm|Usage=FLASHONLY|Rotation=157.499|XOffset=0mm|YOffset=0mm|HoleType=Round|Shape=Rectangle|*
%AMROTATEDRECTD88*
4,1,4,0.8309,0.9564,-0.0888,-1.2638,-0.8309,-0.9564,0.0888,1.2638,0.8309,0.9564,0.0*
%
%ADD88ROTATEDRECTD88*%

%ADD89R,1.4732X2.8032*%
%ADD90C,4.3032*%
%ADD91O,2.4032X1.2532*%
%ADD92O,0.8532X1.0532*%
%ADD93C,0.2032*%
G04:AMPARAMS|DCode=94|XSize=1.9032mm|YSize=2.4032mm|CornerRadius=0mm|HoleSize=0mm|Usage=FLASHONLY|Rotation=202.500|XOffset=0mm|YOffset=0mm|HoleType=Round|Shape=Rectangle|*
%AMROTATEDRECTD94*
4,1,4,0.4193,1.4743,1.3390,-0.7460,-0.4193,-1.4743,-1.3390,0.7460,0.4193,1.4743,0.0*
%
%ADD94ROTATEDRECTD94*%

G04:AMPARAMS|DCode=95|XSize=1.9032mm|YSize=2.4032mm|CornerRadius=0mm|HoleSize=0mm|Usage=FLASHONLY|Rotation=202.500|XOffset=0mm|YOffset=0mm|HoleType=Round|Shape=Round|*
%AMOVALD95*
21,1,0.5000,1.9032,0.0000,0.0000,292.5*
1,1,1.9032,-0.0957,0.2310*
1,1,1.9032,0.0957,-0.2310*
%
%ADD95OVALD95*%

%ADD96O,2.2032X2.2032*%
%ADD97O,2.4032X2.4032*%
%ADD98C,2.5032*%
%ADD99C,1.9032*%
%ADD100C,1.2032*%
%ADD101O,2.3032X1.7032*%
%ADD102C,2.3032*%
%ADD103C,1.6032*%
%ADD104C,1.8032*%
%ADD105R,1.8032X1.8032*%
G36*
X-514921Y-190173D02*
X-514436D01*
Y-190334D01*
X-514275D01*
Y-190496D01*
X-513952D01*
Y-190657D01*
X-513790D01*
Y-190819D01*
X-513629D01*
Y-190980D01*
X-513467D01*
Y-191142D01*
X-513306D01*
Y-191304D01*
X-513144D01*
Y-191465D01*
X-512982D01*
Y-191627D01*
Y-191788D01*
X-512821D01*
Y-191950D01*
Y-192111D01*
Y-192273D01*
Y-192435D01*
X-512659D01*
Y-192596D01*
Y-192758D01*
Y-192919D01*
Y-193081D01*
Y-193242D01*
Y-193404D01*
Y-193566D01*
Y-193727D01*
Y-193889D01*
Y-194050D01*
Y-194212D01*
Y-194373D01*
X-512821D01*
Y-194535D01*
X-512982D01*
Y-194697D01*
Y-194858D01*
X-513144D01*
Y-195020D01*
Y-195181D01*
X-513306D01*
Y-195343D01*
X-513467D01*
Y-195504D01*
X-513629D01*
Y-195666D01*
X-513790D01*
Y-195828D01*
X-513952D01*
Y-195989D01*
X-514275D01*
Y-196151D01*
X-514436D01*
Y-196312D01*
X-514921D01*
Y-196474D01*
X-515729D01*
Y-196636D01*
X-516052D01*
Y-196474D01*
X-516860D01*
Y-196312D01*
X-517345D01*
Y-196151D01*
X-517668D01*
Y-195989D01*
X-517830D01*
Y-195828D01*
X-517991D01*
Y-195666D01*
X-518153D01*
Y-195504D01*
X-518314D01*
Y-195343D01*
X-518476D01*
Y-195181D01*
X-518638D01*
Y-195020D01*
X-518799D01*
Y-194858D01*
Y-194697D01*
X-518961D01*
Y-194535D01*
Y-194373D01*
Y-194212D01*
X-519122D01*
Y-194050D01*
Y-193889D01*
Y-193727D01*
Y-193566D01*
Y-193404D01*
Y-193242D01*
Y-193081D01*
Y-192919D01*
Y-192758D01*
Y-192596D01*
Y-192435D01*
Y-192273D01*
X-518961D01*
Y-192111D01*
Y-191950D01*
X-518799D01*
Y-191788D01*
Y-191627D01*
X-518638D01*
Y-191465D01*
Y-191304D01*
X-518476D01*
Y-191142D01*
X-518314D01*
Y-190980D01*
X-518153D01*
Y-190819D01*
X-517991D01*
Y-190657D01*
X-517830D01*
Y-190496D01*
X-517506D01*
Y-190334D01*
X-517183D01*
Y-190173D01*
X-516699D01*
Y-190011D01*
X-514921D01*
Y-190173D01*
D02*
G37*
G36*
X-495532Y-206653D02*
X-494886D01*
Y-206815D01*
X-494724D01*
Y-206976D01*
X-494401D01*
Y-207138D01*
X-494078D01*
Y-207300D01*
X-493916D01*
Y-207461D01*
X-493755D01*
Y-207623D01*
X-493593D01*
Y-207784D01*
X-493432D01*
Y-207946D01*
X-493270D01*
Y-208107D01*
Y-208269D01*
X-493108D01*
Y-208431D01*
Y-208592D01*
X-492947D01*
Y-208754D01*
Y-208915D01*
Y-209077D01*
Y-209238D01*
Y-209400D01*
X-492785D01*
Y-209562D01*
Y-209723D01*
Y-209885D01*
Y-210046D01*
Y-210208D01*
X-492947D01*
Y-210369D01*
Y-210531D01*
Y-210693D01*
Y-210854D01*
Y-211016D01*
X-493108D01*
Y-211177D01*
Y-211339D01*
X-493270D01*
Y-211501D01*
Y-211662D01*
X-493432D01*
Y-211824D01*
X-493593D01*
Y-211985D01*
X-493755D01*
Y-212147D01*
X-493916D01*
Y-212308D01*
X-494078D01*
Y-212470D01*
X-494240D01*
Y-212632D01*
X-494401D01*
Y-212793D01*
X-494724D01*
Y-212955D01*
X-495209D01*
Y-213116D01*
X-496986D01*
Y-212955D01*
X-497471D01*
Y-212793D01*
X-497794D01*
Y-212632D01*
X-497956D01*
Y-212470D01*
X-498279D01*
Y-212308D01*
X-498441D01*
Y-212147D01*
X-498602D01*
Y-211985D01*
X-498764D01*
Y-211824D01*
Y-211662D01*
X-498925D01*
Y-211501D01*
X-499087D01*
Y-211339D01*
Y-211177D01*
Y-211016D01*
X-499248D01*
Y-210854D01*
Y-210693D01*
Y-210531D01*
X-499410D01*
Y-210369D01*
Y-210208D01*
Y-210046D01*
Y-209885D01*
Y-209723D01*
Y-209562D01*
Y-209400D01*
Y-209238D01*
Y-209077D01*
X-499248D01*
Y-208915D01*
Y-208754D01*
Y-208592D01*
X-499087D01*
Y-208431D01*
Y-208269D01*
X-498925D01*
Y-208107D01*
X-498764D01*
Y-207946D01*
Y-207784D01*
X-498602D01*
Y-207623D01*
X-498441D01*
Y-207461D01*
X-498279D01*
Y-207300D01*
X-498117D01*
Y-207138D01*
X-497794D01*
Y-206976D01*
X-497633D01*
Y-206815D01*
X-497148D01*
Y-206653D01*
X-496178D01*
Y-206492D01*
X-495532D01*
Y-206653D01*
D02*
G37*
G36*
X-469518Y-207138D02*
X-469034D01*
Y-207300D01*
X-468711D01*
Y-207461D01*
X-468549D01*
Y-207623D01*
X-468387D01*
Y-207784D01*
X-468226D01*
Y-207946D01*
X-468064D01*
Y-208107D01*
X-467903D01*
Y-208269D01*
Y-208431D01*
X-467741D01*
Y-208592D01*
Y-208754D01*
X-467579D01*
Y-208915D01*
X-467418D01*
Y-209077D01*
Y-209238D01*
Y-209400D01*
Y-209562D01*
Y-209723D01*
Y-209885D01*
Y-210046D01*
Y-210208D01*
Y-210369D01*
Y-210531D01*
Y-210693D01*
X-467579D01*
Y-210854D01*
Y-211016D01*
Y-211177D01*
X-467741D01*
Y-211339D01*
X-467903D01*
Y-211501D01*
Y-211662D01*
X-468064D01*
Y-211824D01*
X-468226D01*
Y-211985D01*
X-468387D01*
Y-212147D01*
X-468549D01*
Y-212308D01*
X-468872D01*
Y-212470D01*
X-469195D01*
Y-212632D01*
X-469680D01*
Y-212793D01*
X-470811D01*
Y-212632D01*
X-471457D01*
Y-212470D01*
X-471780D01*
Y-212308D01*
X-471942D01*
Y-212147D01*
X-472265D01*
Y-211985D01*
X-472427D01*
Y-211824D01*
X-472588D01*
Y-211662D01*
Y-211501D01*
X-472750D01*
Y-211339D01*
X-472911D01*
Y-211177D01*
Y-211016D01*
X-473073D01*
Y-210854D01*
Y-210693D01*
Y-210531D01*
Y-210369D01*
Y-210208D01*
X-473235D01*
Y-210046D01*
Y-209885D01*
Y-209723D01*
Y-209562D01*
Y-209400D01*
X-473073D01*
Y-209238D01*
Y-209077D01*
Y-208915D01*
Y-208754D01*
X-472911D01*
Y-208592D01*
Y-208431D01*
X-472750D01*
Y-208269D01*
Y-208107D01*
X-472588D01*
Y-207946D01*
X-472427D01*
Y-207784D01*
X-472265D01*
Y-207623D01*
X-472104D01*
Y-207461D01*
X-471780D01*
Y-207300D01*
X-471457D01*
Y-207138D01*
X-471134D01*
Y-206976D01*
X-469518D01*
Y-207138D01*
D02*
G37*
G36*
X-478405Y-184679D02*
X-477920D01*
Y-184841D01*
X-477597D01*
Y-185002D01*
X-477274D01*
Y-185164D01*
X-477112D01*
Y-185325D01*
X-476951D01*
Y-185487D01*
X-476789D01*
Y-185648D01*
X-476628D01*
Y-185810D01*
Y-185972D01*
X-476466D01*
Y-186133D01*
X-476305D01*
Y-186295D01*
Y-186456D01*
Y-186618D01*
X-476143D01*
Y-186779D01*
Y-186941D01*
Y-187103D01*
Y-187264D01*
Y-187426D01*
Y-187587D01*
Y-187749D01*
Y-187910D01*
Y-188072D01*
Y-188234D01*
Y-188395D01*
X-476305D01*
Y-188557D01*
Y-188718D01*
X-476466D01*
Y-188880D01*
Y-189042D01*
X-476628D01*
Y-189203D01*
X-476789D01*
Y-189365D01*
X-476951D01*
Y-189526D01*
X-477112D01*
Y-189688D01*
X-477274D01*
Y-189849D01*
X-477597D01*
Y-190011D01*
X-477920D01*
Y-190173D01*
X-478405D01*
Y-190334D01*
X-479859D01*
Y-190173D01*
X-480182D01*
Y-190011D01*
X-480505D01*
Y-189849D01*
X-480667D01*
Y-189688D01*
X-480990D01*
Y-189526D01*
X-481152D01*
Y-189365D01*
X-481313D01*
Y-189203D01*
X-481475D01*
Y-189042D01*
Y-188880D01*
X-481637D01*
Y-188718D01*
Y-188557D01*
Y-188395D01*
X-481798D01*
Y-188234D01*
Y-188072D01*
Y-187910D01*
Y-187749D01*
X-481960D01*
Y-187587D01*
Y-187426D01*
Y-187264D01*
Y-187103D01*
X-481798D01*
Y-186941D01*
Y-186779D01*
Y-186618D01*
Y-186456D01*
X-481637D01*
Y-186295D01*
Y-186133D01*
X-481475D01*
Y-185972D01*
Y-185810D01*
X-481313D01*
Y-185648D01*
Y-185487D01*
X-481152D01*
Y-185325D01*
X-480990D01*
Y-185164D01*
X-480667D01*
Y-185002D01*
X-480505D01*
Y-184841D01*
X-480182D01*
Y-184679D01*
X-479375D01*
Y-184517D01*
X-478405D01*
Y-184679D01*
D02*
G37*
G36*
X-519768Y-165451D02*
X-519284D01*
Y-165613D01*
X-518961D01*
Y-165774D01*
X-518799D01*
Y-165936D01*
X-518638D01*
Y-166098D01*
X-518476D01*
Y-166259D01*
X-518314D01*
Y-166421D01*
X-518153D01*
Y-166582D01*
X-517991D01*
Y-166744D01*
Y-166906D01*
Y-167067D01*
X-517830D01*
Y-167229D01*
Y-167390D01*
Y-167552D01*
Y-167714D01*
Y-167875D01*
Y-168037D01*
Y-168198D01*
Y-168360D01*
Y-168521D01*
X-517991D01*
Y-168683D01*
Y-168845D01*
Y-169006D01*
X-518153D01*
Y-169168D01*
Y-169329D01*
X-518314D01*
Y-169491D01*
X-518476D01*
Y-169652D01*
X-518638D01*
Y-169814D01*
X-518799D01*
Y-169975D01*
X-519122D01*
Y-170137D01*
X-519445D01*
Y-170299D01*
X-520092D01*
Y-170460D01*
X-520576D01*
Y-170299D01*
X-521384D01*
Y-170137D01*
X-521707D01*
Y-169975D01*
X-521869D01*
Y-169814D01*
X-522192D01*
Y-169652D01*
X-522354D01*
Y-169491D01*
Y-169329D01*
X-522515D01*
Y-169168D01*
X-522677D01*
Y-169006D01*
Y-168845D01*
X-522839D01*
Y-168683D01*
Y-168521D01*
Y-168360D01*
Y-168198D01*
X-523000D01*
Y-168037D01*
Y-167875D01*
Y-167714D01*
Y-167552D01*
Y-167390D01*
X-522839D01*
Y-167229D01*
Y-167067D01*
Y-166906D01*
X-522677D01*
Y-166744D01*
Y-166582D01*
X-522515D01*
Y-166421D01*
Y-166259D01*
X-522354D01*
Y-166098D01*
X-522192D01*
Y-165936D01*
X-522031D01*
Y-165774D01*
X-521869D01*
Y-165613D01*
X-521546D01*
Y-165451D01*
X-521223D01*
Y-165290D01*
X-519768D01*
Y-165451D01*
D02*
G37*
G36*
X-501672Y-175146D02*
X-501187D01*
Y-175308D01*
X-500864D01*
Y-175469D01*
X-500541D01*
Y-175631D01*
X-500379D01*
Y-175792D01*
X-500218D01*
Y-175954D01*
X-500056D01*
Y-176115D01*
X-499895D01*
Y-176277D01*
X-499733D01*
Y-176439D01*
X-499571D01*
Y-176600D01*
Y-176762D01*
X-499410D01*
Y-176923D01*
Y-177085D01*
Y-177246D01*
X-499248D01*
Y-177408D01*
Y-177570D01*
Y-177731D01*
Y-177893D01*
Y-178054D01*
Y-178216D01*
Y-178377D01*
Y-178539D01*
Y-178701D01*
Y-178862D01*
Y-179024D01*
X-499410D01*
Y-179185D01*
Y-179347D01*
Y-179508D01*
X-499571D01*
Y-179670D01*
Y-179832D01*
X-499733D01*
Y-179993D01*
Y-180155D01*
X-499895D01*
Y-180316D01*
X-500056D01*
Y-180478D01*
X-500218D01*
Y-180639D01*
X-500379D01*
Y-180801D01*
X-500541D01*
Y-180963D01*
X-500703D01*
Y-181124D01*
X-501026D01*
Y-181286D01*
X-501672D01*
Y-181447D01*
X-503449D01*
Y-181286D01*
X-503934D01*
Y-181124D01*
X-504096D01*
Y-180963D01*
X-504419D01*
Y-180801D01*
X-504580D01*
Y-180639D01*
X-504742D01*
Y-180478D01*
X-504903D01*
Y-180316D01*
X-505065D01*
Y-180155D01*
X-505227D01*
Y-179993D01*
X-505388D01*
Y-179832D01*
Y-179670D01*
X-505550D01*
Y-179508D01*
Y-179347D01*
Y-179185D01*
X-505711D01*
Y-179024D01*
Y-178862D01*
Y-178701D01*
Y-178539D01*
Y-178377D01*
X-505873D01*
Y-178216D01*
Y-178054D01*
X-505711D01*
Y-177893D01*
Y-177731D01*
Y-177570D01*
Y-177408D01*
Y-177246D01*
X-505550D01*
Y-177085D01*
Y-176923D01*
X-505388D01*
Y-176762D01*
Y-176600D01*
X-505227D01*
Y-176439D01*
Y-176277D01*
X-505065D01*
Y-176115D01*
X-504903D01*
Y-175954D01*
X-504742D01*
Y-175792D01*
X-504580D01*
Y-175631D01*
X-504419D01*
Y-175469D01*
X-504257D01*
Y-175308D01*
X-503934D01*
Y-175146D01*
X-503288D01*
Y-174984D01*
X-501672D01*
Y-175146D01*
D02*
G37*
G36*
X-480990Y-162866D02*
X-480344D01*
Y-163028D01*
X-480021D01*
Y-163189D01*
X-479859D01*
Y-163351D01*
X-479698D01*
Y-163512D01*
X-479536D01*
Y-163674D01*
X-479375D01*
Y-163836D01*
X-479213D01*
Y-163997D01*
X-479051D01*
Y-164159D01*
Y-164320D01*
X-478890D01*
Y-164482D01*
Y-164643D01*
X-478728D01*
Y-164805D01*
Y-164967D01*
Y-165128D01*
X-478567D01*
Y-165290D01*
Y-165451D01*
Y-165613D01*
Y-165774D01*
Y-165936D01*
X-478728D01*
Y-166098D01*
Y-166259D01*
Y-166421D01*
Y-166582D01*
X-478890D01*
Y-166744D01*
Y-166906D01*
Y-167067D01*
X-479051D01*
Y-167229D01*
X-479213D01*
Y-167390D01*
Y-167552D01*
X-479375D01*
Y-167714D01*
X-479536D01*
Y-167875D01*
X-479698D01*
Y-168037D01*
X-479859D01*
Y-168198D01*
X-480182D01*
Y-168360D01*
X-480829D01*
Y-168521D01*
X-482444D01*
Y-168360D01*
X-482768D01*
Y-168198D01*
X-483091D01*
Y-168037D01*
X-483414D01*
Y-167875D01*
X-483576D01*
Y-167714D01*
X-483737D01*
Y-167552D01*
X-483899D01*
Y-167390D01*
Y-167229D01*
X-484060D01*
Y-167067D01*
Y-166906D01*
X-484222D01*
Y-166744D01*
Y-166582D01*
Y-166421D01*
X-484383D01*
Y-166259D01*
Y-166098D01*
Y-165936D01*
Y-165774D01*
Y-165613D01*
Y-165451D01*
Y-165290D01*
Y-165128D01*
Y-164967D01*
Y-164805D01*
Y-164643D01*
X-484222D01*
Y-164482D01*
X-484060D01*
Y-164320D01*
Y-164159D01*
X-483899D01*
Y-163997D01*
Y-163836D01*
X-483737D01*
Y-163674D01*
X-483576D01*
Y-163512D01*
X-483414D01*
Y-163351D01*
X-483252D01*
Y-163189D01*
X-482929D01*
Y-163028D01*
X-482606D01*
Y-162866D01*
X-482121D01*
Y-162705D01*
X-480990D01*
Y-162866D01*
D02*
G37*
G36*
X-507004Y-142669D02*
X-506358D01*
Y-142831D01*
X-506035D01*
Y-142992D01*
X-505711D01*
Y-143154D01*
X-505550D01*
Y-143315D01*
X-505388D01*
Y-143477D01*
X-505227D01*
Y-143639D01*
Y-143800D01*
X-505065D01*
Y-143962D01*
X-504903D01*
Y-144123D01*
Y-144285D01*
X-504742D01*
Y-144446D01*
Y-144608D01*
Y-144770D01*
X-504580D01*
Y-144931D01*
Y-145093D01*
Y-145254D01*
Y-145416D01*
Y-145578D01*
Y-145739D01*
Y-145901D01*
Y-146062D01*
Y-146224D01*
Y-146385D01*
X-504742D01*
Y-146547D01*
Y-146709D01*
X-504903D01*
Y-146870D01*
Y-147032D01*
X-505065D01*
Y-147193D01*
X-505227D01*
Y-147355D01*
X-505388D01*
Y-147516D01*
X-505550D01*
Y-147678D01*
X-505711D01*
Y-147840D01*
X-505873D01*
Y-148001D01*
X-506035D01*
Y-148163D01*
X-506681D01*
Y-148324D01*
X-508297D01*
Y-148163D01*
X-508781D01*
Y-148001D01*
X-508943D01*
Y-147840D01*
X-509266D01*
Y-147678D01*
X-509428D01*
Y-147516D01*
X-509589D01*
Y-147355D01*
X-509751D01*
Y-147193D01*
X-509912D01*
Y-147032D01*
Y-146870D01*
X-510074D01*
Y-146709D01*
Y-146547D01*
X-510235D01*
Y-146385D01*
Y-146224D01*
Y-146062D01*
X-510397D01*
Y-145901D01*
Y-145739D01*
Y-145578D01*
Y-145416D01*
Y-145254D01*
Y-145093D01*
Y-144931D01*
X-510235D01*
Y-144770D01*
Y-144608D01*
Y-144446D01*
Y-144285D01*
X-510074D01*
Y-144123D01*
Y-143962D01*
X-509912D01*
Y-143800D01*
X-509751D01*
Y-143639D01*
X-509589D01*
Y-143477D01*
X-509428D01*
Y-143315D01*
X-509266D01*
Y-143154D01*
X-509104D01*
Y-142992D01*
X-508781D01*
Y-142831D01*
X-508458D01*
Y-142669D01*
X-507812D01*
Y-142508D01*
X-507004D01*
Y-142669D01*
D02*
G37*
G36*
X-482768Y-133459D02*
X-482121D01*
Y-133621D01*
X-481798D01*
Y-133783D01*
X-481475D01*
Y-133944D01*
X-481152D01*
Y-134106D01*
X-480990D01*
Y-134267D01*
X-480829D01*
Y-134429D01*
X-480667D01*
Y-134590D01*
X-480505D01*
Y-134752D01*
Y-134914D01*
X-480344D01*
Y-135075D01*
X-480182D01*
Y-135237D01*
Y-135398D01*
Y-135560D01*
X-480021D01*
Y-135721D01*
Y-135883D01*
Y-136045D01*
X-479859D01*
Y-136206D01*
Y-136368D01*
Y-136529D01*
Y-136691D01*
Y-136853D01*
X-480021D01*
Y-137014D01*
Y-137176D01*
Y-137337D01*
Y-137499D01*
Y-137660D01*
X-480182D01*
Y-137822D01*
Y-137984D01*
Y-138145D01*
X-480344D01*
Y-138307D01*
X-480505D01*
Y-138468D01*
Y-138630D01*
X-480667D01*
Y-138791D01*
X-480829D01*
Y-138953D01*
X-480990D01*
Y-139115D01*
X-481152D01*
Y-139276D01*
X-481313D01*
Y-139438D01*
X-481637D01*
Y-139599D01*
X-481960D01*
Y-139761D01*
X-482283D01*
Y-139922D01*
X-483899D01*
Y-139761D01*
X-484383D01*
Y-139599D01*
X-484868D01*
Y-139438D01*
X-485030D01*
Y-139276D01*
X-485353D01*
Y-139115D01*
X-485514D01*
Y-138953D01*
X-485676D01*
Y-138791D01*
X-485838D01*
Y-138630D01*
Y-138468D01*
X-485999D01*
Y-138307D01*
Y-138145D01*
X-486161D01*
Y-137984D01*
Y-137822D01*
X-486322D01*
Y-137660D01*
Y-137499D01*
Y-137337D01*
X-486484D01*
Y-137176D01*
Y-137014D01*
Y-136853D01*
Y-136691D01*
Y-136529D01*
Y-136368D01*
Y-136206D01*
Y-136045D01*
Y-135883D01*
X-486322D01*
Y-135721D01*
Y-135560D01*
Y-135398D01*
X-486161D01*
Y-135237D01*
Y-135075D01*
X-485999D01*
Y-134914D01*
Y-134752D01*
X-485838D01*
Y-134590D01*
X-485676D01*
Y-134429D01*
X-485514D01*
Y-134267D01*
X-485353D01*
Y-134106D01*
X-485191D01*
Y-133944D01*
X-485030D01*
Y-133783D01*
X-484706D01*
Y-133621D01*
X-484222D01*
Y-133459D01*
X-483576D01*
Y-133298D01*
X-482768D01*
Y-133459D01*
D02*
G37*
G36*
X-458531Y-142669D02*
X-457885D01*
Y-142831D01*
X-457562D01*
Y-142992D01*
X-457239D01*
Y-143154D01*
X-457077D01*
Y-143315D01*
X-456915D01*
Y-143477D01*
X-456754D01*
Y-143639D01*
X-456592D01*
Y-143800D01*
X-456431D01*
Y-143962D01*
Y-144123D01*
X-456269D01*
Y-144285D01*
Y-144446D01*
X-456107D01*
Y-144608D01*
Y-144770D01*
Y-144931D01*
Y-145093D01*
Y-145254D01*
Y-145416D01*
X-455946D01*
Y-145578D01*
X-456107D01*
Y-145739D01*
Y-145901D01*
Y-146062D01*
Y-146224D01*
Y-146385D01*
X-456269D01*
Y-146547D01*
Y-146709D01*
Y-146870D01*
X-456431D01*
Y-147032D01*
Y-147193D01*
X-456592D01*
Y-147355D01*
X-456754D01*
Y-147516D01*
X-456915D01*
Y-147678D01*
X-457239D01*
Y-147840D01*
X-457400D01*
Y-148001D01*
X-457723D01*
Y-148163D01*
X-458046D01*
Y-148324D01*
X-458693D01*
Y-148486D01*
X-459178D01*
Y-148324D01*
X-459985D01*
Y-148163D01*
X-460308D01*
Y-148001D01*
X-460470D01*
Y-147840D01*
X-460793D01*
Y-147678D01*
X-460955D01*
Y-147516D01*
X-461116D01*
Y-147355D01*
X-461278D01*
Y-147193D01*
Y-147032D01*
X-461440D01*
Y-146870D01*
X-461601D01*
Y-146709D01*
Y-146547D01*
X-461763D01*
Y-146385D01*
Y-146224D01*
Y-146062D01*
X-461924D01*
Y-145901D01*
Y-145739D01*
Y-145578D01*
Y-145416D01*
X-461763D01*
Y-145254D01*
Y-145093D01*
Y-144931D01*
Y-144770D01*
Y-144608D01*
X-461601D01*
Y-144446D01*
Y-144285D01*
Y-144123D01*
X-461440D01*
Y-143962D01*
X-461278D01*
Y-143800D01*
Y-143639D01*
X-461116D01*
Y-143477D01*
X-460955D01*
Y-143315D01*
X-460793D01*
Y-143154D01*
X-460632D01*
Y-142992D01*
X-460308D01*
Y-142831D01*
X-459985D01*
Y-142669D01*
X-459339D01*
Y-142508D01*
X-458531D01*
Y-142669D01*
D02*
G37*
G36*
X-378066Y-153656D02*
X-376451D01*
Y-153818D01*
X-375320D01*
Y-153980D01*
X-374512D01*
Y-154141D01*
X-373865D01*
Y-154303D01*
X-373219D01*
Y-154464D01*
X-372734D01*
Y-154626D01*
X-372250D01*
Y-154787D01*
X-371765D01*
Y-154949D01*
X-371280D01*
Y-155111D01*
X-370957D01*
Y-155272D01*
X-370795D01*
Y-155434D01*
X-370957D01*
Y-155595D01*
Y-155757D01*
Y-155918D01*
Y-156080D01*
X-371119D01*
Y-156242D01*
Y-156403D01*
Y-156565D01*
X-371280D01*
Y-156726D01*
Y-156888D01*
Y-157049D01*
Y-157211D01*
X-371442D01*
Y-157373D01*
Y-157534D01*
Y-157696D01*
X-371603D01*
Y-157857D01*
Y-158019D01*
Y-158181D01*
X-371765D01*
Y-158342D01*
Y-158504D01*
Y-158665D01*
Y-158827D01*
X-371926D01*
Y-158988D01*
Y-159150D01*
Y-159312D01*
X-372088D01*
Y-159473D01*
X-372411D01*
Y-159312D01*
X-372734D01*
Y-159150D01*
X-373219D01*
Y-158988D01*
X-373542D01*
Y-158827D01*
X-374027D01*
Y-158665D01*
X-374673D01*
Y-158504D01*
X-375320D01*
Y-158342D01*
X-375966D01*
Y-158181D01*
X-376935D01*
Y-158019D01*
X-378551D01*
Y-157857D01*
X-381621D01*
Y-158019D01*
X-383075D01*
Y-158181D01*
X-384045D01*
Y-158342D01*
X-384691D01*
Y-158504D01*
X-385337D01*
Y-158665D01*
X-385822D01*
Y-158827D01*
X-386307D01*
Y-158988D01*
X-386630D01*
Y-159150D01*
X-387115D01*
Y-159312D01*
X-387438D01*
Y-159473D01*
X-387761D01*
Y-159635D01*
X-388084D01*
Y-159796D01*
X-388407D01*
Y-159958D01*
X-388730D01*
Y-160119D01*
X-388892D01*
Y-160281D01*
X-389215D01*
Y-160443D01*
X-389377D01*
Y-160604D01*
X-389700D01*
Y-160766D01*
X-389861D01*
Y-160927D01*
X-390023D01*
Y-161089D01*
X-390185D01*
Y-161250D01*
X-390508D01*
Y-161412D01*
X-390669D01*
Y-161574D01*
X-390831D01*
Y-161735D01*
X-390992D01*
Y-161897D01*
X-391154D01*
Y-162058D01*
X-391316D01*
Y-162220D01*
X-391477D01*
Y-162381D01*
X-391639D01*
Y-162543D01*
X-391800D01*
Y-162705D01*
X-391962D01*
Y-162866D01*
Y-163028D01*
X-392123D01*
Y-163189D01*
X-392285D01*
Y-163351D01*
X-392447D01*
Y-163512D01*
X-392608D01*
Y-163674D01*
Y-163836D01*
X-392770D01*
Y-163997D01*
X-392931D01*
Y-164159D01*
Y-164320D01*
X-393093D01*
Y-164482D01*
Y-164643D01*
X-393255D01*
Y-164805D01*
X-393416D01*
Y-164967D01*
Y-165128D01*
X-393578D01*
Y-165290D01*
Y-165451D01*
X-393739D01*
Y-165613D01*
Y-165774D01*
X-393901D01*
Y-165936D01*
Y-166098D01*
X-394062D01*
Y-166259D01*
Y-166421D01*
X-394224D01*
Y-166582D01*
Y-166744D01*
Y-166906D01*
X-394385D01*
Y-167067D01*
Y-167229D01*
X-394547D01*
Y-167390D01*
Y-167552D01*
Y-167714D01*
X-394709D01*
Y-167875D01*
Y-168037D01*
Y-168198D01*
Y-168360D01*
X-394870D01*
Y-168521D01*
Y-168683D01*
Y-168845D01*
X-395032D01*
Y-169006D01*
Y-169168D01*
Y-169329D01*
Y-169491D01*
Y-169652D01*
X-395193D01*
Y-169814D01*
Y-169975D01*
Y-170137D01*
Y-170299D01*
Y-170460D01*
X-395355D01*
Y-170622D01*
Y-170783D01*
Y-170945D01*
Y-171107D01*
Y-171268D01*
Y-171430D01*
Y-171591D01*
Y-171753D01*
X-395517D01*
Y-171914D01*
Y-172076D01*
Y-172238D01*
Y-172399D01*
Y-172561D01*
Y-172722D01*
Y-172884D01*
Y-173046D01*
Y-173207D01*
Y-173369D01*
Y-173530D01*
Y-173692D01*
Y-173853D01*
Y-174015D01*
Y-174177D01*
Y-174338D01*
Y-174500D01*
Y-174661D01*
Y-174823D01*
Y-174984D01*
Y-175146D01*
Y-175308D01*
Y-175469D01*
Y-175631D01*
Y-175792D01*
Y-175954D01*
Y-176115D01*
Y-176277D01*
Y-176439D01*
Y-176600D01*
Y-176762D01*
X-395355D01*
Y-176923D01*
Y-177085D01*
Y-177246D01*
Y-177408D01*
Y-177570D01*
Y-177731D01*
Y-177893D01*
X-395193D01*
Y-178054D01*
Y-178216D01*
Y-178377D01*
Y-178539D01*
Y-178701D01*
X-395032D01*
Y-178862D01*
Y-179024D01*
Y-179185D01*
Y-179347D01*
Y-179508D01*
X-394870D01*
Y-179670D01*
Y-179832D01*
Y-179993D01*
X-394709D01*
Y-180155D01*
Y-180316D01*
Y-180478D01*
Y-180639D01*
X-394547D01*
Y-180801D01*
Y-180963D01*
X-394385D01*
Y-181124D01*
Y-181286D01*
Y-181447D01*
X-394224D01*
Y-181609D01*
Y-181771D01*
X-394062D01*
Y-181932D01*
Y-182094D01*
Y-182255D01*
X-393901D01*
Y-182417D01*
Y-182579D01*
X-393739D01*
Y-182740D01*
Y-182902D01*
X-393578D01*
Y-183063D01*
Y-183225D01*
X-393416D01*
Y-183386D01*
X-393255D01*
Y-183548D01*
Y-183710D01*
X-393093D01*
Y-183871D01*
Y-184033D01*
X-392931D01*
Y-184194D01*
X-392770D01*
Y-184356D01*
Y-184517D01*
X-392608D01*
Y-184679D01*
X-392447D01*
Y-184841D01*
X-392285D01*
Y-185002D01*
Y-185164D01*
X-392123D01*
Y-185325D01*
X-391962D01*
Y-185487D01*
X-391800D01*
Y-185648D01*
X-391639D01*
Y-185810D01*
X-391477D01*
Y-185972D01*
X-391316D01*
Y-186133D01*
X-391154D01*
Y-186295D01*
X-390992D01*
Y-186456D01*
X-390831D01*
Y-186618D01*
X-390669D01*
Y-186779D01*
X-390508D01*
Y-186941D01*
X-390346D01*
Y-187103D01*
X-390023D01*
Y-187264D01*
X-389861D01*
Y-187426D01*
X-389700D01*
Y-187587D01*
X-389377D01*
Y-187749D01*
X-389215D01*
Y-187910D01*
X-388892D01*
Y-188072D01*
X-388569D01*
Y-188234D01*
X-388407D01*
Y-188395D01*
X-388084D01*
Y-188557D01*
X-387761D01*
Y-188718D01*
X-387276D01*
Y-188880D01*
X-386953D01*
Y-189042D01*
X-386630D01*
Y-189203D01*
X-386145D01*
Y-189365D01*
X-385660D01*
Y-189526D01*
X-385014D01*
Y-189688D01*
X-384368D01*
Y-189849D01*
X-383398D01*
Y-190011D01*
X-381944D01*
Y-190173D01*
X-378713D01*
Y-190011D01*
X-377097D01*
Y-189849D01*
X-376127D01*
Y-189688D01*
X-375320D01*
Y-189526D01*
X-374512D01*
Y-189365D01*
X-374027D01*
Y-189203D01*
X-373542D01*
Y-189042D01*
X-373058D01*
Y-188880D01*
X-372573D01*
Y-188718D01*
X-372250D01*
Y-188557D01*
X-371926D01*
Y-188718D01*
Y-188880D01*
X-371765D01*
Y-189042D01*
Y-189203D01*
Y-189365D01*
Y-189526D01*
X-371603D01*
Y-189688D01*
Y-189849D01*
Y-190011D01*
Y-190173D01*
X-371442D01*
Y-190334D01*
Y-190496D01*
Y-190657D01*
Y-190819D01*
X-371280D01*
Y-190980D01*
Y-191142D01*
Y-191304D01*
X-371119D01*
Y-191465D01*
Y-191627D01*
Y-191788D01*
Y-191950D01*
X-370957D01*
Y-192111D01*
Y-192273D01*
Y-192435D01*
Y-192596D01*
Y-192758D01*
X-371280D01*
Y-192919D01*
X-371765D01*
Y-193081D01*
X-372088D01*
Y-193242D01*
X-372573D01*
Y-193404D01*
X-373219D01*
Y-193566D01*
X-373704D01*
Y-193727D01*
X-374512D01*
Y-193889D01*
X-375158D01*
Y-194050D01*
X-376127D01*
Y-194212D01*
X-377258D01*
Y-194373D01*
X-379036D01*
Y-194535D01*
X-383398D01*
Y-194373D01*
X-384852D01*
Y-194212D01*
X-385822D01*
Y-194050D01*
X-386630D01*
Y-193889D01*
X-387276D01*
Y-193727D01*
X-387923D01*
Y-193566D01*
X-388407D01*
Y-193404D01*
X-388892D01*
Y-193242D01*
X-389377D01*
Y-193081D01*
X-389700D01*
Y-192919D01*
X-390185D01*
Y-192758D01*
X-390508D01*
Y-192596D01*
X-390831D01*
Y-192435D01*
X-391154D01*
Y-192273D01*
X-391477D01*
Y-192111D01*
X-391800D01*
Y-191950D01*
X-392123D01*
Y-191788D01*
X-392285D01*
Y-191627D01*
X-392608D01*
Y-191465D01*
X-392931D01*
Y-191304D01*
X-393093D01*
Y-191142D01*
X-393416D01*
Y-190980D01*
X-393578D01*
Y-190819D01*
X-393739D01*
Y-190657D01*
X-394062D01*
Y-190496D01*
X-394224D01*
Y-190334D01*
X-394385D01*
Y-190173D01*
X-394547D01*
Y-190011D01*
X-394870D01*
Y-189849D01*
X-395032D01*
Y-189688D01*
X-395193D01*
Y-189526D01*
X-395355D01*
Y-189365D01*
X-395517D01*
Y-189203D01*
X-395678D01*
Y-189042D01*
X-395840D01*
Y-188880D01*
X-396001D01*
Y-188718D01*
X-396163D01*
Y-188557D01*
X-396324D01*
Y-188395D01*
X-396486D01*
Y-188234D01*
Y-188072D01*
X-396648D01*
Y-187910D01*
X-396809D01*
Y-187749D01*
X-396971D01*
Y-187587D01*
X-397132D01*
Y-187426D01*
Y-187264D01*
X-397294D01*
Y-187103D01*
X-397455D01*
Y-186941D01*
X-397617D01*
Y-186779D01*
Y-186618D01*
X-397779D01*
Y-186456D01*
X-397940D01*
Y-186295D01*
Y-186133D01*
X-398102D01*
Y-185972D01*
Y-185810D01*
X-398263D01*
Y-185648D01*
X-398425D01*
Y-185487D01*
Y-185325D01*
X-398587D01*
Y-185164D01*
Y-185002D01*
X-398748D01*
Y-184841D01*
Y-184679D01*
X-398910D01*
Y-184517D01*
Y-184356D01*
X-399071D01*
Y-184194D01*
Y-184033D01*
X-399233D01*
Y-183871D01*
Y-183710D01*
X-399394D01*
Y-183548D01*
Y-183386D01*
Y-183225D01*
X-399556D01*
Y-183063D01*
Y-182902D01*
X-399717D01*
Y-182740D01*
Y-182579D01*
Y-182417D01*
X-399879D01*
Y-182255D01*
Y-182094D01*
Y-181932D01*
X-400041D01*
Y-181771D01*
Y-181609D01*
Y-181447D01*
Y-181286D01*
X-400202D01*
Y-181124D01*
Y-180963D01*
Y-180801D01*
X-400364D01*
Y-180639D01*
Y-180478D01*
Y-180316D01*
Y-180155D01*
X-400525D01*
Y-179993D01*
Y-179832D01*
Y-179670D01*
Y-179508D01*
Y-179347D01*
X-400687D01*
Y-179185D01*
Y-179024D01*
Y-178862D01*
Y-178701D01*
Y-178539D01*
Y-178377D01*
X-400849D01*
Y-178216D01*
Y-178054D01*
Y-177893D01*
Y-177731D01*
Y-177570D01*
Y-177408D01*
Y-177246D01*
Y-177085D01*
X-401010D01*
Y-176923D01*
Y-176762D01*
Y-176600D01*
Y-176439D01*
Y-176277D01*
Y-176115D01*
Y-175954D01*
Y-175792D01*
Y-175631D01*
Y-175469D01*
Y-175308D01*
Y-175146D01*
Y-174984D01*
Y-174823D01*
Y-174661D01*
Y-174500D01*
Y-174338D01*
Y-174177D01*
Y-174015D01*
Y-173853D01*
Y-173692D01*
Y-173530D01*
Y-173369D01*
Y-173207D01*
Y-173046D01*
Y-172884D01*
Y-172722D01*
Y-172561D01*
Y-172399D01*
Y-172238D01*
Y-172076D01*
Y-171914D01*
Y-171753D01*
X-400849D01*
Y-171591D01*
Y-171430D01*
Y-171268D01*
Y-171107D01*
Y-170945D01*
Y-170783D01*
Y-170622D01*
X-400687D01*
Y-170460D01*
Y-170299D01*
Y-170137D01*
Y-169975D01*
Y-169814D01*
Y-169652D01*
X-400525D01*
Y-169491D01*
Y-169329D01*
Y-169168D01*
Y-169006D01*
Y-168845D01*
X-400364D01*
Y-168683D01*
Y-168521D01*
Y-168360D01*
Y-168198D01*
X-400202D01*
Y-168037D01*
Y-167875D01*
Y-167714D01*
Y-167552D01*
X-400041D01*
Y-167390D01*
Y-167229D01*
Y-167067D01*
X-399879D01*
Y-166906D01*
Y-166744D01*
Y-166582D01*
X-399717D01*
Y-166421D01*
Y-166259D01*
Y-166098D01*
X-399556D01*
Y-165936D01*
Y-165774D01*
X-399394D01*
Y-165613D01*
Y-165451D01*
Y-165290D01*
X-399233D01*
Y-165128D01*
Y-164967D01*
X-399071D01*
Y-164805D01*
Y-164643D01*
X-398910D01*
Y-164482D01*
Y-164320D01*
X-398748D01*
Y-164159D01*
Y-163997D01*
X-398587D01*
Y-163836D01*
Y-163674D01*
X-398425D01*
Y-163512D01*
Y-163351D01*
X-398263D01*
Y-163189D01*
Y-163028D01*
X-398102D01*
Y-162866D01*
Y-162705D01*
X-397940D01*
Y-162543D01*
X-397779D01*
Y-162381D01*
Y-162220D01*
X-397617D01*
Y-162058D01*
X-397455D01*
Y-161897D01*
Y-161735D01*
X-397294D01*
Y-161574D01*
X-397132D01*
Y-161412D01*
X-396971D01*
Y-161250D01*
Y-161089D01*
X-396809D01*
Y-160927D01*
X-396648D01*
Y-160766D01*
X-396486D01*
Y-160604D01*
Y-160443D01*
X-396324D01*
Y-160281D01*
X-396163D01*
Y-160119D01*
X-396001D01*
Y-159958D01*
X-395840D01*
Y-159796D01*
X-395678D01*
Y-159635D01*
X-395517D01*
Y-159473D01*
X-395355D01*
Y-159312D01*
X-395193D01*
Y-159150D01*
X-395032D01*
Y-158988D01*
X-394870D01*
Y-158827D01*
X-394709D01*
Y-158665D01*
X-394547D01*
Y-158504D01*
X-394385D01*
Y-158342D01*
X-394224D01*
Y-158181D01*
X-394062D01*
Y-158019D01*
X-393739D01*
Y-157857D01*
X-393578D01*
Y-157696D01*
X-393416D01*
Y-157534D01*
X-393093D01*
Y-157373D01*
X-392931D01*
Y-157211D01*
X-392770D01*
Y-157049D01*
X-392447D01*
Y-156888D01*
X-392285D01*
Y-156726D01*
X-391962D01*
Y-156565D01*
X-391639D01*
Y-156403D01*
X-391477D01*
Y-156242D01*
X-391154D01*
Y-156080D01*
X-390831D01*
Y-155918D01*
X-390508D01*
Y-155757D01*
X-390185D01*
Y-155595D01*
X-389861D01*
Y-155434D01*
X-389538D01*
Y-155272D01*
X-389215D01*
Y-155111D01*
X-388730D01*
Y-154949D01*
X-388246D01*
Y-154787D01*
X-387923D01*
Y-154626D01*
X-387276D01*
Y-154464D01*
X-386791D01*
Y-154303D01*
X-386145D01*
Y-154141D01*
X-385499D01*
Y-153980D01*
X-384691D01*
Y-153818D01*
X-383722D01*
Y-153656D01*
X-382267D01*
Y-153495D01*
X-378066D01*
Y-153656D01*
D02*
G37*
G36*
X-445282Y-165451D02*
X-444797D01*
Y-165613D01*
X-444636D01*
Y-165774D01*
X-444313D01*
Y-165936D01*
X-444151D01*
Y-166098D01*
X-443989D01*
Y-166259D01*
Y-166421D01*
X-443828D01*
Y-166582D01*
X-443666D01*
Y-166744D01*
Y-166906D01*
Y-167067D01*
X-443505D01*
Y-167229D01*
Y-167390D01*
Y-167552D01*
Y-167714D01*
Y-167875D01*
Y-168037D01*
Y-168198D01*
Y-168360D01*
Y-168521D01*
Y-168683D01*
X-443666D01*
Y-168845D01*
Y-169006D01*
X-443828D01*
Y-169168D01*
Y-169329D01*
X-443989D01*
Y-169491D01*
X-444151D01*
Y-169652D01*
X-444313D01*
Y-169814D01*
X-444474D01*
Y-169975D01*
X-444636D01*
Y-170137D01*
X-444959D01*
Y-170299D01*
X-445767D01*
Y-170460D01*
X-446251D01*
Y-170299D01*
X-446898D01*
Y-170137D01*
X-447382D01*
Y-169975D01*
X-447706D01*
Y-169814D01*
X-447867D01*
Y-169652D01*
X-448029D01*
Y-169491D01*
X-448190D01*
Y-169329D01*
Y-169168D01*
X-448352D01*
Y-169006D01*
Y-168845D01*
Y-168683D01*
X-448513D01*
Y-168521D01*
Y-168360D01*
Y-168198D01*
Y-168037D01*
X-448675D01*
Y-167875D01*
Y-167714D01*
Y-167552D01*
Y-167390D01*
Y-167229D01*
X-448513D01*
Y-167067D01*
Y-166906D01*
Y-166744D01*
X-448352D01*
Y-166582D01*
Y-166421D01*
X-448190D01*
Y-166259D01*
X-448029D01*
Y-166098D01*
X-447867D01*
Y-165936D01*
X-447706D01*
Y-165774D01*
X-447382D01*
Y-165613D01*
X-447221D01*
Y-165451D01*
X-446736D01*
Y-165290D01*
X-445282D01*
Y-165451D01*
D02*
G37*
G36*
X-461440Y-169975D02*
X-461116D01*
Y-170137D01*
X-460793D01*
Y-170299D01*
X-460632D01*
Y-170460D01*
X-460470D01*
Y-170622D01*
X-460308D01*
Y-170783D01*
X-460147D01*
Y-170945D01*
Y-171107D01*
X-459985D01*
Y-171268D01*
Y-171430D01*
X-459824D01*
Y-171591D01*
Y-171753D01*
Y-171914D01*
X-459662D01*
Y-172076D01*
Y-172238D01*
Y-172399D01*
Y-172561D01*
Y-172722D01*
Y-172884D01*
Y-173046D01*
X-459824D01*
Y-173207D01*
Y-173369D01*
Y-173530D01*
X-459985D01*
Y-173692D01*
Y-173853D01*
X-460147D01*
Y-174015D01*
X-460308D01*
Y-174177D01*
X-460470D01*
Y-174338D01*
X-460793D01*
Y-174500D01*
X-460955D01*
Y-174661D01*
X-461278D01*
Y-174823D01*
X-461763D01*
Y-174984D01*
X-462409D01*
Y-174823D01*
X-463217D01*
Y-174661D01*
X-463540D01*
Y-174500D01*
X-463702D01*
Y-174338D01*
X-464025D01*
Y-174177D01*
X-464186D01*
Y-174015D01*
Y-173853D01*
X-464348D01*
Y-173692D01*
X-464510D01*
Y-173530D01*
Y-173369D01*
X-464671D01*
Y-173207D01*
Y-173046D01*
X-464833D01*
Y-172884D01*
Y-172722D01*
Y-172561D01*
Y-172399D01*
Y-172238D01*
Y-172076D01*
Y-171914D01*
X-464671D01*
Y-171753D01*
Y-171591D01*
Y-171430D01*
X-464510D01*
Y-171268D01*
Y-171107D01*
X-464348D01*
Y-170945D01*
Y-170783D01*
X-464186D01*
Y-170622D01*
X-464025D01*
Y-170460D01*
X-463863D01*
Y-170299D01*
X-463702D01*
Y-170137D01*
X-463378D01*
Y-169975D01*
X-462894D01*
Y-169814D01*
X-461440D01*
Y-169975D01*
D02*
G37*
G36*
X-450129Y-190819D02*
X-449483D01*
Y-190980D01*
X-449160D01*
Y-191142D01*
X-448998D01*
Y-191304D01*
X-448675D01*
Y-191465D01*
X-448513D01*
Y-191627D01*
Y-191788D01*
X-448352D01*
Y-191950D01*
X-448190D01*
Y-192111D01*
Y-192273D01*
X-448029D01*
Y-192435D01*
Y-192596D01*
Y-192758D01*
Y-192919D01*
Y-193081D01*
X-447867D01*
Y-193242D01*
Y-193404D01*
X-448029D01*
Y-193566D01*
Y-193727D01*
Y-193889D01*
Y-194050D01*
Y-194212D01*
X-448190D01*
Y-194373D01*
Y-194535D01*
X-448352D01*
Y-194697D01*
X-448513D01*
Y-194858D01*
Y-195020D01*
X-448675D01*
Y-195181D01*
X-448837D01*
Y-195343D01*
X-449160D01*
Y-195504D01*
X-449483D01*
Y-195666D01*
X-449806D01*
Y-195828D01*
X-451260D01*
Y-195666D01*
X-451583D01*
Y-195504D01*
X-451907D01*
Y-195343D01*
X-452068D01*
Y-195181D01*
X-452230D01*
Y-195020D01*
X-452391D01*
Y-194858D01*
X-452553D01*
Y-194697D01*
X-452715D01*
Y-194535D01*
Y-194373D01*
X-452876D01*
Y-194212D01*
Y-194050D01*
X-453038D01*
Y-193889D01*
Y-193727D01*
Y-193566D01*
X-453199D01*
Y-193404D01*
Y-193242D01*
Y-193081D01*
X-453038D01*
Y-192919D01*
Y-192758D01*
Y-192596D01*
Y-192435D01*
Y-192273D01*
X-452876D01*
Y-192111D01*
Y-191950D01*
X-452715D01*
Y-191788D01*
X-452553D01*
Y-191627D01*
Y-191465D01*
X-452230D01*
Y-191304D01*
X-452068D01*
Y-191142D01*
X-451907D01*
Y-190980D01*
X-451583D01*
Y-190819D01*
X-450937D01*
Y-190657D01*
X-450129D01*
Y-190819D01*
D02*
G37*
G36*
X358997Y-123493D02*
X360976D01*
Y-123625D01*
X362295D01*
Y-123757D01*
X363351D01*
Y-123889D01*
X364274D01*
Y-124021D01*
X365066D01*
Y-124153D01*
X365858D01*
Y-124284D01*
X366517D01*
Y-124416D01*
X367177D01*
Y-124548D01*
X367837D01*
Y-124680D01*
X368365D01*
Y-124812D01*
X369024D01*
Y-124944D01*
X369552D01*
Y-125076D01*
X370080D01*
Y-125208D01*
X370476D01*
Y-125340D01*
X371003D01*
Y-125472D01*
X371399D01*
Y-125604D01*
X371927D01*
Y-125736D01*
X372323D01*
Y-125868D01*
X372719D01*
Y-126000D01*
X373115D01*
Y-126132D01*
X373510D01*
Y-126264D01*
X373906D01*
Y-126396D01*
X374302D01*
Y-126528D01*
X374566D01*
Y-126659D01*
X374962D01*
Y-126791D01*
X375358D01*
Y-126923D01*
X375621D01*
Y-127055D01*
X376017D01*
Y-127187D01*
X376281D01*
Y-127319D01*
X376677D01*
Y-127451D01*
X376941D01*
Y-127583D01*
X377337D01*
Y-127715D01*
X377601D01*
Y-127847D01*
X377864D01*
Y-127979D01*
X378128D01*
Y-128111D01*
X378524D01*
Y-128243D01*
X378788D01*
Y-128375D01*
X379052D01*
Y-128507D01*
X379316D01*
Y-128639D01*
X379580D01*
Y-128771D01*
X379844D01*
Y-128902D01*
X380107D01*
Y-129034D01*
X380371D01*
Y-129166D01*
X380635D01*
Y-129298D01*
X380899D01*
Y-129430D01*
X381163D01*
Y-129562D01*
X381427D01*
Y-129694D01*
X381691D01*
Y-129826D01*
X381823D01*
Y-129958D01*
X382086D01*
Y-130090D01*
X382350D01*
Y-130222D01*
X382614D01*
Y-130354D01*
X382746D01*
Y-130486D01*
X383010D01*
Y-130618D01*
X383274D01*
Y-130750D01*
X383538D01*
Y-130882D01*
X383670D01*
Y-131013D01*
X383934D01*
Y-131145D01*
X384198D01*
Y-131277D01*
X384330D01*
Y-131409D01*
X384594D01*
Y-131541D01*
X384725D01*
Y-131673D01*
X384989D01*
Y-131805D01*
X385121D01*
Y-131937D01*
X385385D01*
Y-132069D01*
X385517D01*
Y-132201D01*
X385781D01*
Y-132333D01*
X385913D01*
Y-132465D01*
X386177D01*
Y-132597D01*
X386309D01*
Y-132729D01*
X386572D01*
Y-132861D01*
X386704D01*
Y-132993D01*
X386968D01*
Y-133125D01*
X387100D01*
Y-133257D01*
X387364D01*
Y-133389D01*
X387496D01*
Y-133520D01*
X387628D01*
Y-133652D01*
X387892D01*
Y-133784D01*
X388024D01*
Y-133916D01*
X388156D01*
Y-134048D01*
X388420D01*
Y-134180D01*
X388552D01*
Y-134312D01*
X388684D01*
Y-134444D01*
X388947D01*
Y-134576D01*
X389080D01*
Y-134708D01*
X389211D01*
Y-134840D01*
X389343D01*
Y-134972D01*
X389607D01*
Y-135104D01*
X389739D01*
Y-135236D01*
X389871D01*
Y-135367D01*
X390003D01*
Y-135499D01*
X390135D01*
Y-135632D01*
X390399D01*
Y-135763D01*
X390531D01*
Y-135895D01*
X390663D01*
Y-136027D01*
X390795D01*
Y-136159D01*
X390927D01*
Y-136291D01*
X391059D01*
Y-136423D01*
X391323D01*
Y-136555D01*
X391454D01*
Y-136687D01*
X391586D01*
Y-136819D01*
X391718D01*
Y-136951D01*
X391850D01*
Y-137083D01*
X391982D01*
Y-137215D01*
X392114D01*
Y-137347D01*
X392246D01*
Y-137479D01*
X392378D01*
Y-137611D01*
X392642D01*
Y-137743D01*
X392774D01*
Y-137874D01*
X392906D01*
Y-138006D01*
X393038D01*
Y-138138D01*
X393170D01*
Y-138270D01*
X393302D01*
Y-138402D01*
X393433D01*
Y-138534D01*
X393565D01*
Y-138666D01*
X393698D01*
Y-138798D01*
X393829D01*
Y-138930D01*
X393961D01*
Y-139062D01*
X394093D01*
Y-139194D01*
X394225D01*
Y-139326D01*
X394357D01*
Y-139458D01*
X394489D01*
Y-139590D01*
X394621D01*
Y-139722D01*
X394753D01*
Y-139854D01*
X394885D01*
Y-139986D01*
X395017D01*
Y-140118D01*
X395149D01*
Y-140250D01*
X395281D01*
Y-140381D01*
X395413D01*
Y-140513D01*
X395545D01*
Y-140645D01*
X395677D01*
Y-140777D01*
X395808D01*
Y-140909D01*
X395940D01*
Y-141041D01*
X396072D01*
Y-141173D01*
X396204D01*
Y-141305D01*
X396336D01*
Y-141437D01*
X396468D01*
Y-141569D01*
X396600D01*
Y-141701D01*
X396732D01*
Y-141833D01*
X396864D01*
Y-141965D01*
X396996D01*
Y-142097D01*
X397128D01*
Y-142228D01*
X397260D01*
Y-142360D01*
X397524D01*
Y-142493D01*
X397656D01*
Y-142624D01*
X397788D01*
Y-142756D01*
X397920D01*
Y-142888D01*
X398051D01*
Y-143020D01*
X398184D01*
Y-143152D01*
X398315D01*
Y-143284D01*
X398447D01*
Y-143416D01*
X398579D01*
Y-143548D01*
X398711D01*
Y-143680D01*
X398843D01*
Y-143812D01*
X398975D01*
Y-143944D01*
X399107D01*
Y-144076D01*
X399239D01*
Y-144208D01*
X399371D01*
Y-144340D01*
X399503D01*
Y-144472D01*
X399635D01*
Y-144604D01*
X399767D01*
Y-144735D01*
X399899D01*
Y-144867D01*
X400031D01*
Y-144999D01*
X400163D01*
Y-145131D01*
X400426D01*
Y-145263D01*
X400558D01*
Y-145395D01*
X400690D01*
Y-145527D01*
X400822D01*
Y-145659D01*
X400954D01*
Y-145791D01*
X401086D01*
Y-145923D01*
X401218D01*
Y-146055D01*
X401350D01*
Y-146187D01*
X401482D01*
Y-146319D01*
X401614D01*
Y-146451D01*
X401746D01*
Y-146583D01*
X401878D01*
Y-146714D01*
X402010D01*
Y-146847D01*
X402142D01*
Y-146978D01*
X402274D01*
Y-147110D01*
X402406D01*
Y-147242D01*
X402537D01*
Y-147374D01*
X402669D01*
Y-147506D01*
X402801D01*
Y-147638D01*
X402933D01*
Y-147770D01*
X403065D01*
Y-147902D01*
X403197D01*
Y-148034D01*
X403329D01*
Y-148166D01*
X403461D01*
Y-148298D01*
X403593D01*
Y-148430D01*
X403725D01*
Y-148562D01*
X403857D01*
Y-148694D01*
X403989D01*
Y-148826D01*
X404121D01*
Y-148958D01*
X404253D01*
Y-149089D01*
X404385D01*
Y-149221D01*
X404517D01*
Y-149353D01*
X404649D01*
Y-149485D01*
X404781D01*
Y-149617D01*
X404912D01*
Y-149749D01*
X405044D01*
Y-149881D01*
X405176D01*
Y-150013D01*
X405308D01*
Y-150145D01*
X405440D01*
Y-150277D01*
X405572D01*
Y-150409D01*
X405704D01*
Y-150541D01*
X405836D01*
Y-150673D01*
X405968D01*
Y-150805D01*
X406100D01*
Y-150937D01*
X406232D01*
Y-151069D01*
X406364D01*
Y-151201D01*
X406496D01*
Y-151333D01*
X406628D01*
Y-151464D01*
X406760D01*
Y-151596D01*
X406892D01*
Y-151728D01*
X407024D01*
Y-151860D01*
X407155D01*
Y-151992D01*
X407287D01*
Y-152124D01*
X407419D01*
Y-152256D01*
X407551D01*
Y-152388D01*
X407683D01*
Y-152520D01*
Y-152652D01*
X407815D01*
Y-152784D01*
X407947D01*
Y-152916D01*
X408079D01*
Y-153048D01*
X408211D01*
Y-153180D01*
X408343D01*
Y-153312D01*
X408475D01*
Y-153443D01*
X408607D01*
Y-153575D01*
X408739D01*
Y-153707D01*
X408871D01*
Y-153840D01*
X409003D01*
Y-153971D01*
X409135D01*
Y-154103D01*
Y-154235D01*
X409267D01*
Y-154367D01*
X409398D01*
Y-154499D01*
X409530D01*
Y-154631D01*
X409662D01*
Y-154763D01*
X409794D01*
Y-154895D01*
X409926D01*
Y-155027D01*
X410058D01*
Y-155159D01*
Y-155291D01*
X410190D01*
Y-155423D01*
X410322D01*
Y-155555D01*
X410454D01*
Y-155687D01*
X410586D01*
Y-155819D01*
X410718D01*
Y-155950D01*
X410850D01*
Y-156082D01*
Y-156214D01*
X410982D01*
Y-156346D01*
X411114D01*
Y-156478D01*
X411246D01*
Y-156610D01*
X411378D01*
Y-156742D01*
X411510D01*
Y-156874D01*
Y-157006D01*
X411642D01*
Y-157138D01*
X411773D01*
Y-157270D01*
X411905D01*
Y-157402D01*
X412037D01*
Y-157534D01*
Y-157666D01*
X412169D01*
Y-157798D01*
X412301D01*
Y-157930D01*
X412433D01*
Y-158062D01*
X412565D01*
Y-158194D01*
Y-158325D01*
X412697D01*
Y-158457D01*
X412829D01*
Y-158589D01*
X412961D01*
Y-158721D01*
Y-158853D01*
X413093D01*
Y-158985D01*
X413225D01*
Y-159117D01*
X413357D01*
Y-159249D01*
Y-159381D01*
X413489D01*
Y-159513D01*
X413621D01*
Y-159645D01*
X413753D01*
Y-159777D01*
Y-159909D01*
X413885D01*
Y-160041D01*
X414016D01*
Y-160173D01*
Y-160305D01*
X414148D01*
Y-160436D01*
X414280D01*
Y-160568D01*
X414412D01*
Y-160700D01*
Y-160832D01*
X414544D01*
Y-160964D01*
X414676D01*
Y-161096D01*
Y-161228D01*
X414808D01*
Y-161360D01*
X414940D01*
Y-161492D01*
Y-161624D01*
X415072D01*
Y-161756D01*
X415204D01*
Y-161888D01*
Y-162020D01*
X415336D01*
Y-162152D01*
X415468D01*
Y-162284D01*
Y-162416D01*
X415600D01*
Y-162548D01*
Y-162680D01*
X415732D01*
Y-162811D01*
X415864D01*
Y-162943D01*
Y-163075D01*
X415995D01*
Y-163207D01*
Y-163339D01*
X416128D01*
Y-163471D01*
X416259D01*
Y-163603D01*
Y-163735D01*
X416391D01*
Y-163867D01*
Y-163999D01*
X416523D01*
Y-164131D01*
Y-164263D01*
X416655D01*
Y-164395D01*
X416787D01*
Y-164527D01*
Y-164659D01*
X416919D01*
Y-164791D01*
Y-164923D01*
X417051D01*
Y-165054D01*
Y-165186D01*
X417183D01*
Y-165318D01*
Y-165450D01*
X417315D01*
Y-165582D01*
Y-165714D01*
X417447D01*
Y-165846D01*
Y-165978D01*
X417579D01*
Y-166110D01*
Y-166242D01*
X417711D01*
Y-166374D01*
Y-166506D01*
X417843D01*
Y-166638D01*
Y-166770D01*
X417975D01*
Y-166902D01*
Y-167034D01*
X418107D01*
Y-167166D01*
Y-167297D01*
Y-167429D01*
X418239D01*
Y-167561D01*
Y-167693D01*
X418371D01*
Y-167825D01*
Y-167957D01*
Y-168089D01*
X418503D01*
Y-168221D01*
Y-168353D01*
X418634D01*
Y-168485D01*
Y-168617D01*
Y-168749D01*
X418766D01*
Y-168881D01*
Y-169013D01*
Y-169145D01*
X418898D01*
Y-169277D01*
Y-169409D01*
X419030D01*
Y-169540D01*
Y-169672D01*
Y-169804D01*
X419162D01*
Y-169936D01*
Y-170068D01*
Y-170200D01*
Y-170332D01*
X419294D01*
Y-170464D01*
Y-170596D01*
Y-170728D01*
X419426D01*
Y-170860D01*
Y-170992D01*
Y-171124D01*
Y-171256D01*
X419558D01*
Y-171388D01*
Y-171520D01*
Y-171652D01*
Y-171784D01*
X419690D01*
Y-171915D01*
Y-172047D01*
Y-172179D01*
Y-172311D01*
Y-172443D01*
X419822D01*
Y-172575D01*
Y-172707D01*
Y-172839D01*
Y-172971D01*
Y-173103D01*
X419954D01*
Y-173235D01*
Y-173367D01*
Y-173499D01*
Y-173631D01*
Y-173762D01*
Y-173895D01*
Y-174027D01*
X420086D01*
Y-174158D01*
Y-174290D01*
Y-174422D01*
Y-174554D01*
Y-174686D01*
Y-174818D01*
Y-174950D01*
Y-175082D01*
Y-175214D01*
Y-175346D01*
Y-175478D01*
Y-175610D01*
Y-175742D01*
Y-175874D01*
Y-176006D01*
Y-176138D01*
Y-176269D01*
Y-176401D01*
Y-176533D01*
Y-176665D01*
Y-176797D01*
Y-176929D01*
Y-177061D01*
Y-177193D01*
Y-177325D01*
Y-177457D01*
Y-177589D01*
Y-177721D01*
Y-177853D01*
Y-177985D01*
Y-178117D01*
Y-178249D01*
Y-178381D01*
Y-178512D01*
Y-178645D01*
Y-178776D01*
X419954D01*
Y-178908D01*
Y-179040D01*
Y-179172D01*
Y-179304D01*
Y-179436D01*
Y-179568D01*
Y-179700D01*
X419822D01*
Y-179832D01*
Y-179964D01*
Y-180096D01*
Y-180228D01*
Y-180360D01*
X419690D01*
Y-180492D01*
Y-180623D01*
Y-180756D01*
Y-180887D01*
Y-181019D01*
X419558D01*
Y-181151D01*
Y-181283D01*
Y-181415D01*
Y-181547D01*
X419426D01*
Y-181679D01*
Y-181811D01*
Y-181943D01*
Y-182075D01*
X419294D01*
Y-182207D01*
Y-182339D01*
Y-182471D01*
X419162D01*
Y-182603D01*
Y-182735D01*
Y-182866D01*
X419030D01*
Y-182999D01*
Y-183130D01*
Y-183262D01*
X418898D01*
Y-183394D01*
Y-183526D01*
Y-183658D01*
X418766D01*
Y-183790D01*
Y-183922D01*
Y-184054D01*
X418634D01*
Y-184186D01*
Y-184318D01*
Y-184450D01*
X418503D01*
Y-184582D01*
Y-184714D01*
X418371D01*
Y-184846D01*
Y-184978D01*
Y-185110D01*
X418239D01*
Y-185242D01*
Y-185373D01*
X418107D01*
Y-185505D01*
Y-185637D01*
X417975D01*
Y-185769D01*
Y-185901D01*
Y-186033D01*
X417843D01*
Y-186165D01*
Y-186297D01*
X417711D01*
Y-186429D01*
Y-186561D01*
X417579D01*
Y-186693D01*
Y-186825D01*
X417447D01*
Y-186957D01*
Y-187089D01*
X417315D01*
Y-187221D01*
Y-187353D01*
X417183D01*
Y-187484D01*
Y-187616D01*
X417051D01*
Y-187748D01*
Y-187880D01*
X416919D01*
Y-188012D01*
Y-188144D01*
X416787D01*
Y-188276D01*
X416655D01*
Y-188408D01*
Y-188540D01*
X416523D01*
Y-188672D01*
Y-188804D01*
X416391D01*
Y-188936D01*
Y-189068D01*
X416259D01*
Y-189200D01*
X416128D01*
Y-189332D01*
Y-189464D01*
X415995D01*
Y-189596D01*
Y-189728D01*
X415864D01*
Y-189860D01*
X415732D01*
Y-189991D01*
Y-190123D01*
X415600D01*
Y-190255D01*
Y-190387D01*
X415468D01*
Y-190519D01*
X415336D01*
Y-190651D01*
Y-190783D01*
X415204D01*
Y-190915D01*
X415072D01*
Y-191047D01*
Y-191179D01*
X414940D01*
Y-191311D01*
X414808D01*
Y-191443D01*
Y-191575D01*
X414676D01*
Y-191707D01*
X414544D01*
Y-191839D01*
Y-191971D01*
X414412D01*
Y-192103D01*
X414280D01*
Y-192234D01*
Y-192366D01*
X414148D01*
Y-192498D01*
X414016D01*
Y-192630D01*
X413885D01*
Y-192762D01*
Y-192894D01*
X413753D01*
Y-193026D01*
X413621D01*
Y-193158D01*
Y-193290D01*
X413489D01*
Y-193422D01*
X413357D01*
Y-193554D01*
X413225D01*
Y-193686D01*
Y-193818D01*
X413093D01*
Y-193950D01*
X412961D01*
Y-194082D01*
X412829D01*
Y-194214D01*
Y-194345D01*
X412697D01*
Y-194478D01*
X412565D01*
Y-194609D01*
X412433D01*
Y-194741D01*
X412301D01*
Y-194873D01*
Y-195005D01*
X412169D01*
Y-195137D01*
X412037D01*
Y-195269D01*
X411905D01*
Y-195401D01*
X411773D01*
Y-195533D01*
Y-195665D01*
X411642D01*
Y-195797D01*
X411510D01*
Y-195929D01*
X411378D01*
Y-196061D01*
X411246D01*
Y-196193D01*
Y-196325D01*
X411114D01*
Y-196457D01*
X410982D01*
Y-196588D01*
X410850D01*
Y-196720D01*
X410718D01*
Y-196852D01*
X410586D01*
Y-196984D01*
X410454D01*
Y-197116D01*
Y-197248D01*
X410322D01*
Y-197380D01*
X410190D01*
Y-197512D01*
X410058D01*
Y-197644D01*
X409926D01*
Y-197776D01*
X409794D01*
Y-197908D01*
X409662D01*
Y-198040D01*
Y-198172D01*
X409530D01*
Y-198304D01*
X409398D01*
Y-198436D01*
X409267D01*
Y-198568D01*
X409135D01*
Y-198700D01*
X409003D01*
Y-198832D01*
X408871D01*
Y-198964D01*
X408739D01*
Y-199095D01*
X408607D01*
Y-199227D01*
X408475D01*
Y-199359D01*
X408343D01*
Y-199491D01*
Y-199623D01*
X408211D01*
Y-199755D01*
X408079D01*
Y-199887D01*
X407947D01*
Y-200019D01*
X407815D01*
Y-200151D01*
X407683D01*
Y-200283D01*
X407551D01*
Y-200415D01*
X407419D01*
Y-200547D01*
X407287D01*
Y-200679D01*
X407155D01*
Y-200811D01*
X407024D01*
Y-200943D01*
X406892D01*
Y-201075D01*
X406760D01*
Y-201206D01*
X406628D01*
Y-201338D01*
X406496D01*
Y-201470D01*
X406364D01*
Y-201602D01*
X406232D01*
Y-201734D01*
X406100D01*
Y-201866D01*
Y-201998D01*
X405968D01*
Y-202130D01*
X405836D01*
Y-202262D01*
X405704D01*
Y-202394D01*
X405572D01*
Y-202526D01*
X405440D01*
Y-202658D01*
X405308D01*
Y-202790D01*
X405176D01*
Y-202922D01*
X405044D01*
Y-203054D01*
X404912D01*
Y-203186D01*
X404781D01*
Y-203318D01*
X404649D01*
Y-203449D01*
X404517D01*
Y-203582D01*
X404385D01*
Y-203713D01*
X404253D01*
Y-203845D01*
X404121D01*
Y-203977D01*
X403989D01*
Y-204109D01*
X403857D01*
Y-204241D01*
X403725D01*
Y-204373D01*
X403593D01*
Y-204505D01*
X403461D01*
Y-204637D01*
X403329D01*
Y-204769D01*
X403065D01*
Y-204901D01*
X402933D01*
Y-205033D01*
X402801D01*
Y-205165D01*
X402669D01*
Y-205297D01*
X402537D01*
Y-205429D01*
X402406D01*
Y-205560D01*
X402274D01*
Y-205692D01*
X402142D01*
Y-205824D01*
X402010D01*
Y-205956D01*
X401878D01*
Y-206088D01*
X401746D01*
Y-206220D01*
X401614D01*
Y-206352D01*
X401482D01*
Y-206484D01*
X401350D01*
Y-206616D01*
X401218D01*
Y-206748D01*
X401086D01*
Y-206880D01*
X400954D01*
Y-207012D01*
X400822D01*
Y-207144D01*
X400690D01*
Y-207276D01*
X400558D01*
Y-207408D01*
X400426D01*
Y-207540D01*
X400294D01*
Y-207672D01*
X400163D01*
Y-207804D01*
X400031D01*
Y-207936D01*
X399899D01*
Y-208067D01*
X399635D01*
Y-208199D01*
X399503D01*
Y-208331D01*
X399371D01*
Y-208463D01*
X399239D01*
Y-208595D01*
X399107D01*
Y-208727D01*
X398975D01*
Y-208859D01*
X398843D01*
Y-208991D01*
X398711D01*
Y-209123D01*
X398579D01*
Y-209255D01*
X398447D01*
Y-209387D01*
X398315D01*
Y-209519D01*
X398184D01*
Y-209651D01*
X398051D01*
Y-209783D01*
X397920D01*
Y-209915D01*
X397788D01*
Y-210047D01*
X397656D01*
Y-210179D01*
X397524D01*
Y-210310D01*
X397392D01*
Y-210442D01*
X397260D01*
Y-210574D01*
X396996D01*
Y-210706D01*
X396864D01*
Y-210838D01*
X396732D01*
Y-210970D01*
X396600D01*
Y-211102D01*
X396468D01*
Y-211234D01*
X396336D01*
Y-211366D01*
X396204D01*
Y-211498D01*
X396072D01*
Y-211630D01*
X395940D01*
Y-211762D01*
X395808D01*
Y-211894D01*
X395677D01*
Y-212026D01*
X395545D01*
Y-212158D01*
X395413D01*
Y-212290D01*
X395281D01*
Y-212421D01*
X395149D01*
Y-212554D01*
X395017D01*
Y-212685D01*
X394885D01*
Y-212817D01*
X394753D01*
Y-212949D01*
X394621D01*
Y-213081D01*
X394489D01*
Y-213213D01*
X394357D01*
Y-213345D01*
X394225D01*
Y-213477D01*
X394093D01*
Y-213609D01*
X393961D01*
Y-213741D01*
X393829D01*
Y-213873D01*
X393698D01*
Y-214005D01*
X393565D01*
Y-214137D01*
X393433D01*
Y-214269D01*
X393302D01*
Y-214401D01*
X393170D01*
Y-214533D01*
X393038D01*
Y-214664D01*
X392906D01*
Y-214796D01*
X392774D01*
Y-214928D01*
X392642D01*
Y-215060D01*
X392378D01*
Y-215192D01*
X392246D01*
Y-215324D01*
X392114D01*
Y-215456D01*
X391982D01*
Y-215588D01*
X391850D01*
Y-215720D01*
X391718D01*
Y-215852D01*
X391586D01*
Y-215984D01*
X391454D01*
Y-216116D01*
X391323D01*
Y-216248D01*
X391059D01*
Y-216380D01*
X390927D01*
Y-216512D01*
X390795D01*
Y-216644D01*
X390663D01*
Y-216776D01*
X390531D01*
Y-216907D01*
X390399D01*
Y-217040D01*
X390135D01*
Y-217171D01*
X390003D01*
Y-217303D01*
X389871D01*
Y-217435D01*
X389739D01*
Y-217567D01*
X389607D01*
Y-217699D01*
X389343D01*
Y-217831D01*
X389211D01*
Y-217963D01*
X389080D01*
Y-218095D01*
X388816D01*
Y-218227D01*
X388684D01*
Y-218359D01*
X388552D01*
Y-218491D01*
X388420D01*
Y-218623D01*
X388156D01*
Y-218755D01*
X388024D01*
Y-218887D01*
X387892D01*
Y-219019D01*
X387628D01*
Y-219151D01*
X387496D01*
Y-219282D01*
X387232D01*
Y-219414D01*
X387100D01*
Y-219546D01*
X386968D01*
Y-219678D01*
X386704D01*
Y-219810D01*
X386572D01*
Y-219942D01*
X386309D01*
Y-220074D01*
X386177D01*
Y-220206D01*
X385913D01*
Y-220338D01*
X385781D01*
Y-220470D01*
X385517D01*
Y-220602D01*
X385385D01*
Y-220734D01*
X385121D01*
Y-220866D01*
X384989D01*
Y-220998D01*
X384725D01*
Y-221130D01*
X384594D01*
Y-221262D01*
X384330D01*
Y-221394D01*
X384198D01*
Y-221525D01*
X383934D01*
Y-221658D01*
X383670D01*
Y-221789D01*
X383538D01*
Y-221921D01*
X383274D01*
Y-222053D01*
X383010D01*
Y-222185D01*
X382746D01*
Y-222317D01*
X382614D01*
Y-222449D01*
X382350D01*
Y-222581D01*
X382086D01*
Y-222713D01*
X381823D01*
Y-222845D01*
X381691D01*
Y-222977D01*
X381427D01*
Y-223109D01*
X381163D01*
Y-223241D01*
X380899D01*
Y-223373D01*
X380635D01*
Y-223505D01*
X380371D01*
Y-223637D01*
X380107D01*
Y-223769D01*
X379844D01*
Y-223900D01*
X379580D01*
Y-224032D01*
X379316D01*
Y-224164D01*
X379052D01*
Y-224296D01*
X378788D01*
Y-224428D01*
X378524D01*
Y-224560D01*
X378128D01*
Y-224692D01*
X377864D01*
Y-224824D01*
X377601D01*
Y-224956D01*
X377337D01*
Y-225088D01*
X376941D01*
Y-225220D01*
X376677D01*
Y-225352D01*
X376281D01*
Y-225484D01*
X376017D01*
Y-225616D01*
X375621D01*
Y-225748D01*
X375358D01*
Y-225879D01*
X374962D01*
Y-226011D01*
X374566D01*
Y-226143D01*
X374302D01*
Y-226275D01*
X373906D01*
Y-226407D01*
X373510D01*
Y-226539D01*
X373115D01*
Y-226671D01*
X372719D01*
Y-226803D01*
X372323D01*
Y-226935D01*
X371927D01*
Y-227067D01*
X371399D01*
Y-227199D01*
X371003D01*
Y-227331D01*
X370476D01*
Y-227463D01*
X370080D01*
Y-227595D01*
X369552D01*
Y-227727D01*
X369024D01*
Y-227859D01*
X368365D01*
Y-227991D01*
X367837D01*
Y-228123D01*
X367177D01*
Y-228255D01*
X366517D01*
Y-228386D01*
X365858D01*
Y-228518D01*
X365066D01*
Y-228650D01*
X364274D01*
Y-228782D01*
X363351D01*
Y-228914D01*
X362295D01*
Y-229046D01*
X360976D01*
Y-229178D01*
X358997D01*
Y-229310D01*
X353587D01*
Y-229178D01*
X351608D01*
Y-229046D01*
X350289D01*
Y-228914D01*
X349233D01*
Y-228782D01*
X348310D01*
Y-228650D01*
X347518D01*
Y-228518D01*
X346726D01*
Y-228386D01*
X346067D01*
Y-228255D01*
X345407D01*
Y-228123D01*
X344747D01*
Y-227991D01*
X344219D01*
Y-227859D01*
X343560D01*
Y-227727D01*
X343032D01*
Y-227595D01*
X342636D01*
Y-227463D01*
X342108D01*
Y-227331D01*
X341581D01*
Y-227199D01*
X341185D01*
Y-227067D01*
X340789D01*
Y-226935D01*
X340261D01*
Y-226803D01*
X339865D01*
Y-226671D01*
X339469D01*
Y-226539D01*
X339074D01*
Y-226407D01*
X338678D01*
Y-226275D01*
X338282D01*
Y-226143D01*
X338018D01*
Y-226011D01*
X337622D01*
Y-225879D01*
X337226D01*
Y-225748D01*
X336963D01*
Y-225616D01*
X336567D01*
Y-225484D01*
X336303D01*
Y-225352D01*
X335907D01*
Y-225220D01*
X335643D01*
Y-225088D01*
X335379D01*
Y-224956D01*
X334983D01*
Y-224824D01*
X334720D01*
Y-224692D01*
X334456D01*
Y-224560D01*
X334192D01*
Y-224428D01*
X333796D01*
Y-224296D01*
X333532D01*
Y-224164D01*
X333268D01*
Y-224032D01*
X333004D01*
Y-223900D01*
X332740D01*
Y-223769D01*
X332477D01*
Y-223637D01*
X332213D01*
Y-223505D01*
X331949D01*
Y-223373D01*
X331685D01*
Y-223241D01*
X331421D01*
Y-223109D01*
X331157D01*
Y-222977D01*
X331025D01*
Y-222845D01*
X330761D01*
Y-222713D01*
X330497D01*
Y-222581D01*
X330233D01*
Y-222449D01*
X329970D01*
Y-222317D01*
X329838D01*
Y-222185D01*
X329574D01*
Y-222053D01*
X329310D01*
Y-221921D01*
X329046D01*
Y-221789D01*
X328914D01*
Y-221658D01*
X328650D01*
Y-221525D01*
X328518D01*
Y-221394D01*
X328254D01*
Y-221262D01*
X327990D01*
Y-221130D01*
X327859D01*
Y-220998D01*
X327595D01*
Y-220866D01*
X327463D01*
Y-220734D01*
X327199D01*
Y-220602D01*
X327067D01*
Y-220470D01*
X326803D01*
Y-220338D01*
X326671D01*
Y-220206D01*
X326407D01*
Y-220074D01*
X326275D01*
Y-219942D01*
X326011D01*
Y-219810D01*
X325880D01*
Y-219678D01*
X325616D01*
Y-219546D01*
X325484D01*
Y-219414D01*
X325352D01*
Y-219282D01*
X325088D01*
Y-219151D01*
X324956D01*
Y-219019D01*
X324692D01*
Y-218887D01*
X324560D01*
Y-218755D01*
X324428D01*
Y-218623D01*
X324164D01*
Y-218491D01*
X324032D01*
Y-218359D01*
X323900D01*
Y-218227D01*
X323768D01*
Y-218095D01*
X323504D01*
Y-217963D01*
X323373D01*
Y-217831D01*
X323241D01*
Y-217699D01*
X323109D01*
Y-217567D01*
X322845D01*
Y-217435D01*
X322713D01*
Y-217303D01*
X322581D01*
Y-217171D01*
X322449D01*
Y-217040D01*
X322185D01*
Y-216907D01*
X322053D01*
Y-216776D01*
X321921D01*
Y-216644D01*
X321789D01*
Y-216512D01*
X321657D01*
Y-216380D01*
X321525D01*
Y-216248D01*
X321261D01*
Y-216116D01*
X321129D01*
Y-215984D01*
X320998D01*
Y-215852D01*
X320866D01*
Y-215720D01*
X320734D01*
Y-215588D01*
X320602D01*
Y-215456D01*
X320470D01*
Y-215324D01*
X320338D01*
Y-215192D01*
X320206D01*
Y-215060D01*
X320074D01*
Y-214928D01*
X319810D01*
Y-214796D01*
X319678D01*
Y-214664D01*
X319546D01*
Y-214533D01*
X319414D01*
Y-214401D01*
X319282D01*
Y-214269D01*
X319150D01*
Y-214137D01*
X319018D01*
Y-214005D01*
X318887D01*
Y-213873D01*
X318755D01*
Y-213741D01*
X318623D01*
Y-213609D01*
X318491D01*
Y-213477D01*
X318359D01*
Y-213345D01*
X318227D01*
Y-213213D01*
X318095D01*
Y-213081D01*
X317963D01*
Y-212949D01*
X317831D01*
Y-212817D01*
X317699D01*
Y-212685D01*
Y-212554D01*
X317567D01*
Y-212421D01*
X317435D01*
Y-212290D01*
X317303D01*
Y-212158D01*
X317171D01*
Y-212026D01*
X317039D01*
Y-211894D01*
X316907D01*
Y-211762D01*
X316775D01*
Y-211630D01*
X316644D01*
Y-211498D01*
X316512D01*
Y-211366D01*
X316380D01*
Y-211234D01*
Y-211102D01*
X316248D01*
Y-210970D01*
X316116D01*
Y-210838D01*
X315984D01*
Y-210706D01*
X315852D01*
Y-210574D01*
X315720D01*
Y-210442D01*
X315588D01*
Y-210310D01*
Y-210179D01*
X315456D01*
Y-210047D01*
X315324D01*
Y-209915D01*
X315192D01*
Y-209783D01*
X315060D01*
Y-209651D01*
Y-209519D01*
X314928D01*
Y-209387D01*
X314796D01*
Y-209255D01*
X314664D01*
Y-209123D01*
X314533D01*
Y-208991D01*
Y-208859D01*
X314401D01*
Y-208727D01*
X314268D01*
Y-208595D01*
X314137D01*
Y-208463D01*
X314005D01*
Y-208331D01*
Y-208199D01*
X313873D01*
Y-208067D01*
X313741D01*
Y-207936D01*
X313609D01*
Y-207804D01*
Y-207672D01*
X313477D01*
Y-207540D01*
X313345D01*
Y-207408D01*
Y-207276D01*
X313213D01*
Y-207144D01*
X313081D01*
Y-207012D01*
X312949D01*
Y-206880D01*
Y-206748D01*
X312817D01*
Y-206616D01*
X312685D01*
Y-206484D01*
Y-206352D01*
X312553D01*
Y-206220D01*
X312421D01*
Y-206088D01*
Y-205956D01*
X312289D01*
Y-205824D01*
X312157D01*
Y-205692D01*
Y-205560D01*
X312026D01*
Y-205429D01*
X311894D01*
Y-205297D01*
Y-205165D01*
X311762D01*
Y-205033D01*
X311630D01*
Y-204901D01*
Y-204769D01*
X311498D01*
Y-204637D01*
X311366D01*
Y-204505D01*
Y-204373D01*
X311234D01*
Y-204241D01*
Y-204109D01*
X311102D01*
Y-203977D01*
X310970D01*
Y-203845D01*
Y-203713D01*
X310838D01*
Y-203582D01*
X310706D01*
Y-203449D01*
Y-203318D01*
X310574D01*
Y-203186D01*
Y-203054D01*
X310442D01*
Y-202922D01*
Y-202790D01*
X310310D01*
Y-202658D01*
X310178D01*
Y-202526D01*
Y-202394D01*
X310046D01*
Y-202262D01*
Y-202130D01*
X309914D01*
Y-201998D01*
Y-201866D01*
X309783D01*
Y-201734D01*
Y-201602D01*
X309651D01*
Y-201470D01*
X309519D01*
Y-201338D01*
Y-201206D01*
X309387D01*
Y-201075D01*
Y-200943D01*
X309255D01*
Y-200811D01*
Y-200679D01*
X309123D01*
Y-200547D01*
Y-200415D01*
X308991D01*
Y-200283D01*
Y-200151D01*
X308859D01*
Y-200019D01*
Y-199887D01*
X308727D01*
Y-199755D01*
Y-199623D01*
X308595D01*
Y-199491D01*
Y-199359D01*
X308463D01*
Y-199227D01*
Y-199095D01*
X308331D01*
Y-198964D01*
Y-198832D01*
X308199D01*
Y-198700D01*
Y-198568D01*
Y-198436D01*
X308067D01*
Y-198304D01*
Y-198172D01*
X307935D01*
Y-198040D01*
Y-197908D01*
X307803D01*
Y-197776D01*
Y-197644D01*
X307672D01*
Y-197512D01*
Y-197380D01*
Y-197248D01*
X307540D01*
Y-197116D01*
Y-196984D01*
X307408D01*
Y-196852D01*
Y-196720D01*
X307276D01*
Y-196588D01*
Y-196457D01*
Y-196325D01*
X307144D01*
Y-196193D01*
Y-196061D01*
X307012D01*
Y-195929D01*
Y-195797D01*
Y-195665D01*
X306880D01*
Y-195533D01*
Y-195401D01*
X306748D01*
Y-195269D01*
Y-195137D01*
Y-195005D01*
X306616D01*
Y-194873D01*
Y-194741D01*
Y-194609D01*
X306484D01*
Y-194478D01*
Y-194345D01*
X306352D01*
Y-194214D01*
Y-194082D01*
Y-193950D01*
X306220D01*
Y-193818D01*
Y-193686D01*
Y-193554D01*
X306088D01*
Y-193422D01*
Y-193290D01*
Y-193158D01*
X305956D01*
Y-193026D01*
Y-192894D01*
Y-192762D01*
X305824D01*
Y-192630D01*
Y-192498D01*
Y-192366D01*
X305692D01*
Y-192234D01*
Y-192103D01*
Y-191971D01*
Y-191839D01*
X305560D01*
Y-191707D01*
Y-191575D01*
Y-191443D01*
X305429D01*
Y-191311D01*
Y-191179D01*
Y-191047D01*
X305296D01*
Y-190915D01*
Y-190783D01*
Y-190651D01*
Y-190519D01*
X305165D01*
Y-190387D01*
Y-190255D01*
Y-190123D01*
Y-189991D01*
X305033D01*
Y-189860D01*
Y-189728D01*
Y-189596D01*
X304901D01*
Y-189464D01*
Y-189332D01*
Y-189200D01*
Y-189068D01*
X304769D01*
Y-188936D01*
Y-188804D01*
Y-188672D01*
Y-188540D01*
Y-188408D01*
X304637D01*
Y-188276D01*
Y-188144D01*
Y-188012D01*
Y-187880D01*
X304505D01*
Y-187748D01*
Y-187616D01*
Y-187484D01*
Y-187353D01*
Y-187221D01*
X304373D01*
Y-187089D01*
Y-186957D01*
Y-186825D01*
Y-186693D01*
Y-186561D01*
X304241D01*
Y-186429D01*
Y-186297D01*
Y-186165D01*
Y-186033D01*
Y-185901D01*
X304109D01*
Y-185769D01*
Y-185637D01*
Y-185505D01*
Y-185373D01*
Y-185242D01*
Y-185110D01*
X303977D01*
Y-184978D01*
Y-184846D01*
Y-184714D01*
Y-184582D01*
Y-184450D01*
Y-184318D01*
X303845D01*
Y-184186D01*
Y-184054D01*
Y-183922D01*
Y-183790D01*
Y-183658D01*
Y-183526D01*
Y-183394D01*
X303713D01*
Y-183262D01*
Y-183130D01*
Y-182999D01*
Y-182866D01*
Y-182735D01*
Y-182603D01*
Y-182471D01*
Y-182339D01*
X303581D01*
Y-182207D01*
Y-182075D01*
Y-181943D01*
Y-181811D01*
Y-181679D01*
Y-181547D01*
Y-181415D01*
Y-181283D01*
Y-181151D01*
Y-181019D01*
Y-180887D01*
X303449D01*
Y-180756D01*
Y-180623D01*
Y-180492D01*
Y-180360D01*
Y-180228D01*
Y-180096D01*
Y-179964D01*
Y-179832D01*
Y-179700D01*
Y-179568D01*
Y-179436D01*
Y-179304D01*
Y-179172D01*
Y-179040D01*
X303317D01*
Y-178908D01*
Y-178776D01*
Y-178645D01*
Y-178512D01*
Y-178381D01*
Y-178249D01*
Y-178117D01*
Y-177985D01*
Y-177853D01*
Y-177721D01*
Y-177589D01*
Y-177457D01*
Y-177325D01*
Y-177193D01*
Y-177061D01*
Y-176929D01*
Y-176797D01*
Y-176665D01*
Y-176533D01*
Y-176401D01*
Y-176269D01*
Y-176138D01*
Y-176006D01*
Y-175874D01*
Y-175742D01*
Y-175610D01*
Y-175478D01*
Y-175346D01*
Y-175214D01*
Y-175082D01*
Y-174950D01*
Y-174818D01*
Y-174686D01*
Y-174554D01*
Y-174422D01*
Y-174290D01*
Y-174158D01*
Y-174027D01*
Y-173895D01*
Y-173762D01*
Y-173631D01*
X303449D01*
Y-173499D01*
Y-173367D01*
Y-173235D01*
Y-173103D01*
Y-172971D01*
Y-172839D01*
Y-172707D01*
Y-172575D01*
Y-172443D01*
Y-172311D01*
Y-172179D01*
Y-172047D01*
Y-171915D01*
Y-171784D01*
X303581D01*
Y-171652D01*
Y-171520D01*
Y-171388D01*
Y-171256D01*
Y-171124D01*
Y-170992D01*
Y-170860D01*
Y-170728D01*
Y-170596D01*
Y-170464D01*
Y-170332D01*
X303713D01*
Y-170200D01*
Y-170068D01*
Y-169936D01*
Y-169804D01*
Y-169672D01*
Y-169540D01*
Y-169409D01*
Y-169277D01*
X303845D01*
Y-169145D01*
Y-169013D01*
Y-168881D01*
Y-168749D01*
Y-168617D01*
Y-168485D01*
Y-168353D01*
X303977D01*
Y-168221D01*
Y-168089D01*
Y-167957D01*
Y-167825D01*
Y-167693D01*
Y-167561D01*
X304109D01*
Y-167429D01*
Y-167297D01*
Y-167166D01*
Y-167034D01*
Y-166902D01*
Y-166770D01*
X304241D01*
Y-166638D01*
Y-166506D01*
Y-166374D01*
Y-166242D01*
Y-166110D01*
X304373D01*
Y-165978D01*
Y-165846D01*
Y-165714D01*
Y-165582D01*
Y-165450D01*
X304505D01*
Y-165318D01*
Y-165186D01*
Y-165054D01*
Y-164923D01*
Y-164791D01*
X304637D01*
Y-164659D01*
Y-164527D01*
Y-164395D01*
Y-164263D01*
X304769D01*
Y-164131D01*
Y-163999D01*
Y-163867D01*
Y-163735D01*
Y-163603D01*
X304901D01*
Y-163471D01*
Y-163339D01*
Y-163207D01*
Y-163075D01*
X305033D01*
Y-162943D01*
Y-162811D01*
Y-162680D01*
X305165D01*
Y-162548D01*
Y-162416D01*
Y-162284D01*
Y-162152D01*
X305296D01*
Y-162020D01*
Y-161888D01*
Y-161756D01*
Y-161624D01*
X305429D01*
Y-161492D01*
Y-161360D01*
Y-161228D01*
X305560D01*
Y-161096D01*
Y-160964D01*
Y-160832D01*
X305692D01*
Y-160700D01*
Y-160568D01*
Y-160436D01*
Y-160305D01*
X305824D01*
Y-160173D01*
Y-160041D01*
Y-159909D01*
X305956D01*
Y-159777D01*
Y-159645D01*
Y-159513D01*
X306088D01*
Y-159381D01*
Y-159249D01*
Y-159117D01*
X306220D01*
Y-158985D01*
Y-158853D01*
Y-158721D01*
X306352D01*
Y-158589D01*
Y-158457D01*
Y-158325D01*
X306484D01*
Y-158194D01*
Y-158062D01*
X306616D01*
Y-157930D01*
Y-157798D01*
Y-157666D01*
X306748D01*
Y-157534D01*
Y-157402D01*
Y-157270D01*
X306880D01*
Y-157138D01*
Y-157006D01*
X307012D01*
Y-156874D01*
Y-156742D01*
Y-156610D01*
X307144D01*
Y-156478D01*
Y-156346D01*
X307276D01*
Y-156214D01*
Y-156082D01*
Y-155950D01*
X307408D01*
Y-155819D01*
Y-155687D01*
X307540D01*
Y-155555D01*
Y-155423D01*
X307672D01*
Y-155291D01*
Y-155159D01*
Y-155027D01*
X307803D01*
Y-154895D01*
Y-154763D01*
X307935D01*
Y-154631D01*
Y-154499D01*
X308067D01*
Y-154367D01*
Y-154235D01*
X308199D01*
Y-154103D01*
Y-153971D01*
Y-153840D01*
X308331D01*
Y-153707D01*
Y-153575D01*
X308463D01*
Y-153443D01*
Y-153312D01*
X308595D01*
Y-153180D01*
Y-153048D01*
X308727D01*
Y-152916D01*
Y-152784D01*
X308859D01*
Y-152652D01*
Y-152520D01*
X308991D01*
Y-152388D01*
Y-152256D01*
X309123D01*
Y-152124D01*
Y-151992D01*
X309255D01*
Y-151860D01*
Y-151728D01*
X309387D01*
Y-151596D01*
Y-151464D01*
X309519D01*
Y-151333D01*
Y-151201D01*
X309651D01*
Y-151069D01*
X309783D01*
Y-150937D01*
Y-150805D01*
X309914D01*
Y-150673D01*
Y-150541D01*
X310046D01*
Y-150409D01*
Y-150277D01*
X310178D01*
Y-150145D01*
Y-150013D01*
X310310D01*
Y-149881D01*
X310442D01*
Y-149749D01*
Y-149617D01*
X310574D01*
Y-149485D01*
Y-149353D01*
X310706D01*
Y-149221D01*
Y-149089D01*
X310838D01*
Y-148958D01*
X310970D01*
Y-148826D01*
Y-148694D01*
X311102D01*
Y-148562D01*
X311234D01*
Y-148430D01*
Y-148298D01*
X311366D01*
Y-148166D01*
Y-148034D01*
X311498D01*
Y-147902D01*
X311630D01*
Y-147770D01*
Y-147638D01*
X311762D01*
Y-147506D01*
X311894D01*
Y-147374D01*
Y-147242D01*
X312026D01*
Y-147110D01*
X312157D01*
Y-146978D01*
Y-146847D01*
X312289D01*
Y-146714D01*
X312421D01*
Y-146583D01*
Y-146451D01*
X312553D01*
Y-146319D01*
X312685D01*
Y-146187D01*
Y-146055D01*
X312817D01*
Y-145923D01*
X312949D01*
Y-145791D01*
Y-145659D01*
X313081D01*
Y-145527D01*
X313213D01*
Y-145395D01*
X313345D01*
Y-145263D01*
Y-145131D01*
X313477D01*
Y-144999D01*
X313609D01*
Y-144867D01*
Y-144735D01*
X313741D01*
Y-144604D01*
X313873D01*
Y-144472D01*
X314005D01*
Y-144340D01*
Y-144208D01*
X314137D01*
Y-144076D01*
X314268D01*
Y-143944D01*
X314401D01*
Y-143812D01*
X314533D01*
Y-143680D01*
Y-143548D01*
X314664D01*
Y-143416D01*
X314796D01*
Y-143284D01*
X314928D01*
Y-143152D01*
X315060D01*
Y-143020D01*
Y-142888D01*
X315192D01*
Y-142756D01*
X315324D01*
Y-142624D01*
X315456D01*
Y-142493D01*
X315588D01*
Y-142360D01*
Y-142228D01*
X315720D01*
Y-142097D01*
X315852D01*
Y-141965D01*
X315984D01*
Y-141833D01*
X316116D01*
Y-141701D01*
X316248D01*
Y-141569D01*
X316380D01*
Y-141437D01*
Y-141305D01*
X316512D01*
Y-141173D01*
X316644D01*
Y-141041D01*
X316775D01*
Y-140909D01*
X316907D01*
Y-140777D01*
X317039D01*
Y-140645D01*
X317171D01*
Y-140513D01*
X317303D01*
Y-140381D01*
X317435D01*
Y-140250D01*
X317567D01*
Y-140118D01*
X317699D01*
Y-139986D01*
Y-139854D01*
X317831D01*
Y-139722D01*
X317963D01*
Y-139590D01*
X318095D01*
Y-139458D01*
X318227D01*
Y-139326D01*
X318359D01*
Y-139194D01*
X318491D01*
Y-139062D01*
X318623D01*
Y-138930D01*
X318755D01*
Y-138798D01*
X318887D01*
Y-138666D01*
X319018D01*
Y-138534D01*
X319150D01*
Y-138402D01*
X319282D01*
Y-138270D01*
X319414D01*
Y-138138D01*
X319546D01*
Y-138006D01*
X319678D01*
Y-137874D01*
X319810D01*
Y-137743D01*
X320074D01*
Y-137611D01*
X320206D01*
Y-137479D01*
X320338D01*
Y-137347D01*
X320470D01*
Y-137215D01*
X320602D01*
Y-137083D01*
X320734D01*
Y-136951D01*
X320866D01*
Y-136819D01*
X320998D01*
Y-136687D01*
X321129D01*
Y-136555D01*
X321261D01*
Y-136423D01*
X321525D01*
Y-136291D01*
X321657D01*
Y-136159D01*
X321789D01*
Y-136027D01*
X321921D01*
Y-135895D01*
X322053D01*
Y-135763D01*
X322185D01*
Y-135632D01*
X322449D01*
Y-135499D01*
X322581D01*
Y-135367D01*
X322713D01*
Y-135236D01*
X322845D01*
Y-135104D01*
X323109D01*
Y-134972D01*
X323241D01*
Y-134840D01*
X323373D01*
Y-134708D01*
X323504D01*
Y-134576D01*
X323768D01*
Y-134444D01*
X323900D01*
Y-134312D01*
X324032D01*
Y-134180D01*
X324164D01*
Y-134048D01*
X324428D01*
Y-133916D01*
X324560D01*
Y-133784D01*
X324692D01*
Y-133652D01*
X324956D01*
Y-133520D01*
X325088D01*
Y-133389D01*
X325352D01*
Y-133257D01*
X325484D01*
Y-133125D01*
X325616D01*
Y-132993D01*
X325880D01*
Y-132861D01*
X326011D01*
Y-132729D01*
X326275D01*
Y-132597D01*
X326407D01*
Y-132465D01*
X326671D01*
Y-132333D01*
X326803D01*
Y-132201D01*
X327067D01*
Y-132069D01*
X327199D01*
Y-131937D01*
X327463D01*
Y-131805D01*
X327595D01*
Y-131673D01*
X327859D01*
Y-131541D01*
X327990D01*
Y-131409D01*
X328254D01*
Y-131277D01*
X328518D01*
Y-131145D01*
X328650D01*
Y-131013D01*
X328914D01*
Y-130882D01*
X329046D01*
Y-130750D01*
X329310D01*
Y-130618D01*
X329574D01*
Y-130486D01*
X329838D01*
Y-130354D01*
X329970D01*
Y-130222D01*
X330233D01*
Y-130090D01*
X330497D01*
Y-129958D01*
X330761D01*
Y-129826D01*
X331025D01*
Y-129694D01*
X331157D01*
Y-129562D01*
X331421D01*
Y-129430D01*
X331685D01*
Y-129298D01*
X331949D01*
Y-129166D01*
X332213D01*
Y-129034D01*
X332477D01*
Y-128902D01*
X332740D01*
Y-128771D01*
X333004D01*
Y-128639D01*
X333268D01*
Y-128507D01*
X333532D01*
Y-128375D01*
X333796D01*
Y-128243D01*
X334060D01*
Y-128111D01*
X334456D01*
Y-127979D01*
X334720D01*
Y-127847D01*
X334983D01*
Y-127715D01*
X335379D01*
Y-127583D01*
X335643D01*
Y-127451D01*
X335907D01*
Y-127319D01*
X336303D01*
Y-127187D01*
X336567D01*
Y-127055D01*
X336963D01*
Y-126923D01*
X337226D01*
Y-126791D01*
X337622D01*
Y-126659D01*
X338018D01*
Y-126528D01*
X338282D01*
Y-126396D01*
X338678D01*
Y-126264D01*
X339074D01*
Y-126132D01*
X339469D01*
Y-126000D01*
X339865D01*
Y-125868D01*
X340261D01*
Y-125736D01*
X340657D01*
Y-125604D01*
X341185D01*
Y-125472D01*
X341581D01*
Y-125340D01*
X342108D01*
Y-125208D01*
X342636D01*
Y-125076D01*
X343032D01*
Y-124944D01*
X343560D01*
Y-124812D01*
X344219D01*
Y-124680D01*
X344747D01*
Y-124548D01*
X345407D01*
Y-124416D01*
X346067D01*
Y-124284D01*
X346726D01*
Y-124153D01*
X347518D01*
Y-124021D01*
X348310D01*
Y-123889D01*
X349233D01*
Y-123757D01*
X350289D01*
Y-123625D01*
X351608D01*
Y-123493D01*
X353587D01*
Y-123361D01*
X358997D01*
Y-123493D01*
D02*
G37*
G36*
X451488Y-159117D02*
X452411D01*
Y-159249D01*
X453071D01*
Y-159381D01*
X453731D01*
Y-159513D01*
X454127D01*
Y-159645D01*
X454655D01*
Y-159777D01*
X455050D01*
Y-159909D01*
X455314D01*
Y-160041D01*
X455710D01*
Y-160173D01*
X455974D01*
Y-160305D01*
X456370D01*
Y-160436D01*
X456634D01*
Y-160568D01*
X456898D01*
Y-160700D01*
X457161D01*
Y-160832D01*
X457425D01*
Y-160964D01*
X457689D01*
Y-161096D01*
X457953D01*
Y-161228D01*
X458085D01*
Y-161360D01*
X458349D01*
Y-161492D01*
X458481D01*
Y-161624D01*
X458745D01*
Y-161756D01*
X458877D01*
Y-161888D01*
X459141D01*
Y-162020D01*
X459272D01*
Y-162152D01*
X459536D01*
Y-162284D01*
X459668D01*
Y-162416D01*
X459800D01*
Y-162548D01*
X460064D01*
Y-162680D01*
X460196D01*
Y-162811D01*
X460328D01*
Y-162943D01*
X460460D01*
Y-163075D01*
X460592D01*
Y-163207D01*
X460724D01*
Y-163339D01*
X460856D01*
Y-163471D01*
X460988D01*
Y-163603D01*
X461252D01*
Y-163735D01*
X461384D01*
Y-163867D01*
X461515D01*
Y-163999D01*
Y-164131D01*
X461647D01*
Y-164263D01*
X461779D01*
Y-164395D01*
X461911D01*
Y-164527D01*
X462043D01*
Y-164659D01*
X462175D01*
Y-164791D01*
X462307D01*
Y-164923D01*
X462439D01*
Y-165054D01*
Y-165186D01*
X462571D01*
Y-165318D01*
X462703D01*
Y-165450D01*
X462835D01*
Y-165582D01*
X462967D01*
Y-165714D01*
Y-165846D01*
X463099D01*
Y-165978D01*
X463231D01*
Y-166110D01*
Y-166242D01*
X463363D01*
Y-166374D01*
X463495D01*
Y-166506D01*
Y-166638D01*
X463627D01*
Y-166770D01*
X463758D01*
Y-166902D01*
Y-167034D01*
X463890D01*
Y-167166D01*
Y-167297D01*
X464022D01*
Y-167429D01*
Y-167561D01*
X464154D01*
Y-167693D01*
X464286D01*
Y-167825D01*
Y-167957D01*
X464418D01*
Y-168089D01*
Y-168221D01*
X464550D01*
Y-168353D01*
Y-168485D01*
X464682D01*
Y-168617D01*
Y-168749D01*
Y-168881D01*
X464814D01*
Y-169013D01*
Y-169145D01*
X464946D01*
Y-169277D01*
Y-169409D01*
Y-169540D01*
X465078D01*
Y-169672D01*
Y-169804D01*
X465210D01*
Y-169936D01*
Y-170068D01*
Y-170200D01*
X465342D01*
Y-170332D01*
Y-170464D01*
Y-170596D01*
X465474D01*
Y-170728D01*
Y-170860D01*
Y-170992D01*
Y-171124D01*
X465606D01*
Y-171256D01*
Y-171388D01*
Y-171520D01*
Y-171652D01*
X465737D01*
Y-171784D01*
Y-171915D01*
Y-172047D01*
Y-172179D01*
X465869D01*
Y-172311D01*
Y-172443D01*
Y-172575D01*
Y-172707D01*
Y-172839D01*
Y-172971D01*
X466001D01*
Y-173103D01*
Y-173235D01*
Y-173367D01*
Y-173499D01*
Y-173631D01*
Y-173762D01*
Y-173895D01*
Y-174027D01*
X466133D01*
Y-174158D01*
Y-174290D01*
Y-174422D01*
Y-174554D01*
Y-174686D01*
Y-174818D01*
Y-174950D01*
Y-175082D01*
Y-175214D01*
Y-175346D01*
Y-175478D01*
Y-175610D01*
Y-175742D01*
Y-175874D01*
Y-176006D01*
Y-176138D01*
Y-176269D01*
Y-176401D01*
Y-176533D01*
Y-176665D01*
Y-176797D01*
Y-176929D01*
Y-177061D01*
Y-177193D01*
X466001D01*
Y-177325D01*
Y-177457D01*
Y-177589D01*
Y-177721D01*
Y-177853D01*
Y-177985D01*
Y-178117D01*
Y-178249D01*
X465869D01*
Y-178381D01*
Y-178512D01*
Y-178645D01*
Y-178776D01*
Y-178908D01*
Y-179040D01*
X465737D01*
Y-179172D01*
Y-179304D01*
Y-179436D01*
Y-179568D01*
X465606D01*
Y-179700D01*
Y-179832D01*
Y-179964D01*
Y-180096D01*
X465474D01*
Y-180228D01*
Y-180360D01*
Y-180492D01*
Y-180623D01*
X465342D01*
Y-180756D01*
Y-180887D01*
Y-181019D01*
X465210D01*
Y-181151D01*
Y-181283D01*
Y-181415D01*
X465078D01*
Y-181547D01*
Y-181679D01*
X464946D01*
Y-181811D01*
Y-181943D01*
Y-182075D01*
X464814D01*
Y-182207D01*
Y-182339D01*
X464682D01*
Y-182471D01*
Y-182603D01*
Y-182735D01*
X464550D01*
Y-182866D01*
Y-182999D01*
X464418D01*
Y-183130D01*
Y-183262D01*
X464286D01*
Y-183394D01*
Y-183526D01*
X464154D01*
Y-183658D01*
Y-183790D01*
X464022D01*
Y-183922D01*
X463890D01*
Y-184054D01*
Y-184186D01*
X463758D01*
Y-184318D01*
Y-184450D01*
X463627D01*
Y-184582D01*
X463495D01*
Y-184714D01*
Y-184846D01*
X463363D01*
Y-184978D01*
Y-185110D01*
X463231D01*
Y-185242D01*
X463099D01*
Y-185373D01*
X462967D01*
Y-185505D01*
Y-185637D01*
X462835D01*
Y-185769D01*
X462703D01*
Y-185901D01*
Y-186033D01*
X462571D01*
Y-186165D01*
X462439D01*
Y-186297D01*
X462307D01*
Y-186429D01*
X462175D01*
Y-186561D01*
X462043D01*
Y-186693D01*
Y-186825D01*
X461911D01*
Y-186957D01*
X461779D01*
Y-187089D01*
X461647D01*
Y-187221D01*
X461515D01*
Y-187353D01*
X461384D01*
Y-187484D01*
X461252D01*
Y-187616D01*
X461120D01*
Y-187748D01*
X460988D01*
Y-187880D01*
X460856D01*
Y-188012D01*
X460724D01*
Y-188144D01*
X460592D01*
Y-188276D01*
X460460D01*
Y-188408D01*
X460328D01*
Y-188540D01*
X460064D01*
Y-188672D01*
X459932D01*
Y-188804D01*
X459800D01*
Y-188936D01*
X459668D01*
Y-189068D01*
X459404D01*
Y-189200D01*
X459272D01*
Y-189332D01*
X459141D01*
Y-189464D01*
X458877D01*
Y-189596D01*
X458745D01*
Y-189728D01*
X458481D01*
Y-189860D01*
X458349D01*
Y-189991D01*
X458085D01*
Y-190123D01*
X457821D01*
Y-190255D01*
X457689D01*
Y-190387D01*
X457425D01*
Y-190519D01*
X457161D01*
Y-190651D01*
X456898D01*
Y-190783D01*
X456634D01*
Y-190915D01*
X456370D01*
Y-191047D01*
X456106D01*
Y-191179D01*
X455710D01*
Y-191311D01*
X455446D01*
Y-191443D01*
X455050D01*
Y-191575D01*
X454655D01*
Y-191707D01*
X454259D01*
Y-191839D01*
X453863D01*
Y-191971D01*
X453335D01*
Y-192103D01*
X452675D01*
Y-192234D01*
X452016D01*
Y-192366D01*
X450960D01*
Y-192498D01*
X447398D01*
Y-192366D01*
X446474D01*
Y-192234D01*
X445682D01*
Y-192103D01*
X445155D01*
Y-191971D01*
X444627D01*
Y-191839D01*
X444231D01*
Y-191707D01*
X443703D01*
Y-191575D01*
X443439D01*
Y-191443D01*
X443044D01*
Y-191311D01*
X442648D01*
Y-191179D01*
X442384D01*
Y-191047D01*
X442120D01*
Y-190915D01*
X441856D01*
Y-190783D01*
X441592D01*
Y-190651D01*
X441328D01*
Y-190519D01*
X441064D01*
Y-190387D01*
X440801D01*
Y-190255D01*
X440537D01*
Y-190123D01*
X440405D01*
Y-189991D01*
X440141D01*
Y-189860D01*
X440009D01*
Y-189728D01*
X439745D01*
Y-189596D01*
X439613D01*
Y-189464D01*
X439349D01*
Y-189332D01*
X439217D01*
Y-189200D01*
X438953D01*
Y-189068D01*
X438821D01*
Y-188936D01*
X438690D01*
Y-188804D01*
X438558D01*
Y-188672D01*
X438294D01*
Y-188540D01*
X438162D01*
Y-188408D01*
X438030D01*
Y-188276D01*
X437898D01*
Y-188144D01*
X437766D01*
Y-188012D01*
X437634D01*
Y-187880D01*
X437502D01*
Y-187748D01*
X437370D01*
Y-187616D01*
X437238D01*
Y-187484D01*
X437106D01*
Y-187353D01*
X436974D01*
Y-187221D01*
X436842D01*
Y-187089D01*
X436710D01*
Y-186957D01*
X436578D01*
Y-186825D01*
X436446D01*
Y-186693D01*
X436315D01*
Y-186561D01*
X436183D01*
Y-186429D01*
X436051D01*
Y-186297D01*
Y-186165D01*
X435919D01*
Y-186033D01*
X435787D01*
Y-185901D01*
X435655D01*
Y-185769D01*
Y-185637D01*
X435523D01*
Y-185505D01*
X435391D01*
Y-185373D01*
X435259D01*
Y-185242D01*
Y-185110D01*
X435127D01*
Y-184978D01*
X434995D01*
Y-184846D01*
Y-184714D01*
X434863D01*
Y-184582D01*
Y-184450D01*
X434731D01*
Y-184318D01*
X434599D01*
Y-184186D01*
Y-184054D01*
X434467D01*
Y-183922D01*
Y-183790D01*
X434336D01*
Y-183658D01*
Y-183526D01*
X434203D01*
Y-183394D01*
Y-183262D01*
X434072D01*
Y-183130D01*
Y-182999D01*
X433940D01*
Y-182866D01*
Y-182735D01*
X433808D01*
Y-182603D01*
Y-182471D01*
X433676D01*
Y-182339D01*
Y-182207D01*
X433544D01*
Y-182075D01*
Y-181943D01*
Y-181811D01*
X433412D01*
Y-181679D01*
Y-181547D01*
X433280D01*
Y-181415D01*
Y-181283D01*
Y-181151D01*
X433148D01*
Y-181019D01*
Y-180887D01*
Y-180756D01*
X433016D01*
Y-180623D01*
Y-180492D01*
Y-180360D01*
Y-180228D01*
X432884D01*
Y-180096D01*
Y-179964D01*
Y-179832D01*
X432752D01*
Y-179700D01*
Y-179568D01*
Y-179436D01*
Y-179304D01*
Y-179172D01*
X432620D01*
Y-179040D01*
Y-178908D01*
Y-178776D01*
Y-178645D01*
Y-178512D01*
X432488D01*
Y-178381D01*
Y-178249D01*
Y-178117D01*
Y-177985D01*
Y-177853D01*
Y-177721D01*
Y-177589D01*
X432356D01*
Y-177457D01*
Y-177325D01*
Y-177193D01*
Y-177061D01*
Y-176929D01*
Y-176797D01*
Y-176665D01*
Y-176533D01*
Y-176401D01*
Y-176269D01*
Y-176138D01*
Y-176006D01*
Y-175874D01*
Y-175742D01*
Y-175610D01*
Y-175478D01*
Y-175346D01*
Y-175214D01*
Y-175082D01*
Y-174950D01*
Y-174818D01*
Y-174686D01*
Y-174554D01*
Y-174422D01*
Y-174290D01*
Y-174158D01*
Y-174027D01*
Y-173895D01*
Y-173762D01*
Y-173631D01*
X432488D01*
Y-173499D01*
Y-173367D01*
Y-173235D01*
Y-173103D01*
Y-172971D01*
Y-172839D01*
Y-172707D01*
X432620D01*
Y-172575D01*
Y-172443D01*
Y-172311D01*
Y-172179D01*
Y-172047D01*
Y-171915D01*
X432752D01*
Y-171784D01*
Y-171652D01*
Y-171520D01*
Y-171388D01*
X432884D01*
Y-171256D01*
Y-171124D01*
Y-170992D01*
Y-170860D01*
X433016D01*
Y-170728D01*
Y-170596D01*
Y-170464D01*
X433148D01*
Y-170332D01*
Y-170200D01*
Y-170068D01*
X433280D01*
Y-169936D01*
Y-169804D01*
Y-169672D01*
X433412D01*
Y-169540D01*
Y-169409D01*
X433544D01*
Y-169277D01*
Y-169145D01*
Y-169013D01*
X433676D01*
Y-168881D01*
Y-168749D01*
X433808D01*
Y-168617D01*
Y-168485D01*
X433940D01*
Y-168353D01*
Y-168221D01*
X434072D01*
Y-168089D01*
Y-167957D01*
X434203D01*
Y-167825D01*
Y-167693D01*
X434336D01*
Y-167561D01*
Y-167429D01*
X434467D01*
Y-167297D01*
Y-167166D01*
X434599D01*
Y-167034D01*
Y-166902D01*
X434731D01*
Y-166770D01*
X434863D01*
Y-166638D01*
Y-166506D01*
X434995D01*
Y-166374D01*
X435127D01*
Y-166242D01*
Y-166110D01*
X435259D01*
Y-165978D01*
X435391D01*
Y-165846D01*
Y-165714D01*
X435523D01*
Y-165582D01*
X435655D01*
Y-165450D01*
X435787D01*
Y-165318D01*
Y-165186D01*
X435919D01*
Y-165054D01*
X436051D01*
Y-164923D01*
X436183D01*
Y-164791D01*
X436315D01*
Y-164659D01*
X436446D01*
Y-164527D01*
Y-164395D01*
X436578D01*
Y-164263D01*
X436710D01*
Y-164131D01*
X436842D01*
Y-163999D01*
X436974D01*
Y-163867D01*
X437106D01*
Y-163735D01*
X437238D01*
Y-163603D01*
X437370D01*
Y-163471D01*
X437502D01*
Y-163339D01*
X437634D01*
Y-163207D01*
X437766D01*
Y-163075D01*
X438030D01*
Y-162943D01*
X438162D01*
Y-162811D01*
X438294D01*
Y-162680D01*
X438426D01*
Y-162548D01*
X438558D01*
Y-162416D01*
X438821D01*
Y-162284D01*
X438953D01*
Y-162152D01*
X439085D01*
Y-162020D01*
X439349D01*
Y-161888D01*
X439481D01*
Y-161756D01*
X439745D01*
Y-161624D01*
X439877D01*
Y-161492D01*
X440141D01*
Y-161360D01*
X440273D01*
Y-161228D01*
X440537D01*
Y-161096D01*
X440801D01*
Y-160964D01*
X441064D01*
Y-160832D01*
X441328D01*
Y-160700D01*
X441592D01*
Y-160568D01*
X441856D01*
Y-160436D01*
X442120D01*
Y-160305D01*
X442384D01*
Y-160173D01*
X442780D01*
Y-160041D01*
X443044D01*
Y-159909D01*
X443439D01*
Y-159777D01*
X443835D01*
Y-159645D01*
X444231D01*
Y-159513D01*
X444759D01*
Y-159381D01*
X445287D01*
Y-159249D01*
X446078D01*
Y-159117D01*
X446870D01*
Y-158985D01*
X451488D01*
Y-159117D01*
D02*
G37*
G36*
X485001D02*
X486189D01*
Y-159249D01*
X486980D01*
Y-159381D01*
X487508D01*
Y-159513D01*
X488036D01*
Y-159645D01*
X488432D01*
Y-159777D01*
X488827D01*
Y-159909D01*
X489223D01*
Y-160041D01*
X489487D01*
Y-160173D01*
X489883D01*
Y-160305D01*
X490147D01*
Y-160436D01*
X490411D01*
Y-160568D01*
X490675D01*
Y-160700D01*
X490938D01*
Y-160832D01*
X491202D01*
Y-160964D01*
X491334D01*
Y-161096D01*
X491598D01*
Y-161228D01*
X491730D01*
Y-161360D01*
X491994D01*
Y-161492D01*
X492126D01*
Y-161624D01*
X492390D01*
Y-161756D01*
X492522D01*
Y-161888D01*
X492786D01*
Y-162020D01*
X492918D01*
Y-162152D01*
X493050D01*
Y-162284D01*
X493181D01*
Y-162416D01*
Y-162548D01*
Y-162680D01*
X493050D01*
Y-162811D01*
X492918D01*
Y-162943D01*
Y-163075D01*
X492786D01*
Y-163207D01*
Y-163339D01*
X492654D01*
Y-163471D01*
Y-163603D01*
X492522D01*
Y-163735D01*
Y-163867D01*
X492390D01*
Y-163999D01*
Y-164131D01*
X492258D01*
Y-164263D01*
X492126D01*
Y-164395D01*
Y-164527D01*
X491994D01*
Y-164659D01*
Y-164791D01*
X491862D01*
Y-164923D01*
Y-165054D01*
X491730D01*
Y-165186D01*
Y-165318D01*
X491598D01*
Y-165450D01*
Y-165582D01*
X491466D01*
Y-165714D01*
X491334D01*
Y-165846D01*
Y-165978D01*
X491202D01*
Y-166110D01*
Y-166242D01*
X491070D01*
Y-166374D01*
Y-166506D01*
X490938D01*
Y-166638D01*
Y-166770D01*
X490675D01*
Y-166638D01*
X490411D01*
Y-166506D01*
X490279D01*
Y-166374D01*
X490147D01*
Y-166242D01*
X489883D01*
Y-166110D01*
X489751D01*
Y-165978D01*
X489487D01*
Y-165846D01*
X489355D01*
Y-165714D01*
X489091D01*
Y-165582D01*
X488827D01*
Y-165450D01*
X488563D01*
Y-165318D01*
X488300D01*
Y-165186D01*
X488036D01*
Y-165054D01*
X487772D01*
Y-164923D01*
X487508D01*
Y-164791D01*
X487112D01*
Y-164659D01*
X486716D01*
Y-164527D01*
X486320D01*
Y-164395D01*
X485793D01*
Y-164263D01*
X485133D01*
Y-164131D01*
X484209D01*
Y-163999D01*
X482230D01*
Y-164131D01*
X481702D01*
Y-164263D01*
X481307D01*
Y-164395D01*
X481043D01*
Y-164527D01*
X480779D01*
Y-164659D01*
X480515D01*
Y-164791D01*
X480383D01*
Y-164923D01*
X480119D01*
Y-165054D01*
X479987D01*
Y-165186D01*
X479855D01*
Y-165318D01*
X479723D01*
Y-165450D01*
X479591D01*
Y-165582D01*
X479459D01*
Y-165714D01*
X479328D01*
Y-165846D01*
X479196D01*
Y-165978D01*
Y-166110D01*
X479064D01*
Y-166242D01*
X478932D01*
Y-166374D01*
Y-166506D01*
X478800D01*
Y-166638D01*
Y-166770D01*
X478668D01*
Y-166902D01*
Y-167034D01*
X478536D01*
Y-167166D01*
Y-167297D01*
Y-167429D01*
X478404D01*
Y-167561D01*
Y-167693D01*
Y-167825D01*
Y-167957D01*
Y-168089D01*
X478272D01*
Y-168221D01*
Y-168353D01*
Y-168485D01*
Y-168617D01*
X478404D01*
Y-168749D01*
Y-168881D01*
Y-169013D01*
Y-169145D01*
X478536D01*
Y-169277D01*
Y-169409D01*
Y-169540D01*
X478668D01*
Y-169672D01*
Y-169804D01*
X478800D01*
Y-169936D01*
X478932D01*
Y-170068D01*
Y-170200D01*
X479064D01*
Y-170332D01*
X479196D01*
Y-170464D01*
X479328D01*
Y-170596D01*
X479459D01*
Y-170728D01*
X479591D01*
Y-170860D01*
X479723D01*
Y-170992D01*
X479855D01*
Y-171124D01*
X479987D01*
Y-171256D01*
X480251D01*
Y-171388D01*
X480383D01*
Y-171520D01*
X480647D01*
Y-171652D01*
X480779D01*
Y-171784D01*
X481043D01*
Y-171915D01*
X481307D01*
Y-172047D01*
X481571D01*
Y-172179D01*
X481834D01*
Y-172311D01*
X482098D01*
Y-172443D01*
X482362D01*
Y-172575D01*
X482626D01*
Y-172707D01*
X482890D01*
Y-172839D01*
X483286D01*
Y-172971D01*
X483550D01*
Y-173103D01*
X483814D01*
Y-173235D01*
X484209D01*
Y-173367D01*
X484473D01*
Y-173499D01*
X484737D01*
Y-173631D01*
X485133D01*
Y-173762D01*
X485397D01*
Y-173895D01*
X485793D01*
Y-174027D01*
X486057D01*
Y-174158D01*
X486320D01*
Y-174290D01*
X486716D01*
Y-174422D01*
X486980D01*
Y-174554D01*
X487244D01*
Y-174686D01*
X487508D01*
Y-174818D01*
X487772D01*
Y-174950D01*
X488036D01*
Y-175082D01*
X488300D01*
Y-175214D01*
X488563D01*
Y-175346D01*
X488827D01*
Y-175478D01*
X489091D01*
Y-175610D01*
X489223D01*
Y-175742D01*
X489487D01*
Y-175874D01*
X489751D01*
Y-176006D01*
X489883D01*
Y-176138D01*
X490147D01*
Y-176269D01*
X490279D01*
Y-176401D01*
X490411D01*
Y-176533D01*
X490675D01*
Y-176665D01*
X490807D01*
Y-176797D01*
X490938D01*
Y-176929D01*
X491070D01*
Y-177061D01*
X491202D01*
Y-177193D01*
X491466D01*
Y-177325D01*
X491598D01*
Y-177457D01*
X491730D01*
Y-177589D01*
Y-177721D01*
X491862D01*
Y-177853D01*
X491994D01*
Y-177985D01*
X492126D01*
Y-178117D01*
X492258D01*
Y-178249D01*
X492390D01*
Y-178381D01*
Y-178512D01*
X492522D01*
Y-178645D01*
X492654D01*
Y-178776D01*
Y-178908D01*
X492786D01*
Y-179040D01*
Y-179172D01*
X492918D01*
Y-179304D01*
X493050D01*
Y-179436D01*
Y-179568D01*
X493181D01*
Y-179700D01*
Y-179832D01*
Y-179964D01*
X493313D01*
Y-180096D01*
Y-180228D01*
X493445D01*
Y-180360D01*
Y-180492D01*
Y-180623D01*
Y-180756D01*
X493577D01*
Y-180887D01*
Y-181019D01*
Y-181151D01*
Y-181283D01*
X493709D01*
Y-181415D01*
Y-181547D01*
Y-181679D01*
Y-181811D01*
Y-181943D01*
Y-182075D01*
X493841D01*
Y-182207D01*
Y-182339D01*
Y-182471D01*
Y-182603D01*
Y-182735D01*
Y-182866D01*
Y-182999D01*
Y-183130D01*
Y-183262D01*
Y-183394D01*
Y-183526D01*
Y-183658D01*
Y-183790D01*
Y-183922D01*
Y-184054D01*
Y-184186D01*
Y-184318D01*
Y-184450D01*
X493709D01*
Y-184582D01*
Y-184714D01*
Y-184846D01*
Y-184978D01*
Y-185110D01*
Y-185242D01*
Y-185373D01*
X493577D01*
Y-185505D01*
Y-185637D01*
Y-185769D01*
Y-185901D01*
Y-186033D01*
X493445D01*
Y-186165D01*
Y-186297D01*
Y-186429D01*
X493313D01*
Y-186561D01*
Y-186693D01*
Y-186825D01*
X493181D01*
Y-186957D01*
Y-187089D01*
Y-187221D01*
X493050D01*
Y-187353D01*
Y-187484D01*
X492918D01*
Y-187616D01*
Y-187748D01*
X492786D01*
Y-187880D01*
Y-188012D01*
X492654D01*
Y-188144D01*
Y-188276D01*
X492522D01*
Y-188408D01*
X492390D01*
Y-188540D01*
Y-188672D01*
X492258D01*
Y-188804D01*
X492126D01*
Y-188936D01*
Y-189068D01*
X491994D01*
Y-189200D01*
X491862D01*
Y-189332D01*
X491730D01*
Y-189464D01*
X491598D01*
Y-189596D01*
Y-189728D01*
X491466D01*
Y-189860D01*
X491334D01*
Y-189991D01*
X491202D01*
Y-190123D01*
X491070D01*
Y-190255D01*
X490807D01*
Y-190387D01*
X490675D01*
Y-190519D01*
X490543D01*
Y-190651D01*
X490411D01*
Y-190783D01*
X490147D01*
Y-190915D01*
X490015D01*
Y-191047D01*
X489883D01*
Y-191179D01*
X489619D01*
Y-191311D01*
X489355D01*
Y-191443D01*
X489223D01*
Y-191575D01*
X488959D01*
Y-191707D01*
X488695D01*
Y-191839D01*
X488432D01*
Y-191971D01*
X488036D01*
Y-192103D01*
X487772D01*
Y-192234D01*
X487376D01*
Y-192366D01*
X486980D01*
Y-192498D01*
X486452D01*
Y-192630D01*
X485793D01*
Y-192762D01*
X485001D01*
Y-192894D01*
X481175D01*
Y-192762D01*
X480251D01*
Y-192630D01*
X479591D01*
Y-192498D01*
X478932D01*
Y-192366D01*
X478536D01*
Y-192234D01*
X478008D01*
Y-192103D01*
X477612D01*
Y-191971D01*
X477348D01*
Y-191839D01*
X476953D01*
Y-191707D01*
X476689D01*
Y-191575D01*
X476293D01*
Y-191443D01*
X476029D01*
Y-191311D01*
X475765D01*
Y-191179D01*
X475501D01*
Y-191047D01*
X475237D01*
Y-190915D01*
X475105D01*
Y-190783D01*
X474841D01*
Y-190651D01*
X474578D01*
Y-190519D01*
X474314D01*
Y-190387D01*
X474182D01*
Y-190255D01*
X473918D01*
Y-190123D01*
X473786D01*
Y-189991D01*
X473522D01*
Y-189860D01*
X473390D01*
Y-189728D01*
X473258D01*
Y-189596D01*
X472994D01*
Y-189464D01*
X472862D01*
Y-189332D01*
X472730D01*
Y-189200D01*
X472599D01*
Y-189068D01*
X472467D01*
Y-188936D01*
X472203D01*
Y-188804D01*
X472071D01*
Y-188672D01*
X471939D01*
Y-188540D01*
Y-188408D01*
X472071D01*
Y-188276D01*
X472203D01*
Y-188144D01*
Y-188012D01*
X472335D01*
Y-187880D01*
X472467D01*
Y-187748D01*
Y-187616D01*
X472599D01*
Y-187484D01*
X472730D01*
Y-187353D01*
X472862D01*
Y-187221D01*
Y-187089D01*
X472994D01*
Y-186957D01*
X473126D01*
Y-186825D01*
X473258D01*
Y-186693D01*
Y-186561D01*
X473390D01*
Y-186429D01*
X473522D01*
Y-186297D01*
Y-186165D01*
X473654D01*
Y-186033D01*
X473786D01*
Y-185901D01*
X473918D01*
Y-185769D01*
Y-185637D01*
X474050D01*
Y-185505D01*
X474182D01*
Y-185373D01*
Y-185242D01*
X474314D01*
Y-185110D01*
X474446D01*
Y-184978D01*
X474578D01*
Y-184846D01*
Y-184714D01*
X474710D01*
Y-184582D01*
X474841D01*
Y-184450D01*
X474973D01*
Y-184318D01*
X475105D01*
Y-184450D01*
X475237D01*
Y-184582D01*
X475369D01*
Y-184714D01*
X475501D01*
Y-184846D01*
X475633D01*
Y-184978D01*
X475897D01*
Y-185110D01*
X476029D01*
Y-185242D01*
X476161D01*
Y-185373D01*
X476425D01*
Y-185505D01*
X476557D01*
Y-185637D01*
X476821D01*
Y-185769D01*
X476953D01*
Y-185901D01*
X477216D01*
Y-186033D01*
X477480D01*
Y-186165D01*
X477744D01*
Y-186297D01*
X478008D01*
Y-186429D01*
X478272D01*
Y-186561D01*
X478536D01*
Y-186693D01*
X478800D01*
Y-186825D01*
X479196D01*
Y-186957D01*
X479459D01*
Y-187089D01*
X479987D01*
Y-187221D01*
X480383D01*
Y-187353D01*
X480911D01*
Y-187484D01*
X481571D01*
Y-187616D01*
X482494D01*
Y-187748D01*
X484077D01*
Y-187616D01*
X484737D01*
Y-187484D01*
X485133D01*
Y-187353D01*
X485529D01*
Y-187221D01*
X485793D01*
Y-187089D01*
X486057D01*
Y-186957D01*
X486320D01*
Y-186825D01*
X486452D01*
Y-186693D01*
X486584D01*
Y-186561D01*
X486848D01*
Y-186429D01*
X486980D01*
Y-186297D01*
X487112D01*
Y-186165D01*
X487244D01*
Y-186033D01*
X487376D01*
Y-185901D01*
Y-185769D01*
X487508D01*
Y-185637D01*
X487640D01*
Y-185505D01*
X487772D01*
Y-185373D01*
Y-185242D01*
X487904D01*
Y-185110D01*
Y-184978D01*
X488036D01*
Y-184846D01*
Y-184714D01*
Y-184582D01*
X488168D01*
Y-184450D01*
Y-184318D01*
Y-184186D01*
Y-184054D01*
Y-183922D01*
X488300D01*
Y-183790D01*
Y-183658D01*
Y-183526D01*
Y-183394D01*
Y-183262D01*
Y-183130D01*
X488168D01*
Y-182999D01*
Y-182866D01*
Y-182735D01*
Y-182603D01*
X488036D01*
Y-182471D01*
Y-182339D01*
Y-182207D01*
X487904D01*
Y-182075D01*
Y-181943D01*
X487772D01*
Y-181811D01*
Y-181679D01*
X487640D01*
Y-181547D01*
X487508D01*
Y-181415D01*
X487376D01*
Y-181283D01*
Y-181151D01*
X487244D01*
Y-181019D01*
X487112D01*
Y-180887D01*
X486980D01*
Y-180756D01*
X486716D01*
Y-180623D01*
X486584D01*
Y-180492D01*
X486452D01*
Y-180360D01*
X486320D01*
Y-180228D01*
X486057D01*
Y-180096D01*
X485925D01*
Y-179964D01*
X485661D01*
Y-179832D01*
X485397D01*
Y-179700D01*
X485265D01*
Y-179568D01*
X485001D01*
Y-179436D01*
X484737D01*
Y-179304D01*
X484473D01*
Y-179172D01*
X484209D01*
Y-179040D01*
X483946D01*
Y-178908D01*
X483682D01*
Y-178776D01*
X483418D01*
Y-178645D01*
X483022D01*
Y-178512D01*
X482758D01*
Y-178381D01*
X482494D01*
Y-178249D01*
X482098D01*
Y-178117D01*
X481834D01*
Y-177985D01*
X481571D01*
Y-177853D01*
X481175D01*
Y-177721D01*
X480911D01*
Y-177589D01*
X480647D01*
Y-177457D01*
X480383D01*
Y-177325D01*
X480119D01*
Y-177193D01*
X479723D01*
Y-177061D01*
X479459D01*
Y-176929D01*
X479196D01*
Y-176797D01*
X478932D01*
Y-176665D01*
X478668D01*
Y-176533D01*
X478404D01*
Y-176401D01*
X478272D01*
Y-176269D01*
X478008D01*
Y-176138D01*
X477744D01*
Y-176006D01*
X477480D01*
Y-175874D01*
X477348D01*
Y-175742D01*
X477085D01*
Y-175610D01*
X476953D01*
Y-175478D01*
X476689D01*
Y-175346D01*
X476557D01*
Y-175214D01*
X476293D01*
Y-175082D01*
X476161D01*
Y-174950D01*
X476029D01*
Y-174818D01*
X475765D01*
Y-174686D01*
X475633D01*
Y-174554D01*
X475501D01*
Y-174422D01*
X475369D01*
Y-174290D01*
X475237D01*
Y-174158D01*
X475105D01*
Y-174027D01*
X474973D01*
Y-173895D01*
X474841D01*
Y-173762D01*
X474710D01*
Y-173631D01*
X474578D01*
Y-173499D01*
X474446D01*
Y-173367D01*
X474314D01*
Y-173235D01*
X474182D01*
Y-173103D01*
X474050D01*
Y-172971D01*
Y-172839D01*
X473918D01*
Y-172707D01*
X473786D01*
Y-172575D01*
Y-172443D01*
X473654D01*
Y-172311D01*
X473522D01*
Y-172179D01*
Y-172047D01*
X473390D01*
Y-171915D01*
Y-171784D01*
X473258D01*
Y-171652D01*
Y-171520D01*
X473126D01*
Y-171388D01*
Y-171256D01*
Y-171124D01*
X472994D01*
Y-170992D01*
Y-170860D01*
Y-170728D01*
X472862D01*
Y-170596D01*
Y-170464D01*
Y-170332D01*
Y-170200D01*
X472730D01*
Y-170068D01*
Y-169936D01*
Y-169804D01*
Y-169672D01*
Y-169540D01*
X472599D01*
Y-169409D01*
Y-169277D01*
Y-169145D01*
Y-169013D01*
Y-168881D01*
Y-168749D01*
Y-168617D01*
Y-168485D01*
Y-168353D01*
Y-168221D01*
Y-168089D01*
Y-167957D01*
Y-167825D01*
Y-167693D01*
Y-167561D01*
Y-167429D01*
Y-167297D01*
X472730D01*
Y-167166D01*
Y-167034D01*
Y-166902D01*
Y-166770D01*
Y-166638D01*
Y-166506D01*
X472862D01*
Y-166374D01*
Y-166242D01*
Y-166110D01*
Y-165978D01*
X472994D01*
Y-165846D01*
Y-165714D01*
Y-165582D01*
X473126D01*
Y-165450D01*
Y-165318D01*
Y-165186D01*
X473258D01*
Y-165054D01*
Y-164923D01*
X473390D01*
Y-164791D01*
Y-164659D01*
X473522D01*
Y-164527D01*
Y-164395D01*
X473654D01*
Y-164263D01*
Y-164131D01*
X473786D01*
Y-163999D01*
Y-163867D01*
X473918D01*
Y-163735D01*
Y-163603D01*
X474050D01*
Y-163471D01*
X474182D01*
Y-163339D01*
X474314D01*
Y-163207D01*
Y-163075D01*
X474446D01*
Y-162943D01*
X474578D01*
Y-162811D01*
X474710D01*
Y-162680D01*
X474841D01*
Y-162548D01*
Y-162416D01*
X474973D01*
Y-162284D01*
X475105D01*
Y-162152D01*
X475237D01*
Y-162020D01*
X475369D01*
Y-161888D01*
X475633D01*
Y-161756D01*
X475765D01*
Y-161624D01*
X475897D01*
Y-161492D01*
X476029D01*
Y-161360D01*
X476293D01*
Y-161228D01*
X476425D01*
Y-161096D01*
X476557D01*
Y-160964D01*
X476821D01*
Y-160832D01*
X476953D01*
Y-160700D01*
X477216D01*
Y-160568D01*
X477480D01*
Y-160436D01*
X477744D01*
Y-160305D01*
X478008D01*
Y-160173D01*
X478272D01*
Y-160041D01*
X478536D01*
Y-159909D01*
X478932D01*
Y-159777D01*
X479328D01*
Y-159645D01*
X479723D01*
Y-159513D01*
X480119D01*
Y-159381D01*
X480779D01*
Y-159249D01*
X481439D01*
Y-159117D01*
X482758D01*
Y-158985D01*
X485001D01*
Y-159117D01*
D02*
G37*
G36*
X521549Y-159645D02*
Y-159777D01*
Y-159909D01*
Y-160041D01*
Y-160173D01*
Y-160305D01*
Y-160436D01*
Y-160568D01*
Y-160700D01*
Y-160832D01*
Y-160964D01*
Y-161096D01*
Y-161228D01*
Y-161360D01*
Y-161492D01*
Y-161624D01*
Y-161756D01*
Y-161888D01*
Y-162020D01*
Y-162152D01*
Y-162284D01*
Y-162416D01*
Y-162548D01*
Y-162680D01*
Y-162811D01*
Y-162943D01*
Y-163075D01*
Y-163207D01*
Y-163339D01*
Y-163471D01*
Y-163603D01*
Y-163735D01*
Y-163867D01*
Y-163999D01*
X513500D01*
Y-164131D01*
Y-164263D01*
Y-164395D01*
Y-164527D01*
Y-164659D01*
Y-164791D01*
Y-164923D01*
Y-165054D01*
Y-165186D01*
Y-165318D01*
Y-165450D01*
Y-165582D01*
Y-165714D01*
Y-165846D01*
Y-165978D01*
Y-166110D01*
Y-166242D01*
Y-166374D01*
Y-166506D01*
Y-166638D01*
Y-166770D01*
Y-166902D01*
Y-167034D01*
Y-167166D01*
Y-167297D01*
Y-167429D01*
Y-167561D01*
Y-167693D01*
Y-167825D01*
Y-167957D01*
Y-168089D01*
Y-168221D01*
Y-168353D01*
Y-168485D01*
Y-168617D01*
Y-168749D01*
Y-168881D01*
Y-169013D01*
Y-169145D01*
Y-169277D01*
Y-169409D01*
Y-169540D01*
Y-169672D01*
Y-169804D01*
Y-169936D01*
Y-170068D01*
Y-170200D01*
Y-170332D01*
Y-170464D01*
Y-170596D01*
Y-170728D01*
Y-170860D01*
Y-170992D01*
Y-171124D01*
Y-171256D01*
Y-171388D01*
Y-171520D01*
Y-171652D01*
Y-171784D01*
Y-171915D01*
Y-172047D01*
Y-172179D01*
Y-172311D01*
Y-172443D01*
Y-172575D01*
Y-172707D01*
Y-172839D01*
Y-172971D01*
Y-173103D01*
Y-173235D01*
Y-173367D01*
Y-173499D01*
Y-173631D01*
Y-173762D01*
Y-173895D01*
Y-174027D01*
Y-174158D01*
Y-174290D01*
Y-174422D01*
Y-174554D01*
Y-174686D01*
Y-174818D01*
Y-174950D01*
Y-175082D01*
Y-175214D01*
Y-175346D01*
Y-175478D01*
Y-175610D01*
Y-175742D01*
Y-175874D01*
Y-176006D01*
Y-176138D01*
Y-176269D01*
Y-176401D01*
Y-176533D01*
Y-176665D01*
Y-176797D01*
Y-176929D01*
Y-177061D01*
Y-177193D01*
Y-177325D01*
Y-177457D01*
Y-177589D01*
Y-177721D01*
Y-177853D01*
Y-177985D01*
Y-178117D01*
Y-178249D01*
Y-178381D01*
Y-178512D01*
Y-178645D01*
Y-178776D01*
Y-178908D01*
Y-179040D01*
Y-179172D01*
Y-179304D01*
Y-179436D01*
Y-179568D01*
Y-179700D01*
Y-179832D01*
Y-179964D01*
Y-180096D01*
Y-180228D01*
Y-180360D01*
Y-180492D01*
Y-180623D01*
Y-180756D01*
Y-180887D01*
Y-181019D01*
Y-181151D01*
Y-181283D01*
Y-181415D01*
Y-181547D01*
Y-181679D01*
Y-181811D01*
Y-181943D01*
Y-182075D01*
Y-182207D01*
Y-182339D01*
Y-182471D01*
Y-182603D01*
Y-182735D01*
Y-182866D01*
Y-182999D01*
Y-183130D01*
Y-183262D01*
Y-183394D01*
Y-183526D01*
Y-183658D01*
Y-183790D01*
Y-183922D01*
Y-184054D01*
Y-184186D01*
Y-184318D01*
Y-184450D01*
Y-184582D01*
Y-184714D01*
Y-184846D01*
Y-184978D01*
Y-185110D01*
Y-185242D01*
Y-185373D01*
Y-185505D01*
Y-185637D01*
Y-185769D01*
Y-185901D01*
Y-186033D01*
Y-186165D01*
Y-186297D01*
Y-186429D01*
Y-186561D01*
Y-186693D01*
Y-186825D01*
Y-186957D01*
Y-187089D01*
Y-187221D01*
Y-187353D01*
Y-187484D01*
Y-187616D01*
Y-187748D01*
Y-187880D01*
Y-188012D01*
Y-188144D01*
Y-188276D01*
Y-188408D01*
Y-188540D01*
Y-188672D01*
Y-188804D01*
Y-188936D01*
Y-189068D01*
Y-189200D01*
Y-189332D01*
Y-189464D01*
Y-189596D01*
Y-189728D01*
Y-189860D01*
Y-189991D01*
Y-190123D01*
Y-190255D01*
Y-190387D01*
Y-190519D01*
Y-190651D01*
Y-190783D01*
Y-190915D01*
Y-191047D01*
Y-191179D01*
Y-191311D01*
Y-191443D01*
Y-191575D01*
Y-191707D01*
Y-191839D01*
Y-191971D01*
Y-192103D01*
Y-192234D01*
X508223D01*
Y-192103D01*
Y-191971D01*
Y-191839D01*
Y-191707D01*
Y-191575D01*
Y-191443D01*
Y-191311D01*
Y-191179D01*
Y-191047D01*
Y-190915D01*
Y-190783D01*
Y-190651D01*
Y-190519D01*
Y-190387D01*
Y-190255D01*
Y-190123D01*
Y-189991D01*
Y-189860D01*
Y-189728D01*
Y-189596D01*
Y-189464D01*
Y-189332D01*
Y-189200D01*
Y-189068D01*
Y-188936D01*
Y-188804D01*
Y-188672D01*
Y-188540D01*
Y-188408D01*
Y-188276D01*
Y-188144D01*
Y-188012D01*
Y-187880D01*
Y-187748D01*
Y-187616D01*
Y-187484D01*
Y-187353D01*
Y-187221D01*
Y-187089D01*
Y-186957D01*
Y-186825D01*
Y-186693D01*
Y-186561D01*
Y-186429D01*
Y-186297D01*
Y-186165D01*
Y-186033D01*
Y-185901D01*
Y-185769D01*
Y-185637D01*
Y-185505D01*
Y-185373D01*
Y-185242D01*
Y-185110D01*
Y-184978D01*
Y-184846D01*
Y-184714D01*
Y-184582D01*
Y-184450D01*
Y-184318D01*
Y-184186D01*
Y-184054D01*
Y-183922D01*
Y-183790D01*
Y-183658D01*
Y-183526D01*
Y-183394D01*
Y-183262D01*
Y-183130D01*
Y-182999D01*
Y-182866D01*
Y-182735D01*
Y-182603D01*
Y-182471D01*
Y-182339D01*
Y-182207D01*
Y-182075D01*
Y-181943D01*
Y-181811D01*
Y-181679D01*
Y-181547D01*
Y-181415D01*
Y-181283D01*
Y-181151D01*
Y-181019D01*
Y-180887D01*
Y-180756D01*
Y-180623D01*
Y-180492D01*
Y-180360D01*
Y-180228D01*
Y-180096D01*
Y-179964D01*
Y-179832D01*
Y-179700D01*
Y-179568D01*
Y-179436D01*
Y-179304D01*
Y-179172D01*
Y-179040D01*
Y-178908D01*
Y-178776D01*
Y-178645D01*
Y-178512D01*
Y-178381D01*
Y-178249D01*
Y-178117D01*
Y-177985D01*
Y-177853D01*
Y-177721D01*
Y-177589D01*
Y-177457D01*
Y-177325D01*
Y-177193D01*
Y-177061D01*
Y-176929D01*
Y-176797D01*
Y-176665D01*
Y-176533D01*
Y-176401D01*
Y-176269D01*
Y-176138D01*
Y-176006D01*
Y-175874D01*
Y-175742D01*
Y-175610D01*
Y-175478D01*
Y-175346D01*
Y-175214D01*
Y-175082D01*
Y-174950D01*
Y-174818D01*
Y-174686D01*
Y-174554D01*
Y-174422D01*
Y-174290D01*
Y-174158D01*
Y-174027D01*
Y-173895D01*
Y-173762D01*
Y-173631D01*
Y-173499D01*
Y-173367D01*
Y-173235D01*
Y-173103D01*
Y-172971D01*
Y-172839D01*
Y-172707D01*
Y-172575D01*
Y-172443D01*
Y-172311D01*
Y-172179D01*
Y-172047D01*
Y-171915D01*
Y-171784D01*
Y-171652D01*
Y-171520D01*
Y-171388D01*
Y-171256D01*
Y-171124D01*
Y-170992D01*
Y-170860D01*
Y-170728D01*
Y-170596D01*
Y-170464D01*
Y-170332D01*
Y-170200D01*
Y-170068D01*
Y-169936D01*
Y-169804D01*
Y-169672D01*
Y-169540D01*
Y-169409D01*
Y-169277D01*
Y-169145D01*
Y-169013D01*
Y-168881D01*
Y-168749D01*
Y-168617D01*
Y-168485D01*
Y-168353D01*
Y-168221D01*
Y-168089D01*
Y-167957D01*
Y-167825D01*
Y-167693D01*
Y-167561D01*
Y-167429D01*
Y-167297D01*
Y-167166D01*
Y-167034D01*
Y-166902D01*
Y-166770D01*
Y-166638D01*
Y-166506D01*
Y-166374D01*
Y-166242D01*
Y-166110D01*
Y-165978D01*
Y-165846D01*
Y-165714D01*
Y-165582D01*
Y-165450D01*
Y-165318D01*
Y-165186D01*
Y-165054D01*
Y-164923D01*
Y-164791D01*
Y-164659D01*
Y-164527D01*
Y-164395D01*
Y-164263D01*
Y-164131D01*
Y-163999D01*
X500306D01*
Y-163867D01*
Y-163735D01*
Y-163603D01*
Y-163471D01*
Y-163339D01*
Y-163207D01*
Y-163075D01*
Y-162943D01*
Y-162811D01*
Y-162680D01*
Y-162548D01*
Y-162416D01*
Y-162284D01*
Y-162152D01*
Y-162020D01*
Y-161888D01*
Y-161756D01*
Y-161624D01*
Y-161492D01*
Y-161360D01*
Y-161228D01*
Y-161096D01*
Y-160964D01*
Y-160832D01*
Y-160700D01*
Y-160568D01*
Y-160436D01*
Y-160305D01*
Y-160173D01*
Y-160041D01*
Y-159909D01*
Y-159777D01*
Y-159645D01*
Y-159513D01*
X521549D01*
Y-159645D01*
D02*
G37*
%LPC*%
G36*
X363087Y-133916D02*
X359524D01*
Y-134048D01*
X357677D01*
Y-134180D01*
X356622D01*
Y-134312D01*
X354511D01*
Y-134180D01*
X353587D01*
Y-134048D01*
X349497D01*
Y-133916D01*
X347782D01*
Y-134048D01*
X345275D01*
Y-134180D01*
X343824D01*
Y-134312D01*
X342768D01*
Y-134444D01*
X341976D01*
Y-134576D01*
X341185D01*
Y-134708D01*
X340525D01*
Y-134840D01*
X339865D01*
Y-134972D01*
X339206D01*
Y-135104D01*
X338678D01*
Y-135236D01*
X338150D01*
Y-135367D01*
X337622D01*
Y-135499D01*
X337094D01*
Y-135632D01*
X336699D01*
Y-135763D01*
X336303D01*
Y-135895D01*
X335775D01*
Y-136027D01*
X335379D01*
Y-136159D01*
X334983D01*
Y-136291D01*
X334588D01*
Y-136423D01*
X334324D01*
Y-136555D01*
X333928D01*
Y-136687D01*
X333532D01*
Y-136819D01*
X333268D01*
Y-136951D01*
X332872D01*
Y-137083D01*
X332608D01*
Y-137215D01*
X332213D01*
Y-137347D01*
X331949D01*
Y-137479D01*
X331685D01*
Y-137611D01*
X331289D01*
Y-137743D01*
X331025D01*
Y-137874D01*
X330761D01*
Y-138006D01*
X330497D01*
Y-138138D01*
X330233D01*
Y-138270D01*
X329970D01*
Y-138402D01*
X329706D01*
Y-138534D01*
X329442D01*
Y-138666D01*
X329178D01*
Y-138798D01*
X328914D01*
Y-138930D01*
X328650D01*
Y-139062D01*
X328386D01*
Y-139194D01*
X328122D01*
Y-139326D01*
X327990D01*
Y-139458D01*
X327727D01*
Y-139590D01*
X327463D01*
Y-139722D01*
X327199D01*
Y-139854D01*
X327067D01*
Y-139986D01*
X326803D01*
Y-140118D01*
X326539D01*
Y-140250D01*
X326407D01*
Y-140381D01*
X326143D01*
Y-140513D01*
X326011D01*
Y-140645D01*
X325747D01*
Y-140777D01*
X325616D01*
Y-140909D01*
X325352D01*
Y-141041D01*
X325220D01*
Y-141173D01*
X324956D01*
Y-141305D01*
X324824D01*
Y-141437D01*
X324560D01*
Y-141569D01*
X324428D01*
Y-141701D01*
X324164D01*
Y-141833D01*
X324032D01*
Y-141965D01*
X323768D01*
Y-142097D01*
X323636D01*
Y-142228D01*
X323504D01*
Y-142360D01*
X323241D01*
Y-142493D01*
X323109D01*
Y-142624D01*
X322977D01*
Y-142756D01*
X322713D01*
Y-142888D01*
X322581D01*
Y-143020D01*
X322449D01*
Y-143152D01*
X322317D01*
Y-143284D01*
X322053D01*
Y-143416D01*
X321921D01*
Y-143548D01*
X321789D01*
Y-143680D01*
X321657D01*
Y-143812D01*
X321525D01*
Y-143944D01*
X321261D01*
Y-144076D01*
X321129D01*
Y-144208D01*
X320998D01*
Y-144340D01*
X320866D01*
Y-144472D01*
X320734D01*
Y-144604D01*
X320602D01*
Y-144735D01*
X320338D01*
Y-144867D01*
X320206D01*
Y-144999D01*
X320074D01*
Y-145131D01*
X319942D01*
Y-145263D01*
X319810D01*
Y-145395D01*
X319678D01*
Y-145527D01*
X319546D01*
Y-145659D01*
X319414D01*
Y-145791D01*
X319282D01*
Y-145923D01*
X319150D01*
Y-146055D01*
X319018D01*
Y-146187D01*
X318887D01*
Y-146319D01*
X318755D01*
Y-146451D01*
X318623D01*
Y-146583D01*
X318491D01*
Y-146714D01*
X318359D01*
Y-146847D01*
X318227D01*
Y-146978D01*
X318095D01*
Y-147110D01*
X317963D01*
Y-147242D01*
X317831D01*
Y-147374D01*
X317699D01*
Y-147506D01*
X317567D01*
Y-147638D01*
X317435D01*
Y-147770D01*
X317303D01*
Y-147902D01*
X317171D01*
Y-148034D01*
X317039D01*
Y-148166D01*
Y-148298D01*
X316907D01*
Y-148430D01*
X316775D01*
Y-148562D01*
X316644D01*
Y-148694D01*
X316512D01*
Y-148826D01*
X316380D01*
Y-148958D01*
X316248D01*
Y-149089D01*
Y-149221D01*
X316116D01*
Y-149353D01*
X315984D01*
Y-149485D01*
X315852D01*
Y-149617D01*
X315720D01*
Y-149749D01*
X315588D01*
Y-149881D01*
Y-150013D01*
X315456D01*
Y-150145D01*
X315324D01*
Y-150277D01*
X315192D01*
Y-150409D01*
X315060D01*
Y-150541D01*
Y-150673D01*
X314928D01*
Y-150805D01*
X314796D01*
Y-150937D01*
X314664D01*
Y-151069D01*
Y-151201D01*
X314533D01*
Y-151333D01*
X314401D01*
Y-151464D01*
X314268D01*
Y-151596D01*
Y-151728D01*
X314137D01*
Y-151860D01*
X314005D01*
Y-151992D01*
Y-152124D01*
X313873D01*
Y-152256D01*
X313741D01*
Y-152388D01*
X313609D01*
Y-152520D01*
Y-152652D01*
X313477D01*
Y-152784D01*
X313345D01*
Y-152916D01*
Y-153048D01*
X313213D01*
Y-153180D01*
X313081D01*
Y-153312D01*
Y-153443D01*
X312949D01*
Y-153575D01*
Y-153707D01*
X312817D01*
Y-153840D01*
X312685D01*
Y-153971D01*
Y-154103D01*
X312553D01*
Y-154235D01*
X312421D01*
Y-154367D01*
Y-154499D01*
X312289D01*
Y-154631D01*
Y-154763D01*
X312157D01*
Y-154895D01*
X312026D01*
Y-155027D01*
Y-155159D01*
X311894D01*
Y-155291D01*
Y-155423D01*
X311762D01*
Y-155555D01*
Y-155687D01*
X311630D01*
Y-155819D01*
X311498D01*
Y-155950D01*
Y-156082D01*
X311366D01*
Y-156214D01*
Y-156346D01*
X311234D01*
Y-156478D01*
Y-156610D01*
X311102D01*
Y-156742D01*
Y-156874D01*
X310970D01*
Y-157006D01*
Y-157138D01*
X310838D01*
Y-157270D01*
Y-157402D01*
X310706D01*
Y-157534D01*
Y-157666D01*
X310574D01*
Y-157798D01*
Y-157930D01*
X310442D01*
Y-158062D01*
Y-158194D01*
X310310D01*
Y-158325D01*
Y-158457D01*
X310178D01*
Y-158589D01*
Y-158721D01*
X310046D01*
Y-158853D01*
Y-158985D01*
X309914D01*
Y-159117D01*
Y-159249D01*
X309783D01*
Y-159381D01*
Y-159513D01*
Y-159645D01*
X309651D01*
Y-159777D01*
Y-159909D01*
X309519D01*
Y-160041D01*
Y-160173D01*
X309387D01*
Y-160305D01*
Y-160436D01*
Y-160568D01*
X309255D01*
Y-160700D01*
Y-160832D01*
X309123D01*
Y-160964D01*
Y-161096D01*
Y-161228D01*
X308991D01*
Y-161360D01*
Y-161492D01*
Y-161624D01*
X308859D01*
Y-161756D01*
Y-161888D01*
X308727D01*
Y-162020D01*
Y-162152D01*
Y-162284D01*
X308595D01*
Y-162416D01*
Y-162548D01*
Y-162680D01*
X308463D01*
Y-162811D01*
Y-162943D01*
Y-163075D01*
X308331D01*
Y-163207D01*
Y-163339D01*
Y-163471D01*
X308199D01*
Y-163603D01*
Y-163735D01*
Y-163867D01*
X308067D01*
Y-163999D01*
Y-164131D01*
Y-164263D01*
X307935D01*
Y-164395D01*
Y-164527D01*
Y-164659D01*
Y-164791D01*
X307803D01*
Y-164923D01*
Y-165054D01*
Y-165186D01*
X307672D01*
Y-165318D01*
Y-165450D01*
Y-165582D01*
Y-165714D01*
X307540D01*
Y-165846D01*
Y-165978D01*
Y-166110D01*
Y-166242D01*
X307408D01*
Y-166374D01*
Y-166506D01*
Y-166638D01*
Y-166770D01*
X307276D01*
Y-166902D01*
Y-167034D01*
Y-167166D01*
Y-167297D01*
Y-167429D01*
X307144D01*
Y-167561D01*
Y-167693D01*
Y-167825D01*
Y-167957D01*
X307012D01*
Y-168089D01*
Y-168221D01*
Y-168353D01*
Y-168485D01*
Y-168617D01*
Y-168749D01*
X306880D01*
Y-168881D01*
Y-169013D01*
Y-169145D01*
Y-169277D01*
Y-169409D01*
X306748D01*
Y-169540D01*
Y-169672D01*
Y-169804D01*
Y-169936D01*
Y-170068D01*
Y-170200D01*
Y-170332D01*
X306616D01*
Y-170464D01*
Y-170596D01*
Y-170728D01*
Y-170860D01*
Y-170992D01*
Y-171124D01*
Y-171256D01*
X306484D01*
Y-171388D01*
Y-171520D01*
Y-171652D01*
Y-171784D01*
Y-171915D01*
Y-172047D01*
Y-172179D01*
Y-172311D01*
Y-172443D01*
Y-172575D01*
X306352D01*
Y-172707D01*
Y-172839D01*
Y-172971D01*
Y-173103D01*
Y-173235D01*
Y-173367D01*
Y-173499D01*
Y-173631D01*
Y-173762D01*
Y-173895D01*
Y-174027D01*
Y-174158D01*
Y-174290D01*
Y-174422D01*
Y-174554D01*
X306220D01*
Y-174686D01*
Y-174818D01*
Y-174950D01*
Y-175082D01*
Y-175214D01*
Y-175346D01*
Y-175478D01*
Y-175610D01*
Y-175742D01*
Y-175874D01*
Y-176006D01*
Y-176138D01*
Y-176269D01*
Y-176401D01*
Y-176533D01*
Y-176665D01*
Y-176797D01*
Y-176929D01*
Y-177061D01*
Y-177193D01*
Y-177325D01*
Y-177457D01*
Y-177589D01*
Y-177721D01*
Y-177853D01*
Y-177985D01*
Y-178117D01*
Y-178249D01*
X306352D01*
Y-178381D01*
Y-178512D01*
Y-178645D01*
Y-178776D01*
Y-178908D01*
Y-179040D01*
Y-179172D01*
Y-179304D01*
Y-179436D01*
Y-179568D01*
Y-179700D01*
Y-179832D01*
Y-179964D01*
Y-180096D01*
X306484D01*
Y-180228D01*
Y-180360D01*
Y-180492D01*
Y-180623D01*
Y-180756D01*
Y-180887D01*
Y-181019D01*
Y-181151D01*
Y-181283D01*
Y-181415D01*
X306616D01*
Y-181547D01*
Y-181679D01*
Y-181811D01*
Y-181943D01*
Y-182075D01*
Y-182207D01*
Y-182339D01*
Y-182471D01*
X306748D01*
Y-182603D01*
Y-182735D01*
Y-182866D01*
Y-182999D01*
Y-183130D01*
Y-183262D01*
X306880D01*
Y-183394D01*
Y-183526D01*
Y-183658D01*
Y-183790D01*
Y-183922D01*
Y-184054D01*
X307012D01*
Y-184186D01*
Y-184318D01*
Y-184450D01*
Y-184582D01*
Y-184714D01*
X307144D01*
Y-184846D01*
Y-184978D01*
Y-185110D01*
Y-185242D01*
Y-185373D01*
X307276D01*
Y-185505D01*
Y-185637D01*
Y-185769D01*
Y-185901D01*
X307408D01*
Y-186033D01*
Y-186165D01*
Y-186297D01*
Y-186429D01*
X307540D01*
Y-186561D01*
Y-186693D01*
Y-186825D01*
Y-186957D01*
X307672D01*
Y-187089D01*
Y-187221D01*
Y-187353D01*
Y-187484D01*
X307803D01*
Y-187616D01*
Y-187748D01*
Y-187880D01*
Y-188012D01*
X307935D01*
Y-188144D01*
Y-188276D01*
Y-188408D01*
X308067D01*
Y-188540D01*
Y-188672D01*
Y-188804D01*
X308199D01*
Y-188936D01*
Y-189068D01*
Y-189200D01*
Y-189332D01*
X308331D01*
Y-189464D01*
Y-189596D01*
Y-189728D01*
X308463D01*
Y-189860D01*
Y-189991D01*
Y-190123D01*
X308595D01*
Y-190255D01*
Y-190387D01*
X308727D01*
Y-190519D01*
Y-190651D01*
Y-190783D01*
X308859D01*
Y-190915D01*
Y-191047D01*
Y-191179D01*
X308991D01*
Y-191311D01*
Y-191443D01*
Y-191575D01*
X309123D01*
Y-191707D01*
Y-191839D01*
X309255D01*
Y-191971D01*
Y-192103D01*
Y-192234D01*
X309387D01*
Y-192366D01*
Y-192498D01*
X309519D01*
Y-192630D01*
Y-192762D01*
X309651D01*
Y-192894D01*
Y-193026D01*
Y-193158D01*
X309783D01*
Y-193290D01*
Y-193422D01*
X309914D01*
Y-193554D01*
Y-193686D01*
X310046D01*
Y-193818D01*
Y-193950D01*
Y-194082D01*
X310178D01*
Y-194214D01*
Y-194345D01*
X310310D01*
Y-194478D01*
Y-194609D01*
X310442D01*
Y-194741D01*
Y-194873D01*
X310574D01*
Y-195005D01*
Y-195137D01*
X310706D01*
Y-195269D01*
Y-195401D01*
X310838D01*
Y-195533D01*
Y-195665D01*
X310970D01*
Y-195797D01*
Y-195929D01*
X311102D01*
Y-196061D01*
Y-196193D01*
X311234D01*
Y-196325D01*
Y-196457D01*
X311366D01*
Y-196588D01*
X311498D01*
Y-196720D01*
Y-196852D01*
X311630D01*
Y-196984D01*
Y-197116D01*
X311762D01*
Y-197248D01*
Y-197380D01*
X311894D01*
Y-197512D01*
X312026D01*
Y-197644D01*
Y-197776D01*
X312157D01*
Y-197908D01*
Y-198040D01*
X312289D01*
Y-198172D01*
Y-198304D01*
X312421D01*
Y-198436D01*
X312553D01*
Y-198568D01*
Y-198700D01*
X312685D01*
Y-198832D01*
X312817D01*
Y-198964D01*
Y-199095D01*
X312949D01*
Y-199227D01*
Y-199359D01*
X313081D01*
Y-199491D01*
X313213D01*
Y-199623D01*
Y-199755D01*
X313345D01*
Y-199887D01*
X313477D01*
Y-200019D01*
Y-200151D01*
X313609D01*
Y-200283D01*
X313741D01*
Y-200415D01*
X313873D01*
Y-200547D01*
Y-200679D01*
X314005D01*
Y-200811D01*
X314137D01*
Y-200943D01*
Y-201075D01*
X314268D01*
Y-201206D01*
X314401D01*
Y-201338D01*
X314533D01*
Y-201470D01*
Y-201602D01*
X314664D01*
Y-201734D01*
X314796D01*
Y-201866D01*
X314928D01*
Y-201998D01*
Y-202130D01*
X315060D01*
Y-202262D01*
X315192D01*
Y-202394D01*
X315324D01*
Y-202526D01*
Y-202658D01*
X315456D01*
Y-202790D01*
X315588D01*
Y-202922D01*
X315720D01*
Y-203054D01*
X315852D01*
Y-203186D01*
Y-203318D01*
X315984D01*
Y-203449D01*
X316116D01*
Y-203582D01*
X316248D01*
Y-203713D01*
X316380D01*
Y-203845D01*
X316512D01*
Y-203977D01*
X316644D01*
Y-204109D01*
Y-204241D01*
X316775D01*
Y-204373D01*
X316907D01*
Y-204505D01*
X317039D01*
Y-204637D01*
X317171D01*
Y-204769D01*
X317303D01*
Y-204901D01*
X317435D01*
Y-205033D01*
X317567D01*
Y-205165D01*
X317699D01*
Y-205297D01*
X317831D01*
Y-205429D01*
Y-205560D01*
X317963D01*
Y-205692D01*
X318095D01*
Y-205824D01*
X318227D01*
Y-205956D01*
X318359D01*
Y-206088D01*
X318491D01*
Y-206220D01*
X318623D01*
Y-206352D01*
X318755D01*
Y-206484D01*
X318887D01*
Y-206616D01*
X319018D01*
Y-206748D01*
X319150D01*
Y-206880D01*
X319282D01*
Y-207012D01*
X319414D01*
Y-207144D01*
X319678D01*
Y-207276D01*
X319810D01*
Y-207408D01*
X319942D01*
Y-207540D01*
X320074D01*
Y-207672D01*
X320206D01*
Y-207804D01*
X320338D01*
Y-207936D01*
X320470D01*
Y-208067D01*
X320602D01*
Y-208199D01*
X320734D01*
Y-208331D01*
X320866D01*
Y-208463D01*
X321129D01*
Y-208595D01*
X321261D01*
Y-208727D01*
X321393D01*
Y-208859D01*
X321525D01*
Y-208991D01*
X321657D01*
Y-209123D01*
X321921D01*
Y-209255D01*
X322053D01*
Y-209387D01*
X322185D01*
Y-209519D01*
X322317D01*
Y-209651D01*
X322581D01*
Y-209783D01*
X322713D01*
Y-209915D01*
X322845D01*
Y-210047D01*
X322977D01*
Y-210179D01*
X323241D01*
Y-210310D01*
X323373D01*
Y-210442D01*
X323504D01*
Y-210574D01*
X323768D01*
Y-210706D01*
X323900D01*
Y-210838D01*
X324164D01*
Y-210970D01*
X324296D01*
Y-211102D01*
X324428D01*
Y-211234D01*
X324692D01*
Y-211366D01*
X324824D01*
Y-211498D01*
X325088D01*
Y-211630D01*
X325220D01*
Y-211762D01*
X325484D01*
Y-211894D01*
X325616D01*
Y-212026D01*
X325880D01*
Y-212158D01*
X326011D01*
Y-212290D01*
X326275D01*
Y-212421D01*
X326539D01*
Y-212554D01*
X326671D01*
Y-212685D01*
X326935D01*
Y-212817D01*
X327199D01*
Y-212949D01*
X327331D01*
Y-213081D01*
X327595D01*
Y-213213D01*
X327859D01*
Y-213345D01*
X328122D01*
Y-213477D01*
X328254D01*
Y-213609D01*
X328518D01*
Y-213741D01*
X328782D01*
Y-213873D01*
X329046D01*
Y-214005D01*
X329310D01*
Y-214137D01*
X329574D01*
Y-214269D01*
X329838D01*
Y-214401D01*
X330102D01*
Y-214533D01*
X330365D01*
Y-214664D01*
X330629D01*
Y-214796D01*
X330893D01*
Y-214928D01*
X331157D01*
Y-215060D01*
X331553D01*
Y-215192D01*
X331817D01*
Y-215324D01*
X332081D01*
Y-215456D01*
X332477D01*
Y-215588D01*
X332740D01*
Y-215720D01*
X333004D01*
Y-215852D01*
X333400D01*
Y-215984D01*
X333796D01*
Y-216116D01*
X334060D01*
Y-216248D01*
X334456D01*
Y-216380D01*
X334851D01*
Y-216512D01*
X335247D01*
Y-216644D01*
X335643D01*
Y-216776D01*
X336039D01*
Y-216907D01*
X336435D01*
Y-217040D01*
X336963D01*
Y-217171D01*
X337358D01*
Y-217303D01*
X337886D01*
Y-217435D01*
X338414D01*
Y-217567D01*
X338942D01*
Y-217699D01*
X339469D01*
Y-217831D01*
X340129D01*
Y-217963D01*
X340789D01*
Y-218095D01*
X341581D01*
Y-218227D01*
X342372D01*
Y-218359D01*
X343296D01*
Y-218491D01*
X344483D01*
Y-218623D01*
X346067D01*
Y-218755D01*
X352532D01*
Y-218623D01*
X354115D01*
Y-218491D01*
X355171D01*
Y-218359D01*
X355698D01*
Y-218491D01*
X356886D01*
Y-218623D01*
X358073D01*
Y-218755D01*
X364274D01*
Y-218623D01*
X365726D01*
Y-218491D01*
X366913D01*
Y-218359D01*
X367705D01*
Y-218227D01*
X368497D01*
Y-218095D01*
X369288D01*
Y-217963D01*
X369948D01*
Y-217831D01*
X370476D01*
Y-217699D01*
X371135D01*
Y-217567D01*
X371663D01*
Y-217435D01*
X372191D01*
Y-217303D01*
X372587D01*
Y-217171D01*
X373115D01*
Y-217040D01*
X373510D01*
Y-216907D01*
X373906D01*
Y-216776D01*
X374434D01*
Y-216644D01*
X374830D01*
Y-216512D01*
X375094D01*
Y-216380D01*
X375490D01*
Y-216248D01*
X375885D01*
Y-216116D01*
X376281D01*
Y-215984D01*
X376545D01*
Y-215852D01*
X376941D01*
Y-215720D01*
X377205D01*
Y-215588D01*
X377601D01*
Y-215456D01*
X377864D01*
Y-215324D01*
X378128D01*
Y-215192D01*
X378524D01*
Y-215060D01*
X378788D01*
Y-214928D01*
X379052D01*
Y-214796D01*
X379316D01*
Y-214664D01*
X379580D01*
Y-214533D01*
X379844D01*
Y-214401D01*
X380107D01*
Y-214269D01*
X380371D01*
Y-214137D01*
X380635D01*
Y-214005D01*
X380899D01*
Y-213873D01*
X381163D01*
Y-213741D01*
X381427D01*
Y-213609D01*
X381691D01*
Y-213477D01*
X381955D01*
Y-213345D01*
X382086D01*
Y-213213D01*
X382350D01*
Y-213081D01*
X382614D01*
Y-212949D01*
X382746D01*
Y-212817D01*
X383010D01*
Y-212685D01*
X383274D01*
Y-212554D01*
X383406D01*
Y-212421D01*
X383670D01*
Y-212290D01*
X383934D01*
Y-212158D01*
X384066D01*
Y-212026D01*
X384330D01*
Y-211894D01*
X384462D01*
Y-211762D01*
X384725D01*
Y-211630D01*
X384857D01*
Y-211498D01*
X385121D01*
Y-211366D01*
X385253D01*
Y-211234D01*
X385517D01*
Y-211102D01*
X385649D01*
Y-210970D01*
X385781D01*
Y-210838D01*
X386045D01*
Y-210706D01*
X386177D01*
Y-210574D01*
X386441D01*
Y-210442D01*
X386572D01*
Y-210310D01*
X386704D01*
Y-210179D01*
X386968D01*
Y-210047D01*
X387100D01*
Y-209915D01*
X387232D01*
Y-209783D01*
X387364D01*
Y-209651D01*
X387628D01*
Y-209519D01*
X387760D01*
Y-209387D01*
X387892D01*
Y-209255D01*
X388024D01*
Y-209123D01*
X388288D01*
Y-208991D01*
X388420D01*
Y-208859D01*
X388552D01*
Y-208727D01*
X388684D01*
Y-208595D01*
X388816D01*
Y-208463D01*
X388947D01*
Y-208331D01*
X389211D01*
Y-208199D01*
X389343D01*
Y-208067D01*
X389475D01*
Y-207936D01*
X389607D01*
Y-207804D01*
X389739D01*
Y-207672D01*
X389871D01*
Y-207540D01*
X390003D01*
Y-207408D01*
X390135D01*
Y-207276D01*
X390267D01*
Y-207144D01*
X390399D01*
Y-207012D01*
X390531D01*
Y-206880D01*
X390663D01*
Y-206748D01*
X390795D01*
Y-206616D01*
X390927D01*
Y-206484D01*
X391059D01*
Y-206352D01*
X391190D01*
Y-206220D01*
X391323D01*
Y-206088D01*
X391454D01*
Y-205956D01*
X391718D01*
Y-205824D01*
X391850D01*
Y-205692D01*
X391982D01*
Y-205560D01*
X392114D01*
Y-205429D01*
X392246D01*
Y-205297D01*
X392378D01*
Y-205165D01*
X392510D01*
Y-205033D01*
X392642D01*
Y-204901D01*
X392774D01*
Y-204769D01*
X392906D01*
Y-204637D01*
X393038D01*
Y-204505D01*
X393170D01*
Y-204373D01*
X393302D01*
Y-204241D01*
X393433D01*
Y-204109D01*
X393565D01*
Y-203977D01*
X393698D01*
Y-203845D01*
X393829D01*
Y-203713D01*
X393961D01*
Y-203582D01*
X394093D01*
Y-203449D01*
X394225D01*
Y-203318D01*
X394357D01*
Y-203186D01*
X394489D01*
Y-203054D01*
X394621D01*
Y-202922D01*
X394753D01*
Y-202790D01*
X394885D01*
Y-202658D01*
X395017D01*
Y-202526D01*
X395281D01*
Y-202394D01*
X395413D01*
Y-202262D01*
X395545D01*
Y-202130D01*
X395677D01*
Y-201998D01*
X395808D01*
Y-201866D01*
X395940D01*
Y-201734D01*
X396072D01*
Y-201602D01*
X396204D01*
Y-201470D01*
X396336D01*
Y-201338D01*
X396468D01*
Y-201206D01*
X396600D01*
Y-201075D01*
X396732D01*
Y-200943D01*
X396864D01*
Y-200811D01*
X396996D01*
Y-200679D01*
X397128D01*
Y-200547D01*
X397260D01*
Y-200415D01*
X397392D01*
Y-200283D01*
X397524D01*
Y-200151D01*
X397656D01*
Y-200019D01*
X397788D01*
Y-199887D01*
X397920D01*
Y-199755D01*
X398051D01*
Y-199623D01*
X398184D01*
Y-199491D01*
X398315D01*
Y-199359D01*
X398447D01*
Y-199227D01*
X398579D01*
Y-199095D01*
X398711D01*
Y-198964D01*
X398843D01*
Y-198832D01*
X398975D01*
Y-198700D01*
X399107D01*
Y-198568D01*
X399239D01*
Y-198436D01*
X399371D01*
Y-198304D01*
X399503D01*
Y-198172D01*
X399635D01*
Y-198040D01*
X399767D01*
Y-197908D01*
X399899D01*
Y-197776D01*
X400031D01*
Y-197644D01*
X400163D01*
Y-197512D01*
X400294D01*
Y-197380D01*
X400426D01*
Y-197248D01*
X400558D01*
Y-197116D01*
X400690D01*
Y-196984D01*
X400822D01*
Y-196852D01*
X400954D01*
Y-196720D01*
X401086D01*
Y-196588D01*
X401218D01*
Y-196457D01*
X401350D01*
Y-196325D01*
X401482D01*
Y-196193D01*
X401614D01*
Y-196061D01*
X401746D01*
Y-195929D01*
X401878D01*
Y-195797D01*
X402010D01*
Y-195665D01*
X402142D01*
Y-195533D01*
X402274D01*
Y-195401D01*
X402406D01*
Y-195269D01*
X402537D01*
Y-195137D01*
X402669D01*
Y-195005D01*
X402801D01*
Y-194873D01*
Y-194741D01*
X402933D01*
Y-194609D01*
X403065D01*
Y-194478D01*
X403197D01*
Y-194345D01*
X403329D01*
Y-194214D01*
X403461D01*
Y-194082D01*
X403593D01*
Y-193950D01*
X403725D01*
Y-193818D01*
X403857D01*
Y-193686D01*
Y-193554D01*
X403989D01*
Y-193422D01*
X404121D01*
Y-193290D01*
X404253D01*
Y-193158D01*
X404385D01*
Y-193026D01*
X404517D01*
Y-192894D01*
X404649D01*
Y-192762D01*
Y-192630D01*
X404781D01*
Y-192498D01*
X404912D01*
Y-192366D01*
X405044D01*
Y-192234D01*
X405176D01*
Y-192103D01*
X405308D01*
Y-191971D01*
Y-191839D01*
X405440D01*
Y-191707D01*
X405572D01*
Y-191575D01*
X405704D01*
Y-191443D01*
X405836D01*
Y-191311D01*
Y-191179D01*
X405968D01*
Y-191047D01*
X406100D01*
Y-190915D01*
X406232D01*
Y-190783D01*
X406364D01*
Y-190651D01*
Y-190519D01*
X406496D01*
Y-190387D01*
X406628D01*
Y-190255D01*
X406760D01*
Y-190123D01*
Y-189991D01*
X406892D01*
Y-189860D01*
X407024D01*
Y-189728D01*
X407155D01*
Y-189596D01*
Y-189464D01*
X407287D01*
Y-189332D01*
X407419D01*
Y-189200D01*
Y-189068D01*
X407551D01*
Y-188936D01*
X407683D01*
Y-188804D01*
Y-188672D01*
X407815D01*
Y-188540D01*
X407947D01*
Y-188408D01*
Y-188276D01*
X408079D01*
Y-188144D01*
X408211D01*
Y-188012D01*
Y-187880D01*
X408343D01*
Y-187748D01*
X408475D01*
Y-187616D01*
Y-187484D01*
X408607D01*
Y-187353D01*
X408739D01*
Y-187221D01*
Y-187089D01*
X408871D01*
Y-186957D01*
Y-186825D01*
X409003D01*
Y-186693D01*
X409135D01*
Y-186561D01*
Y-186429D01*
X409267D01*
Y-186297D01*
Y-186165D01*
X409398D01*
Y-186033D01*
X409530D01*
Y-185901D01*
Y-185769D01*
X409662D01*
Y-185637D01*
Y-185505D01*
X409794D01*
Y-185373D01*
Y-185242D01*
X409926D01*
Y-185110D01*
Y-184978D01*
X410058D01*
Y-184846D01*
Y-184714D01*
X410190D01*
Y-184582D01*
Y-184450D01*
X410322D01*
Y-184318D01*
Y-184186D01*
X410454D01*
Y-184054D01*
Y-183922D01*
X410586D01*
Y-183790D01*
Y-183658D01*
Y-183526D01*
X410718D01*
Y-183394D01*
Y-183262D01*
X410850D01*
Y-183130D01*
Y-182999D01*
X410982D01*
Y-182866D01*
Y-182735D01*
Y-182603D01*
X411114D01*
Y-182471D01*
Y-182339D01*
Y-182207D01*
X411246D01*
Y-182075D01*
Y-181943D01*
X411378D01*
Y-181811D01*
Y-181679D01*
Y-181547D01*
X411510D01*
Y-181415D01*
Y-181283D01*
Y-181151D01*
Y-181019D01*
X411642D01*
Y-180887D01*
Y-180756D01*
Y-180623D01*
X411773D01*
Y-180492D01*
Y-180360D01*
Y-180228D01*
Y-180096D01*
X411905D01*
Y-179964D01*
Y-179832D01*
Y-179700D01*
Y-179568D01*
Y-179436D01*
X412037D01*
Y-179304D01*
Y-179172D01*
Y-179040D01*
Y-178908D01*
Y-178776D01*
X412169D01*
Y-178645D01*
Y-178512D01*
Y-178381D01*
Y-178249D01*
Y-178117D01*
Y-177985D01*
Y-177853D01*
Y-177721D01*
X412301D01*
Y-177589D01*
Y-177457D01*
Y-177325D01*
Y-177193D01*
Y-177061D01*
Y-176929D01*
Y-176797D01*
Y-176665D01*
Y-176533D01*
Y-176401D01*
Y-176269D01*
Y-176138D01*
Y-176006D01*
Y-175874D01*
Y-175742D01*
Y-175610D01*
Y-175478D01*
Y-175346D01*
Y-175214D01*
Y-175082D01*
Y-174950D01*
X412169D01*
Y-174818D01*
Y-174686D01*
Y-174554D01*
Y-174422D01*
Y-174290D01*
Y-174158D01*
Y-174027D01*
Y-173895D01*
X412037D01*
Y-173762D01*
Y-173631D01*
Y-173499D01*
Y-173367D01*
Y-173235D01*
X411905D01*
Y-173103D01*
Y-172971D01*
Y-172839D01*
Y-172707D01*
Y-172575D01*
X411773D01*
Y-172443D01*
Y-172311D01*
Y-172179D01*
Y-172047D01*
X411642D01*
Y-171915D01*
Y-171784D01*
Y-171652D01*
X411510D01*
Y-171520D01*
Y-171388D01*
Y-171256D01*
Y-171124D01*
X411378D01*
Y-170992D01*
Y-170860D01*
Y-170728D01*
X411246D01*
Y-170596D01*
Y-170464D01*
X411114D01*
Y-170332D01*
Y-170200D01*
Y-170068D01*
X410982D01*
Y-169936D01*
Y-169804D01*
Y-169672D01*
X410850D01*
Y-169540D01*
Y-169409D01*
X410718D01*
Y-169277D01*
Y-169145D01*
X410586D01*
Y-169013D01*
Y-168881D01*
Y-168749D01*
X410454D01*
Y-168617D01*
Y-168485D01*
X410322D01*
Y-168353D01*
Y-168221D01*
X410190D01*
Y-168089D01*
Y-167957D01*
X410058D01*
Y-167825D01*
Y-167693D01*
X409926D01*
Y-167561D01*
Y-167429D01*
X409794D01*
Y-167297D01*
Y-167166D01*
X409662D01*
Y-167034D01*
Y-166902D01*
X409530D01*
Y-166770D01*
X409398D01*
Y-166638D01*
Y-166506D01*
X409267D01*
Y-166374D01*
Y-166242D01*
X409135D01*
Y-166110D01*
Y-165978D01*
X409003D01*
Y-165846D01*
X408871D01*
Y-165714D01*
Y-165582D01*
X408739D01*
Y-165450D01*
Y-165318D01*
X408607D01*
Y-165186D01*
X408475D01*
Y-165054D01*
Y-164923D01*
X408343D01*
Y-164791D01*
X408211D01*
Y-164659D01*
Y-164527D01*
X408079D01*
Y-164395D01*
X407947D01*
Y-164263D01*
Y-164131D01*
X407815D01*
Y-163999D01*
X407683D01*
Y-163867D01*
Y-163735D01*
X407551D01*
Y-163603D01*
X407419D01*
Y-163471D01*
Y-163339D01*
X407287D01*
Y-163207D01*
X407155D01*
Y-163075D01*
X407024D01*
Y-162943D01*
Y-162811D01*
X406892D01*
Y-162680D01*
X406760D01*
Y-162548D01*
X406628D01*
Y-162416D01*
Y-162284D01*
X406496D01*
Y-162152D01*
X406364D01*
Y-162020D01*
X406232D01*
Y-161888D01*
Y-161756D01*
X406100D01*
Y-161624D01*
X405968D01*
Y-161492D01*
X405836D01*
Y-161360D01*
X405704D01*
Y-161228D01*
Y-161096D01*
X405572D01*
Y-160964D01*
X405440D01*
Y-160832D01*
X405308D01*
Y-160700D01*
X405176D01*
Y-160568D01*
Y-160436D01*
X405044D01*
Y-160305D01*
X404912D01*
Y-160173D01*
X404781D01*
Y-160041D01*
X404649D01*
Y-159909D01*
X404517D01*
Y-159777D01*
X404385D01*
Y-159645D01*
Y-159513D01*
X404253D01*
Y-159381D01*
X404121D01*
Y-159249D01*
X403989D01*
Y-159117D01*
X403857D01*
Y-158985D01*
X403725D01*
Y-158853D01*
X403593D01*
Y-158721D01*
X403461D01*
Y-158589D01*
Y-158457D01*
X403329D01*
Y-158325D01*
X403197D01*
Y-158194D01*
X403065D01*
Y-158062D01*
X402933D01*
Y-157930D01*
X402801D01*
Y-157798D01*
X402669D01*
Y-157666D01*
X402537D01*
Y-157534D01*
X402406D01*
Y-157402D01*
X402274D01*
Y-157270D01*
X402142D01*
Y-157138D01*
X402010D01*
Y-157006D01*
X401878D01*
Y-156874D01*
Y-156742D01*
X401746D01*
Y-156610D01*
X401614D01*
Y-156478D01*
X401482D01*
Y-156346D01*
X401350D01*
Y-156214D01*
X401218D01*
Y-156082D01*
X401086D01*
Y-155950D01*
X400954D01*
Y-155819D01*
X400822D01*
Y-155687D01*
X400690D01*
Y-155555D01*
X400558D01*
Y-155423D01*
X400426D01*
Y-155291D01*
X400294D01*
Y-155159D01*
X400163D01*
Y-155027D01*
X400031D01*
Y-154895D01*
X399899D01*
Y-154763D01*
X399767D01*
Y-154631D01*
X399635D01*
Y-154499D01*
X399503D01*
Y-154367D01*
X399371D01*
Y-154235D01*
X399239D01*
Y-154103D01*
X399107D01*
Y-153971D01*
X398975D01*
Y-153840D01*
X398843D01*
Y-153707D01*
X398711D01*
Y-153575D01*
X398579D01*
Y-153443D01*
X398447D01*
Y-153312D01*
X398315D01*
Y-153180D01*
X398184D01*
Y-153048D01*
X398051D01*
Y-152916D01*
X397920D01*
Y-152784D01*
X397788D01*
Y-152652D01*
X397656D01*
Y-152520D01*
X397524D01*
Y-152388D01*
X397392D01*
Y-152256D01*
X397128D01*
Y-152124D01*
X396996D01*
Y-151992D01*
X396864D01*
Y-151860D01*
X396732D01*
Y-151728D01*
X396600D01*
Y-151596D01*
X396468D01*
Y-151464D01*
X396336D01*
Y-151333D01*
X396204D01*
Y-151201D01*
X396072D01*
Y-151069D01*
X395940D01*
Y-150937D01*
X395808D01*
Y-150805D01*
X395677D01*
Y-150673D01*
X395545D01*
Y-150541D01*
X395413D01*
Y-150409D01*
X395281D01*
Y-150277D01*
X395149D01*
Y-150145D01*
X395017D01*
Y-150013D01*
X394885D01*
Y-149881D01*
X394753D01*
Y-149749D01*
X394621D01*
Y-149617D01*
X394489D01*
Y-149485D01*
X394357D01*
Y-149353D01*
X394225D01*
Y-149221D01*
X393961D01*
Y-149089D01*
X393829D01*
Y-148958D01*
X393698D01*
Y-148826D01*
X393565D01*
Y-148694D01*
X393433D01*
Y-148562D01*
X393302D01*
Y-148430D01*
X393170D01*
Y-148298D01*
X393038D01*
Y-148166D01*
X392906D01*
Y-148034D01*
X392774D01*
Y-147902D01*
X392642D01*
Y-147770D01*
X392510D01*
Y-147638D01*
X392378D01*
Y-147506D01*
X392246D01*
Y-147374D01*
X392114D01*
Y-147242D01*
X391982D01*
Y-147110D01*
X391850D01*
Y-146978D01*
X391718D01*
Y-146847D01*
X391586D01*
Y-146714D01*
X391454D01*
Y-146583D01*
X391323D01*
Y-146451D01*
X391190D01*
Y-146319D01*
X391059D01*
Y-146187D01*
X390927D01*
Y-146055D01*
X390795D01*
Y-145923D01*
X390663D01*
Y-145791D01*
X390531D01*
Y-145659D01*
X390399D01*
Y-145527D01*
X390267D01*
Y-145395D01*
X390135D01*
Y-145263D01*
X390003D01*
Y-145131D01*
X389871D01*
Y-144999D01*
X389607D01*
Y-144867D01*
X389475D01*
Y-144735D01*
X389343D01*
Y-144604D01*
X389211D01*
Y-144472D01*
X389080D01*
Y-144340D01*
X388947D01*
Y-144208D01*
X388816D01*
Y-144076D01*
X388684D01*
Y-143944D01*
X388420D01*
Y-143812D01*
X388288D01*
Y-143680D01*
X388156D01*
Y-143548D01*
X388024D01*
Y-143416D01*
X387760D01*
Y-143284D01*
X387628D01*
Y-143152D01*
X387496D01*
Y-143020D01*
X387364D01*
Y-142888D01*
X387100D01*
Y-142756D01*
X386968D01*
Y-142624D01*
X386837D01*
Y-142493D01*
X386704D01*
Y-142360D01*
X386441D01*
Y-142228D01*
X386309D01*
Y-142097D01*
X386045D01*
Y-141965D01*
X385913D01*
Y-141833D01*
X385781D01*
Y-141701D01*
X385517D01*
Y-141569D01*
X385385D01*
Y-141437D01*
X385121D01*
Y-141305D01*
X384989D01*
Y-141173D01*
X384725D01*
Y-141041D01*
X384594D01*
Y-140909D01*
X384330D01*
Y-140777D01*
X384198D01*
Y-140645D01*
X383934D01*
Y-140513D01*
X383802D01*
Y-140381D01*
X383538D01*
Y-140250D01*
X383406D01*
Y-140118D01*
X383142D01*
Y-139986D01*
X382878D01*
Y-139854D01*
X382746D01*
Y-139722D01*
X382482D01*
Y-139590D01*
X382219D01*
Y-139458D01*
X381955D01*
Y-139326D01*
X381823D01*
Y-139194D01*
X381559D01*
Y-139062D01*
X381295D01*
Y-138930D01*
X381031D01*
Y-138798D01*
X380767D01*
Y-138666D01*
X380503D01*
Y-138534D01*
X380239D01*
Y-138402D01*
X379976D01*
Y-138270D01*
X379712D01*
Y-138138D01*
X379448D01*
Y-138006D01*
X379184D01*
Y-137874D01*
X378920D01*
Y-137743D01*
X378656D01*
Y-137611D01*
X378260D01*
Y-137479D01*
X377996D01*
Y-137347D01*
X377733D01*
Y-137215D01*
X377337D01*
Y-137083D01*
X377073D01*
Y-136951D01*
X376677D01*
Y-136819D01*
X376413D01*
Y-136687D01*
X376017D01*
Y-136555D01*
X375621D01*
Y-136423D01*
X375358D01*
Y-136291D01*
X374962D01*
Y-136159D01*
X374566D01*
Y-136027D01*
X374170D01*
Y-135895D01*
X373774D01*
Y-135763D01*
X373246D01*
Y-135632D01*
X372851D01*
Y-135499D01*
X372323D01*
Y-135367D01*
X371927D01*
Y-135236D01*
X371399D01*
Y-135104D01*
X370740D01*
Y-134972D01*
X370212D01*
Y-134840D01*
X369552D01*
Y-134708D01*
X368892D01*
Y-134576D01*
X368101D01*
Y-134444D01*
X367309D01*
Y-134312D01*
X366254D01*
Y-134180D01*
X365066D01*
Y-134048D01*
X363087D01*
Y-133916D01*
D02*
G37*
G36*
X450037Y-164395D02*
X448453D01*
Y-164527D01*
X447398D01*
Y-164659D01*
X446738D01*
Y-164791D01*
X446210D01*
Y-164923D01*
X445814D01*
Y-165054D01*
X445419D01*
Y-165186D01*
X445023D01*
Y-165318D01*
X444759D01*
Y-165450D01*
X444495D01*
Y-165582D01*
X444231D01*
Y-165714D01*
X443967D01*
Y-165846D01*
X443703D01*
Y-165978D01*
X443439D01*
Y-166110D01*
X443307D01*
Y-166242D01*
X443044D01*
Y-166374D01*
X442912D01*
Y-166506D01*
X442648D01*
Y-166638D01*
X442516D01*
Y-166770D01*
X442384D01*
Y-166902D01*
X442252D01*
Y-167034D01*
X441988D01*
Y-167166D01*
X441856D01*
Y-167297D01*
X441724D01*
Y-167429D01*
X441592D01*
Y-167561D01*
X441460D01*
Y-167693D01*
X441328D01*
Y-167825D01*
X441196D01*
Y-167957D01*
X441064D01*
Y-168089D01*
X440932D01*
Y-168221D01*
X440801D01*
Y-168353D01*
X440669D01*
Y-168485D01*
Y-168617D01*
X440537D01*
Y-168749D01*
X440405D01*
Y-168881D01*
X440273D01*
Y-169013D01*
X440141D01*
Y-169145D01*
Y-169277D01*
X440009D01*
Y-169409D01*
X439877D01*
Y-169540D01*
Y-169672D01*
X439745D01*
Y-169804D01*
X439613D01*
Y-169936D01*
Y-170068D01*
X439481D01*
Y-170200D01*
Y-170332D01*
X439349D01*
Y-170464D01*
Y-170596D01*
X439217D01*
Y-170728D01*
Y-170860D01*
X439085D01*
Y-170992D01*
Y-171124D01*
X438953D01*
Y-171256D01*
Y-171388D01*
X438821D01*
Y-171520D01*
Y-171652D01*
Y-171784D01*
X438690D01*
Y-171915D01*
Y-172047D01*
Y-172179D01*
X438558D01*
Y-172311D01*
Y-172443D01*
Y-172575D01*
X438426D01*
Y-172707D01*
Y-172839D01*
Y-172971D01*
Y-173103D01*
X438294D01*
Y-173235D01*
Y-173367D01*
Y-173499D01*
Y-173631D01*
X438162D01*
Y-173762D01*
Y-173895D01*
Y-174027D01*
Y-174158D01*
Y-174290D01*
Y-174422D01*
Y-174554D01*
Y-174686D01*
X438030D01*
Y-174818D01*
Y-174950D01*
Y-175082D01*
Y-175214D01*
Y-175346D01*
Y-175478D01*
Y-175610D01*
Y-175742D01*
Y-175874D01*
Y-176006D01*
Y-176138D01*
Y-176269D01*
Y-176401D01*
Y-176533D01*
Y-176665D01*
Y-176797D01*
Y-176929D01*
Y-177061D01*
Y-177193D01*
Y-177325D01*
X438162D01*
Y-177457D01*
Y-177589D01*
Y-177721D01*
Y-177853D01*
Y-177985D01*
Y-178117D01*
Y-178249D01*
X438294D01*
Y-178381D01*
Y-178512D01*
Y-178645D01*
Y-178776D01*
Y-178908D01*
X438426D01*
Y-179040D01*
Y-179172D01*
Y-179304D01*
X438558D01*
Y-179436D01*
Y-179568D01*
Y-179700D01*
X438690D01*
Y-179832D01*
Y-179964D01*
Y-180096D01*
X438821D01*
Y-180228D01*
Y-180360D01*
Y-180492D01*
X438953D01*
Y-180623D01*
Y-180756D01*
X439085D01*
Y-180887D01*
Y-181019D01*
X439217D01*
Y-181151D01*
Y-181283D01*
X439349D01*
Y-181415D01*
Y-181547D01*
X439481D01*
Y-181679D01*
Y-181811D01*
X439613D01*
Y-181943D01*
Y-182075D01*
X439745D01*
Y-182207D01*
X439877D01*
Y-182339D01*
Y-182471D01*
X440009D01*
Y-182603D01*
Y-182735D01*
X440141D01*
Y-182866D01*
X440273D01*
Y-182999D01*
X440405D01*
Y-183130D01*
Y-183262D01*
X440537D01*
Y-183394D01*
X440669D01*
Y-183526D01*
X440801D01*
Y-183658D01*
X440932D01*
Y-183790D01*
X441064D01*
Y-183922D01*
X441196D01*
Y-184054D01*
Y-184186D01*
X441328D01*
Y-184318D01*
X441460D01*
Y-184450D01*
X441592D01*
Y-184582D01*
X441856D01*
Y-184714D01*
X441988D01*
Y-184846D01*
X442120D01*
Y-184978D01*
X442252D01*
Y-185110D01*
X442384D01*
Y-185242D01*
X442516D01*
Y-185373D01*
X442780D01*
Y-185505D01*
X442912D01*
Y-185637D01*
X443044D01*
Y-185769D01*
X443307D01*
Y-185901D01*
X443571D01*
Y-186033D01*
X443703D01*
Y-186165D01*
X443967D01*
Y-186297D01*
X444231D01*
Y-186429D01*
X444495D01*
Y-186561D01*
X444759D01*
Y-186693D01*
X445023D01*
Y-186825D01*
X445287D01*
Y-186957D01*
X445682D01*
Y-187089D01*
X446078D01*
Y-187221D01*
X446474D01*
Y-187353D01*
X447002D01*
Y-187484D01*
X447662D01*
Y-187616D01*
X448585D01*
Y-187748D01*
X449905D01*
Y-187616D01*
X450828D01*
Y-187484D01*
X451488D01*
Y-187353D01*
X452016D01*
Y-187221D01*
X452411D01*
Y-187089D01*
X452807D01*
Y-186957D01*
X453071D01*
Y-186825D01*
X453467D01*
Y-186693D01*
X453731D01*
Y-186561D01*
X453995D01*
Y-186429D01*
X454259D01*
Y-186297D01*
X454523D01*
Y-186165D01*
X454655D01*
Y-186033D01*
X454918D01*
Y-185901D01*
X455182D01*
Y-185769D01*
X455314D01*
Y-185637D01*
X455578D01*
Y-185505D01*
X455710D01*
Y-185373D01*
X455842D01*
Y-185242D01*
X456106D01*
Y-185110D01*
X456238D01*
Y-184978D01*
X456370D01*
Y-184846D01*
X456502D01*
Y-184714D01*
X456634D01*
Y-184582D01*
X456766D01*
Y-184450D01*
X456898D01*
Y-184318D01*
X457029D01*
Y-184186D01*
X457161D01*
Y-184054D01*
X457293D01*
Y-183922D01*
X457425D01*
Y-183790D01*
X457557D01*
Y-183658D01*
X457689D01*
Y-183526D01*
X457821D01*
Y-183394D01*
Y-183262D01*
X457953D01*
Y-183130D01*
X458085D01*
Y-182999D01*
X458217D01*
Y-182866D01*
Y-182735D01*
X458349D01*
Y-182603D01*
X458481D01*
Y-182471D01*
X458613D01*
Y-182339D01*
Y-182207D01*
X458745D01*
Y-182075D01*
Y-181943D01*
X458877D01*
Y-181811D01*
X459008D01*
Y-181679D01*
Y-181547D01*
X459141D01*
Y-181415D01*
Y-181283D01*
X459272D01*
Y-181151D01*
Y-181019D01*
X459404D01*
Y-180887D01*
Y-180756D01*
Y-180623D01*
X459536D01*
Y-180492D01*
Y-180360D01*
X459668D01*
Y-180228D01*
Y-180096D01*
Y-179964D01*
X459800D01*
Y-179832D01*
Y-179700D01*
Y-179568D01*
X459932D01*
Y-179436D01*
Y-179304D01*
Y-179172D01*
X460064D01*
Y-179040D01*
Y-178908D01*
Y-178776D01*
Y-178645D01*
X460196D01*
Y-178512D01*
Y-178381D01*
Y-178249D01*
Y-178117D01*
Y-177985D01*
X460328D01*
Y-177853D01*
Y-177721D01*
Y-177589D01*
Y-177457D01*
Y-177325D01*
Y-177193D01*
Y-177061D01*
Y-176929D01*
Y-176797D01*
Y-176665D01*
X460460D01*
Y-176533D01*
Y-176401D01*
Y-176269D01*
Y-176138D01*
Y-176006D01*
Y-175874D01*
Y-175742D01*
X460328D01*
Y-175610D01*
Y-175478D01*
Y-175346D01*
Y-175214D01*
Y-175082D01*
Y-174950D01*
Y-174818D01*
Y-174686D01*
Y-174554D01*
Y-174422D01*
Y-174290D01*
Y-174158D01*
Y-174027D01*
Y-173895D01*
X460196D01*
Y-173762D01*
Y-173631D01*
Y-173499D01*
Y-173367D01*
Y-173235D01*
X460064D01*
Y-173103D01*
Y-172971D01*
Y-172839D01*
Y-172707D01*
X459932D01*
Y-172575D01*
Y-172443D01*
Y-172311D01*
X459800D01*
Y-172179D01*
Y-172047D01*
Y-171915D01*
X459668D01*
Y-171784D01*
Y-171652D01*
Y-171520D01*
X459536D01*
Y-171388D01*
Y-171256D01*
X459404D01*
Y-171124D01*
Y-170992D01*
Y-170860D01*
X459272D01*
Y-170728D01*
Y-170596D01*
X459141D01*
Y-170464D01*
Y-170332D01*
X459008D01*
Y-170200D01*
X458877D01*
Y-170068D01*
Y-169936D01*
X458745D01*
Y-169804D01*
Y-169672D01*
X458613D01*
Y-169540D01*
X458481D01*
Y-169409D01*
Y-169277D01*
X458349D01*
Y-169145D01*
X458217D01*
Y-169013D01*
X458085D01*
Y-168881D01*
Y-168749D01*
X457953D01*
Y-168617D01*
X457821D01*
Y-168485D01*
X457689D01*
Y-168353D01*
X457557D01*
Y-168221D01*
Y-168089D01*
X457425D01*
Y-167957D01*
X457293D01*
Y-167825D01*
X457161D01*
Y-167693D01*
X457029D01*
Y-167561D01*
X456898D01*
Y-167429D01*
X456766D01*
Y-167297D01*
X456502D01*
Y-167166D01*
X456370D01*
Y-167034D01*
X456238D01*
Y-166902D01*
X456106D01*
Y-166770D01*
X455974D01*
Y-166638D01*
X455710D01*
Y-166506D01*
X455578D01*
Y-166374D01*
X455314D01*
Y-166242D01*
X455182D01*
Y-166110D01*
X454918D01*
Y-165978D01*
X454786D01*
Y-165846D01*
X454523D01*
Y-165714D01*
X454259D01*
Y-165582D01*
X453995D01*
Y-165450D01*
X453731D01*
Y-165318D01*
X453335D01*
Y-165186D01*
X453071D01*
Y-165054D01*
X452675D01*
Y-164923D01*
X452280D01*
Y-164791D01*
X451752D01*
Y-164659D01*
X451092D01*
Y-164527D01*
X450037D01*
Y-164395D01*
D02*
G37*
%LPD*%
D10*
X-109924Y-562113D02*
G03*
X-114724Y-586648I-2400J-12268D01*
G01*
X-47045Y-595906D02*
G03*
X-45078Y-570983I984J12461D01*
G01*
X-109924Y-562113D02*
G03*
X-45078Y-570983I109924J562113D01*
G01*
X-114724Y-586648D02*
G03*
X-47045Y-595906I114724J586648D01*
G01*
X-345493Y-456824D02*
G03*
X-291590Y-492980I345493J456824D01*
G01*
X360236Y-445291D02*
G03*
X365000Y-433789I-11502J11502D01*
G01*
X384651Y-457559D02*
G03*
X390000Y-444646I-12913J12913D01*
G01*
X377500Y-415000D02*
G03*
X365000Y-427500I0J-12500D01*
G01*
X390000D02*
G03*
X377500Y-415000I-12500J0D01*
G01*
X265110Y-507711D02*
G03*
X276681Y-529872I5785J-11081D01*
G01*
X47045Y-595906D02*
G03*
X84886Y-591702I-47045J595906D01*
G01*
X45078Y-570983D02*
G03*
X81336Y-566955I-45078J570983D01*
G01*
X84886Y-591702D02*
G03*
X81336Y-566955I-1775J12373D01*
G01*
X265110Y-507711D02*
G03*
X360236Y-445291I-265110J507711D01*
G01*
X276681Y-529872D02*
G03*
X384651Y-457559I-276681J529872D01*
G01*
X45078Y-570983D02*
G03*
X47045Y-595906I984J-12461D01*
G01*
X-372571Y-467472D02*
G03*
X-299807Y-517161I372559J467458D01*
G01*
D02*
G03*
X-288036Y-495107I6017J10956D01*
G01*
X-352404Y-445290D02*
G03*
X-347540Y-455262I12655J-0D01*
G01*
X-377435Y-457500D02*
G03*
X-372571Y-467472I12655J-0D01*
G01*
X-373965Y-376465D02*
G03*
X-377500Y-385000I8536J-8536D01*
G01*
X-338572Y-376428D02*
G03*
X-338572Y-358750I-8839J8839D01*
G01*
D02*
G03*
X-356250Y-358750I-8839J-8839D01*
G01*
X-349929Y-387784D02*
G03*
X-352404Y-393759I5975J-5975D01*
G01*
X357500Y-392500D02*
G03*
X370000Y-380000I0J12500D01*
G01*
D02*
G03*
X357500Y-367500I-12500J0D01*
G01*
X135000D02*
G03*
X122500Y-380000I0J-12500D01*
G01*
D02*
G03*
X135000Y-392500I12500J0D01*
G01*
X-283741Y-325096D02*
G03*
X-289716Y-327571I0J-8449D01*
G01*
X-318750Y-321250D02*
G03*
X-318750Y-338928I8839J-8839D01*
G01*
D02*
G03*
X-301072Y-338928I8839J8839D01*
G01*
X-292500Y-300000D02*
G03*
X-301035Y-303535I0J-12071D01*
G01*
X-131465D02*
G03*
X-140000Y-300000I-8536J-8536D01*
G01*
X-131428Y-338928D02*
G03*
X-113750Y-338928I8839J8839D01*
G01*
D02*
G03*
X-113750Y-321250I-8839J8839D01*
G01*
X-142784Y-327571D02*
G03*
X-148759Y-325096I-5975J-5975D01*
G01*
X-69716Y-364929D02*
G03*
X-63741Y-367404I5975J5975D01*
G01*
X87500Y-392500D02*
G03*
X100000Y-380000I0J12500D01*
G01*
D02*
G03*
X87500Y-367500I-12500J0D01*
G01*
X-98750Y-353572D02*
G03*
X-98750Y-371250I8839J-8839D01*
G01*
X-81072Y-353572D02*
G03*
X-98750Y-353572I-8839J-8839D01*
G01*
X-81035Y-388965D02*
G03*
X-72500Y-392500I8536J8536D01*
G01*
X750000Y0D02*
G03*
X750000Y0I-750000J0D01*
G01*
X-347540Y-455262D02*
X-345493Y-456824D01*
X-291590Y-492980D02*
X-288036Y-495107D01*
X365000Y-433789D02*
Y-427500D01*
X390000Y-444646D02*
Y-427500D01*
X135000Y-367500D02*
X357500D01*
X-352404Y-445290D02*
Y-393759D01*
X-377500Y-385000D02*
X-377435Y-457500D01*
X-373965Y-376465D02*
X-356250Y-358750D01*
X-349929Y-387784D02*
X-338572Y-376428D01*
X135000Y-392500D02*
X357500D01*
X-301072Y-338928D02*
X-289716Y-327571D01*
X-318750Y-321250D02*
X-301035Y-303535D01*
X-283741Y-325010D02*
X-148759Y-325096D01*
X-131465Y-303535D02*
X-113750Y-321250D01*
X-292500Y-300000D02*
X-140000Y-300000D01*
X-142784Y-327571D02*
X-131428Y-338928D01*
X-81072Y-353572D02*
X-69716Y-364929D01*
X-72500Y-392500D02*
X87500D01*
X-98750Y-371250D02*
X-81035Y-388965D01*
X-63741Y-367404D02*
X87500Y-367500D01*
D55*
X298929Y604088D02*
D03*
X289690Y607915D02*
D03*
X280452Y611742D02*
D03*
X271213Y615569D02*
D03*
X261974Y619395D02*
D03*
X252735Y623222D02*
D03*
X243496Y627049D02*
D03*
X234258Y630876D02*
D03*
X225019Y634703D02*
D03*
X215780Y638530D02*
D03*
D56*
X199558Y671226D02*
D03*
X333520Y615737D02*
D03*
D57*
X-215780Y638530D02*
D03*
X-225019Y634703D02*
D03*
X-234258Y630876D02*
D03*
X-243496Y627049D02*
D03*
X-252735Y623222D02*
D03*
X-261974Y619395D02*
D03*
X-271213Y615569D02*
D03*
X-280452Y611742D02*
D03*
X-289690Y607915D02*
D03*
X-298929Y604088D02*
D03*
D58*
X-333520Y615737D02*
D03*
X-199558Y671226D02*
D03*
D59*
X137160Y119380D02*
D03*
X152400D02*
D03*
X116840Y119380D02*
D03*
X101600Y119380D02*
D03*
X-7620Y630000D02*
D03*
X7620D02*
D03*
X7620Y-630000D02*
D03*
X-7620D02*
D03*
X-7620Y430000D02*
D03*
X7620D02*
D03*
D60*
X604088Y-298929D02*
D03*
X607915Y-289690D02*
D03*
X611742Y-280452D02*
D03*
X615569Y-271213D02*
D03*
X619395Y-261974D02*
D03*
X623222Y-252735D02*
D03*
X627049Y-243496D02*
D03*
X630876Y-234258D02*
D03*
X634703Y-225019D02*
D03*
X638530Y-215780D02*
D03*
X-638530Y215780D02*
D03*
X-634703Y225019D02*
D03*
X-630876Y234258D02*
D03*
X-627049Y243496D02*
D03*
X-623222Y252735D02*
D03*
X-619395Y261974D02*
D03*
X-615568Y271213D02*
D03*
X-611742Y280452D02*
D03*
X-607915Y289690D02*
D03*
X-604088Y298929D02*
D03*
D61*
X671226Y-199558D02*
D03*
X615737Y-333520D02*
D03*
X-615737Y333520D02*
D03*
X-671226Y199558D02*
D03*
D62*
X638530Y215780D02*
D03*
X634703Y225019D02*
D03*
X630876Y234258D02*
D03*
X627049Y243496D02*
D03*
X623222Y252735D02*
D03*
X619395Y261974D02*
D03*
X615568Y271213D02*
D03*
X611741Y280452D02*
D03*
X607915Y289690D02*
D03*
X604088Y298929D02*
D03*
X-604088Y-298929D02*
D03*
X-607915Y-289690D02*
D03*
X-611741Y-280452D02*
D03*
X-615568Y-271213D02*
D03*
X-619395Y-261974D02*
D03*
X-623222Y-252735D02*
D03*
X-627049Y-243496D02*
D03*
X-630876Y-234258D02*
D03*
X-634702Y-225019D02*
D03*
X-638529Y-215780D02*
D03*
D63*
X615737Y333520D02*
D03*
X671226Y199558D02*
D03*
X-671226Y-199558D02*
D03*
X-615737Y-333520D02*
D03*
D64*
X234050Y584960D02*
D03*
X248130Y579128D02*
D03*
D65*
X440089Y450865D02*
D03*
X450865Y440089D02*
D03*
X-440089Y-450865D02*
D03*
X-450865Y-440089D02*
D03*
D66*
X579128Y248130D02*
D03*
X584960Y234051D02*
D03*
X-579128Y-248130D02*
D03*
D67*
X630000Y7620D02*
D03*
Y-7620D02*
D03*
X-630000Y-7620D02*
D03*
Y7620D02*
D03*
D68*
X584960Y-234050D02*
D03*
X579128Y-248130D02*
D03*
X-584960Y234050D02*
D03*
D69*
X450865Y-440089D02*
D03*
X440089Y-450865D02*
D03*
X-450865Y440089D02*
D03*
X-440089Y450865D02*
D03*
D70*
X248130Y-579128D02*
D03*
X234051Y-584960D02*
D03*
D71*
X-234050Y-584960D02*
D03*
X-248130Y-579128D02*
D03*
D72*
X-584960Y-234051D02*
D03*
D73*
X-579128Y248130D02*
D03*
D74*
X-248130Y579128D02*
D03*
X-234051Y584960D02*
D03*
D75*
X7500Y405500D02*
D03*
Y414500D02*
D03*
X-7500Y405500D02*
D03*
Y414500D02*
D03*
X7500Y605500D02*
D03*
X7500Y614500D02*
D03*
X-7500Y605500D02*
D03*
X-7500Y614500D02*
D03*
X-7500Y-605500D02*
D03*
Y-614500D02*
D03*
X7500Y-605500D02*
D03*
Y-614500D02*
D03*
D76*
X238644Y556539D02*
D03*
X242088Y564854D02*
D03*
X224786Y562279D02*
D03*
X228230Y570594D02*
D03*
D77*
X433456Y422850D02*
D03*
X439820Y429214D02*
D03*
X422850Y433456D02*
D03*
X429214Y439820D02*
D03*
X-433456Y-422850D02*
D03*
X-439820Y-429214D02*
D03*
X-422850Y-433456D02*
D03*
X-429214Y-439820D02*
D03*
D78*
X562279Y224786D02*
D03*
X570594Y228230D02*
D03*
X556539Y238644D02*
D03*
X564854Y242088D02*
D03*
X-562279Y-224786D02*
D03*
X-570594Y-228230D02*
D03*
X-556539Y-238644D02*
D03*
X-564854Y-242088D02*
D03*
D79*
X605500Y-7500D02*
D03*
X614500Y-7500D02*
D03*
X605500Y7500D02*
D03*
X614500Y7500D02*
D03*
X-605500D02*
D03*
X-614500D02*
D03*
X-605500Y-7500D02*
D03*
X-614500D02*
D03*
D80*
X556539Y-238644D02*
D03*
X564854Y-242088D02*
D03*
X562279Y-224786D02*
D03*
X570594Y-228230D02*
D03*
X-556539Y238644D02*
D03*
X-564854Y242088D02*
D03*
X-562279Y224786D02*
D03*
X-570594Y228230D02*
D03*
D81*
X422850Y-433456D02*
D03*
X429214Y-439820D02*
D03*
X433456Y-422850D02*
D03*
X439820Y-429214D02*
D03*
X-422850Y433456D02*
D03*
X-429214Y439820D02*
D03*
X-433456Y422850D02*
D03*
X-439820Y429214D02*
D03*
D82*
X224786Y-562279D02*
D03*
X228230Y-570594D02*
D03*
X238644Y-556539D02*
D03*
X242088Y-564854D02*
D03*
D83*
X-238644Y-556539D02*
D03*
X-242088Y-564854D02*
D03*
X-224786Y-562279D02*
D03*
X-228230Y-570594D02*
D03*
D84*
X-224786Y562279D02*
D03*
X-228230Y570594D02*
D03*
X-238644Y556539D02*
D03*
X-242088Y564854D02*
D03*
D85*
X199555Y-671219D02*
D03*
X333518Y-615733D02*
D03*
D86*
X298927Y-604083D02*
D03*
X289689Y-607909D02*
D03*
X280450Y-611736D02*
D03*
X271211Y-615563D02*
D03*
X261972Y-619389D02*
D03*
X252733Y-623216D02*
D03*
X243494Y-627043D02*
D03*
X234255Y-630869D02*
D03*
X225016Y-634696D02*
D03*
X215778Y-638522D02*
D03*
D87*
X-333522Y-615718D02*
D03*
X-199561Y-671210D02*
D03*
D88*
X-215782Y-638513D02*
D03*
X-225021Y-634686D02*
D03*
X-234260Y-630859D02*
D03*
X-243498Y-627032D02*
D03*
X-252737Y-623205D02*
D03*
X-261976Y-619378D02*
D03*
X-271215Y-615551D02*
D03*
X-280453Y-611724D02*
D03*
X-289692Y-607897D02*
D03*
X-298931Y-604070D02*
D03*
D89*
X127000Y-60200D02*
D03*
X76200D02*
D03*
X25400D02*
D03*
X0Y-92200D02*
D03*
X50800D02*
D03*
X101600D02*
D03*
X152400D02*
D03*
X0Y92200D02*
D03*
X50800D02*
D03*
X101600D02*
D03*
X152400D02*
D03*
X127000Y60200D02*
D03*
X76200D02*
D03*
X25400D02*
D03*
D90*
X118110Y-156210D02*
D03*
X-118110D02*
D03*
X0Y194310D02*
D03*
D91*
X-330000Y-19300D02*
D03*
X-370000Y-19300D02*
D03*
Y19300D02*
D03*
X-330000Y19300D02*
D03*
X330000Y-19300D02*
D03*
X370000D02*
D03*
Y19300D02*
D03*
X330000D02*
D03*
D92*
X-354500Y7000D02*
D03*
X-373000D02*
D03*
X-382500Y7000D02*
D03*
X-336500Y7000D02*
D03*
X-345500D02*
D03*
X-327000D02*
D03*
X-317500D02*
D03*
X-345500Y-7000D02*
D03*
X-327000D02*
D03*
X-317500Y-7000D02*
D03*
X-363500Y-7000D02*
D03*
X-354500D02*
D03*
X-373000D02*
D03*
X-382500D02*
D03*
X382500Y7000D02*
D03*
X373000D02*
D03*
X354500D02*
D03*
X363500D02*
D03*
X317500D02*
D03*
X327000D02*
D03*
X345500D02*
D03*
X317500Y-7000D02*
D03*
X327000D02*
D03*
X345500D02*
D03*
X336500D02*
D03*
X382500D02*
D03*
X373000D02*
D03*
X354500D02*
D03*
D93*
X0Y675000D02*
D03*
X480832Y-480832D02*
D03*
X0Y-675000D02*
D03*
X-477297Y-477297D02*
D03*
Y477297D02*
D03*
X477297D02*
D03*
X-38100Y-353400D02*
D03*
X25400Y-543900D02*
D03*
D94*
X-547416Y19987D02*
D03*
D95*
X-523949Y29707D02*
D03*
X-500483Y39427D02*
D03*
X-477016Y49147D02*
D03*
D96*
X443548Y331048D02*
D03*
D97*
X469048Y356548D02*
D03*
X418048D02*
D03*
Y305548D02*
D03*
X469048D02*
D03*
D98*
X25400Y-291750D02*
D03*
X76200Y-455000D02*
D03*
X111250Y-480400D02*
D03*
X-111250Y-429600D02*
D03*
X0Y-581250D02*
D03*
D99*
X31750Y-442300D02*
D03*
X6350D02*
D03*
X-19050D02*
D03*
X-44450D02*
D03*
X-31750Y-467700D02*
D03*
X-6350D02*
D03*
X19050D02*
D03*
X44450D02*
D03*
D100*
X287500Y-425000D02*
D03*
X145000Y-482500D02*
D03*
X-160000Y-555000D02*
D03*
X160000Y-482500D02*
D03*
X222500Y-515000D02*
D03*
X302500Y-270000D02*
D03*
X-30000Y520000D02*
D03*
Y535000D02*
D03*
Y550000D02*
D03*
D101*
X500000Y-100000D02*
D03*
D102*
X-287000Y422700D02*
D03*
Y397300D02*
D03*
D103*
X-162400Y398300D02*
D03*
Y378300D02*
D03*
Y358300D02*
D03*
X-142400Y398300D02*
D03*
Y378300D02*
D03*
Y358300D02*
D03*
D104*
X-266700Y359200D02*
D03*
X38100Y333800D02*
D03*
X12700D02*
D03*
X-12700D02*
D03*
X-38100D02*
D03*
X-63500D02*
D03*
X-88900Y333800D02*
D03*
X-114300Y333800D02*
D03*
X-139700D02*
D03*
X-165100D02*
D03*
X-190500D02*
D03*
X-215900Y333800D02*
D03*
X-241300Y333800D02*
D03*
X-266700D02*
D03*
X-292100D02*
D03*
X38100Y486200D02*
D03*
X12700D02*
D03*
X-12700D02*
D03*
X-38100D02*
D03*
X-63500D02*
D03*
X-88900D02*
D03*
X-114300D02*
D03*
X-139700D02*
D03*
X-165100D02*
D03*
X-190500D02*
D03*
X-215900D02*
D03*
X-241300D02*
D03*
X-266700D02*
D03*
X63500D02*
D03*
X88900D02*
D03*
X114300D02*
D03*
X139700D02*
D03*
X165100D02*
D03*
X190500D02*
D03*
X215900D02*
D03*
X241300D02*
D03*
X266700D02*
D03*
X292100D02*
D03*
Y333800D02*
D03*
X266700D02*
D03*
X241300D02*
D03*
X215900D02*
D03*
X190500D02*
D03*
X165100D02*
D03*
X139700D02*
D03*
X114300D02*
D03*
X88900D02*
D03*
X63500D02*
D03*
D105*
X-292100Y486200D02*
D03*
M02*
