G04*
G04 #@! TF.GenerationSoftware,Altium Limited,Altium Designer,22.2.1 (43)*
G04*
G04 Layer_Color=16711935*
%FSLAX44Y44*%
%MOMM*%
G71*
G04*
G04 #@! TF.SameCoordinates,AFD451FC-D3FB-4623-B5BF-B3F6322B03FB*
G04*
G04*
G04 #@! TF.FilePolarity,Positive*
G04*
G01*
G75*
%ADD10C,0.2540*%
D10*
X137500Y-695000D02*
G03*
X137500Y-670000I0J12500D01*
G01*
X-137500D02*
G03*
X-137500Y-695000I0J-12500D01*
G01*
X520000Y-715000D02*
G03*
X555000Y-680000I0J35000D01*
G01*
Y680000D02*
G03*
X520000Y715000I-35000J0D01*
G01*
X-520000D02*
G03*
X-555000Y680000I0J-35000D01*
G01*
Y-680000D02*
G03*
X-520000Y-715000I35000J0D01*
G01*
X-137500Y-695000D02*
X137500Y-695000D01*
X-137500Y-670000D02*
X137500Y-670000D01*
X555000Y-680000D02*
X555000Y680000D01*
X0Y-715000D02*
X520000D01*
X0Y715000D02*
X520000D01*
X-520000D02*
X0D01*
X-520000Y-715000D02*
X0D01*
X-555000Y680000D02*
X-555000Y-680000D01*
X137500Y-695000D02*
G03*
X137500Y-670000I0J12500D01*
G01*
X-137500D02*
G03*
X-137500Y-695000I0J-12500D01*
G01*
X520000Y-715000D02*
G03*
X555000Y-680000I0J35000D01*
G01*
Y680000D02*
G03*
X520000Y715000I-35000J0D01*
G01*
X-520000D02*
G03*
X-555000Y680000I0J-35000D01*
G01*
Y-680000D02*
G03*
X-520000Y-715000I35000J0D01*
G01*
X-137500Y-695000D02*
X137500Y-695000D01*
X-137500Y-670000D02*
X137500Y-670000D01*
X555000Y-680000D02*
X555000Y680000D01*
X0Y-715000D02*
X520000D01*
X0Y715000D02*
X520000D01*
X-520000D02*
X0D01*
X-520000Y-715000D02*
X0D01*
X-555000Y680000D02*
X-555000Y-680000D01*
M02*
