G04*
G04 #@! TF.GenerationSoftware,Altium Limited,Altium Designer,22.2.1 (43)*
G04*
G04 Layer_Color=128*
%FSLAX44Y44*%
%MOMM*%
G71*
G04*
G04 #@! TF.SameCoordinates,68AC13A2-7F19-4EE1-B238-ED355C610A29*
G04*
G04*
G04 #@! TF.FilePolarity,Positive*
G04*
G01*
G75*
%ADD10C,0.2540*%
%ADD118R,0.3000X1.3000*%
%ADD119R,1.8000X2.2000*%
D10*
X137500Y-695000D02*
G03*
X137500Y-670000I0J12500D01*
G01*
X-137500D02*
G03*
X-137500Y-695000I0J-12500D01*
G01*
X520000Y-715000D02*
G03*
X555000Y-680000I0J35000D01*
G01*
Y680000D02*
G03*
X520000Y715000I-35000J0D01*
G01*
X-520000D02*
G03*
X-555000Y680000I0J-35000D01*
G01*
Y-680000D02*
G03*
X-520000Y-715000I35000J0D01*
G01*
X-137500Y-695000D02*
X137500Y-695000D01*
X-137500Y-670000D02*
X137500Y-670000D01*
X555000Y-680000D02*
X555000Y680000D01*
X0Y-715000D02*
X520000D01*
X0Y715000D02*
X520000D01*
X-520000D02*
X0D01*
X-520000Y-715000D02*
X0D01*
X-555000Y680000D02*
X-555000Y-680000D01*
D118*
X-27500Y-292000D02*
D03*
X-22500D02*
D03*
X-12500D02*
D03*
X-7500D02*
D03*
X-2500D02*
D03*
X2500D02*
D03*
X32500D02*
D03*
X27500D02*
D03*
X22500D02*
D03*
X17500D02*
D03*
X12500D02*
D03*
X7500D02*
D03*
X-32500D02*
D03*
X-17500D02*
D03*
D119*
X51500Y-324500D02*
D03*
X-51500D02*
D03*
M02*
