M48
;Layer_Color=9474304
;FILE_FORMAT=4:4
METRIC,LZ
;TYPE=PLATED
T1F00S00C0.3000
T2F00S00C0.4000
T4F00S00C0.9000
T5F00S00C1.0000
T7F00S00C1.0200
T8F00S00C1.6000
T9F00S00C4.2200
;TYPE=NON_PLATED
T10F00S00C0.6500
T11F00S00C1.1520
T12F00S00C1.7000
T13F00S00C3.2500
%
T01
X0035Y-006
X004
X0042Y-0061662
X004445Y-006165
X004695
X00481Y-006425
X0044838
X004605Y-006825
X00525Y-006275
X00515Y-00615
X00515Y-00605
X00515Y-00535
X00515Y-00525
X00485Y-00515
X004695Y-005365
X00475Y-0055
X004445Y-005365
X0042Y-0053662
X00425Y-0055
X0042Y-0058338
X00375Y-0055
X004Y-005
X0042Y-0050338
Y-0045662
X004445Y-004565
X004695
X00485Y-00435
X00515Y-00445
X00515Y-00455
X005Y-004
X00515Y-00375
X004695Y-003765
X004445
X0042Y-0037662
X004Y-004
X0042Y-0042338
X00375Y-0045
X0035Y-004
Y-005
X003
X0025
X002
X0015
X001
X0005
X0
X00025Y-0045
X00075
X00125
X00175
X00225
X0025Y-004
X003
X0032012Y-0037188
X00325Y-0045
Y-0055
X003Y-006
X00285Y-0061
X0028Y-006175
X0024Y-006175
X0024Y-00665
X002Y-006
X0015
X001
X0005
X0
X00025Y-0055
X00075
X00125
X00175
X00225
X002Y-004
X0015
X001
X0005
X0
X-00025Y-0045
Y-0055
X-0005Y-005
X-001
X-0015
X-002
X-0025
X-003
X-0035
X-004
X-0042Y-0050338
X-004445Y-005035
X-0042Y-0053662
X-00425Y-0055
X-0042Y-0058338
X-004445Y-005835
X-0042Y-0061662
X-00425Y-0065
X-00375
X-00325
X-00275
X-00225
X-002Y-006
X-0015
X-001
X-0005
X-00125Y-0055
X-00175
X-00225
X-0026Y-005575
X-0028Y-0055
X-00325Y-0055
X-0034
X-00375
Y-0045
X-00325
X-00275
X-0025Y-004
X-002
X-0015
X-001
X-0005
X-00125Y-0045
X-00175
X-003Y-004
X-0035
X-003575Y-0037
X-0042Y-0037662
X-004Y-004
X-0042Y-0042338
X-004445Y-004235
X-0042Y-0045662
X-003Y-006
X-0025
X-004695Y-005835
X-00515Y-00585
X-00515Y-00595
Y-00515
X-00515Y-00505
X-004695Y-005035
X-00485Y-00525
Y-00445
X-004695Y-004235
X-00515Y-00425
X-00515Y-00435
X-005Y-004
X-00475Y-0065
X-004695Y-003435
X-0046025Y-00324
X-004755Y-00302
Y-00295
X-004695Y-002635
X-00515Y-00265
X-00515Y-00275
X-00515Y-00345
X-00515Y-00355
Y-00195
X-00515Y-00185
X-004695Y-001835
X-00485Y-00205
Y-00125
X-004695Y-001035
X-00515Y-00105
X-00515Y-00115
Y-00035
X-00515Y-00025
X-005Y0
X-004695Y-000235
X-004445
X-0042Y-0002338
Y-0005662
Y-0010338
X-004Y-001
X-004445Y-001035
X-0042Y-0013662
X-00425Y-0015
X-0042Y-0018338
X-004445Y-001835
X-0042Y-0021662
X-004Y-002
X-0035
X-003
X-0028Y-002125
X-0028Y-002775
X-0029Y-002775
Y-0029
X-0033
X-0032012Y-0026812
X-00347Y-00315
X-00343Y-00321
X-0042Y-0034338
X-004445Y-003435
X-0042Y-0029662
Y-0026338
X-00425Y-0025
X-004445Y-002635
X-00375Y-0015
X-0035Y-001
X-003
X-0027Y-001175
X-00265Y-001125
X-00275Y-0015
X-00175
X-00125
X-00075
X-0005Y-001
X-001
X-0015
X-002
X-0017Y-0006
X-00175Y-0005
X-00125
X-00075
X-0005Y0
X-001
X-0015
X-002
X-0035
X-004
X-0042Y0002338
X-00375Y-0005
X-002Y-002
X-0015
X-001
X-0005
X-00075Y-0025
X-00125
X-00175
X-0015Y-003
X-001
X-0005
X-00125Y-0035
X-00175
X-002Y-003
X-0024Y-003175
X-00245Y-003225
X-0025Y-003275
X-00265Y-00345
X-0027Y-0035
X-00025Y-0035
X00025
X00032Y-0031
X00018
X000175Y-0028
X000125Y-002735
X-000025
X000025Y-0028
X000175Y-00258
X0002529Y-00258064
X000175Y-0025
X-0001Y-00255
X-00025Y-0025
X00075
X00125
X0013312Y-0025488
X00167Y-00255
X00175Y-0025
X00225
X001975Y-0029
X00185Y-00315
X00185Y-003475
X00175Y-0035
X00225
X0024Y-003225
X00245Y-003175
X0025Y-003125
X00265Y-00295
X0027Y-0029
X00285544Y-002675
X00315Y-00294
X00323
X00336Y-00314
X003405Y-003225
X0033Y-0035
X0029
Y-003625
X003Y-002
Y-001
X0027Y-001175
X00265Y-001125
X00225Y-0015
X00175
X00125
X00075
X00025
X-00025
Y-0005
X00025
X00075
X00125Y-0006
X00175Y-0005
X00225
X003Y0
X0015
X001
X0005
Y-001
X001
X0015
Y-002
X001
X0005
X001Y-003
X0015
X00125Y-0035
X00075
X-000325Y00025
X0035Y0
X004
X0042Y-0002338
Y-0005662
X004445Y-000565
X004695
X00515Y-00055
X00515Y-00045
X005Y0
X00515Y00025
X004695Y000235
X004445
X0042Y0002338
X00375Y-0005
X004Y-001
X0042Y-0010338
Y-0013662
X00425Y-0015
X004445Y-001365
X004695
X00485Y-00115
X00515Y-00125
X00515Y-00135
X00515Y-00205
X00515Y-00215
X004695Y-002165
X0047Y-0024
Y-002475
X004695Y-002965
X0047Y-003175
X004445Y-002965
X0042Y-0029662
Y-0026338
Y-0021662
X004445Y-002165
X0042Y-0018338
X004Y-002
X0035
X00375Y-0015
X0035Y-001
X00485Y-00195
X00515Y-00285
X00515Y-00295
X00515Y-00365
X0042Y-0034338
Y0005662
Y0010338
X004Y001
X004445Y001035
X004695
X00485Y00125
X00515Y00115
X00515Y00105
X00515Y00035
X00515Y00185
X00515Y00195
X00485Y00205
X004695Y001835
X004445
X0042Y0018338
Y0021662
X004Y002
X0035
X00375Y0015
X00425
X0042Y0013662
X0035Y001
X00375Y0005
X0042Y0026338
X004445Y002635
X004695
X00515Y00265
X00515Y00275
X00515Y00345
X00515Y00355
X004695Y003435
X004725Y003225
X004445Y003435
X0042Y0034338
Y0037662
X004Y004
X0042Y0042338
X004445Y004235
X004695
X0047Y004
Y003925
X005Y004
X0035
X0042Y0029662
X0033Y0029
X0032012Y0026812
X0029Y002775
Y0029
X0027Y0034
X00265Y00345
X0027Y0035
X00255Y0037
X00222Y003825
X00201Y00388
X00193
X0018611Y0038789
X002075Y00395
X00209Y0034
X00174Y00345
X00125Y0035
X00105Y0037575
Y0038325
Y0039075
Y0039825
Y0040575
Y0041325
Y0042075
X00145Y00414
Y003875
X0003Y0039375
X00031723Y004104
X0003Y0030255
Y0028315
Y0025775
Y0023075
X000035Y001625
X-00025Y00185
Y00134
X-000375Y001265
X-00025Y0005
X-000375Y0003
X00025Y0005
X00075
X001Y001
X0012095Y00089
X0013365
X00175Y0009662
X002Y001
X00175Y00053
X00225Y0005
X003Y001
Y002
X0025Y002025
X00245Y002072
X0024Y002326
X00209Y0024525
X00201Y002834
X00193Y00296
X0018611Y0027075
X0024Y003175
X00245Y003225
X0025Y003275
X00315Y00346
X00323
X00336Y00326
X003405Y003175
X003Y004
X001525Y00185
X00125Y0015
X-00018Y002961
X-00025Y0035
X-001Y003
X-0015Y004
X-002
X-0025
X-0027Y003775
Y0037
Y003625
X-0029
Y0037
Y003775
Y0035
X-002875Y003275
X-00245Y003175
X-0024Y003225
X-0025Y003125
X-00265Y00295
X-0027Y0029
X-00275Y0025
X-0024Y0024575
X-0025Y002326
X-00245Y002072
X-002Y002
X-00175Y0015
X-00125
X-001Y001
X-0015
X-002
X-00175Y0005
X-00125
X-00075
X-00275
X-003Y001
X-0035
X-004
X-0042Y0010338
Y0013662
X-00425Y0015
X-004445Y001365
X-0042Y0018338
Y0021662
X-004445Y002165
X-004Y002
X-0035
X-003
X-00275Y0015
X-00375
Y0005
X-0042Y0005662
X-004445Y000565
X-0042Y0026338
Y0029662
X-004445Y002965
X-0042Y0034338
Y0037662
X-004445Y003765
X-004Y004
X-0042Y0042338
X-0035Y004
X-003
X-0032012Y0037188
X-0033Y0035
X-00347Y00325
X-00343Y00319
X-0035Y003
X-003575Y0027
X-004695Y002965
X-0046325Y0031775
X-00475044Y00338
Y00345
X-004695Y003765
X-00515Y00375
X-00515Y00365
X-005Y004
X-00515Y00295
X-00515Y00285
X-00515Y00215
X-00515Y00205
X-00485Y00195
X-004695Y002165
Y001365
X-00485Y00115
X-00515Y00125
X-00515Y00135
Y00055
X-00515Y00045
X-004695Y000565
X-0045Y001
X-00485Y00435
X-004695Y004565
X-00515Y00455
X-00515Y00445
Y00525
X-00515Y00535
X-004695Y005365
X-00485Y00515
X-0045Y005
X-004695Y006165
X-00475Y0065
X-0045Y007
X-00515Y00615
X-00515Y00605
X-004445Y006165
X-004355
X-0042Y0061662
Y0058338
X-004Y006
X-0035
X-00325Y0065
X-00375
X-00425
X-004Y007
X-0035
X-003
X-0025
X-002
X-0015
X-001
X-00125Y0065
X-001Y006
X-0005
X-000575Y0062
X-0005Y005
X-001
X-0015
X-00125Y0055
Y0045
X-00225Y004612
X-00225Y0049
X-003Y005
X-0035
X-004
X-0042Y0050338
Y0053662
X-00425Y0055
X-004445Y005365
Y004565
X-0042Y0045662
X-00375Y0045
X-00325
Y0055
X-0025Y006
X-002
X-00225Y0065
X-00016Y00655
X-00008
X0
X00008
X00016
X000025Y0062375
X-000025Y0062875
X0Y007
X001
X0015
X002
X00225Y0065
X0024Y006175
X0028Y006175
X003Y006
X00325Y0065
X0028Y00665
X003Y007
X00325Y0055
X003Y005
X0025262Y004875
X0024512Y004875
X0024512Y0048
X002675Y0046
X002675Y004525
X002675Y00445
X002675Y004375
X002675Y0043
X00257499Y00445
X00208Y00445
X0015Y00445
Y0043
X0012988Y00507379
X001Y005
X0005
X00031Y00524
X0Y005
X-00025Y0045
X0005Y006
X0021Y0054012
X00225Y0055
X002175Y004975
X00325Y0045
X00375
X0042Y0045662
Y0050338
X004Y005
X004445Y005035
X004695
X00485Y00525
X00475Y0055
X004695Y005835
X004445
X0042Y0058338
Y0061662
X004Y006
X0035
X00375Y0065
X00425
X00475
X00525Y006275
X00515Y00595
X00515Y00585
X00515Y00515
X00515Y00505
X00515Y00435
X00515Y00425
X00485Y00445
X0042Y0053662
X00425Y0055
X00375
X0035Y005
Y007
X004
X0045
T02
X00105Y0031
Y00325
Y0034
Y00355
X-00105Y0066425
T04
X000762Y000802
Y001056
Y00131
Y001564
Y001818
Y002072
Y002326
Y00258
Y002834
Y003088
Y003342
Y003596
Y00385
Y004104
X-000762
Y00385
Y003596
Y003342
Y003088
Y002834
Y00258
Y002326
Y002072
Y001818
Y001564
Y00131
Y001056
X-000508
X-000762Y000802
Y004358
Y004612
Y004866
Y00512
Y005374
X-000508
X-000762Y005628
Y005882
Y006136
Y00639
Y006644
X-0018055Y00544
X-0020595
X-0023135
X-0025675
X-0024405Y005186
X-0021865
X-0019325
X-0026945
X-000254Y005374
X0
X000254
X000508
X000762
Y00512
Y004866
Y004612
Y004358
Y005628
Y005882
Y006136
Y00639
Y006644
T05
X00375Y-004089
Y-003835
X-00375
Y-004089
X-0044Y-00675
X-00375Y-003581
Y-003327
Y-003073
Y-002819
Y-002565
Y-002311
X00375
Y-002565
Y-002819
Y-003073
Y-003327
Y-003581
Y002311
Y002565
Y002819
Y003073
Y003327
Y003581
Y003835
Y004089
X000127Y000853
X-000127
X-00375Y002311
Y002565
Y002819
Y003073
Y003327
Y003581
Y003835
Y004089
T07
X-000317Y002099
X-000117
Y002299
X-000317
X-000517
Y002099
X-0016175Y006583
X-0018715Y006413
X-0026285Y006583
X-0028825Y006413
T08
X-0030375Y00577
X-0014625
T09
X0052Y-0068
X-0052
Y0068
X0052
T10
X-000289Y006522
X000289
T11
X00475Y-007
X-00475
Y007
X00475
T12
X00155Y005975
Y006675
T13
X-0028215Y006075
X-0016785
M30
