G04*
G04 #@! TF.GenerationSoftware,Altium Limited,Altium Designer,22.2.1 (43)*
G04*
G04 Layer_Color=65535*
%FSLAX44Y44*%
%MOMM*%
G71*
G04*
G04 #@! TF.SameCoordinates,59029D5E-7FE7-4811-848E-3C15E54AA96D*
G04*
G04*
G04 #@! TF.FilePolarity,Positive*
G04*
G01*
G75*
%ADD10C,0.1524*%
%ADD11C,0.2032*%
%ADD12C,0.2540*%
G36*
X964688Y-23527D02*
X966053Y-24092D01*
X967281Y-24913D01*
X968326Y-25958D01*
X969147Y-27186D01*
X969712Y-28551D01*
X970000Y-30000D01*
X970000Y-30581D01*
X970000D01*
Y-64419D01*
Y-94419D01*
X970000D01*
X970000Y-95000D01*
X969712Y-96449D01*
X969147Y-97814D01*
X968326Y-99042D01*
X967281Y-100087D01*
X966053Y-100908D01*
X964688Y-101473D01*
X963239Y-101761D01*
X962500Y-101761D01*
X802500Y-101761D01*
X801761D01*
X800312Y-101473D01*
X798947Y-100908D01*
X797719Y-100087D01*
X796674Y-99042D01*
X795854Y-97814D01*
X795288Y-96449D01*
X795000Y-95000D01*
Y-94419D01*
Y-94261D01*
D01*
Y-60581D01*
Y-30739D01*
D01*
Y-30000D01*
X795288Y-28551D01*
X795854Y-27186D01*
X796674Y-25958D01*
X797719Y-24913D01*
X798947Y-24092D01*
X800312Y-23527D01*
X801761Y-23239D01*
X802500D01*
X962500Y-23239D01*
X963239Y-23239D01*
X964688Y-23527D01*
D02*
G37*
%LPC*%
G36*
X895101Y-34899D02*
X879813D01*
X887290D01*
X886582Y-34920D01*
X885916Y-35003D01*
X885333Y-35107D01*
X885062Y-35170D01*
X884812Y-35232D01*
X884583Y-35295D01*
X884374Y-35357D01*
X884187Y-35420D01*
X884041Y-35461D01*
X883937Y-35503D01*
X883833Y-35545D01*
X883791Y-35566D01*
X883771D01*
X883208Y-35836D01*
X882729Y-36149D01*
X882313Y-36461D01*
X881979Y-36774D01*
X881709Y-37065D01*
X881500Y-37294D01*
X881438Y-37378D01*
X881396Y-37440D01*
X881355Y-37482D01*
Y-37503D01*
X881084Y-37982D01*
X880875Y-38461D01*
X880751Y-38898D01*
X880646Y-39315D01*
X880584Y-39690D01*
X880563Y-39835D01*
Y-39960D01*
X880542Y-40064D01*
Y-40148D01*
Y-40189D01*
Y-40210D01*
X880563Y-40689D01*
X880646Y-41147D01*
X880751Y-41564D01*
X880875Y-41918D01*
X881000Y-42210D01*
X881105Y-42439D01*
X881146Y-42522D01*
X881188Y-42585D01*
X881209Y-42605D01*
Y-42626D01*
X881479Y-43001D01*
X881813Y-43355D01*
X882146Y-43647D01*
X882500Y-43918D01*
X882792Y-44126D01*
X883042Y-44272D01*
X883146Y-44313D01*
X883208Y-44355D01*
X883250Y-44397D01*
X883271D01*
X883479Y-44501D01*
X883729Y-44605D01*
X884000Y-44709D01*
X884291Y-44813D01*
X884895Y-45022D01*
X885520Y-45209D01*
X885812Y-45292D01*
X886062Y-45376D01*
X886311Y-45438D01*
X886541Y-45500D01*
X886707Y-45542D01*
X886853Y-45584D01*
X886936Y-45605D01*
X886957D01*
X887436Y-45709D01*
X887874Y-45834D01*
X888249Y-45917D01*
X888603Y-46021D01*
X888915Y-46104D01*
X889207Y-46167D01*
X889436Y-46250D01*
X889665Y-46313D01*
X889831Y-46354D01*
X889998Y-46417D01*
X890123Y-46459D01*
X890206Y-46479D01*
X890290Y-46500D01*
X890331Y-46521D01*
X890373Y-46542D01*
X890790Y-46729D01*
X891144Y-46917D01*
X891456Y-47104D01*
X891685Y-47271D01*
X891873Y-47438D01*
X891998Y-47562D01*
X892081Y-47646D01*
X892102Y-47667D01*
X892289Y-47917D01*
X892414Y-48187D01*
X892518Y-48458D01*
X892581Y-48708D01*
X892622Y-48916D01*
X892643Y-49104D01*
Y-49208D01*
Y-49229D01*
Y-49250D01*
X892622Y-49562D01*
X892560Y-49874D01*
X892456Y-50145D01*
X892373Y-50395D01*
X892268Y-50603D01*
X892164Y-50770D01*
X892102Y-50853D01*
X892081Y-50895D01*
X891852Y-51166D01*
X891602Y-51395D01*
X891310Y-51603D01*
X891040Y-51770D01*
X890790Y-51895D01*
X890602Y-51999D01*
X890519Y-52041D01*
X890456Y-52061D01*
X890435Y-52082D01*
X890415D01*
X889998Y-52228D01*
X889561Y-52332D01*
X889123Y-52395D01*
X888728Y-52436D01*
X888394Y-52478D01*
X888249D01*
X888124Y-52499D01*
X887874D01*
X887270Y-52478D01*
X886728Y-52415D01*
X886207Y-52311D01*
X885770Y-52207D01*
X885583Y-52165D01*
X885416Y-52124D01*
X885270Y-52061D01*
X885145Y-52020D01*
X885041Y-51978D01*
X884978Y-51957D01*
X884937Y-51936D01*
X884916D01*
X884458Y-51707D01*
X884062Y-51457D01*
X883729Y-51228D01*
X883458Y-50978D01*
X883250Y-50770D01*
X883104Y-50603D01*
X883000Y-50499D01*
X882979Y-50458D01*
X882771Y-50083D01*
X882604Y-49687D01*
X882479Y-49291D01*
X882375Y-48916D01*
X882292Y-48562D01*
X882271Y-48437D01*
X882250Y-48312D01*
X882229Y-48208D01*
X882208Y-48125D01*
Y-48083D01*
Y-48062D01*
X879813Y-48271D01*
X879834Y-48625D01*
X879876Y-48979D01*
X880001Y-49625D01*
X880167Y-50229D01*
X880251Y-50499D01*
X880355Y-50728D01*
X880438Y-50957D01*
X880542Y-51166D01*
X880626Y-51332D01*
X880709Y-51478D01*
X880771Y-51603D01*
X880813Y-51686D01*
X880834Y-51728D01*
X880855Y-51749D01*
X881250Y-52290D01*
X881709Y-52749D01*
X882167Y-53144D01*
X882604Y-53457D01*
X883000Y-53707D01*
X883167Y-53790D01*
X883312Y-53873D01*
X883437Y-53936D01*
X883521Y-53977D01*
X883583Y-54019D01*
X883604D01*
X884312Y-54269D01*
X885041Y-54457D01*
X885770Y-54581D01*
X886457Y-54665D01*
X886791Y-54707D01*
X887082Y-54727D01*
X887332Y-54748D01*
X887561D01*
X887749Y-54769D01*
X887999D01*
X888748Y-54727D01*
X889436Y-54644D01*
X890061Y-54540D01*
X890352Y-54457D01*
X890602Y-54394D01*
X890852Y-54332D01*
X891060Y-54248D01*
X891248Y-54186D01*
X891394Y-54144D01*
X891518Y-54082D01*
X891602Y-54061D01*
X891664Y-54019D01*
X891685D01*
X892268Y-53707D01*
X892768Y-53373D01*
X893206Y-53019D01*
X893560Y-52686D01*
X893851Y-52374D01*
X894039Y-52145D01*
X894122Y-52041D01*
X894164Y-51978D01*
X894205Y-51936D01*
Y-51915D01*
X894372Y-51666D01*
X894497Y-51395D01*
X894726Y-50895D01*
X894893Y-50416D01*
X894997Y-49978D01*
X895059Y-49583D01*
X895080Y-49437D01*
Y-49291D01*
X895101Y-49187D01*
Y-54769D01*
D01*
D01*
Y-49041D01*
X895059Y-48479D01*
X894976Y-47958D01*
X894851Y-47500D01*
X894705Y-47104D01*
X894539Y-46771D01*
X894476Y-46625D01*
X894414Y-46521D01*
X894372Y-46438D01*
X894330Y-46375D01*
X894289Y-46334D01*
Y-46313D01*
X894122Y-46104D01*
X893955Y-45896D01*
X893560Y-45500D01*
X893164Y-45167D01*
X892747Y-44896D01*
X892393Y-44667D01*
X892227Y-44563D01*
X892081Y-44501D01*
X891977Y-44438D01*
X891893Y-44397D01*
X891831Y-44355D01*
X891810D01*
X891581Y-44251D01*
X891289Y-44147D01*
X890998Y-44043D01*
X890665Y-43938D01*
X889956Y-43751D01*
X889248Y-43563D01*
X888915Y-43459D01*
X888603Y-43397D01*
X888311Y-43314D01*
X888061Y-43272D01*
X887853Y-43209D01*
X887707Y-43168D01*
X887603Y-43147D01*
X887561D01*
X886999Y-43022D01*
X886499Y-42876D01*
X886062Y-42751D01*
X885645Y-42626D01*
X885291Y-42501D01*
X884978Y-42397D01*
X884708Y-42293D01*
X884479Y-42189D01*
X884291Y-42085D01*
X884125Y-42001D01*
X884000Y-41939D01*
X883895Y-41876D01*
X883812Y-41814D01*
X883771Y-41772D01*
X883729Y-41751D01*
X883479Y-41481D01*
X883312Y-41210D01*
X883187Y-40918D01*
X883083Y-40648D01*
X883042Y-40419D01*
X883021Y-40231D01*
X883000Y-40106D01*
Y-40085D01*
Y-40064D01*
X883021Y-39835D01*
X883042Y-39627D01*
X883167Y-39252D01*
X883333Y-38898D01*
X883521Y-38607D01*
X883708Y-38356D01*
X883875Y-38169D01*
X884000Y-38065D01*
X884020Y-38023D01*
X884041D01*
X884250Y-37878D01*
X884500Y-37732D01*
X885020Y-37523D01*
X885562Y-37378D01*
X886124Y-37273D01*
X886374Y-37232D01*
X886624Y-37211D01*
X886832Y-37190D01*
X887020D01*
X887186Y-37169D01*
X887790D01*
X888165Y-37211D01*
X888519Y-37253D01*
X888853Y-37315D01*
X889144Y-37378D01*
X889415Y-37461D01*
X889665Y-37544D01*
X889894Y-37627D01*
X890081Y-37732D01*
X890248Y-37815D01*
X890394Y-37898D01*
X890519Y-37961D01*
X890602Y-38023D01*
X890685Y-38065D01*
X890706Y-38086D01*
X890727Y-38107D01*
X890935Y-38294D01*
X891123Y-38482D01*
X891414Y-38919D01*
X891664Y-39377D01*
X891831Y-39815D01*
X891956Y-40210D01*
X891998Y-40377D01*
X892039Y-40543D01*
X892060Y-40668D01*
Y-40752D01*
X892081Y-40814D01*
Y-40835D01*
X894518Y-40648D01*
X894455Y-40023D01*
X894330Y-39460D01*
X894184Y-38940D01*
X894018Y-38502D01*
X893914Y-38315D01*
X893851Y-38127D01*
X893768Y-37982D01*
X893706Y-37857D01*
X893643Y-37752D01*
X893601Y-37690D01*
X893580Y-37648D01*
X893560Y-37627D01*
X893206Y-37148D01*
X892810Y-36753D01*
X892393Y-36399D01*
X891977Y-36107D01*
X891623Y-35899D01*
X891456Y-35815D01*
X891331Y-35732D01*
X891227Y-35670D01*
X891123Y-35649D01*
X891081Y-35607D01*
X891060D01*
X890435Y-35378D01*
X889790Y-35191D01*
X889144Y-35066D01*
X888561Y-34982D01*
X888290Y-34962D01*
X888061Y-34941D01*
X887832Y-34920D01*
X887645Y-34899D01*
X895101D01*
D02*
G37*
G36*
X846947Y-40210D02*
Y-40523D01*
X844781D01*
Y-42231D01*
X844468Y-41877D01*
X844156Y-41564D01*
X843802Y-41293D01*
X843468Y-41064D01*
X843114Y-40856D01*
X842781Y-40710D01*
X842448Y-40564D01*
X842135Y-40460D01*
X841844Y-40377D01*
X841573Y-40314D01*
X841323Y-40273D01*
X841115Y-40231D01*
X840948D01*
X840802Y-40210D01*
X846947D01*
X834679D01*
X840365D01*
X840032Y-40252D01*
X839428Y-40356D01*
X838886Y-40502D01*
X838636Y-40585D01*
X838407Y-40668D01*
X838199Y-40773D01*
X838032Y-40856D01*
X837866Y-40939D01*
X837741Y-41002D01*
X837636Y-41064D01*
X837553Y-41106D01*
X837512Y-41127D01*
X837491Y-41147D01*
X837012Y-41522D01*
X836574Y-41939D01*
X836220Y-42376D01*
X835929Y-42793D01*
X835699Y-43168D01*
X835595Y-43334D01*
X835533Y-43480D01*
X835470Y-43584D01*
X835429Y-43668D01*
X835387Y-43730D01*
Y-43751D01*
X835158Y-44397D01*
X834970Y-45042D01*
X834846Y-45646D01*
X834762Y-46209D01*
X834741Y-46480D01*
X834721Y-46709D01*
X834700Y-46896D01*
Y-47084D01*
X834679Y-47229D01*
Y-47417D01*
X834700Y-47958D01*
X834741Y-48458D01*
X834825Y-48958D01*
X834929Y-49416D01*
X835033Y-49854D01*
X835179Y-50270D01*
X835325Y-50645D01*
X835470Y-50999D01*
X835616Y-51312D01*
X835741Y-51582D01*
X835887Y-51832D01*
X835991Y-52020D01*
X836095Y-52186D01*
X836179Y-52291D01*
X836220Y-52374D01*
X836241Y-52395D01*
X836553Y-52749D01*
X836887Y-53082D01*
X837241Y-53353D01*
X837616Y-53582D01*
X837970Y-53790D01*
X838345Y-53957D01*
X838720Y-54082D01*
X839074Y-54207D01*
X839407Y-54290D01*
X839698Y-54352D01*
X839990Y-54394D01*
X840219Y-54415D01*
X840427Y-54436D01*
X840573Y-54457D01*
X840698D01*
X841115Y-54436D01*
X841531Y-54373D01*
X841906Y-54290D01*
X842260Y-54165D01*
X842614Y-54040D01*
X842927Y-53873D01*
X843218Y-53728D01*
X843489Y-53540D01*
X843718Y-53373D01*
X843947Y-53207D01*
X844114Y-53061D01*
X844281Y-52936D01*
X844385Y-52811D01*
X844489Y-52728D01*
X844531Y-52665D01*
X844551Y-52645D01*
Y-53061D01*
Y-53436D01*
X844531Y-53769D01*
Y-54082D01*
X844510Y-54352D01*
Y-54602D01*
X844489Y-54811D01*
X844468Y-54998D01*
X844447Y-55165D01*
Y-55290D01*
X844426Y-55415D01*
X844406Y-55498D01*
Y-55560D01*
X844385Y-55602D01*
Y-55644D01*
X844239Y-56060D01*
X844052Y-56435D01*
X843843Y-56748D01*
X843656Y-56998D01*
X843447Y-57206D01*
X843302Y-57352D01*
X843198Y-57456D01*
X843177Y-57477D01*
X843156D01*
X842802Y-57706D01*
X842385Y-57852D01*
X841969Y-57976D01*
X841573Y-58060D01*
X841198Y-58102D01*
X841052Y-58122D01*
X840907D01*
X840802Y-58143D01*
X840636D01*
X840094Y-58122D01*
X839615Y-58039D01*
X839219Y-57935D01*
X838865Y-57810D01*
X838595Y-57685D01*
X838407Y-57581D01*
X838282Y-57498D01*
X838241Y-57477D01*
X838011Y-57268D01*
X837845Y-57018D01*
X837699Y-56768D01*
X837595Y-56498D01*
X837532Y-56269D01*
X837491Y-56081D01*
X837449Y-55956D01*
Y-55935D01*
Y-55915D01*
X835158Y-55602D01*
Y-56019D01*
X835200Y-56394D01*
X835262Y-56748D01*
X835366Y-57081D01*
X835470Y-57372D01*
X835595Y-57664D01*
X835720Y-57914D01*
X835866Y-58122D01*
X836012Y-58331D01*
X836137Y-58497D01*
X836262Y-58643D01*
X836387Y-58768D01*
X836470Y-58851D01*
X836553Y-58914D01*
X836595Y-58955D01*
X836616Y-58976D01*
X836908Y-59164D01*
X837241Y-59351D01*
X837553Y-59497D01*
X837907Y-59622D01*
X838574Y-59830D01*
X839219Y-59955D01*
X839511Y-59997D01*
X839782Y-60038D01*
X840032Y-60059D01*
X840240Y-60080D01*
X840407Y-60101D01*
X834679D01*
X846947D01*
Y-40210D01*
D02*
G37*
G36*
X919949Y-40210D02*
X919741D01*
X919220Y-40231D01*
X918720Y-40314D01*
X918262Y-40419D01*
X917824Y-40564D01*
X917429Y-40752D01*
X917075Y-40939D01*
X916741Y-41147D01*
X916450Y-41356D01*
X916179Y-41585D01*
X915950Y-41793D01*
X915762Y-41981D01*
X915617Y-42168D01*
X915492Y-42314D01*
X915387Y-42418D01*
X915346Y-42501D01*
X915325Y-42522D01*
Y-40523D01*
X913201D01*
D01*
Y-54457D01*
X924510D01*
Y-45334D01*
X924489Y-45063D01*
Y-44834D01*
X924468Y-44626D01*
Y-44438D01*
X924448Y-44126D01*
X924406Y-43897D01*
X924385Y-43730D01*
X924364Y-43626D01*
Y-43605D01*
X924281Y-43230D01*
X924156Y-42897D01*
X924052Y-42605D01*
X923927Y-42355D01*
X923802Y-42147D01*
X923719Y-41981D01*
X923656Y-41897D01*
X923635Y-41856D01*
X923427Y-41585D01*
X923177Y-41356D01*
X922906Y-41168D01*
X922656Y-40981D01*
X922406Y-40856D01*
X922219Y-40752D01*
X922094Y-40689D01*
X922073Y-40668D01*
X922052D01*
X921657Y-40523D01*
X921261Y-40398D01*
X920865Y-40314D01*
X920511Y-40273D01*
X920199Y-40231D01*
X920074D01*
X919949Y-40210D01*
D02*
G37*
G36*
X827410Y-40210D02*
X827202D01*
X826681Y-40231D01*
X826181Y-40314D01*
X825723Y-40419D01*
X825285Y-40564D01*
X824890Y-40752D01*
X824536Y-40939D01*
X824202Y-41147D01*
X823911Y-41356D01*
X823640Y-41585D01*
X823411Y-41793D01*
X823223Y-41981D01*
X823078Y-42168D01*
X822953Y-42314D01*
X822849Y-42418D01*
X822807Y-42501D01*
X822786Y-42522D01*
Y-40523D01*
X820662D01*
D01*
Y-54457D01*
X831971D01*
Y-45334D01*
X831951Y-45063D01*
Y-44834D01*
X831930Y-44626D01*
Y-44438D01*
X831909Y-44126D01*
X831867Y-43897D01*
X831846Y-43730D01*
X831825Y-43626D01*
Y-43605D01*
X831742Y-43230D01*
X831617Y-42897D01*
X831513Y-42606D01*
X831388Y-42355D01*
X831263Y-42147D01*
X831180Y-41981D01*
X831117Y-41897D01*
X831096Y-41856D01*
X830888Y-41585D01*
X830638Y-41356D01*
X830368Y-41168D01*
X830118Y-40981D01*
X829868Y-40856D01*
X829680Y-40752D01*
X829555Y-40689D01*
X829534Y-40668D01*
X829514D01*
X829118Y-40523D01*
X828722Y-40398D01*
X828326Y-40314D01*
X827972Y-40273D01*
X827660Y-40231D01*
X827535D01*
X827410Y-40210D01*
D02*
G37*
G36*
X961730Y-40210D02*
X961605D01*
X961313Y-40231D01*
X961022Y-40293D01*
X960772Y-40356D01*
X960543Y-40439D01*
X960376Y-40543D01*
X960230Y-40606D01*
X960147Y-40668D01*
X960105Y-40689D01*
X959980Y-40793D01*
X959834Y-40918D01*
X959584Y-41189D01*
X959334Y-41522D01*
X959105Y-41856D01*
X958897Y-42147D01*
X958751Y-42418D01*
X958689Y-42501D01*
X958647Y-42585D01*
X958605Y-42626D01*
Y-40523D01*
X956481D01*
Y-40502D01*
Y-54457D01*
X958835D01*
Y-47167D01*
X958856Y-46625D01*
X958897Y-46104D01*
X958960Y-45646D01*
X959022Y-45230D01*
X959085Y-44896D01*
X959126Y-44751D01*
X959147Y-44626D01*
X959168Y-44542D01*
X959189Y-44480D01*
X959210Y-44438D01*
Y-44418D01*
X959334Y-44126D01*
X959460Y-43855D01*
X959605Y-43647D01*
X959751Y-43459D01*
X959876Y-43314D01*
X959980Y-43209D01*
X960063Y-43147D01*
X960084Y-43126D01*
X960334Y-42959D01*
X960563Y-42855D01*
X960792Y-42772D01*
X961022Y-42710D01*
X961209Y-42668D01*
X961355Y-42647D01*
X961480D01*
X961813Y-42668D01*
X962125Y-42730D01*
X962417Y-42814D01*
X962667Y-42897D01*
X962896Y-43001D01*
X963063Y-43085D01*
X963167Y-43147D01*
X963208Y-43168D01*
X964042Y-40981D01*
X963583Y-40731D01*
X963125Y-40543D01*
X962729Y-40398D01*
X962355Y-40314D01*
X962042Y-40252D01*
X961917Y-40231D01*
X961813D01*
X961730Y-40210D01*
D02*
G37*
G36*
X938777D02*
X927197D01*
X932716D01*
X932321Y-40231D01*
X931946Y-40252D01*
X931592Y-40293D01*
X931300Y-40356D01*
X931029Y-40419D01*
X930842Y-40460D01*
X930717Y-40481D01*
X930696Y-40502D01*
X930675D01*
X930342Y-40606D01*
X930030Y-40731D01*
X929780Y-40856D01*
X929571Y-40960D01*
X929405Y-41043D01*
X929280Y-41127D01*
X929196Y-41168D01*
X929176Y-41189D01*
X928905Y-41397D01*
X928676Y-41606D01*
X928467Y-41835D01*
X928322Y-42043D01*
X928176Y-42231D01*
X928092Y-42376D01*
X928030Y-42460D01*
X928009Y-42501D01*
X927863Y-42793D01*
X927759Y-43105D01*
X927697Y-43397D01*
X927655Y-43668D01*
X927614Y-43897D01*
X927593Y-44063D01*
Y-44188D01*
Y-44209D01*
Y-44230D01*
X927614Y-44605D01*
X927676Y-44959D01*
X927759Y-45271D01*
X927843Y-45542D01*
X927926Y-45771D01*
X928009Y-45959D01*
X928072Y-46063D01*
X928092Y-46104D01*
X928301Y-46396D01*
X928551Y-46667D01*
X928801Y-46875D01*
X929051Y-47063D01*
X929280Y-47229D01*
X929446Y-47333D01*
X929571Y-47396D01*
X929592Y-47417D01*
X929613D01*
X929821Y-47500D01*
X930071Y-47604D01*
X930321Y-47708D01*
X930613Y-47792D01*
X931217Y-47979D01*
X931800Y-48166D01*
X932092Y-48250D01*
X932362Y-48333D01*
X932612Y-48396D01*
X932821Y-48458D01*
X932987Y-48500D01*
X933133Y-48541D01*
X933216Y-48562D01*
X933237D01*
X933570Y-48646D01*
X933883Y-48729D01*
X934174Y-48812D01*
X934424Y-48896D01*
X934653Y-48958D01*
X934841Y-49021D01*
X935007Y-49083D01*
X935174Y-49145D01*
X935299Y-49187D01*
X935403Y-49229D01*
X935549Y-49291D01*
X935632Y-49333D01*
X935653Y-49354D01*
X935882Y-49541D01*
X936070Y-49749D01*
X936195Y-49958D01*
X936278Y-50166D01*
X936320Y-50333D01*
X936361Y-50499D01*
Y-50583D01*
Y-50624D01*
X936320Y-50957D01*
X936236Y-51249D01*
X936111Y-51520D01*
X935965Y-51749D01*
X935820Y-51936D01*
X935695Y-52061D01*
X935611Y-52165D01*
X935570Y-52186D01*
X935237Y-52395D01*
X934862Y-52561D01*
X934445Y-52665D01*
X934049Y-52749D01*
X933695Y-52790D01*
X933549Y-52811D01*
X933404D01*
X933299Y-52832D01*
X933133D01*
X932570Y-52790D01*
X932071Y-52707D01*
X931633Y-52603D01*
X931279Y-52457D01*
X930988Y-52332D01*
X930779Y-52207D01*
X930654Y-52124D01*
X930633Y-52103D01*
X930613D01*
X930300Y-51791D01*
X930071Y-51457D01*
X929884Y-51082D01*
X929738Y-50728D01*
X929634Y-50416D01*
X929592Y-50291D01*
X929571Y-50166D01*
X929550Y-50062D01*
Y-49999D01*
X929530Y-49958D01*
Y-49937D01*
X927197Y-50312D01*
D01*
X927280Y-50708D01*
X927384Y-51103D01*
X927509Y-51457D01*
X927634Y-51770D01*
X927780Y-52082D01*
X927926Y-52353D01*
X928072Y-52603D01*
X928238Y-52832D01*
X928384Y-53019D01*
X928530Y-53186D01*
X928655Y-53332D01*
X928759Y-53457D01*
X928863Y-53540D01*
X928926Y-53603D01*
X928967Y-53644D01*
X928988Y-53665D01*
X929280Y-53853D01*
X929571Y-54019D01*
X929904Y-54186D01*
X930238Y-54311D01*
X930946Y-54498D01*
X931612Y-54623D01*
X931925Y-54686D01*
X932216Y-54707D01*
X932487Y-54727D01*
X932695Y-54748D01*
X932883Y-54769D01*
X933154D01*
X933758Y-54748D01*
X934299Y-54686D01*
X934799Y-54581D01*
X935237Y-54477D01*
X935424Y-54436D01*
X935591Y-54394D01*
X935736Y-54332D01*
X935861Y-54290D01*
X935965Y-54248D01*
X936028Y-54227D01*
X936070Y-54207D01*
X936090D01*
X936549Y-53977D01*
X936944Y-53728D01*
X937278Y-53457D01*
X937569Y-53186D01*
X937777Y-52957D01*
X937944Y-52769D01*
X938027Y-52645D01*
X938069Y-52624D01*
Y-52603D01*
X938298Y-52207D01*
X938486Y-51811D01*
X938611Y-51437D01*
X938694Y-51103D01*
X938736Y-50812D01*
X938777Y-50583D01*
Y-54769D01*
D01*
Y-50374D01*
X938756Y-49937D01*
X938694Y-49541D01*
X938590Y-49208D01*
X938486Y-48916D01*
X938382Y-48666D01*
X938277Y-48500D01*
X938215Y-48396D01*
X938194Y-48354D01*
X937965Y-48062D01*
X937715Y-47812D01*
X937444Y-47604D01*
X937194Y-47438D01*
X936986Y-47292D01*
X936799Y-47208D01*
X936674Y-47146D01*
X936653Y-47125D01*
X936632D01*
X936424Y-47042D01*
X936195Y-46958D01*
X935945Y-46854D01*
X935674Y-46771D01*
X935111Y-46584D01*
X934528Y-46417D01*
X934258Y-46334D01*
X933987Y-46250D01*
X933758Y-46188D01*
X933570Y-46125D01*
X933383Y-46084D01*
X933258Y-46042D01*
X933175Y-46021D01*
X933154D01*
X932841Y-45938D01*
X932570Y-45855D01*
X932321Y-45792D01*
X932092Y-45730D01*
X931904Y-45667D01*
X931737Y-45626D01*
X931592Y-45584D01*
X931467Y-45542D01*
X931279Y-45480D01*
X931154Y-45438D01*
X931092Y-45417D01*
X931071D01*
X930863Y-45313D01*
X930675Y-45209D01*
X930509Y-45105D01*
X930384Y-45001D01*
X930279Y-44917D01*
X930217Y-44855D01*
X930175Y-44813D01*
X930154Y-44792D01*
X930071Y-44647D01*
X930009Y-44501D01*
X929925Y-44230D01*
X929904Y-44126D01*
X929884Y-44043D01*
Y-43980D01*
Y-43959D01*
X929904Y-43689D01*
X929988Y-43459D01*
X930092Y-43230D01*
X930238Y-43043D01*
X930363Y-42897D01*
X930467Y-42793D01*
X930550Y-42710D01*
X930571Y-42689D01*
X930717Y-42585D01*
X930863Y-42501D01*
X931217Y-42376D01*
X931612Y-42272D01*
X931987Y-42210D01*
X932341Y-42168D01*
X932487D01*
X932612Y-42147D01*
X932883D01*
X933383Y-42168D01*
X933799Y-42251D01*
X934174Y-42335D01*
X934487Y-42460D01*
X934716Y-42564D01*
X934882Y-42668D01*
X934987Y-42751D01*
X935028Y-42772D01*
X935278Y-43022D01*
X935486Y-43293D01*
X935653Y-43563D01*
X935778Y-43834D01*
X935861Y-44063D01*
X935903Y-44272D01*
X935945Y-44397D01*
Y-44418D01*
Y-44438D01*
X938257Y-44126D01*
X938152Y-43647D01*
X938027Y-43230D01*
X937903Y-42855D01*
X937757Y-42543D01*
X937632Y-42314D01*
X937528Y-42126D01*
X937444Y-42022D01*
X937423Y-41981D01*
X937173Y-41689D01*
X936882Y-41439D01*
X936590Y-41210D01*
X936299Y-41023D01*
X936007Y-40877D01*
X935799Y-40773D01*
X935716Y-40731D01*
X935653Y-40710D01*
X935611Y-40689D01*
X935591D01*
X935111Y-40523D01*
X934632Y-40419D01*
X934133Y-40335D01*
X933695Y-40273D01*
X933299Y-40231D01*
X933133D01*
X932987Y-40210D01*
X938777D01*
D01*
D02*
G37*
G36*
X953732D02*
Y-47313D01*
X953711Y-46708D01*
X953649Y-46125D01*
X953565Y-45584D01*
X953440Y-45084D01*
X953315Y-44626D01*
X953149Y-44209D01*
X952982Y-43814D01*
X952815Y-43459D01*
X952649Y-43147D01*
X952482Y-42876D01*
X952316Y-42647D01*
X952190Y-42460D01*
X952066Y-42293D01*
X951982Y-42189D01*
X951920Y-42126D01*
X951899Y-42106D01*
X951545Y-41772D01*
X951170Y-41481D01*
X950795Y-41231D01*
X950399Y-41002D01*
X950004Y-40835D01*
X949629Y-40668D01*
X949233Y-40543D01*
X948879Y-40439D01*
X948525Y-40377D01*
X948212Y-40314D01*
X947942Y-40273D01*
X947692Y-40231D01*
X947483D01*
X947338Y-40210D01*
X947213D01*
X946734Y-40231D01*
X946275Y-40273D01*
X945859Y-40356D01*
X945442Y-40460D01*
X945046Y-40564D01*
X944692Y-40710D01*
X944359Y-40835D01*
X944068Y-40981D01*
X943776Y-41127D01*
X943547Y-41272D01*
X943339Y-41418D01*
X943151Y-41522D01*
X943026Y-41627D01*
X942922Y-41710D01*
X942860Y-41751D01*
X942839Y-41772D01*
X942464Y-42147D01*
X942131Y-42543D01*
X941839Y-42980D01*
X941589Y-43439D01*
X941402Y-43918D01*
X941214Y-44397D01*
X941068Y-44876D01*
X940964Y-45334D01*
X940881Y-45771D01*
X940798Y-46167D01*
X940756Y-46542D01*
X940735Y-46875D01*
X940714Y-47125D01*
X940693Y-47333D01*
Y-47313D01*
Y-47500D01*
X940714Y-48146D01*
X940777Y-48750D01*
X940860Y-49312D01*
X940964Y-49833D01*
X941110Y-50312D01*
X941256Y-50749D01*
X941422Y-51145D01*
X941589Y-51520D01*
X941756Y-51832D01*
X941922Y-52124D01*
X942068Y-52353D01*
X942214Y-52540D01*
X942318Y-52707D01*
X942401Y-52811D01*
X942464Y-52874D01*
X942485Y-52895D01*
X942839Y-53228D01*
X943214Y-53519D01*
X943588Y-53769D01*
X943984Y-53977D01*
X944380Y-54165D01*
X944776Y-54311D01*
X945151Y-54436D01*
X945526Y-54540D01*
X945880Y-54602D01*
X946192Y-54665D01*
X946484Y-54707D01*
X946734Y-54748D01*
X946942D01*
X947088Y-54769D01*
X940693D01*
D01*
X953732D01*
Y-40210D01*
D02*
G37*
G36*
X877751Y-46313D02*
X870482D01*
Y-48687D01*
X877751D01*
Y-46313D01*
D02*
G37*
G36*
X852820Y-35232D02*
X850467D01*
Y-54457D01*
X852820D01*
Y-35232D01*
D02*
G37*
G36*
X811060D02*
X808311D01*
X800958Y-54457D01*
D01*
X818933D01*
D01*
X811060Y-35232D01*
D02*
G37*
G36*
X904099Y-40210D02*
X903974D01*
X903453Y-40231D01*
X902932Y-40293D01*
X902474Y-40398D01*
X902016Y-40523D01*
X901599Y-40668D01*
X901204Y-40835D01*
X900850Y-41002D01*
X900537Y-41189D01*
X900246Y-41377D01*
X899995Y-41543D01*
X899766Y-41710D01*
X899600Y-41856D01*
X899454Y-41981D01*
X899350Y-42085D01*
X899287Y-42147D01*
X899267Y-42168D01*
X898954Y-42543D01*
X898683Y-42959D01*
X898433Y-43397D01*
X898225Y-43834D01*
X898058Y-44292D01*
X897913Y-44751D01*
X897788Y-45188D01*
X897704Y-45626D01*
X897621Y-46021D01*
X897579Y-46417D01*
X897538Y-46750D01*
X897496Y-47042D01*
Y-47292D01*
X897475Y-47479D01*
Y-47625D01*
X897496Y-48250D01*
X897559Y-48833D01*
X897642Y-49374D01*
X897746Y-49874D01*
X897892Y-50353D01*
X898038Y-50791D01*
X898204Y-51187D01*
X898371Y-51541D01*
X898517Y-51853D01*
X898683Y-52124D01*
X898829Y-52353D01*
X898975Y-52540D01*
X899079Y-52707D01*
X899162Y-52811D01*
X899225Y-52874D01*
X899246Y-52895D01*
X899600Y-53228D01*
X899975Y-53519D01*
X900350Y-53769D01*
X900766Y-53977D01*
X901162Y-54165D01*
X901579Y-54311D01*
X901974Y-54436D01*
X902349Y-54540D01*
X902703Y-54602D01*
X903036Y-54665D01*
X903328Y-54707D01*
X903599Y-54748D01*
X903807D01*
X903974Y-54769D01*
X897475D01*
D01*
X910305D01*
Y-47458D01*
X910285Y-46834D01*
X910222Y-46250D01*
X910139Y-45688D01*
X910035Y-45167D01*
X909889Y-44688D01*
X909743Y-44251D01*
X909576Y-43855D01*
X909431Y-43501D01*
X909264Y-43189D01*
X909097Y-42897D01*
X908952Y-42668D01*
X908806Y-42481D01*
X908702Y-42314D01*
X908618Y-42210D01*
X908556Y-42147D01*
X908535Y-42126D01*
X908202Y-41793D01*
X907827Y-41501D01*
X907452Y-41231D01*
X907077Y-41023D01*
X906702Y-40835D01*
X906306Y-40668D01*
X905952Y-40543D01*
X905598Y-40439D01*
X905265Y-40377D01*
X904953Y-40314D01*
X904682Y-40273D01*
X904432Y-40231D01*
X904244D01*
X904099Y-40210D01*
D02*
G37*
G36*
X862318Y-40210D02*
X862193D01*
X861672Y-40231D01*
X861151Y-40293D01*
X860693Y-40398D01*
X860235Y-40523D01*
X859818Y-40668D01*
X859423Y-40835D01*
X859069Y-41002D01*
X858756Y-41189D01*
X858465Y-41377D01*
X858215Y-41543D01*
X857986Y-41710D01*
X857819Y-41856D01*
X857673Y-41981D01*
X857569Y-42085D01*
X857506Y-42147D01*
X857486Y-42168D01*
X857173Y-42543D01*
X856902Y-42959D01*
X856653Y-43397D01*
X856444Y-43834D01*
X856278Y-44292D01*
X856132Y-44751D01*
X856007Y-45188D01*
X855923Y-45626D01*
X855840Y-46021D01*
X855798Y-46417D01*
X855757Y-46750D01*
X855715Y-47042D01*
Y-47292D01*
X855694Y-47479D01*
Y-47625D01*
X855715Y-48250D01*
X855778Y-48833D01*
X855861Y-49375D01*
X855965Y-49874D01*
X856111Y-50353D01*
X856257Y-50791D01*
X856423Y-51187D01*
X856590Y-51541D01*
X856736Y-51853D01*
X856902Y-52124D01*
X857048Y-52353D01*
X857194Y-52540D01*
X857298Y-52707D01*
X857381Y-52811D01*
X857444Y-52874D01*
X857465Y-52895D01*
X857819Y-53228D01*
X858194Y-53519D01*
X858569Y-53769D01*
X858985Y-53977D01*
X859381Y-54165D01*
X859798Y-54311D01*
X860193Y-54436D01*
X860568Y-54540D01*
X860922Y-54602D01*
X861255Y-54665D01*
X861547Y-54707D01*
X861818Y-54748D01*
X862026D01*
X862193Y-54769D01*
X855694D01*
D01*
X868524Y-54769D01*
Y-47458D01*
X868504Y-46834D01*
X868441Y-46250D01*
X868358Y-45688D01*
X868254Y-45167D01*
X868108Y-44688D01*
X867962Y-44251D01*
X867795Y-43855D01*
X867650Y-43501D01*
X867483Y-43189D01*
X867316Y-42897D01*
X867171Y-42668D01*
X867025Y-42481D01*
X866921Y-42314D01*
X866837Y-42210D01*
X866775Y-42147D01*
X866754Y-42126D01*
X866421Y-41793D01*
X866046Y-41502D01*
X865671Y-41231D01*
X865296Y-41023D01*
X864921Y-40835D01*
X864525Y-40668D01*
X864171Y-40543D01*
X863817Y-40439D01*
X863484Y-40377D01*
X863172Y-40314D01*
X862901Y-40273D01*
X862651Y-40231D01*
X862464D01*
X862318Y-40210D01*
D02*
G37*
G36*
X901479Y-67690D02*
X888899D01*
X894898D01*
X894481Y-67711D01*
X894085Y-67752D01*
X893710Y-67815D01*
X893336Y-67898D01*
X893002Y-68002D01*
X892690Y-68107D01*
X892398Y-68232D01*
X892148Y-68336D01*
X891898Y-68461D01*
X891690Y-68586D01*
X891524Y-68690D01*
X891357Y-68794D01*
X891253Y-68877D01*
X891149Y-68940D01*
X891107Y-68981D01*
X891086Y-69002D01*
X890815Y-69252D01*
X890565Y-69544D01*
X890336Y-69835D01*
X890128Y-70127D01*
X889941Y-70439D01*
X889795Y-70731D01*
X889524Y-71335D01*
X889420Y-71606D01*
X889337Y-71856D01*
X889274Y-72085D01*
X889212Y-72272D01*
X889170Y-72439D01*
X889149Y-72564D01*
X889128Y-72647D01*
Y-72668D01*
X891482Y-73085D01*
X891607Y-72480D01*
X891774Y-71960D01*
X891961Y-71501D01*
X892169Y-71147D01*
X892336Y-70856D01*
X892503Y-70668D01*
X892607Y-70543D01*
X892648Y-70502D01*
X893023Y-70210D01*
X893398Y-70002D01*
X893794Y-69835D01*
X894148Y-69731D01*
X894481Y-69669D01*
X894606Y-69648D01*
X894731D01*
X894835Y-69627D01*
X894960D01*
X895460Y-69669D01*
X895897Y-69752D01*
X896293Y-69898D01*
X896626Y-70044D01*
X896876Y-70210D01*
X897064Y-70356D01*
X897189Y-70439D01*
X897230Y-70481D01*
X897397Y-70648D01*
X897522Y-70814D01*
X897751Y-71189D01*
X897918Y-71543D01*
X898022Y-71876D01*
X898084Y-72189D01*
X898105Y-72418D01*
X898126Y-72522D01*
Y-72585D01*
Y-72626D01*
Y-72647D01*
X898105Y-72939D01*
X898064Y-73209D01*
X898022Y-73480D01*
X897939Y-73709D01*
X897730Y-74126D01*
X897522Y-74459D01*
X897293Y-74730D01*
X897085Y-74917D01*
X897001Y-74980D01*
X896960Y-75022D01*
X896918Y-75063D01*
X896897D01*
X896439Y-75334D01*
X895960Y-75521D01*
X895502Y-75667D01*
X895085Y-75750D01*
X894731Y-75813D01*
X894585Y-75834D01*
X894439D01*
X894335Y-75855D01*
X894065D01*
X893940Y-75834D01*
X893836Y-75813D01*
X893794D01*
X893544Y-77875D01*
X893898Y-77792D01*
X894231Y-77729D01*
X894502Y-77687D01*
X894752Y-77646D01*
X894939D01*
X895085Y-77625D01*
X895210D01*
X895502Y-77646D01*
X895793Y-77667D01*
X896314Y-77792D01*
X896772Y-77958D01*
X897168Y-78146D01*
X897480Y-78354D01*
X897605Y-78437D01*
X897710Y-78521D01*
X897793Y-78583D01*
X897855Y-78646D01*
X897876Y-78666D01*
X897897Y-78687D01*
X898084Y-78896D01*
X898251Y-79104D01*
X898397Y-79312D01*
X898522Y-79541D01*
X898709Y-79978D01*
X898855Y-80416D01*
X898917Y-80791D01*
X898938Y-80937D01*
X898959Y-81082D01*
X898980Y-81187D01*
Y-81291D01*
Y-81332D01*
Y-81353D01*
X898959Y-81666D01*
X898938Y-81957D01*
X898792Y-82520D01*
X898626Y-82999D01*
X898418Y-83415D01*
X898293Y-83603D01*
X898188Y-83748D01*
X898105Y-83894D01*
X898022Y-83998D01*
X897939Y-84082D01*
X897876Y-84144D01*
X897855Y-84186D01*
X897834Y-84207D01*
X897605Y-84415D01*
X897376Y-84581D01*
X897147Y-84727D01*
X896918Y-84873D01*
X896439Y-85081D01*
X895981Y-85206D01*
X895606Y-85290D01*
X895418Y-85310D01*
X895293Y-85331D01*
X895169Y-85352D01*
X895002D01*
X894502Y-85310D01*
X894023Y-85206D01*
X893627Y-85081D01*
X893273Y-84915D01*
X892981Y-84748D01*
X892773Y-84623D01*
X892711Y-84561D01*
X892648Y-84519D01*
X892627Y-84477D01*
X892607D01*
X892440Y-84290D01*
X892273Y-84102D01*
X891982Y-83665D01*
X891753Y-83186D01*
X891565Y-82707D01*
X891419Y-82270D01*
X891378Y-82082D01*
X891336Y-81916D01*
X891294Y-81770D01*
X891274Y-81666D01*
X891253Y-81603D01*
Y-81582D01*
X888899Y-81895D01*
X888962Y-82332D01*
X889045Y-82749D01*
X889170Y-83144D01*
X889295Y-83519D01*
X889441Y-83873D01*
X889607Y-84186D01*
X889774Y-84498D01*
X889941Y-84748D01*
X890107Y-84998D01*
X890253Y-85206D01*
X890399Y-85394D01*
X890524Y-85540D01*
X890649Y-85665D01*
X890732Y-85748D01*
X890774Y-85789D01*
X890795Y-85810D01*
X891107Y-86081D01*
X891461Y-86310D01*
X891794Y-86498D01*
X892148Y-86685D01*
X892503Y-86831D01*
X892857Y-86935D01*
X893190Y-87039D01*
X893523Y-87122D01*
X893836Y-87185D01*
X894106Y-87227D01*
X894356Y-87268D01*
X894585Y-87289D01*
X894752D01*
X894898Y-87310D01*
X895002D01*
X895523Y-87289D01*
X896002Y-87227D01*
X896460Y-87143D01*
X896897Y-87039D01*
X897314Y-86914D01*
X897689Y-86769D01*
X898043Y-86602D01*
X898355Y-86435D01*
X898647Y-86289D01*
X898897Y-86123D01*
X899126Y-85977D01*
X899292Y-85852D01*
X899438Y-85748D01*
X899542Y-85665D01*
X899605Y-85602D01*
X899626Y-85581D01*
X899959Y-85248D01*
X900230Y-84894D01*
X900480Y-84540D01*
X900688Y-84165D01*
X900875Y-83811D01*
X901021Y-83457D01*
X901146Y-83124D01*
X901250Y-82790D01*
X901334Y-82478D01*
X901375Y-82207D01*
X901417Y-81957D01*
X901459Y-81728D01*
Y-81561D01*
X901479Y-81416D01*
Y-80978D01*
X901438Y-80645D01*
X901334Y-80041D01*
X901167Y-79520D01*
X901084Y-79291D01*
X901000Y-79083D01*
X900917Y-78875D01*
X900834Y-78708D01*
X900750Y-78562D01*
X900667Y-78458D01*
X900605Y-78354D01*
X900563Y-78292D01*
X900542Y-78250D01*
X900521Y-78229D01*
X900146Y-77792D01*
X899709Y-77438D01*
X899272Y-77167D01*
X898855Y-76938D01*
X898459Y-76771D01*
X898293Y-76708D01*
X898168Y-76667D01*
X898043Y-76625D01*
X897959Y-76604D01*
X897897Y-76584D01*
X897876D01*
X898334Y-76334D01*
X898730Y-76084D01*
X899084Y-75813D01*
X899355Y-75542D01*
X899584Y-75313D01*
X899730Y-75126D01*
X899834Y-75001D01*
X899855Y-74980D01*
Y-74959D01*
X900084Y-74563D01*
X900250Y-74167D01*
X900376Y-73793D01*
X900459Y-73439D01*
X900500Y-73147D01*
X900542Y-72897D01*
Y-72814D01*
Y-72751D01*
Y-72710D01*
Y-72689D01*
X900521Y-72210D01*
X900438Y-71751D01*
X900313Y-71335D01*
X900188Y-70960D01*
X900063Y-70648D01*
X900001Y-70523D01*
X899938Y-70419D01*
X899896Y-70335D01*
X899855Y-70252D01*
X899834Y-70231D01*
Y-70210D01*
X899542Y-69794D01*
X899209Y-69440D01*
X898876Y-69127D01*
X898543Y-68856D01*
X898251Y-68648D01*
X898022Y-68502D01*
X897918Y-68440D01*
X897855Y-68398D01*
X897814Y-68377D01*
X897793D01*
X897293Y-68148D01*
X896793Y-67982D01*
X896293Y-67857D01*
X895856Y-67773D01*
X895460Y-67732D01*
X895314Y-67711D01*
X895169Y-67690D01*
X901479D01*
D02*
G37*
G36*
X805816Y-67690D02*
X805566D01*
X805191Y-67711D01*
X804817Y-67732D01*
X804463Y-67794D01*
X804129Y-67857D01*
X803838Y-67940D01*
X803546Y-68044D01*
X803275Y-68148D01*
X803046Y-68252D01*
X802817Y-68356D01*
X802630Y-68461D01*
X802463Y-68544D01*
X802338Y-68648D01*
X802234Y-68711D01*
X802151Y-68773D01*
X802109Y-68794D01*
X802088Y-68815D01*
X801838Y-69044D01*
X801609Y-69273D01*
X801192Y-69794D01*
X800818Y-70314D01*
X800526Y-70835D01*
X800401Y-71085D01*
X800297Y-71293D01*
X800214Y-71502D01*
X800130Y-71668D01*
X800089Y-71814D01*
X800047Y-71939D01*
X800005Y-72001D01*
Y-72022D01*
X799880Y-72418D01*
X799776Y-72855D01*
X799610Y-73751D01*
X799485Y-74667D01*
X799443Y-75105D01*
X799401Y-75542D01*
X799380Y-75938D01*
X799360Y-76313D01*
X799339Y-76646D01*
Y-76938D01*
X799318Y-77167D01*
Y-67690D01*
Y-87289D01*
Y-77500D01*
X799339Y-78479D01*
X799401Y-79395D01*
X799485Y-80229D01*
X799610Y-80999D01*
X799755Y-81707D01*
X799922Y-82353D01*
X800089Y-82915D01*
X800276Y-83436D01*
X800443Y-83873D01*
X800609Y-84269D01*
X800776Y-84581D01*
X800922Y-84852D01*
X801047Y-85061D01*
X801130Y-85206D01*
X801192Y-85290D01*
X801213Y-85310D01*
X801526Y-85665D01*
X801859Y-85956D01*
X802213Y-86227D01*
X802567Y-86456D01*
X802921Y-86643D01*
X803296Y-86810D01*
X803650Y-86935D01*
X803984Y-87039D01*
X804317Y-87123D01*
X804608Y-87185D01*
X804879Y-87227D01*
X805108Y-87247D01*
X805296Y-87268D01*
X805441Y-87289D01*
X799318D01*
X811836D01*
Y-76979D01*
X811815Y-76480D01*
X811794Y-76021D01*
X811773Y-75584D01*
X811731Y-75188D01*
X811690Y-74813D01*
X811648Y-74480D01*
X811627Y-74167D01*
X811586Y-73897D01*
X811544Y-73668D01*
X811502Y-73459D01*
X811461Y-73293D01*
X811440Y-73147D01*
X811419Y-73064D01*
X811398Y-73001D01*
Y-72980D01*
X811232Y-72376D01*
X811023Y-71814D01*
X810836Y-71335D01*
X810648Y-70918D01*
X810544Y-70752D01*
X810482Y-70585D01*
X810398Y-70439D01*
X810336Y-70335D01*
X810274Y-70252D01*
X810253Y-70189D01*
X810211Y-70148D01*
Y-70127D01*
X809920Y-69710D01*
X809586Y-69335D01*
X809274Y-69023D01*
X808961Y-68773D01*
X808691Y-68565D01*
X808482Y-68440D01*
X808399Y-68377D01*
X808336Y-68336D01*
X808295Y-68315D01*
X808274D01*
X807816Y-68107D01*
X807358Y-67961D01*
X806899Y-67836D01*
X806483Y-67773D01*
X806108Y-67732D01*
X805962Y-67711D01*
X805816Y-67690D01*
D02*
G37*
G36*
X886358Y-67690D02*
Y-84706D01*
X876881D01*
X877215Y-84248D01*
X877381Y-84040D01*
X877548Y-83853D01*
X877694Y-83686D01*
X877798Y-83561D01*
X877881Y-83478D01*
X877902Y-83457D01*
X878027Y-83332D01*
X878194Y-83165D01*
X878381Y-82999D01*
X878589Y-82811D01*
X879027Y-82395D01*
X879485Y-81999D01*
X879922Y-81624D01*
X880110Y-81457D01*
X880297Y-81312D01*
X880422Y-81187D01*
X880547Y-81103D01*
X880610Y-81041D01*
X880630Y-81020D01*
X881089Y-80624D01*
X881526Y-80249D01*
X881922Y-79916D01*
X882276Y-79583D01*
X882609Y-79291D01*
X882901Y-79000D01*
X883171Y-78750D01*
X883421Y-78521D01*
X883630Y-78333D01*
X883796Y-78146D01*
X883942Y-78000D01*
X884067Y-77875D01*
X884150Y-77771D01*
X884234Y-77708D01*
X884255Y-77667D01*
X884275Y-77646D01*
X884671Y-77188D01*
X884984Y-76771D01*
X885254Y-76375D01*
X885483Y-76021D01*
X885650Y-75730D01*
X885775Y-75500D01*
X885817Y-75417D01*
X885837Y-75355D01*
X885858Y-75334D01*
Y-75313D01*
X886025Y-74896D01*
X886129Y-74480D01*
X886212Y-74105D01*
X886275Y-73751D01*
X886317Y-73459D01*
X886337Y-73230D01*
Y-73147D01*
Y-73085D01*
Y-73064D01*
Y-73043D01*
X886317Y-72626D01*
X886275Y-72231D01*
X886192Y-71856D01*
X886087Y-71481D01*
X885963Y-71147D01*
X885817Y-70835D01*
X885671Y-70543D01*
X885525Y-70293D01*
X885379Y-70044D01*
X885234Y-69835D01*
X885088Y-69648D01*
X884963Y-69502D01*
X884859Y-69398D01*
X884775Y-69294D01*
X884734Y-69252D01*
X884713Y-69231D01*
X884400Y-68960D01*
X884067Y-68731D01*
X883713Y-68523D01*
X883338Y-68336D01*
X882984Y-68190D01*
X882609Y-68065D01*
X882255Y-67961D01*
X881901Y-67877D01*
X881589Y-67815D01*
X881276Y-67773D01*
X881005Y-67732D01*
X880776Y-67711D01*
X880589Y-67690D01*
X880318D01*
X879818Y-67711D01*
X879339Y-67752D01*
X878902Y-67815D01*
X878485Y-67919D01*
X878090Y-68023D01*
X877735Y-68148D01*
X877402Y-68273D01*
X877111Y-68398D01*
X876840Y-68544D01*
X876611Y-68669D01*
X876402Y-68794D01*
X876236Y-68898D01*
X876111Y-69002D01*
X876028Y-69065D01*
X875965Y-69106D01*
X875944Y-69127D01*
X875653Y-69398D01*
X875403Y-69710D01*
X875174Y-70023D01*
X874965Y-70377D01*
X874799Y-70710D01*
X874632Y-71043D01*
X874507Y-71397D01*
X874403Y-71710D01*
X874299Y-72022D01*
X874236Y-72314D01*
X874174Y-72585D01*
X874132Y-72814D01*
X874111Y-73001D01*
X874090Y-73126D01*
X874070Y-73209D01*
Y-73251D01*
X876486Y-73501D01*
X876507Y-73168D01*
X876527Y-72855D01*
X876652Y-72314D01*
X876819Y-71814D01*
X876902Y-71606D01*
X877007Y-71418D01*
X877090Y-71252D01*
X877194Y-71106D01*
X877277Y-70981D01*
X877340Y-70877D01*
X877423Y-70793D01*
X877465Y-70731D01*
X877486Y-70710D01*
X877506Y-70689D01*
X877715Y-70502D01*
X877923Y-70335D01*
X878152Y-70210D01*
X878381Y-70085D01*
X878839Y-69898D01*
X879277Y-69773D01*
X879652Y-69710D01*
X879818Y-69669D01*
X879964D01*
X880089Y-69648D01*
X880547D01*
X880839Y-69689D01*
X881359Y-69794D01*
X881797Y-69960D01*
X882193Y-70127D01*
X882484Y-70314D01*
X882609Y-70398D01*
X882713Y-70481D01*
X882797Y-70543D01*
X882859Y-70585D01*
X882880Y-70606D01*
X882901Y-70627D01*
X883088Y-70814D01*
X883234Y-71002D01*
X883380Y-71189D01*
X883484Y-71397D01*
X883671Y-71793D01*
X883796Y-72168D01*
X883859Y-72480D01*
X883901Y-72626D01*
Y-72751D01*
X883921Y-72835D01*
Y-72918D01*
Y-72959D01*
Y-72980D01*
X883901Y-73230D01*
X883880Y-73480D01*
X883755Y-73980D01*
X883567Y-74459D01*
X883359Y-74896D01*
X883151Y-75271D01*
X883067Y-75417D01*
X882963Y-75563D01*
X882901Y-75667D01*
X882838Y-75750D01*
X882818Y-75792D01*
X882797Y-75813D01*
X882568Y-76104D01*
X882297Y-76417D01*
X881984Y-76750D01*
X881651Y-77083D01*
X880964Y-77771D01*
X880256Y-78416D01*
X879922Y-78729D01*
X879589Y-79000D01*
X879297Y-79250D01*
X879048Y-79458D01*
X878839Y-79645D01*
X878693Y-79770D01*
X878589Y-79874D01*
X878548Y-79895D01*
X878173Y-80208D01*
X877840Y-80499D01*
X877506Y-80770D01*
X877215Y-81041D01*
X876923Y-81291D01*
X876673Y-81541D01*
X876444Y-81749D01*
X876236Y-81957D01*
X876048Y-82145D01*
X875903Y-82311D01*
X875757Y-82457D01*
X875653Y-82561D01*
X875548Y-82665D01*
X875486Y-82728D01*
X875465Y-82769D01*
X875444Y-82790D01*
X875069Y-83249D01*
X874757Y-83707D01*
X874486Y-84144D01*
X874278Y-84540D01*
X874111Y-84873D01*
X874049Y-85019D01*
X873986Y-85123D01*
X873945Y-85227D01*
X873924Y-85290D01*
X873903Y-85331D01*
Y-85352D01*
X873799Y-85644D01*
X873736Y-85935D01*
X873674Y-86206D01*
X873653Y-86456D01*
X873632Y-86664D01*
Y-86977D01*
X886358D01*
Y-67690D01*
D02*
G37*
G36*
X863968Y-67690D02*
Y-84706D01*
X854491D01*
X854825Y-84248D01*
X854991Y-84040D01*
X855158Y-83853D01*
X855304Y-83686D01*
X855408Y-83561D01*
X855491Y-83478D01*
X855512Y-83457D01*
X855637Y-83332D01*
X855804Y-83165D01*
X855991Y-82999D01*
X856199Y-82811D01*
X856637Y-82395D01*
X857095Y-81999D01*
X857532Y-81624D01*
X857720Y-81457D01*
X857907Y-81312D01*
X858032Y-81187D01*
X858157Y-81103D01*
X858220Y-81041D01*
X858240Y-81020D01*
X858699Y-80624D01*
X859136Y-80249D01*
X859532Y-79916D01*
X859886Y-79583D01*
X860219Y-79291D01*
X860511Y-79000D01*
X860781Y-78750D01*
X861031Y-78521D01*
X861240Y-78333D01*
X861406Y-78146D01*
X861552Y-78000D01*
X861677Y-77875D01*
X861760Y-77771D01*
X861844Y-77708D01*
X861864Y-77667D01*
X861885Y-77646D01*
X862281Y-77188D01*
X862594Y-76771D01*
X862864Y-76375D01*
X863093Y-76021D01*
X863260Y-75730D01*
X863385Y-75500D01*
X863427Y-75417D01*
X863447Y-75355D01*
X863468Y-75334D01*
Y-75313D01*
X863635Y-74896D01*
X863739Y-74480D01*
X863822Y-74105D01*
X863885Y-73751D01*
X863926Y-73459D01*
X863947Y-73230D01*
Y-73147D01*
Y-73085D01*
Y-73064D01*
Y-73043D01*
X863926Y-72626D01*
X863885Y-72231D01*
X863801Y-71856D01*
X863697Y-71481D01*
X863572Y-71147D01*
X863427Y-70835D01*
X863281Y-70543D01*
X863135Y-70293D01*
X862989Y-70044D01*
X862843Y-69835D01*
X862698Y-69648D01*
X862573Y-69502D01*
X862468Y-69398D01*
X862385Y-69294D01*
X862344Y-69252D01*
X862323Y-69231D01*
X862010Y-68960D01*
X861677Y-68731D01*
X861323Y-68523D01*
X860948Y-68336D01*
X860594Y-68190D01*
X860219Y-68065D01*
X859865Y-67961D01*
X859511Y-67877D01*
X859199Y-67815D01*
X858886Y-67773D01*
X858615Y-67732D01*
X858386Y-67711D01*
X858199Y-67690D01*
X857928D01*
X857428Y-67711D01*
X856949Y-67752D01*
X856512Y-67815D01*
X856095Y-67919D01*
X855699Y-68023D01*
X855345Y-68148D01*
X855012Y-68273D01*
X854721Y-68398D01*
X854450Y-68544D01*
X854221Y-68669D01*
X854012Y-68794D01*
X853846Y-68898D01*
X853721Y-69002D01*
X853637Y-69065D01*
X853575Y-69106D01*
X853554Y-69127D01*
X853262Y-69398D01*
X853013Y-69710D01*
X852784Y-70023D01*
X852575Y-70377D01*
X852409Y-70710D01*
X852242Y-71043D01*
X852117Y-71397D01*
X852013Y-71710D01*
X851909Y-72022D01*
X851846Y-72314D01*
X851784Y-72585D01*
X851742Y-72814D01*
X851721Y-73001D01*
X851700Y-73126D01*
X851680Y-73210D01*
Y-73251D01*
X854096Y-73501D01*
X854117Y-73168D01*
X854137Y-72855D01*
X854262Y-72314D01*
X854429Y-71814D01*
X854512Y-71606D01*
X854616Y-71418D01*
X854700Y-71252D01*
X854804Y-71106D01*
X854887Y-70981D01*
X854950Y-70877D01*
X855033Y-70793D01*
X855075Y-70731D01*
X855095Y-70710D01*
X855116Y-70689D01*
X855324Y-70502D01*
X855533Y-70335D01*
X855762Y-70210D01*
X855991Y-70085D01*
X856449Y-69898D01*
X856887Y-69773D01*
X857262Y-69710D01*
X857428Y-69669D01*
X857574D01*
X857699Y-69648D01*
X858157D01*
X858449Y-69689D01*
X858969Y-69794D01*
X859407Y-69960D01*
X859802Y-70127D01*
X860094Y-70314D01*
X860219Y-70398D01*
X860323Y-70481D01*
X860406Y-70543D01*
X860469Y-70585D01*
X860490Y-70606D01*
X860511Y-70627D01*
X860698Y-70814D01*
X860844Y-71002D01*
X860990Y-71189D01*
X861094Y-71397D01*
X861281Y-71793D01*
X861406Y-72168D01*
X861469Y-72481D01*
X861510Y-72626D01*
Y-72751D01*
X861531Y-72835D01*
Y-72918D01*
Y-72959D01*
Y-72980D01*
X861510Y-73230D01*
X861490Y-73480D01*
X861365Y-73980D01*
X861177Y-74459D01*
X860969Y-74896D01*
X860761Y-75271D01*
X860677Y-75417D01*
X860573Y-75563D01*
X860511Y-75667D01*
X860448Y-75750D01*
X860427Y-75792D01*
X860406Y-75813D01*
X860177Y-76104D01*
X859907Y-76417D01*
X859594Y-76750D01*
X859261Y-77084D01*
X858574Y-77771D01*
X857866Y-78417D01*
X857532Y-78729D01*
X857199Y-79000D01*
X856907Y-79250D01*
X856657Y-79458D01*
X856449Y-79645D01*
X856303Y-79770D01*
X856199Y-79874D01*
X856158Y-79895D01*
X855783Y-80208D01*
X855450Y-80499D01*
X855116Y-80770D01*
X854825Y-81041D01*
X854533Y-81291D01*
X854283Y-81541D01*
X854054Y-81749D01*
X853846Y-81957D01*
X853658Y-82145D01*
X853512Y-82311D01*
X853367Y-82457D01*
X853262Y-82561D01*
X853158Y-82665D01*
X853096Y-82728D01*
X853075Y-82769D01*
X853054Y-82790D01*
X852679Y-83249D01*
X852367Y-83707D01*
X852096Y-84144D01*
X851888Y-84540D01*
X851721Y-84873D01*
X851659Y-85019D01*
X851596Y-85123D01*
X851555Y-85227D01*
X851534Y-85290D01*
X851513Y-85331D01*
Y-85352D01*
X851409Y-85644D01*
X851346Y-85935D01*
X851284Y-86206D01*
X851263Y-86456D01*
X851242Y-86664D01*
Y-86977D01*
X863968D01*
Y-67690D01*
D02*
G37*
G36*
X965661Y-67700D02*
X953144D01*
Y-87300D01*
Y-77510D01*
X953164Y-78489D01*
X953227Y-79406D01*
X953310Y-80239D01*
X953435Y-81010D01*
X953581Y-81718D01*
X953748Y-82363D01*
X953914Y-82926D01*
X954102Y-83446D01*
X954268Y-83884D01*
X954435Y-84279D01*
X954602Y-84592D01*
X954747Y-84863D01*
X954872Y-85071D01*
X954956Y-85217D01*
X955018Y-85300D01*
X955039Y-85321D01*
X955351Y-85675D01*
X955685Y-85967D01*
X956039Y-86237D01*
X956393Y-86467D01*
X956747Y-86654D01*
X957122Y-86821D01*
X957476Y-86945D01*
X957809Y-87050D01*
X958142Y-87133D01*
X958434Y-87196D01*
X958705Y-87237D01*
X958934Y-87258D01*
X959121Y-87279D01*
X959267Y-87300D01*
X958762D01*
X959392D01*
X959788Y-87279D01*
X960142Y-87258D01*
X960496Y-87196D01*
X960829Y-87133D01*
X961142Y-87029D01*
X961412Y-86945D01*
X961683Y-86841D01*
X961912Y-86737D01*
X962141Y-86633D01*
X962329Y-86529D01*
X962495Y-86425D01*
X962620Y-86341D01*
X962724Y-86279D01*
X962808Y-86216D01*
X962849Y-86196D01*
X962870Y-86175D01*
X963120Y-85946D01*
X963370Y-85717D01*
X963787Y-85196D01*
X964141Y-84675D01*
X964432Y-84155D01*
X964557Y-83905D01*
X964661Y-83675D01*
X964745Y-83488D01*
X964828Y-83301D01*
X964891Y-83176D01*
X964911Y-83051D01*
X964953Y-82988D01*
Y-82967D01*
X965078Y-82572D01*
X965182Y-82134D01*
X965370Y-81239D01*
X965495Y-80322D01*
X965536Y-79885D01*
X965578Y-79447D01*
X965599Y-79052D01*
X965620Y-78677D01*
X965640Y-78364D01*
X965661Y-78073D01*
Y-84863D01*
Y-76990D01*
X965640Y-76490D01*
X965620Y-76032D01*
X965599Y-75594D01*
X965557Y-75198D01*
X965515Y-74824D01*
X965474Y-74490D01*
X965453Y-74178D01*
X965411Y-73907D01*
X965370Y-73678D01*
X965328Y-73470D01*
X965286Y-73303D01*
X965266Y-73157D01*
X965245Y-73074D01*
X965224Y-73012D01*
Y-72991D01*
X965057Y-72387D01*
X964849Y-71824D01*
X964661Y-71345D01*
X964474Y-70929D01*
X964370Y-70762D01*
X964307Y-70595D01*
X964224Y-70450D01*
X964162Y-70346D01*
X964099Y-70262D01*
X964078Y-70200D01*
X964037Y-70158D01*
Y-70137D01*
X963745Y-69721D01*
X963412Y-69346D01*
X963099Y-69033D01*
X962787Y-68783D01*
X962516Y-68575D01*
X962308Y-68450D01*
X962225Y-68388D01*
X962162Y-68346D01*
X962120Y-68325D01*
X962100D01*
X961641Y-68117D01*
X961183Y-67971D01*
X960725Y-67846D01*
X960308Y-67784D01*
X959933Y-67742D01*
X959788Y-67721D01*
X959642Y-67700D01*
X965661D01*
D02*
G37*
G36*
X929400Y-67763D02*
X926817D01*
X921631Y-81739D01*
X921423Y-82322D01*
X921214Y-82884D01*
X921027Y-83426D01*
X920881Y-83905D01*
X920818Y-84113D01*
X920756Y-84300D01*
X920714Y-84467D01*
X920673Y-84613D01*
X920631Y-84717D01*
X920610Y-84821D01*
X920589Y-84863D01*
Y-84883D01*
X920423Y-84321D01*
X920256Y-83759D01*
X920089Y-83238D01*
X919944Y-82759D01*
X919860Y-82530D01*
X919798Y-82343D01*
X919735Y-82176D01*
X919694Y-82030D01*
X919652Y-81905D01*
X919611Y-81822D01*
X919590Y-81759D01*
Y-81739D01*
X914591Y-67763D01*
X911821D01*
X919277Y-86987D01*
X911821D01*
X929400D01*
D01*
X921902D01*
X929400Y-67763D01*
D02*
G37*
G36*
X826873Y-67690D02*
X814252D01*
D01*
X820271D01*
X819792Y-67711D01*
X819354Y-67773D01*
X818917Y-67857D01*
X818501Y-67961D01*
X818126Y-68107D01*
X817772Y-68252D01*
X817438Y-68419D01*
X817147Y-68586D01*
X816876Y-68752D01*
X816647Y-68919D01*
X816439Y-69065D01*
X816272Y-69211D01*
X816147Y-69315D01*
X816043Y-69398D01*
X815980Y-69460D01*
X815960Y-69481D01*
X815668Y-69835D01*
X815397Y-70189D01*
X815168Y-70585D01*
X814981Y-70981D01*
X814814Y-71356D01*
X814668Y-71751D01*
X814564Y-72147D01*
X814460Y-72501D01*
X814398Y-72855D01*
X814335Y-73168D01*
X814314Y-73459D01*
X814273Y-73709D01*
Y-73897D01*
X814252Y-74063D01*
Y-87289D01*
Y-74188D01*
X814273Y-74709D01*
X814314Y-75188D01*
X814398Y-75667D01*
X814502Y-76104D01*
X814627Y-76500D01*
X814772Y-76875D01*
X814918Y-77229D01*
X815085Y-77521D01*
X815231Y-77812D01*
X815376Y-78062D01*
X815522Y-78271D01*
X815647Y-78437D01*
X815751Y-78562D01*
X815835Y-78666D01*
X815876Y-78729D01*
X815897Y-78750D01*
X816209Y-79041D01*
X816543Y-79312D01*
X816876Y-79541D01*
X817230Y-79729D01*
X817563Y-79895D01*
X817897Y-80041D01*
X818209Y-80145D01*
X818521Y-80249D01*
X818813Y-80312D01*
X819084Y-80374D01*
X819313Y-80395D01*
X819521Y-80437D01*
X819688D01*
X819813Y-80458D01*
X819917D01*
X820438Y-80437D01*
X820938Y-80353D01*
X821396Y-80249D01*
X821791Y-80104D01*
X822125Y-79979D01*
X822250Y-79937D01*
X822375Y-79874D01*
X822458Y-79833D01*
X822520Y-79791D01*
X822562Y-79770D01*
X822583D01*
X823020Y-79479D01*
X823395Y-79187D01*
X823728Y-78875D01*
X824020Y-78583D01*
X824228Y-78333D01*
X824395Y-78125D01*
X824457Y-78042D01*
X824478Y-77979D01*
X824520Y-77958D01*
Y-78146D01*
Y-78292D01*
Y-78375D01*
Y-78417D01*
X824499Y-78958D01*
X824457Y-79479D01*
X824416Y-79958D01*
X824353Y-80395D01*
X824312Y-80583D01*
X824270Y-80770D01*
X824249Y-80916D01*
X824228Y-81041D01*
X824208Y-81145D01*
X824187Y-81228D01*
X824166Y-81270D01*
Y-81291D01*
X824020Y-81791D01*
X823874Y-82249D01*
X823728Y-82624D01*
X823604Y-82936D01*
X823478Y-83207D01*
X823374Y-83394D01*
X823312Y-83498D01*
X823291Y-83540D01*
X823083Y-83832D01*
X822854Y-84102D01*
X822625Y-84332D01*
X822416Y-84519D01*
X822229Y-84665D01*
X822083Y-84790D01*
X821979Y-84852D01*
X821937Y-84873D01*
X821625Y-85040D01*
X821292Y-85144D01*
X820979Y-85227D01*
X820687Y-85290D01*
X820438Y-85331D01*
X820229Y-85352D01*
X820042D01*
X819584Y-85331D01*
X819188Y-85248D01*
X818834Y-85123D01*
X818521Y-84998D01*
X818292Y-84873D01*
X818105Y-84748D01*
X818001Y-84665D01*
X817959Y-84644D01*
X817813Y-84498D01*
X817688Y-84332D01*
X817438Y-83977D01*
X817251Y-83603D01*
X817105Y-83228D01*
X817001Y-82874D01*
X816959Y-82728D01*
X816938Y-82603D01*
X816897Y-82478D01*
Y-82395D01*
X816876Y-82353D01*
Y-82332D01*
X814606Y-82520D01*
X814668Y-82936D01*
X814752Y-83332D01*
X814856Y-83686D01*
X814981Y-84019D01*
X815126Y-84332D01*
X815251Y-84623D01*
X815397Y-84894D01*
X815543Y-85123D01*
X815689Y-85331D01*
X815835Y-85519D01*
X815960Y-85685D01*
X816064Y-85810D01*
X816168Y-85914D01*
X816230Y-85977D01*
X816272Y-86019D01*
X816293Y-86039D01*
X816564Y-86269D01*
X816855Y-86456D01*
X817168Y-86623D01*
X817480Y-86769D01*
X817792Y-86873D01*
X818084Y-86977D01*
X818667Y-87123D01*
X818938Y-87185D01*
X819188Y-87227D01*
X819417Y-87247D01*
X819604Y-87268D01*
X819771Y-87289D01*
X819979D01*
X820375Y-87268D01*
X820750Y-87247D01*
X821458Y-87123D01*
X821791Y-87018D01*
X822083Y-86935D01*
X822375Y-86831D01*
X822625Y-86727D01*
X822875Y-86623D01*
X823083Y-86518D01*
X823249Y-86414D01*
X823416Y-86331D01*
X823520Y-86269D01*
X823624Y-86206D01*
X823666Y-86185D01*
X823687Y-86165D01*
X823978Y-85935D01*
X824249Y-85685D01*
X824728Y-85165D01*
X825145Y-84602D01*
X825478Y-84082D01*
X825603Y-83832D01*
X825728Y-83603D01*
X825832Y-83394D01*
X825915Y-83207D01*
X825978Y-83061D01*
X826020Y-82957D01*
X826061Y-82874D01*
Y-82853D01*
X826207Y-82415D01*
X826332Y-81978D01*
X826540Y-81020D01*
X826686Y-80041D01*
X826728Y-79562D01*
X826769Y-79104D01*
X826811Y-78666D01*
X826832Y-78271D01*
X826853Y-77896D01*
Y-77583D01*
X826873Y-77333D01*
Y-76334D01*
X826832Y-75730D01*
X826790Y-75167D01*
X826749Y-74647D01*
X826686Y-74167D01*
X826624Y-73709D01*
X826540Y-73314D01*
X826478Y-72959D01*
X826394Y-72626D01*
X826311Y-72355D01*
X826249Y-72126D01*
X826186Y-71939D01*
X826144Y-71772D01*
X826103Y-71668D01*
X826061Y-71606D01*
Y-71585D01*
X825894Y-71252D01*
X825728Y-70918D01*
X825540Y-70627D01*
X825353Y-70335D01*
X825145Y-70085D01*
X824957Y-69856D01*
X824749Y-69627D01*
X824561Y-69440D01*
X824395Y-69273D01*
X824228Y-69127D01*
X824082Y-69002D01*
X823937Y-68898D01*
X823833Y-68815D01*
X823749Y-68752D01*
X823708Y-68731D01*
X823687Y-68711D01*
X823395Y-68523D01*
X823104Y-68377D01*
X822791Y-68232D01*
X822500Y-68127D01*
X821937Y-67940D01*
X821396Y-67815D01*
X821167Y-67773D01*
X820938Y-67752D01*
X820750Y-67711D01*
X820583D01*
X820458Y-67690D01*
X826873D01*
D01*
D02*
G37*
G36*
X870508Y-84290D02*
X867821D01*
Y-86977D01*
X870508D01*
Y-84290D01*
D02*
G37*
G36*
X845515Y-67690D02*
X843994D01*
X843723Y-68169D01*
X843411Y-68627D01*
X843057Y-69065D01*
X842703Y-69440D01*
X842390Y-69794D01*
X842244Y-69919D01*
X842140Y-70044D01*
X842036Y-70148D01*
X841953Y-70210D01*
X841911Y-70252D01*
X841890Y-70273D01*
X841328Y-70752D01*
X840724Y-71168D01*
X840141Y-71564D01*
X839599Y-71897D01*
X839370Y-72022D01*
X839141Y-72147D01*
X838933Y-72272D01*
X838766Y-72355D01*
X838620Y-72418D01*
X838516Y-72481D01*
X838454Y-72501D01*
X838433Y-72522D01*
Y-86977D01*
Y-74792D01*
X838850Y-74626D01*
X839287Y-74438D01*
X839704Y-74230D01*
X840078Y-74043D01*
X840412Y-73855D01*
X840557Y-73793D01*
X840682Y-73709D01*
X840787Y-73668D01*
X840849Y-73626D01*
X840891Y-73584D01*
X840911D01*
X841411Y-73272D01*
X841849Y-72980D01*
X842244Y-72710D01*
X842557Y-72460D01*
X842828Y-72251D01*
X843015Y-72106D01*
X843119Y-72001D01*
X843161Y-71960D01*
Y-86977D01*
X845515D01*
Y-67690D01*
D02*
G37*
G36*
X833184Y-84290D02*
X830498D01*
Y-86977D01*
X833184D01*
Y-84290D01*
D02*
G37*
G36*
X949686Y-84300D02*
X946999D01*
Y-86987D01*
X949686D01*
Y-84300D01*
D02*
G37*
G36*
X939626Y-67700D02*
X932545D01*
D01*
X938106D01*
X937835Y-68179D01*
X937523Y-68638D01*
X937169Y-69075D01*
X936814Y-69450D01*
X936502Y-69804D01*
X936356Y-69929D01*
X936252Y-70054D01*
X936148Y-70158D01*
X936065Y-70221D01*
X936023Y-70262D01*
X936002Y-70283D01*
X935440Y-70762D01*
X934836Y-71179D01*
X934253Y-71575D01*
X933711Y-71908D01*
X933482Y-72033D01*
X933253Y-72158D01*
X933045Y-72283D01*
X932878Y-72366D01*
X932732Y-72428D01*
X932628Y-72491D01*
X932566Y-72512D01*
X932545Y-72533D01*
Y-86987D01*
Y-74803D01*
X932961Y-74636D01*
X933399Y-74449D01*
X933815Y-74240D01*
X934190Y-74053D01*
X934523Y-73865D01*
X934669Y-73803D01*
X934794Y-73720D01*
X934898Y-73678D01*
X934961Y-73636D01*
X935002Y-73595D01*
X935023D01*
X935523Y-73282D01*
X935960Y-72991D01*
X936356Y-72720D01*
X936669Y-72470D01*
X936939Y-72262D01*
X937127Y-72116D01*
X937231Y-72012D01*
X937273Y-71970D01*
Y-86987D01*
X939626D01*
Y-67700D01*
D02*
G37*
%LPD*%
G36*
X841156Y-42189D02*
X841448Y-42231D01*
X841719Y-42293D01*
X841969Y-42376D01*
X842427Y-42585D01*
X842823Y-42814D01*
X843156Y-43064D01*
X843281Y-43168D01*
X843385Y-43272D01*
X843489Y-43355D01*
X843552Y-43418D01*
X843572Y-43459D01*
X843593Y-43480D01*
X843802Y-43730D01*
X843968Y-44022D01*
X844135Y-44313D01*
X844260Y-44626D01*
X844468Y-45271D01*
X844593Y-45896D01*
X844635Y-46188D01*
X844676Y-46459D01*
X844697Y-46709D01*
X844718Y-46917D01*
X844739Y-47084D01*
Y-47229D01*
Y-47313D01*
Y-47333D01*
X844718Y-47812D01*
X844697Y-48271D01*
X844635Y-48687D01*
X844572Y-49062D01*
X844489Y-49416D01*
X844385Y-49749D01*
X844281Y-50041D01*
X844197Y-50291D01*
X844093Y-50520D01*
X843989Y-50708D01*
X843885Y-50874D01*
X843802Y-51020D01*
X843739Y-51124D01*
X843677Y-51187D01*
X843656Y-51228D01*
X843635Y-51249D01*
X843427Y-51478D01*
X843198Y-51666D01*
X842969Y-51832D01*
X842739Y-51978D01*
X842510Y-52082D01*
X842281Y-52186D01*
X841865Y-52332D01*
X841490Y-52436D01*
X841323Y-52457D01*
X841177Y-52478D01*
X841073Y-52499D01*
X840907D01*
X840615Y-52478D01*
X840323Y-52436D01*
X840052Y-52374D01*
X839782Y-52311D01*
X839324Y-52103D01*
X838928Y-51874D01*
X838615Y-51645D01*
X838490Y-51541D01*
X838365Y-51437D01*
X838282Y-51374D01*
X838220Y-51312D01*
X838199Y-51270D01*
X838178Y-51249D01*
X837991Y-50999D01*
X837824Y-50708D01*
X837678Y-50416D01*
X837553Y-50104D01*
X837366Y-49437D01*
X837241Y-48770D01*
X837178Y-48479D01*
X837158Y-48187D01*
X837137Y-47917D01*
X837116Y-47708D01*
X837095Y-47521D01*
Y-47375D01*
Y-47271D01*
Y-47250D01*
X837116Y-46792D01*
X837137Y-46354D01*
X837199Y-45959D01*
X837262Y-45584D01*
X837345Y-45251D01*
X837428Y-44938D01*
X837532Y-44667D01*
X837636Y-44418D01*
X837741Y-44188D01*
X837845Y-44001D01*
X837928Y-43834D01*
X838011Y-43689D01*
X838074Y-43584D01*
X838136Y-43522D01*
X838157Y-43480D01*
X838178Y-43459D01*
X838386Y-43230D01*
X838615Y-43043D01*
X838845Y-42855D01*
X839074Y-42710D01*
X839282Y-42585D01*
X839511Y-42481D01*
X839928Y-42335D01*
X840303Y-42231D01*
X840469Y-42210D01*
X840594Y-42189D01*
X840719Y-42168D01*
X840865D01*
X841156Y-42189D01*
D02*
G37*
G36*
X846947Y-60101D02*
X840657D01*
X841406Y-60059D01*
X842094Y-59976D01*
X842406Y-59914D01*
X842677Y-59851D01*
X842948Y-59789D01*
X843198Y-59705D01*
X843427Y-59622D01*
X843614Y-59559D01*
X843781Y-59497D01*
X843927Y-59434D01*
X844031Y-59372D01*
X844114Y-59351D01*
X844156Y-59310D01*
X844176D01*
X844676Y-58997D01*
X845114Y-58643D01*
X845468Y-58289D01*
X845759Y-57935D01*
X845988Y-57643D01*
X846155Y-57393D01*
X846218Y-57289D01*
X846259Y-57227D01*
X846280Y-57185D01*
Y-57164D01*
X846405Y-56894D01*
X846509Y-56581D01*
X846592Y-56227D01*
X846676Y-55873D01*
X846780Y-55102D01*
X846863Y-54352D01*
X846884Y-53998D01*
X846905Y-53665D01*
X846926Y-53353D01*
X846947Y-53082D01*
Y-60101D01*
D02*
G37*
G36*
X919595Y-42272D02*
X919907Y-42314D01*
X920178Y-42397D01*
X920428Y-42460D01*
X920615Y-42543D01*
X920761Y-42626D01*
X920865Y-42668D01*
X920886Y-42689D01*
X921136Y-42855D01*
X921344Y-43043D01*
X921511Y-43230D01*
X921636Y-43418D01*
X921740Y-43584D01*
X921802Y-43709D01*
X921844Y-43793D01*
X921865Y-43834D01*
X921969Y-44126D01*
X922032Y-44459D01*
X922094Y-44813D01*
X922115Y-45167D01*
X922136Y-45480D01*
X922157Y-45626D01*
Y-45750D01*
Y-45834D01*
Y-45917D01*
Y-45959D01*
Y-45980D01*
Y-54457D01*
X915554D01*
Y-46854D01*
X915575Y-46375D01*
X915596Y-45917D01*
X915658Y-45521D01*
X915721Y-45146D01*
X915804Y-44813D01*
X915887Y-44522D01*
X915991Y-44251D01*
X916096Y-44022D01*
X916200Y-43814D01*
X916304Y-43647D01*
X916387Y-43522D01*
X916470Y-43397D01*
X916533Y-43314D01*
X916595Y-43251D01*
X916616Y-43230D01*
X916637Y-43209D01*
X916845Y-43043D01*
X917075Y-42897D01*
X917512Y-42647D01*
X917949Y-42481D01*
X918345Y-42376D01*
X918699Y-42293D01*
X918866Y-42272D01*
X918991D01*
X919095Y-42251D01*
X919241D01*
X919595Y-42272D01*
D02*
G37*
G36*
X827056Y-42272D02*
X827368Y-42314D01*
X827639Y-42397D01*
X827889Y-42460D01*
X828076Y-42543D01*
X828222Y-42626D01*
X828326Y-42668D01*
X828347Y-42689D01*
X828597Y-42855D01*
X828805Y-43043D01*
X828972Y-43230D01*
X829097Y-43418D01*
X829201Y-43584D01*
X829264Y-43709D01*
X829305Y-43793D01*
X829326Y-43834D01*
X829430Y-44126D01*
X829493Y-44459D01*
X829555Y-44813D01*
X829576Y-45167D01*
X829597Y-45480D01*
X829618Y-45626D01*
Y-45750D01*
Y-45834D01*
Y-45917D01*
Y-45959D01*
Y-45980D01*
Y-54457D01*
X823015D01*
Y-46854D01*
X823036Y-46375D01*
X823057Y-45917D01*
X823119Y-45521D01*
X823182Y-45146D01*
X823265Y-44813D01*
X823348Y-44522D01*
X823453Y-44251D01*
X823557Y-44022D01*
X823661Y-43814D01*
X823765Y-43647D01*
X823848Y-43522D01*
X823932Y-43397D01*
X823994Y-43314D01*
X824057Y-43251D01*
X824078Y-43230D01*
X824098Y-43210D01*
X824307Y-43043D01*
X824536Y-42897D01*
X824973Y-42647D01*
X825411Y-42481D01*
X825806Y-42376D01*
X826160Y-42293D01*
X826327Y-42272D01*
X826452D01*
X826556Y-42251D01*
X826702D01*
X827056Y-42272D01*
D02*
G37*
G36*
X947525Y-42189D02*
X947837Y-42231D01*
X948129Y-42293D01*
X948400Y-42376D01*
X948900Y-42585D01*
X949337Y-42835D01*
X949504Y-42959D01*
X949670Y-43085D01*
X949795Y-43189D01*
X949920Y-43293D01*
X950004Y-43376D01*
X950066Y-43439D01*
X950108Y-43480D01*
X950128Y-43501D01*
X950337Y-43772D01*
X950524Y-44043D01*
X950670Y-44355D01*
X950816Y-44667D01*
X950941Y-45001D01*
X951024Y-45334D01*
X951170Y-45959D01*
X951212Y-46250D01*
X951253Y-46521D01*
X951274Y-46771D01*
X951295Y-47000D01*
X951316Y-47167D01*
Y-47313D01*
Y-47396D01*
Y-47417D01*
X951295Y-47917D01*
X951274Y-48375D01*
X951212Y-48812D01*
X951128Y-49208D01*
X951045Y-49583D01*
X950941Y-49916D01*
X950837Y-50229D01*
X950732Y-50478D01*
X950608Y-50728D01*
X950503Y-50937D01*
X950399Y-51103D01*
X950316Y-51249D01*
X950233Y-51353D01*
X950170Y-51437D01*
X950149Y-51478D01*
X950128Y-51499D01*
X949899Y-51728D01*
X949670Y-51936D01*
X949420Y-52124D01*
X949191Y-52270D01*
X948941Y-52395D01*
X948691Y-52499D01*
X948233Y-52665D01*
X947837Y-52769D01*
X947650Y-52790D01*
X947504Y-52811D01*
X947379Y-52832D01*
X947213D01*
X946879Y-52811D01*
X946588Y-52769D01*
X946275Y-52707D01*
X946005Y-52624D01*
X945505Y-52415D01*
X945088Y-52165D01*
X944901Y-52061D01*
X944734Y-51936D01*
X944609Y-51832D01*
X944484Y-51728D01*
X944401Y-51645D01*
X944338Y-51582D01*
X944297Y-51541D01*
X944276Y-51520D01*
X944068Y-51249D01*
X943901Y-50957D01*
X943734Y-50645D01*
X943609Y-50333D01*
X943401Y-49666D01*
X943255Y-49000D01*
X943214Y-48708D01*
X943172Y-48416D01*
X943151Y-48166D01*
X943130Y-47937D01*
X943110Y-47750D01*
Y-47625D01*
Y-47521D01*
Y-47500D01*
X943130Y-47021D01*
X943151Y-46563D01*
X943214Y-46146D01*
X943297Y-45750D01*
X943380Y-45396D01*
X943484Y-45063D01*
X943588Y-44771D01*
X943693Y-44501D01*
X943797Y-44272D01*
X943901Y-44063D01*
X944005Y-43897D01*
X944088Y-43751D01*
X944172Y-43647D01*
X944234Y-43563D01*
X944255Y-43522D01*
X944276Y-43501D01*
X944505Y-43272D01*
X944734Y-43064D01*
X944984Y-42876D01*
X945234Y-42730D01*
X945484Y-42605D01*
X945713Y-42501D01*
X946192Y-42335D01*
X946588Y-42231D01*
X946775Y-42210D01*
X946921Y-42189D01*
X947046Y-42168D01*
X947213D01*
X947525Y-42189D01*
D02*
G37*
G36*
X953732Y-54769D02*
X947213D01*
X947879Y-54727D01*
X948504Y-54644D01*
X949066Y-54498D01*
X949337Y-54436D01*
X949566Y-54352D01*
X949795Y-54269D01*
X949983Y-54207D01*
X950149Y-54123D01*
X950295Y-54061D01*
X950420Y-54019D01*
X950503Y-53977D01*
X950545Y-53936D01*
X950566D01*
X951107Y-53582D01*
X951587Y-53207D01*
X951982Y-52811D01*
X952316Y-52415D01*
X952586Y-52082D01*
X952690Y-51915D01*
X952774Y-51791D01*
X952836Y-51686D01*
X952878Y-51603D01*
X952919Y-51561D01*
Y-51541D01*
X953065Y-51228D01*
X953190Y-50916D01*
X953399Y-50229D01*
X953544Y-49520D01*
X953628Y-48854D01*
X953669Y-48541D01*
X953690Y-48250D01*
X953711Y-47979D01*
Y-47750D01*
X953732Y-47562D01*
Y-54769D01*
D02*
G37*
G36*
X809810Y-37857D02*
X810039Y-38523D01*
X810268Y-39190D01*
X810477Y-39835D01*
X810581Y-40127D01*
X810685Y-40398D01*
X810768Y-40648D01*
X810852Y-40835D01*
X810914Y-41023D01*
X810956Y-41147D01*
X810997Y-41231D01*
Y-41252D01*
X813018Y-46584D01*
X806457D01*
X808581Y-40939D01*
X808811Y-40252D01*
X809019Y-39585D01*
X809206Y-38961D01*
X809290Y-38669D01*
X809352Y-38398D01*
X809415Y-38148D01*
X809477Y-37919D01*
X809519Y-37732D01*
X809560Y-37544D01*
X809581Y-37419D01*
X809602Y-37315D01*
X809623Y-37253D01*
Y-37232D01*
X809810Y-37857D01*
D02*
G37*
G36*
X816038Y-54457D02*
X803645D01*
X805728Y-48646D01*
X813809D01*
X816038Y-54457D01*
D02*
G37*
G36*
X904307Y-42168D02*
X904619Y-42210D01*
X904911Y-42272D01*
X905182Y-42355D01*
X905682Y-42585D01*
X905911Y-42710D01*
X906119Y-42835D01*
X906286Y-42959D01*
X906452Y-43085D01*
X906598Y-43209D01*
X906702Y-43314D01*
X906786Y-43397D01*
X906869Y-43459D01*
X906890Y-43501D01*
X906910Y-43522D01*
X907160Y-43876D01*
X907369Y-44292D01*
X907514Y-44730D01*
X907639Y-45167D01*
X907723Y-45542D01*
X907744Y-45709D01*
X907764Y-45855D01*
X907785Y-45980D01*
X907806Y-46063D01*
Y-46125D01*
Y-46146D01*
X900016D01*
X900058Y-45813D01*
X900100Y-45500D01*
X900246Y-44938D01*
X900454Y-44438D01*
X900558Y-44209D01*
X900662Y-44022D01*
X900766Y-43834D01*
X900870Y-43689D01*
X900974Y-43563D01*
X901058Y-43439D01*
X901120Y-43355D01*
X901183Y-43293D01*
X901204Y-43272D01*
X901224Y-43251D01*
X901433Y-43064D01*
X901662Y-42876D01*
X901891Y-42730D01*
X902120Y-42605D01*
X902599Y-42418D01*
X903016Y-42293D01*
X903411Y-42210D01*
X903557Y-42189D01*
X903703Y-42168D01*
X903807Y-42147D01*
X903974D01*
X904307Y-42168D01*
D02*
G37*
G36*
X910305Y-54769D02*
X904099D01*
X904536Y-54748D01*
X904973Y-54727D01*
X905369Y-54665D01*
X905744Y-54581D01*
X906098Y-54498D01*
X906411Y-54394D01*
X906723Y-54290D01*
X906994Y-54186D01*
X907244Y-54082D01*
X907452Y-53977D01*
X907639Y-53873D01*
X907806Y-53790D01*
X907910Y-53707D01*
X908014Y-53644D01*
X908056Y-53623D01*
X908077Y-53603D01*
X908368Y-53373D01*
X908618Y-53124D01*
X908847Y-52853D01*
X909077Y-52582D01*
X909451Y-52020D01*
X909743Y-51499D01*
X909847Y-51249D01*
X909951Y-51020D01*
X910035Y-50812D01*
X910097Y-50624D01*
X910160Y-50478D01*
X910201Y-50374D01*
X910222Y-50291D01*
Y-50270D01*
X907764Y-49958D01*
X907556Y-50478D01*
X907306Y-50937D01*
X907056Y-51332D01*
X906827Y-51624D01*
X906619Y-51874D01*
X906452Y-52041D01*
X906348Y-52124D01*
X906327Y-52165D01*
X906306D01*
X905952Y-52395D01*
X905577Y-52540D01*
X905202Y-52665D01*
X904869Y-52749D01*
X904557Y-52790D01*
X904307Y-52811D01*
X904224Y-52832D01*
X904099D01*
X903786Y-52811D01*
X903474Y-52769D01*
X903182Y-52728D01*
X902912Y-52645D01*
X902412Y-52457D01*
X901995Y-52228D01*
X901808Y-52124D01*
X901641Y-51999D01*
X901516Y-51895D01*
X901391Y-51811D01*
X901308Y-51728D01*
X901245Y-51666D01*
X901204Y-51645D01*
X901183Y-51624D01*
X900974Y-51374D01*
X900787Y-51124D01*
X900641Y-50833D01*
X900495Y-50562D01*
X900266Y-49958D01*
X900100Y-49395D01*
X900037Y-49125D01*
X899995Y-48875D01*
X899954Y-48666D01*
X899933Y-48458D01*
X899912Y-48312D01*
X899891Y-48187D01*
Y-48104D01*
Y-48083D01*
X910285D01*
X910305Y-47812D01*
Y-54769D01*
D02*
G37*
G36*
X862526Y-42168D02*
X862838Y-42210D01*
X863130Y-42272D01*
X863401Y-42355D01*
X863901Y-42585D01*
X864130Y-42710D01*
X864338Y-42835D01*
X864505Y-42959D01*
X864671Y-43085D01*
X864817Y-43210D01*
X864921Y-43314D01*
X865005Y-43397D01*
X865088Y-43459D01*
X865109Y-43501D01*
X865129Y-43522D01*
X865379Y-43876D01*
X865588Y-44292D01*
X865733Y-44730D01*
X865858Y-45167D01*
X865942Y-45542D01*
X865963Y-45709D01*
X865983Y-45855D01*
X866004Y-45980D01*
X866025Y-46063D01*
Y-46125D01*
Y-46146D01*
X858235D01*
X858277Y-45813D01*
X858319Y-45500D01*
X858465Y-44938D01*
X858673Y-44438D01*
X858777Y-44209D01*
X858881Y-44022D01*
X858985Y-43834D01*
X859089Y-43689D01*
X859193Y-43563D01*
X859277Y-43439D01*
X859339Y-43355D01*
X859402Y-43293D01*
X859423Y-43272D01*
X859443Y-43251D01*
X859652Y-43064D01*
X859881Y-42876D01*
X860110Y-42730D01*
X860339Y-42606D01*
X860818Y-42418D01*
X861235Y-42293D01*
X861630Y-42210D01*
X861776Y-42189D01*
X861922Y-42168D01*
X862026Y-42147D01*
X862193D01*
X862526Y-42168D01*
D02*
G37*
G36*
X868524Y-54769D02*
X862318Y-54769D01*
X862755Y-54748D01*
X863193Y-54727D01*
X863588Y-54665D01*
X863963Y-54582D01*
X864317Y-54498D01*
X864630Y-54394D01*
X864942Y-54290D01*
X865213Y-54186D01*
X865463Y-54082D01*
X865671Y-53977D01*
X865858Y-53873D01*
X866025Y-53790D01*
X866129Y-53707D01*
X866233Y-53644D01*
X866275Y-53623D01*
X866296Y-53603D01*
X866587Y-53373D01*
X866837Y-53124D01*
X867066Y-52853D01*
X867296Y-52582D01*
X867671Y-52020D01*
X867962Y-51499D01*
X868066Y-51249D01*
X868170Y-51020D01*
X868254Y-50812D01*
X868316Y-50624D01*
X868379Y-50478D01*
X868420Y-50374D01*
X868441Y-50291D01*
Y-50270D01*
X865983Y-49958D01*
X865775Y-50478D01*
X865525Y-50937D01*
X865275Y-51332D01*
X865046Y-51624D01*
X864838Y-51874D01*
X864671Y-52041D01*
X864567Y-52124D01*
X864546Y-52165D01*
X864525D01*
X864171Y-52395D01*
X863796Y-52540D01*
X863422Y-52665D01*
X863088Y-52749D01*
X862776Y-52790D01*
X862526Y-52811D01*
X862443Y-52832D01*
X862318D01*
X862005Y-52811D01*
X861693Y-52769D01*
X861401Y-52728D01*
X861131Y-52645D01*
X860631Y-52457D01*
X860214Y-52228D01*
X860027Y-52124D01*
X859860Y-51999D01*
X859735Y-51895D01*
X859610Y-51811D01*
X859527Y-51728D01*
X859464Y-51666D01*
X859423Y-51645D01*
X859402Y-51624D01*
X859193Y-51374D01*
X859006Y-51124D01*
X858860Y-50833D01*
X858714Y-50562D01*
X858485Y-49958D01*
X858319Y-49395D01*
X858256Y-49125D01*
X858215Y-48875D01*
X858173Y-48666D01*
X858152Y-48458D01*
X858131Y-48312D01*
X858110Y-48187D01*
Y-48104D01*
Y-48083D01*
X868504Y-48083D01*
X868524Y-47812D01*
Y-54769D01*
D02*
G37*
G36*
X805858Y-69669D02*
X806129Y-69710D01*
X806420Y-69794D01*
X806670Y-69898D01*
X807149Y-70148D01*
X807545Y-70419D01*
X807712Y-70564D01*
X807858Y-70710D01*
X807982Y-70856D01*
X808107Y-70960D01*
X808191Y-71064D01*
X808253Y-71147D01*
X808274Y-71189D01*
X808295Y-71210D01*
X808503Y-71543D01*
X808670Y-71918D01*
X808816Y-72376D01*
X808941Y-72855D01*
X809045Y-73355D01*
X809149Y-73876D01*
X809274Y-74938D01*
X809336Y-75438D01*
X809357Y-75917D01*
X809378Y-76354D01*
X809399Y-76729D01*
X809420Y-77063D01*
Y-77188D01*
Y-77292D01*
Y-77375D01*
Y-77438D01*
Y-77479D01*
Y-77500D01*
X809399Y-78354D01*
X809378Y-79125D01*
X809315Y-79833D01*
X809253Y-80478D01*
X809170Y-81062D01*
X809065Y-81561D01*
X808961Y-82020D01*
X808857Y-82415D01*
X808753Y-82749D01*
X808649Y-83040D01*
X808566Y-83290D01*
X808462Y-83478D01*
X808399Y-83624D01*
X808336Y-83707D01*
X808316Y-83769D01*
X808295Y-83790D01*
X808087Y-84061D01*
X807858Y-84311D01*
X807628Y-84519D01*
X807399Y-84686D01*
X807170Y-84852D01*
X806941Y-84977D01*
X806733Y-85081D01*
X806525Y-85165D01*
X806150Y-85269D01*
X805983Y-85310D01*
X805837Y-85331D01*
X805733D01*
X805629Y-85352D01*
X805566D01*
X805275Y-85331D01*
X804983Y-85290D01*
X804713Y-85206D01*
X804463Y-85102D01*
X803984Y-84873D01*
X803588Y-84581D01*
X803275Y-84290D01*
X803150Y-84165D01*
X803046Y-84061D01*
X802942Y-83957D01*
X802880Y-83873D01*
X802859Y-83832D01*
X802838Y-83811D01*
X802651Y-83478D01*
X802484Y-83082D01*
X802317Y-82645D01*
X802192Y-82165D01*
X802088Y-81645D01*
X802005Y-81124D01*
X801880Y-80062D01*
X801817Y-79562D01*
X801796Y-79083D01*
X801776Y-78646D01*
X801755Y-78271D01*
X801734Y-77958D01*
Y-77812D01*
Y-77708D01*
Y-77625D01*
Y-77562D01*
Y-77521D01*
Y-77500D01*
X801755Y-76646D01*
X801796Y-75875D01*
X801838Y-75146D01*
X801921Y-74501D01*
X802005Y-73918D01*
X802109Y-73376D01*
X802234Y-72918D01*
X802338Y-72501D01*
X802442Y-72126D01*
X802567Y-71835D01*
X802671Y-71585D01*
X802755Y-71377D01*
X802838Y-71210D01*
X802900Y-71106D01*
X802921Y-71043D01*
X802942Y-71023D01*
X803130Y-70773D01*
X803338Y-70564D01*
X803546Y-70377D01*
X803754Y-70231D01*
X803984Y-70085D01*
X804192Y-69981D01*
X804608Y-69815D01*
X804983Y-69710D01*
X805150Y-69689D01*
X805275Y-69669D01*
X805400Y-69648D01*
X805546D01*
X805858Y-69669D01*
D02*
G37*
G36*
X811836Y-87289D02*
X805566D01*
X805962Y-87268D01*
X806316Y-87247D01*
X806670Y-87185D01*
X807003Y-87123D01*
X807316Y-87018D01*
X807587Y-86935D01*
X807858Y-86831D01*
X808087Y-86727D01*
X808316Y-86623D01*
X808503Y-86518D01*
X808670Y-86414D01*
X808795Y-86331D01*
X808899Y-86269D01*
X808982Y-86206D01*
X809024Y-86185D01*
X809045Y-86165D01*
X809295Y-85935D01*
X809545Y-85706D01*
X809961Y-85186D01*
X810315Y-84665D01*
X810607Y-84144D01*
X810732Y-83894D01*
X810836Y-83665D01*
X810919Y-83478D01*
X811003Y-83290D01*
X811065Y-83165D01*
X811086Y-83040D01*
X811127Y-82978D01*
Y-82957D01*
X811253Y-82561D01*
X811357Y-82124D01*
X811544Y-81228D01*
X811669Y-80312D01*
X811711Y-79874D01*
X811752Y-79437D01*
X811773Y-79041D01*
X811794Y-78666D01*
X811815Y-78354D01*
X811836Y-78062D01*
Y-87289D01*
D02*
G37*
G36*
X959017Y-67721D02*
X958642Y-67742D01*
X958288Y-67805D01*
X957955Y-67867D01*
X957663Y-67950D01*
X957372Y-68054D01*
X957101Y-68159D01*
X956872Y-68263D01*
X956643Y-68367D01*
X956455Y-68471D01*
X956289Y-68554D01*
X956164Y-68658D01*
X956059Y-68721D01*
X955976Y-68783D01*
X955935Y-68804D01*
X955914Y-68825D01*
X955664Y-69054D01*
X955435Y-69283D01*
X955018Y-69804D01*
X954643Y-70325D01*
X954352Y-70845D01*
X954227Y-71095D01*
X954122Y-71304D01*
X954039Y-71512D01*
X953956Y-71679D01*
X953914Y-71824D01*
X953873Y-71949D01*
X953831Y-72012D01*
Y-72033D01*
X953706Y-72428D01*
X953602Y-72866D01*
X953435Y-73761D01*
X953310Y-74678D01*
X953269Y-75115D01*
X953227Y-75553D01*
X953206Y-75948D01*
X953185Y-76323D01*
X953164Y-76656D01*
Y-76948D01*
X953144Y-77177D01*
Y-67700D01*
X959392D01*
X959017Y-67721D01*
D02*
G37*
G36*
X959684Y-69679D02*
X959954Y-69721D01*
X960246Y-69804D01*
X960496Y-69908D01*
X960975Y-70158D01*
X961371Y-70429D01*
X961537Y-70575D01*
X961683Y-70721D01*
X961808Y-70866D01*
X961933Y-70970D01*
X962016Y-71075D01*
X962079Y-71158D01*
X962100Y-71200D01*
X962120Y-71220D01*
X962329Y-71554D01*
X962495Y-71929D01*
X962641Y-72387D01*
X962766Y-72866D01*
X962870Y-73366D01*
X962974Y-73886D01*
X963099Y-74949D01*
X963162Y-75448D01*
X963183Y-75928D01*
X963204Y-76365D01*
X963224Y-76740D01*
X963245Y-77073D01*
Y-77198D01*
Y-77302D01*
Y-77386D01*
Y-77448D01*
Y-77490D01*
Y-77510D01*
X963224Y-78364D01*
X963204Y-79135D01*
X963141Y-79843D01*
X963079Y-80489D01*
X962995Y-81072D01*
X962891Y-81572D01*
X962787Y-82030D01*
X962683Y-82426D01*
X962579Y-82759D01*
X962475Y-83051D01*
X962391Y-83301D01*
X962287Y-83488D01*
X962225Y-83634D01*
X962162Y-83717D01*
X962141Y-83780D01*
X962120Y-83800D01*
X961912Y-84071D01*
X961683Y-84321D01*
X961454Y-84529D01*
X961225Y-84696D01*
X960996Y-84863D01*
X960767Y-84988D01*
X960558Y-85092D01*
X960350Y-85175D01*
X959975Y-85279D01*
X959809Y-85321D01*
X959663Y-85342D01*
X959559D01*
X959454Y-85363D01*
X959392D01*
X959100Y-85342D01*
X958809Y-85300D01*
X958538Y-85217D01*
X958288Y-85113D01*
X957809Y-84883D01*
X957413Y-84592D01*
X957101Y-84300D01*
X956976Y-84175D01*
X956872Y-84071D01*
X956768Y-83967D01*
X956705Y-83884D01*
X956684Y-83842D01*
X956664Y-83821D01*
X956476Y-83488D01*
X956309Y-83092D01*
X956143Y-82655D01*
X956018Y-82176D01*
X955914Y-81655D01*
X955830Y-81135D01*
X955705Y-80072D01*
X955643Y-79572D01*
X955622Y-79093D01*
X955601Y-78656D01*
X955580Y-78281D01*
X955560Y-77969D01*
Y-77823D01*
Y-77719D01*
Y-77635D01*
Y-77573D01*
Y-77531D01*
Y-77510D01*
X955580Y-76656D01*
X955622Y-75886D01*
X955664Y-75157D01*
X955747Y-74511D01*
X955830Y-73928D01*
X955935Y-73387D01*
X956059Y-72928D01*
X956164Y-72512D01*
X956268Y-72137D01*
X956393Y-71845D01*
X956497Y-71595D01*
X956580Y-71387D01*
X956664Y-71220D01*
X956726Y-71116D01*
X956747Y-71054D01*
X956768Y-71033D01*
X956955Y-70783D01*
X957163Y-70575D01*
X957372Y-70387D01*
X957580Y-70241D01*
X957809Y-70096D01*
X958017Y-69991D01*
X958434Y-69825D01*
X958809Y-69721D01*
X958975Y-69700D01*
X959100Y-69679D01*
X959225Y-69658D01*
X959371D01*
X959684Y-69679D01*
D02*
G37*
G36*
X820833Y-69669D02*
X821104Y-69689D01*
X821375Y-69752D01*
X821604Y-69835D01*
X822062Y-70023D01*
X822437Y-70252D01*
X822749Y-70481D01*
X822875Y-70585D01*
X822979Y-70668D01*
X823062Y-70752D01*
X823124Y-70793D01*
X823145Y-70835D01*
X823166Y-70856D01*
X823354Y-71085D01*
X823520Y-71335D01*
X823666Y-71585D01*
X823791Y-71856D01*
X823978Y-72397D01*
X824124Y-72897D01*
X824166Y-73147D01*
X824187Y-73355D01*
X824208Y-73563D01*
X824228Y-73730D01*
X824249Y-73876D01*
Y-73980D01*
Y-74043D01*
Y-74063D01*
X824228Y-74438D01*
X824208Y-74792D01*
X824145Y-75105D01*
X824082Y-75417D01*
X823999Y-75709D01*
X823916Y-75959D01*
X823812Y-76209D01*
X823728Y-76417D01*
X823624Y-76604D01*
X823520Y-76771D01*
X823437Y-76917D01*
X823354Y-77042D01*
X823291Y-77125D01*
X823229Y-77188D01*
X823208Y-77229D01*
X823187Y-77250D01*
X822979Y-77438D01*
X822770Y-77625D01*
X822541Y-77771D01*
X822312Y-77896D01*
X821875Y-78104D01*
X821437Y-78229D01*
X821062Y-78312D01*
X820917Y-78333D01*
X820771Y-78354D01*
X820667Y-78375D01*
X820500D01*
X820209Y-78354D01*
X819917Y-78333D01*
X819375Y-78208D01*
X818917Y-78021D01*
X818501Y-77812D01*
X818334Y-77708D01*
X818188Y-77604D01*
X818063Y-77500D01*
X817959Y-77417D01*
X817855Y-77354D01*
X817792Y-77292D01*
X817772Y-77271D01*
X817751Y-77250D01*
X817563Y-77021D01*
X817397Y-76792D01*
X817251Y-76542D01*
X817126Y-76292D01*
X816938Y-75813D01*
X816814Y-75334D01*
X816730Y-74917D01*
X816709Y-74730D01*
X816689Y-74584D01*
X816668Y-74438D01*
Y-74355D01*
Y-74292D01*
Y-74272D01*
X816689Y-73897D01*
X816709Y-73543D01*
X816855Y-72897D01*
X816938Y-72585D01*
X817022Y-72314D01*
X817126Y-72064D01*
X817251Y-71835D01*
X817355Y-71627D01*
X817459Y-71460D01*
X817542Y-71293D01*
X817626Y-71168D01*
X817709Y-71064D01*
X817772Y-71002D01*
X817792Y-70960D01*
X817813Y-70939D01*
X818042Y-70710D01*
X818271Y-70523D01*
X818501Y-70335D01*
X818730Y-70189D01*
X818959Y-70064D01*
X819188Y-69960D01*
X819625Y-69815D01*
X820000Y-69710D01*
X820167Y-69689D01*
X820292Y-69669D01*
X820417Y-69648D01*
X820563D01*
X820833Y-69669D01*
D02*
G37*
D10*
X409200Y30000D02*
X510800D01*
X409200Y-30000D02*
X510800D01*
Y30000D01*
X485400Y-30000D02*
Y30000D01*
X460000Y-30000D02*
Y30000D01*
X409200Y-30000D02*
Y30000D01*
X434600Y-30000D02*
Y30000D01*
D11*
X493868Y-8464D02*
X491752Y-10580D01*
Y-14812D01*
X493868Y-16928D01*
X502332D01*
X504448Y-14812D01*
Y-10580D01*
X502332Y-8464D01*
X498100D01*
Y-12696D01*
X504448Y-4232D02*
X491752D01*
X504448Y4232D01*
X491752D01*
Y8464D02*
X504448D01*
Y14812D01*
X502332Y16928D01*
X493868D01*
X491752Y14812D01*
Y8464D01*
X468468Y-8464D02*
X466352Y-10580D01*
Y-14812D01*
X468468Y-16928D01*
X470584D01*
X472700Y-14812D01*
Y-10580D01*
X474816Y-8464D01*
X476932D01*
X479048Y-10580D01*
Y-14812D01*
X476932Y-16928D01*
X468468Y4232D02*
X466352Y2116D01*
Y-2116D01*
X468468Y-4232D01*
X476932D01*
X479048Y-2116D01*
Y2116D01*
X476932Y4232D01*
X466352Y8464D02*
X479048D01*
Y16928D01*
X443068Y-8464D02*
X440952Y-10580D01*
Y-14812D01*
X443068Y-16928D01*
X445184D01*
X447300Y-14812D01*
Y-10580D01*
X449416Y-8464D01*
X451532D01*
X453648Y-10580D01*
Y-14812D01*
X451532Y-16928D01*
X440952Y-4232D02*
X453648D01*
Y2116D01*
X451532Y4232D01*
X443068D01*
X440952Y2116D01*
Y-4232D01*
X453648Y8464D02*
X445184D01*
X440952Y12696D01*
X445184Y16928D01*
X453648D01*
X447300D01*
Y8464D01*
X417668Y-16928D02*
X415552Y-14812D01*
Y-10580D01*
X417668Y-8464D01*
X419784D01*
X421900Y-10580D01*
Y-12696D01*
Y-10580D01*
X424016Y-8464D01*
X426132D01*
X428248Y-10580D01*
Y-14812D01*
X426132Y-16928D01*
X415552Y-4232D02*
X424016D01*
X428248Y0D01*
X424016Y4232D01*
X415552D01*
X417668Y8464D02*
X415552Y10580D01*
Y14812D01*
X417668Y16928D01*
X419784D01*
X421900Y14812D01*
Y12696D01*
Y14812D01*
X424016Y16928D01*
X426132D01*
X428248Y14812D01*
Y10580D01*
X426132Y8464D01*
D12*
X787500Y0D02*
G03*
X770000Y-17500I0J-17500D01*
G01*
X752500Y-40000D02*
G03*
X770000Y-22500I0J17500D01*
G01*
X520000D02*
G03*
X537500Y-40000I17500J0D01*
G01*
X400000Y-75000D02*
G03*
X450000Y-125000I50000J0D01*
G01*
X950000D02*
G03*
X950000Y0I0J62500D01*
G01*
X770000Y-22500D02*
Y-17500D01*
X537500Y-40000D02*
X752500D01*
X787500Y0D02*
X950000D01*
X520000Y-22500D02*
Y40000D01*
X400000Y-75000D02*
Y40000D01*
X450000Y-125000D02*
X950000D01*
X400000Y40000D02*
X520000D01*
M02*
