G04*
G04 #@! TF.GenerationSoftware,Altium Limited,Altium Designer,22.2.1 (43)*
G04*
G04 Layer_Color=16711935*
%FSLAX44Y44*%
%MOMM*%
G71*
G04*
G04 #@! TF.SameCoordinates,59029D5E-7FE7-4811-848E-3C15E54AA96D*
G04*
G04*
G04 #@! TF.FilePolarity,Negative*
G04*
G01*
G75*
%ADD12C,0.2540*%
%ADD13R,1.6032X2.4032*%
%ADD14O,1.6032X2.4032*%
%ADD15C,0.2032*%
%ADD27C,1.1020*%
%ADD28R,1.0032X1.0032*%
%ADD29R,1.0922X0.8382*%
%ADD30R,0.8382X1.0922*%
%ADD31R,0.9032X1.2032*%
%ADD32O,0.8032X2.4032*%
%ADD33R,1.9812X1.3462*%
D12*
X787500Y0D02*
G03*
X770000Y-17500I0J-17500D01*
G01*
X752500Y-40000D02*
G03*
X770000Y-22500I0J17500D01*
G01*
X520000D02*
G03*
X537500Y-40000I17500J0D01*
G01*
X400000Y-75000D02*
G03*
X450000Y-125000I50000J0D01*
G01*
X950000D02*
G03*
X950000Y0I0J62500D01*
G01*
X770000Y-22500D02*
Y-17500D01*
X537500Y-40000D02*
X752500D01*
X787500Y0D02*
X950000D01*
X520000Y-22500D02*
Y40000D01*
X400000Y-75000D02*
Y40000D01*
X450000Y-125000D02*
X950000D01*
X400000Y40000D02*
X520000D01*
D13*
X498100Y-85000D02*
D03*
D14*
X472700D02*
D03*
X421900D02*
D03*
X447300D02*
D03*
D15*
X600000Y-82500D02*
D03*
D27*
X626610D02*
G03*
X626610Y-82500I-26610J0D01*
G01*
D28*
X815000Y-57500D02*
D03*
Y-42500D02*
D03*
X852500Y-57500D02*
D03*
Y-42500D02*
D03*
D29*
X815000Y-69880D02*
D03*
Y-85120D02*
D03*
X852500Y-69880D02*
D03*
Y-85120D02*
D03*
D30*
X910120Y-95000D02*
D03*
X894880D02*
D03*
X910120Y-82500D02*
D03*
X894880D02*
D03*
X894880Y-70000D02*
D03*
X910120D02*
D03*
D31*
X893000Y-57000D02*
D03*
X912000D02*
D03*
X902500Y-33000D02*
D03*
D32*
X956350Y-89500D02*
D03*
X930950D02*
D03*
X969050Y-35500D02*
D03*
X956350D02*
D03*
X943650D02*
D03*
X969050Y-89500D02*
D03*
X943650D02*
D03*
X930950Y-35500D02*
D03*
D33*
X990000Y-47260D02*
D03*
Y-77740D02*
D03*
M02*
