M48
;Layer_Color=9474304
;FILE_FORMAT=4:4
METRIC,LZ
;TYPE=PLATED
T1F00S00C0.3000
T2F00S00C0.9000
T3F00S00C4.2200
%
T01
X01403Y-010575
X00660001Y-001025
X00640001
X00650001Y-000825
X00670001
X00660001Y-00062499
X00640001
X00560001
X00540001
X00520001
X00500001
X00480001
X00460001
X00440001
X00430001Y-00042499
X00410001
X00420001Y-001025
X00440001
X00460001
X00500001
X00520001
X00540001
X00560001
X00550001Y-000825
X00530001
X00690001
X00710001
X00730001
X00750001
X00770001
X00780001Y-001025
X0079815Y-001016
X00815
X00830001Y-000825
X00840001Y-00062499
X00830001Y-00042499
X00840001Y-00022499
X00860001
X00880001
X00890001Y-00042499
X00870001
X00880001Y-00062499
X00940001
X00960001
X00980001
X01000001
X00980001Y-00022499
X0095635Y-0001528
X0094361Y-0001905
X00920001Y-00022499
X00820001
X00800001
X00780001
X00790001Y-00042499
X00770001
X00760001Y-00062499
X00740001
X00720001
X00700001
X00680001
Y-001025
X00700001
X00720001
X00740001
X00760001
X00800001Y-00062499
T02
X004219Y-00085
X004473
X004727
X004981
T03
X006Y-000825
M30
