G04*
G04 #@! TF.GenerationSoftware,Altium Limited,Altium Designer,22.2.1 (43)*
G04*
G04 Layer_Color=128*
%FSLAX44Y44*%
%MOMM*%
G71*
G04*
G04 #@! TF.SameCoordinates,59029D5E-7FE7-4811-848E-3C15E54AA96D*
G04*
G04*
G04 #@! TF.FilePolarity,Positive*
G04*
G01*
G75*
%ADD12C,0.2540*%
%ADD21R,0.8000X0.8000*%
%ADD22R,0.8890X0.6350*%
%ADD23R,0.6350X0.8890*%
%ADD24R,0.7000X1.0000*%
%ADD25O,0.6000X2.2000*%
%ADD26R,1.7780X1.1430*%
G36*
X608265Y-52389D02*
X610874Y-53363D01*
X607043Y-62610D01*
X607043Y-62610D01*
X605327Y-62084D01*
X601793Y-61476D01*
X598207Y-61476D01*
X594672Y-62084D01*
X592957Y-62610D01*
X589126Y-53363D01*
D01*
Y-53363D01*
Y-53363D01*
X591735Y-52389D01*
X597215Y-51400D01*
X602785Y-51400D01*
X608265Y-52389D01*
D02*
G37*
G36*
X615447Y-55364D02*
X620022Y-58540D01*
X623960Y-62478D01*
X627136Y-67053D01*
X628292Y-69586D01*
X628292Y-69586D01*
X628292Y-69586D01*
D01*
X619044Y-73416D01*
X618204Y-71831D01*
X616134Y-68902D01*
X613598Y-66366D01*
X610669Y-64296D01*
X609084Y-63456D01*
X609084Y-63456D01*
X612914Y-54208D01*
X615447Y-55364D01*
D02*
G37*
G36*
X590916Y-63456D02*
X589331Y-64296D01*
X586402Y-66366D01*
X583866Y-68902D01*
X581796Y-71831D01*
X580956Y-73416D01*
X580956Y-73416D01*
X571708Y-69586D01*
X572864Y-67053D01*
X576040Y-62478D01*
X579978Y-58540D01*
X584553Y-55364D01*
X587086Y-54208D01*
Y-54208D01*
X590916Y-63456D01*
D02*
G37*
G36*
X629137Y-71626D02*
X630111Y-74235D01*
X631100Y-79715D01*
X631100Y-85285D01*
X630111Y-90765D01*
X629137Y-93374D01*
X619890Y-89543D01*
X619890Y-89543D01*
X620416Y-87828D01*
X621024Y-84293D01*
X621024Y-80707D01*
X620416Y-77172D01*
X619890Y-75457D01*
X629137Y-71626D01*
X629137Y-71626D01*
D02*
G37*
G36*
X580110Y-75457D02*
Y-75457D01*
X579584Y-77172D01*
X578976Y-80707D01*
X578976Y-84293D01*
X579584Y-87828D01*
X580110Y-89543D01*
X570863Y-93374D01*
X569889Y-90765D01*
X568900Y-85285D01*
X568900Y-79715D01*
X569889Y-74235D01*
X570863Y-71626D01*
X580110Y-75457D01*
D02*
G37*
G36*
X628292Y-95414D02*
X627136Y-97947D01*
X623960Y-102522D01*
X620022Y-106460D01*
X615447Y-109636D01*
X612914Y-110792D01*
X609084Y-101545D01*
X610669Y-100704D01*
X613598Y-98634D01*
X616134Y-96098D01*
X618204Y-93169D01*
X619044Y-91584D01*
X619044D01*
X628292Y-95414D01*
D02*
G37*
G36*
X612914Y-110792D02*
X612914Y-110792D01*
D01*
X612914Y-110792D01*
D02*
G37*
G36*
X581796Y-93169D02*
X583866Y-96098D01*
X586402Y-98634D01*
X589331Y-100704D01*
X590916Y-101544D01*
Y-101545D01*
X587086Y-110792D01*
X584553Y-109636D01*
X579978Y-106460D01*
X576040Y-102522D01*
X572864Y-97947D01*
X571708Y-95414D01*
X571708D01*
X580956Y-91584D01*
X581796Y-93169D01*
D02*
G37*
G36*
X594672Y-102916D02*
X598207Y-103524D01*
X601793Y-103524D01*
X605327Y-102916D01*
X607043Y-102390D01*
X610874Y-111637D01*
X610874D01*
X608265Y-112611D01*
X602785Y-113600D01*
X597215Y-113600D01*
X591735Y-112611D01*
X589126Y-111637D01*
X592957Y-102390D01*
X592957D01*
X594672Y-102916D01*
D02*
G37*
D12*
X787500Y0D02*
G03*
X770000Y-17500I0J-17500D01*
G01*
X752500Y-40000D02*
G03*
X770000Y-22500I0J17500D01*
G01*
X520000D02*
G03*
X537500Y-40000I17500J0D01*
G01*
X400000Y-75000D02*
G03*
X450000Y-125000I50000J0D01*
G01*
X950000D02*
G03*
X950000Y0I0J62500D01*
G01*
X770000Y-22500D02*
Y-17500D01*
X537500Y-40000D02*
X752500D01*
X787500Y0D02*
X950000D01*
X520000Y-22500D02*
Y40000D01*
X400000Y-75000D02*
Y40000D01*
X450000Y-125000D02*
X950000D01*
X400000Y40000D02*
X520000D01*
D21*
X815000Y-57500D02*
D03*
Y-42500D02*
D03*
X852500Y-57500D02*
D03*
Y-42500D02*
D03*
D22*
X815000Y-69880D02*
D03*
Y-85120D02*
D03*
X852500Y-69880D02*
D03*
Y-85120D02*
D03*
D23*
X910120Y-95000D02*
D03*
X894880D02*
D03*
X910120Y-82500D02*
D03*
X894880D02*
D03*
X894880Y-70000D02*
D03*
X910120D02*
D03*
D24*
X893000Y-57000D02*
D03*
X912000D02*
D03*
X902500Y-33000D02*
D03*
D25*
X956350Y-89500D02*
D03*
X930950D02*
D03*
X969050Y-35500D02*
D03*
X956350D02*
D03*
X943650D02*
D03*
X969050Y-89500D02*
D03*
X943650D02*
D03*
X930950Y-35500D02*
D03*
D26*
X990000Y-47260D02*
D03*
Y-77740D02*
D03*
M02*
