G04*
G04 #@! TF.GenerationSoftware,Altium Limited,Altium Designer,22.2.1 (43)*
G04*
G04 Layer_Physical_Order=2*
G04 Layer_Color=16711680*
%FSLAX44Y44*%
%MOMM*%
G71*
G04*
G04 #@! TF.SameCoordinates,59029D5E-7FE7-4811-848E-3C15E54AA96D*
G04*
G04*
G04 #@! TF.FilePolarity,Positive*
G04*
G01*
G75*
%ADD10C,0.1524*%
%ADD12C,0.2540*%
%ADD16C,0.3810*%
%ADD17R,1.4000X2.2000*%
%ADD18O,1.4000X2.2000*%
%ADD19C,0.5500*%
%ADD20C,1.0200*%
%ADD21R,0.8000X0.8000*%
%ADD22R,0.8890X0.6350*%
%ADD23R,0.6350X0.8890*%
%ADD24R,0.7000X1.0000*%
%ADD25O,0.6000X2.2000*%
%ADD26R,1.7780X1.1430*%
G36*
X513875Y33874D02*
X513875Y-22499D01*
X513874Y-22500D01*
X513830D01*
X514285Y-27118D01*
X515632Y-31558D01*
X517819Y-35650D01*
X520763Y-39237D01*
X524350Y-42181D01*
X528442Y-44368D01*
X532882Y-45715D01*
X537500Y-46170D01*
Y-46126D01*
X752500Y-46126D01*
X752500Y-46126D01*
Y-46170D01*
X757118Y-45715D01*
X761558Y-44368D01*
X765650Y-42181D01*
X769237Y-39237D01*
X772181Y-35650D01*
X774368Y-31558D01*
X775715Y-27118D01*
X776170Y-22500D01*
X776126D01*
X776125Y-22499D01*
Y-17501D01*
X776126Y-17500D01*
X776126D01*
X776246Y-16280D01*
X776474Y-14546D01*
X777615Y-11793D01*
X779429Y-9429D01*
X781793Y-7615D01*
X784546Y-6474D01*
X787377Y-6101D01*
X787500Y-6126D01*
X950000D01*
X950241Y-6078D01*
X957367Y-6545D01*
X964607Y-7985D01*
X971598Y-10358D01*
X978219Y-13623D01*
X984357Y-17725D01*
X989908Y-22592D01*
X994775Y-28143D01*
X998877Y-34281D01*
X1000674Y-37926D01*
X1000004Y-39005D01*
X991270D01*
Y-45990D01*
X1001430D01*
Y-42757D01*
X1002700Y-42547D01*
X1004515Y-47893D01*
X1005955Y-55133D01*
X1006438Y-62500D01*
X1005955Y-69867D01*
X1004515Y-77107D01*
X1003208Y-80957D01*
X1001938Y-80747D01*
Y-68977D01*
X978062D01*
Y-86503D01*
X984950D01*
Y-92908D01*
X975408Y-102450D01*
X974100D01*
Y-100828D01*
X974747Y-99860D01*
X975217Y-97500D01*
Y-81500D01*
X974747Y-79140D01*
X973410Y-77140D01*
X971410Y-75803D01*
X969050Y-75333D01*
X966690Y-75803D01*
X964690Y-77140D01*
X963353Y-79140D01*
X963348Y-79168D01*
X962053D01*
X962047Y-79140D01*
X960711Y-77140D01*
X958710Y-75803D01*
X956350Y-75333D01*
X953990Y-75803D01*
X951990Y-77140D01*
X950653Y-79140D01*
X950648Y-79168D01*
X949353D01*
X949347Y-79140D01*
X948010Y-77140D01*
X946010Y-75803D01*
X943650Y-75333D01*
X941290Y-75803D01*
X939290Y-77140D01*
X937953Y-79140D01*
X937689Y-80470D01*
X936394D01*
X936169Y-79338D01*
X934944Y-77506D01*
X933112Y-76281D01*
X932220Y-76104D01*
Y-89500D01*
X929680D01*
Y-76104D01*
X928789Y-76281D01*
X926956Y-77506D01*
X925905Y-79079D01*
X924635Y-78839D01*
Y-70000D01*
Y-59690D01*
X924339Y-58203D01*
X923497Y-56943D01*
X920807Y-54253D01*
X919547Y-53411D01*
X918548Y-53212D01*
Y-48952D01*
X905452D01*
Y-62507D01*
X903897D01*
Y-75007D01*
X903897D01*
Y-77669D01*
X903067Y-77834D01*
X901921Y-78601D01*
X900805Y-78113D01*
X900595Y-76985D01*
X900595Y-76985D01*
X900595Y-76985D01*
Y-71270D01*
X894880D01*
X889165D01*
Y-75515D01*
X889165D01*
Y-81230D01*
X894880D01*
Y-83770D01*
X889165D01*
Y-89485D01*
X889165D01*
Y-93730D01*
X894880D01*
Y-96270D01*
X889165D01*
Y-101985D01*
X888088Y-102450D01*
X881752D01*
X877331Y-98029D01*
X875693Y-96934D01*
X873760Y-96550D01*
X857550D01*
Y-91343D01*
X859993D01*
Y-78897D01*
X845007D01*
Y-91343D01*
X847450D01*
Y-96550D01*
X820050D01*
Y-91343D01*
X822493D01*
Y-78897D01*
X807507D01*
Y-91343D01*
X809950D01*
Y-99969D01*
X809710Y-100548D01*
Y-102652D01*
X810515Y-104597D01*
X812003Y-106085D01*
X813948Y-106890D01*
X816052D01*
X816631Y-106650D01*
X871668D01*
X876089Y-111071D01*
X877727Y-112166D01*
X879660Y-112550D01*
X900408D01*
X905462Y-117604D01*
X905086Y-118874D01*
X450000Y-118874D01*
X449861Y-118902D01*
X444268Y-118535D01*
X438635Y-117415D01*
X433196Y-115569D01*
X428045Y-113028D01*
X423269Y-109837D01*
X418950Y-106050D01*
X415163Y-101731D01*
X411972Y-96955D01*
X409431Y-91804D01*
X407585Y-86365D01*
X406465Y-80732D01*
X406171Y-76251D01*
X406126Y-75000D01*
X406126D01*
X406125Y-74999D01*
X406126Y33874D01*
X513875Y33874D01*
D02*
G37*
%LPC*%
G36*
X957402Y-9990D02*
X955298D01*
X953354Y-10796D01*
X951865Y-12284D01*
X951060Y-14228D01*
Y-16332D01*
X951865Y-18277D01*
X952466Y-18877D01*
Y-22822D01*
X951990Y-23140D01*
X950653Y-25140D01*
X950648Y-25168D01*
X949353D01*
X949347Y-25140D01*
X948010Y-23140D01*
X948095Y-22046D01*
X948900Y-20102D01*
Y-17998D01*
X948095Y-16054D01*
X946607Y-14565D01*
X944662Y-13760D01*
X942558D01*
X940613Y-14565D01*
X939125Y-16054D01*
X938320Y-17998D01*
Y-20102D01*
X939125Y-22046D01*
X939290Y-23140D01*
X937953Y-25140D01*
X937948Y-25168D01*
X936653D01*
X936647Y-25140D01*
X935311Y-23140D01*
X933310Y-21803D01*
X930950Y-21334D01*
X928590Y-21803D01*
X926590Y-23140D01*
X925253Y-25140D01*
X924784Y-27500D01*
Y-43500D01*
X925253Y-45860D01*
X926590Y-47860D01*
X928590Y-49197D01*
X930950Y-49667D01*
X933310Y-49197D01*
X935311Y-47860D01*
X936647Y-45860D01*
X936653Y-45832D01*
X937948D01*
X937953Y-45860D01*
X939290Y-47860D01*
X941290Y-49197D01*
X943650Y-49667D01*
X946010Y-49197D01*
X948010Y-47860D01*
X949347Y-45860D01*
X949353Y-45832D01*
X950648D01*
X950653Y-45860D01*
X951990Y-47860D01*
X953990Y-49197D01*
X956350Y-49667D01*
X958710Y-49197D01*
X960711Y-47860D01*
X962047Y-45860D01*
X962312Y-44530D01*
X963606D01*
X963831Y-45662D01*
X965056Y-47494D01*
X966889Y-48719D01*
X967780Y-48896D01*
Y-35500D01*
Y-22104D01*
X966889Y-22281D01*
X965056Y-23506D01*
X963831Y-25338D01*
X963606Y-26470D01*
X962312D01*
X962047Y-25140D01*
X960711Y-23140D01*
X960235Y-22822D01*
Y-18877D01*
X960835Y-18277D01*
X961640Y-16332D01*
Y-14228D01*
X960835Y-12284D01*
X959347Y-10796D01*
X957402Y-9990D01*
D02*
G37*
G36*
X970320Y-22104D02*
Y-34230D01*
X974699D01*
Y-27500D01*
X974269Y-25338D01*
X973044Y-23506D01*
X971212Y-22281D01*
X970320Y-22104D01*
D02*
G37*
G36*
X909048Y-24952D02*
X895952D01*
Y-29115D01*
X856000D01*
X854513Y-29411D01*
X853253Y-30253D01*
X849753Y-33753D01*
X848911Y-35013D01*
X848824Y-35452D01*
X845452D01*
Y-49182D01*
X845452Y-49548D01*
Y-50452D01*
X845452Y-50818D01*
Y-63657D01*
X845007D01*
Y-76103D01*
X859993D01*
Y-63657D01*
X859548D01*
Y-50818D01*
X859548Y-50452D01*
Y-49548D01*
X859548Y-49182D01*
Y-36885D01*
X895952D01*
Y-41048D01*
X909048D01*
Y-24952D01*
D02*
G37*
G36*
X821540Y-35960D02*
X816270D01*
Y-41230D01*
X821540D01*
Y-35960D01*
D02*
G37*
G36*
X813730D02*
X808460D01*
Y-41230D01*
X813730D01*
Y-35960D01*
D02*
G37*
G36*
X988730Y-39005D02*
X978570D01*
Y-45990D01*
X988730D01*
Y-39005D01*
D02*
G37*
G36*
X974699Y-36770D02*
X970320D01*
Y-48896D01*
X971212Y-48719D01*
X973044Y-47494D01*
X974269Y-45662D01*
X974699Y-43500D01*
Y-36770D01*
D02*
G37*
G36*
X821540Y-43770D02*
X816270D01*
Y-49040D01*
X821540D01*
Y-43770D01*
D02*
G37*
G36*
X813730D02*
X808460D01*
Y-49040D01*
X813730D01*
Y-43770D01*
D02*
G37*
G36*
X1001430Y-48530D02*
X991270D01*
Y-55515D01*
X1001430D01*
Y-48530D01*
D02*
G37*
G36*
X988730D02*
X978570D01*
Y-55515D01*
X988730D01*
Y-48530D01*
D02*
G37*
G36*
X899040Y-49460D02*
X894270D01*
Y-55730D01*
X899040D01*
Y-49460D01*
D02*
G37*
G36*
X891730D02*
X886960D01*
Y-55730D01*
X891730D01*
Y-49460D01*
D02*
G37*
G36*
X899040Y-58270D02*
X893000D01*
X886960D01*
Y-64540D01*
X889165D01*
Y-68730D01*
X894880D01*
X900595D01*
Y-63015D01*
X899040D01*
Y-58270D01*
D02*
G37*
G36*
X822048Y-50452D02*
X807952D01*
Y-63657D01*
X807507D01*
Y-76103D01*
X822493D01*
Y-63657D01*
X822048D01*
Y-50452D01*
D02*
G37*
G36*
X507640Y-71460D02*
X499370D01*
Y-83730D01*
X507640D01*
Y-71460D01*
D02*
G37*
G36*
X496830D02*
X488560D01*
Y-83730D01*
X496830D01*
Y-71460D01*
D02*
G37*
G36*
X507640Y-86270D02*
X499370D01*
Y-98540D01*
X507640D01*
Y-86270D01*
D02*
G37*
G36*
X496830D02*
X488560D01*
Y-98540D01*
X496830D01*
Y-86270D01*
D02*
G37*
G36*
X472700Y-71378D02*
X470210Y-71705D01*
X467889Y-72667D01*
X465896Y-74196D01*
X464367Y-76189D01*
X463406Y-78509D01*
X463078Y-81000D01*
Y-89000D01*
X463406Y-91490D01*
X464367Y-93811D01*
X465896Y-95804D01*
X467889Y-97333D01*
X470210Y-98294D01*
X472700Y-98622D01*
X475190Y-98294D01*
X477511Y-97333D01*
X479504Y-95804D01*
X481033Y-93811D01*
X481994Y-91490D01*
X482322Y-89000D01*
Y-81000D01*
X481994Y-78509D01*
X481033Y-76189D01*
X479504Y-74196D01*
X477511Y-72667D01*
X475190Y-71705D01*
X472700Y-71378D01*
D02*
G37*
G36*
X447300D02*
X444809Y-71705D01*
X442489Y-72667D01*
X440496Y-74196D01*
X438967Y-76189D01*
X438006Y-78509D01*
X437678Y-81000D01*
Y-89000D01*
X438006Y-91490D01*
X438967Y-93811D01*
X440496Y-95804D01*
X442489Y-97333D01*
X444809Y-98294D01*
X447300Y-98622D01*
X449790Y-98294D01*
X452111Y-97333D01*
X454104Y-95804D01*
X455633Y-93811D01*
X456594Y-91490D01*
X456922Y-89000D01*
Y-81000D01*
X456594Y-78509D01*
X455633Y-76189D01*
X454104Y-74196D01*
X452111Y-72667D01*
X449790Y-71705D01*
X447300Y-71378D01*
D02*
G37*
G36*
X421900D02*
X419409Y-71705D01*
X417089Y-72667D01*
X415096Y-74196D01*
X413567Y-76189D01*
X412606Y-78509D01*
X412278Y-81000D01*
Y-89000D01*
X412606Y-91490D01*
X413567Y-93811D01*
X415096Y-95804D01*
X417089Y-97333D01*
X419409Y-98294D01*
X421900Y-98622D01*
X424390Y-98294D01*
X426711Y-97333D01*
X428704Y-95804D01*
X430233Y-93811D01*
X431194Y-91490D01*
X431522Y-89000D01*
Y-81000D01*
X431194Y-78509D01*
X430233Y-76189D01*
X428704Y-74196D01*
X426711Y-72667D01*
X424390Y-71705D01*
X421900Y-71378D01*
D02*
G37*
G36*
X600000Y-48146D02*
X594626Y-48569D01*
X589384Y-49827D01*
X584404Y-51890D01*
X579807Y-54707D01*
X575708Y-58208D01*
X572207Y-62307D01*
X569390Y-66904D01*
X567327Y-71884D01*
X566069Y-77126D01*
X565646Y-82500D01*
X566069Y-87874D01*
X567327Y-93116D01*
X569390Y-98096D01*
X572207Y-102693D01*
X575708Y-106792D01*
X579807Y-110293D01*
X584404Y-113110D01*
X589384Y-115173D01*
X594626Y-116431D01*
X600000Y-116854D01*
X605374Y-116431D01*
X610616Y-115173D01*
X615596Y-113110D01*
X620193Y-110293D01*
X624292Y-106792D01*
X627793Y-102693D01*
X630610Y-98096D01*
X632673Y-93116D01*
X633931Y-87874D01*
X634354Y-82500D01*
X633931Y-77126D01*
X632673Y-71884D01*
X630610Y-66904D01*
X627793Y-62307D01*
X624292Y-58208D01*
X620193Y-54707D01*
X615596Y-51890D01*
X610616Y-49827D01*
X605374Y-48569D01*
X600000Y-48146D01*
D02*
G37*
%LPD*%
D10*
X956350Y-35500D02*
Y-15280D01*
X943610Y-35460D02*
X943650Y-35500D01*
X943610Y-35460D02*
Y-19050D01*
X920750Y-70000D02*
Y-59690D01*
X918060Y-57000D02*
X920750Y-59690D01*
X912000Y-57000D02*
X918060D01*
X920750Y-102870D02*
X925830Y-107950D01*
X939800D01*
X943650Y-104100D01*
Y-89500D01*
X920750Y-102870D02*
Y-70000D01*
X815000Y-69880D02*
Y-57500D01*
X815000Y-57500D01*
X852500Y-69880D02*
Y-57500D01*
X852500Y-69880D02*
X852500Y-69880D01*
Y-42500D02*
Y-36500D01*
X856000Y-33000D02*
X902500D01*
X852500Y-36500D02*
X856000Y-33000D01*
X910120Y-70000D02*
X920750D01*
D12*
X787500Y0D02*
G03*
X770000Y-17500I0J-17500D01*
G01*
X752500Y-40000D02*
G03*
X770000Y-22500I0J17500D01*
G01*
X520000D02*
G03*
X537500Y-40000I17500J0D01*
G01*
X400000Y-75000D02*
G03*
X450000Y-125000I50000J0D01*
G01*
X950000D02*
G03*
X950000Y0I0J62500D01*
G01*
X770000Y-22500D02*
Y-17500D01*
X537500Y-40000D02*
X752500D01*
X787500Y0D02*
X950000D01*
X520000Y-22500D02*
Y40000D01*
X400000Y-75000D02*
Y40000D01*
X450000Y-125000D02*
X950000D01*
X400000Y40000D02*
X520000D01*
D16*
X798150Y-101600D02*
Y-46990D01*
X802640Y-42500D02*
X815000D01*
X798150Y-46990D02*
X802640Y-42500D01*
X873760Y-101600D02*
X879660Y-107500D01*
X852500Y-101600D02*
X873760D01*
X815000D02*
X852500D01*
Y-85120D01*
X815000Y-101600D02*
Y-85120D01*
X879660Y-107500D02*
X902500D01*
X881380Y-78740D02*
Y-69850D01*
Y-82550D02*
Y-78740D01*
X827360Y-42500D02*
X831850Y-46990D01*
X815000Y-42500D02*
X827360D01*
X831850Y-72390D02*
Y-46990D01*
Y-72390D02*
X836930Y-77470D01*
X880110D01*
X881380Y-78740D01*
X969010Y-63500D02*
X985520D01*
X930950D02*
X969010D01*
X969050Y-63460D02*
Y-35500D01*
X969010Y-63500D02*
X969050Y-63460D01*
X881380Y-57150D02*
Y-48260D01*
Y-69850D02*
Y-57150D01*
X881530Y-57000D02*
X893000D01*
X881380Y-57150D02*
X881530Y-57000D01*
X881530Y-70000D02*
X894880D01*
X881380Y-69850D02*
X881530Y-70000D01*
X881380Y-91440D02*
Y-82550D01*
X881430Y-82500D01*
X894880D01*
X930910Y-63500D02*
X930950D01*
Y-57190D01*
Y-63540D02*
Y-63500D01*
X884940Y-95000D02*
X894880D01*
X881380Y-91440D02*
X884940Y-95000D01*
X881380Y-48260D02*
X885190Y-44450D01*
X918210D01*
X930950Y-57190D01*
X930910Y-63500D02*
X930950Y-63540D01*
Y-89500D02*
Y-63540D01*
X902500Y-107500D02*
X909300Y-114300D01*
X949550D01*
X956350Y-107500D01*
X985520Y-63500D02*
X990000Y-59020D01*
Y-47260D01*
X902500Y-107500D02*
Y-95000D01*
X969050Y-107500D02*
X977500D01*
X956350D02*
X969050D01*
Y-89500D01*
X956350Y-107500D02*
Y-89500D01*
X902500Y-95000D02*
Y-85000D01*
X902500Y-95000D02*
X910120D01*
X902500Y-95000D02*
X902500Y-95000D01*
X905000Y-82500D02*
X910120D01*
X902500Y-85000D02*
X905000Y-82500D01*
X910120D02*
X910120Y-82500D01*
X977500Y-107500D02*
X990000Y-95000D01*
Y-77740D01*
D17*
X498100Y-85000D02*
D03*
D18*
X472700D02*
D03*
X421900D02*
D03*
X447300D02*
D03*
D19*
X1403000Y-1057500D02*
D03*
X1000001Y-62499D02*
D03*
X980001Y-22499D02*
D03*
Y-62499D02*
D03*
X960001D02*
D03*
X940001D02*
D03*
X920001Y-22499D02*
D03*
X890001Y-42499D02*
D03*
X880001Y-22499D02*
D03*
X870001Y-42499D02*
D03*
X880001Y-62499D02*
D03*
X860001Y-22499D02*
D03*
X840001D02*
D03*
X830001Y-42499D02*
D03*
X840001Y-62499D02*
D03*
X830001Y-82500D02*
D03*
X820001Y-22499D02*
D03*
X800001D02*
D03*
X790001Y-42499D02*
D03*
X800001Y-62499D02*
D03*
X780001Y-22499D02*
D03*
X770001Y-42499D02*
D03*
Y-82500D02*
D03*
X780001Y-102500D02*
D03*
X760001Y-62499D02*
D03*
X750001Y-82500D02*
D03*
X760001Y-102500D02*
D03*
X740001Y-62499D02*
D03*
X730001Y-82500D02*
D03*
X740001Y-102500D02*
D03*
X720001Y-62499D02*
D03*
X710001Y-82500D02*
D03*
X720001Y-102500D02*
D03*
X700001Y-62499D02*
D03*
X690001Y-82500D02*
D03*
X700001Y-102500D02*
D03*
X680001Y-62499D02*
D03*
X670001Y-82500D02*
D03*
X680001Y-102500D02*
D03*
X660001Y-62499D02*
D03*
X650001Y-82500D02*
D03*
X660001Y-102500D02*
D03*
X640001Y-62499D02*
D03*
Y-102500D02*
D03*
X560001Y-62499D02*
D03*
X550001Y-82500D02*
D03*
X560001Y-102500D02*
D03*
X540001Y-62499D02*
D03*
X530001Y-82500D02*
D03*
X540001Y-102500D02*
D03*
X520001Y-62499D02*
D03*
Y-102500D02*
D03*
X500001Y-62499D02*
D03*
Y-102500D02*
D03*
X480001Y-62499D02*
D03*
X460001D02*
D03*
Y-102500D02*
D03*
X430001Y-42499D02*
D03*
X440001Y-62499D02*
D03*
Y-102500D02*
D03*
X410001Y-42499D02*
D03*
X420001Y-102500D02*
D03*
X798150Y-101600D02*
D03*
X815000D02*
D03*
X956350Y-15280D02*
D03*
X943610Y-19050D02*
D03*
D20*
X626100Y-82500D02*
G03*
X626100Y-82500I-26100J0D01*
G01*
D21*
X815000Y-57500D02*
D03*
Y-42500D02*
D03*
X852500Y-57500D02*
D03*
Y-42500D02*
D03*
D22*
X815000Y-69880D02*
D03*
Y-85120D02*
D03*
X852500Y-69880D02*
D03*
Y-85120D02*
D03*
D23*
X910120Y-95000D02*
D03*
X894880D02*
D03*
X910120Y-82500D02*
D03*
X894880D02*
D03*
X894880Y-70000D02*
D03*
X910120D02*
D03*
D24*
X893000Y-57000D02*
D03*
X912000D02*
D03*
X902500Y-33000D02*
D03*
D25*
X956350Y-89500D02*
D03*
X930950D02*
D03*
X969050Y-35500D02*
D03*
X956350D02*
D03*
X943650D02*
D03*
X969050Y-89500D02*
D03*
X943650D02*
D03*
X930950Y-35500D02*
D03*
D26*
X990000Y-47260D02*
D03*
Y-77740D02*
D03*
M02*
