  0
SECTION
  2
HEADER
  9
$ACADVER
  1
AC1015
  9
$ACADMAINTVER
 70
     6
  9
$DWGCODEPAGE
  3
ANSI_1252
  9
$INSBASE
 10
0.0
 20
0.0
 30
0.0
  9
$EXTMIN
 10
-7.0
 20
-9.5
 30
0.0
  9
$EXTMAX
 10
7.0
 20
6.9934327289
 30
0.0
  9
$LIMMIN
 10
0.0
 20
0.0
  9
$LIMMAX
 10
420.0
 20
297.0
  9
$ORTHOMODE
 70
     0
  9
$REGENMODE
 70
     1
  9
$FILLMODE
 70
     1
  9
$QTEXTMODE
 70
     0
  9
$MIRRTEXT
 70
     1
  9
$LTSCALE
 40
1.0
  9
$ATTMODE
 70
     1
  9
$TEXTSIZE
 40
3.5
  9
$TRACEWID
 40
1.0
  9
$TEXTSTYLE
  7
Standard
  9
$CLAYER
  8
0
  9
$CELTYPE
  6
ByLayer
  9
$CECOLOR
 62
   256
  9
$CELTSCALE
 40
1.0
  9
$DISPSILH
 70
     0
  9
$DIMSCALE
 40
1.0
  9
$DIMASZ
 40
3.302
  9
$DIMEXO
 40
0.0
  9
$DIMDLI
 40
3.75
  9
$DIMRND
 40
0.0
  9
$DIMDLE
 40
0.0
  9
$DIMEXE
 40
1.0
  9
$DIMTP
 40
0.0
  9
$DIMTM
 40
0.0
  9
$DIMTXT
 40
3.5
  9
$DIMCEN
 40
2.5
  9
$DIMTSZ
 40
0.0
  9
$DIMTOL
 70
     0
  9
$DIMLIM
 70
     0
  9
$DIMTIH
 70
     1
  9
$DIMTOH
 70
     1
  9
$DIMSE1
 70
     0
  9
$DIMSE2
 70
     0
  9
$DIMTAD
 70
     1
  9
$DIMZIN
 70
     1
  9
$DIMBLK
  1

  9
$DIMASO
 70
     1
  9
$DIMSHO
 70
     1
  9
$DIMPOST
  1

  9
$DIMAPOST
  1

  9
$DIMALT
 70
     0
  9
$DIMALTD
 70
     3
  9
$DIMALTF
 40
0.0393700787
  9
$DIMLFAC
 40
1.0
  9
$DIMTOFL
 70
     1
  9
$DIMTVP
 40
0.0
  9
$DIMTIX
 70
     0
  9
$DIMSOXD
 70
     0
  9
$DIMSAH
 70
     0
  9
$DIMBLK1
  1

  9
$DIMBLK2
  1

  9
$DIMSTYLE
  2
ISO-25
  9
$DIMCLRD
 70
     0
  9
$DIMCLRE
 70
     0
  9
$DIMCLRT
 70
     0
  9
$DIMTFAC
 40
1.0
  9
$DIMGAP
 40
1.524
  9
$DIMJUST
 70
     0
  9
$DIMSD1
 70
     0
  9
$DIMSD2
 70
     0
  9
$DIMTOLJ
 70
     0
  9
$DIMTZIN
 70
     1
  9
$DIMALTZ
 70
     0
  9
$DIMALTTZ
 70
     0
  9
$DIMUPT
 70
     0
  9
$DIMDEC
 70
     2
  9
$DIMTDEC
 70
     2
  9
$DIMALTU
 70
     2
  9
$DIMALTTD
 70
     3
  9
$DIMTXSTY
  7
Standard
  9
$DIMAUNIT
 70
     0
  9
$DIMADEC
 70
     2
  9
$DIMALTRND
 40
0.0
  9
$DIMAZIN
 70
     0
  9
$DIMDSEP
 70
    44
  9
$DIMATFIT
 70
     3
  9
$DIMFRAC
 70
     0
  9
$DIMLDRBLK
  1

  9
$DIMLUNIT
 70
     2
  9
$DIMLWD
 70
    -2
  9
$DIMLWE
 70
    -2
  9
$DIMTMOVE
 70
     0
  9
$LUNITS
 70
     2
  9
$LUPREC
 70
     2
  9
$SKETCHINC
 40
1.0
  9
$FILLETRAD
 40
0.0
  9
$AUNITS
 70
     0
  9
$AUPREC
 70
     2
  9
$MENU
  1
.
  9
$ELEVATION
 40
0.0
  9
$PELEVATION
 40
0.0
  9
$THICKNESS
 40
0.0
  9
$LIMCHECK
 70
     0
  9
$CHAMFERA
 40
0.0
  9
$CHAMFERB
 40
0.0
  9
$CHAMFERC
 40
0.0
  9
$CHAMFERD
 40
0.0
  9
$SKPOLY
 70
     0
  9
$TDCREATE
 40
2460219.578581516
  9
$TDUCREATE
 40
2460219.495248183
  9
$TDUPDATE
 40
2460219.578711111
  9
$TDUUPDATE
 40
2460219.495377778
  9
$TDINDWG
 40
0.0000000116
  9
$TDUSRTIMER
 40
0.0000000116
  9
$USRTIMER
 70
     1
  9
$ANGBASE
 50
0.0
  9
$ANGDIR
 70
     0
  9
$PDMODE
 70
     0
  9
$PDSIZE
 40
-1.0
  9
$PLINEWID
 40
0.0
  9
$SPLFRAME
 70
     0
  9
$SPLINETYPE
 70
     6
  9
$SPLINESEGS
 70
     8
  9
$HANDSEED
  5
3C3
  9
$SURFTAB1
 70
     6
  9
$SURFTAB2
 70
     6
  9
$SURFTYPE
 70
     6
  9
$SURFU
 70
     6
  9
$SURFV
 70
     6
  9
$UCSBASE
  2

  9
$UCSNAME
  2

  9
$UCSORG
 10
0.0
 20
0.0
 30
0.0
  9
$UCSXDIR
 10
1.0
 20
0.0
 30
0.0
  9
$UCSYDIR
 10
0.0
 20
1.0
 30
0.0
  9
$UCSORTHOREF
  2

  9
$UCSORTHOVIEW
 70
     0
  9
$UCSORGTOP
 10
0.0
 20
0.0
 30
0.0
  9
$UCSORGBOTTOM
 10
0.0
 20
0.0
 30
0.0
  9
$UCSORGLEFT
 10
0.0
 20
0.0
 30
0.0
  9
$UCSORGRIGHT
 10
0.0
 20
0.0
 30
0.0
  9
$UCSORGFRONT
 10
0.0
 20
0.0
 30
0.0
  9
$UCSORGBACK
 10
0.0
 20
0.0
 30
0.0
  9
$PUCSBASE
  2

  9
$PUCSNAME
  2

  9
$PUCSORG
 10
0.0
 20
0.0
 30
0.0
  9
$PUCSXDIR
 10
1.0
 20
0.0
 30
0.0
  9
$PUCSYDIR
 10
0.0
 20
1.0
 30
0.0
  9
$PUCSORTHOREF
  2

  9
$PUCSORTHOVIEW
 70
     0
  9
$PUCSORGTOP
 10
0.0
 20
0.0
 30
0.0
  9
$PUCSORGBOTTOM
 10
0.0
 20
0.0
 30
0.0
  9
$PUCSORGLEFT
 10
0.0
 20
0.0
 30
0.0
  9
$PUCSORGRIGHT
 10
0.0
 20
0.0
 30
0.0
  9
$PUCSORGFRONT
 10
0.0
 20
0.0
 30
0.0
  9
$PUCSORGBACK
 10
0.0
 20
0.0
 30
0.0
  9
$USERI1
 70
     0
  9
$USERI2
 70
     0
  9
$USERI3
 70
     0
  9
$USERI4
 70
     0
  9
$USERI5
 70
     0
  9
$USERR1
 40
0.0
  9
$USERR2
 40
0.0
  9
$USERR3
 40
0.0
  9
$USERR4
 40
0.0
  9
$USERR5
 40
0.0
  9
$WORLDVIEW
 70
     1
  9
$SHADEDGE
 70
     3
  9
$SHADEDIF
 70
    70
  9
$TILEMODE
 70
     1
  9
$MAXACTVP
 70
    64
  9
$PINSBASE
 10
0.0
 20
0.0
 30
0.0
  9
$PLIMCHECK
 70
     0
  9
$PEXTMIN
 10
1.0000000000E+20
 20
1.0000000000E+20
 30
1.0000000000E+20
  9
$PEXTMAX
 10
-1.0000000000E+20
 20
-1.0000000000E+20
 30
-1.0000000000E+20
  9
$PLIMMIN
 10
0.0
 20
0.0
  9
$PLIMMAX
 10
420.0
 20
297.0
  9
$UNITMODE
 70
     0
  9
$VISRETAIN
 70
     1
  9
$PLINEGEN
 70
     0
  9
$PSLTSCALE
 70
     1
  9
$TREEDEPTH
 70
  3020
  9
$CMLSTYLE
  2
Standard
  9
$CMLJUST
 70
     0
  9
$CMLSCALE
 40
20.0
  9
$PROXYGRAPHICS
 70
     1
  9
$MEASUREMENT
 70
     1
  9
$CELWEIGHT
370
    -1
  9
$ENDCAPS
280
     0
  9
$JOINSTYLE
280
     0
  9
$LWDISPLAY
290
     1
  9
$INSUNITS
 70
     4
  9
$HYPERLINKBASE
  1

  9
$STYLESHEET
  1

  9
$XEDIT
290
     1
  9
$CEPSNTYPE
380
     0
  9
$PSTYLEMODE
290
     1
  9
$FINGERPRINTGUID
  2
{a6dce40f-c7c4-46d2-b9a1-6c9b1c0ae925}
  9
$VERSIONGUID
  2
{FAEB1C32-E019-11D5-929B-00C0DF256EC4}
  9
$EXTNAMES
290
     1
  9
$PSVPSCALE
 40
0.0
  9
$OLESTARTUP
290
     0
  0
ENDSEC
  0
SECTION
  2
CLASSES
  0
CLASS
  1
ACDBDICTIONARYWDFLT
  2
AcDbDictionaryWithDefault
  3
ObjectDBX Classes
 90
        0
280
     0
281
     0
  0
CLASS
  1
VISUALSTYLE
  2
AcDbVisualStyle
  3
ObjectDBX Classes
 90
     4095
280
     0
281
     0
  0
CLASS
  1
MATERIAL
  2
AcDbMaterial
  3
ObjectDBX Classes
 90
     1153
280
     0
281
     0
  0
CLASS
  1
SCALE
  2
AcDbScale
  3
ObjectDBX Classes
 90
     1153
280
     0
281
     0
  0
CLASS
  1
TABLESTYLE
  2
AcDbTableStyle
  3
ObjectDBX Classes
 90
     4095
280
     0
281
     0
  0
CLASS
  1
MLEADERSTYLE
  2
AcDbMLeaderStyle
  3
ACDB_MLEADERSTYLE_CLASS
 90
     4095
280
     0
281
     0
  0
CLASS
  1
SUN
  2
AcDbSun
  3
SCENEOE
 90
     1153
280
     0
281
     0
  0
CLASS
  1
ACDBPLACEHOLDER
  2
AcDbPlaceHolder
  3
ObjectDBX Classes
 90
        0
280
     0
281
     0
  0
CLASS
  1
LAYOUT
  2
AcDbLayout
  3
ObjectDBX Classes
 90
        0
280
     0
281
     0
  0
ENDSEC
  0
SECTION
  2
TABLES
  0
TABLE
  2
VPORT
  5
8
330
0
100
AcDbSymbolTable
 70
     1
  0
VPORT
  5
29
330
8
100
AcDbSymbolTableRecord
100
AcDbViewportTableRecord
  2
*Active
 70
     0
 10
0.0
 20
0.0
 11
1.0
 21
1.0
 12
0.0
 22
-1.2532836355
 13
0.0
 23
0.0
 14
10.0
 24
10.0
 15
10.0
 25
10.0
 16
0.0
 26
0.0
 36
1.0
 17
0.0
 27
0.0
 37
0.0
 40
16.8233013835
 41
0.8488226939
 42
50.0
 43
0.0
 44
0.0
 50
0.0
 51
0.0
 71
     0
 72
   100
 73
     1
 74
     3
 75
     0
 76
     0
 77
     0
 78
     0
281
     0
 65
     1
110
0.0
120
0.0
130
0.0
111
1.0
121
0.0
131
0.0
112
0.0
122
1.0
132
0.0
 79
     0
146
0.0
  0
ENDTAB
  0
TABLE
  2
LTYPE
  5
5
330
0
100
AcDbSymbolTable
 70
     6
  0
LTYPE
  5
14
330
5
100
AcDbSymbolTableRecord
100
AcDbLinetypeTableRecord
  2
ByBlock
 70
     0
  3

 72
    65
 73
     0
 40
0.0
  0
LTYPE
  5
15
330
5
100
AcDbSymbolTableRecord
100
AcDbLinetypeTableRecord
  2
ByLayer
 70
     0
  3

 72
    65
 73
     0
 40
0.0
  0
LTYPE
  5
16
330
5
100
AcDbSymbolTableRecord
100
AcDbLinetypeTableRecord
  2
Continuous
 70
     0
  3
Solid line
 72
    65
 73
     0
 40
0.0
  0
LTYPE
  5
5E
330
5
100
AcDbSymbolTableRecord
100
AcDbLinetypeTableRecord
  2
HIDDEN
 70
     0
  3
Hidden __ __ __ __ __ __ __ __ __ __ __ __ __ __
 72
    65
 73
     2
 40
1.905
 49
1.27
 74
     0
 49
-0.635
 74
     0
  0
LTYPE
  5
5F
330
5
100
AcDbSymbolTableRecord
100
AcDbLinetypeTableRecord
  2
PHANTOM
 70
     0
  3
Phantom ______  __  __  ______  __  __  ______
 72
    65
 73
     6
 40
12.7
 49
6.35
 74
     0
 49
-1.27
 74
     0
 49
1.27
 74
     0
 49
-1.27
 74
     0
 49
1.27
 74
     0
 49
-1.27
 74
     0
  0
LTYPE
  5
60
330
5
100
AcDbSymbolTableRecord
100
AcDbLinetypeTableRecord
  2
CENTER
 70
     0
  3
Center ____ _ ____ _ ____ _ ____ _ ____ _ ____
 72
    65
 73
     4
 40
10.16
 49
6.35
 74
     0
 49
-1.27
 74
     0
 49
1.27
 74
     0
 49
-1.27
 74
     0
  0
LTYPE
  5
61
330
5
100
AcDbSymbolTableRecord
100
AcDbLinetypeTableRecord
  2
CENTERX2
 70
     0
  3
Center (2x) ________  __  ________  __  _____
 72
    65
 73
     4
 40
20.32
 49
12.7
 74
     0
 49
-2.54
 74
     0
 49
2.54
 74
     0
 49
-2.54
 74
     0
  0
LTYPE
  5
62
330
5
100
AcDbSymbolTableRecord
100
AcDbLinetypeTableRecord
  2
DOT2
 70
     0
  3
Dot (.5x) ........................................
 72
    65
 73
     2
 40
0.635
 49
0.0
 74
     0
 49
-0.635
 74
     0
  0
ENDTAB
  0
TABLE
  2
LAYER
  5
2
330
0
100
AcDbSymbolTable
 70
     1
  0
LAYER
  5
10
330
2
100
AcDbSymbolTableRecord
100
AcDbLayerTableRecord
  2
0
 70
     0
 62
     7
  6
Continuous
370
    -3
390
F
  0
ENDTAB
  0
TABLE
  2
STYLE
  5
3
330
0
100
AcDbSymbolTable
 70
     1
  0
STYLE
  5
11
330
3
100
AcDbSymbolTableRecord
100
AcDbTextStyleTableRecord
  2
Standard
 70
     0
 40
0.0
 41
1.0
 50
0.0
 71
     0
 42
3.5
  3
txt
  4

  0
ENDTAB
  0
TABLE
  2
VIEW
  5
6
330
0
100
AcDbSymbolTable
 70
     0
  0
ENDTAB
  0
TABLE
  2
UCS
  5
7
330
0
100
AcDbSymbolTable
 70
     0
  0
ENDTAB
  0
TABLE
  2
APPID
  5
9
330
0
100
AcDbSymbolTable
 70
     1
  0
APPID
  5
12
330
9
100
AcDbSymbolTableRecord
100
AcDbRegAppTableRecord
  2
ACAD
 70
     0
  0
ENDTAB
  0
TABLE
  2
DIMSTYLE
  5
A
330
0
100
AcDbSymbolTable
 70
     1
100
AcDbDimStyleTable
  0
DIMSTYLE
105
27
330
A
100
AcDbSymbolTableRecord
100
AcDbDimStyleTableRecord
  2
ISO-25
 70
     0
 41
2.5
 42
0.625
 43
3.75
 44
1.25
 73
     0
 74
     0
 77
     1
 78
     8
140
2.5
141
2.5
143
0.0393700787
147
0.625
171
     3
172
     1
178
     0
271
     2
272
     2
274
     3
278
    44
283
     0
284
     8
340
11
  0
ENDTAB
  0
TABLE
  2
BLOCK_RECORD
  5
1
330
0
100
AcDbSymbolTable
 70
     1
  0
BLOCK_RECORD
  5
1F
330
1
100
AcDbSymbolTableRecord
100
AcDbBlockTableRecord
  2
*Model_Space
340
22
  0
BLOCK_RECORD
  5
1B
330
1
100
AcDbSymbolTableRecord
100
AcDbBlockTableRecord
  2
*Paper_Space
340
1E
  0
BLOCK_RECORD
  5
23
330
1
100
AcDbSymbolTableRecord
100
AcDbBlockTableRecord
  2
*Paper_Space0
340
26
  0
ENDTAB
  0
ENDSEC
  0
SECTION
  2
BLOCKS
  0
BLOCK
  5
20
330
1F
100
AcDbEntity
  8
0
100
AcDbBlockBegin
  2
*Model_Space
 70
     0
 10
0.0
 20
0.0
 30
0.0
  3
*Model_Space
  1

  0
ENDBLK
  5
21
330
1F
100
AcDbEntity
  8
0
100
AcDbBlockEnd
  0
BLOCK
  5
1C
330
1B
100
AcDbEntity
 67
     1
  8
0
100
AcDbBlockBegin
  2
*Paper_Space
 70
     0
 10
0.0
 20
0.0
 30
0.0
  3
*Paper_Space
  1

  0
ENDBLK
  5
1D
330
1B
100
AcDbEntity
 67
     1
  8
0
100
AcDbBlockEnd
  0
BLOCK
  5
24
330
23
100
AcDbEntity
  8
0
100
AcDbBlockBegin
  2
*Paper_Space0
 70
     0
 10
0.0
 20
0.0
 30
0.0
  3
*Paper_Space0
  1

  0
ENDBLK
  5
25
330
23
100
AcDbEntity
  8
0
100
AcDbBlockEnd
  0
ENDSEC
  0
SECTION
  2
ENTITIES
  0
LINE
  5
63
330
1F
100
AcDbEntity
  8
0
  6
Continuous
 62
     7
100
AcDbLine
 10
0.0
 20
0.0
 30
0.0
 11
1.8124938272
 21
0.0
 31
0.0
  0
LINE
  5
64
330
1F
100
AcDbEntity
  8
0
  6
Continuous
 62
     7
100
AcDbLine
 10
0.0
 20
0.0
 30
0.0
 11
0.0
 21
3.6249876543
 31
0.0
  0
POINT
  5
65
330
1F
100
AcDbEntity
  8
0
  6
Continuous
 62
     7
100
AcDbPoint
 10
0.0
 20
0.0
 30
0.0
  0
LINE
  5
239
330
1F
100
AcDbEntity
  8
0
  6
Continuous
 62
     7
370
    25
100
AcDbLine
 10
-4.7712897432
 20
4.8668326266
 30
0.0
 11
-4.7614772547
 21
5.0915755627
 31
0.0
  0
LINE
  5
23A
330
1F
100
AcDbEntity
  8
0
  6
Continuous
 62
     7
370
    25
100
AcDbLine
 10
-4.6572104938
 20
5.1871184461
 30
0.0
 11
-4.4324675577
 21
5.1773059576
 31
0.0
  0
LINE
  5
23B
330
1F
100
AcDbEntity
  8
0
  6
Continuous
 62
     7
370
    25
100
AcDbLine
 10
-4.3289611328
 20
5.2641581606
 30
0.0
 11
-4.2995983463
 21
5.4871906672
 31
0.0
  0
LINE
  5
23C
330
1F
100
AcDbEntity
  8
0
  6
Continuous
 62
     7
370
    25
100
AcDbLine
 10
-4.1874012409
 20
5.5732825341
 30
0.0
 11
-3.9643687343
 21
5.5439197476
 31
0.0
  0
LINE
  5
23D
330
1F
100
AcDbEntity
  8
0
  6
Continuous
 62
     7
370
    25
100
AcDbLine
 10
-3.8536865144
 20
5.6214202723
 30
0.0
 11
-3.8049968983
 21
5.8410449375
 31
0.0
  0
LINE
  5
23E
330
1F
100
AcDbEntity
  8
0
  6
Continuous
 62
     7
370
    25
100
AcDbLine
 10
-3.6857233362
 20
5.9170305768
 30
0.0
 11
-3.466098671
 21
5.8683409608
 31
0.0
  0
LINE
  5
23F
330
1F
100
AcDbEntity
  8
0
  6
Continuous
 62
     7
370
    25
100
AcDbLine
 10
-3.3490830146
 20
5.9358999815
 30
0.0
 11
-3.2814371264
 21
6.1504453289
 31
0.0
  0
LINE
  5
240
330
1F
100
AcDbEntity
  8
0
  6
Continuous
 62
     7
370
    25
100
AcDbLine
 10
-3.1559948514
 20
6.215746444
 30
0.0
 11
-2.941449504
 21
6.1481005558
 31
0.0
  0
LINE
  5
241
330
1F
100
AcDbEntity
  8
0
  6
Continuous
 62
     7
370
    25
100
AcDbLine
 10
-2.8189909708
 20
6.2052039077
 30
0.0
 11
-2.7329036366
 21
6.4130371176
 31
0.0
  0
LINE
  5
242
330
1F
100
AcDbEntity
  8
0
  6
Continuous
 62
     7
370
    25
100
AcDbLine
 10
-2.6022473401
 20
6.4671567276
 30
0.0
 11
-2.3944141302
 21
6.3810693933
 31
0.0
  0
LINE
  5
243
330
1F
100
AcDbEntity
  8
0
  6
Continuous
 62
     7
370
    25
100
AcDbLine
 10
-2.2674447036
 20
6.4272824853
 30
0.0
 11
-2.1635710999
 21
6.6268218215
 31
0.0
  0
LINE
  5
244
330
1F
100
AcDbEntity
  8
0
  6
Continuous
 62
     7
370
    25
100
AcDbLine
 10
-2.0286951553
 20
6.6693480435
 30
0.0
 11
-1.829155819
 21
6.5654744397
 31
0.0
  0
LINE
  5
245
330
1F
100
AcDbEntity
  8
0
  6
Continuous
 62
     7
370
    25
100
AcDbLine
 10
-1.6986418131
 20
6.6004455622
 30
0.0
 11
-1.5777724808
 21
6.79017241
 31
0.0
  0
LINE
  5
246
330
1F
100
AcDbEntity
  8
0
  6
Continuous
 62
     7
370
    25
100
AcDbLine
 10
-1.4397033753
 20
6.8207815937
 30
0.0
 11
-1.2499765276
 21
6.6999122613
 31
0.0
  0
LINE
  5
247
330
1F
100
AcDbEntity
  8
0
  6
Continuous
 62
     7
370
    25
100
AcDbLine
 10
-1.1169112327
 20
6.723375263
 30
0.0
 11
-0.9799660603
 21
6.9018456864
 31
0.0
  0
LINE
  5
248
330
1F
100
AcDbEntity
  8
0
  6
Continuous
 62
     7
370
    25
100
AcDbLine
 10
-0.8397545834
 20
6.9203048775
 30
0.0
 11
-0.6612841601
 21
6.7833597051
 31
0.0
  0
LINE
  5
249
330
1F
100
AcDbEntity
  8
0
  6
Continuous
 62
     7
370
    25
100
AcDbLine
 10
-0.5266802835
 20
6.7951360184
 30
0.0
 11
-0.3747015065
 21
6.9609917497
 31
0.0
  0
LINE
  5
24A
330
1F
100
AcDbEntity
  8
0
  6
Continuous
 62
     7
370
    25
100
AcDbLine
 10
-0.2334147521
 20
6.9671604626
 30
0.0
 11
-0.0675590208
 21
6.8151816856
 31
0.0
  0
LINE
  5
24B
330
1F
100
AcDbEntity
  8
0
  6
Continuous
 62
     7
370
    25
100
AcDbLine
 10
0.0675590208
 20
6.8151816856
 30
0.0
 11
0.2334147521
 21
6.9671604626
 31
0.0
  0
LINE
  5
24C
330
1F
100
AcDbEntity
  8
0
  6
Continuous
 62
     7
370
    25
100
AcDbLine
 10
0.3747015065
 20
6.9609917497
 30
0.0
 11
0.5266802835
 21
6.7951360184
 31
0.0
  0
LINE
  5
24D
330
1F
100
AcDbEntity
  8
0
  6
Continuous
 62
     7
370
    25
100
AcDbLine
 10
0.6612841601
 20
6.7833597051
 30
0.0
 11
0.8397545834
 21
6.9203048775
 31
0.0
  0
LINE
  5
24E
330
1F
100
AcDbEntity
  8
0
  6
Continuous
 62
     7
370
    25
100
AcDbLine
 10
0.9799660603
 20
6.9018456864
 30
0.0
 11
1.1169112327
 21
6.723375263
 31
0.0
  0
LINE
  5
24F
330
1F
100
AcDbEntity
  8
0
  6
Continuous
 62
     7
370
    25
100
AcDbLine
 10
1.2499765276
 20
6.6999122613
 30
0.0
 11
1.4397033753
 21
6.8207815937
 31
0.0
  0
LINE
  5
250
330
1F
100
AcDbEntity
  8
0
  6
Continuous
 62
     7
370
    25
100
AcDbLine
 10
1.5777724808
 20
6.79017241
 30
0.0
 11
1.6986418131
 21
6.6004455622
 31
0.0
  0
LINE
  5
251
330
1F
100
AcDbEntity
  8
0
  6
Continuous
 62
     7
370
    25
100
AcDbLine
 10
1.829155819
 20
6.5654744397
 30
0.0
 11
2.0286951553
 21
6.6693480435
 31
0.0
  0
LINE
  5
252
330
1F
100
AcDbEntity
  8
0
  6
Continuous
 62
     7
370
    25
100
AcDbLine
 10
2.1635710999
 20
6.6268218215
 30
0.0
 11
2.2674447036
 21
6.4272824853
 31
0.0
  0
LINE
  5
253
330
1F
100
AcDbEntity
  8
0
  6
Continuous
 62
     7
370
    25
100
AcDbLine
 10
2.3944141302
 20
6.3810693933
 30
0.0
 11
2.6022473401
 21
6.4671567276
 31
0.0
  0
LINE
  5
254
330
1F
100
AcDbEntity
  8
0
  6
Continuous
 62
     7
370
    25
100
AcDbLine
 10
2.7329036366
 20
6.4130371176
 30
0.0
 11
2.8189909708
 21
6.2052039077
 31
0.0
  0
LINE
  5
255
330
1F
100
AcDbEntity
  8
0
  6
Continuous
 62
     7
370
    25
100
AcDbLine
 10
2.941449504
 20
6.1481005558
 30
0.0
 11
3.1559948514
 21
6.215746444
 31
0.0
  0
LINE
  5
256
330
1F
100
AcDbEntity
  8
0
  6
Continuous
 62
     7
370
    25
100
AcDbLine
 10
3.2814371264
 20
6.1504453289
 30
0.0
 11
3.3490830146
 21
5.9358999815
 31
0.0
  0
LINE
  5
257
330
1F
100
AcDbEntity
  8
0
  6
Continuous
 62
     7
370
    25
100
AcDbLine
 10
3.466098671
 20
5.8683409608
 30
0.0
 11
3.6857233362
 21
5.9170305768
 31
0.0
  0
LINE
  5
258
330
1F
100
AcDbEntity
  8
0
  6
Continuous
 62
     7
370
    25
100
AcDbLine
 10
3.8049968983
 20
5.8410449375
 30
0.0
 11
3.8536865144
 21
5.6214202723
 31
0.0
  0
LINE
  5
259
330
1F
100
AcDbEntity
  8
0
  6
Continuous
 62
     7
370
    25
100
AcDbLine
 10
3.9643687343
 20
5.5439197476
 30
0.0
 11
4.1874012409
 21
5.5732825341
 31
0.0
  0
LINE
  5
25A
330
1F
100
AcDbEntity
  8
0
  6
Continuous
 62
     7
370
    25
100
AcDbLine
 10
4.2995983463
 20
5.4871906672
 30
0.0
 11
4.3289611328
 21
5.2641581606
 31
0.0
  0
LINE
  5
25B
330
1F
100
AcDbEntity
  8
0
  6
Continuous
 62
     7
370
    25
100
AcDbLine
 10
4.4324675577
 20
5.1773059576
 30
0.0
 11
4.6572104938
 21
5.1871184461
 31
0.0
  0
LINE
  5
25C
330
1F
100
AcDbEntity
  8
0
  6
Continuous
 62
     7
370
    25
100
AcDbLine
 10
4.7614772547
 20
5.0915755627
 30
0.0
 11
4.7712897432
 21
4.8668326266
 31
0.0
  0
LINE
  5
25D
330
1F
100
AcDbEntity
  8
0
  6
Continuous
 62
     7
370
    25
100
AcDbLine
 10
4.8668326266
 20
4.7712897432
 30
0.0
 11
5.0915755627
 21
4.7614772547
 31
0.0
  0
LINE
  5
25E
330
1F
100
AcDbEntity
  8
0
  6
Continuous
 62
     7
370
    25
100
AcDbLine
 10
5.1871184461
 20
4.6572104938
 30
0.0
 11
5.1773059576
 21
4.4324675577
 31
0.0
  0
LINE
  5
25F
330
1F
100
AcDbEntity
  8
0
  6
Continuous
 62
     7
370
    25
100
AcDbLine
 10
5.2641581606
 20
4.3289611328
 30
0.0
 11
5.4871906672
 21
4.2995983463
 31
0.0
  0
LINE
  5
260
330
1F
100
AcDbEntity
  8
0
  6
Continuous
 62
     7
370
    25
100
AcDbLine
 10
5.5732825341
 20
4.1874012409
 30
0.0
 11
5.5439197476
 21
3.9643687343
 31
0.0
  0
LINE
  5
261
330
1F
100
AcDbEntity
  8
0
  6
Continuous
 62
     7
370
    25
100
AcDbLine
 10
5.6214202723
 20
3.8536865144
 30
0.0
 11
5.8410449375
 21
3.8049968983
 31
0.0
  0
LINE
  5
262
330
1F
100
AcDbEntity
  8
0
  6
Continuous
 62
     7
370
    25
100
AcDbLine
 10
5.9170305768
 20
3.6857233362
 30
0.0
 11
5.8683409608
 21
3.466098671
 31
0.0
  0
LINE
  5
263
330
1F
100
AcDbEntity
  8
0
  6
Continuous
 62
     7
370
    25
100
AcDbLine
 10
5.9358999815
 20
3.3490830146
 30
0.0
 11
6.1504453289
 21
3.2814371264
 31
0.0
  0
LINE
  5
264
330
1F
100
AcDbEntity
  8
0
  6
Continuous
 62
     7
370
    25
100
AcDbLine
 10
6.215746444
 20
3.1559948514
 30
0.0
 11
6.1481005558
 21
2.941449504
 31
0.0
  0
LINE
  5
265
330
1F
100
AcDbEntity
  8
0
  6
Continuous
 62
     7
370
    25
100
AcDbLine
 10
6.2052039077
 20
2.8189909708
 30
0.0
 11
6.4130371176
 21
2.7329036366
 31
0.0
  0
LINE
  5
266
330
1F
100
AcDbEntity
  8
0
  6
Continuous
 62
     7
370
    25
100
AcDbLine
 10
6.4671567276
 20
2.6022473401
 30
0.0
 11
6.3810693933
 21
2.3944141302
 31
0.0
  0
LINE
  5
267
330
1F
100
AcDbEntity
  8
0
  6
Continuous
 62
     7
370
    25
100
AcDbLine
 10
6.4272824853
 20
2.2674447036
 30
0.0
 11
6.6268218215
 21
2.1635710999
 31
0.0
  0
LINE
  5
268
330
1F
100
AcDbEntity
  8
0
  6
Continuous
 62
     7
370
    25
100
AcDbLine
 10
6.6693480435
 20
2.0286951553
 30
0.0
 11
6.5654744397
 21
1.829155819
 31
0.0
  0
LINE
  5
269
330
1F
100
AcDbEntity
  8
0
  6
Continuous
 62
     7
370
    25
100
AcDbLine
 10
6.6004455622
 20
1.6986418131
 30
0.0
 11
6.79017241
 21
1.5777724808
 31
0.0
  0
LINE
  5
26A
330
1F
100
AcDbEntity
  8
0
  6
Continuous
 62
     7
370
    25
100
AcDbLine
 10
6.8207815937
 20
1.4397033753
 30
0.0
 11
6.6999122613
 21
1.2499765276
 31
0.0
  0
LINE
  5
26B
330
1F
100
AcDbEntity
  8
0
  6
Continuous
 62
     7
370
    25
100
AcDbLine
 10
6.723375263
 20
1.1169112327
 30
0.0
 11
6.9018456864
 21
0.9799660603
 31
0.0
  0
LINE
  5
26C
330
1F
100
AcDbEntity
  8
0
  6
Continuous
 62
     7
370
    25
100
AcDbLine
 10
6.9203048775
 20
0.8397545834
 30
0.0
 11
6.7833597051
 21
0.6612841601
 31
0.0
  0
LINE
  5
26D
330
1F
100
AcDbEntity
  8
0
  6
Continuous
 62
     7
370
    25
100
AcDbLine
 10
6.7951360184
 20
0.5266802835
 30
0.0
 11
6.9609917497
 21
0.3747015065
 31
0.0
  0
LINE
  5
26E
330
1F
100
AcDbEntity
  8
0
  6
Continuous
 62
     7
370
    25
100
AcDbLine
 10
6.9671604626
 20
0.2334147521
 30
0.0
 11
6.8151816856
 21
0.0675590208
 31
0.0
  0
LINE
  5
26F
330
1F
100
AcDbEntity
  8
0
  6
Continuous
 62
     7
370
    25
100
AcDbLine
 10
6.8151816856
 20
-0.0675590208
 30
0.0
 11
6.9671604626
 21
-0.2334147521
 31
0.0
  0
LINE
  5
270
330
1F
100
AcDbEntity
  8
0
  6
Continuous
 62
     7
370
    25
100
AcDbLine
 10
6.9609917497
 20
-0.3747015065
 30
0.0
 11
6.7951360184
 21
-0.5266802835
 31
0.0
  0
LINE
  5
271
330
1F
100
AcDbEntity
  8
0
  6
Continuous
 62
     7
370
    25
100
AcDbLine
 10
6.7833597051
 20
-0.6612841601
 30
0.0
 11
6.9203048775
 21
-0.8397545834
 31
0.0
  0
LINE
  5
272
330
1F
100
AcDbEntity
  8
0
  6
Continuous
 62
     7
370
    25
100
AcDbLine
 10
6.9018456864
 20
-0.9799660603
 30
0.0
 11
6.723375263
 21
-1.1169112327
 31
0.0
  0
LINE
  5
273
330
1F
100
AcDbEntity
  8
0
  6
Continuous
 62
     7
370
    25
100
AcDbLine
 10
6.6999122613
 20
-1.2499765276
 30
0.0
 11
6.8207815937
 21
-1.4397033753
 31
0.0
  0
LINE
  5
274
330
1F
100
AcDbEntity
  8
0
  6
Continuous
 62
     7
370
    25
100
AcDbLine
 10
6.79017241
 20
-1.5777724808
 30
0.0
 11
6.6004455622
 21
-1.6986418131
 31
0.0
  0
LINE
  5
275
330
1F
100
AcDbEntity
  8
0
  6
Continuous
 62
     7
370
    25
100
AcDbLine
 10
6.5654744397
 20
-1.829155819
 30
0.0
 11
6.6693480435
 21
-2.0286951553
 31
0.0
  0
LINE
  5
276
330
1F
100
AcDbEntity
  8
0
  6
Continuous
 62
     7
370
    25
100
AcDbLine
 10
6.6268218215
 20
-2.1635710999
 30
0.0
 11
6.4272824853
 21
-2.2674447036
 31
0.0
  0
LINE
  5
277
330
1F
100
AcDbEntity
  8
0
  6
Continuous
 62
     7
370
    25
100
AcDbLine
 10
6.3810693933
 20
-2.3944141302
 30
0.0
 11
6.4671567276
 21
-2.6022473401
 31
0.0
  0
LINE
  5
278
330
1F
100
AcDbEntity
  8
0
  6
Continuous
 62
     7
370
    25
100
AcDbLine
 10
6.4130371176
 20
-2.7329036366
 30
0.0
 11
6.2052039077
 21
-2.8189909708
 31
0.0
  0
LINE
  5
279
330
1F
100
AcDbEntity
  8
0
  6
Continuous
 62
     7
370
    25
100
AcDbLine
 10
6.1481005558
 20
-2.941449504
 30
0.0
 11
6.215746444
 21
-3.1559948514
 31
0.0
  0
LINE
  5
27A
330
1F
100
AcDbEntity
  8
0
  6
Continuous
 62
     7
370
    25
100
AcDbLine
 10
6.1504453289
 20
-3.2814371264
 30
0.0
 11
5.9358999815
 21
-3.3490830146
 31
0.0
  0
LINE
  5
27B
330
1F
100
AcDbEntity
  8
0
  6
Continuous
 62
     7
370
    25
100
AcDbLine
 10
5.8683409608
 20
-3.466098671
 30
0.0
 11
5.9170305768
 21
-3.6857233362
 31
0.0
  0
LINE
  5
27C
330
1F
100
AcDbEntity
  8
0
  6
Continuous
 62
     7
370
    25
100
AcDbLine
 10
5.8410449375
 20
-3.8049968983
 30
0.0
 11
5.6214202723
 21
-3.8536865144
 31
0.0
  0
LINE
  5
27D
330
1F
100
AcDbEntity
  8
0
  6
Continuous
 62
     7
370
    25
100
AcDbLine
 10
5.5439197476
 20
-3.9643687343
 30
0.0
 11
5.5732825341
 21
-4.1874012409
 31
0.0
  0
LINE
  5
27E
330
1F
100
AcDbEntity
  8
0
  6
Continuous
 62
     7
370
    25
100
AcDbLine
 10
5.4871906672
 20
-4.2995983463
 30
0.0
 11
5.2641581606
 21
-4.3289611328
 31
0.0
  0
LINE
  5
27F
330
1F
100
AcDbEntity
  8
0
  6
Continuous
 62
     7
370
    25
100
AcDbLine
 10
5.1773059576
 20
-4.4324675577
 30
0.0
 11
5.1871184461
 21
-4.6572104938
 31
0.0
  0
LINE
  5
280
330
1F
100
AcDbEntity
  8
0
  6
Continuous
 62
     7
370
    25
100
AcDbLine
 10
5.0915755627
 20
-4.7614772547
 30
0.0
 11
4.8668326266
 21
-4.7712897432
 31
0.0
  0
LINE
  5
281
330
1F
100
AcDbEntity
  8
0
  6
Continuous
 62
     7
370
    25
100
AcDbLine
 10
4.7712897432
 20
-4.8668326266
 30
0.0
 11
4.7614772547
 21
-5.0915755627
 31
0.0
  0
LINE
  5
282
330
1F
100
AcDbEntity
  8
0
  6
Continuous
 62
     7
370
    25
100
AcDbLine
 10
4.6572104938
 20
-5.1871184461
 30
0.0
 11
4.4324675577
 21
-5.1773059576
 31
0.0
  0
LINE
  5
283
330
1F
100
AcDbEntity
  8
0
  6
Continuous
 62
     7
370
    25
100
AcDbLine
 10
4.3289611328
 20
-5.2641581606
 30
0.0
 11
4.2995983463
 21
-5.4871906672
 31
0.0
  0
LINE
  5
284
330
1F
100
AcDbEntity
  8
0
  6
Continuous
 62
     7
370
    25
100
AcDbLine
 10
4.1874012409
 20
-5.5732825341
 30
0.0
 11
3.9643687343
 21
-5.5439197476
 31
0.0
  0
LINE
  5
285
330
1F
100
AcDbEntity
  8
0
  6
Continuous
 62
     7
370
    25
100
AcDbLine
 10
3.8536865144
 20
-5.6214202723
 30
0.0
 11
3.8049968983
 21
-5.8410449375
 31
0.0
  0
LINE
  5
286
330
1F
100
AcDbEntity
  8
0
  6
Continuous
 62
     7
370
    25
100
AcDbLine
 10
3.6857233362
 20
-5.9170305768
 30
0.0
 11
3.466098671
 21
-5.8683409608
 31
0.0
  0
LINE
  5
287
330
1F
100
AcDbEntity
  8
0
  6
Continuous
 62
     7
370
    25
100
AcDbLine
 10
3.3490830146
 20
-5.9358999815
 30
0.0
 11
3.2814371264
 21
-6.1504453289
 31
0.0
  0
LINE
  5
288
330
1F
100
AcDbEntity
  8
0
  6
Continuous
 62
     7
370
    25
100
AcDbLine
 10
3.1559948514
 20
-6.215746444
 30
0.0
 11
2.941449504
 21
-6.1481005558
 31
0.0
  0
LINE
  5
289
330
1F
100
AcDbEntity
  8
0
  6
Continuous
 62
     7
370
    25
100
AcDbLine
 10
2.8189909708
 20
-6.2052039077
 30
0.0
 11
2.7329036366
 21
-6.4130371176
 31
0.0
  0
LINE
  5
28A
330
1F
100
AcDbEntity
  8
0
  6
Continuous
 62
     7
370
    25
100
AcDbLine
 10
2.6022473401
 20
-6.4671567276
 30
0.0
 11
2.3944141302
 21
-6.3810693933
 31
0.0
  0
LINE
  5
28B
330
1F
100
AcDbEntity
  8
0
  6
Continuous
 62
     7
370
    25
100
AcDbLine
 10
2.2674447036
 20
-6.4272824853
 30
0.0
 11
2.1635710999
 21
-6.6268218215
 31
0.0
  0
LINE
  5
28C
330
1F
100
AcDbEntity
  8
0
  6
Continuous
 62
     7
370
    25
100
AcDbLine
 10
2.0286951553
 20
-6.6693480435
 30
0.0
 11
1.829155819
 21
-6.5654744397
 31
0.0
  0
LINE
  5
28D
330
1F
100
AcDbEntity
  8
0
  6
Continuous
 62
     7
370
    25
100
AcDbLine
 10
1.6986418131
 20
-6.6004455622
 30
0.0
 11
1.5777724808
 21
-6.79017241
 31
0.0
  0
LINE
  5
28E
330
1F
100
AcDbEntity
  8
0
  6
Continuous
 62
     7
370
    25
100
AcDbLine
 10
1.4397033753
 20
-6.8207815937
 30
0.0
 11
1.2499765276
 21
-6.6999122613
 31
0.0
  0
LINE
  5
28F
330
1F
100
AcDbEntity
  8
0
  6
Continuous
 62
     7
370
    25
100
AcDbLine
 10
1.1169112327
 20
-6.723375263
 30
0.0
 11
0.9799660603
 21
-6.9018456864
 31
0.0
  0
LINE
  5
290
330
1F
100
AcDbEntity
  8
0
  6
Continuous
 62
     7
370
    25
100
AcDbLine
 10
0.8397545834
 20
-6.9203048775
 30
0.0
 11
0.6612841601
 21
-6.7833597051
 31
0.0
  0
LINE
  5
291
330
1F
100
AcDbEntity
  8
0
  6
Continuous
 62
     7
370
    25
100
AcDbLine
 10
0.5266802835
 20
-6.7951360184
 30
0.0
 11
0.3747015065
 21
-6.9609917497
 31
0.0
  0
LINE
  5
292
330
1F
100
AcDbEntity
  8
0
  6
Continuous
 62
     7
370
    25
100
AcDbLine
 10
0.2334147521
 20
-6.9671604626
 30
0.0
 11
0.0675590208
 21
-6.8151816856
 31
0.0
  0
LINE
  5
293
330
1F
100
AcDbEntity
  8
0
  6
Continuous
 62
     7
370
    25
100
AcDbLine
 10
-0.0675590208
 20
-6.8151816856
 30
0.0
 11
-0.2334147521
 21
-6.9671604626
 31
0.0
  0
LINE
  5
294
330
1F
100
AcDbEntity
  8
0
  6
Continuous
 62
     7
370
    25
100
AcDbLine
 10
-0.3747015065
 20
-6.9609917497
 30
0.0
 11
-0.5266802835
 21
-6.7951360184
 31
0.0
  0
LINE
  5
295
330
1F
100
AcDbEntity
  8
0
  6
Continuous
 62
     7
370
    25
100
AcDbLine
 10
-0.9799660603
 20
-6.9018456864
 30
0.0
 11
-1.1169112327
 21
-6.723375263
 31
0.0
  0
LINE
  5
296
330
1F
100
AcDbEntity
  8
0
  6
Continuous
 62
     7
370
    25
100
AcDbLine
 10
-2.941449504
 20
-6.1481005558
 30
0.0
 11
-3.1559948514
 21
-6.215746444
 31
0.0
  0
LINE
  5
297
330
1F
100
AcDbEntity
  8
0
  6
Continuous
 62
     7
370
    25
100
AcDbLine
 10
-3.2814371264
 20
-6.1504453289
 30
0.0
 11
-3.3490830146
 21
-5.9358999815
 31
0.0
  0
LINE
  5
298
330
1F
100
AcDbEntity
  8
0
  6
Continuous
 62
     7
370
    25
100
AcDbLine
 10
-3.466098671
 20
-5.8683409608
 30
0.0
 11
-3.6857233362
 21
-5.9170305768
 31
0.0
  0
LINE
  5
299
330
1F
100
AcDbEntity
  8
0
  6
Continuous
 62
     7
370
    25
100
AcDbLine
 10
-3.8049968983
 20
-5.8410449375
 30
0.0
 11
-3.8536865144
 21
-5.6214202723
 31
0.0
  0
LINE
  5
29A
330
1F
100
AcDbEntity
  8
0
  6
Continuous
 62
     7
370
    25
100
AcDbLine
 10
-3.9643687343
 20
-5.5439197476
 30
0.0
 11
-4.1874012409
 21
-5.5732825341
 31
0.0
  0
LINE
  5
29B
330
1F
100
AcDbEntity
  8
0
  6
Continuous
 62
     7
370
    25
100
AcDbLine
 10
-4.2995983463
 20
-5.4871906672
 30
0.0
 11
-4.3289611328
 21
-5.2641581606
 31
0.0
  0
LINE
  5
29C
330
1F
100
AcDbEntity
  8
0
  6
Continuous
 62
     7
370
    25
100
AcDbLine
 10
-4.4324675577
 20
-5.1773059576
 30
0.0
 11
-4.6572104938
 21
-5.1871184461
 31
0.0
  0
LINE
  5
29D
330
1F
100
AcDbEntity
  8
0
  6
Continuous
 62
     7
370
    25
100
AcDbLine
 10
-4.7614772547
 20
-5.0915755627
 30
0.0
 11
-4.7712897432
 21
-4.8668326266
 31
0.0
  0
LINE
  5
29E
330
1F
100
AcDbEntity
  8
0
  6
Continuous
 62
     7
370
    25
100
AcDbLine
 10
-4.8668326266
 20
-4.7712897432
 30
0.0
 11
-5.0915755627
 21
-4.7614772547
 31
0.0
  0
LINE
  5
29F
330
1F
100
AcDbEntity
  8
0
  6
Continuous
 62
     7
370
    25
100
AcDbLine
 10
-5.1871184461
 20
-4.6572104938
 30
0.0
 11
-5.1773059576
 21
-4.4324675577
 31
0.0
  0
LINE
  5
2A0
330
1F
100
AcDbEntity
  8
0
  6
Continuous
 62
     7
370
    25
100
AcDbLine
 10
-5.2641581606
 20
-4.3289611328
 30
0.0
 11
-5.4871906672
 21
-4.2995983463
 31
0.0
  0
LINE
  5
2A1
330
1F
100
AcDbEntity
  8
0
  6
Continuous
 62
     7
370
    25
100
AcDbLine
 10
-5.5732825341
 20
-4.1874012409
 30
0.0
 11
-5.5439197476
 21
-3.9643687343
 31
0.0
  0
LINE
  5
2A2
330
1F
100
AcDbEntity
  8
0
  6
Continuous
 62
     7
370
    25
100
AcDbLine
 10
-5.6214202723
 20
-3.8536865144
 30
0.0
 11
-5.8410449375
 21
-3.8049968983
 31
0.0
  0
LINE
  5
2A3
330
1F
100
AcDbEntity
  8
0
  6
Continuous
 62
     7
370
    25
100
AcDbLine
 10
-5.9170305768
 20
-3.6857233362
 30
0.0
 11
-5.8683409608
 21
-3.466098671
 31
0.0
  0
LINE
  5
2A4
330
1F
100
AcDbEntity
  8
0
  6
Continuous
 62
     7
370
    25
100
AcDbLine
 10
-5.9358999815
 20
-3.3490830146
 30
0.0
 11
-6.1504453289
 21
-3.2814371264
 31
0.0
  0
LINE
  5
2A5
330
1F
100
AcDbEntity
  8
0
  6
Continuous
 62
     7
370
    25
100
AcDbLine
 10
-6.215746444
 20
-3.1559948514
 30
0.0
 11
-6.1481005558
 21
-2.941449504
 31
0.0
  0
LINE
  5
2A6
330
1F
100
AcDbEntity
  8
0
  6
Continuous
 62
     7
370
    25
100
AcDbLine
 10
-6.2052039077
 20
-2.8189909708
 30
0.0
 11
-6.4130371176
 21
-2.7329036366
 31
0.0
  0
LINE
  5
2A7
330
1F
100
AcDbEntity
  8
0
  6
Continuous
 62
     7
370
    25
100
AcDbLine
 10
-6.4671567276
 20
-2.6022473401
 30
0.0
 11
-6.3810693933
 21
-2.3944141302
 31
0.0
  0
LINE
  5
2A8
330
1F
100
AcDbEntity
  8
0
  6
Continuous
 62
     7
370
    25
100
AcDbLine
 10
-6.4272824853
 20
-2.2674447036
 30
0.0
 11
-6.6268218215
 21
-2.1635710999
 31
0.0
  0
LINE
  5
2A9
330
1F
100
AcDbEntity
  8
0
  6
Continuous
 62
     7
370
    25
100
AcDbLine
 10
-6.6693480435
 20
-2.0286951553
 30
0.0
 11
-6.5654744397
 21
-1.829155819
 31
0.0
  0
LINE
  5
2AA
330
1F
100
AcDbEntity
  8
0
  6
Continuous
 62
     7
370
    25
100
AcDbLine
 10
-6.6004455622
 20
-1.6986418131
 30
0.0
 11
-6.79017241
 21
-1.5777724808
 31
0.0
  0
LINE
  5
2AB
330
1F
100
AcDbEntity
  8
0
  6
Continuous
 62
     7
370
    25
100
AcDbLine
 10
-6.8207815937
 20
-1.4397033753
 30
0.0
 11
-6.6999122613
 21
-1.2499765276
 31
0.0
  0
LINE
  5
2AC
330
1F
100
AcDbEntity
  8
0
  6
Continuous
 62
     7
370
    25
100
AcDbLine
 10
-6.723375263
 20
-1.1169112327
 30
0.0
 11
-6.9018456864
 21
-0.9799660603
 31
0.0
  0
LINE
  5
2AD
330
1F
100
AcDbEntity
  8
0
  6
Continuous
 62
     7
370
    25
100
AcDbLine
 10
-6.9203048775
 20
-0.8397545834
 30
0.0
 11
-6.7833597051
 21
-0.6612841601
 31
0.0
  0
LINE
  5
2AE
330
1F
100
AcDbEntity
  8
0
  6
Continuous
 62
     7
370
    25
100
AcDbLine
 10
-6.7951360184
 20
-0.5266802835
 30
0.0
 11
-6.9609917497
 21
-0.3747015065
 31
0.0
  0
LINE
  5
2AF
330
1F
100
AcDbEntity
  8
0
  6
Continuous
 62
     7
370
    25
100
AcDbLine
 10
-6.9671604626
 20
-0.2334147521
 30
0.0
 11
-6.8151816856
 21
-0.0675590208
 31
0.0
  0
LINE
  5
2B0
330
1F
100
AcDbEntity
  8
0
  6
Continuous
 62
     7
370
    25
100
AcDbLine
 10
-6.8151816856
 20
0.0675590208
 30
0.0
 11
-6.9671604626
 21
0.2334147521
 31
0.0
  0
LINE
  5
2B1
330
1F
100
AcDbEntity
  8
0
  6
Continuous
 62
     7
370
    25
100
AcDbLine
 10
-6.9609917497
 20
0.3747015065
 30
0.0
 11
-6.7951360184
 21
0.5266802835
 31
0.0
  0
LINE
  5
2B2
330
1F
100
AcDbEntity
  8
0
  6
Continuous
 62
     7
370
    25
100
AcDbLine
 10
-6.7833597051
 20
0.6612841601
 30
0.0
 11
-6.9203048775
 21
0.8397545834
 31
0.0
  0
LINE
  5
2B3
330
1F
100
AcDbEntity
  8
0
  6
Continuous
 62
     7
370
    25
100
AcDbLine
 10
-6.9018456864
 20
0.9799660603
 30
0.0
 11
-6.723375263
 21
1.1169112327
 31
0.0
  0
LINE
  5
2B4
330
1F
100
AcDbEntity
  8
0
  6
Continuous
 62
     7
370
    25
100
AcDbLine
 10
-6.6999122613
 20
1.2499765276
 30
0.0
 11
-6.8207815937
 21
1.4397033753
 31
0.0
  0
LINE
  5
2B5
330
1F
100
AcDbEntity
  8
0
  6
Continuous
 62
     7
370
    25
100
AcDbLine
 10
-6.79017241
 20
1.5777724808
 30
0.0
 11
-6.6004455622
 21
1.6986418131
 31
0.0
  0
LINE
  5
2B6
330
1F
100
AcDbEntity
  8
0
  6
Continuous
 62
     7
370
    25
100
AcDbLine
 10
-6.5654744397
 20
1.829155819
 30
0.0
 11
-6.6693480435
 21
2.0286951553
 31
0.0
  0
LINE
  5
2B7
330
1F
100
AcDbEntity
  8
0
  6
Continuous
 62
     7
370
    25
100
AcDbLine
 10
-6.6268218215
 20
2.1635710999
 30
0.0
 11
-6.4272824853
 21
2.2674447036
 31
0.0
  0
LINE
  5
2B8
330
1F
100
AcDbEntity
  8
0
  6
Continuous
 62
     7
370
    25
100
AcDbLine
 10
-6.3810693933
 20
2.3944141302
 30
0.0
 11
-6.4671567276
 21
2.6022473401
 31
0.0
  0
LINE
  5
2B9
330
1F
100
AcDbEntity
  8
0
  6
Continuous
 62
     7
370
    25
100
AcDbLine
 10
-6.4130371176
 20
2.7329036366
 30
0.0
 11
-6.2052039077
 21
2.8189909708
 31
0.0
  0
LINE
  5
2BA
330
1F
100
AcDbEntity
  8
0
  6
Continuous
 62
     7
370
    25
100
AcDbLine
 10
-6.1481005558
 20
2.941449504
 30
0.0
 11
-6.215746444
 21
3.1559948514
 31
0.0
  0
LINE
  5
2BB
330
1F
100
AcDbEntity
  8
0
  6
Continuous
 62
     7
370
    25
100
AcDbLine
 10
-6.1504453289
 20
3.2814371264
 30
0.0
 11
-5.9358999815
 21
3.3490830146
 31
0.0
  0
LINE
  5
2BC
330
1F
100
AcDbEntity
  8
0
  6
Continuous
 62
     7
370
    25
100
AcDbLine
 10
-5.8683409608
 20
3.466098671
 30
0.0
 11
-5.9170305768
 21
3.6857233362
 31
0.0
  0
LINE
  5
2BD
330
1F
100
AcDbEntity
  8
0
  6
Continuous
 62
     7
370
    25
100
AcDbLine
 10
-5.8410449375
 20
3.8049968983
 30
0.0
 11
-5.6214202723
 21
3.8536865144
 31
0.0
  0
LINE
  5
2BE
330
1F
100
AcDbEntity
  8
0
  6
Continuous
 62
     7
370
    25
100
AcDbLine
 10
-5.5439197476
 20
3.9643687343
 30
0.0
 11
-5.5732825341
 21
4.1874012409
 31
0.0
  0
LINE
  5
2BF
330
1F
100
AcDbEntity
  8
0
  6
Continuous
 62
     7
370
    25
100
AcDbLine
 10
-5.4871906672
 20
4.2995983463
 30
0.0
 11
-5.2641581606
 21
4.3289611328
 31
0.0
  0
LINE
  5
2C0
330
1F
100
AcDbEntity
  8
0
  6
Continuous
 62
     7
370
    25
100
AcDbLine
 10
-5.1773059576
 20
4.4324675577
 30
0.0
 11
-5.1871184461
 21
4.6572104938
 31
0.0
  0
LINE
  5
2C1
330
1F
100
AcDbEntity
  8
0
  6
Continuous
 62
     7
370
    25
100
AcDbLine
 10
-5.0915755627
 20
4.7614772547
 30
0.0
 11
-4.8668326266
 21
4.7712897432
 31
0.0
  0
LINE
  5
2C2
330
1F
100
AcDbEntity
  8
0
  6
Continuous
 62
     7
370
    25
100
AcDbLine
 10
2.4748737342
 20
-3.8890872965
 30
0.0
 11
3.8890872965
 21
-2.4748737342
 31
0.0
  0
LINE
  5
2C3
330
1F
100
AcDbEntity
  8
0
  6
Continuous
 62
     7
370
    25
100
AcDbLine
 10
3.8890872965
 20
-2.4748737342
 30
0.0
 11
2.4748737342
 21
-1.0606601718
 31
0.0
  0
LINE
  5
2C4
330
1F
100
AcDbEntity
  8
0
  6
Continuous
 62
     7
370
    25
100
AcDbLine
 10
2.4748737342
 20
-1.0606601718
 30
0.0
 11
1.0606601718
 21
-2.4748737342
 31
0.0
  0
LINE
  5
2C5
330
1F
100
AcDbEntity
  8
0
  6
Continuous
 62
     7
370
    25
100
AcDbLine
 10
1.0606601718
 20
-2.4748737342
 30
0.0
 11
2.4748737342
 21
-3.8890872965
 31
0.0
  0
LINE
  5
2C6
330
1F
100
AcDbEntity
  8
0
  6
Continuous
 62
     7
370
    25
100
AcDbLine
 10
-2.3944141302
 20
-6.3810693933
 30
0.0
 11
-2.6022473401
 21
-6.4671567276
 31
0.0
  0
LINE
  5
2C7
330
1F
100
AcDbEntity
  8
0
  6
Continuous
 62
     7
370
    25
100
AcDbLine
 10
-2.7329036366
 20
-6.4130371176
 30
0.0
 11
-2.8189909708
 21
-6.2052039077
 31
0.0
  0
LINE
  5
2C8
330
1F
100
AcDbEntity
  8
0
  6
Continuous
 62
     7
370
    25
100
AcDbLine
 10
-1.829155819
 20
-6.5654744397
 30
0.0
 11
-2.0286951553
 21
-6.6693480435
 31
0.0
  0
LINE
  5
2C9
330
1F
100
AcDbEntity
  8
0
  6
Continuous
 62
     7
370
    25
100
AcDbLine
 10
-2.1635710999
 20
-6.6268218215
 30
0.0
 11
-2.2674447036
 21
-6.4272824853
 31
0.0
  0
LINE
  5
2CA
330
1F
100
AcDbEntity
  8
0
  6
Continuous
 62
     7
370
    25
100
AcDbLine
 10
-1.2499765276
 20
-6.6999122613
 30
0.0
 11
-1.4397033753
 21
-6.8207815937
 31
0.0
  0
LINE
  5
2CB
330
1F
100
AcDbEntity
  8
0
  6
Continuous
 62
     7
370
    25
100
AcDbLine
 10
-1.5777724808
 20
-6.79017241
 30
0.0
 11
-1.6986418131
 21
-6.6004455622
 31
0.0
  0
LINE
  5
2CC
330
1F
100
AcDbEntity
  8
0
  6
Continuous
 62
     7
370
    25
100
AcDbLine
 10
-0.6612841601
 20
-6.7833597051
 30
0.0
 11
-0.8397545834
 21
-6.9203048775
 31
0.0
  0
LINE
  5
2CD
330
1F
100
AcDbEntity
  8
0
  6
Continuous
 62
     7
370
    25
100
AcDbLine
 10
0.75
 20
0.0
 30
0.0
 11
0.6
 21
0.0
 31
0.0
  0
LINE
  5
2CE
330
1F
100
AcDbEntity
  8
0
  6
Continuous
 62
     7
370
    25
100
AcDbLine
 10
-0.75
 20
0.0
 30
0.0
 11
-0.6
 21
0.0
 31
0.0
  0
LINE
  5
2CF
330
1F
100
AcDbEntity
  8
0
  6
Continuous
 62
     7
370
    25
100
AcDbLine
 10
-0.355
 20
0.0
 30
0.0
 11
-0.455
 21
0.0
 31
0.0
  0
LINE
  5
2D0
330
1F
100
AcDbEntity
  8
0
  6
Continuous
 62
     7
370
    25
100
AcDbLine
 10
0.355
 20
0.0
 30
0.0
 11
0.455
 21
0.0
 31
0.0
  0
LINE
  5
2D1
330
1F
100
AcDbEntity
  8
0
  6
Continuous
 62
     7
370
    25
100
AcDbLine
 10
0.9545941546
 20
0.9545941546
 30
0.0
 11
1.0960155108
 21
1.0960155108
 31
0.0
  0
LINE
  5
2D2
330
1F
100
AcDbEntity
  8
0
  6
Continuous
 62
     7
370
    25
100
AcDbLine
 10
-0.9545941546
 20
-0.9545941546
 30
0.0
 11
-1.0960155108
 21
-1.0960155108
 31
0.0
  0
LINE
  5
2D3
330
1F
100
AcDbEntity
  8
0
  6
Continuous
 62
     7
370
    25
100
AcDbLine
 10
-1.15
 20
0.4
 30
0.0
 11
-1.15
 21
-0.4
 31
0.0
  0
LINE
  5
2D4
330
1F
100
AcDbEntity
  8
0
  6
Continuous
 62
     7
370
    25
100
AcDbLine
 10
-1.0
 20
0.9069178574
 30
0.0
 11
-1.0
 21
0.4
 31
0.0
  0
LINE
  5
2D5
330
1F
100
AcDbEntity
  8
0
  6
Continuous
 62
     7
370
    25
100
AcDbLine
 10
1.0
 20
-0.4
 30
0.0
 11
1.15
 21
-0.4
 31
0.0
  0
LINE
  5
2D6
330
1F
100
AcDbEntity
  8
0
  6
Continuous
 62
     7
370
    25
100
AcDbLine
 10
1.15
 20
-0.4
 30
0.0
 11
1.15
 21
0.4
 31
0.0
  0
LINE
  5
2D7
330
1F
100
AcDbEntity
  8
0
  6
Continuous
 62
     7
370
    25
100
AcDbLine
 10
-1.0
 20
0.4
 30
0.0
 11
-1.15
 21
0.4
 31
0.0
  0
LINE
  5
2D8
330
1F
100
AcDbEntity
  8
0
  6
Continuous
 62
     7
370
    25
100
AcDbLine
 10
1.0
 20
-0.9069178574
 30
0.0
 11
1.0
 21
-0.4
 31
0.0
  0
LINE
  5
2D9
330
1F
100
AcDbEntity
  8
0
  6
Continuous
 62
     7
370
    25
100
AcDbLine
 10
-1.15
 20
-0.4
 30
0.0
 11
-1.0
 21
-0.4
 31
0.0
  0
LINE
  5
2DA
330
1F
100
AcDbEntity
  8
0
  6
Continuous
 62
     7
370
    25
100
AcDbLine
 10
1.15
 20
0.4
 30
0.0
 11
1.0
 21
0.4
 31
0.0
  0
LINE
  5
2DB
330
1F
100
AcDbEntity
  8
0
  6
Continuous
 62
     7
370
    25
100
AcDbLine
 10
-1.0
 20
-0.4
 30
0.0
 11
-1.0
 21
-0.9069178574
 31
0.0
  0
LINE
  5
2DC
330
1F
100
AcDbEntity
  8
0
  6
Continuous
 62
     7
370
    25
100
AcDbLine
 10
1.0
 20
0.4
 30
0.0
 11
1.0
 21
0.9069178574
 31
0.0
  0
LINE
  5
2DD
330
1F
100
AcDbEntity
  8
0
  6
Continuous
 62
     7
370
    25
100
AcDbLine
 10
4.455
 20
-6.3
 30
0.0
 11
4.355
 21
-6.3
 31
0.0
  0
LINE
  5
2DE
330
1F
100
AcDbEntity
  8
0
  6
Continuous
 62
     7
370
    25
100
AcDbLine
 10
3.545
 20
-6.3
 30
0.0
 11
3.645
 21
-6.3
 31
0.0
  0
LINE
  5
2DF
330
1F
100
AcDbEntity
  8
0
  6
Continuous
 62
     7
370
    25
100
AcDbLine
 10
-3.545
 20
-6.3
 30
0.0
 11
-3.645
 21
-6.3
 31
0.0
  0
LINE
  5
2E0
330
1F
100
AcDbEntity
  8
0
  6
Continuous
 62
     7
370
    25
100
AcDbLine
 10
-4.455
 20
-6.3
 30
0.0
 11
-4.355
 21
-6.3
 31
0.0
  0
LINE
  5
2E1
330
1F
100
AcDbEntity
  8
0
  6
Continuous
 62
     7
370
    25
100
AcDbLine
 10
4.8
 20
-6.3
 30
0.0
 11
4.6
 21
-6.3
 31
0.0
  0
LINE
  5
2E2
330
1F
100
AcDbEntity
  8
0
  6
Continuous
 62
     7
370
    25
100
AcDbLine
 10
3.2
 20
-6.3
 30
0.0
 11
3.4
 21
-6.3
 31
0.0
  0
LINE
  5
2E3
330
1F
100
AcDbEntity
  8
0
  6
Continuous
 62
     7
370
    25
100
AcDbLine
 10
3.2041389247
 20
-6.2187279331
 30
0.0
 11
3.2
 21
-6.3
 31
0.0
  0
LINE
  5
2E4
330
1F
100
AcDbEntity
  8
0
  6
Continuous
 62
     7
370
    25
100
AcDbLine
 10
-2.7986888991
 20
-6.2542174445
 30
0.0
 11
-2.8
 21
-6.3
 31
0.0
  0
LINE
  5
2E5
330
1F
100
AcDbEntity
  8
0
  6
Continuous
 62
     7
370
    25
100
AcDbLine
 10
-3.2
 20
-6.3
 30
0.0
 11
-3.4
 21
-6.3
 31
0.0
  0
LINE
  5
2E6
330
1F
100
AcDbEntity
  8
0
  6
Continuous
 62
     7
370
    25
100
AcDbLine
 10
-4.8
 20
-6.3
 30
0.0
 11
-4.6
 21
-6.3
 31
0.0
  0
LINE
  5
2E7
330
1F
100
AcDbEntity
  8
0
  6
Continuous
 62
     7
370
    25
100
AcDbLine
 10
-3.2
 20
-6.3
 30
0.0
 11
-3.2041389247
 21
-6.2187279331
 31
0.0
  0
LINE
  5
2E8
330
1F
100
AcDbEntity
  8
0
  6
Continuous
 62
     7
370
    25
100
AcDbLine
 10
2.8
 20
-6.3
 30
0.0
 11
2.7986888991
 21
-6.2542174445
 31
0.0
  0
LINE
  5
2E9
330
1F
100
AcDbEntity
  8
0
  6
Continuous
 62
     7
370
    25
100
AcDbLine
 10
5.35
 20
-7.25
 30
0.0
 11
5.35
 21
-4.3176598403
 31
0.0
  0
LINE
  5
2EA
330
1F
100
AcDbEntity
  8
0
  6
Continuous
 62
     7
370
    25
100
AcDbLine
 10
-3.0
 20
-7.6
 30
0.0
 11
3.0
 21
-7.6
 31
0.0
  0
LINE
  5
2EB
330
1F
100
AcDbEntity
  8
0
  6
Continuous
 62
     7
370
    25
100
AcDbLine
 10
-6.0
 20
-3.3288723564
 30
0.0
 11
-6.0
 21
-7.25
 31
0.0
  0
LINE
  5
2EC
330
1F
100
AcDbEntity
  8
0
  6
Continuous
 62
     7
370
    25
100
AcDbLine
 10
-5.7
 20
-7.55
 30
0.0
 11
-3.0
 21
-7.55
 31
0.0
  0
LINE
  5
2ED
330
1F
100
AcDbEntity
  8
0
  6
Continuous
 62
     7
370
    25
100
AcDbLine
 10
-3.0
 20
-7.55
 30
0.0
 11
-3.0
 21
-7.6
 31
0.0
  0
LINE
  5
2EE
330
1F
100
AcDbEntity
  8
0
  6
Continuous
 62
     7
370
    25
100
AcDbLine
 10
3.0
 20
-7.55
 30
0.0
 11
5.05
 21
-7.55
 31
0.0
  0
LINE
  5
2EF
330
1F
100
AcDbEntity
  8
0
  6
Continuous
 62
     7
370
    25
100
AcDbLine
 10
3.0
 20
-7.6
 30
0.0
 11
3.0
 21
-7.55
 31
0.0
  0
LINE
  5
2F0
330
1F
100
AcDbEntity
  8
0
  6
Continuous
 62
     7
370
    25
100
AcDbLine
 10
0.4
 20
-8.8
 30
0.0
 11
-0.4
 21
-8.8
 31
0.0
  0
LINE
  5
2F1
330
1F
100
AcDbEntity
  8
0
  6
Continuous
 62
     7
370
    25
100
AcDbLine
 10
-0.4
 20
-7.6
 30
0.0
 11
-0.4
 21
-9.5
 31
0.0
  0
LINE
  5
2F2
330
1F
100
AcDbEntity
  8
0
  6
Continuous
 62
     7
370
    25
100
AcDbLine
 10
-0.4
 20
-8.5
 30
0.0
 11
0.4
 21
-8.5
 31
0.0
  0
LINE
  5
2F3
330
1F
100
AcDbEntity
  8
0
  6
Continuous
 62
     7
370
    25
100
AcDbLine
 10
0.4
 20
-9.5
 30
0.0
 11
0.4
 21
-7.6
 31
0.0
  0
LINE
  5
2F4
330
1F
100
AcDbEntity
  8
0
  6
Continuous
 62
     7
370
    25
100
AcDbLine
 10
1.6
 20
-8.5
 30
0.0
 11
2.4
 21
-8.5
 31
0.0
  0
LINE
  5
2F5
330
1F
100
AcDbEntity
  8
0
  6
Continuous
 62
     7
370
    25
100
AcDbLine
 10
1.6
 20
-7.6
 30
0.0
 11
1.6
 21
-9.5
 31
0.0
  0
LINE
  5
2F6
330
1F
100
AcDbEntity
  8
0
  6
Continuous
 62
     7
370
    25
100
AcDbLine
 10
2.4
 20
-9.5
 30
0.0
 11
2.4
 21
-7.6
 31
0.0
  0
LINE
  5
2F7
330
1F
100
AcDbEntity
  8
0
  6
Continuous
 62
     7
370
    25
100
AcDbLine
 10
-1.6
 20
-8.8
 30
0.0
 11
-2.4
 21
-8.8
 31
0.0
  0
LINE
  5
2F8
330
1F
100
AcDbEntity
  8
0
  6
Continuous
 62
     7
370
    25
100
AcDbLine
 10
-2.4
 20
-8.5
 30
0.0
 11
-1.6
 21
-8.5
 31
0.0
  0
LINE
  5
2F9
330
1F
100
AcDbEntity
  8
0
  6
Continuous
 62
     7
370
    25
100
AcDbLine
 10
-1.6
 20
-9.5
 30
0.0
 11
-1.6
 21
-7.6
 31
0.0
  0
LINE
  5
2FA
330
1F
100
AcDbEntity
  8
0
  6
Continuous
 62
     7
370
    25
100
AcDbLine
 10
-2.4
 20
-7.6
 30
0.0
 11
-2.4
 21
-9.5
 31
0.0
  0
LINE
  5
2FB
330
1F
100
AcDbEntity
  8
0
  6
Continuous
 62
     7
370
    25
100
AcDbLine
 10
-3.6
 20
-8.8
 30
0.0
 11
-4.4
 21
-8.8
 31
0.0
  0
LINE
  5
2FC
330
1F
100
AcDbEntity
  8
0
  6
Continuous
 62
     7
370
    25
100
AcDbLine
 10
-4.4
 20
-8.5
 30
0.0
 11
-3.6
 21
-8.5
 31
0.0
  0
LINE
  5
2FD
330
1F
100
AcDbEntity
  8
0
  6
Continuous
 62
     7
370
    25
100
AcDbLine
 10
-3.6
 20
-9.5
 30
0.0
 11
-3.6
 21
-7.55
 31
0.0
  0
LINE
  5
2FE
330
1F
100
AcDbEntity
  8
0
  6
Continuous
 62
     7
370
    25
100
AcDbLine
 10
-4.4
 20
-7.55
 30
0.0
 11
-4.4
 21
-9.5
 31
0.0
  0
LINE
  5
2FF
330
1F
100
AcDbEntity
  8
0
  6
Continuous
 62
     7
370
    25
100
AcDbLine
 10
4.4
 20
-8.8
 30
0.0
 11
3.6
 21
-8.8
 31
0.0
  0
LINE
  5
300
330
1F
100
AcDbEntity
  8
0
  6
Continuous
 62
     7
370
    25
100
AcDbLine
 10
3.6
 20
-7.55
 30
0.0
 11
3.6
 21
-9.5
 31
0.0
  0
LINE
  5
301
330
1F
100
AcDbEntity
  8
0
  6
Continuous
 62
     7
370
    25
100
AcDbLine
 10
3.6
 20
-8.5
 30
0.0
 11
4.4
 21
-8.5
 31
0.0
  0
LINE
  5
302
330
1F
100
AcDbEntity
  8
0
  6
Continuous
 62
     7
370
    25
100
AcDbLine
 10
4.4
 20
-9.5
 30
0.0
 11
4.4
 21
-7.55
 31
0.0
  0
LINE
  5
303
330
1F
100
AcDbEntity
  8
0
  6
Continuous
 62
     7
370
    25
100
AcDbLine
 10
2.4
 20
-8.8
 30
0.0
 11
1.6
 21
-8.8
 31
0.0
  0
LINE
  5
304
330
1F
100
AcDbEntity
  8
0
  6
Continuous
 62
     7
370
    25
100
AcDbLine
 10
7.0
 20
2.7
 30
0.0
 11
6.7
 21
3.0
 31
0.0
  0
LINE
  5
305
330
1F
100
AcDbEntity
  8
0
  6
Continuous
 62
     7
370
    25
100
AcDbLine
 10
7.0
 20
2.7
 30
0.0
 11
7.0
 21
2.3
 31
0.0
  0
LINE
  5
306
330
1F
100
AcDbEntity
  8
0
  6
Continuous
 62
     7
370
    25
100
AcDbLine
 10
6.7
 20
2.0
 30
0.0
 11
7.0
 21
2.3
 31
0.0
  0
LINE
  5
307
330
1F
100
AcDbEntity
  8
0
  6
Continuous
 62
     7
370
    25
100
AcDbLine
 10
6.6544102911
 20
2.0
 30
0.0
 11
6.7
 21
2.0
 31
0.0
  0
LINE
  5
308
330
1F
100
AcDbEntity
  8
0
  6
Continuous
 62
     7
370
    25
100
AcDbLine
 10
6.1665614563
 20
3.0
 30
0.0
 11
6.7
 21
3.0
 31
0.0
  0
LINE
  5
309
330
1F
100
AcDbEntity
  8
0
  6
Continuous
 62
     7
370
    25
100
AcDbLine
 10
-7.0
 20
2.7
 30
0.0
 11
-6.7
 21
3.0
 31
0.0
  0
LINE
  5
30A
330
1F
100
AcDbEntity
  8
0
  6
Continuous
 62
     7
370
    25
100
AcDbLine
 10
-6.7
 20
2.0
 30
0.0
 11
-7.0
 21
2.3
 31
0.0
  0
LINE
  5
30B
330
1F
100
AcDbEntity
  8
0
  6
Continuous
 62
     7
370
    25
100
AcDbLine
 10
-7.0
 20
2.7
 30
0.0
 11
-7.0
 21
2.3
 31
0.0
  0
LINE
  5
30C
330
1F
100
AcDbEntity
  8
0
  6
Continuous
 62
     7
370
    25
100
AcDbLine
 10
-6.1665614563
 20
3.0
 30
0.0
 11
-6.7
 21
3.0
 31
0.0
  0
LINE
  5
30D
330
1F
100
AcDbEntity
  8
0
  6
Continuous
 62
     7
370
    25
100
AcDbLine
 10
-6.6544102911
 20
2.0
 30
0.0
 11
-6.7
 21
2.0
 31
0.0
  0
LINE
  5
30E
330
1F
100
AcDbEntity
  8
0
  6
Continuous
 62
     7
370
    25
100
AcDbLine
 10
0.4
 20
-9.5
 30
0.0
 11
-0.4
 21
-9.5
 31
0.0
  0
LINE
  5
30F
330
1F
100
AcDbEntity
  8
0
  6
Continuous
 62
     7
370
    25
100
AcDbLine
 10
-1.6
 20
-9.5
 30
0.0
 11
-2.4
 21
-9.5
 31
0.0
  0
LINE
  5
310
330
1F
100
AcDbEntity
  8
0
  6
Continuous
 62
     7
370
    25
100
AcDbLine
 10
4.4
 20
-9.5
 30
0.0
 11
3.6
 21
-9.5
 31
0.0
  0
LINE
  5
311
330
1F
100
AcDbEntity
  8
0
  6
Continuous
 62
     7
370
    25
100
AcDbLine
 10
-3.6
 20
-9.5
 30
0.0
 11
-4.4
 21
-9.5
 31
0.0
  0
LINE
  5
312
330
1F
100
AcDbEntity
  8
0
  6
Continuous
 62
     7
370
    25
100
AcDbLine
 10
2.4
 20
-9.5
 30
0.0
 11
1.6
 21
-9.5
 31
0.0
  0
LINE
  5
313
330
1F
100
AcDbEntity
  8
0
  6
Continuous
 62
     7
370
    25
100
AcDbLine
 10
-2.8
 20
-6.3
 30
0.0
 11
-2.7797251437
 21
-6.3
 31
0.0
  0
LINE
  5
314
330
1F
100
AcDbEntity
  8
0
  6
Continuous
 62
     7
370
    25
100
AcDbLine
 10
2.8
 20
-6.3
 30
0.0
 11
2.7797251437
 21
-6.3
 31
0.0
  0
ARC
  5
315
330
1F
100
AcDbEntity
  8
0
  6
Continuous
 62
     7
370
    25
100
AcDbCircle
 10
-4.6615724325
 20
5.087213624
 30
0.0
 40
0.0999999999999964
100
AcDbArc
 50
87.5
 51
177.5
  0
ARC
  5
316
330
1F
100
AcDbEntity
  8
0
  6
Continuous
 62
     7
370
    25
100
AcDbCircle
 10
-4.428105619
 20
5.2772107798
 30
0.0
 40
0.1000000000000064
100
AcDbArc
 50
267.5
 51
352.5
  0
ARC
  5
317
330
1F
100
AcDbEntity
  8
0
  6
Continuous
 62
     7
370
    25
100
AcDbCircle
 10
-4.2004538602
 20
5.474138048
 30
0.0
 40
0.1000000000000005
100
AcDbArc
 50
82.5
 51
172.5
  0
ARC
  5
318
330
1F
100
AcDbEntity
  8
0
  6
Continuous
 62
     7
370
    25
100
AcDbCircle
 10
-3.9513161151
 20
5.6430642337
 30
0.0
 40
0.0999999999999957
100
AcDbArc
 50
262.5
 51
347.5
  0
ARC
  5
319
330
1F
100
AcDbEntity
  8
0
  6
Continuous
 62
     7
370
    25
100
AcDbCircle
 10
-3.7073672976
 20
5.8194009761
 30
0.0
 40
0.0999999999999902
100
AcDbArc
 50
77.5
 51
167.5
  0
ARC
  5
31A
330
1F
100
AcDbEntity
  8
0
  6
Continuous
 62
     7
370
    25
100
AcDbCircle
 10
-3.4444547096
 20
5.9659705615
 30
0.0
 40
0.0999999999999947
100
AcDbArc
 50
257.5
 51
342.5
  0
ARC
  5
31B
330
1F
100
AcDbEntity
  8
0
  6
Continuous
 62
     7
370
    25
100
AcDbCircle
 10
-3.1860654313
 20
6.1203747489
 30
0.0
 40
0.1000000000000129
100
AcDbArc
 50
72.5
 51
162.5
  0
ARC
  5
31C
330
1F
100
AcDbEntity
  8
0
  6
Continuous
 62
     7
370
    25
100
AcDbCircle
 10
-2.9113789241
 20
6.2434722509
 30
0.0
 40
0.0999999999999848
100
AcDbArc
 50
252.5
 51
337.5
  0
ARC
  5
31D
330
1F
100
AcDbEntity
  8
0
  6
Continuous
 62
     7
370
    25
100
AcDbCircle
 10
-2.6405156833
 20
6.3747687743
 30
0.0
 40
0.0999999999999997
100
AcDbArc
 50
67.5
 51
157.5
  0
ARC
  5
31E
330
1F
100
AcDbEntity
  8
0
  6
Continuous
 62
     7
370
    25
100
AcDbCircle
 10
-2.3561457869
 20
6.4734573466
 30
0.0
 40
0.1000000000000093
100
AcDbArc
 50
247.5
 51
332.5
  0
ARC
  5
31F
330
1F
100
AcDbEntity
  8
0
  6
Continuous
 62
     7
370
    25
100
AcDbCircle
 10
-2.0748700166
 20
6.5806469602
 30
0.0
 40
0.0999999999999988
100
AcDbArc
 50
62.5
 51
152.5
  0
ARC
  5
320
330
1F
100
AcDbEntity
  8
0
  6
Continuous
 62
     7
370
    25
100
AcDbCircle
 10
-1.7829809577
 20
6.6541755231
 30
0.0
 40
0.1000000000000012
100
AcDbArc
 50
242.5
 51
327.5
  0
ARC
  5
321
330
1F
100
AcDbEntity
  8
0
  6
Continuous
 62
     7
370
    25
100
AcDbCircle
 10
-1.4934333362
 20
6.7364424491
 30
0.0
 40
0.1000000000000013
100
AcDbArc
 50
57.5
 51
147.5
  0
ARC
  5
322
330
1F
100
AcDbEntity
  8
0
  6
Continuous
 62
     7
370
    25
100
AcDbCircle
 10
-1.1962465668
 20
6.7842514059
 30
0.0
 40
0.0999999999999971
100
AcDbArc
 50
237.5
 51
322.5
  0
ARC
  5
323
330
1F
100
AcDbEntity
  8
0
  6
Continuous
 62
     7
370
    25
100
AcDbCircle
 10
-0.9006307263
 20
6.8409695435
 30
0.0
 40
0.1000000000000151
100
AcDbArc
 50
52.5
 51
142.5
  0
ARC
  5
324
330
1F
100
AcDbEntity
  8
0
  6
Continuous
 62
     7
370
    25
100
AcDbCircle
 10
-0.6004080172
 20
6.8626950391
 30
0.0
 40
0.099999999999997
100
AcDbArc
 50
232.5
 51
317.5
  0
ARC
  5
325
330
1F
100
AcDbEntity
  8
0
  6
Continuous
 62
     7
370
    25
100
AcDbCircle
 10
-0.3009737728
 20
6.8934327289
 30
0.0
 40
0.0999999999999919
100
AcDbArc
 50
47.5
 51
137.5
  0
ARC
  5
326
330
1F
100
AcDbEntity
  8
0
  6
Continuous
 62
     7
370
    25
100
AcDbCircle
 10
0.0
 20
6.8889094193
 30
0.0
 40
0.0999999999999988
100
AcDbArc
 50
227.5
 51
312.5
  0
ARC
  5
327
330
1F
100
AcDbEntity
  8
0
  6
Continuous
 62
     7
370
    25
100
AcDbCircle
 10
0.3009737728
 20
6.8934327289
 30
0.0
 40
0.1000000000000042
100
AcDbArc
 50
42.5
 51
132.5
  0
ARC
  5
328
330
1F
100
AcDbEntity
  8
0
  6
Continuous
 62
     7
370
    25
100
AcDbCircle
 10
0.6004080172
 20
6.8626950391
 30
0.0
 40
0.10000000000003
100
AcDbArc
 50
222.5
 51
307.5
  0
ARC
  5
329
330
1F
100
AcDbEntity
  8
0
  6
Continuous
 62
     7
370
    25
100
AcDbCircle
 10
0.9006307263
 20
6.8409695435
 30
0.0
 40
0.1000000000000061
100
AcDbArc
 50
37.5
 51
127.5
  0
ARC
  5
32A
330
1F
100
AcDbEntity
  8
0
  6
Continuous
 62
     7
370
    25
100
AcDbCircle
 10
1.1962465668
 20
6.7842514059
 30
0.0
 40
0.1000000000000094
100
AcDbArc
 50
217.4999999999
 51
302.5
  0
ARC
  5
32B
330
1F
100
AcDbEntity
  8
0
  6
Continuous
 62
     7
370
    25
100
AcDbCircle
 10
1.4934333362
 20
6.7364424491
 30
0.0
 40
0.0999999999999978
100
AcDbArc
 50
32.5
 51
122.5
  0
ARC
  5
32C
330
1F
100
AcDbEntity
  8
0
  6
Continuous
 62
     7
370
    25
100
AcDbCircle
 10
1.7829809577
 20
6.6541755231
 30
0.0
 40
0.0999999999999909
100
AcDbArc
 50
212.5
 51
297.5
  0
ARC
  5
32D
330
1F
100
AcDbEntity
  8
0
  6
Continuous
 62
     7
370
    25
100
AcDbCircle
 10
2.0748700166
 20
6.5806469602
 30
0.0
 40
0.1000000000000084
100
AcDbArc
 50
27.5
 51
117.5
  0
ARC
  5
32E
330
1F
100
AcDbEntity
  8
0
  6
Continuous
 62
     7
370
    25
100
AcDbCircle
 10
2.3561457869
 20
6.4734573466
 30
0.0
 40
0.0999999999999896
100
AcDbArc
 50
207.5
 51
292.5
  0
ARC
  5
32F
330
1F
100
AcDbEntity
  8
0
  6
Continuous
 62
     7
370
    25
100
AcDbCircle
 10
2.6405156833
 20
6.3747687743
 30
0.0
 40
0.0999999999999929
100
AcDbArc
 50
22.5
 51
112.5
  0
ARC
  5
330
330
1F
100
AcDbEntity
  8
0
  6
Continuous
 62
     7
370
    25
100
AcDbCircle
 10
2.9113789241
 20
6.2434722509
 30
0.0
 40
0.1000000000000392
100
AcDbArc
 50
202.5
 51
287.5
  0
ARC
  5
331
330
1F
100
AcDbEntity
  8
0
  6
Continuous
 62
     7
370
    25
100
AcDbCircle
 10
3.1860654313
 20
6.1203747489
 30
0.0
 40
0.0999999999999972
100
AcDbArc
 50
17.5
 51
107.5
  0
ARC
  5
332
330
1F
100
AcDbEntity
  8
0
  6
Continuous
 62
     7
370
    25
100
AcDbCircle
 10
3.4444547096
 20
5.9659705615
 30
0.0
 40
0.099999999999992
100
AcDbArc
 50
197.5
 51
282.5
  0
ARC
  5
333
330
1F
100
AcDbEntity
  8
0
  6
Continuous
 62
     7
370
    25
100
AcDbCircle
 10
3.7073672976
 20
5.8194009761
 30
0.0
 40
0.100000000000008
100
AcDbArc
 50
12.5
 51
102.5
  0
ARC
  5
334
330
1F
100
AcDbEntity
  8
0
  6
Continuous
 62
     7
370
    25
100
AcDbCircle
 10
3.9513161151
 20
5.6430642337
 30
0.0
 40
0.1000000000000055
100
AcDbArc
 50
192.5
 51
277.5
  0
ARC
  5
335
330
1F
100
AcDbEntity
  8
0
  6
Continuous
 62
     7
370
    25
100
AcDbCircle
 10
4.2004538602
 20
5.474138048
 30
0.0
 40
0.1
100
AcDbArc
 50
7.5
 51
97.5
  0
ARC
  5
336
330
1F
100
AcDbEntity
  8
0
  6
Continuous
 62
     7
370
    25
100
AcDbCircle
 10
4.428105619
 20
5.2772107798
 30
0.0
 40
0.1000000000000084
100
AcDbArc
 50
187.5
 51
272.5
  0
ARC
  5
337
330
1F
100
AcDbEntity
  8
0
  6
Continuous
 62
     7
370
    25
100
AcDbCircle
 10
4.6615724325
 20
5.087213624
 30
0.0
 40
0.1000000000000044
100
AcDbArc
 50
2.5
 51
92.5
  0
ARC
  5
338
330
1F
100
AcDbEntity
  8
0
  6
Continuous
 62
     7
370
    25
100
AcDbCircle
 10
4.8711945654
 20
4.8711945654
 30
0.0
 40
0.0999999999999691
100
AcDbArc
 50
182.5
 51
267.5
  0
ARC
  5
339
330
1F
100
AcDbEntity
  8
0
  6
Continuous
 62
     7
370
    25
100
AcDbCircle
 10
5.087213624
 20
4.6615724325
 30
0.0
 40
0.1000000000000054
100
AcDbArc
 50
357.5
 51
87.5
  0
ARC
  5
33A
330
1F
100
AcDbEntity
  8
0
  6
Continuous
 62
     7
370
    25
100
AcDbCircle
 10
5.2772107798
 20
4.428105619
 30
0.0
 40
0.1000000000000033
100
AcDbArc
 50
177.5
 51
262.5
  0
ARC
  5
33B
330
1F
100
AcDbEntity
  8
0
  6
Continuous
 62
     7
370
    25
100
AcDbCircle
 10
5.474138048
 20
4.2004538602
 30
0.0
 40
0.0999999999999997
100
AcDbArc
 50
352.5
 51
82.5
  0
ARC
  5
33C
330
1F
100
AcDbEntity
  8
0
  6
Continuous
 62
     7
370
    25
100
AcDbCircle
 10
5.6430642337
 20
3.9513161151
 30
0.0
 40
0.1000000000000018
100
AcDbArc
 50
172.5
 51
257.5
  0
ARC
  5
33D
330
1F
100
AcDbEntity
  8
0
  6
Continuous
 62
     7
370
    25
100
AcDbCircle
 10
5.8194009761
 20
3.7073672976
 30
0.0
 40
0.0999999999999889
100
AcDbArc
 50
347.5
 51
77.5
  0
ARC
  5
33E
330
1F
100
AcDbEntity
  8
0
  6
Continuous
 62
     7
370
    25
100
AcDbCircle
 10
5.9659705615
 20
3.4444547096
 30
0.0
 40
0.1000000000000097
100
AcDbArc
 50
167.5
 51
252.5
  0
ARC
  5
33F
330
1F
100
AcDbEntity
  8
0
  6
Continuous
 62
     7
370
    25
100
AcDbCircle
 10
6.1203747489
 20
3.1860654313
 30
0.0
 40
0.1000000000000008
100
AcDbArc
 50
342.5
 51
72.5
  0
ARC
  5
340
330
1F
100
AcDbEntity
  8
0
  6
Continuous
 62
     7
370
    25
100
AcDbCircle
 10
6.2434722509
 20
2.9113789241
 30
0.0
 40
0.0999999999999925
100
AcDbArc
 50
162.5
 51
247.5
  0
ARC
  5
341
330
1F
100
AcDbEntity
  8
0
  6
Continuous
 62
     7
370
    25
100
AcDbCircle
 10
6.3747687743
 20
2.6405156833
 30
0.0
 40
0.099999999999989
100
AcDbArc
 50
337.5
 51
67.5
  0
ARC
  5
342
330
1F
100
AcDbEntity
  8
0
  6
Continuous
 62
     7
370
    25
100
AcDbCircle
 10
6.4734573466
 20
2.3561457869
 30
0.0
 40
0.0999999999999865
100
AcDbArc
 50
157.5
 51
242.5
  0
ARC
  5
343
330
1F
100
AcDbEntity
  8
0
  6
Continuous
 62
     7
370
    25
100
AcDbCircle
 10
6.5806469602
 20
2.0748700166
 30
0.0
 40
0.0999999999999979
100
AcDbArc
 50
332.5
 51
62.5
  0
ARC
  5
344
330
1F
100
AcDbEntity
  8
0
  6
Continuous
 62
     7
370
    25
100
AcDbCircle
 10
6.6541755231
 20
1.7829809577
 30
0.0
 40
0.0999999999999957
100
AcDbArc
 50
152.5
 51
237.5000000001
  0
ARC
  5
345
330
1F
100
AcDbEntity
  8
0
  6
Continuous
 62
     7
370
    25
100
AcDbCircle
 10
6.7364424491
 20
1.4934333362
 30
0.0
 40
0.1000000000000037
100
AcDbArc
 50
327.5
 51
57.5
  0
ARC
  5
346
330
1F
100
AcDbEntity
  8
0
  6
Continuous
 62
     7
370
    25
100
AcDbCircle
 10
6.7842514059
 20
1.1962465668
 30
0.0
 40
0.1000000000006503
100
AcDbArc
 50
147.5
 51
232.5
  0
ARC
  5
347
330
1F
100
AcDbEntity
  8
0
  6
Continuous
 62
     7
370
    25
100
AcDbCircle
 10
6.8409695435
 20
0.9006307263
 30
0.0
 40
0.0999999999999967
100
AcDbArc
 50
322.5
 51
52.5
  0
ARC
  5
348
330
1F
100
AcDbEntity
  8
0
  6
Continuous
 62
     7
370
    25
100
AcDbCircle
 10
6.8626950392
 20
0.6004080172
 30
0.0
 40
0.1000000000162107
100
AcDbArc
 50
142.5
 51
227.4999999997
  0
ARC
  5
349
330
1F
100
AcDbEntity
  8
0
  6
Continuous
 62
     7
370
    25
100
AcDbCircle
 10
6.8934327289
 20
0.3009737728
 30
0.0
 40
0.0999999999999927
100
AcDbArc
 50
317.5
 51
47.5
  0
ARC
  5
34A
330
1F
100
AcDbEntity
  8
0
  6
Continuous
 62
     7
370
    25
100
AcDbCircle
 10
6.8889094193
 20
0.0
 30
0.0
 40
0.0999999999999863
100
AcDbArc
 50
137.5
 51
222.5
  0
ARC
  5
34B
330
1F
100
AcDbEntity
  8
0
  6
Continuous
 62
     7
370
    25
100
AcDbCircle
 10
6.8934327289
 20
-0.3009737728
 30
0.0
 40
0.1000000000000068
100
AcDbArc
 50
312.5
 51
42.5
  0
ARC
  5
34C
330
1F
100
AcDbEntity
  8
0
  6
Continuous
 62
     7
370
    25
100
AcDbCircle
 10
6.8626950391
 20
-0.6004080172
 30
0.0
 40
0.100000000000006
100
AcDbArc
 50
132.5
 51
217.5
  0
ARC
  5
34D
330
1F
100
AcDbEntity
  8
0
  6
Continuous
 62
     7
370
    25
100
AcDbCircle
 10
6.8409695435
 20
-0.9006307263
 30
0.0
 40
0.1000000000000005
100
AcDbArc
 50
307.5
 51
37.5
  0
ARC
  5
34E
330
1F
100
AcDbEntity
  8
0
  6
Continuous
 62
     7
370
    25
100
AcDbCircle
 10
6.7842514059
 20
-1.1962465668
 30
0.0
 40
0.0999999999999809
100
AcDbArc
 50
127.5
 51
212.5
  0
ARC
  5
34F
330
1F
100
AcDbEntity
  8
0
  6
Continuous
 62
     7
370
    25
100
AcDbCircle
 10
6.7364424491
 20
-1.4934333362
 30
0.0
 40
0.099999999999997
100
AcDbArc
 50
302.5
 51
32.5
  0
ARC
  5
350
330
1F
100
AcDbEntity
  8
0
  6
Continuous
 62
     7
370
    25
100
AcDbCircle
 10
6.6541755231
 20
-1.7829809577
 30
0.0
 40
0.0999999999999867
100
AcDbArc
 50
122.5
 51
207.5
  0
ARC
  5
351
330
1F
100
AcDbEntity
  8
0
  6
Continuous
 62
     7
370
    25
100
AcDbCircle
 10
6.5806469602
 20
-2.0748700166
 30
0.0
 40
0.1000000000000027
100
AcDbArc
 50
297.5
 51
27.5
  0
ARC
  5
352
330
1F
100
AcDbEntity
  8
0
  6
Continuous
 62
     7
370
    25
100
AcDbCircle
 10
6.4734573466
 20
-2.3561457869
 30
0.0
 40
0.0999999999999978
100
AcDbArc
 50
117.5
 51
202.5
  0
ARC
  5
353
330
1F
100
AcDbEntity
  8
0
  6
Continuous
 62
     7
370
    25
100
AcDbCircle
 10
6.3747687743
 20
-2.6405156833
 30
0.0
 40
0.1000000000000027
100
AcDbArc
 50
292.5
 51
22.5
  0
ARC
  5
354
330
1F
100
AcDbEntity
  8
0
  6
Continuous
 62
     7
370
    25
100
AcDbCircle
 10
6.2434722509
 20
-2.9113789241
 30
0.0
 40
0.0999999999999873
100
AcDbArc
 50
112.5
 51
197.5
  0
ARC
  5
355
330
1F
100
AcDbEntity
  8
0
  6
Continuous
 62
     7
370
    25
100
AcDbCircle
 10
6.1203747489
 20
-3.1860654313
 30
0.0
 40
0.100000000000008
100
AcDbArc
 50
287.5
 51
17.5
  0
ARC
  5
356
330
1F
100
AcDbEntity
  8
0
  6
Continuous
 62
     7
370
    25
100
AcDbCircle
 10
5.9659705615
 20
-3.4444547096
 30
0.0
 40
0.0999999999999889
100
AcDbArc
 50
107.5
 51
192.5
  0
ARC
  5
357
330
1F
100
AcDbEntity
  8
0
  6
Continuous
 62
     7
370
    25
100
AcDbCircle
 10
5.8194009761
 20
-3.7073672976
 30
0.0
 40
0.1000000000000079
100
AcDbArc
 50
282.5
 51
12.5
  0
ARC
  5
358
330
1F
100
AcDbEntity
  8
0
  6
Continuous
 62
     7
370
    25
100
AcDbCircle
 10
5.6430642337
 20
-3.9513161151
 30
0.0
 40
0.0999999999999957
100
AcDbArc
 50
102.5
 51
187.5
  0
ARC
  5
359
330
1F
100
AcDbEntity
  8
0
  6
Continuous
 62
     7
370
    25
100
AcDbCircle
 10
5.474138048
 20
-4.2004538602
 30
0.0
 40
0.1000000000000067
100
AcDbArc
 50
277.5
 51
7.5
  0
ARC
  5
35A
330
1F
100
AcDbEntity
  8
0
  6
Continuous
 62
     7
370
    25
100
AcDbCircle
 10
5.2772107798
 20
-4.428105619
 30
0.0
 40
0.1000000000000044
100
AcDbArc
 50
97.5
 51
182.5
  0
ARC
  5
35B
330
1F
100
AcDbEntity
  8
0
  6
Continuous
 62
     7
370
    25
100
AcDbCircle
 10
5.087213624
 20
-4.6615724325
 30
0.0
 40
0.1000000000000126
100
AcDbArc
 50
272.5
 51
2.5
  0
ARC
  5
35C
330
1F
100
AcDbEntity
  8
0
  6
Continuous
 62
     7
370
    25
100
AcDbCircle
 10
4.8711945654
 20
-4.8711945654
 30
0.0
 40
0.0999999999999813
100
AcDbArc
 50
92.5
 51
177.5
  0
ARC
  5
35D
330
1F
100
AcDbEntity
  8
0
  6
Continuous
 62
     7
370
    25
100
AcDbCircle
 10
4.6615724325
 20
-5.087213624
 30
0.0
 40
0.1000000000000066
100
AcDbArc
 50
267.5
 51
357.5
  0
ARC
  5
35E
330
1F
100
AcDbEntity
  8
0
  6
Continuous
 62
     7
370
    25
100
AcDbCircle
 10
4.428105619
 20
-5.2772107798
 30
0.0
 40
0.1000000000000032
100
AcDbArc
 50
87.5
 51
172.5
  0
ARC
  5
35F
330
1F
100
AcDbEntity
  8
0
  6
Continuous
 62
     7
370
    25
100
AcDbCircle
 10
4.2004538602
 20
-5.474138048
 30
0.0
 40
0.1000000000000021
100
AcDbArc
 50
262.5
 51
352.5
  0
ARC
  5
360
330
1F
100
AcDbEntity
  8
0
  6
Continuous
 62
     7
370
    25
100
AcDbCircle
 10
3.9513161151
 20
-5.6430642337
 30
0.0
 40
0.1000000000000057
100
AcDbArc
 50
82.5
 51
167.5
  0
ARC
  5
361
330
1F
100
AcDbEntity
  8
0
  6
Continuous
 62
     7
370
    25
100
AcDbCircle
 10
3.7073672976
 20
-5.8194009761
 30
0.0
 40
0.1000000000000126
100
AcDbArc
 50
257.5
 51
347.5
  0
ARC
  5
362
330
1F
100
AcDbEntity
  8
0
  6
Continuous
 62
     7
370
    25
100
AcDbCircle
 10
3.4444547096
 20
-5.9659705615
 30
0.0
 40
0.0999999999999896
100
AcDbArc
 50
77.5
 51
162.5
  0
ARC
  5
363
330
1F
100
AcDbEntity
  8
0
  6
Continuous
 62
     7
370
    25
100
AcDbCircle
 10
3.1860654313
 20
-6.1203747489
 30
0.0
 40
0.0999999999999924
100
AcDbArc
 50
252.5
 51
342.5
  0
ARC
  5
364
330
1F
100
AcDbEntity
  8
0
  6
Continuous
 62
     7
370
    25
100
AcDbCircle
 10
2.9113789241
 20
-6.2434722509
 30
0.0
 40
0.0999999999999938
100
AcDbArc
 50
72.5
 51
157.5
  0
ARC
  5
365
330
1F
100
AcDbEntity
  8
0
  6
Continuous
 62
     7
370
    25
100
AcDbCircle
 10
2.6405156833
 20
-6.3747687743
 30
0.0
 40
0.1000000000000016
100
AcDbArc
 50
247.5
 51
337.5
  0
ARC
  5
366
330
1F
100
AcDbEntity
  8
0
  6
Continuous
 62
     7
370
    25
100
AcDbCircle
 10
2.3561457869
 20
-6.4734573466
 30
0.0
 40
0.0999999999999894
100
AcDbArc
 50
67.5
 51
152.5
  0
ARC
  5
367
330
1F
100
AcDbEntity
  8
0
  6
Continuous
 62
     7
370
    25
100
AcDbCircle
 10
2.0748700166
 20
-6.5806469602
 30
0.0
 40
0.0999999999999999
100
AcDbArc
 50
242.5
 51
332.5
  0
ARC
  5
368
330
1F
100
AcDbEntity
  8
0
  6
Continuous
 62
     7
370
    25
100
AcDbCircle
 10
1.7829809577
 20
-6.6541755231
 30
0.0
 40
0.1000000000000005
100
AcDbArc
 50
62.5
 51
147.5
  0
ARC
  5
369
330
1F
100
AcDbEntity
  8
0
  6
Continuous
 62
     7
370
    25
100
AcDbCircle
 10
1.4934333362
 20
-6.7364424491
 30
0.0
 40
0.1000000000000033
100
AcDbArc
 50
237.5
 51
327.5
  0
ARC
  5
36A
330
1F
100
AcDbEntity
  8
0
  6
Continuous
 62
     7
370
    25
100
AcDbCircle
 10
1.1962465668
 20
-6.7842514059
 30
0.0
 40
0.1000000000000087
100
AcDbArc
 50
57.5
 51
142.5
  0
ARC
  5
36B
330
1F
100
AcDbEntity
  8
0
  6
Continuous
 62
     7
370
    25
100
AcDbCircle
 10
0.9006307263
 20
-6.8409695435
 30
0.0
 40
0.0999999999999988
100
AcDbArc
 50
232.5
 51
322.5
  0
ARC
  5
36C
330
1F
100
AcDbEntity
  8
0
  6
Continuous
 62
     7
370
    25
100
AcDbCircle
 10
0.6004080172
 20
-6.8626950391
 30
0.0
 40
0.0999999999999926
100
AcDbArc
 50
52.5
 51
137.5
  0
ARC
  5
36D
330
1F
100
AcDbEntity
  8
0
  6
Continuous
 62
     7
370
    25
100
AcDbCircle
 10
0.3009737728
 20
-6.8934327289
 30
0.0
 40
0.0999999999999942
100
AcDbArc
 50
227.5
 51
317.5
  0
ARC
  5
36E
330
1F
100
AcDbEntity
  8
0
  6
Continuous
 62
     7
370
    25
100
AcDbCircle
 10
0.0
 20
-6.8889094193
 30
0.0
 40
0.099999999999995
100
AcDbArc
 50
47.5
 51
132.5
  0
ARC
  5
36F
330
1F
100
AcDbEntity
  8
0
  6
Continuous
 62
     7
370
    25
100
AcDbCircle
 10
-0.3009737728
 20
-6.8934327289
 30
0.0
 40
0.0999999999999946
100
AcDbArc
 50
222.5
 51
312.5
  0
ARC
  5
370
330
1F
100
AcDbEntity
  8
0
  6
Continuous
 62
     7
370
    25
100
AcDbCircle
 10
-0.6004080172
 20
-6.8626950391
 30
0.0
 40
0.099999999999999
100
AcDbArc
 50
42.5
 51
127.5
  0
ARC
  5
371
330
1F
100
AcDbEntity
  8
0
  6
Continuous
 62
     7
370
    25
100
AcDbCircle
 10
-0.9006307263
 20
-6.8409695435
 30
0.0
 40
0.1000000000008934
100
AcDbArc
 50
217.5
 51
307.5
  0
ARC
  5
372
330
1F
100
AcDbEntity
  8
0
  6
Continuous
 62
     7
370
    25
100
AcDbCircle
 10
-1.4934333362
 20
-6.7364424491
 30
0.0
 40
0.1000000000000086
100
AcDbArc
 50
212.5
 51
302.5
  0
ARC
  5
373
330
1F
100
AcDbEntity
  8
0
  6
Continuous
 62
     7
370
    25
100
AcDbCircle
 10
-2.0748700166
 20
-6.5806469602
 30
0.0
 40
0.100000000000051
100
AcDbArc
 50
207.5
 51
297.5
  0
ARC
  5
374
330
1F
100
AcDbEntity
  8
0
  6
Continuous
 62
     7
370
    25
100
AcDbCircle
 10
-2.6405156833
 20
-6.3747687743
 30
0.0
 40
0.1000000000000144
100
AcDbArc
 50
202.5
 51
292.5
  0
ARC
  5
375
330
1F
100
AcDbEntity
  8
0
  6
Continuous
 62
     7
370
    25
100
AcDbCircle
 10
-2.9113789241
 20
-6.2434722509
 30
0.0
 40
0.0999999999999984
100
AcDbArc
 50
22.5
 51
107.5
  0
ARC
  5
376
330
1F
100
AcDbEntity
  8
0
  6
Continuous
 62
     7
370
    25
100
AcDbCircle
 10
-3.1860654313
 20
-6.1203747489
 30
0.0
 40
0.1000000000001337
100
AcDbArc
 50
197.5
 51
287.5
  0
ARC
  5
377
330
1F
100
AcDbEntity
  8
0
  6
Continuous
 62
     7
370
    25
100
AcDbCircle
 10
-3.4444547096
 20
-5.9659705615
 30
0.0
 40
0.0999999999999814
100
AcDbArc
 50
17.5
 51
102.5
  0
ARC
  5
378
330
1F
100
AcDbEntity
  8
0
  6
Continuous
 62
     7
370
    25
100
AcDbCircle
 10
-3.7073672976
 20
-5.8194009761
 30
0.0
 40
0.0999999999999961
100
AcDbArc
 50
192.5
 51
282.5
  0
ARC
  5
379
330
1F
100
AcDbEntity
  8
0
  6
Continuous
 62
     7
370
    25
100
AcDbCircle
 10
-3.9513161151
 20
-5.6430642337
 30
0.0
 40
0.0999999999999948
100
AcDbArc
 50
12.5
 51
97.5
  0
ARC
  5
37A
330
1F
100
AcDbEntity
  8
0
  6
Continuous
 62
     7
370
    25
100
AcDbCircle
 10
-4.2004538602
 20
-5.474138048
 30
0.0
 40
0.1000000000000261
100
AcDbArc
 50
187.5
 51
277.5
  0
ARC
  5
37B
330
1F
100
AcDbEntity
  8
0
  6
Continuous
 62
     7
370
    25
100
AcDbCircle
 10
-4.428105619
 20
-5.2772107798
 30
0.0
 40
0.1000000000000069
100
AcDbArc
 50
7.5
 51
92.5
  0
ARC
  5
37C
330
1F
100
AcDbEntity
  8
0
  6
Continuous
 62
     7
370
    25
100
AcDbCircle
 10
-4.6615724325
 20
-5.087213624
 30
0.0
 40
0.0999999999999633
100
AcDbArc
 50
182.5
 51
272.5
  0
ARC
  5
37D
330
1F
100
AcDbEntity
  8
0
  6
Continuous
 62
     7
370
    25
100
AcDbCircle
 10
-4.8711945654
 20
-4.8711945654
 30
0.0
 40
0.1000000000000036
100
AcDbArc
 50
2.5
 51
87.5
  0
ARC
  5
37E
330
1F
100
AcDbEntity
  8
0
  6
Continuous
 62
     7
370
    25
100
AcDbCircle
 10
-5.087213624
 20
-4.6615724325
 30
0.0
 40
0.0999999999999644
100
AcDbArc
 50
177.5
 51
267.5
  0
ARC
  5
37F
330
1F
100
AcDbEntity
  8
0
  6
Continuous
 62
     7
370
    25
100
AcDbCircle
 10
-5.2772107798
 20
-4.428105619
 30
0.0
 40
0.0999999999999946
100
AcDbArc
 50
357.5
 51
82.5
  0
ARC
  5
380
330
1F
100
AcDbEntity
  8
0
  6
Continuous
 62
     7
370
    25
100
AcDbCircle
 10
-5.474138048
 20
-4.2004538602
 30
0.0
 40
0.1000000000000134
100
AcDbArc
 50
172.5
 51
262.5
  0
ARC
  5
381
330
1F
100
AcDbEntity
  8
0
  6
Continuous
 62
     7
370
    25
100
AcDbCircle
 10
-5.6430642337
 20
-3.9513161151
 30
0.0
 40
0.1000000000000049
100
AcDbArc
 50
352.5
 51
77.5
  0
ARC
  5
382
330
1F
100
AcDbEntity
  8
0
  6
Continuous
 62
     7
370
    25
100
AcDbCircle
 10
-5.8194009761
 20
-3.7073672976
 30
0.0
 40
0.100000000000018
100
AcDbArc
 50
167.5
 51
257.5
  0
ARC
  5
383
330
1F
100
AcDbEntity
  8
0
  6
Continuous
 62
     7
370
    25
100
AcDbCircle
 10
-5.9659705615
 20
-3.4444547096
 30
0.0
 40
0.0999999999999872
100
AcDbArc
 50
347.5
 51
72.5
  0
ARC
  5
384
330
1F
100
AcDbEntity
  8
0
  6
Continuous
 62
     7
370
    25
100
AcDbCircle
 10
-6.1203747489
 20
-3.1860654313
 30
0.0
 40
0.1000000000000067
100
AcDbArc
 50
162.5
 51
252.5
  0
ARC
  5
385
330
1F
100
AcDbEntity
  8
0
  6
Continuous
 62
     7
370
    25
100
AcDbCircle
 10
-6.2434722509
 20
-2.9113789241
 30
0.0
 40
0.0999999999999948
100
AcDbArc
 50
342.5
 51
67.5
  0
ARC
  5
386
330
1F
100
AcDbEntity
  8
0
  6
Continuous
 62
     7
370
    25
100
AcDbCircle
 10
-6.3747687743
 20
-2.6405156833
 30
0.0
 40
0.1000000000002258
100
AcDbArc
 50
157.5
 51
247.5
  0
ARC
  5
387
330
1F
100
AcDbEntity
  8
0
  6
Continuous
 62
     7
370
    25
100
AcDbCircle
 10
-6.4734573466
 20
-2.3561457869
 30
0.0
 40
0.0999999999999898
100
AcDbArc
 50
337.5
 51
62.5
  0
ARC
  5
388
330
1F
100
AcDbEntity
  8
0
  6
Continuous
 62
     7
370
    25
100
AcDbCircle
 10
-6.5806469602
 20
-2.0748700166
 30
0.0
 40
0.0999999999999952
100
AcDbArc
 50
152.5
 51
242.5
  0
ARC
  5
389
330
1F
100
AcDbEntity
  8
0
  6
Continuous
 62
     7
370
    25
100
AcDbCircle
 10
-6.6541755231
 20
-1.7829809577
 30
0.0
 40
0.0999999999999906
100
AcDbArc
 50
332.5
 51
57.5
  0
ARC
  5
38A
330
1F
100
AcDbEntity
  8
0
  6
Continuous
 62
     7
370
    25
100
AcDbCircle
 10
-6.7364424491
 20
-1.4934333362
 30
0.0
 40
0.0999999999999835
100
AcDbArc
 50
147.5
 51
237.5
  0
ARC
  5
38B
330
1F
100
AcDbEntity
  8
0
  6
Continuous
 62
     7
370
    25
100
AcDbCircle
 10
-6.7842514059
 20
-1.1962465668
 30
0.0
 40
0.099999999999994
100
AcDbArc
 50
327.5
 51
52.5
  0
ARC
  5
38C
330
1F
100
AcDbEntity
  8
0
  6
Continuous
 62
     7
370
    25
100
AcDbCircle
 10
-6.8409695435
 20
-0.9006307263
 30
0.0
 40
0.1000000000000081
100
AcDbArc
 50
142.5
 51
232.5
  0
ARC
  5
38D
330
1F
100
AcDbEntity
  8
0
  6
Continuous
 62
     7
370
    25
100
AcDbCircle
 10
-6.8626950391
 20
-0.6004080172
 30
0.0
 40
0.0999999999999975
100
AcDbArc
 50
322.5
 51
47.5
  0
ARC
  5
38E
330
1F
100
AcDbEntity
  8
0
  6
Continuous
 62
     7
370
    25
100
AcDbCircle
 10
-6.8934327289
 20
-0.3009737728
 30
0.0
 40
0.100000000002334
100
AcDbArc
 50
137.5
 51
227.5
  0
ARC
  5
38F
330
1F
100
AcDbEntity
  8
0
  6
Continuous
 62
     7
370
    25
100
AcDbCircle
 10
-6.8889094193
 20
0.0
 30
0.0
 40
0.0999999999999837
100
AcDbArc
 50
317.5
 51
42.5
  0
ARC
  5
390
330
1F
100
AcDbEntity
  8
0
  6
Continuous
 62
     7
370
    25
100
AcDbCircle
 10
-6.8934327289
 20
0.3009737728
 30
0.0
 40
0.0999999999999956
100
AcDbArc
 50
132.5
 51
222.5
  0
ARC
  5
391
330
1F
100
AcDbEntity
  8
0
  6
Continuous
 62
     7
370
    25
100
AcDbCircle
 10
-6.8626950391
 20
0.6004080172
 30
0.0
 40
0.0999999999999956
100
AcDbArc
 50
312.5
 51
37.5
  0
ARC
  5
392
330
1F
100
AcDbEntity
  8
0
  6
Continuous
 62
     7
370
    25
100
AcDbCircle
 10
-6.8409695435
 20
0.9006307263
 30
0.0
 40
0.1000000000000008
100
AcDbArc
 50
127.5
 51
217.5
  0
ARC
  5
393
330
1F
100
AcDbEntity
  8
0
  6
Continuous
 62
     7
370
    25
100
AcDbCircle
 10
-6.7842514059
 20
1.1962465668
 30
0.0
 40
0.0999999999999926
100
AcDbArc
 50
307.5
 51
32.5
  0
ARC
  5
394
330
1F
100
AcDbEntity
  8
0
  6
Continuous
 62
     7
370
    25
100
AcDbCircle
 10
-6.7364424491
 20
1.4934333362
 30
0.0
 40
0.100000000000001
100
AcDbArc
 50
122.5
 51
212.5
  0
ARC
  5
395
330
1F
100
AcDbEntity
  8
0
  6
Continuous
 62
     7
370
    25
100
AcDbCircle
 10
-6.6541755231
 20
1.7829809577
 30
0.0
 40
0.0999999999999874
100
AcDbArc
 50
302.5
 51
27.5
  0
ARC
  5
396
330
1F
100
AcDbEntity
  8
0
  6
Continuous
 62
     7
370
    25
100
AcDbCircle
 10
-6.5806469602
 20
2.0748700166
 30
0.0
 40
0.1000000000000031
100
AcDbArc
 50
117.5
 51
207.5
  0
ARC
  5
397
330
1F
100
AcDbEntity
  8
0
  6
Continuous
 62
     7
370
    25
100
AcDbCircle
 10
-6.4734573466
 20
2.3561457869
 30
0.0
 40
0.1000000000000042
100
AcDbArc
 50
297.5
 51
22.5
  0
ARC
  5
398
330
1F
100
AcDbEntity
  8
0
  6
Continuous
 62
     7
370
    25
100
AcDbCircle
 10
-6.3747687743
 20
2.6405156833
 30
0.0
 40
0.1000000000000023
100
AcDbArc
 50
112.5
 51
202.5
  0
ARC
  5
399
330
1F
100
AcDbEntity
  8
0
  6
Continuous
 62
     7
370
    25
100
AcDbCircle
 10
-6.2434722509
 20
2.9113789241
 30
0.0
 40
0.0999999999999916
100
AcDbArc
 50
292.5
 51
17.5
  0
ARC
  5
39A
330
1F
100
AcDbEntity
  8
0
  6
Continuous
 62
     7
370
    25
100
AcDbCircle
 10
-6.1203747489
 20
3.1860654313
 30
0.0
 40
0.1000000000000101
100
AcDbArc
 50
107.5
 51
197.5
  0
ARC
  5
39B
330
1F
100
AcDbEntity
  8
0
  6
Continuous
 62
     7
370
    25
100
AcDbCircle
 10
-5.9659705615
 20
3.4444547096
 30
0.0
 40
0.1000000000000041
100
AcDbArc
 50
287.5
 51
12.5
  0
ARC
  5
39C
330
1F
100
AcDbEntity
  8
0
  6
Continuous
 62
     7
370
    25
100
AcDbCircle
 10
-5.8194009761
 20
3.7073672976
 30
0.0
 40
0.0999999999999992
100
AcDbArc
 50
102.5
 51
192.5
  0
ARC
  5
39D
330
1F
100
AcDbEntity
  8
0
  6
Continuous
 62
     7
370
    25
100
AcDbCircle
 10
-5.6430642337
 20
3.9513161151
 30
0.0
 40
0.1000000000000173
100
AcDbArc
 50
282.5
 51
7.5
  0
ARC
  5
39E
330
1F
100
AcDbEntity
  8
0
  6
Continuous
 62
     7
370
    25
100
AcDbCircle
 10
-5.474138048
 20
4.2004538602
 30
0.0
 40
0.100000000000011
100
AcDbArc
 50
97.5
 51
187.5
  0
ARC
  5
39F
330
1F
100
AcDbEntity
  8
0
  6
Continuous
 62
     7
370
    25
100
AcDbCircle
 10
-5.2772107798
 20
4.428105619
 30
0.0
 40
0.1000000000000138
100
AcDbArc
 50
277.5
 51
2.5
  0
ARC
  5
3A0
330
1F
100
AcDbEntity
  8
0
  6
Continuous
 62
     7
370
    25
100
AcDbCircle
 10
-5.087213624
 20
4.6615724325
 30
0.0
 40
0.1000000000000147
100
AcDbArc
 50
92.5
 51
182.5
  0
ARC
  5
3A1
330
1F
100
AcDbEntity
  8
0
  6
Continuous
 62
     7
370
    25
100
AcDbCircle
 10
-4.8711945654
 20
4.8711945654
 30
0.0
 40
0.1000000000000173
100
AcDbArc
 50
272.5
 51
357.5
  0
ARC
  5
3A2
330
1F
100
AcDbEntity
  8
0
  6
Continuous
 62
     7
370
    25
100
AcDbCircle
 10
0.0
 20
0.0
 30
0.0
 40
1.55
100
AcDbArc
 50
90.0
 51
270.0
  0
ARC
  5
3A3
330
1F
100
AcDbEntity
  8
0
  6
Continuous
 62
     7
370
    25
100
AcDbCircle
 10
3.3941125497
 20
3.3941125497
 30
0.0
 40
0.4750000000000054
100
AcDbArc
 50
90.0
 51
270.0
  0
ARC
  5
3A4
330
1F
100
AcDbEntity
  8
0
  6
Continuous
 62
     7
370
    25
100
AcDbCircle
 10
-2.3561457869
 20
-6.4734573466
 30
0.0
 40
0.1000000000000007
100
AcDbArc
 50
27.5
 51
112.5
  0
ARC
  5
3A5
330
1F
100
AcDbEntity
  8
0
  6
Continuous
 62
     7
370
    25
100
AcDbCircle
 10
-1.7829809577
 20
-6.6541755231
 30
0.0
 40
0.0999999999999907
100
AcDbArc
 50
32.5
 51
117.5
  0
ARC
  5
3A6
330
1F
100
AcDbEntity
  8
0
  6
Continuous
 62
     7
370
    25
100
AcDbCircle
 10
-1.1962465668
 20
-6.7842514059
 30
0.0
 40
0.1000000000000001
100
AcDbArc
 50
37.5
 51
122.5
  0
ARC
  5
3A7
330
1F
100
AcDbEntity
  8
0
  6
Continuous
 62
     7
370
    25
100
AcDbCircle
 10
0.0
 20
0.0
 30
0.0
 40
0.6
100
AcDbArc
 50
0.0
 51
180.0
  0
ARC
  5
3A8
330
1F
100
AcDbEntity
  8
0
  6
Continuous
 62
     7
370
    25
100
AcDbCircle
 10
0.0
 20
0.0
 30
0.0
 40
0.75
100
AcDbArc
 50
0.0
 51
180.0
  0
ARC
  5
3A9
330
1F
100
AcDbEntity
  8
0
  6
Continuous
 62
     7
370
    25
100
AcDbCircle
 10
0.0
 20
0.0
 30
0.0
 40
0.4550000000000001
100
AcDbArc
 50
180.0
 51
0.0
  0
ARC
  5
3AA
330
1F
100
AcDbEntity
  8
0
  6
Continuous
 62
     7
370
    25
100
AcDbCircle
 10
0.0
 20
0.0
 30
0.0
 40
0.355
100
AcDbArc
 50
180.0
 51
0.0
  0
ARC
  5
3AB
330
1F
100
AcDbEntity
  8
0
  6
Continuous
 62
     7
370
    25
100
AcDbCircle
 10
0.0
 20
0.0
 30
0.0
 40
1.350000000000002
100
AcDbArc
 50
137.7945535963
 51
42.2054464037
  0
ARC
  5
3AC
330
1F
100
AcDbEntity
  8
0
  6
Continuous
 62
     7
370
    25
100
AcDbCircle
 10
2.0
 20
-6.3
 30
0.0
 40
0.3549999999999922
100
AcDbArc
 50
226.5867057392
 51
270.1822766181
  0
ARC
  5
3AD
330
1F
100
AcDbEntity
  8
0
  6
Continuous
 62
     7
370
    25
100
AcDbCircle
 10
2.0
 20
-6.3
 30
0.0
 40
0.354999999999981
100
AcDbArc
 50
298.9910511842
 51
347.9922901309
  0
ARC
  5
3AE
330
1F
100
AcDbEntity
  8
0
  6
Continuous
 62
     7
370
    25
100
AcDbCircle
 10
4.0
 20
-6.3
 30
0.0
 40
0.3550000000000004
100
AcDbArc
 50
0.0
 51
180.0
  0
ARC
  5
3AF
330
1F
100
AcDbEntity
  8
0
  6
Continuous
 62
     7
370
    25
100
AcDbCircle
 10
4.0
 20
-6.3
 30
0.0
 40
0.4550000000000001
100
AcDbArc
 50
0.0
 51
180.0
  0
ARC
  5
3B0
330
1F
100
AcDbEntity
  8
0
  6
Continuous
 62
     7
370
    25
100
AcDbCircle
 10
-2.0
 20
-6.3
 30
0.0
 40
0.3550000000000116
100
AcDbArc
 50
192.0077098688
 51
241.0089488157
  0
ARC
  5
3B1
330
1F
100
AcDbEntity
  8
0
  6
Continuous
 62
     7
370
    25
100
AcDbCircle
 10
-2.0
 20
-6.3
 30
0.0
 40
0.3550000000000137
100
AcDbArc
 50
269.8177233818
 51
313.4132942607
  0
ARC
  5
3B2
330
1F
100
AcDbEntity
  8
0
  6
Continuous
 62
     7
370
    25
100
AcDbCircle
 10
-4.0
 20
-6.3
 30
0.0
 40
0.3550000000000004
100
AcDbArc
 50
0.0
 51
180.0
  0
ARC
  5
3B3
330
1F
100
AcDbEntity
  8
0
  6
Continuous
 62
     7
370
    25
100
AcDbCircle
 10
-4.0
 20
-6.3
 30
0.0
 40
0.4550000000000001
100
AcDbArc
 50
0.0
 51
180.0
  0
ARC
  5
3B4
330
1F
100
AcDbEntity
  8
0
  6
Continuous
 62
     7
370
    25
100
AcDbCircle
 10
4.0
 20
-6.3
 30
0.0
 40
0.7999999999999998
100
AcDbArc
 50
180.0
 51
70.3299914979
  0
ARC
  5
3B5
330
1F
100
AcDbEntity
  8
0
  6
Continuous
 62
     7
370
    25
100
AcDbCircle
 10
4.0
 20
-6.3
 30
0.0
 40
0.5999999999999988
100
AcDbArc
 50
136.8506457568
 51
106.3724482267
  0
ARC
  5
3B6
330
1F
100
AcDbEntity
  8
0
  6
Continuous
 62
     7
370
    25
100
AcDbCircle
 10
-4.0
 20
-6.3
 30
0.0
 40
0.5999999999999984
100
AcDbArc
 50
73.6275517733
 51
43.1493542432
  0
ARC
  5
3B7
330
1F
100
AcDbEntity
  8
0
  6
Continuous
 62
     7
370
    25
100
AcDbCircle
 10
-4.0
 20
-6.3
 30
0.0
 40
0.8000000000000016
100
AcDbArc
 50
109.670008502
 51
0.0
  0
ARC
  5
3B8
330
1F
100
AcDbEntity
  8
0
  6
Continuous
 62
     7
370
    25
100
AcDbCircle
 10
-2.0
 20
-6.3
 30
0.0
 40
0.8000000000000003
100
AcDbArc
 50
180.0
 51
324.7807169742
  0
ARC
  5
3B9
330
1F
100
AcDbEntity
  8
0
  6
Continuous
 62
     7
370
    25
100
AcDbCircle
 10
0.0
 20
-6.3
 30
0.0
 40
0.7999999999999999
100
AcDbArc
 50
216.2641547706
 51
323.7358452294
  0
ARC
  5
3BA
330
1F
100
AcDbEntity
  8
0
  6
Continuous
 62
     7
370
    25
100
AcDbCircle
 10
2.0
 20
-6.3
 30
0.0
 40
0.8000000000000004
100
AcDbArc
 50
215.2192830258
 51
0.0
  0
ARC
  5
3BB
330
1F
100
AcDbEntity
  8
0
  6
Continuous
 62
     7
370
    25
100
AcDbCircle
 10
-5.7
 20
-7.25
 30
0.0
 40
0.2999999999999998
100
AcDbArc
 50
180.0
 51
270.0
  0
ARC
  5
3BC
330
1F
100
AcDbEntity
  8
0
  6
Continuous
 62
     7
370
    25
100
AcDbCircle
 10
5.05
 20
-7.25
 30
0.0
 40
0.3000000000000016
100
AcDbArc
 50
270.0
 51
0.0
  0
ARC
  5
3BD
330
1F
100
AcDbEntity
  8
0
  6
Continuous
 62
     7
370
    25
100
AcDbCircle
 10
2.0
 20
-6.3
 30
0.0
 40
0.4550000000000007
100
AcDbArc
 50
225.7401427429
 51
347.120130785
  0
ARC
  5
3BE
330
1F
100
AcDbEntity
  8
0
  6
Continuous
 62
     7
370
    25
100
AcDbCircle
 10
-2.0
 20
-6.3
 30
0.0
 40
0.4550000000000002
100
AcDbArc
 50
192.879869215
 51
314.2598572571
  0
ARC
  5
3BF
330
1F
100
AcDbEntity
  8
0
  6
Continuous
 62
     7
370
    25
100
AcDbCircle
 10
-2.0
 20
-6.3
 30
0.0
 40
0.5999999999999999
100
AcDbArc
 50
195.219385681
 51
311.3910499135
  0
ARC
  5
3C0
330
1F
100
AcDbEntity
  8
0
  6
Continuous
 62
     7
370
    25
100
AcDbCircle
 10
0.0
 20
-6.3
 30
0.0
 40
0.6000000000000197
100
AcDbArc
 50
256.3473811579
 51
283.6526188421
  0
ARC
  5
3C1
330
1F
100
AcDbEntity
  8
0
  6
Continuous
 62
     7
370
    25
100
AcDbCircle
 10
2.0
 20
-6.3
 30
0.0
 40
0.5999999999999999
100
AcDbArc
 50
228.6089500865
 51
344.780614319
  0
ENDSEC
  0
SECTION
  2
OBJECTS
  0
DICTIONARY
  5
C
330
0
100
AcDbDictionary
281
     1
  3
ACAD_GROUP
350
D
  3
ACAD_LAYOUT
350
1A
  3
ACAD_MLINESTYLE
350
17
  3
ACAD_PLOTSETTINGS
350
19
  3
ACAD_PLOTSTYLENAME
350
E
  3
ACAD_SCALELIST
350
47
  3
DWGPROPS
350
3C2
  0
DICTIONARY
  5
D
102
{ACAD_REACTORS
330
C
102
}
330
C
100
AcDbDictionary
281
     1
  0
DICTIONARY
  5
1A
102
{ACAD_REACTORS
330
C
102
}
330
C
100
AcDbDictionary
281
     1
  3
Layout1
350
1E
  3
Layout2
350
26
  3
Model
350
22
  0
DICTIONARY
  5
17
102
{ACAD_REACTORS
330
C
102
}
330
C
100
AcDbDictionary
281
     1
  3
Standard
350
18
  0
DICTIONARY
  5
19
102
{ACAD_REACTORS
330
C
102
}
330
C
100
AcDbDictionary
281
     1
  0
ACDBDICTIONARYWDFLT
  5
E
102
{ACAD_REACTORS
330
C
102
}
330
C
100
AcDbDictionary
281
     1
  3
Normal
350
F
100
AcDbDictionaryWithDefault
340
F
  0
DICTIONARY
  5
47
102
{ACAD_REACTORS
330
C
102
}
330
C
100
AcDbDictionary
281
     1
  3
A0
350
48
  3
A1
350
49
  3
A2
350
4A
  3
A3
350
4B
  3
A4
350
4C
  3
A5
350
4D
  3
A6
350
4E
  3
A7
350
4F
  3
A8
350
50
  3
A9
350
51
  3
B0
350
52
  3
B1
350
53
  3
B2
350
54
  3
B3
350
55
  3
B4
350
56
  3
B5
350
57
  3
B6
350
58
  0
XRECORD
  5
3C2
102
{ACAD_REACTORS
330
C
102
}
330
C
100
AcDbXrecord
280
     1
  1
DWGPROPS COOKIE
  2

  3

  4

  6

  7

  8
flori
  9

300
=
301
=
302
=
303
=
304
=
305
=
306
=
307
=
308
=
309
=
 40
0.0
 41
2460219.495248183
 42
2460219.495377778
  1

 90
        0
  0
LAYOUT
  5
1E
102
{ACAD_REACTORS
330
1A
102
}
330
1A
100
AcDbPlotSettings
  1

  2
none_device
  4

  6

 40
0.0
 41
0.0
 42
0.0
 43
0.0
 44
0.0
 45
0.0
 46
0.0
 47
0.0
 48
0.0
 49
0.0
140
0.0
141
0.0
142
1.0
143
1.0
 70
   688
 72
     1
 73
     0
 74
     5
  7

 75
    16
147
1.0
148
0.0
149
0.0
100
AcDbLayout
  1
Layout1
 70
     1
 71
     1
 10
0.0
 20
0.0
 11
420.0
 21
297.0
 12
0.0
 22
0.0
 32
0.0
 14
1.0000000000E+20
 24
1.0000000000E+20
 34
1.0000000000E+20
 15
-1.0000000000E+20
 25
-1.0000000000E+20
 35
-1.0000000000E+20
146
0.0
 13
0.0
 23
0.0
 33
0.0
 16
1.0
 26
0.0
 36
0.0
 17
0.0
 27
1.0
 37
0.0
 76
     0
330
1B
  0
LAYOUT
  5
26
102
{ACAD_REACTORS
330
1A
102
}
330
1A
100
AcDbPlotSettings
  1

  2
none_device
  4

  6

 40
0.0
 41
0.0
 42
0.0
 43
0.0
 44
0.0
 45
0.0
 46
0.0
 47
0.0
 48
0.0
 49
0.0
140
0.0
141
0.0
142
1.0
143
1.0
 70
   688
 72
     1
 73
     0
 74
     5
  7

 75
    16
147
1.0
148
0.0
149
0.0
100
AcDbLayout
  1
Layout2
 70
     1
 71
     2
 10
0.0
 20
0.0
 11
0.0
 21
0.0
 12
0.0
 22
0.0
 32
0.0
 14
0.0
 24
0.0
 34
0.0
 15
0.0
 25
0.0
 35
0.0
146
0.0
 13
0.0
 23
0.0
 33
0.0
 16
1.0
 26
0.0
 36
0.0
 17
0.0
 27
1.0
 37
0.0
 76
     0
330
23
  0
LAYOUT
  5
22
102
{ACAD_REACTORS
330
1A
102
}
330
1A
100
AcDbPlotSettings
  1

  2
none_device
  4
ANSI_A_(11.00_x_8.50_Inches)
  6

 40
6.35
 41
19.05
 42
6.35000508
 43
19.05000254
 44
279.4
 45
215.9
 46
133.34999746
 47
105.1414993289
 48
0.0
 49
0.0
140
0.0
141
0.0
142
0.5102030692
143
1.0
 70
  1696
 72
     0
 73
     0
 74
     0
  7

 75
     0
147
0.0179189148
148
-1300.4909072572
149
0.0
100
AcDbLayout
  1
Model
 70
     1
 71
     0
 10
0.0
 20
0.0
 11
420.0
 21
297.0
 12
0.0
 22
0.0
 32
0.0
 14
-7.0
 24
-9.5
 34
0.0
 15
7.0
 25
6.9934327289
 35
0.0
146
0.0
 13
0.0
 23
0.0
 33
0.0
 16
1.0
 26
0.0
 36
0.0
 17
0.0
 27
1.0
 37
0.0
 76
     0
330
1F
331
29
  0
MLINESTYLE
  5
18
102
{ACAD_REACTORS
330
17
102
}
330
17
100
AcDbMlineStyle
  2
Standard
 70
     0
  3

 62
   256
 51
90.0
 52
90.0
 71
     2
 49
0.5
 62
   256
  6
BYLAYER
 49
-0.5
 62
   256
  6
BYLAYER
  0
ACDBPLACEHOLDER
  5
F
102
{ACAD_REACTORS
330
E
102
}
330
E
  0
SCALE
  5
48
102
{ACAD_REACTORS
330
47
102
}
330
47
100
AcDbScale
 70
     0
300
1:1
140
1.0
141
1.0
290
     1
  0
SCALE
  5
49
102
{ACAD_REACTORS
330
47
102
}
330
47
100
AcDbScale
 70
     0
300
1:2
140
1.0
141
2.0
290
     0
  0
SCALE
  5
4A
102
{ACAD_REACTORS
330
47
102
}
330
47
100
AcDbScale
 70
     0
300
1:4
140
1.0
141
4.0
290
     0
  0
SCALE
  5
4B
102
{ACAD_REACTORS
330
47
102
}
330
47
100
AcDbScale
 70
     0
300
1:5
140
1.0
141
5.0
290
     0
  0
SCALE
  5
4C
102
{ACAD_REACTORS
330
47
102
}
330
47
100
AcDbScale
 70
     0
300
1:8
140
1.0
141
8.0
290
     0
  0
SCALE
  5
4D
102
{ACAD_REACTORS
330
47
102
}
330
47
100
AcDbScale
 70
     0
300
1:10
140
1.0
141
10.0
290
     0
  0
SCALE
  5
4E
102
{ACAD_REACTORS
330
47
102
}
330
47
100
AcDbScale
 70
     0
300
1:16
140
1.0
141
16.0
290
     0
  0
SCALE
  5
4F
102
{ACAD_REACTORS
330
47
102
}
330
47
100
AcDbScale
 70
     0
300
1:20
140
1.0
141
20.0
290
     0
  0
SCALE
  5
50
102
{ACAD_REACTORS
330
47
102
}
330
47
100
AcDbScale
 70
     0
300
1:30
140
1.0
141
30.0
290
     0
  0
SCALE
  5
51
102
{ACAD_REACTORS
330
47
102
}
330
47
100
AcDbScale
 70
     0
300
1:40
140
1.0
141
40.0
290
     0
  0
SCALE
  5
52
102
{ACAD_REACTORS
330
47
102
}
330
47
100
AcDbScale
 70
     0
300
1:50
140
1.0
141
50.0
290
     0
  0
SCALE
  5
53
102
{ACAD_REACTORS
330
47
102
}
330
47
100
AcDbScale
 70
     0
300
1:100
140
1.0
141
100.0
290
     0
  0
SCALE
  5
54
102
{ACAD_REACTORS
330
47
102
}
330
47
100
AcDbScale
 70
     0
300
2:1
140
2.0
141
1.0
290
     0
  0
SCALE
  5
55
102
{ACAD_REACTORS
330
47
102
}
330
47
100
AcDbScale
 70
     0
300
4:1
140
4.0
141
1.0
290
     0
  0
SCALE
  5
56
102
{ACAD_REACTORS
330
47
102
}
330
47
100
AcDbScale
 70
     0
300
8:1
140
8.0
141
1.0
290
     0
  0
SCALE
  5
57
102
{ACAD_REACTORS
330
47
102
}
330
47
100
AcDbScale
 70
     0
300
10:1
140
10.0
141
1.0
290
     0
  0
SCALE
  5
58
102
{ACAD_REACTORS
330
47
102
}
330
47
100
AcDbScale
 70
     0
300
100:1
140
100.0
141
1.0
290
     0
  0
ENDSEC
  0
EOF
